<svg viewBox="55.52884615384619 79.27500000000009 793.2692307692307 898.4500000000002" xmlns="http://www.w3.org/2000/svg" xmlns:xlink="http://www.w3.org/1999/xlink" overflow="visible" width="793.2692307692307px" height="898.4500000000002px"><defs><ellipse id="mastercompsastronaut-path-1" cx="37.347" cy="36.436" rx="37.007" ry="36.38"/><ellipse id="mastercompsastronaut-path-5" cx="92.479" cy="89.355" rx="91.636" ry="89.218"/><polygon id="mastercompsastronaut-path-3" points="0 838 712.461 838 712.461 0.099 0 0.099"/></defs><g id="Master/Comps/Astronaut" stroke="none" stroke-width="1" fill="none" fill-rule="evenodd"><g id="Small Elements" transform="translate(102.500000, 696.500000) scale(0.5111111111111111 0.5111111111111111)"><g id="Small Elements/Levels" stroke="none" stroke-width="1" fill="none" fill-rule="evenodd"><g id="Bars" transform="translate(20.000000, 67.000000)"><g id="bar" transform="translate(2.000000, 120.000000)"><rect id="Range" fill="#EDEDEE" x="0" y="0" width="228" height="16" rx="8"/><rect id="Range" fill="#BE6FFB" x="0" y="0" width="228" height="16" rx="8"/></g><g id="bar" transform="translate(0.000000, 80.000000)"><rect id="Range" fill="#EDEDEE" x="0" y="0" width="228" height="16" rx="8"/><rect id="Range" fill="#BE6FFB" x="0" y="0" width="170.776" height="16" rx="8"/></g><g id="bar" transform="translate(2.000000, 0.000000)"><rect id="Range" fill="#EDEDEE" x="0" y="0" width="228" height="16" rx="8"/><rect id="Range" fill="#CCA4FF" x="0" y="0" width="57.224" height="16" rx="8"/></g><g id="bar" transform="translate(0.000000, 40.000000)"><rect id="Range" fill="#EDEDEE" x="0" y="0" width="228" height="16" rx="8"/><rect id="Range" fill="#CCA4FF" x="0" y="0" width="113.553" height="16" rx="8"/></g></g></g></g><g id="Space/Space Blob" transform="translate(0.000000, 133.000000) scale(1.5854126679462572 1.5808383233532934)"><g id="Space/Space Blob/2" stroke="none" stroke-width="1" fill="none" fill-rule="evenodd"><path d="M424.246417,106.725225 C457.994937,159.279427 463.519606,224.220548 447.78631,280.623113 C432.053015,336.905417 394.821552,384.649167 335.371312,430.588996 C275.800972,476.528826 193.771652,520.544474 159.422625,493.365412 C125.073597,466.186351 138.524965,367.572057 119.548929,278.217886 C100.572893,188.863715 49.2895551,108.649406 68.3856925,59.3422591 C87.48183,10.1553736 177.077544,-8.24461047 252.741485,2.81943223 C328.525527,13.7632136 390.497898,54.0507604 424.246417,106.725225 Z" id="blobs-burgers" fill="#250762"/></g></g><g id="Space/Stars" transform="translate(107.000000, 236.000000) scale(1.8601823708206686 1.8630573248407643)"><g id="Space/Stars/2" stroke="none" stroke-width="1" fill="none" fill-rule="evenodd"><polygon id="Star" fill="#E7C92D" transform="translate(261.899495, 207.000000) rotate(45.000000) translate(-261.899495, -207.000000)" points="261.899495 209.406901 256.949747 211.949747 259.492594 207 256.949747 202.050253 261.899495 204.593099 266.849242 202.050253 264.306396 207 266.849242 211.949747"/><polygon id="Star" fill="#E7C92D" transform="translate(110.899495, 283.556349) rotate(45.000000) translate(-110.899495, -283.556349)" points="110.899495 285.96325 105.949747 288.506097 108.492594 283.556349 105.949747 278.606602 110.899495 281.149448 115.849242 278.606602 113.306396 283.556349 115.849242 288.506097"/><polygon id="Star" fill="#2773B1" transform="translate(74.899495, 263.556349) rotate(45.000000) translate(-74.899495, -263.556349)" points="74.8994949 265.96325 69.9497475 268.506097 72.4925939 263.556349 69.9497475 258.606602 74.8994949 261.149448 79.8492424 258.606602 77.306396 263.556349 79.8492424 268.506097"/><polygon id="Star" fill="#2773B1" transform="translate(45.899495, 126.556349) rotate(45.000000) translate(-45.899495, -126.556349)" points="45.8994949 128.96325 40.9497475 131.506097 43.4925939 126.556349 40.9497475 121.606602 45.8994949 124.149448 50.8492424 121.606602 48.306396 126.556349 50.8492424 131.506097"/><polygon id="Star" fill="#2773B1" transform="translate(266.798990, 232.556349) rotate(45.000000) translate(-266.798990, -232.556349)" points="266.79899 234.96325 261.849242 237.506097 264.392089 232.556349 261.849242 227.606602 266.79899 230.149448 271.748737 227.606602 269.205891 232.556349 271.748737 237.506097"/><g id="Group" transform="translate(260.000000, 38.000000)" fill="#1C6AE6"><circle id="Oval" fill-opacity=".4" cx="17" cy="17" r="17"/><circle id="Oval" cx="17" cy="17" r="6"/></g><g id="Group" transform="translate(280.899495, 233.000000)" fill="#1C6AE6"><circle id="Oval" fill-opacity=".4" cx="17" cy="17" r="17"/><circle id="Oval" cx="17" cy="17" r="6"/></g><g id="Group" transform="translate(71.000000, 29.000000)" fill="#1C6AE6"><circle id="Oval" fill-opacity=".4" cx="7" cy="7" r="7"/><circle id="Oval" cx="7" cy="7" r="4"/></g><g id="Group" transform="translate(25.000000, 254.000000)" fill="#1C6AE6"><circle id="Oval" fill-opacity=".4" cx="7" cy="7" r="7"/><circle id="Oval" cx="7" cy="7" r="4"/></g><g id="Group" transform="translate(251.000000, 24.000000)" fill="#1C6AE6"><circle id="Oval" fill-opacity=".4" cx="7" cy="7" r="7"/><circle id="Oval" cx="7" cy="7" r="4"/></g><g id="Group" transform="translate(15.000000, 273.000000)" fill="#E7C92D"><circle id="Oval" opacity=".352" cx="5" cy="5" r="5"/><circle id="Oval" cx="5" cy="5" r="2.857"/></g><g id="Group" transform="translate(241.000000, 43.000000)" fill="#E7C92D"><circle id="Oval" opacity=".352" cx="5" cy="5" r="5"/><circle id="Oval" cx="5" cy="5" r="2.857"/></g><g id="Group" transform="translate(78.000000, 14.000000)" fill="#E7C92D"><circle id="Oval" opacity=".352" cx="5" cy="5" r="5"/><circle id="Oval" cx="5" cy="5" r="2.857"/></g><polygon id="Star" fill="#439DE6" transform="translate(100.899495, 243.556349) rotate(45.000000) translate(-100.899495, -243.556349)" points="100.899495 247.338622 93.1213203 251.334524 97.1172219 243.556349 93.1213203 235.778175 100.899495 239.774076 108.67767 235.778175 104.681768 243.556349 108.67767 251.334524"/><polygon id="Star" fill="#439DE6" transform="translate(71.899495, 106.556349) rotate(45.000000) translate(-71.899495, -106.556349)" points="71.8994949 110.338622 64.1213203 114.334524 68.1172219 106.556349 64.1213203 98.7781746 71.8994949 102.774076 79.6776695 98.7781746 75.681768 106.556349 79.6776695 114.334524"/><polygon id="Star" fill="#439DE6" transform="translate(292.798990, 212.556349) rotate(45.000000) translate(-292.798990, -212.556349)" points="292.79899 216.338622 285.020815 220.334524 289.016717 212.556349 285.020815 204.778175 292.79899 208.774076 300.577164 204.778175 296.581263 212.556349 300.577164 220.334524"/><polygon id="Star" fill="#2773B1" transform="translate(187.727922, 159.227922) rotate(45.000000) translate(-187.727922, -159.227922)" points="187.727922 161.29098 183.485281 163.470563 185.664864 159.227922 183.485281 154.985281 187.727922 157.164864 191.970563 154.985281 189.79098 159.227922 191.970563 163.470563"/><g id="Group" transform="translate(164.727922, 97.227922)" fill="#1C6AE6"><circle id="Oval" fill-opacity=".4" cx="14.272" cy="13.772" r="14"/><circle id="Oval" cx="14.272" cy="13.772" r="5"/></g><g id="Group" transform="translate(156.727922, 85.227922)" fill="#1C6AE6"><circle id="Oval" fill-opacity=".4" cx="6.272" cy="5.772" r="6"/><circle id="Oval" cx="5.772" cy="6.272" r="3.5"/></g><g id="Group" transform="translate(148.727922, 101.227922)" fill="#E7C92D"><circle id="Oval" opacity=".352" cx="4.272" cy="3.772" r="4"/><circle id="Oval" cx="3.772" cy="4.272" r="2.5"/></g><polygon id="Star" fill="#439DE6" transform="translate(209.727922, 142.227922) rotate(45.000000) translate(-209.727922, -142.227922)" points="209.727922 145.322509 203.363961 148.591883 206.633335 142.227922 203.363961 135.863961 209.727922 139.133335 216.091883 135.863961 212.822509 142.227922 216.091883 148.591883"/></g></g><g id="Space/Space Stuff" transform="translate(123.000000, 167.000000) scale(0.9790209790209791 0.971830985915493)"><defs><circle id="spacespace-stuffsaturn-1-path-1" cx="55.5" cy="55.5" r="55.5"/></defs><g id="Space/Space Stuff/Saturn 1" stroke="none" stroke-width="1" fill="none" fill-rule="evenodd"><g id="Group" transform="translate(71.500000, 70.500000) rotate(10.000000) translate(-71.500000, -70.500000) translate(-33.000000, 15.000000)"><g id="planet" transform="translate(49.000000, 0.000000)"><mask id="spacespace-stuffsaturn-1-mask-2" fill="#ffffff"><use xlink:href="#spacespace-stuffsaturn-1-path-1" fill="#ffffff"/></mask><use id="Mask" fill="#613CAB" xlink:href="#spacespace-stuffsaturn-1-path-1"/><path d="M135.711487,67.0001082 C135.902542,67.8242348 136,68.6579978 136,69.5 C136,85.7924001 99.5112071,99 54.5,99 C9.48879289,99 -27,85.7924001 -27,69.5 C-27,68.6579978 -26.9025424,67.8242348 -26.7114874,67.0001082 C-23.2059671,82.1221911 11.8148437,94 54.5,94 C96.8105347,94 131.590664,82.3297647 135.611962,67.3971297 Z" id="rings" fill="#155EC2" mask="url(#spacespace-stuffsaturn-1-mask-2)"/><path d="M171.424881,18.0003534 C171.805253,19.315864 172,20.6501233 172,22 C172,44.09139 119.841173,62 55.5,62 C-8.84117335,62 -61,44.09139 -61,22 C-61,20.6501233 -60.8052534,19.315864 -60.4248806,18.0003534 C-54.5804493,38.2130491 -4.90976781,54 55.5,54 C115.337291,54 164.638071,38.5108432 171.246977,18.5729971 Z" id="rings" fill="#1A6FE4" mask="url(#spacespace-stuffsaturn-1-mask-2)"/><path d="M141.692017,9.00010822 C141.895965,9.82423479 142,10.6579978 142,11.5 C142,27.7924001 103.048773,41 55,41 C6.95122677,41 -32,27.7924001 -32,11.5 C-32,10.6579978 -31.8959655,9.82423479 -31.6920173,9.00010822 C-27.9499281,24.1221911 9.43425037,36 55,36 C100.165847,36 137.293102,24.3297647 141.585775,9.39712965 Z" id="rings" fill="#1A6FE4" mask="url(#spacespace-stuffsaturn-1-mask-2)"/></g><path d="M209,60 C209,75.463973 162.213756,88 104.5,88 C46.7862436,88 0,75.463973 0,60 C0,49.5928783 21.1903083,40.5118747 52.6408394,35.6856243 C51.8640194,37.7191494 51.202476,39.8110239 50.6653308,41.9522575 C39.0636338,44.6122465 32,48.1354543 32,52 C32,60.2842712 64.4593556,67 104.5,67 C144.540644,67 177,60.2842712 177,52 C177,48.1354543 169.936366,44.6122465 158.334608,41.9528959 C157.797524,39.8110239 157.135981,37.7191494 156.358167,35.6847623 C187.809692,40.5118747 209,49.5928783 209,60 Z" id="ring" fill="#E09E3B"/></g></g></g><g id="Space/Space Stuff" opacity=".744" transform="translate(578.000000, 399.000000) scale(0.5874125874125874 0.5915492957746479)"><g id="Space/Space Stuff/Comet" stroke="none" stroke-width="1" fill="none" fill-rule="evenodd"><g id="Group-27" transform="translate(71.000000, 71.000000) rotate(-315.000000) translate(-71.000000, -71.000000) translate(25.000000, -7.000000)"><path d="M32.1464466,131.154491 C32.1464466,123.5234 38.1910716,117.336309 45.6464466,117.336309 C53.1018216,117.336309 59.1464466,123.5234 59.1464466,131.154491 C59.1464466,138.785582 45.6464466,155.336309 45.6464466,155.336309 C45.6464466,155.336309 32.1464466,138.785582 32.1464466,131.154491 Z" id="Path" fill="#CC471D" fill-rule="nonzero"/><path d="M38.6464466,132.514989 C38.6464466,128.761389 41.7824466,125.714989 45.6464466,125.714989 C49.5104466,125.714989 52.6464466,128.761389 52.6464466,132.514989 C52.6464466,136.268589 45.6464466,142.714989 45.6464466,142.714989 C45.6464466,142.714989 38.6464466,136.268589 38.6464466,132.514989 Z" id="Path" fill="#E4D125" fill-rule="nonzero"/><path d="M30.9230769,131.479185 C25.7188552,131.479185 21.5,129.720734 21.5,124.064169 L21.5,39.9538316 C21.5,37.7215286 28.2879178,26.5876263 41.8637533,6.55212454 L41.8637555,6.55212607 C43.4127599,4.26607308 46.5216881,3.6685771 48.8077411,5.21758146 C49.332115,5.5728914 49.7842014,6.02460144 50.139948,6.54867914 C63.6477939,26.4481257 70.4329185,37.4754068 70.4953219,39.6305225 L70.5,39.9538316 L70.5,124.064169 C70.5,129.62486 66.4229448,131.323202 61.3406796,131.475017 L61.0769231,131.479185 L30.9230769,131.479185 Z" id="Path" fill="#C383F5"/><path d="M70.8535534,120.729708 L70.8535534,123.577569 C70.8535534,128.941122 66.7764982,130.579255 61.694233,130.725688 L61.4304765,130.729708 L31.2766303,130.729708 C26.0724086,130.729708 21.8535534,129.033597 21.8535534,123.577569 L21.8535534,120.729708 L70.8535534,120.729708 Z" id="Combined-Shape" fill="#8F3ED8"/><path d="M0.851767722,112.070346 C6.07565839,98.4601063 13.547994,87.1596034 21.8517677,76.7132034 L21.8517677,115.454851 L0.851767722,121.713203 L0.851767722,112.070346 Z" id="Rectangle" fill="#8134C8"/><path d="M70.1482323,112.070346 C75.3721229,98.4601063 82.8444586,87.1596034 91.1482323,76.7132034 L91.1482323,115.454851 L70.1482323,121.713203 L70.1482323,112.070346 Z" id="Rectangle" fill="#8134C8" transform="translate(80.648232, 99.213203) scale(-1, 1) translate(-80.648232, -99.213203)"/><circle id="Oval" fill="#7B34BB" cx="46" cy="53.958" r="13"/><circle id="Oval" fill="#551D89" cx="46" cy="54.665" r="9.5"/></g></g></g><g transform="translate(355.000000, 519.500000) rotate(-4.000000) translate(-355.000000, -519.500000) translate(-97.000000, 90.000000) scale(1 1)" id="Master/Character/Astronaut"><defs><polygon id="mastercharacterastronaut-path-1" points="0 838 712.461 838 712.461 0.099 0 0.099"/></defs><g id="Master/Character/Astronaut" stroke="none" stroke-width="1" fill="none" fill-rule="evenodd"><g id="Group-121" transform="translate(191.000000, -106.000000)"><g id="Lower" transform="translate(-64.000000, 400.901000) scale(1 1)"><g id="Lower/Floating" stroke="none" stroke-width="1" fill="none" fill-rule="evenodd"><g id="Lower" transform="translate(189.500000, -2.000000)"><path d="M7.2126,259.8335 L7.9486,193.7905 C7.9976,190.2135 10.9396,187.3485 14.4726,187.3865 C81.2236,187.8365 148.5906,187.3835 214.5026,178.2165 C219.2596,177.0655 246.8526,174.3485 246.0496,169.9335 C246.1746,168.0495 245.5216,166.2355 244.9586,164.4975 C236.3256,138.6275 223.7336,113.3845 210.5316,88.9055 L279.9266,51.1505 C301.3576,93.5695 363.6966,202.0875 303.8926,233.5375 C255.3436,259.2355 196.7826,259.7035 143.4636,264.1265 C126.7176,262.9775 2.6726,274.6365 7.2126,259.8335" id="Fill-1" fill="#B18058"/><path d="M31.9324,273.731 C89.2244,273.879 146.7874,272.742 204.1124,266.475 L193.7834,174.852 C130.2474,181.756 64.5784,181.968 0.374111325,181.252 L0.374111325,212.421 C2.6964,212.808 5.4704,213.398 7.7254,213.855 C5.3154,219.553 2.8984,225.247 0.374111325,230.965 C0.374111325,250.388 0.374111325,289.971 0.374111325,309.252 L11.2804,309.358222 C19.5284,309.446 22.6564,283.351 31.9324,273.731" id="Fill-3" fill="#051026"/><path d="M198.0505,267.1333 L188.4225,175.4333 C205.4965,173.6193 222.3805,171.3583 238.9335,167.6403 C239.0835,167.5433 239.4495,167.5053 239.6245,167.4793 C239.6085,167.4843 239.5865,167.4903 239.6015,167.4863 C225.7165,126.3383 203.4615,86.9073 180.7055,49.6263 L258.6735,0.4053 C289.1735,52.4643 352.5435,153.8673 331.9705,214.1143 C309.9465,256.9473 240.6725,261.1413 198.0505,267.1333" id="Fill-5" fill="#C0C6CE"/><path d="M254.15633,210.35371 C254.642032,210.189106 255.166247,210.419056 255.380586,210.871539 L255.42439,210.97983 L270.25639,254.74483 C270.433656,255.267894 270.153333,255.835623 269.63027,256.01289 C269.144568,256.177494 268.620353,255.947544 268.406014,255.495061 L268.36221,255.38677 L253.53021,211.62177 C253.352944,211.098706 253.633267,210.530977 254.15633,210.35371 Z" id="Stroke-7" fill="#0A1B45" fill-rule="nonzero"/><path d="M265.2791,207.05245 C265.709446,206.773519 266.274098,206.867573 266.593074,207.253496 L266.66215,207.3477 L292.44515,247.1267 C292.745538,247.59015 292.61335,248.209362 292.1499,248.50975 C291.719554,248.788681 291.154902,248.694627 290.835926,248.308704 L290.76685,248.2145 L264.98385,208.4355 C264.683462,207.97205 264.81565,207.352838 265.2791,207.05245 Z" id="Stroke-9" fill="#0A1B45" fill-rule="nonzero"/><path d="M240.508635,213.40745 C241.011599,213.307311 241.501514,213.603387 241.65528,214.079872 L241.68465,214.192935 L250.68665,259.406935 C250.794492,259.948588 250.442819,260.475109 249.901165,260.58295 C249.398201,260.683089 248.908286,260.387013 248.75452,259.910528 L248.72515,259.797465 L239.72315,214.583465 C239.615308,214.041812 239.966981,213.515291 240.508635,213.40745 Z" id="Stroke-11" fill="#0A1B45" fill-rule="nonzero"/><path d="M252.063285,3.39593167 C252.535526,3.10956356 253.1505,3.26024347 253.436868,3.73248467 L256.227194,8.34498292 C272.460533,35.246796 283.862421,55.3803818 294.111426,75.8280043 L294.543806,76.692195 C308.089597,103.814742 318.287054,129.243952 325.386256,154.656913 L325.812556,156.458973 C330.190544,175.219774 331.470925,188.951213 329.125726,201.118389 C326.159281,216.508666 317.219428,228.220219 300.932957,236.384955 C300.43924,236.632465 299.838356,236.432875 299.590845,235.939157 C299.343335,235.44544 299.542925,234.844556 300.036643,234.597045 C315.770103,226.709545 324.313553,215.517295 327.161874,200.739861 C329.514758,188.532814 328.099654,174.557913 323.450682,155.159078 C316.538868,130.419409 306.651658,105.613783 293.560075,79.2047039 L292.754544,77.585805 C281.847162,55.7461072 269.672546,34.3634273 251.726732,4.76951533 C251.440364,4.29727414 251.591043,3.68229978 252.063285,3.39593167 Z" id="Stroke-13" fill="#051026" fill-rule="nonzero"/><path d="M238.135128,254.720867 L238.242351,255.27258 C238.826334,258.33212 239.125808,260.351882 239.161551,261.703566 C239.17615,262.255658 238.740426,262.715051 238.188334,262.730007 C237.636242,262.74425 237.176849,262.308526 237.162249,261.756434 L237.147159,261.408401 C237.079138,260.247084 236.818454,258.517121 236.353011,256.044215 L235.654025,252.511708 C235.094035,249.734092 234.40135,246.343108 234.428408,246.477777 L234.041873,244.53192 C233.798137,243.288775 233.58045,242.143269 233.377653,241.032106 L233.174458,239.901531 C231.233726,228.927323 230.993516,222.168559 233.20263,219.072527 L233.257,218.998 L233.347799,218.827535 C235.461578,214.888941 238.453682,213.55787 245.126885,212.389606 L247.116379,212.045001 C248.920114,211.721866 249.943351,211.487721 251.018623,211.136117 L251.198459,211.076394 L251.407385,211.030126 C253.294651,210.820269 254.878643,210.395378 257.589304,209.433011 L260.76555,208.283888 C260.988354,208.205839 261.193001,208.135956 261.43526,208.054446 C266.265158,206.429381 269.793595,206.232728 273.70644,207.986084 L273.995,208.119 L274.106686,208.153674 C277.384276,209.220915 282.101948,213.395656 288.594438,220.471506 L289.374422,221.32609 L290.384525,222.445453 C290.726293,222.826458 291.073436,223.215666 291.426881,223.614035 L292.507042,224.837576 C293.664217,226.15454 294.836892,227.506985 296.271048,229.174782 L300.464696,234.059973 C303.26578,237.309152 304.9315,239.157579 306.090366,240.260682 C306.490396,240.641463 306.506,241.274436 306.125218,241.674466 C305.744437,242.074496 305.111464,242.0901 304.711434,241.709318 L304.315731,241.324027 C303.44555,240.459148 302.344706,239.25759 300.818967,237.517896 L298.295955,234.605487 L293.999433,229.601728 C292.900604,228.327393 291.947072,227.230292 291.004623,226.157704 L289.93141,224.942028 C289.22924,224.150607 288.552464,223.395981 287.893773,222.670589 L286.788302,221.462604 C280.741258,214.9083 276.271327,210.974141 273.515613,210.064487 L273.352328,210.01354 L273.204541,209.957134 C269.806584,208.341712 266.797664,208.418827 262.493663,209.811189 L261.311957,210.211842 L258.619482,211.188844 C255.812974,212.196838 254.107746,212.688269 252.18487,212.949312 L251.737,213.005 L251.209994,213.173033 C250.064251,213.52157 248.901417,213.765631 246.883157,214.117096 L245.081871,214.428847 C239.276334,215.474516 236.80916,216.621256 235.110477,219.772944 L234.998342,219.986048 L234.900728,220.139744 C233.015185,222.584343 233.317219,229.561561 235.345153,240.67302 L235.551768,241.789531 C235.693391,242.544802 235.843323,243.325037 236.004846,244.148847 L238.135128,254.720867 Z" id="Stroke-15" fill="#0A1B45" fill-rule="nonzero"/><path d="M176.3748,100.2515 L166.3748,100.2515 C111.6978,100.2515 67.3748,55.9275 67.3748,1.2515 L275.3748,1.2515 C275.3748,55.9275 231.0508,100.2515 176.3748,100.2515" id="Fill-17" fill="#D7DBE2"/><path d="M119.0925,526.7832 L68.0865,484.8232 C65.3285,482.5452 64.6845,478.7692 66.6725,476.2832 C98.8935,435.4832 127.5635,390.0612 146.5025,341.8092 C157.7255,312.3102 165.7015,281.3872 162.6205,250.4872 C154.8245,189.2872 118.4995,138.3802 91.1515,84.1182 L162.2685,49.7192 C195.4235,112.1972 235.9285,175.7442 241.7575,248.4152 C246.6425,329.4192 209.3125,405.6682 167.1155,471.8662 C160.1035,479.9472 127.6255,537.8072 119.0925,526.7832" id="Fill-19" fill="#B18058"/><path d="M145.655,515.0767 C182.815,465.1077 214.744,411.4117 234.403,351.7877 L146.682,323.3867 C127.647,380.3327 93.485,434.1777 55.157,480.8327 C55.897,481.4777 77.272,500.1337 78.64,501.3287 C79.998,500.4817 82.26,498.5797 83.583,497.5717 L92.611,513.5217 C107.245,526.2927 137.065,552.3227 151.592,564.9997 C152.807,563.5817 155.247,560.7117 156.423,559.2807 C171.018,548.4287 148.832,532.6907 145.655,515.0767" id="Fill-21" fill="#0A1B45"/><path d="M232.1121,358.6436 L144.9391,328.6036 C168.9841,265.0616 154.0801,215.1096 123.9121,157.2986 C98.5341,108.6466 62.8221,59.5566 63.5321,0.8056 L155.7331,1.4266 C158.2661,42.9086 187.8761,77.1386 205.6281,114.5916 C248.1111,194.0806 264.3161,272.1526 232.1121,358.6436" id="Fill-23" fill="#D7DBE2"/><path d="M219.2312,213.9263 C213.3672,221.8643 207.3092,229.7073 200.5612,236.8873 C192.0922,232.6693 183.1962,228.3553 174.4482,224.8733 C166.2202,190.5903 150.9642,159.0683 133.7122,128.2393 C112.0282,88.6973 85.7852,48.7383 85.9791197,0.9563 L132.0812,1.2673 C132.7082,39.9403 156.4562,72.6473 174.0252,105.8743 C193.1472,139.9393 210.1032,175.7583 219.2312,213.9263" id="Fill-25" fill="#0A1B45"/><path d="M203.149076,273.96907 L249.170076,276.71107 C249.721383,276.743918 250.141677,277.217469 250.10883,277.768776 C250.078328,278.280704 249.667833,278.679667 249.167939,278.70775 L249.051124,278.70753 L203.030124,275.96553 C202.478817,275.932682 202.058523,275.459131 202.09137,274.907824 C202.121872,274.395896 202.532367,273.996933 203.032261,273.96885 L203.149076,273.96907 Z" id="Stroke-27" fill="#0A1B45" fill-rule="nonzero"/><path d="M249.355307,255.319005 C249.907257,255.29979 250.370279,255.731656 250.389495,256.283607 C250.407338,256.796132 250.036237,257.231979 249.54121,257.307013 L249.424893,257.317795 L203.351893,258.921795 C202.799943,258.94101 202.336921,258.509144 202.317705,257.957193 C202.299862,257.444668 202.670963,257.008821 203.16599,256.933787 L203.282307,256.923005 L249.355307,255.319005 Z" id="Stroke-29" fill="#0A1B45" fill-rule="nonzero"/><path d="M201.482112,291.148764 L247.120112,297.672764 C247.666839,297.750919 248.046692,298.257486 247.968536,298.804212 C247.895964,299.311887 247.453995,299.675676 246.953487,299.66248 L246.837088,299.652636 L201.199088,293.128636 C200.652361,293.050481 200.272508,292.543914 200.350664,291.997188 C200.423236,291.489513 200.865205,291.125724 201.365713,291.13892 L201.482112,291.148764 Z" id="Stroke-31" fill="#0A1B45" fill-rule="nonzero"/><path d="M148.510072,0.378395948 C149.062247,0.367592744 149.518796,0.806297096 149.529801,1.35847217 C149.651342,7.45629389 150.543669,13.7560969 152.168833,20.3246762 L152.42931,21.3590429 C156.487122,37.1938514 163.510933,51.9369421 177.629399,76.6791376 L187.080267,93.1742827 C192.503433,102.684955 193.719709,105.02705 196.71687,111.022186 C221.469739,156.85278 237.173802,200.355676 242.217924,242.530646 C242.28351,243.079023 241.89213,243.576738 241.343754,243.642324 C240.795377,243.70791 240.297662,243.31653 240.232076,242.768154 C235.221535,200.87396 219.599851,157.599267 194.942573,111.944614 L193.17012,108.424889 C190.603915,103.390116 188.529817,99.7016209 180.470106,85.6529323 L177.298838,80.1276153 C161.830227,53.1833353 154.430679,37.7939252 150.227373,20.8050222 C148.567913,14.0978244 147.654836,7.65153182 147.529996,1.39832783 C147.519193,0.846152748 147.957897,0.389604413 148.510072,0.378395948 Z" id="Stroke-33" fill="#0A1B45" fill-rule="nonzero"/><path d="M248.143562,240.927889 C248.678898,240.792117 249.222939,241.116027 249.358711,241.651362 C249.494483,242.186698 249.170573,242.730739 248.635238,242.866511 L248.323879,242.941087 C246.816074,243.282371 244.520428,243.53268 240.567747,243.831293 L234.068075,244.295275 C231.743563,244.463539 229.851448,244.613698 228.031881,244.77928 L226.912455,244.884417 C216.048806,245.937454 209.439714,247.560135 207.576063,250.082931 L207.485393,250.211986 L207.397291,250.325501 C204.399364,253.66252 203.878765,257.036076 204.270543,265.140964 L204.346371,266.665662 C204.523801,270.42804 204.503131,272.474277 204.158013,274.641427 L204.093,275.026 L204.100337,275.155559 C204.216921,277.460028 204.008627,279.457358 203.344426,283.511235 L203.084049,285.076886 C201.807986,292.750389 201.932846,296.496051 204.437984,300.107124 L204.594343,300.328074 L204.66342,300.438263 C206.208136,303.300497 212.703949,305.532444 223.794027,307.543326 L224.899658,307.74042 C227.344178,308.168942 238.478047,309.908658 240.804042,310.356753 C242.680202,310.718189 244.054169,311.053921 245.020162,311.40405 C245.539392,311.592248 245.807747,312.165732 245.61955,312.684962 C245.431352,313.204192 244.857868,313.472547 244.338638,313.28435 L243.977299,313.16149 C243.142548,312.894064 241.969158,312.617983 240.425705,312.320642 L239.871063,312.218739 C236.875409,311.685742 227.772297,310.257706 224.924922,309.774184 L224.554325,309.71038 C212.204501,307.545466 205.159667,305.235552 203.000991,301.561368 L202.937,301.448 L202.798367,301.252688 C199.950157,297.159603 199.758549,293.085184 201.03293,285.224987 L201.434294,282.797321 C202.045633,279.016594 202.21875,277.171855 202.090192,275.027031 C202.085437,274.947703 202.090155,274.86809 202.104247,274.789878 L202.182896,274.325898 C202.500501,272.322817 202.519219,270.372722 202.347543,266.738069 L202.250131,264.749757 C201.885777,256.62245 202.47742,252.924073 205.719512,249.203598 L205.866,249.036 L205.932832,248.941983 C208.271246,245.706211 215.08663,244.017561 226.684498,242.89685 L228.85993,242.697855 C229.880519,242.609361 230.941502,242.523738 232.101676,242.435499 L240.397465,241.838428 C244.514012,241.527424 246.795192,241.269864 248.143562,240.927889 Z" id="Stroke-35" fill="#0A1B45" fill-rule="nonzero"/></g></g></g><g id="Upper" transform="translate(0.000000, 0.901000) scale(1 1)"><defs><polygon id="upperreaching-path-1" points="0 435.819 608.756 435.819 608.756 0 0 0"/></defs><g id="Upper/Reaching" stroke="none" stroke-width="1" fill="none" fill-rule="evenodd"><g id="Group-58" transform="translate(86.000000, 220.000000)"><path d="M572.0979,29.6072 C586.3069,20.4552 609.1429,20.8022 605.9989,34.7272 C604.9279,38.1832 601.9799,41.3872 597.8699,41.8952 C585.4999,41.9842 576.2959,40.4142 563.3359,50.4672 C559.2449,53.4932 556.8739,54.1612 555.8559,53.3922 C553.8559,45.9502 564.7479,34.6852 572.0979,29.6072" id="Fill-1" fill="#051026"/><path d="M550.8157,112.9202 C537.6727,120.4062 510.6347,72.2352 505.7007,64.7482 C524.8937,45.8802 548.3367,24.7102 569.7717,12.5342 C588.7757,2.8962 601.6627,-4.3128 607.4357,2.9832 C609.0837,5.3152 609.4057,8.5502 607.1427,11.1102 C601.4507,16.4412 589.7967,24.7382 582.4427,31.7072 C571.8307,41.4462 562.4567,52.4422 566.0737,62.8172 C568.2577,69.0802 572.0387,71.1652 576.3677,71.1042 C584.1847,71.4962 595.2617,60.0962 601.1067,69.2812 C612.4397,83.6632 559.4257,101.5152 550.8157,112.9202" id="Fill-3" fill="#051026"/><path d="M558.0588,106.4896 C562.4188,93.6306 566.0188,80.8386 569.0588,68.1106 C564.4218,63.9626 564.2908,52.7466 569.1588,46.6576 C562.4668,39.3336 555.7298,32.0816 548.9288,24.8846 C536.7358,34.9606 520.3498,46.6986 510.6718,59.9266 C503.8748,74.4846 545.8018,99.8666 558.0588,106.4896" id="Fill-5" fill="#C0C6CE"/><path d="M558.0588,106.4896 L511.1468,60.0656 C485.5258,82.5866 458.8728,107.6556 424.8068,113.9576 C383.5558,117.6616 347.7718,91.1406 317.5568,65.0076 C299.0398,49.7696 278.2718,31.6836 252.8888,50.9666 C205.9238,88.9156 289.7748,143.1776 321.7938,161.3026 C346.6108,174.9686 373.9048,184.7976 402.6218,186.5306 C464.6918,190.7726 518.4928,149.9336 558.0588,106.4896" id="Fill-7" fill="#C0C6CE"/><path d="M428.6575,142.2835 L424.8055,113.9565 C408.5485,116.1395 392.1155,112.0255 376.4685,104.8985 C373.8465,114.2745 356.1755,136.4215 367.7195,145.0855 C378.9225,152.2335 431.3985,167.1425 428.6575,142.2835" id="Fill-9" fill="#051026"/><path d="M451.8733,130.9788 L453.8213,135.9798 C472.0173,125.1478 487.4243,110.2828 501.2453,94.3238 L492.7473,84.9788 C481.2623,102.0708 468.1883,118.2808 451.8733,130.9788" id="Fill-11" fill="#051026"/><path d="M518.8977,67.7357 L510.6727,59.9267 C503.3417,66.9417 495.8307,73.5817 488.1547,79.5727 L501.2457,94.3237 C507.3747,86.0407 513.6027,76.5717 518.8977,67.7357" id="Fill-13" fill="#051026"/><path d="M450.2014,175.9993 L445.8844,159.5503 C372.1964,178.4723 304.8394,124.1183 258.7574,72.6473 C251.4174,63.9843 238.0394,75.0583 245.9624,83.8483 C295.8544,140.1493 370.0964,197.0443 450.2014,175.9993" id="Fill-15" fill="#051026"/><path d="M314.6477,180.1269 L102.8357,180.1269 L102.8357,82.5009 C102.8357,59.0319 121.8607,40.0059 145.3297,40.0059 L272.1537,40.0059 C295.6227,40.0059 314.6477,59.0319 314.6477,82.5009 L314.6477,180.1269 Z" id="Fill-17" fill="#D7DBE2"/><mask id="upperreaching-mask-2" fill="#ffffff"><use xlink:href="#upperreaching-path-1" fill="#ffffff"/></mask><g id="Clip-20"/><polygon id="Fill-19" fill="#0A1B45" mask="url(#upperreaching-mask-2)" points="125.32 180.237 171.442 180.237 171.442 88.799 125.32 88.799"/><path d="M271.009,181.1552 C270.957,181.1552 270.904,181.1512 270.85,181.1422 C270.305,181.0552 269.934,180.5432 270.021,179.9972 C270.143,179.2332 282.275,103.2432 286.018,77.0012 C287.496,66.6362 289.506,52.5422 283.868,46.0442 C281.807,43.6682 278.901,42.5122 274.985,42.5122 C274.432,42.5122 273.985,42.0652 273.985,41.5122 C273.985,40.9602 274.432,40.5122 274.985,40.5122 C279.452,40.5122 282.949,41.9332 285.379,44.7342 C291.614,51.9212 289.53,66.5372 288.008,77.2102 C284.252,103.5422 272.117,179.5482 271.995,180.3132 C271.917,180.8052 271.492,181.1552 271.009,181.1552" id="Fill-21" fill="#0A1B45" mask="url(#upperreaching-mask-2)"/><path d="M234.6995,181.1553 C234.2705,181.1553 233.8755,180.8783 233.7435,180.4483 C233.5135,179.6993 210.6825,105.2653 200.0915,77.4993 C195.4375,65.2993 179.6845,42.5123 162.6765,42.5123 C162.1235,42.5123 161.6765,42.0653 161.6765,41.5123 C161.6765,40.9603 162.1235,40.5123 162.6765,40.5123 C180.6585,40.5123 197.1355,64.1373 201.9605,76.7863 C212.5755,104.6143 235.4265,179.1133 235.6555,179.8623 C235.8175,180.3903 235.5205,180.9493 234.9925,181.1113 C234.8945,181.1413 234.7965,181.1553 234.6995,181.1553" id="Fill-22" fill="#0A1B45" mask="url(#upperreaching-mask-2)"/><path d="M272.718,101.7354 L227.381,101.7354 C226.787,101.7354 226.25,101.3854 226.01,100.8424 C225.944,100.6934 219.285,85.7244 210.233,70.9654 C198.48,51.8034 188.136,41.6754 180.321,41.6754 C179.492,41.6754 178.821,41.0034 178.821,40.1754 C178.821,39.3464 179.492,38.6754 180.321,38.6754 C200.361,38.6754 224.805,90.9134 228.352,98.7354 L271.503,98.7354 C272.157,95.5744 273.94,86.4444 274.895,76.4124 C276.426,60.3224 275.188,49.2624 271.313,44.4274 C269.828,42.5754 267.979,41.6754 265.657,41.6754 C264.829,41.6754 264.157,41.0034 264.157,40.1754 C264.157,39.3464 264.829,38.6754 265.657,38.6754 C268.902,38.6754 271.593,39.9794 273.655,42.5524 C284.075,55.5564 274.591,98.7304 274.182,100.5624 C274.029,101.2474 273.42,101.7354 272.718,101.7354" id="Fill-23" fill="#0A1B45" mask="url(#upperreaching-mask-2)"/><path d="M207.1868,181.6273 C206.5148,181.6273 205.9038,181.1733 205.7328,180.4923 L194.3788,135.2823 L170.3768,111.1243 C169.7928,110.5363 169.7968,109.5863 170.3838,109.0023 C170.9738,108.4183 171.9218,108.4223 172.5058,109.0093 L196.7978,133.4603 C196.9878,133.6513 197.1228,133.8903 197.1888,134.1523 L208.6428,179.7613 C208.8438,180.5653 208.3568,181.3803 207.5528,181.5813 C207.4308,181.6123 207.3078,181.6273 207.1868,181.6273" id="Fill-24" fill="#C0C6CE" mask="url(#upperreaching-mask-2)"/><path d="M286.7307,181.6273 C286.6097,181.6273 286.4867,181.6123 286.3647,181.5813 C285.5607,181.3803 285.0737,180.5653 285.2747,179.7613 L296.7297,134.1523 C296.7747,133.9723 296.8527,133.8023 296.9597,133.6513 L314.2517,109.2003 C314.7297,108.5233 315.6647,108.3643 316.3417,108.8423 C317.0177,109.3203 317.1787,110.2563 316.7007,110.9323 L299.5717,135.1543 L288.1847,180.4923 C288.0137,181.1733 287.4027,181.6273 286.7307,181.6273" id="Fill-25" fill="#C0C6CE" mask="url(#upperreaching-mask-2)"/><path d="M159.8411,432.491 C157.0471,436.597 150.4581,436.971 145.2411,433.237 C135.4611,424.072 83.6351,393.461 94.1761,379.86 C98.1361,375.855 104.5371,377.257 108.6651,380.922 C123.6951,394.411 139.4331,406.873 155.7331,418.61 C160.7591,422.208 162.6411,428.379 159.8411,432.491" id="Fill-26" fill="#0A1B45" mask="url(#upperreaching-mask-2)"/><path d="M180.2776,426.8646 C171.1316,439.7346 146.1746,412.1166 136.5316,406.7576 C131.6046,402.9336 130.2326,396.6046 133.3716,392.7556 C136.5146,388.9006 142.8316,388.8626 147.5796,392.5446 C156.8246,399.7476 166.3026,406.6426 175.9966,413.2466 C180.9596,416.6266 182.9176,422.6556 180.2776,426.8646" id="Fill-27" fill="#0A1B45" mask="url(#upperreaching-mask-2)"/><path d="M190.8694,414.6312 C188.3144,418.9032 181.9284,419.6602 176.8904,416.2692 C168.8734,408.8302 135.9514,394.3992 145.3004,381.8232 C148.4144,377.9672 154.6434,377.7832 159.2594,381.3592 C168.2864,388.2942 177.5244,395.0012 186.9274,401.3272 C191.7484,404.5722 193.4974,410.4182 190.8694,414.6312" id="Fill-28" fill="#0A1B45" mask="url(#upperreaching-mask-2)"/><path d="M171.7551,370.765 C161.8841,382.855 141.2761,355.643 132.3701,349.808 C129.1221,347.655 128.1841,336.217 128.5531,333.872 C133.0781,337.81 138.7761,332.509 143.7481,336.351 C152.4181,342.862 160.3911,350.803 169.2051,357.402 C173.5721,360.856 174.7481,366.8 171.7551,370.765" id="Fill-29" fill="#0A1B45" mask="url(#upperreaching-mask-2)"/><path d="M191.7864,396.1531 C189.0464,400.3061 182.8634,401.0211 178.0344,397.6501 C161.9254,386.3301 146.3604,374.1501 131.5984,361.1801 C127.5394,357.6111 126.1774,351.5041 129.8284,347.4591 C133.4804,343.6071 139.5914,344.1801 143.4954,347.6721 C157.7034,360.1561 172.8004,371.9721 188.3614,382.9061 C192.9894,386.1381 194.5304,392.0141 191.7864,396.1531" id="Fill-30" fill="#0A1B45" mask="url(#upperreaching-mask-2)"/><path d="M154.6838,399.2357 C141.7918,415.7477 117.4348,412.7197 101.8228,398.9107 C73.2788,372.9507 45.9138,343.1117 26.5958,308.3847 C12.4238,283.0497 2.2678,251.5947 4.6168,221.8377 C6.8458,191.7197 18.9238,164.7657 34.5338,140.6797 C54.0528,110.7527 79.2788,85.0937 105.8368,62.3457 C119.1598,50.4877 136.5288,45.0387 148.6858,60.4437 C159.5058,74.5177 158.0148,94.7397 145.7758,107.1227 C113.0358,137.4017 78.9488,172.2857 69.1218,216.6137 C62.6138,260.0787 94.6708,296.7417 123.0168,326.9857 C130.2898,334.3537 137.9368,341.4987 145.8608,348.4157 C159.5908,361.6467 166.1218,383.3207 154.6838,399.2357" id="Fill-31" fill="#D7DBE2" mask="url(#upperreaching-mask-2)"/><path d="M122.3167,327.6776 L75.8037,373.5946 C24.7347,319.2876 -20.7613,252.1886 11.0907,175.5156 C29.2717,128.8876 63.2427,91.9056 99.4667,59.5186 C118.1387,42.4656 146.8857,26.2806 165.7317,53.3606 C188.4727,86.5286 151.8067,105.9256 129.3547,129.9786 C106.6877,152.7266 80.0907,183.5786 72.5127,216.3476 C64.4877,259.4006 95.6037,297.2116 122.3167,327.6776" id="Fill-32" fill="#D7DBE2" mask="url(#upperreaching-mask-2)"/><path d="M73.5549,249.1815 L68.9289,250.5695 C70.8289,271.2045 79.6149,292.1865 89.9769,310.9685 C100.7689,317.0155 111.8209,322.2765 123.0179,326.9855 C102.0959,304.5735 82.0529,278.7635 73.5549,249.1815" id="Fill-33" fill="#0A1B45" mask="url(#upperreaching-mask-2)"/><path d="M11.3167,267.848 L6.7907,269.206 C15.8037,297.41 31.2727,321.382 49.3087,343.364 L59.0817,335.579 C39.5227,316.077 22.4237,294.451 11.3167,267.848" id="Fill-34" fill="#0A1B45" mask="url(#upperreaching-mask-2)"/><path d="M21.5823,226.6038 L0.0003,226.1198 C0.8903,191.5918 14.5023,160.7788 32.1883,133.4958 C43.5973,141.6688 62.9033,147.7228 52.8943,165.7468 C45.1263,179.7688 38.9133,194.9118 36.0173,210.9718 C34.7333,218.1958 29.5813,226.4828 21.5823,226.6038" id="Fill-35" fill="#0A1B45" mask="url(#upperreaching-mask-2)"/><path d="M49.2991,343.3714 L100.9221,302.2494 C107.7031,310.7504 115.1411,319.0024 123.0181,326.9854 L75.8041,373.5944 C66.5991,364.1004 57.7061,354.0944 49.2991,343.3714" id="Fill-36" fill="#0A1B45" mask="url(#upperreaching-mask-2)"/><path d="M128.0969,127.3528 L80.4559,80.2418 C101.9879,60.5728 132.7299,23.8938 159.7089,56.4968 C181.4439,90.7038 148.1269,105.8768 128.0969,127.3528" id="Fill-37" fill="#0A1B45" mask="url(#upperreaching-mask-2)"/><path d="M126.6711,102.4661 L106.7581,81.1901 C111.8621,76.4101 117.0621,71.7491 122.3531,67.1991 L141.3591,89.2891 C136.3661,93.5811 131.4671,97.9741 126.6711,102.4661" id="Fill-38" fill="#FFF" mask="url(#upperreaching-mask-2)"/><polygon id="Fill-39" fill="#CC2935" mask="url(#upperreaching-mask-2)" points="139.2805 91.0862 120.1485 69.1052 122.3525 67.1992 141.3585 89.2892"/><polygon id="Fill-40" fill="#CC2935" mask="url(#upperreaching-mask-2)" points="135.0295 94.8318 115.6395 73.0778 117.8195 71.1428 137.0845 93.0078"/><polygon id="Fill-41" fill="#CC2935" mask="url(#upperreaching-mask-2)" points="130.8245 98.6234 111.1755 77.1044 113.3355 75.1454 132.8585 96.7794"/><polygon id="Fill-42" fill="#CC2935" mask="url(#upperreaching-mask-2)" points="126.6711 102.4661 106.7581 81.1901 108.8941 79.2001 128.6781 100.5951"/><path d="M125.3352,83.9549 L115.5212,72.9439 C117.7532,70.9549 119.9992,68.9829 122.2672,67.0379 L131.8862,78.2189 C129.6832,80.1089 127.5012,82.0229 125.3352,83.9549" id="Fill-43" fill="#0A1B45" mask="url(#upperreaching-mask-2)"/><polygon id="Fill-44" fill="#FFF" mask="url(#upperreaching-mask-2)" points="123.9309 69.8265 123.6229 70.5345 124.0289 71.1735 123.2649 71.1165 122.7709 71.7135 122.6039 70.9705 121.8919 70.7025 122.5539 70.2975 122.6109 69.5335 123.1849 70.0275"/><polygon id="Fill-45" fill="#FFF" mask="url(#upperreaching-mask-2)" points="125.9973 72.2234 125.6923 72.9284 126.0993 73.5674 125.3373 73.5084 124.8483 74.1014 124.6793 73.3604 123.9693 73.0914 124.6283 72.6894 124.6813 71.9274 125.2553 72.4214"/><polygon id="Fill-46" fill="#FFF" mask="url(#upperreaching-mask-2)" points="128.0647 74.6209 127.7627 75.3229 128.1697 75.9609 127.4107 75.8999 126.9247 76.4909 126.7537 75.7509 126.0457 75.4799 126.7007 75.0809 126.7517 74.3219 127.3257 74.8159"/><polygon id="Fill-47" fill="#FFF" mask="url(#upperreaching-mask-2)" points="130.0159 76.8836 129.7169 77.5826 130.1239 78.2206 129.3679 78.1576 128.8849 78.7456 128.7119 78.0066 128.0059 77.7346 128.6579 77.3386 128.7059 76.5816 129.2799 77.0756"/><polygon id="Fill-48" fill="#FFF" mask="url(#upperreaching-mask-2)" points="122.0676 71.4388 121.7646 72.1488 122.1726 72.7868 121.4096 72.7348 120.9196 73.3338 120.7496 72.5928 120.0356 72.3268 120.6966 71.9188 120.7476 71.1538 121.3246 71.6448"/><polygon id="Fill-49" fill="#FFF" mask="url(#upperreaching-mask-2)" points="124.1467 73.826 123.8467 74.534 124.2557 75.17 123.4947 75.117 123.0077 75.712 122.8357 74.972 122.1247 74.705 122.7807 74.301 122.8297 73.538 123.4057 74.029"/><polygon id="Fill-50" fill="#FFF" mask="url(#upperreaching-mask-2)" points="126.2249 76.2132 125.9279 76.9182 126.3379 77.5542 125.5789 77.4982 125.0959 78.0902 124.9219 77.3532 124.2119 77.0842 124.8659 76.6822 124.9119 75.9212 125.4879 76.4132"/><polygon id="Fill-51" fill="#FFF" mask="url(#upperreaching-mask-2)" points="128.1868 78.4661 127.8928 79.1681 128.3038 79.8041 127.5468 79.7461 127.0678 80.3361 126.8918 79.5991 126.1838 79.3291 126.8328 78.9301 126.8768 78.1721 127.4528 78.6641"/><polygon id="Fill-52" fill="#FFF" mask="url(#upperreaching-mask-2)" points="120.2141 73.0613 119.9111 73.7703 120.3231 74.4063 119.5611 74.3593 119.0741 74.9623 118.9001 74.2213 118.1861 73.9593 118.8431 73.5473 118.8901 72.7803 119.4691 73.2683"/><polygon id="Fill-53" fill="#FFF" mask="url(#upperreaching-mask-2)" points="122.304 75.4383 122.005 76.1453 122.417 76.7793 121.658 76.7303 121.175 77.3303 120.998 76.5913 120.285 76.3283 120.939 75.9183 120.984 75.1543 121.562 75.6423"/><polygon id="Fill-54" fill="#FFF" mask="url(#upperreaching-mask-2)" points="124.3938 77.8152 124.0988 78.5192 124.5108 79.1532 123.7528 79.1022 123.2748 79.6992 123.0968 78.9612 122.3858 78.6962 123.0358 78.2902 123.0778 77.5272 123.6558 78.0162"/><polygon id="Fill-55" fill="#FFF" mask="url(#upperreaching-mask-2)" points="126.3665 80.0589 126.0745 80.7599 126.4875 81.3939 125.7315 81.3409 125.2575 81.9339 125.0775 81.1979 124.3675 80.9319 125.0135 80.5289 125.0545 79.7679 125.6315 80.2579"/><path d="M244.6838,98.4716 C244.2278,98.4716 243.8158,98.1576 243.7098,97.6946 C238.3438,74.2176 226.7158,60.0456 217.9068,52.2896 C208.3518,43.8796 199.9528,40.9826 199.8688,40.9536 C199.3458,40.7776 199.0638,40.2106 199.2408,39.6876 C199.4168,39.1636 199.9838,38.8826 200.5058,39.0586 C200.8518,39.1746 235.1318,51.1886 245.6598,97.2486 C245.7828,97.7866 245.4458,98.3236 244.9078,98.4466 C244.8318,98.4636 244.7578,98.4716 244.6838,98.4716" id="Fill-56" fill="#C0C6CE" mask="url(#upperreaching-mask-2)"/><path d="M262.1868,98.4716 C261.7308,98.4716 261.3188,98.1576 261.2128,97.6946 C250.7268,51.8136 256.5528,40.0196 256.8058,39.5396 C257.0648,39.0516 257.6688,38.8636 258.1578,39.1216 C258.6438,39.3786 258.8318,39.9786 258.5788,40.4666 C258.4968,40.6336 252.9408,52.5266 263.1628,97.2486 C263.2858,97.7866 262.9488,98.3236 262.4108,98.4466 C262.3348,98.4636 262.2608,98.4716 262.1868,98.4716" id="Fill-57" fill="#C0C6CE" mask="url(#upperreaching-mask-2)"/></g></g></g><g id="Helmet" transform="translate(257.000000, 126.901000)"><path d="M75.863,121.1372 L70.876,121.1372 C47.643,121.1372 28.81,102.3042 28.81,79.0722 L28.81,59.3402 C28.81,41.5552 43.228,27.1372 61.013,27.1372 L66.607,27.1372 C84.392,27.1372 98.81,41.5552 98.81,59.3402 L98.81,98.1892 C98.81,110.8632 88.536,121.1372 75.863,121.1372" id="Fill-102" fill="#B18058"/><path d="M40.8103,85.6372 C40.8103,92.5412 35.2133,98.1372 28.3103,98.1372 C21.4073,98.1372 15.8103,92.5412 15.8103,85.6372 C15.8103,78.7332 21.4073,73.1372 28.3103,73.1372 C35.2133,73.1372 40.8103,78.7332 40.8103,85.6372" id="Fill-104" fill="#B18058"/><path d="M25.8777,81.8058 C25.8777,81.8058 31.4197,81.8058 31.4197,87.3478" id="Stroke-106" stroke="#000" stroke-width="3"/><path d="M27.8103,73.1372 L26.2743,73.1372 C20.4203,67.4452 18.1703,55.8452 17.4933,44.5862 C16.5653,29.1572 43.3523,16.1372 58.8093,16.1372 L76.7943,16.1372 L93.8103,42.1372 L54.5063,42.1372 C54.5063,59.1372 39.8103,73.1372 27.8103,73.1372" id="Fill-108" fill="#000"/><path d="M48.9714,41.4551 L73.2014,48.7521 C82.9484,51.6871 93.2294,46.1651 96.1634,36.4181 L98.4514,28.8191 C99.5944,25.0271 97.4454,21.0261 93.6534,19.8841 L73.0144,13.6691 C60.1774,9.8041 46.6374,17.0761 42.7724,29.9131 L42.7724,29.9131 C41.2964,34.8121 44.0724,39.9801 48.9714,41.4551" id="Fill-110" fill="#000"/><path d="M77.907,152.1372 L61.039,152.1372 C47.819,152.1372 33.952,144.9442 28.981,134.1312 C28.981,134.1312 28.81,125.8842 28.81,121.5372 L28.81,114.5162 C28.81,112.4972 30.535,110.8602 32.662,110.8602 L90.428,110.8602 C92.555,110.8602 94.28,112.4972 94.28,114.5162 L94.28,136.5912 C94.28,145.1772 86.95,152.1372 77.907,152.1372" id="Fill-112" fill="#000"/><path d="M103.865,125.6885 C100.341,134.2515 91.522,139.8435 81.768,139.8435 L74.149,139.8435 C51.385,139.8435 37.997,130.4385 24.281,119.4965 C24.281,119.4965 15.704,111.2465 9.657,95.5605 C2.089,75.9265 -2.783,47.0295 3.576,35.4005 C10.035,23.5895 27.199,0.0995 52.116,0.0995 C88.102,0.0995 114.658,19.5225 114.658,53.4285 L109.447,96.8325 C109.447,103.9185 106.748,118.6855 103.865,125.6885" id="Fill-114" fill="#D7DBE2"/><path d="M18.905,59.4417 C18.905,59.4417 29.97,17.4997 74.736,17.4997 C98.646,17.4997 111.898,36.2137 113.97,59.1567 L109.447,96.8317 C109.447,96.8317 97.494,143.3227 37.989,103.1337 C36.173,101.9077 35.048,99.9557 34.41,97.9387 L18.905,59.4417 Z" id="Fill-116" fill="#0A1B45"/><line x1="44.803" y1="46.514" x2="54.386" y2="74.137" id="Stroke-118" stroke="#FFF" stroke-width="7" stroke-linecap="round" stroke-linejoin="round" stroke-dasharray="12"/></g></g></g></g><g id="Space/Space Stuff" transform="translate(530.000000, 673.000000) scale(1.4545454545454546 1.4507042253521127)"><defs><ellipse id="spacespace-stuffplanet-path-1" cx="61.5" cy="59.5" rx="61.5" ry="59.5"/></defs><g id="Space/Space Stuff/Planet" stroke="none" stroke-width="1" fill="none" fill-rule="evenodd"><g id="Combined-Shape-+-Combined-Shape-+-Combined-Shape-Mask" transform="translate(71.500000, 71.500000) rotate(10.000000) translate(-71.500000, -71.500000) translate(10.000000, 12.000000)"><mask id="spacespace-stuffplanet-mask-2" fill="#ffffff"><use xlink:href="#spacespace-stuffplanet-path-1" fill="#ffffff"/></mask><use id="Mask" fill="#613CAB" xlink:href="#spacespace-stuffplanet-path-1"/><path d="M156.610673,39.0009916 C156.868358,40.5380009 157,42.0945462 157,43.6676181 C157,72.0177098 114.243194,95 61.5,95 C8.75680639,95 -34,72.0177098 -34,43.6676181 C-34,42.0945462 -33.8683583,40.5380009 -33.6106733,39.0009916 C-29.2237557,65.1645309 11.6837359,85.6668396 61.5,85.6668396 C111.078602,85.6668396 151.833232,65.359688 156.545305,39.3756972 Z" id="Combined-Shape" fill="#412A6E" mask="url(#spacespace-stuffplanet-mask-2)"/><path d="M198.278298,-0.999922746 C198.755481,1.31171026 199,3.65768312 199,6.03209316 C199,43.5697316 137.886868,74 62.5,74 C-12.8868683,74 -74,43.5697316 -74,6.03209316 C-74,3.65802624 -73.755552,1.31238829 -73.2785051,-0.998920591 C-66.2115757,33.2353313 -8.11833883,59.9376744 62.5,59.9376744 C132.609788,59.9376744 190.37422,33.6185353 198.117703,-0.25980642 Z" id="Combined-Shape" fill="#48258E" mask="url(#spacespace-stuffplanet-mask-2)"/><path d="M163.584175,-16.9990084 C163.859398,-15.4619991 164,-13.9054538 164,-12.3323819 C164,16.0177098 118.333044,39 62,39 C5.66695552,39 -40,16.0177098 -40,-12.3323819 C-40,-13.9054538 -39.8593984,-15.4619991 -39.5841747,-16.9990084 C-34.8986711,9.16453091 8.79310013,29.6668396 62,29.6668396 C114.953062,29.6668396 158.481567,9.359688 163.514357,-16.6243028 Z" id="Combined-Shape" fill="#9E6EFF" mask="url(#spacespace-stuffplanet-mask-2)"/><path d="M137.756366,71.0000696 C137.917756,71.9602601 138,72.9310439 138,73.9109493 C138,93.8423816 103.973641,110 62,110 C20.026359,110 -14,93.8423816 -14,73.9109493 C-14,72.9310439 -13.9177555,71.9602601 -13.7563656,71.0000696 C-10.6338844,89.5717776 22.0906599,104.179185 62,104.179185 C101.874959,104.179185 134.577496,89.5969348 137.748062,71.049998 Z" id="Combined-Shape" fill="#8A6CC6" mask="url(#spacespace-stuffplanet-mask-2)"/></g></g></g></g></svg>