<svg viewBox="260.9729729729729 498.2249999999999 594.8648648648648 517.3875" xmlns="http://www.w3.org/2000/svg" overflow="visible" xmlns:xlink="http://www.w3.org/1999/xlink" width="594.8648648648648px" height="517.3875px"><g id="Master/Character/Avatar" stroke="none" stroke-width="1" fill="none" fill-rule="evenodd"><g id="Head" transform="translate(332.000000, 483.000000) scale(0.9978902953586498 1)"><g id="Head/Hat" stroke="none" stroke-width="1" fill="none" fill-rule="evenodd"><path d="M418.885851,283.398022 C418.487525,260.972176 418.047165,238.097854 414.714438,215.89024 C411.455771,194.179155 402.491435,174.554288 387.086829,158.788524 C354.367053,125.299916 306.93824,117.120218 262.790111,109.624248 L187.309342,96.8076199 C164.281497,92.8984632 139.714393,86.6498191 116.448353,92.1937139 C104.983972,94.9256187 95.2480043,101.272367 86.3497225,108.781352 C77.7727035,116.019047 68.5511571,123.791312 62.7394011,133.528665 C56.9176369,143.280034 54.914998,154.679155 53.0224493,165.707882 C50.8877023,178.142103 49.2293452,190.673427 48.0513812,203.234784 C45.6904492,228.401544 45.3681854,253.757505 47.0805868,278.97632 C47.9102657,291.208326 49.230346,303.405295 50.9157252,315.548207 C51.7514091,321.569609 52.6961823,327.575996 53.7630553,333.56136 C54.0773125,335.326237 54.3165083,337.280315 54.638772,339.254414 C52.2578235,346.027616 50.9047162,353.042074 51.0138055,360.026501 C51.3350684,380.600377 68.6962759,393.55315 86.1985988,400.507544 C96.3469036,404.539832 106.956586,407.279745 116.927746,411.784535 C127.41733,416.522573 134.557173,424.20374 141.729042,432.966057 C155.407235,449.677827 170.842867,464.697798 188.468291,477.229122 C225.836871,503.798373 273.167604,516.364735 318.508708,506.826593 C329.387611,504.53816 340.362592,500.984381 350.141595,495.629688 C360.466044,489.976677 368.229397,481.784966 374.748732,472.099668 C386.853638,454.11955 395.534742,433.873022 402.102117,413.270115 C408.800598,392.253768 413.555489,371.199381 416.148611,349.285079 C418.732726,327.441853 419.277172,305.376391 418.885851,283.398022 L418.885851,283.398022 Z" id="Skin" fill="#ae5d29"/><path d="M177.792475,18.7642714 C208.987019,14.4714829 252.042686,28.4237956 267.577988,56.5564099 C341.747239,39.0632715 435.293889,38.4902998 496.4246,96.7244313 C560.211995,165.803029 480.091693,256.883542 426.965016,277.418531 C430.833099,296.224604 424.802088,416.70367 382.128231,470.444023 C348.261012,515.97778 269.393089,536.991745 232.898171,482.605424 L232.613497,482.156674 C228.703599,475.875719 232.070968,476.077404 236.084593,480.749515 C271.820886,512.189967 320.409812,512.72694 357.85226,479.546574 C428.02549,418.899562 420.790075,270.196887 387.39862,184.170124 C292.315731,173.722639 190.512173,202.554218 124.839712,274.159691 L129.280512,300.906374 C130.037137,305.463149 130.896711,310.015925 131.552386,314.5887 C131.972178,317.518556 132.019155,320.432412 129.99016,322.804295 C123.29048,330.63391 111.999074,318.868489 102.708677,314.18872 C99.9660362,313.802739 97.2183976,313.653746 94.5237328,313.843737 C49.8878488,319.595453 58.6824913,406.221186 107.740184,391.036934 C111.862142,388.468061 115.403387,389.252022 117.002595,392.979839 C128.695801,403.695311 136.405981,422.806369 155.833355,441.213463 C162.687959,448.118123 168.925868,453.894838 176.636048,459.433565 C181.164804,464.01534 194.830033,468.687109 190.49818,476.527723 C182.306239,494.368844 133.999174,438.326605 125.458405,422.828368 C98.6986642,433.399848 69.0433577,429.809024 41.3120979,427.225152 C-104.985415,419.615527 -85.4550919,265.333126 34.4614922,167.926924 C57.0343079,151.301743 81.9389682,137.739411 107.827141,127.302925 C111.36139,125.877995 109.817155,120.072281 106.232931,121.51721 C89.1034184,128.42387 72.4046922,136.644465 56.4865793,146.158996 L56.4624801,140.470693 C56.4391584,130.889915 56.5893617,120.915406 58.2527042,112.161671 C59.0842922,106.09597 60.4825994,99.6172888 62.6355326,94.7435289 C65.2972138,79.8012649 106.991555,28.5117913 177.792475,18.7642714 Z M92.5713002,333.731357 C94.8301809,331.584463 99.0470916,334.144337 101.058095,334.08034 C106.200547,334.784305 111.086127,336.957198 114.896239,339.639066 C117.411992,341.048997 119.175119,342.372931 120.648389,343.590871 L120.688369,343.579872 C120.677374,343.579872 120.663381,343.590871 120.651387,343.593871 L120.790058,343.687615 C122.935267,345.212459 130.788252,353.801267 125.826823,351.491482 C125.457006,351.010506 125.078194,350.548529 124.696383,350.095551 C124.655403,350.157548 124.598431,350.218545 124.530465,350.277542 L124.809152,350.691309 C129.026056,357.037483 121.745498,350.351538 120.6254,348.575626 C120.572426,348.618624 120.512456,348.647622 120.453485,348.678621 L121.912196,350.454773 C122.11613,350.706943 122.276457,350.908261 122.409516,351.078502 L122.717113,351.375583 C127.592706,356.17004 127.745024,360.484878 122.080679,353.396388 C122.303569,353.730372 122.48248,354.084354 122.507467,354.398339 L122.84315,354.826446 C127.290584,360.559942 123.673124,358.523742 121.463126,356.074987 L121.27819,355.864358 L121.31603,355.921547 C123.371992,359.090184 119.292687,356.866898 118.571852,355.171963 L118.541433,355.095305 C117.755955,354.454136 117.272603,353.734572 117.106818,353.552863 L117.076159,353.522382 C113.252053,349.602575 107.7088,346.285739 103.000133,344.778813 C102.317471,344.648819 101.626813,344.544824 100.929159,344.470828 C98.097562,343.838859 95.2349804,343.40588 92.3424136,343.171892 C91.9885889,343.129894 91.6297667,342.869907 91.3618994,342.533923 C86.9878974,342.386346 88.3380949,340.592676 90.1528348,340.259594 L90.1845961,340.254127 L89.8245722,340.223808 C87.0175201,339.949732 85.1004664,338.942117 87.9387558,338.323679 L88.2984173,338.252134 C88.2544391,338.183138 88.2154584,338.114141 88.1774772,338.045144 C85.7466816,337.778158 87.3328957,335.414274 88.6822271,335.986246 C88.1145084,334.129337 90.7092228,335.056292 91.0330623,334.780305 C91.27994,334.506319 91.586788,334.264331 91.7637003,334.251331 C92.545313,333.699359 92.1665007,333.749356 92.5713002,333.731357 Z M107.444331,303.667238 L106.874613,304.000221 C106.413842,304.269208 105.940076,304.448199 105.464312,304.553194 C106.135979,304.83918 106.79965,305.148165 107.456325,305.478149 C107.445664,305.074835 107.438112,304.671966 107.438112,304.269838 L107.444331,303.667238 Z" id="Ink" fill="#000"/></g></g><g id="Face" transform="translate(491.000000, 669.000000) scale(1 1)" fill="#000"><g id="Face/Smile" stroke="none" stroke-width="1" fill="none" fill-rule="evenodd"><path d="M146.586567,240.926554 C139.864291,238.184203 133.866322,233.609781 129.481228,227.766254 C127.956691,225.734803 127.561405,223.589624 127.881219,221.627583 C128.240828,219.421406 129.546036,217.4219 131.326046,216.080693 C133.111571,214.735331 135.345035,214.071832 137.504329,214.410065 C139.380629,214.703969 141.248396,215.731287 142.726594,217.861908 L143.035427,218.287981 C145.642441,221.814933 149.039621,224.708755 152.91047,226.573991 C156.641339,228.371775 160.813939,229.21087 165.131898,228.722919 C173.355732,227.793938 179.024012,223.346401 185.048774,217.30672 C185.795561,216.544195 186.542826,215.757766 187.293714,214.958678 C187.767915,214.234308 188.425986,213.768756 189.156624,213.524488 C189.967867,213.253272 190.885573,213.268617 191.726122,213.56195 C192.536835,213.844871 193.261572,214.380994 193.747527,215.094538 C194.209389,215.772704 194.47125,216.610486 194.386283,217.574143 C193.834826,223.833283 190.562474,229.419299 185.914235,233.805502 C180.751772,238.67694 173.908551,242.047034 167.465957,243.229031 C160.36811,244.531047 153.135593,243.598228 146.586567,240.926554 L146.586567,240.926554 Z M170.814304,144.367155 C178.365682,148.9572 189.871664,159.660291 181.748119,171.039573 C172.185929,181.073062 158.418535,169.568982 151.634201,164.366134 C145.343449,160.333898 138.275437,170.704507 144.112,175.412823 C193.135736,211.708059 213.030606,145.567387 174.633685,138.970386 C170.406047,138.243425 168.835891,142.947174 170.814304,144.367155 Z M82.9633,102.1464 C83.7976284,91.7901242 99.5703,89.4384 101.1393,99.6864 C102.5443,108.8664 100.8903,117.2994 96.7553,125.5644 C92.8043,133.4604 82.8737826,129.776544 82.1227826,122.586544 C81.1160984,112.948648 82.4443,108.588596 82.9633,102.1464 Z M203.027,97.5615 C205.226,94.6815 208.401,92.7155 212.205,93.8265 C224.09,97.2995 220.587,114.1725 216.413,122.3855 C214.145,126.8455 206.814,127.9765 203.501,124.0495 C198.101,117.6455 195.515,104.8565 202.38,98.5485 C202.566,98.2225 202.773,97.8935 203.027,97.5615 Z M96.5879,56.8305 L98.465271,56.501905 C104.27307,55.49746 111.4944,54.5323 115.6029,59.2015 C117.7819,61.6775 118.5319,66.2795 115.6029,68.6495 C110.4509,72.8195 104.7549,71.2035 98.5809,71.5565 C93.4929,71.8485 88.6029,72.6905 83.7019,74.0915 C72.9499,77.1645 64.1889,82.7745 55.0059,88.9345 C53.8009,89.7425 52.5709,88.2015 53.1459,87.0745 C58.4469,76.6915 68.7199,68.1625 79.0099,62.9635 C84.5019,60.1885 90.5119,57.8865 96.5879,56.8305 Z M192.192876,52.1793876 L193.629806,52.4734684 C209.267042,55.742077 229.583473,62.2713911 236.988459,77.6308459 C237.270623,79.8027272 236.97249,80.2682047 236.730054,80.5723213 L236.649336,80.6735209 C236.449568,80.9332186 236.290169,81.2912104 235.348782,81.5868073 C235.087547,81.5245653 234.823712,81.4586426 234.557082,81.3887687 C231.162766,80.499243 228.477205,79.2737961 225.877298,78.0022488 L223.058339,76.6134493 C219.787784,75.0098309 216.488352,73.4645766 212.991711,72.3238115 C205.52958,69.8898666 197.854137,68.1753043 190.059777,67.259767 C188.37041,67.0615005 186.743655,66.4913394 185.460262,65.5141761 C184.242065,64.5866523 183.311441,63.3024737 182.887128,61.5955207 C182.33722,59.3864508 182.495251,57.7140037 183.680513,55.7210991 C184.571756,54.2244705 185.846982,53.1871113 187.311265,52.5914244 C188.804038,51.9841473 190.503545,51.840982 192.192876,52.1793876 Z" id="Ink" fill="#000"/></g></g><g id="Beard" transform="translate(454.999934, 820.999659) scale(1 1)" fill="#000"><g id="Beard/None" stroke="none" stroke-width="1" fill="none" fill-rule="evenodd" fill-opacity="0"/></g><g id="Mask" transform="translate(360.000000, 783.000000) scale(1 1)" fill="#000"><g id="Mask/None" stroke="none" stroke-width="1" fill="none" fill-rule="evenodd" fill-opacity="0"/></g><g id="Accessories" transform="translate(379.000000, 724.000000) scale(1 1)" fill="#000"><g id="Accessories/None" stroke="none" stroke-width="1" fill="none" fill-rule="evenodd" fill-opacity="0"/></g></g></svg>