<svg viewBox="299.35135135135147 536.55 479.72972972972957 479.0625" xmlns="http://www.w3.org/2000/svg" overflow="visible" xmlns:xlink="http://www.w3.org/1999/xlink" width="479.72972972972957px" height="479.0625px"><g id="Master/Character/Avatar" stroke="none" stroke-width="1" fill="none" fill-rule="evenodd"><g id="Head" transform="translate(332.000000, 483.000000) scale(0.9978902953586498 1)"><g id="Head/Senior" stroke="none" stroke-width="1" fill="none" fill-rule="evenodd"><path d="M398.851323,192.083773 C363.670323,99.526773 300.253,31.7598 193.341,74.3238 C190.274,72.2358 186.272,71.6758 182.437,74.1208 C124.198,110.6898 82.259,169.3188 64.084,235.4298 C53.023,237.5328 42.275,241.2008 32.675,247.2158 C11.811,260.2888 -2.226,281.0908 -15.384,301.3508 C-19.341,307.4418 -15.677,317.5258 -8.241,318.9088 C-5.011,319.5108 -1.81,319.8688 1.373,319.9628 C0.598,322.7758 -0.422,325.4938 -1.721,327.9868 C-6.424,337.0108 2.461,346.5918 10.788,344.1248 C11.712,344.6138 12.68,345.0158 13.683,345.3178 C13.797,350.4298 16.424,357.2728 21.623,358.3058 C30.031,360.1098 41.205,353.6748 39.221,344.2708 C41.761,344.7178 44.292,344.7738 46.759,344.4638 C47.035,349.3608 46.949,354.4708 47.625,358.9878 C49.835,380.2758 71.105,394.5758 91.389,388.0998 C92.633,394.7328 94.094,404.0528 100.627,407.6508 C108.265,429.0778 121.454,453.5308 143.056,463.2938 C141.133,468.2208 142.176,474.2148 147.968,477.5118 C187.509,500.0548 234.969,507.6828 279.673,499.3018 C297.539,498.2378 314.946,494.2008 331.654,485.5998 C343.838,479.3278 355.039,471.3628 365.973,463.1518 C376.913,454.9378 388.61,446.9398 397.342,436.2748 C406.826,424.6918 411.241,411.0638 414.106,396.5588 C427.235,330.7198 422.700323,266.072944 398.851323,203.354944 C369.329985,125.719854 428.362028,269.722906 398.851323,192.083773 Z" id="Skin" fill="#ae5d29"/><path d="M32.5714312,243.430014 C65.4104187,224.05952 107.290189,229.07317 127.019531,259.078614 C130.425279,264.258559 132.77701,269.956888 134.438059,276.553225 L134.706144,277.649928 L134.973731,278.803534 C135.834322,282.617283 136.397876,286.206251 137.162474,292.308187 L138.009677,299.232083 L138.251568,301.118546 C139.073421,307.385492 139.794456,311.343734 140.917834,315.378821 L141.140421,316.161406 L142.438001,320.630282 L137.539806,322.44015 C128.15394,325.830102 126.189022,326.132727 120.77291,323.30187 C116.543663,321.091357 114.336046,318.115343 111.397962,312.084077 L110.97297,311.201436 L110.035658,309.233922 L109.527247,308.197279 C107.612901,304.375128 106.079968,300.299547 103.914493,298.819677 C100.973055,296.809518 91.7015931,296.009142 85.253754,296.801512 L84.9176696,296.844032 L84.6397312,296.902019 L84.1622781,297.009339 C73.3194218,299.572229 63.4366973,308.325291 56.9182611,317.574596 C51.6697151,325.022563 48.6536626,334.404314 48.2838097,344.153155 L48.2630777,344.803604 L48.1346413,349.779416 L37.6240418,349.555611 L37.727,347.619 L37.5695138,347.963139 C34.2582791,354.944345 25.9384632,359.593083 18.9776545,354.971815 L18.7296428,354.802816 L18.4769905,354.621555 C12.600602,350.296646 11.8929667,341.540278 16.7161106,336.222843 L16.9391548,335.983537 L17.156,335.763 L17.111655,335.742398 L17.0616779,335.725553 L17.0306979,335.722226 C15.3876405,336.024255 13.9444412,336.866973 11.9919882,338.660594 L11.4896696,339.131032 L10.4812686,340.222187 L9.43777652,341.335906 L8.98940656,341.796102 C8.70286806,342.085138 8.43985686,342.339494 8.19303923,342.564221 C7.85954612,342.867867 7.55086613,343.123339 7.21480463,343.355958 C6.90420909,343.570949 6.58337022,343.759223 6.19536267,343.927577 C5.2377203,344.343091 4.21410077,344.539922 2.9041299,344.217796 C1.10740467,343.777287 0.0946933192,342.691282 -0.518361964,341.411827 C-0.756452372,340.914929 -0.892574346,340.457514 -0.989051195,339.974671 C-1.08979522,339.470472 -1.13971505,338.955619 -1.16562003,338.361691 C-1.18254986,337.973538 -1.18855708,337.549683 -1.18519775,337.086148 L-1.17332835,336.360587 L-1.14857617,335.572522 L-1.122037,334.943792 L-1.00301318,332.611333 C-0.577441463,324.954624 1.4350579,317.434393 4.88055075,310.335823 L5.22987098,309.627382 L5.36,309.37 L4.99982853,309.852932 C2.65007008,312.94958 0.380931437,315.09636 -2.45087534,316.513871 L-2.84057884,316.702668 L-3.22159296,316.875524 C-7.15075639,318.601259 -11.1080957,317.931624 -13.4988472,314.731827 C-15.1527891,312.51818 -15.6407597,309.604222 -15.3019436,306.538824 C-14.644012,300.591684 -12.2920214,295.146536 -7.68686429,287.201023 L-7.04155535,286.095719 L-4.51361251,281.808827 C5.22752117,265.415001 17.7489801,252.171813 32.5714312,243.430014 Z" id="hair" fill="#E8E1E1"/><path d="M228.769,56.2876 C246.774,55.0166 265.107,58.0516 282.253,63.4806 C309.599,72.1366 334.713,87.4126 355.346,107.2996 C376.611,127.7946 392.338,153.0636 401.901,180.9726 C413.433,214.6306 415.159,250.5686 418.405,285.7036 C420.0447,303.4553 422.746642,320.93625 425.555712,338.515979 L426,341.2926 C428.744,358.4206 430.288,375.7436 426.497,392.8446 C420.195,421.2666 401.303,445.3926 378.878,463.2196 C332.811,499.8416 261.097,522.1686 207.46,488.4696 C199.162,483.2556 207.025,469.9226 215.126,475.3556 C220.827,479.1806 226.867,482.5336 233.344,484.8486 C260.406,494.5196 290.127,491.0746 316.873,482.0786 C343.23,473.2136 368.521,458.2346 387.969,438.2466 C408.397,417.2516 419.718,391.3186 418.082,361.8106 C417.107,344.2536 413.107,327.0216 410.887,309.6076 C408.920467,294.184267 407.741418,278.677307 406.382339,263.191602 L405.884197,257.621514 C403.00272,226.070834 398.864209,193.654716 384.509,165.0156 C372.434,140.9216 354.753,119.4866 333.493,102.9326 C311.235,85.6016 284.65,73.4806 256.756,68.9596 C223.954,63.6436 192.554,73.3106 165.191,91.3066 C140.923,107.2666 120.059,128.5946 104.061,152.7946 C96.303,164.5286 89.694,177.0596 83.987,189.9106 C78.609,202.0186 74.901,214.7086 70.576,227.1886 C74.135,227.0826 77.753,227.2196 81.427,227.6256 C100.271,229.7136 117.828,239.4796 129.005,254.8786 C142.664,273.6956 138.972,296.7936 144.307,318.1936 C144.72,319.8546 144.018,321.4806 142.595,322.3996 C134.506,327.6276 123.68,327.8016 115.851,321.9146 C109.056,316.8056 105.866,307.5686 108.617,299.4976 C108.976,298.4456 110.508,298.6316 110.551,299.7596 C111.068,313.4946 123.811,324.0716 136.302,317.5356 C130.944,299.0826 133.764,278.4736 122.805,261.8056 C103.408,232.3056 63.268,231.0866 35.075,247.7166 C20.2374833,256.467283 8.49322194,269.625299 -0.251916208,284.342916 L-2.77135019,288.615433 C-6.12350875,294.324082 -9.673525,300.7821 -10.369,307.0686 C-10.77,310.6966 -9.431,314.1056 -5.269,312.2776 C-1.902,310.7996 0.705,307.3506 2.705,304.3856 C6.11592473,299.328568 13.9540822,303.697509 11.1366683,309.082648 L11.041,309.2586 C6.9406,316.522943 4.41613469,324.528069 3.9525444,332.868793 L3.83473437,335.178476 C3.75743359,336.86183 3.701875,339.254287 4.058,339.3416 C4.485,339.4466 7.452,336.0216 7.946,335.5476 C10.326,333.2616 12.777,331.3936 16.09,330.7846 C20.4451467,329.986387 24.8392338,335.374836 21.0587611,338.907424 L20.901,339.0496 C17.527,341.9826 17.677,347.8316 21.404,350.5746 C26.664061,354.445807 33.139917,348.127169 33.9033497,342.92475 L33.929,342.7326 C34.604,337.1116 42.411,336.9126 42.835,342.7326 C43.756,355.3626 28.719,365.9486 17.278,359.5766 C12.754,357.0586 9.878,352.4476 8.977,347.5056 C7.533,348.2686 5.975,348.7976 4.328,348.9436 C-1.034,349.4186 -4.846,345.6486 -5.713,340.5886 C-6.723,334.6936 -6.124,328.3816 -4.571,322.2596 C-7.483,322.9616 -10.546,322.6936 -13.625,320.9166 C-22.94,315.5416 -20.265,303.5856 -16.748,295.5136 C-1.733,261.0596 29.375,229.7966 67.915,227.3146 C68.126,221.2356 68.95,215.4886 70.298,209.4016 C83.48,149.8626 126.184,94.7306 181.779,68.9626 C196.635,62.0766 212.39,57.4446 228.769,56.2876 Z M82.9754,294.1234 L83.5037501,294.00433 C89.5100584,292.710242 105.31648,291.19 103.4114,301.2974 C103.3214,301.7724 102.6304,301.7144 102.5074,301.2974 C100.6414,294.9424 87.9654,300.0244 84.2644,301.5544 C79.1624,303.6624 74.1294,306.7724 69.9634,310.3874 C60.8424,318.3034 54.7284,329.4594 53.7984,341.5754 C52.8764,353.5944 56.3634,366.5764 65.0334,375.2704 C69.2834,379.5314 74.7084,382.4244 80.8024,382.6374 C86.2774,382.8274 92.3264,378.5654 97.3784,381.0614 C98.3744,381.5534 99.1634,382.9044 99.0734,384.0164 C98.9034,386.1214 97.9614,387.7604 96.5594,389.0314 C105.0174,404.4444 111.9394,420.7584 122.7284,434.7744 C128.1424,441.8064 134.2774,448.3184 141.2244,453.8604 C144.5264,456.4954 148.1164,458.8094 151.8184,460.8424 C156.1564,463.2274 159.9104,464.7194 163.0064,468.7594 C165.6464,472.2044 163.0054,478.8654 158.6534,479.4594 C148.4044,480.8554 138.4444,472.5694 130.9204,466.3624 C123.4034,460.1604 116.9064,452.5104 111.5374,444.3934 C101.2274,428.8064 94.1744,410.4184 91.3544,391.8154 C88.0804,392.8534 84.3944,393.1704 81.6214,393.1764 C74.2434,393.1934 67.1984,390.5394 61.4004,386.0544 C40.1744,369.6374 37.8154,335.9304 52.7944,314.6744 C59.9624,304.5034 70.8544,296.9884 82.9754,294.1234 Z M83.1084,333.2174 C88.0304,332.7854 92.9484,333.5624 97.5744,335.2404 L99.4814118,335.931725 C103.509867,337.404646 107.797917,339.136572 110.7074,342.1564 C115.1524,346.7724 110.7264,354.7704 104.3944,353.0014 C97.3934,351.0454 91.7034,345.1494 84.7044,342.6764 C78.4484,340.4664 71.3624,340.7794 65.8104,344.5854 C65.0774,345.0884 64.1134,344.0964 64.5924,343.3664 C68.8394,336.8994 75.5444,333.8804 83.1084,333.2174 Z" id="Ink" fill="#000"/></g></g><g id="Face" transform="translate(491.000000, 669.000000) scale(1 1)" fill="#000"><g id="Face/Witch" stroke="none" stroke-width="1" fill="none" fill-rule="evenodd"><path d="M202.495034,211.741113 C189.87848,211.164222 169.446891,187.15002 158.88008,180.266926 C156.128254,178.474961 154.343912,175.609924 154.023919,172.540519 L153.454622,167.079765 L150.378172,171.627224 C150.05764,172.101019 149.734326,172.573495 149.410857,173.046205 C148.520054,174.348006 147.629997,175.649576 146.790017,176.983619 C143.566443,182.105733 140.611422,187.278696 137.927921,192.704365 C136.028157,196.546126 134.639141,200.843111 133.246133,205.178324 C130.894675,212.497754 128.62303,219.696429 123.598652,224.840723 C122.838977,225.618815 121.67117,225.897244 120.602356,225.7597 C119.660229,225.638459 118.736955,225.176544 118.284437,224.256337 C112.281263,212.048578 120.355669,197.337564 126.905585,187.11034 L127.598347,186.042365 C133.671845,176.800347 143.591061,164.56942 154.950956,162.906726 L156.251556,164.980884 L158.142417,163.719789 C161.234923,161.657268 198.517266,212.785731 210.315741,196.043751 C210.208054,195.553023 210.093059,195.064514 209.977801,194.577332 C209.855874,194.061966 209.733018,193.545405 209.601306,193.03044 C209.465304,192.498703 209.320199,191.970007 209.175266,191.44335 C208.598602,189.343675 207.947072,187.262785 207.174574,185.22545 C204.26815,177.566351 191.253562,149.148997 186.738376,142.316568 L186.207002,141.512828 C185.559635,140.533742 184.850833,139.512243 184.117422,138.455618 C180.596502,133.385477 170.691585,125.882915 170.414924,120.359436 C175.088786,120.653673 178.999744,123.557252 182.442437,126.085317 C187.166925,129.552355 191.545423,133.517086 195.517266,137.824564 C203.221312,146.180834 215.509733,176.118024 218.542041,187.161508 C220.278143,193.485253 219.514476,200.289764 216.256218,205.178324 C213.475723,209.350066 208.842952,212.032575 202.495034,211.741113 Z" id="Path" fill="#000"/><path d="M181.7352,212.8104 C182.4292,212.6224 183.0402,213.5544 182.4652,214.0644 C180.1112,216.1534 178.6162,220.0454 176.8982,222.6984 C175.2642,225.2224 173.6892,227.7204 172.2522,230.3624 C170.6412,233.3234 169.0852,236.2734 167.8312,239.4064 L167.5832,240.0384 L167.5832,240.0384 C167.958655,240.932036 168.252291,241.814102 168.468617,242.392337 L168.5312,242.5564 C170.6732,248.0264 166.1772,254.1054 161.1062,255.6344 C152.4322,258.2494 144.9902,251.1264 144.7832,242.6554 C144.6202,235.9914 149.1372,230.0534 153.7272,225.6484 C157.7422,221.7954 162.2382,218.5154 167.2672,216.1124 C169.4862,215.0534 171.7912,214.1674 174.2002,213.6534 C176.6642,213.1284 179.3222,213.4624 181.7352,212.8104 Z" id="Path" fill="#000"/><path d="M167.361403,144.356672 C165.041062,141.04059 154.607272,134.172757 150.326882,144.356672 C146.046492,154.540588 152.958946,157 159.173717,157 C165.388489,157 169.681744,147.672755 167.361403,144.356672 Z" id="Path-13" fill="#000"/><path d="M100.174958,124.170086 C97.7478949,122.617925 94.8928863,122.085145 91.7287079,123.524696 C89.2560287,124.649136 84.9192282,128.39769 81.9011027,133.325394 C79.8363008,136.696603 78.3721211,140.651472 78.6769434,144.770947 C78.7477349,145.727649 78.3942255,146.433054 77.8366311,146.954624 C77.3962557,147.366548 76.7601476,147.669274 76.0129997,147.763908 C75.3786744,147.844253 74.6686661,147.771772 74.0913555,147.591587 C72.9931588,147.248829 72.4119407,146.536464 72.1929489,145.954883 C70.0797393,140.342792 70.9901323,134.080043 73.3585073,128.429944 C76.5547725,120.804793 82.3592783,114.41778 86.1622145,112.358526 C92.669833,108.833475 100.346995,108.671236 106.863929,112.262379 C112.411467,115.318853 115.880218,120.253414 119.330136,125.2834 C120.06351,126.352661 120.791391,127.414081 121.543672,128.456831 C123.05132,130.546275 123.201386,132.618559 122.617532,134.395557 C121.970727,136.36415 120.32151,138.025511 118.259199,138.894957 C116.353068,139.69856 114.140756,139.811681 112.183119,138.985995 C110.529381,138.288488 109.0117,136.92878 108.051384,134.621701 C106.434021,130.736299 103.739338,126.449586 100.174958,124.170086 L100.174958,124.170086 Z" id="Path" fill="#000"/><path d="M223.440775,132.814369 C221.778563,133.680468 220.478145,133.941602 218.634261,133.389159 C217.614596,133.082886 216.606823,132.495899 215.817824,131.706899 C215.035882,130.924958 214.471712,129.952552 214.252419,128.873803 C213.713072,126.211477 212.256412,123.719368 210.18061,122.094757 C208.406384,120.706172 206.16691,119.97019 203.68291,120.385402 C201.002485,120.832856 198.448729,122.551933 196.689869,124.578687 C196.102007,125.256875 195.641205,126.027105 195.177941,126.792136 C194.311333,128.22283 193.469024,129.552694 192.273843,130.603376 C191.82079,131.003129 191.138107,131.28 190.476901,131.28 C190.208169,131.28 189.935444,131.236271 189.675563,131.155276 C187.007679,128.47758 186.494623,126.446273 186.580635,124.431485 C186.670832,122.318684 187.503809,120.179493 188.849905,118.183565 C192.007516,113.501608 198.002761,109.662839 202.048399,108.79334 C207.588873,107.602708 213.091225,109.031983 217.502758,112.126467 C222.041966,115.310509 225.405508,120.254035 226.454161,125.825144 C226.706431,127.166899 226.599231,128.615171 226.088238,129.870886 C225.588922,131.097909 224.71878,132.148831 223.440775,132.814369 Z" id="Path" fill="#000"/><path d="M112.394258,74.2526486 C109.069304,77.4921444 105.133931,77.9939318 101.152655,78.4402385 C98.9405594,78.6905522 97.1746454,78.8923401 95.4369094,79.2844431 C90.6605649,80.3626109 85.9393099,81.9864477 81.6319378,84.3250848 C77.1292738,86.7698547 72.2223932,89.7182412 68.6922598,93.4953513 C67.8528342,94.3941678 67.061542,95.3372855 66.2691444,96.2824677 C65.5465882,97.1443561 64.8505415,97.9741006 64.1169766,98.7741419 C63.2745284,99.6930924 62.474532,100.656215 61.6787885,101.616822 C61.1867388,102.427379 61.0895404,102.626735 60.9904523,102.834265 C60.8413425,103.146109 60.6678954,103.495099 60.4697946,103.869494 C60.1984889,104.382242 59.8807027,104.94353 59.5478797,105.452422 C58.9941378,106.382586 58.6970103,106.638799 58.44026,106.753401 C58.0142242,106.943142 57.6101892,107.036611 57.2182099,106.985995 C56.8506749,106.938536 56.5044166,106.762013 56.1624818,106.47304 C54.4554262,105.030757 53.951973,102.663788 54.003574,100.151245 C54.0818781,96.3384852 55.4881691,92.117066 56.7845563,89.5220553 C59.7989145,83.4923568 63.9794222,77.2240967 69.0062346,72.7238372 C74.7422821,67.5868727 81.0177087,63.6979271 88.2256814,61.0181785 C92.7050141,59.3522788 97.8912946,57.8231463 102.771356,58.0162973 C106.284021,58.1553272 109.63736,59.1994956 112.406688,61.8070554 C114.107217,63.4077623 114.923517,65.6846039 114.923517,67.9598329 C114.923517,70.2803828 114.075698,72.6146356 112.394258,74.2526486 Z" id="Path" fill="#000"/><path d="M61.3942188,189.960624 C58.0692655,191.547321 54.1338921,191.793095 50.1526165,192.011695 C47.9405206,192.134298 46.1746066,192.233133 44.4368706,192.425184 C39.6605261,192.953268 34.9392711,193.74862 30.631899,194.894078 C26.129235,196.09152 21.2223544,197.535633 17.6922211,199.385652 C16.8527954,199.82589 16.0615032,200.287826 15.2691056,200.750774 C14.5465494,201.172925 13.8505027,201.579332 13.1169378,201.97119 C12.2744896,202.42129 11.4744932,202.893025 10.6787497,203.363528 C10.1867,203.760537 10.0895016,203.858181 9.99041349,203.959828 C9.84130373,204.112569 9.66785665,204.283503 9.46975578,204.466881 C9.19845008,204.718024 8.88066395,204.992941 8.54784088,205.242195 C7.99409897,205.697787 7.69697151,205.82328 7.44022123,205.879411 C7.01418541,205.972346 6.6101504,206.018127 6.21817112,205.993335 C5.85063607,205.97009 5.50437779,205.883629 5.16244304,205.742091 C3.45538741,205.035664 2.95193416,203.876329 3.00353523,202.645692 C3.08183934,200.778212 4.4881303,198.710571 5.78451754,197.439541 C8.79887569,194.48621 12.9793834,191.416032 18.0061958,189.211816 C23.7422433,186.695744 30.0176699,184.790948 37.2256426,183.478414 C41.7049753,182.66246 46.8912558,181.913495 51.7713173,182.0081 C55.283982,182.076196 58.6373211,182.587627 61.4066491,183.864804 C63.1071784,184.648826 63.9234783,185.764017 63.9234783,186.878419 C63.9234783,188.015018 63.0756589,189.158329 61.3942188,189.960624 Z" id="Path-Copy" fill="#000" transform="translate(33.461739, 194.000000) rotate(-126.000000) translate(-33.461739, -194.000000)"/><path d="M230.202983,103.917581 C229.991535,104.264137 229.698869,104.50296 229.373218,104.646395 C229.031839,104.796759 228.650729,104.840068 228.284999,104.778443 C227.920889,104.717091 227.574779,104.552038 227.300232,104.299793 C227.037084,104.058021 226.836702,103.737376 226.747103,103.344559 C224.539595,93.6490336 220.253164,86.4354186 211.104309,81.7836507 C206.603851,79.4952872 201.428751,78.0413484 196.529682,76.8821344 C195.106038,76.5452379 193.601743,76.3269526 192.086825,76.1057581 C187.338965,75.4125185 182.556847,74.6185951 179.461645,70.7808275 C177.596631,68.4690944 176.81391,65.5126371 177.256458,62.8088302 C177.67314,60.2630482 179.160769,57.9287462 181.865031,56.529874 C188.597516,53.048922 196.963943,56.4646469 203.762668,59.3743755 C204.266993,59.5902173 204.762058,59.8021006 205.246454,60.0065439 C211.895078,62.8129721 217.958974,66.5173942 222.943608,71.815137 C226.89868,76.0180237 230.563109,82.2312248 232.038949,88.62289 C233.266795,93.9405248 232.978088,99.3690991 230.202983,103.917581 Z" id="Path" fill="#000"/><path d="M138.426163,134.889275 C128.941324,176.945058 106.814987,192.505617 74.4668497,178.52895 L73.4834768,178.09637 C61.4772767,166.642682 61.8050677,164.406652 74.4668497,171.388281 C93.4595227,181.860725 120.707574,176.784797 128.965286,141.33867 C141.595763,109.001885 144.749388,106.852087 138.426163,134.889275 Z" id="Path-14" fill="#000" fill-rule="nonzero"/><path d="M239.859536,142.329911 C233.44355,177.493981 218.476267,190.504619 196.594483,178.818319 L195.929284,178.456626 C187.807732,168.879863 188.029465,167.010253 196.594483,172.847797 C209.44201,181.604114 227.873858,177.359982 233.459759,147.722438 C242.003601,120.684708 244.136859,118.887199 239.859536,142.329911 Z" id="Path-14-Copy" fill="#000" fill-rule="nonzero" transform="translate(216.000000, 154.500000) scale(-1, 1) translate(-216.000000, -154.500000)"/></g></g><g id="Beard" transform="translate(454.999934, 820.999659) scale(1 1)" fill="#000"><g id="Beard/Senior Beard" stroke="none" stroke-width="1" fill="none" fill-rule="evenodd"><path d="M-11.5714046,-16.2445506 C-4.5036342,-16.2445506 -1.60885814,0.21020417 -1.60885814,0.21020417 C16.3669846,31.2060244 33.6702345,62.1145317 64.5431853,83.439754 C98.8148257,97.1732276 132.524366,120.563082 171.574412,123.127705 C189.178832,121.279245 194.342239,105.166097 216.083764,110.835804 C229.954781,114.205982 245.529699,120.852835 258.353514,111.251939 C269.194027,104.166346 276.820336,93.432125 286.170347,84.7539177 C286.646648,83.1880181 289.751951,99.7121632 288.81365,105.297616 L288.088881,108.469125 C282.299567,134.041435 276.444928,164.133971 250.539105,178.191064 C242.646596,182.349329 231.573983,186.36169 222.815772,184.017978 C176.538718,191.397434 126.341258,185.997957 85.7974104,162.913268 C71.5237935,159.205045 60.906581,147.822476 49.6667677,139.224413 C22.1755352,115.145111 -9.32938734,84.6422841 -12.2652908,48.0614724 C-15.2011943,11.4806607 -13.8937483,-16.2445506 -11.5714046,-16.2445506 Z M128.254394,55.9858378 C144.006168,30.6921764 175.299795,34.7998857 199.650639,46.3236979 C213.102074,37.190697 230.849747,38.8719114 245.444207,45.3062012 L245.442009,45.3143575 C258.88575,52.6692881 269.067472,64.7456886 278.427094,76.2960087 C280.704353,79.3648112 281.609981,83.4878136 278.407311,85.0008046 C263.32047,97.4350621 231.97622,90.1376333 217.752144,80.8924835 C207.489092,80.06564 209.73894,65.4950474 197.893237,75.6924435 C189.988774,83.1228198 180.058738,87.7301017 169.272532,90.4604183 C145.155788,98.7400678 122.951414,97.3647141 101.948316,84.4584116 C99.2468185,84.1963909 88.1792519,77.9364416 92.1117001,75.7087561 C96.3892541,76.8638901 120.087255,63.2622642 128.254394,55.9858378 Z" id="Background" fill="#E8E1E1"/><path d="M-15.2541583,10.948422 C-15.0933415,9.61801671 -13.0280563,9.55211428 -12.9817939,10.948422 C-12.0246031,40.2142492 -2.4945512,72.2994646 13.623485,97.3568039 C52.3583214,160.604601 131.419641,192.288223 207.513558,181.401966 C263.123151,180.648207 269.063572,149.138299 282.886113,105.13916 C290.060087,99.2491303 293.584813,101.359291 291.356515,108.263945 C274.222055,161.357154 268.355119,191.808927 200.560982,191.230695 C91.7044821,206.768223 -26.3461165,117.763903 -15.2541583,10.948422 Z M138.535374,34.5476174 C156.295694,26.6190522 177.428896,27.7378321 192.263182,38.7014624 L193.309189,38.9397327 C195.907041,39.5204648 198.399844,39.962437 201.320426,39.6652867 C240.574737,19.0003984 266.781056,55.0399884 286.906917,82.023969 C288.425101,82.0756209 289.661935,83.2667135 289.251496,84.6623475 L289.895841,85.3513838 C287.360386,92.1508386 282.779356,98.7147608 276.515746,102.838648 C255.978342,130.184192 240.642041,121.635804 213.88516,110.376725 C186.371394,106.258003 185.258133,138.690225 146.87435,123.833075 L145.426126,123.36136 C132.799418,119.190609 118.303552,112.864968 109.122776,103.723961 C108.82267,103.42438 109.116156,102.846912 109.575141,102.996703 C130.874947,109.418066 158.26183,130.384601 179.942284,116.258842 C185.422529,112.581227 190.345593,108.116438 196.47239,105.346864 C231.449087,93.6435782 243.741298,139.862723 274.3477,91.8781166 C249.425659,96.2210076 221.334851,91.9029095 202.70621,74.9342305 C174.858135,108.473869 120.656998,103.100006 86.195557,82.2677659 C81.4821269,82.9464717 74.5079715,78.2843721 78.8484757,73.8464417 C83.5961091,70.0727546 91.1075867,71.5520647 96.9442079,69.5056168 C115.575056,62.8776462 119.974036,41.7520231 138.535374,34.5476174 Z M200.796573,48.5727782 C181.11269,34.5708827 151.673992,32.2131362 132.836004,48.7307875 C121.071774,60.5463713 113.439968,77.5019045 94.4751514,80.6269772 C127.044875,99.3743151 173.842623,99.6893009 198.921708,69.8606577 C199.709151,67.2819047 203.790844,68.3941662 204.283823,70.635213 C222.240624,83.1644205 245.208831,89.8224984 267.575977,85.9807038 C271.181234,85.3889435 274.741272,84.54726 278.213082,83.4659808 L274.911924,78.9288281 C257.359527,54.9124981 234.778358,26.9459739 201.299479,46.6983542 C200.541812,47.0815009 200.223085,46.1014302 200.128239,45.5984856 L199.716871,45.8990131 C200.013541,46.5196901 202.480644,48.5634835 200.796573,48.5727782 Z M281.399289,90.2757857 C281.563359,90.4230158 281.698622,90.5838487 281.813847,90.7510829 C282.36492,90.4646243 282.936033,90.1733647 283.523427,89.8941076 L283.364367,89.7772837 C282.733138,89.9565204 282.075607,90.1221542 281.399289,90.2757857 Z M-12.7195703,-25.3678008 L-12.7270529,-26.32765 C-12.7261592,-35.9872095 -10.1303317,-23.8088618 -8.96468811,-21.4130327 C-3.95303838,-12.3906384 0.236921082,-3.46201263 5.54596541,5.3336884 C26.8339114,43.6324953 30.1305856,60.2326293 73.0259014,82.049801 C76.2124295,84.7783643 72.8650881,89.6759706 68.9064355,88.6692461 C62.9849786,87.1637963 57.4005689,83.3914133 52.2424248,80.3485706 C23.0327678,65.2837687 12.1371109,34.5523972 -0.968077775,7.80464564 C-4.81658418,-2.80151071 -13.6943637,-14.1165989 -12.7195703,-25.3678008 Z" id="Ink" fill="#000"/></g></g><g id="Mask" transform="translate(360.000000, 783.000000) scale(1 1)" fill="#000"><g id="Mask/None" stroke="none" stroke-width="1" fill="none" fill-rule="evenodd" fill-opacity="0"/></g><g id="Accessories" transform="translate(379.000000, 724.000000) scale(1 1)" fill="#000"><g id="Accessories/None" stroke="none" stroke-width="1" fill="none" fill-rule="evenodd" fill-opacity="0"/></g></g></svg>