<svg viewBox="376.1081081081081 459.89999999999986 383.78378378378363 536.5500000000005" xmlns="http://www.w3.org/2000/svg" overflow="visible" xmlns:xlink="http://www.w3.org/1999/xlink" width="383.78378378378363px" height="536.5500000000005px"><g id="Master/Character/Avatar" stroke="none" stroke-width="1" fill="none" fill-rule="evenodd"><g id="Head" transform="translate(332.000000, 483.000000) scale(0.9978902953586498 1)"><g id="Head/Top" stroke="none" stroke-width="1" fill="none" fill-rule="evenodd"><path d="M242.041161,75.2596156 C298.821805,75.2596156 381.931473,113.176005 388.1815,149.6554 C395.546993,192.645412 411.906116,354.298901 402.999889,407.198049 C394.093662,460.097197 359.365264,499.183765 282.566771,499.183765 C205.768277,499.183765 148.446655,457.302629 135.285147,442.922462 C126.510808,433.335685 116.807627,413.625855 106.175605,383.792973 C78.1438338,379.041337 64.0629699,365.492596 63.9330131,343.146752 C63.8030564,320.800909 70.8440111,306.175148 85.0558771,299.269471 C77.3858027,206.570323 81.6113554,148.741029 97.7325351,125.781589 C121.914305,91.3424282 185.260516,75.2596156 242.041161,75.2596156 Z" id="Skin" fill="#ae5d29"/><path d="M223.340354,-2.99954907 L225.6415,-2.9836 C236.0805,-2.8136 246.6015,-2.4236 257.0805,-1.5636 C257.5715,-1.6136 258.0715,-1.6536 258.5615,-1.7036 C278.2815,-3.5946 297.9715,-1.8946 317.6815,-1.0636 C336.4605,-0.2736 356.2905,1.6664 373.1515,10.6554 C375.3195,11.8094 377.1565,13.1214 378.7235,14.5834 C380.9205,14.8924 383.0155,15.5154 384.8985,16.5624 C390.3265,15.4654 396.3865,17.8974 397.6705,24.1964 C399.5405,33.4264 400.2505,42.7354 399.1305,52.0964 C399.1015,52.3154 399.0805,52.5464 399.0505,52.7864 C401.3175,61.4704 401.1665,70.9544 399.2825,79.5194 C400.0765,90.3414 400.5295,101.1944 400.5925,112.0294 C400.6365,119.5244 400.9705,127.1554 400.2735,134.6284 C399.6595,141.1984 396.9555,146.3974 392.7005,151.3874 C391.8985,152.3274 390.5435,152.4834 389.4165,152.2554 C389.1245,152.1964 388.8705,152.1164 388.6405,152.0214 C391.2055,157.5204 393.2335,163.3544 395.3115,168.9264 C398.6115,177.7864 401.8115,186.7964 404.0805,195.9764 C408.6815,214.4854 411.7105,233.3464 413.4715,252.3364 C416.5805,286.1264 417.7505,320.2064 418.3515,354.1264 C418.9315,386.2664 416.1015,419.7864 397.7905,447.2664 C381.7815,471.3064 357.4015,488.7564 330.2505,498.1764 C314.8005,503.5464 297.6915,505.5364 281.3715,506.0264 C272.9415,506.2764 264.4915,505.9164 256.1115,505.0464 C247.9815,504.1964 239.5715,504.2864 233.6305,498.1264 C232.0005,496.4364 232.0215,492.9664 234.4315,491.8664 C239.0215,489.7764 242.1305,489.5564 247.1615,490.2464 C251.3305,490.8154 255.5115,491.2664 259.7105,491.5564 C268.7105,492.1864 277.7715,492.2064 286.7715,491.5164 C303.3115,490.2464 320.2315,485.5754 335.2505,478.4964 C358.8005,467.3764 379.0315,449.1554 389.9515,425.2464 C402.6415,397.4964 401.8215,365.3464 401.2315,335.5264 C400.5805,302.8264 399.3715,270.2264 396.5315,237.6364 C395.1515,221.8364 393.0215,206.1464 391.1015,190.4164 C390.0905,182.0564 388.7615,173.7354 387.1305,165.4764 C386.2715,161.1054 385.1515,156.7964 384.2315,152.4564 C383.5615,152.5654 382.8805,152.6264 382.1815,152.6554 C378.0005,152.7964 373.4315,151.7764 370.3305,148.8064 C369.1415,149.6164 367.6305,150.1264 365.8115,150.2164 C348.6215,151.0654 331.1615,150.0164 313.9415,150.0064 C296.6615,149.9964 279.3715,150.0064 262.0805,150.0564 C244.8115,150.1054 227.4915,150.2664 210.2315,149.8064 C194.1615,149.3764 177.5505,149.7264 161.6915,146.7864 C156.3615,165.7264 156.5505,186.5364 167.6615,203.4564 C170.8005,208.2264 168.2505,213.8464 164.1615,216.8264 C159.9805,219.8674 152.4655,224.5304 146.0355,225.0094 C145.4125,226.4084 144.7725,227.8004 144.1645,229.1884 C141.0955,236.1814 138.3305,243.2184 136.3955,250.6224 C135.3985,254.4384 134.5405,258.3174 133.8185,262.2204 C133.8775,262.9034 133.9385,263.5854 134.0115,264.2664 C134.0115,264.3364 134.0215,264.4054 134.0315,264.4854 C134.0715,264.7664 134.1215,265.0864 134.1515,265.2664 C134.5215,267.2264 134.8805,269.1864 135.2715,271.1364 C136.2015,275.8864 136.9205,280.6764 137.4315,285.4854 C138.3615,294.2864 138.2715,305.7264 129.6915,310.9364 C125.1015,313.7264 119.6015,313.4364 114.7505,311.5654 C111.4915,310.3064 108.7215,308.5264 105.7215,306.7764 C103.9415,305.7354 102.0805,304.8864 100.3405,303.8064 C99.8615,303.5064 99.4015,303.1464 98.9715,302.7664 C95.7215,303.4564 92.5505,304.7464 90.7715,305.6264 C86.0005,307.9964 81.8115,311.4264 78.2505,315.3664 C70.6815,323.7564 68.4115,335.5764 69.4715,346.5464 C70.4605,356.7564 74.4715,368.4854 82.5405,375.2764 C86.0505,378.2354 90.4315,379.9664 95.0615,379.9164 C97.3405,379.8964 99.4415,379.4164 101.6415,378.8364 C103.8115,378.2664 106.4915,378.4364 108.4915,377.6364 C111.4605,376.4464 115.1215,380.0764 113.9115,383.0564 C113.0005,385.2964 112.4815,387.2764 111.3405,389.0264 C119.6215,402.5464 128.6915,415.6464 138.3405,428.2164 C147.0405,439.5364 157.2815,449.0564 166.9605,459.4264 C171.2315,464.0064 173.0115,473.0264 165.2815,474.9854 C157.5715,476.9564 151.8115,468.6764 147.3805,463.6464 C129.0315,442.7764 115.1615,418.8154 108.6705,391.7664 C105.7415,393.8464 102.3805,394.9764 98.8405,395.4664 C91.7905,396.4364 84.6615,395.0464 78.4815,391.4764 C55.0805,377.9664 49.4205,341.4564 60.3805,318.5764 C63.0235,313.0674 66.9275,308.1494 71.6865,304.3304 C71.3115,303.6134 71.1635,302.7734 71.4045,301.8704 C71.8275,300.2894 72.2925,298.7274 72.7805,297.1714 C72.2475,296.9344 71.8575,296.4444 71.9315,295.7164 C72.3715,291.2164 72.8005,286.7164 73.2315,282.2164 C73.0805,275.4164 72.7505,268.6264 72.8305,261.7864 C72.9515,250.8864 73.6115,239.9964 73.6515,229.0964 C73.7815,191.0764 75.3305,153.0964 75.4415,115.0764 C75.5005,96.4854 75.5405,77.8664 75.0505,59.2864 C75.0405,59.0364 75.0405,58.7964 75.0315,58.5464 C74.6305,43.6764 70.6915,23.7764 85.2315,14.1554 C87.6215,12.5764 90.6015,12.5564 93.2015,13.5764 C100.6815,8.3664 110.0615,5.8554 119.0315,4.4054 C136.1215,1.6464 153.3615,0.3154 170.5715,-1.4346 C179.5505,-2.3446 189.0005,-2.6936 198.0405,-2.4936 C207.1815,-2.2936 216.4415,-3.1236 225.6415,-2.9836 Z M87.0312,329.7963 C90.3002,326.6863 95.1812,327.4053 99.1912,328.1463 C104.7712,329.1763 110.1912,331.6163 114.8912,334.7463 C119.9512,338.1163 126.2012,342.7863 127.2012,349.1763 C128.1112,355.0463 122.2712,361.5163 116.2612,357.5863 C110.6912,353.9363 107.9812,347.2463 103.1912,342.6663 C100.8402,340.4263 98.3002,338.4563 95.6112,336.6553 C94.3912,335.8363 93.1912,334.9263 91.8612,334.2963 C91.7312,334.2353 86.2512,332.4563 87.3112,334.8063 C87.6712,335.5863 86.7312,336.4563 86.0612,335.7663 C84.1612,333.8363 85.2212,331.5163 87.0312,329.7963 Z" id="Ink" fill="#000"/></g></g><g id="Face" transform="translate(491.000000, 669.000000) scale(1 1)" fill="#000"><g id="Face/Smile" stroke="none" stroke-width="1" fill="none" fill-rule="evenodd"><path d="M146.586567,240.926554 C139.864291,238.184203 133.866322,233.609781 129.481228,227.766254 C127.956691,225.734803 127.561405,223.589624 127.881219,221.627583 C128.240828,219.421406 129.546036,217.4219 131.326046,216.080693 C133.111571,214.735331 135.345035,214.071832 137.504329,214.410065 C139.380629,214.703969 141.248396,215.731287 142.726594,217.861908 L143.035427,218.287981 C145.642441,221.814933 149.039621,224.708755 152.91047,226.573991 C156.641339,228.371775 160.813939,229.21087 165.131898,228.722919 C173.355732,227.793938 179.024012,223.346401 185.048774,217.30672 C185.795561,216.544195 186.542826,215.757766 187.293714,214.958678 C187.767915,214.234308 188.425986,213.768756 189.156624,213.524488 C189.967867,213.253272 190.885573,213.268617 191.726122,213.56195 C192.536835,213.844871 193.261572,214.380994 193.747527,215.094538 C194.209389,215.772704 194.47125,216.610486 194.386283,217.574143 C193.834826,223.833283 190.562474,229.419299 185.914235,233.805502 C180.751772,238.67694 173.908551,242.047034 167.465957,243.229031 C160.36811,244.531047 153.135593,243.598228 146.586567,240.926554 L146.586567,240.926554 Z M170.814304,144.367155 C178.365682,148.9572 189.871664,159.660291 181.748119,171.039573 C172.185929,181.073062 158.418535,169.568982 151.634201,164.366134 C145.343449,160.333898 138.275437,170.704507 144.112,175.412823 C193.135736,211.708059 213.030606,145.567387 174.633685,138.970386 C170.406047,138.243425 168.835891,142.947174 170.814304,144.367155 Z M82.9633,102.1464 C83.7976284,91.7901242 99.5703,89.4384 101.1393,99.6864 C102.5443,108.8664 100.8903,117.2994 96.7553,125.5644 C92.8043,133.4604 82.8737826,129.776544 82.1227826,122.586544 C81.1160984,112.948648 82.4443,108.588596 82.9633,102.1464 Z M203.027,97.5615 C205.226,94.6815 208.401,92.7155 212.205,93.8265 C224.09,97.2995 220.587,114.1725 216.413,122.3855 C214.145,126.8455 206.814,127.9765 203.501,124.0495 C198.101,117.6455 195.515,104.8565 202.38,98.5485 C202.566,98.2225 202.773,97.8935 203.027,97.5615 Z M96.5879,56.8305 L98.465271,56.501905 C104.27307,55.49746 111.4944,54.5323 115.6029,59.2015 C117.7819,61.6775 118.5319,66.2795 115.6029,68.6495 C110.4509,72.8195 104.7549,71.2035 98.5809,71.5565 C93.4929,71.8485 88.6029,72.6905 83.7019,74.0915 C72.9499,77.1645 64.1889,82.7745 55.0059,88.9345 C53.8009,89.7425 52.5709,88.2015 53.1459,87.0745 C58.4469,76.6915 68.7199,68.1625 79.0099,62.9635 C84.5019,60.1885 90.5119,57.8865 96.5879,56.8305 Z M192.192876,52.1793876 L193.629806,52.4734684 C209.267042,55.742077 229.583473,62.2713911 236.988459,77.6308459 C237.270623,79.8027272 236.97249,80.2682047 236.730054,80.5723213 L236.649336,80.6735209 C236.449568,80.9332186 236.290169,81.2912104 235.348782,81.5868073 C235.087547,81.5245653 234.823712,81.4586426 234.557082,81.3887687 C231.162766,80.499243 228.477205,79.2737961 225.877298,78.0022488 L223.058339,76.6134493 C219.787784,75.0098309 216.488352,73.4645766 212.991711,72.3238115 C205.52958,69.8898666 197.854137,68.1753043 190.059777,67.259767 C188.37041,67.0615005 186.743655,66.4913394 185.460262,65.5141761 C184.242065,64.5866523 183.311441,63.3024737 182.887128,61.5955207 C182.33722,59.3864508 182.495251,57.7140037 183.680513,55.7210991 C184.571756,54.2244705 185.846982,53.1871113 187.311265,52.5914244 C188.804038,51.9841473 190.503545,51.840982 192.192876,52.1793876 Z" id="Ink" fill="#000"/></g></g><g id="Beard" transform="translate(454.999934, 820.999659) scale(1 1)" fill="#000"><g id="Beard/None" stroke="none" stroke-width="1" fill="none" fill-rule="evenodd" fill-opacity="0"/></g><g id="Mask" transform="translate(360.000000, 783.000000) scale(1 1)" fill="#000"><g id="Mask/None" stroke="none" stroke-width="1" fill="none" fill-rule="evenodd" fill-opacity="0"/></g><g id="Accessories" transform="translate(379.000000, 724.000000) scale(1 1)" fill="#000"><g id="Accessories/None" stroke="none" stroke-width="1" fill="none" fill-rule="evenodd" fill-opacity="0"/></g></g></svg>