<svg viewBox="280.1621621621621 479.0625 556.4864864864868 517.3875" xmlns="http://www.w3.org/2000/svg" overflow="visible" xmlns:xlink="http://www.w3.org/1999/xlink" width="556.4864864864868px" height="517.3875px"><g id="Master/Character/Avatar" stroke="none" stroke-width="1" fill="none" fill-rule="evenodd"><g id="Head" transform="translate(332.000000, 483.000000) scale(0.9978902953586498 1)"><g id="Head/Dreads 1" stroke="none" stroke-width="1" fill="none" fill-rule="evenodd"><path d="M242.041161,75.2596156 C298.821805,75.2596156 357.551668,119.271611 378.365264,147.356837 C402.432055,179.831825 421.416954,335.7285 412.510727,388.627648 C403.6045,441.526795 359.365264,499.183765 282.566771,499.183765 C205.768277,499.183765 159.031094,489.72438 157.157053,475.984472 C155.907692,466.824533 139.023041,436.751409 106.5031,385.7651 C73.2430134,376.410121 56.5475248,360.55971 56.4166341,338.213866 C56.2876114,315.868022 65.1995229,300.630067 83.1523686,292.5 C76.7512999,204.313833 81.6113554,148.741029 97.7325351,125.781589 C121.914305,91.3424282 185.260516,75.2596156 242.041161,75.2596156 Z" id="Skin" fill="#ae5d29"/><path d="M275.105335,8.1905 C284.033124,6.2235 287.665748,20.0365 278.849607,21.5705 C272.812489,22.6205 266.764206,23.9405 260.796107,25.5375 C263.234095,25.3925 265.653815,25.6615 268.0035,26.4655 L269.391254,25.9813307 C288.628352,19.3213682 309.500226,14.2948882 329.725622,19.4155 C346.309427,31.3735 305.59136,33.2025 299.027466,34.7835 C320.935871,36.1095 343.693816,31.1505 364.980037,39.0555 C373.147604,42.3105 369.901688,54.8795 355.364089,49.0795 C355.699033,50.1455 355.787337,51.2625 355.647269,52.3175 C362.237553,52.9685 369.064328,54.7685 375.056786,58.5685 C419.796216,57.4645 435.923278,93.8755 398.260309,81.2885 C399.281382,82.1315 400.102503,83.0585 400.740927,84.0305 L401.331125,84.0735499 C411.311453,84.8773204 437.672906,90.62014 436.270402,102.5585 C443.18345,104.0675 450.719698,106.6115 455.94686,110.7405 C461.798236,115.3615 455.415009,124.3045 448.952613,122.5795 C446.997756,122.0565 445.172817,121.2205 443.383402,120.3015 C442.682049,121.0655 441.779729,121.8275 440.637873,122.5785 C451.902153,131.7025 466.828491,139.3665 472.682912,153.1205 C473.734434,156.4275 471.442603,160.3825 468.030231,161.1935 C456.153916,164.0155 446.415156,154.9005 438.295293,146.2235 C440.043094,151.0045 441.203219,155.6405 441.516849,159.7335 C447.695049,163.0345 455.577406,169.5155 460.808628,176.8875 C469.469476,181.7805 480.243519,189.8115 480.50234,199.7665 C480.691127,207.0055 473.633951,210.9915 467.132986,209.8015 L466.914765,209.7515 L466.914765,209.7515 C470.013507,215.0995 471.554251,220.8885 472.594609,227.2815 L473.228714,227.672557 C479.361366,231.481196 485.51128,236.1375 485.687887,243.6775 C485.823895,249.4465 480.066912,253.0815 474.731148,251.9005 C473.97194,251.7325 473.263482,251.4945 472.589534,251.2075 C472.611863,251.4015 472.634193,251.5945 472.651448,251.7895 C474.814376,253.4295 476.95802,255.0885 479.04381,256.8235 L480.75707,258.259639 C487.884047,264.299648 494.640262,271.109833 492.562366,281.2765 C491.851878,284.7565 488.316693,286.5655 485.084988,286.8855 C484.365365,286.9575 483.673146,286.9625 482.992093,286.9395 L483.268262,287.660519 C487.747897,299.586168 490.595675,318.62402 476.189678,316.9835 C478.44497,336.4465 466.654929,339.3415 458.59495,329.5635 C468.092145,340.8565 485.384408,412.3235 455.175473,399.6185 C453.84483,415.5875 450.908485,431.7715 443.595534,446.2155 L443.383229,446.690802 C439.65314,454.786821 423.225071,478.79688 417.915452,461.2245 C421.725698,439.4305 432.596164,418.7495 434.350055,396.4155 C432.216561,396.0825 430.394667,394.0175 429.601965,391.7405 C427.303029,403.188305 422.030695,413.427135 414.780571,422.50265 C413.638064,425.55319 412.346459,428.564636 410.9141,431.5451 C406.3531,441.0451 400.4731,449.8451 393.7441,457.9351 C390.1441,462.2651 386.3241,466.4751 381.6241,469.6441 C377.8831,472.1651 373.5131,473.8251 369.3031,475.4251 C362.4541,482.2651 353.6641,487.4351 345.0741,491.5651 C330.9141,498.3551 315.5641,502.1051 300.0341,503.9851 C284.1541,505.8941 268.1141,505.4351 252.3641,502.7051 C237.3141,500.1051 221.1831,493.4551 211.9141,480.7851 C211.1141,479.6951 212.6031,478.6651 213.5831,479.1151 C240.4841,491.5651 270.7131,494.8151 300.0341,490.8851 C313.7131,489.0551 327.1731,485.2751 339.6641,479.4051 C350.2041,474.4551 359.0931,467.2551 368.5531,460.7351 C370.3941,458.2851 372.2531,455.8751 374.3741,453.6351 L377.682932,450.165223 C380.156183,447.558828 382.584638,444.917408 384.7931,442.0651 C391.6141,433.2751 397.2631,423.3051 400.9941,412.8151 C408.2497,392.395671 406.287498,370.230447 405.005225,348.950388 L404.8941,347.0751 C403.751987,327.3823 401.987758,307.749391 399.603355,288.176373 C397.89037,287.620108 396.248484,286.661393 394.899701,285.4815 C389.561906,252.2015 374.177811,218.1945 348.189175,195.7465 C363.411888,216.9265 372.049392,241.0065 373.840837,267.2195 C374.151422,271.7735 367.911307,271.7225 366.454807,268.2055 C351.989271,230.4055 344.62557,189.6295 300.383483,174.8485 C282.823264,198.5555 275.145934,227.3385 260.361694,252.4345 C256.618437,258.2795 248.47117,255.4785 247.86015,249.0995 C246.139754,231.1105 253.382672,213.2545 262.372375,197.5175 L255.056742,206.269892 C198.711299,273.807929 194.10609,283.89438 200.157986,387.3555 C199.60685,392.5315 192.928263,394.9915 189.871135,390.0995 C172.7027,357.3235 180.07046,317.0595 184.971813,282.0325 C183.208787,285.5015 181.528991,288.9805 179.894868,292.5125 C178.786507,288.9275 176.83571,292.9115 177.299557,298.2245 C174.319567,304.9385 171.50705,311.8475 168.969593,318.8915 C169.12996,341.3165 176.594144,362.7565 176.609369,385.1465 C177.113815,391.3985 168.647843,392.3665 165.615075,388.0805 C163.025853,384.4215 160.619329,380.8945 158.527449,377.1695 C158.825854,386.5225 162.60159,394.8255 165.197917,403.5805 C166.971726,406.702781 167.784425,409.950818 166.62927,413.469166 L166.511304,413.8105 C164.609227,419.5825 157.644414,420.8115 153.258673,416.8615 C153.354082,420.5135 153.028272,424.1945 151.917881,427.6375 C156.595937,433.6465 160.898449,439.8765 164.0926,446.7915 C165.923071,451.086372 163.4495,454.665622 159.862618,456.401313 C162.858754,463.87805 164.095221,471.614781 161.4841,479.0151 C160.7041,481.2451 157.4441,482.0451 156.1731,479.7051 C152.0031,472.0051 149.6731,463.5251 145.7131,455.7351 C144.981822,454.298492 144.216918,452.881686 143.42497,451.480956 C138.981802,447.709394 135.363678,443.136157 131.939973,438.3055 C119.666801,452.7295 108.060472,421.8165 105.863034,412.4075 L104.88256,411.5005 L104.88256,411.5005 C107.26168,433.8105 120.56912,454.2165 120.787342,476.6155 C120.309285,481.2825 115.192756,485.5795 110.477146,482.4445 C94.1278022,470.2295 90.645396,448.1365 86.1155275,429.5975 C85.3979347,429.9495 84.6174128,430.1775 83.8297861,430.2915 C82.9680657,442.8345 112.232051,483.3895 88.5240818,483.4505 C62.2796702,470.2135 65.252555,432.0425 61.7275195,407.2955 C60.1228316,414.6645 61.5397477,426.7705 56.1643985,432.1145 C78.9690333,487.4925 40.6036964,469.8295 31.1399962,428.3865 C29.9910357,430.0605 28.608629,431.5815 26.9237575,432.8855 C23.4768757,435.5525 18.9175727,435.4665 16.3872205,431.5485 C11.1793434,423.4835 13.0245823,413.9145 15.2108553,405.0265 C-5.02181286,396.2835 -13.6958563,376.0525 -15.2437052,354.5985 C-15.7593165,355.3575 -16.3124821,356.1065 -16.9438015,356.8405 C-19.3675805,359.6555 -24.253708,358.6525 -25.9852687,355.6925 C-31.0480032,347.0395 -28.5856548,336.0245 -24.3349066,326.7065 C-25.6858488,326.1405 -26.8875885,325.2745 -27.687395,324.1335 C-34.6166829,312.7605 -36.7542368,299.9145 -36.0366439,286.8685 C-36.9734731,287.7975 -37.9884559,288.6675 -39.1232068,289.4485 C-42.545729,291.8045 -46.8969605,289.2405 -48.0682507,285.8625 C-51.8602266,274.9325 -43.314071,263.8845 -36.1127676,256.4805 C-33.5793704,253.8765 -30.6958041,251.3915 -27.5503723,249.2865 C-26.0502276,245.1775 -24.4404648,241.1835 -22.7901027,237.3585 C-25.2067769,232.5165 -26.5790337,227.3165 -27.1321993,221.9395 C-29.1784048,225.2575 -31.7270267,228.2125 -35.4215643,230.4505 C-38.8522064,232.5295 -42.7893248,229.7845 -43.0105911,226.1605 C-43.6764199,215.2245 -34.9749719,205.5995 -28.4689318,197.4885 L-27.8158463,196.650018 C-26.6656736,195.150176 -24.8604865,192.742393 -22.8053274,190.4925 C-22.475458,189.5065 -22.1323938,188.5255 -21.7771498,187.5515 C-26.8256745,190.2525 -34.613638,188.2755 -34.1721204,181.2805 C-33.1611975,158.6025 -9.06651953,147.6085 -2.07937757,127.5655 C-37.4921293,158.9605 -33.7143632,118.6285 -8.80566894,102.9425 C-6.81122763,101.2915 -4.75385739,99.7395 -2.66705264,98.2365 C-5.50798965,96.4605 -6.3869648,92.4995 -3.76830904,89.6345 C3.50708806,81.6725 14.5714161,80.0265 24.941496,79.1565 C28.6482133,78.8448333 32.2704968,78.8104583 35.9177978,79.0949687 L36.9132187,79.1805 L37.1963989,79.1005 C39.6069832,76.2775 42.3129275,73.6865 44.8940289,71.4605 C25.2876051,67.7585 43.8749861,39.3935 88.6773443,49.7195 C91.1275129,48.4815 93.6548202,47.3765 96.210547,46.3705 C89.5248549,46.0515 82.8604775,45.4495 76.2438043,44.1075 C70.3467539,42.9115 69.3581606,34.1105 74.5609627,31.4265 C95.3640513,21.1475 119.363321,23.6855 141.650314,28.8525 C141.105269,27.8345 140.850508,26.7025 140.839343,25.5375 C133.455343,24.8295 132.801694,13.5835 141.30116,12.9375 C155.563699,11.8535 169.206084,14.5975 181.806081,20.0525 C183.418889,19.8655 185.042861,19.7465 186.673939,19.6935 C189.050014,-5.0995 221.856289,15.4625 229.069773,27.3955 C243.366821,18.5225 258.595624,11.7575 275.105335,8.1905 Z" id="Ink" fill="#000"/></g></g><g id="Face" transform="translate(491.000000, 669.000000) scale(1 1)" fill="#000"><g id="Face/Smile" stroke="none" stroke-width="1" fill="none" fill-rule="evenodd"><path d="M146.586567,240.926554 C139.864291,238.184203 133.866322,233.609781 129.481228,227.766254 C127.956691,225.734803 127.561405,223.589624 127.881219,221.627583 C128.240828,219.421406 129.546036,217.4219 131.326046,216.080693 C133.111571,214.735331 135.345035,214.071832 137.504329,214.410065 C139.380629,214.703969 141.248396,215.731287 142.726594,217.861908 L143.035427,218.287981 C145.642441,221.814933 149.039621,224.708755 152.91047,226.573991 C156.641339,228.371775 160.813939,229.21087 165.131898,228.722919 C173.355732,227.793938 179.024012,223.346401 185.048774,217.30672 C185.795561,216.544195 186.542826,215.757766 187.293714,214.958678 C187.767915,214.234308 188.425986,213.768756 189.156624,213.524488 C189.967867,213.253272 190.885573,213.268617 191.726122,213.56195 C192.536835,213.844871 193.261572,214.380994 193.747527,215.094538 C194.209389,215.772704 194.47125,216.610486 194.386283,217.574143 C193.834826,223.833283 190.562474,229.419299 185.914235,233.805502 C180.751772,238.67694 173.908551,242.047034 167.465957,243.229031 C160.36811,244.531047 153.135593,243.598228 146.586567,240.926554 L146.586567,240.926554 Z M170.814304,144.367155 C178.365682,148.9572 189.871664,159.660291 181.748119,171.039573 C172.185929,181.073062 158.418535,169.568982 151.634201,164.366134 C145.343449,160.333898 138.275437,170.704507 144.112,175.412823 C193.135736,211.708059 213.030606,145.567387 174.633685,138.970386 C170.406047,138.243425 168.835891,142.947174 170.814304,144.367155 Z M82.9633,102.1464 C83.7976284,91.7901242 99.5703,89.4384 101.1393,99.6864 C102.5443,108.8664 100.8903,117.2994 96.7553,125.5644 C92.8043,133.4604 82.8737826,129.776544 82.1227826,122.586544 C81.1160984,112.948648 82.4443,108.588596 82.9633,102.1464 Z M203.027,97.5615 C205.226,94.6815 208.401,92.7155 212.205,93.8265 C224.09,97.2995 220.587,114.1725 216.413,122.3855 C214.145,126.8455 206.814,127.9765 203.501,124.0495 C198.101,117.6455 195.515,104.8565 202.38,98.5485 C202.566,98.2225 202.773,97.8935 203.027,97.5615 Z M96.5879,56.8305 L98.465271,56.501905 C104.27307,55.49746 111.4944,54.5323 115.6029,59.2015 C117.7819,61.6775 118.5319,66.2795 115.6029,68.6495 C110.4509,72.8195 104.7549,71.2035 98.5809,71.5565 C93.4929,71.8485 88.6029,72.6905 83.7019,74.0915 C72.9499,77.1645 64.1889,82.7745 55.0059,88.9345 C53.8009,89.7425 52.5709,88.2015 53.1459,87.0745 C58.4469,76.6915 68.7199,68.1625 79.0099,62.9635 C84.5019,60.1885 90.5119,57.8865 96.5879,56.8305 Z M192.192876,52.1793876 L193.629806,52.4734684 C209.267042,55.742077 229.583473,62.2713911 236.988459,77.6308459 C237.270623,79.8027272 236.97249,80.2682047 236.730054,80.5723213 L236.649336,80.6735209 C236.449568,80.9332186 236.290169,81.2912104 235.348782,81.5868073 C235.087547,81.5245653 234.823712,81.4586426 234.557082,81.3887687 C231.162766,80.499243 228.477205,79.2737961 225.877298,78.0022488 L223.058339,76.6134493 C219.787784,75.0098309 216.488352,73.4645766 212.991711,72.3238115 C205.52958,69.8898666 197.854137,68.1753043 190.059777,67.259767 C188.37041,67.0615005 186.743655,66.4913394 185.460262,65.5141761 C184.242065,64.5866523 183.311441,63.3024737 182.887128,61.5955207 C182.33722,59.3864508 182.495251,57.7140037 183.680513,55.7210991 C184.571756,54.2244705 185.846982,53.1871113 187.311265,52.5914244 C188.804038,51.9841473 190.503545,51.840982 192.192876,52.1793876 Z" id="Ink" fill="#000"/></g></g><g id="Beard" transform="translate(454.999934, 820.999659) scale(1 1)" fill="#000"><g id="Beard/None" stroke="none" stroke-width="1" fill="none" fill-rule="evenodd" fill-opacity="0"/></g><g id="Mask" transform="translate(360.000000, 783.000000) scale(1 1)" fill="#000"><g id="Mask/None" stroke="none" stroke-width="1" fill="none" fill-rule="evenodd" fill-opacity="0"/></g><g id="Accessories" transform="translate(379.000000, 724.000000) scale(1 1)" fill="#000"><g id="Accessories/None" stroke="none" stroke-width="1" fill="none" fill-rule="evenodd" fill-opacity="0"/></g></g></svg>