<svg viewBox="55.52884615384619 52.85000000000002 1044.4711538461538 1241.975" xmlns="http://www.w3.org/2000/svg" overflow="visible" xmlns:xlink="http://www.w3.org/1999/xlink" width="1044.4711538461538px" height="1241.975px"><g id="Master/Comps/Chat" stroke="none" stroke-width="1" fill="none" fill-rule="evenodd"><g id="Blob" opacity=".288" transform="translate(2.000000, 147.891534) scale(1.5335892514395393 1.532934131736527)"><g id="Blob/2" stroke="none" stroke-width="1" fill="none" fill-rule="evenodd"><path d="M380.215525,29.8169037 C429.018165,42.4852284 468.102531,91.1527091 476.553205,143.515118 C485.003878,195.877527 462.926493,252.040433 433.349135,294.162612 C403.771778,336.284792 366.694447,364.577384 329.088949,395.403641 C291.377817,426.229898 253.032885,459.800958 207.082347,470.463465 C161.026175,481.125971 107.153131,468.985493 86.8715137,432.45849 C66.6955302,395.931488 79.8997079,335.01796 73.3504357,287.195034 C66.8011636,239.266539 40.2871749,204.428646 42.5054767,172.863403 C44.6181451,141.40373 75.3574707,113.322277 108.843265,95.6921922 C142.32906,78.0621069 178.561323,70.8833896 225.885096,55.6814 C273.208869,40.4794103 331.518517,17.148579 380.215525,29.8169037 Z" id="blobs-burgers" fill="#E6D3FF"/></g></g><g id="Small Elements" transform="translate(88.000000, 691.000000) scale(1 1)"><g id="Small Elements/Big Graph" stroke="none" stroke-width="1" fill="none" fill-rule="evenodd"><g id="Pie-Chart" transform="translate(29.000000, 29.000000)"><path d="M212,107.648233 C212,48.4524698 164.2894,0 106,0 L106,107.648233 L178.4404,186 C199.0468,166.843997 212,138.742426 212,107.648233 Z" id="Value" fill="#F2F2F2"/><path d="M108.926458,106 L2,106 C2,133.6713 13.275395,159.5989 31.1000356,178.4404 C50.7050018,199.0468 78.6235001,212 108.926458,212 C136.83961,212 162.389688,200.8223 182,183.1521 L108.926458,106 Z" id="Value" fill="#AFB9C5"/><path d="M0,106 C0,47.7106 47.7106,0 106,0 L106,106 L0,106 Z M159,0 L116.6,95.4 L212,53 C202.566,28.2702 181.3819,9.434 159,0 Z" id="Value" fill="#902EE9"/></g></g></g><g id="Small Elements" transform="translate(514.000000, 128.000000) scale(0.5481481481481482 0.5481481481481482)"><g id="Small Elements/Levels" stroke="none" stroke-width="1" fill="none" fill-rule="evenodd"><g id="Bars" transform="translate(20.000000, 67.000000)"><g id="bar" transform="translate(2.000000, 120.000000)"><rect id="Range" fill="#EDEDEE" x="0" y="0" width="228" height="16" rx="8"/><rect id="Range" fill="#BE6FFB" x="0" y="0" width="228" height="16" rx="8"/></g><g id="bar" transform="translate(0.000000, 80.000000)"><rect id="Range" fill="#EDEDEE" x="0" y="0" width="228" height="16" rx="8"/><rect id="Range" fill="#BE6FFB" x="0" y="0" width="170.776" height="16" rx="8"/></g><g id="bar" transform="translate(2.000000, 0.000000)"><rect id="Range" fill="#EDEDEE" x="0" y="0" width="228" height="16" rx="8"/><rect id="Range" fill="#CCA4FF" x="0" y="0" width="57.224" height="16" rx="8"/></g><g id="bar" transform="translate(0.000000, 40.000000)"><rect id="Range" fill="#EDEDEE" x="0" y="0" width="228" height="16" rx="8"/><rect id="Range" fill="#CCA4FF" x="0" y="0" width="113.553" height="16" rx="8"/></g></g></g></g><g id="Character" transform="translate(300.500000, 202.378906) rotate(-9.000000) translate(-300.500000, -202.378906) translate(25.000000, 20.378906)"><path d="M176.98248,211.288638 C178.702347,231.829347 181.758469,246.927654 186.150847,256.583559 C204.748401,297.467153 229.832827,313.54465 235.244766,346.693427 C242.573995,391.585843 265.581758,348.337452 304.268054,216.948252 L280.862948,195.187504 L176.98248,211.288638 Z" id="Path-15" fill="#0A1B45"/><g id="Body" transform="translate(0.050544, 19.705400) scale(0.6373117033603708 0.6382575757575758)"><g id="Body/Tee Stride" stroke="none" stroke-width="1" fill="none" fill-rule="evenodd"><g id="Right-Arm" transform="translate(411.000000, 157.000000)"><path d="M341.286207,6.05212955 C344.343381,7.46655808 345.794655,9.59488783 346.071135,12.1806633 C346.464916,11.4011165 346.851741,10.6161369 347.230007,9.82692955 C349.290791,5.72987073 354.256228,4.17894801 358.578473,5.7527473 L358.837007,5.85092955 C362.496907,7.28087316 364.647676,10.9354507 364.306055,14.6357684 C366.791217,13.0384704 369.933815,12.5815681 372.848707,13.7665296 C377.766707,15.8325296 379.332707,21.8035296 376.894707,26.5575296 C375.860372,28.2325626 374.804501,30.1391165 373.708883,32.169062 C376.306311,30.7749792 379.385582,30.4144949 382.111407,31.8114296 C395.127603,39.8860226 372.951048,65.6342309 352.999326,84.0248252 C348.800502,88.4733181 343.734365,92.7303079 338.168256,96.7385579 C334.245557,99.8230548 331.0544,102.07202 329.133407,103.12243 C328.194504,103.75627 327.177208,104.258427 326.127323,104.616191 C306.522932,116.35111 284.311754,125.090851 271.668707,128.90793 C230.439707,141.33993 187.231707,143.51493 144.959707,135.75793 C111.935707,129.65093 78.857707,116.55793 51.567707,95.6789296 C38.217707,84.4149296 21.849707,72.0649296 16.250707,54.6099296 C12.220707,40.9689296 18.084707,25.3769296 31.604707,19.7899296 C44.227707,14.4719296 60.023707,15.3829296 71.078707,23.5209296 C77.955707,30.0549296 83.674707,37.5709296 91.725707,43.3019296 C110.721707,57.6829296 133.218707,66.4009296 157.091707,70.8819296 C203.343707,79.3389296 255.036707,72.1969296 294.497707,46.2239296 C294.865387,45.9984458 295.228969,45.768295 295.58886,45.533973 C288.245921,34.2499137 306.562693,28.2854373 311.227107,19.7775296 C314.036336,16.7626754 318.843637,17.5848082 322.239312,19.9448238 L322.449085,20.0928187 C325.218436,16.3499848 327.730998,12.4477039 329.968207,8.39912955 C332.248697,4.70606833 337.087481,4.24781926 341.040338,5.9433634" id="SKIN-DARKER" fill="#8C6345"/><path d="M341.286207,6.05212955 C344.343381,7.46655808 345.794655,9.59488783 346.071135,12.1806633 C346.464916,11.4011165 346.851741,10.6161369 347.230007,9.82692955 C349.290791,5.72987073 354.256228,4.17894801 358.578473,5.7527473 L358.837007,5.85092955 C362.496907,7.28087316 364.647676,10.9354507 364.306055,14.6357684 C366.791217,13.0384704 369.933815,12.5815681 372.848707,13.7665296 C377.766707,15.8325296 379.332707,21.8035296 376.894707,26.5575296 C375.860372,28.2325626 374.804501,30.1391165 373.708883,32.169062 C376.306311,30.7749792 379.385582,30.4144949 382.111407,31.8114296 C395.127603,39.8860226 372.951048,65.6342309 352.999326,84.0248252 C348.800502,88.4733181 343.734365,92.7303079 338.168256,96.7385579 C334.245557,99.8230548 331.0544,102.07202 329.133407,103.12243 C328.194504,103.75627 327.177208,104.258427 326.127323,104.616191 C306.522932,116.35111 284.311754,125.090851 271.668707,128.90793 C230.439707,141.33993 187.231707,143.51493 144.959707,135.75793 C111.935707,129.65093 78.857707,116.55793 51.567707,95.6789296 C38.217707,84.4149296 21.849707,72.0649296 16.250707,54.6099296 C12.220707,40.9689296 18.084707,25.3769296 31.604707,19.7899296 C44.227707,14.4719296 60.023707,15.3829296 71.078707,23.5209296 C77.955707,30.0549296 83.674707,37.5709296 91.725707,43.3019296 C110.721707,57.6829296 133.218707,66.4009296 157.091707,70.8819296 C203.343707,79.3389296 255.036707,72.1969296 294.497707,46.2239296 C294.865387,45.9984458 295.228969,45.768295 295.58886,45.533973 C288.245921,34.2499137 306.562693,28.2854373 311.227107,19.7775296 C314.036336,16.7626754 318.843637,17.5848082 322.239312,19.9448238 L322.449085,20.0928187 C325.218436,16.3499848 327.730998,12.4477039 329.968207,8.39912955 C332.248697,4.70606833 337.087481,4.24781926 341.040338,5.9433634" id="SKIN-DARKER" fill="#8C6345"/><path d="M75.355307,116.92353 C46.745307,101.01153 -0.0736929955,65.3305296 0.572307005,29.3035296 C1.624307,5.91452955 29.478307,-2.54247045 49.042307,0.845529552 C57.649307,2.55352955 65.6332437,2.47741958 70.4592437,10.1364196 C79.4442437,24.7874196 94.302307,40.8405296 111.323307,49.9725296 L75.355307,116.92353 Z" id="Fill-14" fill="#3F8FD4"/></g><path d="M312,149 L448,149 C470.09139,149 488,166.90861 488,189 L488,300 L488,300 L272,300 L272,189 C272,166.90861 289.90861,149 312,149 Z" id="body" fill="#55B0EB"/><path d="M334,149 C334,167.225397 354.594902,182 380,182 C405.405098,182 426,167.225397 426,149" id="SKIN" fill="#B18058"/><g id="Left-Arm" transform="translate(114.000000, 149.000000)"><path d="M74.3438502,347.540423 C86.3638502,357.343423 97.0938502,355.709423 103.62885,353.103423 C110.40285,350.211423 108.62785,340.007423 101.39785,338.764423 C90.0398502,337.809423 80.4458502,338.449423 70.5808502,326.731423 C67.4648502,323.195423 65.4538502,322.029423 64.2718502,322.513423 C60.1978502,329.036423 67.9648502,341.754423 74.3438502,347.540423" id="SKIN" fill="#B18058"/><path d="M74.3438502,347.540423 C86.3638502,357.343423 97.0938502,355.709423 103.62885,353.103423 C110.40285,350.211423 108.62785,340.007423 101.39785,338.764423 C90.0398502,337.809423 80.4458502,338.449423 70.5808502,326.731423 C67.4648502,323.195423 65.4538502,322.029423 64.2718502,322.513423 C60.1978502,329.036423 67.9648502,341.754423 74.3438502,347.540423" id="SKIN-DARKER" fill="#8C6345"/><path d="M65.4327502,315.775823 L65.4327502,315.775823 C38.8037502,326.810823 21.9167502,305.288823 16.3227502,281.046823 C11.7167502,267.188823 7.65175021,252.355823 4.84675021,237.858823 C-5.64124979,188.952823 -0.280249786,133.061823 32.5367502,93.3988231 C54.1337502,65.7928231 84.0177502,45.3078231 114.91175,30.1448231 C141.15875,17.4578231 179.86175,-3.08017689 193.42875,35.8868231 C197.88775,52.7928231 189.20375,70.9428231 173.02975,77.0238231 C127.94975,94.4168231 76.3267502,121.380823 67.4417502,172.408823 C63.9897502,193.749823 67.1697502,215.869823 72.1647502,236.881823 C78.3177502,265.613823 101.40775,296.470823 65.4327502,315.775823" id="SKIN" fill="#B18058"/><path d="M90.8417502,37.4348231 C116.849574,24.5066067 142.563862,4.54747351e-13 202.674991,4.54747351e-13 C220.97481,4.54747351e-13 221,9.80366649 221,27.8213053 C221,45.8389442 206.51375,71.1108231 189.75275,76.5798231 C168.46575,83.3408231 147.83775,92.0498231 129.55475,102.836823 L90.8417502,37.4348231 Z" id="Fill-23" fill="#55B0EB"/><path d="M82.6250502,270.835323 C73.3400502,261.646323 31.9530502,286.758323 21.0070502,294.480323 C30.3540502,321.843323 48.5280502,351.947323 71.0180502,366.534323 C80.5280502,373.780323 112.02205,385.826323 105.78405,366.609323 C98.7040502,361.083323 63.2780502,331.162323 76.6220502,316.126323 C83.8480502,306.560323 92.4900502,311.154323 99.5690502,316.425323 C106.05505,321.589323 117.97305,313.076323 113.05605,306.059323 C104.25405,295.360323 87.4460502,283.260323 82.6250502,270.835323" id="SKIN" fill="#B18058"/></g></g></g><g id="Head" transform="translate(204.559406, 0.528013) scale(0.6377952755905512 0.6350710900473934)"><g id="Head/Layered" stroke="none" stroke-width="1" fill="none" fill-rule="evenodd"><path d="M130,125.5 L130,108.367 C130,104.576 127.538,101.504 124.5,101.504 C121.462,101.504 119,98.431 119,94.641 L119,86.457 C119,72.397 101.84,61 90.715,61 L79,61 L79,173 L121.072,173 C133.182,173 143,160.162 143,144.324 L143,138.5 C143,134.91 140.775,132 138.029,132 L134.971,132 C132.225,132 130,129.09 130,125.5" id="Fill-1" fill="#000"/><path d="M57.801,173 L77,173 L77,61 L57.801,61 C29.744,61 7,83.744 7,111.801 L7,122.199 C7,150.256 29.744,173 57.801,173" id="Fill-4" fill="#000"/><g id="head" transform="translate(22.000000, 72.000000)"><g fill="#B18058" id="SKIN"><path d="M13,62 L58,62 L58,113.633 C58,127.538 47.926,138.81 35.5,138.81 C23.074,138.81 13,127.538 13,113.633 L13,62 Z"/><path d="M60.0525,94 L55.0655,94 C31.8335,94 13.0005,75.167 13.0005,51.935 L13.0005,32.203 C13.0005,14.418 27.4175,0 45.2035,0 L50.7965,0 C68.5825,0 83.0005,14.418 83.0005,32.203 L83.0005,71.052 C83.0005,83.726 72.7265,94 60.0525,94"/><path d="M25,58.5 C25,65.403 19.404,71 12.5,71 C5.596,71 0,65.403 0,58.5 C0,51.597 5.596,46 12.5,46 C19.404,46 25,51.597 25,58.5"/></g><path d="M10.067,53.1685 C10.9718309,53.1685 12.2239875,53.3771928 13.5088204,54.0196092 C15.6553998,55.0928989 17.0130325,57.055328 17.10411,59.9021045 L17.109,60.2105 L14.109,60.2105 C14.109,58.3751144 13.4076866,57.3231443 12.1671796,56.7028908 C11.7065142,56.4725581 11.1976823,56.3199085 10.686339,56.2346846 C10.4347302,56.1927498 10.2385731,56.1747448 10.1250097,56.169908 L10.067,56.1685 L10.067,53.1685 Z" id="ear-line" fill="#000"/><path d="M34.7507501,96.3317762 C25.4557924,93.0436693 20.8185822,84.7387742 18.9822222,73.5681961 C26.2532122,85.6702724 39.4406226,93.8133264 54.5439426,93.9968331 L55.0655,94 L58,94 C50.0632106,98.2298391 42.3134606,99.0070978 34.7507501,96.3317762 Z" id="SHADOW" fill="#000" opacity=".12"/></g><path d="M34.3390489,118 L32.8032704,118 C26.9501148,112.308 24.7014391,100.708 24.0235369,89.449 C23.0946709,74.02 49.8788072,61 65.3335778,61 L83.3159838,61 L104,87 L66.0314771,87 C59.2564544,105.085 46.3373181,118 34.3390489,118" id="Fill-15" fill="#000"/></g></g><g id="Expression" transform="translate(235.697043, 61.191581) scale(0.6229508196721312 0.6229508196721312)" fill="#000"><g id="Expression/Happy" stroke="none" stroke-width="1" fill="none" fill-rule="evenodd"><path d="M20.5607,22 C20.5607,20.343 19.2177,19 17.5607,19 C15.9037,19 14.5607,20.343 14.5607,22 C14.5607,23.657 15.9037,25 17.5607,25 C19.2177,25 20.5607,23.657 20.5607,22" id="Fill-1" fill="#000"/><path d="M46.5607,22 C46.5607,20.343 45.2177,19 43.5607,19 C41.9037,19 40.5607,20.343 40.5607,22 C40.5607,23.657 41.9037,25 43.5607,25 C45.2177,25 46.5607,23.657 46.5607,22" id="Fill-3" fill="#000"/><polygon id="Stroke-5" fill="#000" points="33.1977829 19.396766 36.1476171 18.850434 40.4350211 41.9996 30.5607 41.9996 30.5607 38.9996 36.828 38.999"/><path d="M21.9219,41.586 C21.9219,45.2602625 25.6639817,48.6581933 29.6815435,48.7900329 L29.9229,48.794 L29.9229,51.794 C24.3252295,51.794 19.0961019,47.2280163 18.9261594,41.8552911 L18.9219,41.586 L21.9219,41.586 Z" id="Stroke-7" fill="#000"/><path d="M23.0607,9 L23.0607,12 C19.8342736,12 16.8913939,12.8655529 14.2891644,14.3112359 C13.508469,14.7449556 12.8086718,15.2043948 12.1956619,15.6654963 L11.8964164,15.8960741 C11.548672,16.1706093 11.3051282,16.3844813 11.1717567,16.5115787 L11.1213602,16.5606602 L9.00003983,14.4393398 C9.71719288,13.7221868 11.0118484,12.7000903 12.8322356,11.6887641 C15.7235813,10.0824609 18.9894549,9.08904431 22.5704367,9.00569674 L23.0607,9 Z" id="Stroke-9" fill="#000"/><path d="M37.0607,9 C40.8342736,9 44.2663939,10.0094471 47.2891644,11.6887641 C48.9957774,12.6368824 50.2403215,13.5944668 50.980139,14.3013772 L51.1213602,14.4393398 L49.0000398,16.5606602 L48.8084832,16.3819961 C48.6965748,16.2822525 48.549249,16.1566104 48.3676199,16.0099419 L48.2249836,15.8960741 C47.5437467,15.3582556 46.7430469,14.8172422 45.8322356,14.3112359 C43.3601176,12.937837 40.5805627,12.0880056 37.5425302,12.006456 L37.0607,12 L37.0607,9 Z" id="Stroke-11" fill="#000"/></g></g><g id="Accessories" transform="translate(226.007043, 75.665067) scale(0.6447368421052632 0.625)" fill="#000"><g id="Accessories/None" stroke="none" stroke-width="1" fill="none" fill-rule="evenodd" fill-opacity="0"/></g><g id="Glasses" transform="translate(221.137375, 66.596623) scale(0.631578947368421 0.65625)" fill="#000"><g id="Glasses/Round Big" stroke="none" stroke-width="1" fill="none" fill-rule="evenodd"><path d="M59,16 C59,25.3888407 51.3888407,33 42,33 C32.719077,33 25.175204,25.5628044 25.0030079,16.3230397 L25,16 L0,16 L0,14 L25.1163521,14.0004624 C26.106,5.55389893 33.2876275,-1 42,-1 C50.7123725,-1 57.894,5.55389893 58.8836479,14.0004624 L61.1163521,14.0004624 C62.106,5.55389893 69.2876275,-1 78,-1 C87.3888407,-1 95,6.61115925 95,16 C95,25.3888407 87.3888407,33 78,33 C68.719077,33 61.175204,25.5628044 61.0030079,16.3230397 L61,16 L59,16 Z M42,1 C33.7157288,1 27,7.71572875 27,16 C27,24.2842712 33.7157288,31 42,31 C50.2842712,31 57,24.2842712 57,16 C57,7.71572875 50.2842712,1 42,1 Z M78,1 C69.7157288,1 63,7.71572875 63,16 C63,24.2842712 69.7157288,31 78,31 C86.2842712,31 93,24.2842712 93,16 C93,7.71572875 86.2842712,1 78,1 Z" id="Shape" fill="#000"/></g></g></g><g id="Phone-Message" transform="translate(213.000000, 234.000000)"><rect id="Phone" fill="#902EE9" x="0" y="21" width="388" height="688" rx="35"/><rect id="Phone" fill="#BE6FFB" x="0" y="0" width="388" height="688" rx="35"/><rect id="Screen" fill="#FFF" x="15" y="15" width="356" height="579" rx="18"/><circle id="Button" fill="#902EE9" cx="194.5" cy="640.5" r="24.5"/><g id="Group-8" transform="translate(38.000000, 38.000000)"><rect id="Rectangle" fill="#E6D3FF" x="0" y="0" width="221.47" height="131.852" rx="11"/><rect id="Rectangle" fill="#BE6FFB" x="22.618" y="26.37" width="175.291" height="10.36" rx="4"/><rect id="Rectangle-Copy-24" fill="#BE6FFB" x="22.618" y="48.032" width="175.291" height="10.36" rx="4"/><rect id="Rectangle-Copy-25" fill="#BE6FFB" x="22.618" y="69.693" width="175.291" height="10.36" rx="4"/><rect id="Rectangle-Copy-31" fill="#BE6FFB" x="22.618" y="91.354" width="100.839" height="10.36" rx="4"/><rect id="Rectangle" fill="#E6D3FF" x="0" y="327.746" width="221.47" height="131.852" rx="11"/><rect id="Rectangle" fill="#BE6FFB" x="22.618" y="354.116" width="175.291" height="10.36" rx="4"/><rect id="Rectangle-Copy-24" fill="#BE6FFB" x="22.618" y="375.778" width="175.291" height="10.36" rx="4"/><rect id="Rectangle-Copy-25" fill="#BE6FFB" x="22.618" y="397.439" width="175.291" height="10.36" rx="4"/><rect id="Rectangle-Copy-31" fill="#BE6FFB" x="22.618" y="419.101" width="100.839" height="10.36" rx="4"/><g id="Group-9" transform="translate(89.530303, 163.873016)"><rect id="Rectangle" fill="#F4ECFF" x="0" y="0" width="221.47" height="131.852" rx="11"/><rect id="Rectangle" fill="#CCA4FF" x="22.618" y="26.37" width="175.291" height="10.36" rx="4"/><rect id="Rectangle-Copy-24" fill="#CCA4FF" x="22.618" y="48.032" width="175.291" height="10.36" rx="4"/><rect id="Rectangle-Copy-25" fill="#CCA4FF" x="22.618" y="69.693" width="175.291" height="10.36" rx="4"/><rect id="Rectangle-Copy-31" fill="#CCA4FF" x="22.618" y="91.354" width="100.839" height="10.36" rx="4"/></g><g id="Group-10" transform="translate(0.000000, 498.211640)"><rect id="Rectangle" fill="#F4ECFF" x="0" y="0" width="243.145" height="35.788" rx="8"/><rect id="Rectangle-Copy-32" fill="#BE6FFB" x="250.685" y="0" width="60.315" height="35.788" rx="8"/></g></g></g><g transform="translate(711.000000, 848.500000) scale(-1, 1) translate(-711.000000, -848.500000) translate(259.000000, 419.000000) scale(1 1)" id="Master/Character/Standing"><g id="Master/Character/Standing" stroke="none" stroke-width="1" fill="none" fill-rule="evenodd"><g id="Legs" transform="translate(50.000000, 263.000000) scale(1 1)"><g id="Legs/Jeans Sprint" stroke="none" stroke-width="1" fill="none" fill-rule="evenodd"><g id="Group-20" transform="translate(85.000000, 0.000000)"><path d="M549.434196,568.75038 L485.758787,588.704907 C482.333484,589.777032 478.712992,587.836063 477.672989,584.36894 C474.52195,573.957255 471.477014,563.524932 468.243896,553.128724 L458.493492,521.952485 C451.797034,501.212696 445.126601,480.461557 438.097823,459.802255 C422.599876,413.775175 406.298155,367.956535 389.348809,322.352527 C385.583177,312.316446 389.97241,301.198953 399.152263,297.518232 L440.03369,281.169099 C449.213543,277.489409 459.761715,282.785026 463.59241,292.996526 C480.820024,339.350713 497.411024,385.978348 513.221272,432.933089 C520.387183,453.999984 527.208761,475.210311 534.052361,496.410319 L544.032987,528.325386 C547.34418,538.970277 550.4752,549.686367 553.704314,560.364278 C554.771343,563.923238 552.859499,567.678255 549.434196,568.75038" id="SKIN-DARKER" fill="#964c1c"/><path d="M253.688249,6.17159823 C250.953025,7.46171177 250.176827,11.7751425 251.955573,15.8031407 C268.136561,52.4363886 283.832799,89.3313688 299.211548,126.359276 C306.944489,144.854682 314.44407,163.451071 322.003744,182.020668 C329.417192,200.650031 336.912767,219.24642 344.141931,237.942762 C351.493283,256.595825 358.562199,275.346781 365.727263,294.065792 C372.708043,312.843539 379.807006,331.58419 386.58347,350.425824 C393.500151,369.223149 400.116368,388.109092 406.806699,406.971335 L416.587804,435.332194 C418.2043,440.061923 419.862861,444.781348 421.447308,449.519321 L426.18863,463.73427 L432.780809,483.509485 L439.1857,503.322826 L445.57056,523.141319 L451.735079,543 L554,509.11185 L547.521996,488.655513 L540.835671,468.290885 L534.129315,447.936562 L527.243682,427.661583 L522.297043,413.085979 C520.64349,408.228475 518.92083,403.402914 517.236228,398.559836 L507.055507,369.536404 C500.106776,350.259923 493.22515,330.95459 486.05708,311.778062 C479.023218,292.541768 471.677876,273.446645 464.441701,254.303092 C457.032259,235.236821 449.710954,216.132424 442.116226,197.15065 C434.640682,178.117353 426.903734,159.200497 419.244907,140.248605 C411.441857,121.361632 381.413096,45.9889123 365.727263,0 C365.727263,0 328.380925,2.05719941 253.688249,6.17159823 Z" id="Fill-3" fill="#3E36B9"/><path d="M545.940827,536 C540.694163,537.694646 521.776106,543.807916 504.134887,549.507808 C504.226089,549.736092 504.32531,549.960262 504.39747,550.199857 C506.269632,556.413901 500.930763,563.631571 492.470956,566.320587 C484.012151,569.01166 475.654571,566.214672 473.804458,560.075694 C473.7333,559.840212 473.692208,559.599589 473.642097,559.361022 C471.332963,560.105515 470,560.537402 470,560.537402 L480.388094,595 L591,560.68445 L587.523271,549.147902 C584.737077,539.903444 553.902527,547.173557 545.940827,536" id="Fill-5" fill="#D7DBE2"/><path d="M554,509.873671 L451.409887,544 L446.28013,527.561748 C444.580905,522.078879 442.755365,516.622933 441,511.150419 L543.266308,476 C545.074805,481.637155 546.948465,487.244282 548.70383,492.905254 L554,509.873671 Z" id="Fill-8" fill="#D7DBE2"/><path d="M32.4518534,226.986362 L75.5578755,174.619526 C77.8769843,171.80376 81.602159,171.148955 84.0062718,173.188885 C91.2696125,179.346951 98.9659736,185.391228 106.732338,191.075517 C114.514703,196.766013 122.431074,202.125485 130.378447,207.038076 C138.32482,211.911358 146.313195,216.397757 154.174563,220.152801 C162.029932,223.945086 169.770295,227.040153 176.994634,229.223872 C180.058778,230.175563 182.976915,230.860367 185.792047,231.475864 C188.588178,232.045844 191.2013,232.398591 193.641415,232.648927 C196.045528,232.844438 198.210629,232.854782 200.14172,232.778233 C202.051809,232.674788 203.634884,232.388246 205.017948,232.094463 C206.419014,231.823438 207.449063,231.345523 208.45911,230.9214 C209.468157,230.507621 210.318197,229.942813 211.251241,229.253871 C213.095327,227.969087 215.214427,225.668475 217.607539,222.191697 C218.113563,221.368277 219.018605,220.827261 220.276664,220.576925 C221.546724,220.110389 223.146799,219.861087 224.965884,219.907637 C228.601055,219.994531 233.141268,221.065184 237.519473,223.384415 L276.4663,244.131294 C280.845506,246.450526 283.942651,250.19626 285.263713,254.620592 C285.921744,256.827068 286.162755,259.184574 285.888742,261.556562 C285.477723,263.962687 284.595681,266.389501 283.162614,268.613563 C276.451299,278.628049 268.045905,288.338408 257.538412,296.042973 C252.340168,299.901462 246.710904,303.31307 240.805627,305.978841 C234.922351,308.657026 228.816065,310.832469 222.701778,312.210353 C216.594492,313.622374 210.478205,314.499585 204.498924,314.831643 C198.530644,315.137839 192.674369,315.018878 186.981102,314.535791 C181.314837,314.006154 175.774577,313.192044 170.406325,312.096564 C165.062074,310.967981 159.811828,309.670784 154.74959,308.114975 C142.739027,304.475789 131.455498,299.855946 120.684992,294.671296 C109.893486,289.503196 99.6430053,283.724772 89.6925386,277.620498 C79.768073,271.487258 70.1846234,264.985756 60.8661863,258.173919 C51.5467491,251.349669 42.5063251,244.253359 33.6209082,236.723616 C30.651769,234.205771 30.1257443,229.800059 32.4518534,226.986362" id="SKIN" fill="#ae5d29"/><path d="M159.127501,0 C157.624968,-0.0279988939 157.660229,10.7399664 157.865576,14.1521098 C158.217168,17.755193 158.633871,21.3593083 159.11368,24.9469099 C159.663607,28.3198333 160.310698,31.5224592 160.970811,34.8045573 C162.376181,40.9879063 163.983891,46.9318066 165.729835,52.1666499 L167.040044,56.1928966 L168.393326,59.9053831 C169.299854,62.3432182 170.217401,64.9472224 171.146969,67.1518015 L173.949694,73.9864096 L176.75843,80.3792761 L177.464621,81.9759446 L178.160794,83.4786914 L179.554144,86.4831529 L180.9515,89.4865823 L182.323813,92.3558379 L185.058424,98.0251979 L187.719911,103.441692 C191.209796,110.535359 194.607524,117.313201 197.63563,123.637948 C199.229317,126.89218 200.5836,129.888384 202.053078,133.000185 L204.050446,137.474366 L205.046124,139.703715 L205.946643,141.859785 C208.481917,147.68809 210.414175,153.066396 212.181154,158.257891 C212.933423,160.77623 213.805894,163.335854 214.341797,165.668414 L214.818601,167.452926 L215.057003,168.338473 L215.222282,169.181704 C215.445658,170.303604 215.68406,171.422407 215.934483,172.538114 C216.085738,173.110933 216.127809,173.620793 216.20594,174.147168 L216.442339,175.717001 L216.701776,177.281674 C216.818974,177.816305 216.788923,178.272496 216.847021,178.76894 C216.924151,179.745312 217.022317,180.715492 217.140516,181.686704 C217.176577,182.618696 217.153538,183.50734 217.199616,184.417658 L217.271737,185.775909 L217.18459,187.052625 C217.132502,187.901016 217.121484,188.752504 217.111467,189.600895 C216.976239,190.408003 216.87006,191.21511 216.791928,192.025313 C216.746852,192.430931 216.73383,192.841709 216.682744,193.243199 L216.411286,194.420832 C216.243003,195.208329 216.112783,196.000987 215.992581,196.798805 C215.734145,197.579077 215.500751,198.36451 215.295405,199.157168 L215.006919,200.354411 C214.887718,200.753836 214.691387,201.151197 214.547143,201.553719 C214.23662,202.355665 213.951139,203.164837 213.689698,203.986393 C213.594537,204.397172 213.344115,204.811046 213.151791,205.225953 L212.566804,206.47893 L212.012871,207.745325 C211.81654,208.170552 211.705352,208.596812 211.414862,209.030297 C210.911013,209.89417 210.425194,210.7663 209.956403,211.648751 L209.265238,212.979136 C209.209143,213.084411 209.150044,213.213424 209.097956,213.302185 L208.948704,213.516863 L208.659216,213.95138 C207.151674,216.370637 205.882535,217.755724 205.135275,218.450331 C205.048128,218.588634 204.946957,218.602051 204.86582,218.666042 C204.78268,218.72384 204.71156,218.796087 204.648454,218.881752 C204.571324,218.903426 204.505212,218.931293 204.448116,218.976706 C204.392021,219.021086 204.351954,219.105719 204.287846,219.092301 C204.178662,219.120168 204.117559,219.235764 204.009376,219.227507 C203.959292,219.231636 203.95228,219.316269 203.88717,219.303883 C203.829072,219.303883 203.780991,219.319365 203.73892,219.353424 C203.712876,219.408126 203.623726,219.387484 203.56062,219.406062 C203.4895,219.416383 203.450434,219.473149 203.370299,219.494823 C203.155937,219.475213 203.069792,219.632093 202.779302,219.627965 C202.656095,219.646543 202.542904,219.687827 202.420698,219.733239 C202.256421,219.739432 202.095149,219.756978 201.937884,219.79207 C201.85875,219.808583 201.780618,219.830257 201.702487,219.853996 L201.398975,219.87051 C201.196634,219.884959 200.996296,219.913858 200.794957,219.955142 C199.001933,220.098605 196.261313,220.075899 192.81951,219.626933 C189.333632,219.130489 185.18063,218.197465 180.671027,216.820635 C172.380048,214.308489 162.948145,210.258503 153.355972,205.210471 C143.739759,200.159343 133.896162,194.121521 124.165756,187.470628 L65,279.893685 C77.7064236,288.460167 90.9387339,296.530207 105.047522,303.833391 C119.167329,311.114901 134.142578,317.688386 150.71552,322.6394 C159.773793,325.318748 169.30887,327.511974 179.459985,328.82791 C189.642152,330.088112 200.466403,330.477216 211.803518,329.269651 C223.138629,327.971261 234.995621,325.115423 246.280648,319.955924 C257.533621,314.842869 268.146514,307.724432 276.845181,299.362306 C285.619976,291.039401 292.71594,281.763861 298.409539,272.423299 L299.486355,270.665622 L300.021257,269.785236 L300.485039,268.942005 L302.300099,265.57837 L305.878132,258.822202 C306.493169,257.719913 306.987001,256.487578 307.528915,255.310976 L309.111583,251.73576 L310.673216,248.151255 C311.183076,246.948851 311.731,245.779475 312.151709,244.509984 L314.794165,237.002442 C315.216877,235.743273 315.674649,234.503713 316.057294,233.224933 L317.113074,229.340085 C317.807245,226.746402 318.483385,224.147558 319.141494,221.547682 C319.664376,218.902394 320.1532,216.247816 320.631006,213.593239 L321.332188,209.607244 C321.513494,208.272731 321.645717,206.933057 321.796972,205.596479 C322.088463,202.919195 322.362926,200.238815 322.616353,197.559467 C322.743568,194.892505 322.825706,192.22451 322.905841,189.555483 L323,185.555039 L322.873787,181.608264 C322.771615,178.982586 322.696488,176.338329 322.526201,173.732261 L321.749892,166.021394 C321.520506,163.424615 321.099796,160.945496 320.69311,158.452959 L320.078073,154.713638 C319.866717,153.470982 319.676396,152.206651 319.396925,151.017665 L317.814257,143.789824 L317.408573,141.98467 L316.948797,140.236282 L316.010215,136.751891 C314.805183,132.040326 313.340714,127.6322 311.914309,123.159051 C308.923266,114.43156 305.688813,105.947646 302.210949,98.0592574 L300.921775,95.0589243 L299.603553,92.1514808 L296.960096,86.3520754 C295.179093,82.6292679 293.393081,78.7898324 291.608072,75.2073914 C284.470037,60.6237291 277.361051,47.1568058 271.740574,34.8551305 L269.704141,30.316959 L267.893087,25.9728235 C267.240988,24.4938152 266.813267,23.1861365 266.279366,21.8082745 L265.502056,19.7678003 L264.887019,17.8666605 C263.182144,12.7876653 257.955332,0.0339274854 256.451797,0 L159.127501,0 Z" id="Fill-12" fill="#694FD9"/><path d="M54.0536333,253.355094 C57.2962112,248.804809 68.9922957,232.40159 79.8972391,217.105891 C79.6982036,216.982605 79.4941673,216.866511 79.3031332,216.722677 C74.3212454,212.965532 74.7813274,204.000576 80.2192965,196.848953 C85.6612664,189.689112 93.6876968,186.787778 98.2545107,190.229516 C98.4305421,190.363076 98.5855697,190.518211 98.7485988,190.666154 C100.174853,188.663782 101,187.507975 101,187.507975 C96.7382405,184.297398 92.5134876,181.002577 88.4007546,177.64303 C86.3443881,175.966339 84.3080252,174.274236 82.3326731,172.591381 L79.4391575,170.090727 L77.0857381,168 L-2.91038305e-11,256.105402 L3.15156166,258.942011 L5.82503813,261.285475 L11.0239647,265.724802 C15.1627023,269.193252 22.6580381,264.96762 30.7054723,260.446101 C38.7739102,255.92561 47.363441,251.099986 54.0536333,253.355094" id="Fill-14" fill="#D7DBE2"/><path d="M65,279.82601 L123.987578,187 C131.982753,192.478487 140.046663,197.512157 148,201.938601 L97.474796,300 C86.1653985,293.706361 75.393927,286.944112 65,279.82601" id="Fill-16" fill="#D7DBE2"/><path d="M257,102 C202.324,102 158,56.3328485 158,0 L366,0 C366,56.3328485 321.676,102 267,102 L257,102 Z" id="Fill-18" fill="#694FD9"/></g></g></g><g id="Body" transform="translate(17.000000, -31.000000) scale(1 1)"><g id="Body/Short Tee Wave 2" stroke="none" stroke-width="1" fill="none" fill-rule="evenodd"><g id="Right-Arm" transform="translate(417.000000, -22.000000)"><path d="M209.51019,16.2545499 L209.480977,16.1430408 C209.303308,15.4579152 209.123468,14.7733057 208.941468,14.0892288 C207.719468,9.54222878 210.509468,4.72522878 215.284468,3.30222878 C216.133039,3.04937164 216.989583,2.92923133 217.831594,2.9300037 L218.083739,2.93385099 C221.024438,3.02091671 223.758909,4.57931975 225.31775,7.10056491 L225.319402,7.09110066 C225.97573,4.05217878 227.715668,1.76567878 231.193668,0.771928782 C232.106328,0.549988782 232.960527,0.450236382 233.760723,0.460926798 L234.156342,0.4754212 C239.328336,0.787323135 242.172468,5.84077158 243.976512,12.242106 C245.122011,10.0688613 247.091847,8.36179958 249.636068,7.69772878 C250.373868,7.45876878 251.082087,7.34348878 251.762006,7.34321237 L252.266659,7.36443266 C263.0867,8.28553303 266.518209,39.0019883 268.055609,62.2831618 L268.119015,63.2481737 C271.126407,80.3759271 269.295986,100.92372 268.662368,115.309329 C265.525368,155.823329 252.990368,198.660329 224.979368,230.073329 C199.888808,259.711289 162.59927,273.010328 124.876528,273.461799 L123.1616,273.473484 C104.295016,273.50496 85.3646979,270.337769 67.8413679,264.408329 C52.8623679,258.928329 36.2833679,255.616329 24.8253679,244.382329 C4.74222786,224.058109 23.3737723,189.69092 49.9806703,189.741797 L50.7976258,189.754157 C51.070753,189.761895 51.3446779,189.773269 51.6193679,189.788329 C64.0683679,190.511329 75.2953679,198.602329 87.1053679,201.283329 C95.0633679,203.711329 102.970368,205.527329 110.650368,206.573329 C116.151798,207.522379 121.383814,207.952194 126.352697,207.909589 L127.999255,207.877954 C177.104128,206.407849 199.965568,158.215729 202.865368,110.114329 C204.012512,101.827659 203.529429,93.0263387 203.071757,84.3944131 C200.962583,79.8500739 193.818999,80.7947903 193.814368,72.9670288 C194.961368,62.9770288 184.490368,44.6730288 198.663368,41.1410288 C197.677125,35.815686 196.54029,30.5071506 195.257668,25.2258288 C194.203668,20.8728288 197.132668,16.2998288 201.943668,14.9848288 C204.664473,14.239426 207.427434,14.7868757 209.51019,16.2545499 Z" id="SKIN" fill="#ae5d29"/><path d="M243.976794,12.2431083 L243.982112,12.2304239 C245.129213,10.0626251 247.096496,8.36058592 249.636068,7.69772878 C262.714936,3.4617213 266.4983,38.0910559 268.118902,63.2537185 C271.126051,80.3799136 269.295924,100.925115 268.662368,115.309329 C265.525368,155.823329 252.990368,198.660329 224.979368,230.073329 C186.963368,274.979329 120.942368,282.376329 67.8413679,264.408329 C52.8623679,258.928329 36.2833679,255.616329 24.8253679,244.382329 C4.33236786,223.643329 24.1503679,188.282329 51.6193679,189.788329 C64.0683679,190.511329 75.2953679,198.602329 87.1053679,201.283329 C95.0633679,203.711329 102.970368,205.527329 110.650368,206.573329 C171.777368,217.118329 199.643368,163.560329 202.865368,110.114329 C204.012512,101.827659 203.529429,93.0263387 203.071757,84.3944131 C200.962583,79.8500739 193.818999,80.7947903 193.814368,72.9670288 C194.961368,62.9770288 184.490368,44.6730288 198.663368,41.1410288 C197.677125,35.815686 196.54029,30.5071506 195.257668,25.2258288 C194.203668,20.8728288 197.132668,16.2998288 201.943668,14.9848288 C204.664473,14.239426 207.427434,14.7868757 209.51019,16.2545499 C209.322886,15.5324683 209.133377,14.8105525 208.941468,14.0892288 C207.719468,9.54222878 210.509468,4.72522878 215.284468,3.30222878 C219.192567,2.13769405 223.269757,3.78817268 225.31775,7.10056491 C225.97196,4.05713748 227.711898,1.76675602 231.193668,0.771928782 C238.292449,-0.954347802 241.854424,4.71162705 243.976794,12.2431083 Z" id="SKIN-DARKER" fill="#964c1c"/><path d="M96.5428679,282.324929 C71.1168679,278.378929 47.4858679,270.031929 24.8448679,259.452929 C0.801867862,248.410929 -4.77068404,222.39977 4.90386786,198.525929 C10.6857019,184.258127 31.4171906,171 31.4171906,171 C75.5576343,172.574517 109.978868,195.355929 109.978868,195.355929 L96.5428679,282.324929 Z" id="Fill-15" fill="#051026"/></g><g id="body" transform="translate(272.000000, 149.000000)"><rect id="SKIN" fill="#ae5d29" x="18" y="101" width="180" height="48"/><path d="M40,0 L176,0 C198.09139,-4.05812251e-15 216,17.90861 216,40 L216,117 L216,117 L0,117 L0,40 C-2.705415e-15,17.90861 17.90861,4.05812251e-15 40,0 Z" fill="#0A1B45"/></g><path d="M334,149 C334,167.225397 354.594902,182 380,182 C405.405098,182 426,167.225397 426,149" id="SKIN" fill="#ae5d29"/><g id="Left-Arm" transform="translate(119.000000, 148.000000)"><path d="M158.927768,263.652024 L158.926768,263.652024 C147.950768,264.948024 136.348768,261.612024 126.141768,259.556024 C119.140768,257.148024 115.719768,250.243024 108.708768,246.775024 C95.0227683,238.016024 79.7397683,231.599024 64.2127683,223.065024 C42.6397683,211.756024 18.5417683,193.564024 8.10676827,169.268024 C-6.94023173,135.529024 -0.688231726,93.6230238 23.9317683,66.1570238 C52.7587683,34.0470238 95.6917683,22.4820238 136.178768,16.5450238 C154.833768,14.9350238 178.560768,7.92402379 193.229768,22.2770238 C206.565768,33.8240238 205.593768,57.0920238 193.539768,68.9450238 C187.903768,74.9510238 180.394768,78.8170238 172.023768,79.3160238 C153.948768,80.3930238 136.118768,82.6950238 119.724768,86.7550238 C98.9597683,92.5340238 72.1557683,100.656024 66.7517683,123.155024 C61.8407683,144.300024 78.1857683,155.853024 95.7937683,165.111024 C111.236768,173.501024 128.526768,180.984024 144.554768,191.355024 C158.267768,200.619024 174.823768,212.599024 179.134768,229.722024 C183.632768,245.272024 175.406768,262.079024 158.927768,263.652024" id="SKIN" fill="#ae5d29"/><path d="M134.948268,279.355124 C122.768268,277.998124 128.590268,267.070124 123.440268,260.053124 C119.847268,251.374124 101.944268,248.472124 108.510268,236.087124 C117.567268,222.827124 133.043268,243.188124 138.721268,250.541124 C143.486268,258.430124 151.019268,280.642124 134.948268,279.355124" id="SKIN" fill="#ae5d29"/><path d="M148.860368,291.451824 C135.713368,288.061824 145.747368,269.756824 140.964368,260.499824 C139.679368,254.490824 147.936368,248.066824 153.684368,250.471824 C163.311368,256.645824 160.264368,274.769824 159.424368,284.722824 C158.725368,289.636824 153.649368,292.748824 148.860368,291.451824" id="SKIN" fill="#ae5d29"/><path d="M163.879968,297.383524 C159.115968,296.096524 156.230968,291.093524 157.125968,286.362524 C158.786968,276.970524 159.154968,267.234524 156.860968,257.994524 C154.777968,250.979524 162.123968,242.098524 169.391968,246.587524 C179.211968,251.487524 180.989968,302.915524 163.879968,297.383524" id="SKIN" fill="#ae5d29"/><path d="M190.887768,254.586624 C177.273768,254.024624 177.084768,233.155624 168.623768,225.197624 C160.782768,214.551624 149.693768,208.212624 148.713768,194.131624 C154.459768,197.607624 160.541768,192.166624 166.426768,196.967624 C177.358768,204.277624 210.012768,244.716624 190.887768,254.586624" id="SKIN" fill="#ae5d29"/><path d="M181.494168,292.004624 C166.783168,288.913624 182.038168,259.820624 164.188168,234.688624 C160.582168,227.359624 152.605168,223.065624 150.805168,215.163624 C149.214168,207.805624 157.193168,203.142624 163.464168,206.863624 C170.254168,211.169624 174.745168,218.221624 179.472168,225.175624 C188.220168,235.479624 203.726168,292.481624 181.494168,292.004624" id="SKIN" fill="#ae5d29"/><path d="M104.562768,11.2090238 C128.114768,5.69102379 154.312092,5.1403326e-14 191.396139,1 C217.091608,1.6928982 222.965768,20.7940238 221.034768,46.3420238 C219.224768,69.2870238 201.773768,88.7990238 178.951768,89.9760238 C160.110768,90.8000238 141.496768,92.9130238 124.760768,96.8590238 L104.562768,11.2090238 Z" id="Fill-26" fill="#0A1B45"/></g></g></g><g id="Head" transform="translate(338.000000, -61.000000) scale(1 1)"><g id="Head/Bun Loose" stroke="none" stroke-width="1" fill="none" fill-rule="evenodd"><path d="M19.8942067,117.942717 C35.0689622,108.732328 32.9604258,72.1921982 63.8973061,72.0022431 C94.8341863,71.812288 88.7696095,95.6352289 103.744793,123.886685 C118.719976,152.13814 118.547703,186 80.3488761,186 C64.6689057,186 56.7643904,186 35.4814563,186 C-6.85909555,186 -5.51021065,133.362047 19.8942067,117.942717 Z" id="Path-2" fill="#000"/><g id="Head" transform="translate(22.000000, 72.000000)"><g id="head" transform="translate(0.000000, 0.000100)" fill="#ae5d29"><path d="M13,62 L58,62 L58,113.633 C58,127.538 47.926,138.81 35.5,138.81 C23.074,138.81 13,127.538 13,113.633 L13,62 Z" id="SKIN"/><path d="M60.0525,94 L55.0655,94 C31.8335,94 13.0005,75.167 13.0005,51.935 L13.0005,32.203 C13.0005,14.418 27.4175,0 45.2035,0 L50.7965,0 C68.5825,0 83.0005,14.418 83.0005,32.203 L83.0005,71.052 C83.0005,83.726 72.7265,94 60.0525,94" id="SKIN"/><path d="M25,58.5 C25,65.403 19.404,71 12.5,71 C5.596,71 0,65.403 0,58.5 C0,51.597 5.596,46 12.5,46 C19.404,46 25,51.597 25,58.5" id="SKIN"/></g><path d="M10.067,53.1685 C10.9718309,53.1685 12.2239875,53.3771928 13.5088204,54.0196092 C15.6553998,55.0928989 17.0130325,57.055328 17.10411,59.9021045 L17.109,60.2105 L14.109,60.2105 C14.109,58.3751144 13.4076866,57.3231443 12.1671796,56.7028908 C11.7065142,56.4725581 11.1976823,56.3199085 10.686339,56.2346846 C10.4347302,56.1927498 10.2385731,56.1747448 10.1250097,56.169908 L10.067,56.1685 L10.067,53.1685 Z" id="ear-line" fill="#000"/><path d="M34.7507501,96.3317762 C25.4557924,93.0436693 20.8185822,84.7387742 18.9822222,73.5681961 C26.2532122,85.6702724 39.4406226,93.8133264 54.5439426,93.9968331 L55.0655,94 L58,94 C50.0632106,98.2298391 42.3134606,99.0070978 34.7507501,96.3317762 Z" id="SHADOW" fill="#000" opacity=".12"/></g><path d="M98.9633414,86.1752648 C93.1795162,77.6229815 83.3848925,72 72.2749907,72 L66.6840596,72 C48.9088165,72 34.4987262,86.3949125 34.4987262,104.151433 C34.4987262,104.151433 34.0149918,114.587695 34,117.92634 C34,118.092075 39.4959832,117.92634 39.4959832,117.92634 L46.9918687,89.5897548 C82.9972896,89.5897548 101,89.5897548 101,89.5897548 C100.614109,88.789837 99.9352229,87.6516737 98.9633414,86.1752648 Z" id="Fill-10" fill="#000"/><circle id="Oval" fill="#000" cx="55" cy="53" r="25"/><path d="M72.8086245,72 C89.5888073,72 103.384617,84.7181817 104.999901,100.998998 L35.0000994,100.998998 C36.6152758,84.7181817 50.4101988,72 67.1903817,72 L72.8086245,72 Z" id="Combined-Shape" fill="#000"/></g></g><g id="Expression" transform="translate(385.000000, 34.000000) scale(1 1)" fill="#000"><g id="Expression/Happy" stroke="none" stroke-width="1" fill="none" fill-rule="evenodd"><path d="M20.5607,22 C20.5607,20.343 19.2177,19 17.5607,19 C15.9037,19 14.5607,20.343 14.5607,22 C14.5607,23.657 15.9037,25 17.5607,25 C19.2177,25 20.5607,23.657 20.5607,22" id="Fill-1" fill="#000"/><path d="M46.5607,22 C46.5607,20.343 45.2177,19 43.5607,19 C41.9037,19 40.5607,20.343 40.5607,22 C40.5607,23.657 41.9037,25 43.5607,25 C45.2177,25 46.5607,23.657 46.5607,22" id="Fill-3" fill="#000"/><polygon id="Stroke-5" fill="#000" points="33.1977829 19.396766 36.1476171 18.850434 40.4350211 41.9996 30.5607 41.9996 30.5607 38.9996 36.828 38.999"/><path d="M21.9219,41.586 C21.9219,45.2602625 25.6639817,48.6581933 29.6815435,48.7900329 L29.9229,48.794 L29.9229,51.794 C24.3252295,51.794 19.0961019,47.2280163 18.9261594,41.8552911 L18.9219,41.586 L21.9219,41.586 Z" id="Stroke-7" fill="#000"/><path d="M23.0607,9 L23.0607,12 C19.8342736,12 16.8913939,12.8655529 14.2891644,14.3112359 C13.508469,14.7449556 12.8086718,15.2043948 12.1956619,15.6654963 L11.8964164,15.8960741 C11.548672,16.1706093 11.3051282,16.3844813 11.1717567,16.5115787 L11.1213602,16.5606602 L9.00003983,14.4393398 C9.71719288,13.7221868 11.0118484,12.7000903 12.8322356,11.6887641 C15.7235813,10.0824609 18.9894549,9.08904431 22.5704367,9.00569674 L23.0607,9 Z" id="Stroke-9" fill="#000"/><path d="M37.0607,9 C40.8342736,9 44.2663939,10.0094471 47.2891644,11.6887641 C48.9957774,12.6368824 50.2403215,13.5944668 50.980139,14.3013772 L51.1213602,14.4393398 L49.0000398,16.5606602 L48.8084832,16.3819961 C48.6965748,16.2822525 48.549249,16.1566104 48.3676199,16.0099419 L48.2249836,15.8960741 C47.5437467,15.3582556 46.7430469,14.8172422 45.8322356,14.3112359 C43.3601176,12.937837 40.5805627,12.0880056 37.5425302,12.006456 L37.0607,12 L37.0607,9 Z" id="Stroke-11" fill="#000"/></g></g><g id="Accessories" transform="translate(372.000000, 56.000000) scale(1 1)" fill="#000"><g id="Accessories/None" stroke="none" stroke-width="1" fill="none" fill-rule="evenodd" fill-opacity="0"/></g><g id="Glasses" transform="translate(364.000000, 42.000000) scale(1 1)" fill="#000"><g id="Glasses/None" stroke="none" stroke-width="1" fill="none" fill-rule="evenodd" fill-opacity="0"/></g></g></g></g></svg>