<svg viewBox="30 210 2250 1439.9999999999998" xmlns="http://www.w3.org/2000/svg" overflow="visible" xmlns:xlink="http://www.w3.org/1999/xlink" width="2250px" height="1439.9999999999998px"><g id="Master/Scenes/Mobile" stroke="none" stroke-width="1" fill="none" fill-rule="evenodd"><g id="Big Plants" transform="translate(694.000000, 836.000000) scale(-1, 1) translate(-694.000000, -836.000000) translate(162.000000, 156.000000) scale(1 1)"><g id="Big Plants/2" stroke="none" stroke-width="1" fill="none" fill-rule="evenodd"><g id="leafs" transform="translate(-81.000000, 281.000000)"><path d="M148.467994,1067 C148.467994,1067 78.3688885,980.125601 112.368002,884.85615 C139.791555,808.001652 213.377315,786.980171 215.844208,722.246452 C218.952154,640.61896 137.053855,651.844803 124.095263,551.057637 C114.026702,472.736966 161.932235,400.706238 158.779859,359.050448 C154.008982,296.030436 46.2971673,263.326124 9.31281761,168.55386 C-37.5793011,48.3954505 108.407433,20.9486243 173.433117,61.5825366 C255.054262,112.589669 257.81312,188.693098 293.593643,234.495638 C334.229671,286.516185 461.431207,298.196901 479.69383,426.456282 C491.275108,507.802387 443.771556,578.483306 466.159771,647.353197 C482.791198,698.508428 582.078341,721.093402 602.974996,834.134635 C625.466879,955.816341 534.752506,1067 534.752506,1067 L148.467994,1067 Z" id="Fill-4" stroke="#FFF" stroke-width="11" transform="translate(303.376301, 555.500000) scale(-1, 1) translate(-303.376301, -555.500000)"/><path d="M896.714358,462.606118 C973.95827,447.493062 1116.69209,459.247068 1138.52147,482.756858 C1162.97549,509.092233 1101.62171,654.468481 1072.18335,666.245604 C1028.02136,666.245604 954.421014,657.413206 966.196359,680.965674 C977.971703,704.518141 1016.24602,733.95828 1016.24602,748.67835 C1016.24602,763.39842 989.748826,857.608289 957.363961,863.494183 C924.980875,869.383633 845.491076,842.886441 842.54635,863.494183 C839.603403,884.103703 883.763613,910.600895 886.708338,934.153363 C889.651285,957.70583 845.491076,1022.47378 657.071338,1078.41111 L495.150571,1078.41111 C495.150571,1078.41111 465.710431,875.271305 536.366055,789.895612 C592.305165,810.503354 615.857632,813.446301 615.857632,813.446301 C615.857632,813.446301 609.968181,698.62869 630.575923,648.580809 C651.185444,598.531149 679.007407,555.164024 715.357693,554.963086 C742.596401,554.813716 800.977001,607.477352 812.752346,586.867832 C824.52769,566.26009 798.435931,481.833964 896.714358,462.606118" id="Fill-1" fill="#FFF"/><path d="M960.988854,1.14011099 C994.627361,4.98461338 1026.48943,257.882453 913.439366,287.256799 C871.603284,298.127032 802.718764,318.731217 840.189325,360.36636 C859.274915,381.569804 935.937351,405.356996 955.131411,448.009278 C969.751901,480.493723 932.466274,579.069112 876.409801,604.728764 C812.226883,634.104888 751.554163,621.328408 746.171504,660.785237 C740.792401,700.242065 834.120275,724.866797 839.88525,778.68983 C843.941361,816.519592 780.967629,955.16885 574.326515,1072.02607 C452.365811,1072.02607 350.161084,1070.23185 350.161084,1070.23185 C350.161084,1070.23185 251.799082,914.533064 226.690676,731.593787 C201.580491,548.65451 240.320699,484.645857 308.554393,476.05174 C344.918904,471.471056 415.069515,523.990658 450.240843,513.716127 C479.558286,505.150462 441.981031,406.519949 441.981031,336.572055 C441.981031,266.62594 460.241529,203.936723 489.69945,189.086843 C513.420848,177.130121 583.927101,229.669283 607.243066,240.429266 C630.560809,251.191028 676.374758,262.336884 685.146697,238.537244 C695.924462,209.285596 657.273165,132.813429 686.106933,89.563666 C722.154922,35.4881259 884.155709,-7.64071824 960.988854,1.14011099" id="Fill-5" fill="#D3E2F2"/><path d="M911.612373,76.0982196 C913.005601,77.4381419 913.048814,79.653798 911.708892,81.0470259 L910.464699,82.3573082 C909.842566,83.0167126 909.152484,83.7527953 908.395909,84.5649496 L906.794535,86.2905078 C902.941831,90.4567349 898.497029,95.3614014 893.507333,100.984848 L892.823547,101.756135 C878.074813,118.406188 861.671316,137.807205 844.018135,159.790386 L842.889643,161.197073 C791.21239,225.677668 739.531268,298.761717 691.29737,379.008557 C630.863001,479.553346 580.225714,584.224232 542.600585,691.673591 C498.267514,818.279406 473.360117,944.983411 471.079998,1070.44518 C471.044879,1072.37786 469.44966,1073.91613 467.516983,1073.88216 C465.584305,1073.84588 464.046034,1072.25066 464.079998,1070.31798 C466.375592,944.068326 491.426077,816.636432 535.993919,689.36016 C573.786672,581.432101 624.629691,476.335952 685.297751,375.402371 C733.164813,295.765838 784.411059,223.164027 835.698593,158.979742 L837.427397,156.819417 C854.827515,135.108319 871.039127,115.8712 885.68258,99.2656237 L887.583671,97.1146155 C891.963322,92.1703664 895.938159,87.762122 899.477787,83.902504 L901.65519,81.5379158 C902.509335,80.614263 903.297957,79.7663417 904.019599,78.9947567 L906.663567,76.1947382 C908.003489,74.8015102 910.219145,74.7582973 911.612373,76.0982196 Z" id="Stroke-10" fill="#FFF" fill-rule="nonzero"/></g></g></g><g id="Background" transform="translate(57.000000, 210.000000)"><g id="Plant" transform="translate(1692.500000, 876.000000) scale(-1, 1) translate(-1692.500000, -876.000000) translate(1370.000000, 449.000000) scale(1 1)"><g id="Plant/Plant 4" stroke="none" stroke-width="1" fill="none" fill-rule="evenodd"><g id="Group" transform="translate(103.000000, 370.000000)"><path d="M141.072873,483.530551 C141.072873,483.530551 126.604873,455.502551 155.608873,411.304551 C217.020873,317.724551 117.704873,362.860551 95.7348733,298.951551 C77.8208733,246.843551 107.645873,194.195551 77.6968733,180.246551 C28.6728733,157.414551 -22.4311267,123.755551 10.3938733,85.6725509 C33.4258733,58.9505509 112.765873,61.3605509 143.875873,143.593551 C163.342873,195.052551 240.052873,160.724551 308.112873,242.246551 C328.382873,266.524551 372.895873,369.272551 349.537873,483.530551 L141.072873,483.530551 Z" id="Leaf-1" fill="#141414"/><g id="Leaf-2" transform="translate(152.315615, 0.000000)"><path d="M70.0834586,483.530551 C70.0834586,483.530551 36.9504586,442.468551 53.0204586,397.438551 C65.9824586,361.112551 100.763459,351.176551 101.929459,320.579551 C103.398459,281.997551 64.6884586,287.303551 58.5634586,239.665551 C53.8044586,202.646551 76.4474586,168.600551 74.9574586,148.911551 C72.7024586,119.124551 21.7914586,103.666551 4.3104586,58.8715509 C-17.8535414,2.07755094 51.1484586,-10.8954491 81.8834586,8.31055094 C120.462459,32.4195509 121.766459,68.3905509 138.678459,90.0395509 C157.885459,114.627551 218.008459,120.148551 226.640459,180.771551 C232.114459,219.220551 209.661459,252.628551 220.243459,285.180551 C228.104459,309.359551 275.033459,320.034551 284.910459,373.464551 C295.541459,430.978551 252.664459,483.530551 252.664459,483.530551 L70.0834586,483.530551 Z" id="Fill-4" fill="#FFB500"/><path d="M166.160559,483.530551 L170.209559,483.530551 C171.662559,474.144551 184.400559,385.434551 165.580559,279.778551 C149.372559,188.786551 100.252559,103.722551 59.6885586,54.4565509 C58.9865586,53.6035509 57.7275586,53.4815509 56.8735586,54.1835509 C56.0205586,54.8855509 55.8985586,56.1465509 56.6005586,56.9995509 C78.8145586,83.9785509 100.812559,118.488551 118.542559,154.172551 C139.552559,196.455551 154.455559,240.132551 161.642559,280.479551 C180.955559,388.898551 166.842559,479.311551 166.160559,483.530551" id="Fill-6" fill="#070707"/></g></g></g></g><g id="Phone" transform="translate(810.000000, 0.000000) scale(1 1)"><g id="Phone/Screen 4" stroke="none" stroke-width="1" fill="none" fill-rule="evenodd"><g id="mobile-frame" fill="#FFF" stroke="#141414" stroke-width="24"><rect id="mobile" x="12" y="12" width="642" height="1279" rx="81"/></g><g id="Assets-85" transform="translate(243.655500, 582.000000)"><path d="M209.3445,89.1288 L224.973082,0.1288 C245.805234,3.81721762 264.691125,14.765831 278.288154,31.0382617 C291.885995,47.3098767 299.3445,67.8865488 299.3445,89.1288 L209.3445,89.1288 Z" id="Bg-2" stroke="#D3E2F2" stroke-width="4"/><path d="M191.8445,103.6288 L282.3445,103.6288 C282.3445,153.275275 241.491792,194.1288 191.8445,194.1288 C142.198025,194.1288 101.3445,153.275275 101.3445,103.6288 C101.3445,53.9823249 142.198025,13.1288 191.8445,13.1288 C197.112919,13.1288 202.371536,13.5886635 207.559907,14.5034897 L191.8445,103.6288 Z" id="Stork-4" stroke="#D3E2F2" stroke-width="4"/><path d="M80.3445,40.1288 C80.3445,62.2199985 62.43588,80.1288 40.3449055,80.1288 C18.25312,80.1288 0.3445,62.2199985 0.3445,40.1288 C0.3445,18.0376015 18.25312,0.1288 40.3449055,0.1288 C62.43588,0.1288 80.3445,18.0376015 80.3445,40.1288 Z" id="BG" stroke="#D3E2F2" stroke-width="4"/><path d="M209.3445,89.1288 L224.973082,0.1288 C245.805234,3.81721762 264.691125,14.765831 278.288154,31.0382617 C291.885995,47.3098767 299.3445,67.8865488 299.3445,89.1288 L209.3445,89.1288 Z" id="Stork-3" fill="#EDF3F9" fill-rule="nonzero"/><path d="M191.8445,103.6288 L282.3445,103.6288 C282.3445,153.275275 241.491792,194.1288 191.8445,194.1288 C142.198025,194.1288 101.3445,153.275275 101.3445,103.6288 C101.3445,53.9823249 142.198025,13.1288 191.8445,13.1288 C197.112919,13.1288 202.371536,13.5886635 207.559907,14.5034897 L191.8445,103.6288 Z" id="Stoke-2" fill="#EDF3F9" fill-rule="nonzero"/><path d="M80.3445,40.1288 C80.3445,62.2199985 62.43588,80.1288 40.3449055,80.1288 C18.25312,80.1288 0.3445,62.2199985 0.3445,40.1288 C0.3445,18.0376015 18.25312,0.1288 40.3449055,0.1288 C62.43588,0.1288 80.3445,18.0376015 80.3445,40.1288 Z" id="Stroke" fill="#EDF3F9" fill-rule="nonzero"/></g><path d="M313,1007.1288 L313,1182.1288 L268,1182.1288 L268,1007.1288 L313,1007.1288 Z M149,836.1288 L149,1182.1288 L104,1182.1288 L104,836.1288 L149,836.1288 Z M235,932.1288 L235,1182.1288 L190,1182.1288 L190,932.1288 L235,932.1288 Z M401,1059.1288 L401,1182.1288 L356,1182.1288 L356,1059.1288 L401,1059.1288 Z M488,1088.1288 L488,1182.1288 L443,1182.1288 L443,1088.1288 L488,1088.1288 Z M562,1066.1288 L562,1182.1288 L517,1182.1288 L517,1066.1288 L562,1066.1288 Z" id="Graph" fill="#D3E2F2" fill-rule="nonzero"/><polygon id="Up" fill="#02BAD3" fill-rule="nonzero" points="457.480307 891.527537 314.688677 967.936818 144.895406 709.016156 162.189263 699.064952 106.6555 663 110.225803 728.968352 124.77888 720.593246 306.911805 998.334024 449.733733 921.910051 541.264499 1061 560.6555 1048.31287"/><path d="M293,427 L293,462 L98,462 L98,427 L293,427 Z M407,350 L407,385 L99,385 L99,350 L407,350 Z M367,269 L367,304 L99,304 L99,269 L367,269 Z M488,193 L488,228 L98,228 L98,193 L488,193 Z M541,104 L541,139 L99,139 L99,104 L541,104 Z" id="Info" fill="#D3E2F2" fill-rule="nonzero"/><path d="M527.395536,487.7165 L527.395536,471.893096 C538.045298,469.992386 546.246566,466.072173 551.99934,460.132457 C557.752114,454.192741 560.6285,447.231394 560.6285,439.248415 C560.6285,432.02572 558.702985,426.323593 554.851955,422.142032 C551.000925,417.960471 546.460512,414.943096 541.230719,413.089904 C536.000925,411.236713 529.582542,409.597351 521.975568,408.171819 C516.080164,407.031394 511.848785,405.962245 509.281432,404.964372 C506.714078,403.9665 505.430402,402.469691 505.430402,400.473947 C505.430402,396.292386 509.756868,394.201606 518.4098,394.201606 C527.157819,394.201606 536.428817,396.672529 546.222795,401.614372 L546.222795,401.614372 L556.349578,377.237777 C548.457343,372.77111 538.805996,370.015082 527.395536,368.969691 L527.395536,368.969691 L527.395536,353.7165 L507.284601,353.7165 L507.284601,369.254798 C495.969229,370.870401 487.292526,374.671819 481.25449,380.659053 C475.216455,386.646287 472.197438,393.821465 472.197438,402.184585 C472.197438,409.40728 474.099182,415.133167 477.902668,419.362245 C481.706154,423.591322 486.175251,426.632457 491.309958,428.485649 C496.444665,430.33884 502.863048,432.073237 510.565109,433.68884 C516.5556,434.924301 520.858294,436.064727 523.473191,437.110117 C526.088088,438.155507 527.395536,439.723593 527.395536,441.814372 C527.395536,443.620046 526.397121,444.974301 524.400291,445.877138 C522.40346,446.779975 519.075409,447.231394 514.416139,447.231394 C508.99617,447.231394 503.338484,446.399833 497.44308,444.736713 C491.547676,443.073593 486.222795,440.864018 481.468437,438.107989 L481.468437,438.107989 L470.6285,462.627138 C474.907422,465.288131 480.303619,467.521465 486.81709,469.327138 C493.33056,471.132812 500.153064,472.22572 507.284601,472.605862 L507.284601,472.605862 L507.284601,487.7165 L527.395536,487.7165 Z" id="$" fill="#FFC81A" fill-rule="nonzero"/></g></g><line x1="0" y1="1303" x2="2209" y2="1303" id="line" stroke="#141414" stroke-width="4"/></g><g transform="translate(840.500000, 937.000000) scale(-1, 1) translate(-840.500000, -937.000000) translate(259.000000, 287.000000) scale(1 1)" id="Master/Character/Standing"><g id="Master/Character/Standing" stroke="none" stroke-width="1" fill="none" fill-rule="evenodd"><g id="Lower Body" transform="translate(0.000000, 569.000000) scale(1 1)"><g id="Lower Body/Fat Pant" stroke="none" stroke-width="1" fill="none" fill-rule="evenodd"><g id="Group" transform="translate(387.000043, -1.742744)"><g id="Assets-46" transform="translate(80.999957, 598.742744)"><polygon id="SKIN" fill="#FFF" points="1.22037767 1.96659893e-13 11.4923777 95.7894194 61.8263777 92.727871 71.2023777 1.39025806"/><path d="M68.3629777,8.21050645 L59.9079777,90.5774419 L13.3779777,93.4069258 L4.23997767,8.19879677 C4.11697767,7.05550645 3.20797767,6.19218387 2.12697767,6.19218387 C0.85697767,6.19218387 -0.13002233,7.36953871 0.01397767,8.71295806 L9.37997767,96.0469258 C9.50297767,97.1955387 10.4179777,98.0535387 11.4909777,98.0535387 C11.5319777,98.0535387 11.5729777,98.0524742 11.6139777,98.0503452 L61.9469777,94.9887968 C62.9849777,94.9249258 63.8269777,94.0733129 63.9409777,92.9747323 L72.5919777,8.7023129 C72.7289777,7.3620871 71.7429777,6.19218387 70.4769777,6.19218387 C69.3919777,6.19218387 68.4809777,7.06189355 68.3629777,8.21050645" id="Fill-14" fill="#141414"/></g><g id="Assets-47" transform="translate(192.999957, 561.742744)"><polygon id="SKIN" fill="#FFF" points="1.87205282 -1.12549969e-13 5.79805282 124.489728 62.9320528 129.420192 88.2460528 35.744544"/><path d="M84.5863528,41.1036384 L61.3653528,127.031414 L7.86035282,122.414582 L4.25335282,14.1228384 C4.20635282,12.7067424 2.94535282,11.6898144 1.64035282,12.0150624 C0.651352824,12.2611104 -0.0346471755,13.2093984 0.0013528245,14.2812384 L3.67235282,124.563542 C3.70935282,125.704022 4.54835282,126.634358 5.62535282,126.727286 L62.7583528,131.65775 C62.8163528,131.66303 62.8753528,131.666198 62.9333528,131.666198 C63.8743528,131.666198 64.7143528,131.007254 64.9763528,130.03679 L88.6763528,42.3359904 C89.0523528,40.9441824 88.1013528,39.5439264 86.7313528,39.4763424 C85.7453528,39.4277664 84.8573528,40.1014944 84.5863528,41.1036384" id="Fill-2" fill="#141414"/></g><g id="Assets-48" transform="translate(184.999957, 672.742744)"><path d="M6.8308,5.48099941 C7.0888,4.40951727 8.0888,3.73207084 9.1218,3.92592798 C10.1058,4.11241012 11.3498,4.3642137 12.8158,4.66237441 C21.7968,6.48294584 40.4858,10.2726423 58.1968,10.2873923 L58.2428,10.2873923 C68.6758,10.2873923 71.7628,5.94878512 77.9918,0.487070838 C78.4858,0.0529994098 79.1488,-0.10187559 79.7748,0.0666958384 C110.1718,8.40466012 138.2238,15.7606958 154.4998,27.1972137 C157.3608,29.2084816 167.6768,37.9826244 165.8928,44.1881601 C165.0668,47.0580887 162.1288,48.5130708 157.1598,48.5130708 C139.0148,48.5130708 99.9238,48.6194816 65.4348,48.714303 C37.5288,48.7912137 13.4278,48.8575887 4.3538,48.8575887 C3.3958,48.8575887 2.5298,48.3992851 1.9168,47.5680173 C-1.6562,42.725803 4.1628,16.5213744 6.8308,5.48099941" id="Fill-4" fill="#f28749"/><path d="M4.719,58.1358655 L161.555,58.1358655 C164.162,58.1358655 166.275,55.9107226 166.275,53.1640619 L166.275,51.5215441 C166.275,48.7748833 164.162,46.5486869 161.555,46.5486869 L4.719,46.5486869 C2.113,46.5486869 5.68434189e-14,48.7748833 5.68434189e-14,51.5215441 L5.68434189e-14,53.1640619 C5.68434189e-14,55.9107226 2.113,58.1358655 4.719,58.1358655" id="Fill-6" fill="#141414"/><path d="M117.0144,21.2506458 C117.8094,21.2506458 118.5714,20.7796994 118.9354,19.9726637 C122.2724,12.5892351 128.6834,14.3961101 129.4044,14.6289494 C130.5224,14.9861101 131.7124,14.327628 132.0594,13.1518423 C132.4064,11.9739494 131.7924,10.7254673 130.6774,10.352503 C127.0414,9.13668155 119.1034,9.18093155 115.0964,18.0467351 C114.5914,19.1645744 115.0414,20.500503 116.1014,21.0325566 C116.3964,21.1811101 116.7074,21.2506458 117.0144,21.2506458" id="Fill-8" fill="#141414"/><path d="M98.2336,15.8541476 C99.0286,15.8541476 99.7906,15.3832012 100.1546,14.5761655 C103.4926,7.19273691 109.9036,8.99961191 110.6226,9.2324512 C111.7416,9.59066548 112.9316,8.93112977 113.2786,7.75534405 C113.6256,6.5774512 113.0106,5.32896905 111.8966,4.95600477 C108.2566,3.74123691 100.3206,3.78654048 96.3156,12.6502369 C95.8106,13.7680762 96.2606,15.1040048 97.3206,15.6360583 C97.6156,15.7846119 97.9266,15.8541476 98.2336,15.8541476" id="Fill-10" fill="#141414"/></g><g id="Assets-49" transform="translate(68.999957, 670.742744)"><path d="M19.2345363,0.522571429 C19.2345363,0.522571429 -10.2414637,27.2021607 3.78453629,47.6024643 C22.3655363,53.092625 66.7745363,58.1940179 86.4925363,48.3178393 C100.314536,41.3948214 78.4565363,-1.08548091e-13 78.4565363,-1.08548091e-13 C56.2045363,2.34419643 39.9575363,1.22635714 19.2345363,0.522571429" id="Fill-16" fill="#f28749"/><path d="M92.2614363,52.2957036 C92.0534363,56.2971679 88.0174363,58.7867571 83.7344363,58.7867571 L7.40643629,58.7867571 C2.89943629,58.7867571 -0.132563714,54.5334893 0.664436286,49.96415 C1.46043629,45.3958643 2.78443629,45.7888464 5.78443629,45.7888464 L83.7344363,46.2197571 C86.9364363,46.2197571 92.4914363,47.8633286 92.2614363,52.2957036" id="Fill-18" fill="#141414"/><path d="M23.8258363,30.5905518 C23.0658363,30.5905518 22.3398363,30.1311946 22.0038363,29.3557661 C21.5468363,28.2979804 21.9888363,27.0494982 22.9928363,26.5669625 C23.7928363,26.1813554 42.8118363,17.2270518 64.0308363,23.7339089 C65.0918363,24.0594625 65.7008363,25.2278732 65.3928363,26.3457125 C65.0838363,27.4624982 63.9738363,28.1083375 62.9138363,27.7796232 C43.1598363,21.7279089 24.8348363,30.3134625 24.6518363,30.4009089 C24.3838363,30.5294446 24.1028363,30.5905518 23.8258363,30.5905518" id="Fill-20" fill="#141414"/><path d="M29.9366363,16.6214589 C29.1576363,16.6214589 28.4166363,16.1389232 28.0936363,15.3361018 C27.6636363,14.2656732 28.1356363,13.0298339 29.1516363,12.5746911 C29.7886363,12.2902268 44.8846363,5.67695893 58.1376363,12.3702982 C59.1336363,12.8728518 59.5536363,14.1329232 59.0756363,15.1822804 C58.5986363,16.2316375 57.4036363,16.6741375 56.4076363,16.1705304 C44.8086363,10.3095125 30.8536363,16.3917804 30.7146363,16.4549946 C30.4606363,16.5677268 30.1966363,16.6214589 29.9366363,16.6214589" id="Fill-22" fill="#141414"/></g><g id="Pant" transform="translate(-0.000043, 0.742744)"><path d="M3.56235652,242.042966 C27.4433565,463.886049 20.7423565,625.365937 20.7423565,625.365937 C68.9563565,633.360368 116.270357,633.390012 161.975357,619.187219 L172.999957,152.184013 L229.999957,296.17059 C229.999957,296.17059 164.091357,543.514861 175.527357,564.269044 C186.962357,585.023227 286.866357,627.838059 313.712357,611.772969 C324.819357,605.125236 384.766957,400.253828 381.999957,281.348443 C380.552957,219.151535 276.059957,47.4051925 268.999957,1.84508682 C235.388957,-2.30617324 52.2983565,1.84476921 52.2983565,1.84476921 C52.2983565,1.84476921 -16.1386435,59.0370846 3.56235652,242.042966 Z" id="Fill-24" fill="#141414"/><path d="M168.610357,30.8583821 C172.901357,34.0239694 182.462357,40.1984526 198.412357,46.072258 C204.117357,48.172768 207.162357,47.8519744 208.037357,46.9382949 C208.628357,46.3210583 208.348357,45.0516472 208.128357,44.3497127 C206.402357,38.834815 197.080357,30.1744459 184.066357,28.2581539 C179.423357,27.5773939 174.118357,28.6954073 168.610357,30.8583821 M153.007357,26.4953771 C150.021357,26.4953771 146.540357,28.2825046 143.638357,29.7742479 C131.634357,35.9392026 121.784357,49.373362 120.880357,55.8389945 C123.301357,54.8617915 128.743357,50.9053368 133.621357,47.3586086 C141.579357,41.5716187 151.112357,34.6390885 160.672357,29.8038922 C158.968357,28.5037781 157.074357,27.5106942 154.944357,26.79182 C154.332357,26.5864274 153.682357,26.4953771 153.007357,26.4953771 M149.231357,77.6127294 C148.990357,77.6127294 148.745357,77.5661455 148.507357,77.4676841 C147.478357,77.0441942 146.967357,75.8181908 147.367357,74.7277043 C152.158357,61.6693922 158.934357,42.6494006 161.537357,34.1076086 C152.346357,38.8792815 143.126357,45.5841858 135.885357,50.8492244 C125.013357,58.7557815 121.115357,61.4121221 118.430357,59.9150851 C117.825357,59.5784106 116.812357,58.7187261 116.812357,56.7473804 C116.812357,47.88056 129.469357,32.3437731 141.892357,25.9628385 C146.089357,23.8083335 151.317357,21.124466 156.157357,22.7580784 C159.514357,23.8887966 162.349357,25.6028721 164.778357,27.8632496 C171.690357,24.8405902 178.502357,23.1603939 184.616357,24.0645449 C198.645357,26.130117 209.518357,35.3240835 211.925357,43.0178368 C213.117357,46.8292462 211.760357,49.0006908 210.845357,49.9546019 C208.410357,52.4955415 203.785357,52.5336556 197.098357,50.0710617 C185.604357,45.8393385 177.352357,41.4826858 171.876357,38.0937076 C175.994357,46.9287664 178.383357,58.9611741 180.898357,73.5842815 C181.095357,74.7351153 180.375357,75.8372479 179.288357,76.0479341 C178.210357,76.2543855 177.160357,75.4952798 176.962357,74.3433872 C173.659357,55.1296489 170.646357,42.5519979 165.461357,34.9524711 C162.111357,46.1696606 152.382357,72.7552999 151.096357,76.2617966 C150.788357,77.0992479 150.032357,77.6116707 149.231357,77.6127294" id="Fill-27" fill="#FFF"/></g></g></g></g><g id="Upper Body" transform="translate(272.000000, 187.000000) scale(1 1)"><g id="Upper Body/Taking Picture" stroke="none" stroke-width="1" fill="none" fill-rule="evenodd"><g id="Assets-118" transform="translate(358.000000, 272.000000)"><path d="M108.6837,257.4885 C107.5407,253.3525 104.4597,244.0725 102.9017,234.0435 C93.0027,170.2775 78.1357,9.1435 76.8757,2.1265 L2.1277,18.0955 C2.1277,18.0955 54.1197,228.7425 53.6627,251.1235 C53.0047,283.3315 63.9257,303.0305 66.2297,309.7875 C68.7737,317.2465 75.4677,321.9495 79.4857,318.9495 C79.6327,323.7095 85.9587,327.4005 88.7687,323.2185 C89.1457,326.0935 92.9987,326.5895 94.1987,326.5295 C99.3617,326.2695 102.2167,322.9615 105.3257,315.0405 C110.9087,300.8175 113.3997,274.5625 108.6837,257.4885" id="SKIN" fill="#FFF"/><path d="M110.7335,256.9221 C96.0655,200.7621 90.7545,103.1891 82.9585,39.7091 C80.7825,18.1051 79.3425,3.8331 78.9685,1.7511 C78.7605,0.5951 77.6545,-0.1739 76.4995,0.0331 C75.3435,0.2411 74.5745,1.3461 74.7825,2.5031 C75.1275,4.4231 76.6385,19.4031 78.7295,40.1351 C86.2465,102.4341 92.1205,200.0511 105.7875,255.1511 C107.4835,260.6941 108.5165,265.8021 108.7705,272.0441 C109.7875,276.2871 101.6995,306.0171 96.6405,292.7951 C95.4565,289.0781 95.0475,284.9001 94.6915,280.9451 C94.6115,279.9841 93.8805,279.1661 92.8845,279.0181 C85.4425,277.9991 79.7085,270.8161 78.5185,263.5541 C78.2615,261.8141 75.5305,262.2221 75.7715,263.9531 C76.6705,272.3151 82.3965,280.2981 90.6025,282.8561 C91.3965,288.3721 91.3185,294.9551 95.7045,299.1291 C101.1655,303.3121 106.4745,296.8281 108.2915,292.1301 C106.9435,302.5251 103.5395,324.2051 94.0925,324.4061 C93.3545,324.4451 91.0255,324.0701 90.8775,322.9431 C90.6865,321.0321 88.0195,320.4301 87.0045,322.0321 C86.6605,322.5441 86.0525,323.1801 84.7485,322.8041 C83.2845,322.3821 81.6695,320.7641 81.6105,318.8841 C81.6095,317.2051 79.5215,316.2141 78.2125,317.2461 C77.4965,317.7811 76.5785,317.8811 75.4875,317.5441 C71.2155,316.4171 68.4245,310.1701 66.4995,304.7131 C62.8465,295.9631 55.2455,277.7541 55.7885,251.1671 C54.2915,227.9511 8.9765,21.8901 1.6215,16.0291 C0.4775,16.3121 -0.2195,17.4641 0.0625,18.6051 C0.5815,20.7091 51.9825,229.2341 51.5365,251.0801 C50.9755,278.5641 58.8095,297.3321 62.5745,306.3521 C65.1995,313.9931 69.7155,322.8771 78.0085,321.8661 C79.4975,325.6171 84.3925,328.5101 88.1725,326.5411 C112.8465,341.1511 116.6995,272.8751 110.7335,256.9221" id="Fill-3" fill="#141414"/></g><g id="Assets-119" transform="translate(80.849931, 100.745627)"><path d="M1.99982786,118.915827 C5.08482786,121.926827 15.8698279,131.474827 15.8698279,131.474827 L87.6188279,181.220827 L75.4438279,301.470827 L314.339828,301.470827 L293.809828,187.803827 C293.809828,187.803827 322.978828,185.641827 364.884828,171.694827 C353.795828,106.746827 341.463828,32.6868271 263.012828,6.22982711 C231.248828,5.17282711 149.559828,0.577827113 117.150828,2.44082711 C102.098828,5.90982711 88.1978279,12.0458271 74.4148279,21.2688271 C37.4698279,45.9908271 14.8748279,90.4538271 1.99982786,118.915827 Z" id="t-shirt" fill="#f28749"/><path d="M283.608028,112.620327 C283.431028,111.529327 282.405028,110.789327 281.314028,110.964327 C280.223028,111.141327 279.483028,112.168327 279.658028,113.258327 L291.772028,188.079327 C291.792028,188.211327 291.828028,188.337327 291.874028,188.457327 L312.088028,299.470327 L76.8070279,299.470327 L89.5920279,181.551327 C89.7200279,180.787327 89.3950279,180.018327 88.7590279,179.577327 L17.1070279,129.898327 C16.1700279,129.068327 8.07802786,121.891327 4.40802786,118.449327 C18.0560279,88.4663271 40.1590279,46.5973271 75.5270279,22.9313271 C89.0450279,13.8853271 102.754028,7.83232711 117.435028,4.42832711 C142.029028,3.03732711 194.460028,5.32332711 232.767028,6.99232711 C244.705028,7.51232711 255.037028,7.96232711 262.652028,8.21832711 C339.040028,34.1473271 351.701028,106.357327 362.625028,170.335327 C328.010028,181.690327 302.200028,184.937327 295.429028,185.641327 L283.608028,112.620327 Z M366.718028,170.541327 C355.557028,105.163327 342.908028,31.0623271 263.652028,4.33432711 C263.467028,4.27232711 263.275028,4.23732711 263.079028,4.23032711 C255.459028,3.97732711 245.024028,3.52232711 232.941028,2.99632711 C194.460028,1.31932711 141.761028,-0.976672887 117.036028,0.444327113 C116.923028,0.451327113 116.811028,0.467327113 116.701028,0.492327113 C101.477028,4.00032711 87.2820279,10.2523271 73.3030279,19.6063271 C36.5740279,44.1833271 13.9780279,87.5843271 0.178027864,118.091327 C-0.168972136,118.858327 -0.000314875456,119.759327 0.603027864,120.347327 C3.68802786,123.357327 14.1020279,132.580327 14.5440279,132.971327 C14.6030279,133.024327 14.6650279,133.073327 14.7300279,133.118327 L85.4360279,182.141327 L72.4710279,301.139327 C72.3740279,301.719327 72.5370279,302.313327 72.9170279,302.762327 C73.2970279,303.211327 73.8550279,303.470327 74.4440279,303.470327 L314.340028,303.470327 C314.911028,303.470327 315.456028,303.226327 315.835028,302.798327 C316.215028,302.370327 316.394028,301.801327 316.326028,301.234327 L296.038028,189.599327 C303.472028,188.812327 330.150028,185.363327 365.518028,173.592327 C366.454028,173.281327 367.024028,172.331327 366.858028,171.358327 L366.718028,170.541327 Z" id="path-12" fill="#141414"/></g><g id="phone" transform="translate(199.702818, 140.581109)"><path d="M96.8056403,155.645746 L45.4076403,171.270746 C39.9186403,172.938746 34.1166403,169.841746 32.4476403,164.353746 L0.451640328,59.099746 C-1.21635967,53.611746 1.87964033,47.809746 7.36864033,46.140746 L58.7676403,30.516746 C64.2566403,28.847746 70.0576403,31.944746 71.7266403,37.433746 L103.72264,142.686746 C105.39164,148.174746 102.29464,153.976746 96.8056403,155.645746" id="path-13" fill="#141414"/><path d="M50.4482403,48.422046 C50.9832403,50.287046 49.9052403,52.232046 48.0392403,52.767046 C46.1752403,53.302046 44.2292403,52.223046 43.6942403,50.359046 C43.1592403,48.493046 44.2382403,46.548046 46.1032403,46.013046 C47.9682403,45.479046 49.9132403,46.557046 50.4482403,48.422046" id="path-14" fill="#FFF"/><path d="M63.1860403,44.769246 C63.7210403,46.634246 62.6430403,48.580246 60.7770403,49.114246 C58.9130403,49.649246 56.9670403,48.571246 56.4330403,46.706246 C55.8970403,44.841246 56.9760403,42.895246 58.8410403,42.361246 C60.7060403,41.826246 62.6510403,42.904246 63.1860403,44.769246" id="path-15" fill="#FFF"/><path d="M93.2260403,45.488446 L93.1560403,45.448446 L84.3630403,40.393446 L90.9140403,30.063446 C91.0190403,29.895446 91.1070403,29.702446 91.1600403,29.501446 C91.4410403,28.432446 90.8030403,27.339446 89.7340403,27.057446 L80.1310403,24.530446 L80.6630403,9.11144599 C80.6780403,8.67144599 80.5480403,8.22144599 80.2640403,7.84244599 C79.6010403,6.95844599 78.3470403,6.77944599 77.4630403,7.44244599 L67.4640403,14.941446 L58.6450403,0.934445988 C58.3590403,0.483445988 57.8890403,0.141445988 57.3220403,0.0344459884 C56.2360403,-0.168554012 55.1910403,0.546445988 54.9870403,1.63244599 L51.8960403,18.118446 L37.6610403,13.119446 L37.5610403,13.084446 C37.1920403,12.954446 36.7800403,12.933446 36.3760403,13.050446 C35.3450403,13.349446 34.7510403,14.427446 35.0500403,15.458446 L38.6220403,27.792446 C38.8080403,28.425446 39.4450403,28.836446 40.1090403,28.718446 C40.8230403,28.593446 41.2990403,27.913446 41.1740403,27.200446 L39.5580403,18.024446 L52.7690403,22.664446 C52.8610403,22.695446 52.9660403,22.724446 53.0630403,22.742446 C54.1490403,22.946446 55.1940403,22.231446 55.3980403,21.145446 L57.9780403,7.38344599 L65.2360403,18.908446 C65.2640403,18.953446 65.2960403,19.000446 65.3280403,19.043446 C65.9910403,19.926446 67.2450403,20.106446 68.1280403,19.443446 L76.5210403,13.149446 L76.0780403,25.989446 C76.0460403,26.902446 76.6470403,27.750446 77.5680403,27.992446 L86.0720403,30.230446 L79.8670403,40.015446 C79.8530403,40.037446 79.8350403,40.066446 79.8220403,40.089446 C79.2710403,41.047446 79.6010403,42.269446 80.5590403,42.820446 L88.8650403,47.595446 L81.2470403,54.992446 C80.7120403,55.515446 80.6530403,56.374446 81.1380403,56.962446 C81.6490403,57.583446 82.5660403,57.671446 83.1870403,57.160446 L93.4930403,48.673446 C93.6660403,48.529446 93.8230403,48.348446 93.9420403,48.141446 C94.4770403,47.211446 94.1560403,46.023446 93.2260403,45.488446" id="path-16" fill="#FFF"/></g><g id="hand" transform="translate(52.000000, 215.619637)"><path d="M222.141258,34.8669176 C220.608258,32.1719176 216.877258,31.2559176 214.745258,33.5069176 C214.745258,33.5069176 217.681258,30.6139176 219.297258,27.7429176 C220.827258,25.0259176 220.733258,21.8329176 219.064258,20.0349176 C216.490258,17.2629176 213.221258,18.0489176 210.738258,20.5679176 L213.200258,17.5879176 C215.720258,14.8309176 216.274258,11.0369176 213.599258,7.88491758 C211.608258,5.53791758 206.520258,5.91291758 203.550258,8.52991758 C202.480258,9.47191758 199.307258,12.3639176 199.307258,12.3639176 C201.414258,9.93591758 200.694258,5.50891758 198.245258,3.42591758 L198.245258,3.42591758 C196.002258,1.51891758 192.647258,1.57291758 190.538258,3.62791758 C180.814258,13.1029176 168.768258,23.0239176 161.130258,29.0399176 C161.130258,29.0399176 158.431258,17.8929176 156.974258,14.4949176 C155.618258,11.3289176 149.126258,7.97691758 147.509258,13.3409176 C145.315258,20.6129176 144.066258,32.5289176 142.892258,41.5629176 C130.393258,51.2849176 123.710258,56.3919176 110.871258,62.5469176 C98.2922584,54.1499176 36.5242584,9.24591758 36.5242584,9.24591758 C31.0802584,18.6089176 -28.6997416,132.547918 22.5292584,150.290918 C69.7932584,166.660918 125.025258,137.876918 171.611258,96.8629176 C199.569258,72.2499176 212.943258,53.6259176 218.517258,46.7409176 C220.528258,44.2569176 224.289258,38.6449176 222.141258,34.8669176" id="SKIN" fill="#FFF"/><path d="M220.602658,40.4011176 C219.901658,42.1541176 218.823658,43.8611176 217.608658,45.4271176 C214.984658,48.6981176 212.433658,52.0521176 209.770658,55.2701176 C204.465658,61.7421176 198.889658,67.9821176 193.084658,74.0071176 C187.284658,80.0371176 181.232658,85.8251176 175.017658,91.4301176 C168.798658,97.0351176 162.435658,102.477118 155.871658,107.662118 C142.751658,118.026118 128.878658,127.478118 114.118658,135.248118 C99.3806584,142.981118 83.6696584,149.094118 67.3076584,151.734118 C59.1446584,153.058118 50.8386584,153.443118 42.6416584,152.685118 C38.5436584,152.299118 34.4766584,151.633118 30.4866584,150.650118 C28.4896584,150.167118 26.5126584,149.603118 24.5616584,148.961118 C22.5706584,148.340118 20.7886584,147.630118 19.0246584,146.712118 C15.5416584,144.883118 12.5196584,142.291118 10.2426584,139.101118 C7.94765837,135.922118 6.39465837,132.199118 5.40865837,128.308118 C3.45465837,120.482118 3.58465837,112.117118 4.50265837,103.929118 C5.44765837,95.7131176 7.25565837,87.5651176 9.47965837,79.5381176 C11.7166584,71.5081176 14.3996584,63.5881176 17.3636584,55.7731176 C20.3316584,47.9591176 23.5866584,40.2451176 27.0656584,32.6341176 C28.8066584,28.8311176 30.6036584,25.0511176 32.4626584,21.3051176 C33.9886584,18.2461176 35.5576584,15.1651176 37.1816584,12.1911176 L72.4106584,37.6851176 L90.9976584,51.0261176 C96.2946584,54.7961176 101.567658,58.5641176 106.944658,62.2731176 C104.217658,63.5351176 101.368658,64.7111176 98.5516584,65.8701176 C94.5776584,67.4801176 90.5706584,69.0351176 86.5556584,70.5711176 C78.5196584,73.6281176 70.4366584,76.6021176 62.3386584,79.4981176 C61.5976584,79.7631176 61.1956584,80.5761176 61.4456584,81.3261176 C61.6996584,82.0861176 62.5216584,82.4971176 63.2816584,82.2431176 C71.4686584,79.5101176 79.6186584,76.7061176 87.7506584,73.8091176 C91.8146584,72.3521176 95.8726584,70.8771176 99.9166584,69.3371176 C103.967658,67.7631176 107.972658,66.2401176 112.027658,64.2441176 C112.037658,64.2391176 112.056658,64.2301176 112.065658,64.2251176 C112.156658,64.1771176 112.236658,64.1191176 112.316658,64.0601176 C117.947658,61.3431176 123.469658,58.2541176 128.644658,54.6961176 C134.010658,51.0331176 139.063658,47.0611176 144.120658,43.1421176 C144.519658,42.8311176 144.806658,42.3631176 144.875658,41.8211176 C145.473658,37.1611176 146.054658,32.5311176 146.728658,27.9361176 C147.419658,23.3571176 148.161658,18.7571176 149.388658,14.4621176 C149.555658,13.8511176 149.659658,13.5771176 149.817658,13.2971176 C149.970658,13.0351176 150.122658,12.8971176 150.262658,12.7941176 C150.412658,12.7051176 150.602658,12.6361176 150.890658,12.6171176 C151.178658,12.6041176 151.543658,12.6581176 151.923658,12.7741176 C152.689658,13.0051176 153.510658,13.4871176 154.150658,14.0731176 C154.470658,14.3641176 154.750658,14.6831176 154.943658,14.9821176 C154.980658,15.0541176 155.039658,15.1301176 155.064658,15.1951176 L155.117658,15.2971176 L155.189658,15.4731176 C155.285658,15.7101176 155.384658,15.9391176 155.477658,16.2051176 C156.229658,18.2731176 156.836658,20.5441176 157.448658,22.7671176 C158.050658,25.0041176 158.628658,27.2651176 159.176658,29.5121176 C159.243658,29.7811176 159.369658,30.0541176 159.552658,30.2851176 C160.239658,31.1571176 161.502658,31.3061176 162.373658,30.6191176 C169.895658,24.6871176 177.252658,18.5641176 184.392658,12.1541176 C186.171658,10.5451176 187.941658,8.92411758 189.685658,7.27011758 L190.989658,6.02411758 L191.640658,5.39911758 L191.964658,5.08811758 L192.178658,4.90111758 C192.761658,4.42611758 193.491658,4.12611758 194.265658,4.09411758 C195.034658,4.04911758 195.822658,4.24811758 196.471658,4.66511758 C196.805658,4.87211758 197.089658,5.11311758 197.335658,5.41911758 C197.593658,5.71311758 197.816658,6.07211758 197.991658,6.46311758 C198.740658,8.01111758 198.646658,10.0801176 197.763658,11.0241176 C197.659658,11.1351176 197.575658,11.2571176 197.500658,11.3851176 C196.623658,12.3791176 195.685658,13.3721176 194.737658,14.3531176 C193.686658,15.4391176 192.617658,16.5171176 191.538658,17.5891176 C189.383658,19.7321176 187.191658,21.8581176 184.991658,23.9561176 L184.983658,23.9641176 C184.424658,24.4991176 184.373658,25.3831176 184.880658,25.9811176 C185.407658,26.6011176 186.337658,26.6761176 186.957658,26.1501176 C189.299658,24.1611176 191.614658,22.1601176 193.915658,20.1221176 C195.065658,19.1031176 196.209658,18.0751176 197.346658,17.0281176 C198.383658,16.0701176 199.411658,15.1021176 200.434658,14.0701176 C200.497658,14.0241176 200.563658,13.9841176 200.622658,13.9301176 L200.683658,13.8761176 L203.565658,11.2661176 L204.981658,9.99111758 C205.346658,9.67911758 205.764658,9.40411758 206.215658,9.17511758 C207.115658,8.71311758 208.151658,8.43111758 209.151658,8.37311758 C210.144658,8.30611758 211.124658,8.50511758 211.678658,8.88011758 C211.820658,8.97011758 211.932658,9.06811758 212.020658,9.17011758 C212.133658,9.30811758 212.323658,9.54311758 212.451658,9.73011758 C212.727658,10.1311176 212.931658,10.5521176 213.091658,10.9801176 C213.381658,11.8411176 213.409658,12.7461176 213.170658,13.6491176 C212.911658,14.5661176 212.450658,15.3931176 211.698658,16.2311176 L209.180658,19.2811176 C209.143658,19.3271176 209.116658,19.3781176 209.083658,19.4251176 C206.456658,22.2291176 203.665658,24.9961176 200.897658,27.7461176 L192.255658,36.1951176 L192.238658,36.2121176 C191.644658,36.7951176 191.611658,37.7491176 192.177658,38.3711176 C192.755658,39.0071176 193.740658,39.0541176 194.377658,38.4761176 L203.353658,30.3201176 C206.292658,27.6041176 209.218658,24.9151176 212.102658,22.0471176 C212.123658,22.0281176 212.148658,22.0131176 212.169658,21.9921176 L212.176658,21.9861176 C212.770658,21.3881176 213.432658,20.9031176 214.087658,20.6061176 C214.748658,20.3261176 215.363658,20.2381176 215.912658,20.3631176 C216.464658,20.4701176 217.013658,20.8221176 217.539658,21.3571176 C217.943658,21.7761176 218.212658,22.3431176 218.317658,23.0591176 C218.430658,23.7591176 218.365658,24.5541176 218.146658,25.3141176 C217.935658,26.0921176 217.578658,26.7631176 217.047658,27.5811176 C216.048658,29.1071176 214.744658,30.6381176 213.437658,31.9791176 C213.402658,32.0131176 213.362658,32.0401176 213.329658,32.0771176 L213.315658,32.0921176 L202.756658,43.6871176 L202.748658,43.6961176 C202.190658,44.3101176 202.204658,45.2601176 202.793658,45.8581176 C203.403658,46.4771176 204.400658,46.4851176 205.019658,45.8751176 L216.029658,35.0301176 C216.068658,34.9961176 216.111658,34.9681176 216.148658,34.9311176 C216.165658,34.9151176 216.180658,34.8971176 216.196658,34.8801176 L216.197658,34.8811176 C216.462658,34.5961176 216.753658,34.4021176 217.106658,34.2541176 C217.458658,34.1121176 217.892658,34.0281176 218.359658,34.0761176 C218.824658,34.1201176 219.315658,34.2701176 219.753658,34.5331176 C220.189658,34.7991176 220.553658,35.1801176 220.815658,35.6201176 C221.537658,36.8261176 221.303658,38.6601176 220.602658,40.4011176 M223.466658,34.1131176 C223.006658,33.2921176 222.383658,32.5681176 221.652658,31.9711176 C221.069658,31.4891176 220.401658,31.0931176 219.670658,30.8151176 C219.918658,30.4721176 220.167658,30.1301176 220.407658,29.7691176 C221.021658,28.8411176 221.676658,27.6541176 222.010658,26.4071176 C222.364658,25.1621176 222.499658,23.8231176 222.292658,22.4571176 C222.104658,21.1071176 221.501658,19.6661176 220.448658,18.5761176 C219.531658,17.6201176 218.272658,16.7371176 216.763658,16.4241176 C216.654658,16.3991176 216.544658,16.3851176 216.435658,16.3671176 C216.696658,15.8341176 216.928658,15.2811176 217.083658,14.7021176 C217.294658,13.8901176 217.401658,13.0411176 217.387658,12.1831176 C217.355658,11.3261176 217.196658,10.4761176 216.932658,9.66811758 C216.645658,8.87011758 216.268658,8.11611758 215.806658,7.44111758 C215.564658,7.09311758 215.348658,6.81511758 215.043658,6.45511758 C214.700658,6.06911758 214.309658,5.74311758 213.902658,5.48011758 C212.248658,4.42711758 210.511658,4.23511758 208.922658,4.30911758 C207.319658,4.40511758 205.787658,4.82311758 204.363658,5.54411758 C203.672658,5.89511758 203.010658,6.32611758 202.396658,6.83911758 C202.250658,6.11911758 202.024658,5.41611758 201.710658,4.74211758 C201.099658,3.37311758 200.019658,2.03611758 198.642658,1.19411758 C197.277658,0.332117583 195.644658,-0.0808824167 194.035658,0.0131175833 C192.423658,0.0891175833 190.829658,0.719117583 189.573658,1.75711758 L189.117658,2.16311758 L188.797658,2.47111758 L188.160658,3.08711758 L186.880658,4.31211758 C185.168658,5.94211758 183.424658,7.54411758 181.669658,9.13511758 C175.398658,14.7851176 168.914658,20.2281176 162.313658,25.5131176 C161.411658,21.9681176 160.469658,18.4541176 159.261658,14.8411176 C159.167658,14.5531176 159.044658,14.2411176 158.925658,13.9341176 L158.836658,13.7041176 L158.700658,13.4091176 C158.609658,13.2061176 158.502658,13.0381176 158.400658,12.8531176 C157.974658,12.1581176 157.479658,11.5881176 156.948658,11.0791176 C155.878658,10.0741176 154.661658,9.29711758 153.200658,8.80411758 C152.468658,8.56511758 151.668658,8.40011758 150.785658,8.41311758 C149.905658,8.42911758 148.928658,8.65411758 148.069658,9.16311758 C146.312658,10.1841176 145.592658,12.1691176 145.325658,13.2921176 C144.026658,18.0101176 143.328658,22.6831176 142.664658,27.3551176 C142.050658,31.7501176 141.566658,36.1381176 141.009658,40.4931176 C136.178658,44.2411176 131.372658,47.9921176 126.394658,51.3891176 C121.516658,54.7421176 116.372658,57.6301176 111.034658,60.2311176 C105.107658,56.1811176 99.2076584,51.9601176 93.3216584,47.7701176 L74.7486584,34.4401176 L37.6996584,7.62911758 L37.6766584,7.61111758 C37.6176584,7.56911758 37.5566584,7.53011758 37.4926584,7.49411758 C36.5406584,6.95511758 35.3326584,7.29011758 34.7946584,8.24111758 C32.6646584,12.0051176 30.7816584,15.7391176 28.8906584,19.5361176 C27.0166584,23.3241176 25.2066584,27.1421176 23.4546584,30.9851176 C19.9506584,38.6731176 16.6726584,46.4671176 13.6806584,54.3791176 C10.6916584,62.2901176 7.98165837,70.3181176 5.71665837,78.4941176 C3.46265837,86.6691176 1.62165837,94.9941176 0.653658367,103.492118 C0.175658367,107.740118 -0.084341633,112.030118 0.024658367,116.345118 C0.133658367,120.655118 0.597658367,125.001118 1.68565837,129.257118 C2.76765837,133.503118 4.49765837,137.685118 7.13665837,141.336118 C9.74965837,144.994118 13.2846584,148.014118 17.2516584,150.084118 C19.2166584,151.113118 21.3596584,151.950118 23.3836584,152.576118 C25.4276584,153.246118 27.4976584,153.833118 29.5876584,154.336118 C33.7646584,155.359118 38.0176584,156.049118 42.2916584,156.447118 C50.8466584,157.227118 59.4736584,156.809118 67.9026584,155.432118 C84.8026584,152.680118 100.849658,146.388118 115.833658,138.505118 C130.838658,130.581118 144.869658,120.989118 158.116658,110.498118 C171.363658,99.9921176 183.847658,88.5621176 195.489658,76.3061176 C201.299658,70.1701176 206.877658,63.8061176 212.172658,57.2211176 L220.018658,47.3061176 C221.371658,45.5521176 222.575658,43.6771176 223.440658,41.5221176 C223.862658,40.4421176 224.199658,39.2831176 224.288658,38.0121176 C224.382658,36.7551176 224.168658,35.3341176 223.466658,34.1131176" id="path-18" fill="#141414"/></g><g id="neck" transform="translate(193.998901, 32.000000)"><path d="M47.0631576,2.00005457 C47.0631576,2.00005457 46.9761576,37.3560546 46.9761576,55.2630546 C46.9761576,68.4400546 21.8221576,65.8100546 2.00115756,71.1870546 C13.4831576,91.0750546 36.6181576,109.046055 75.0061576,109.049055 L75.0241576,109.049055 C113.412158,109.046055 136.389158,94.8650546 147.870158,74.9770546 C127.734158,67.2620546 103.054158,68.4400546 103.054158,55.2630546 C103.054158,37.3560546 102.967158,2.00005457 102.967158,2.00005457 L47.0631576,2.00005457 Z" id="SKIN" fill="#FFF"/><path d="M102.962236,5.94038644e-06 C104.016595,-0.00253382171 104.882403,0.811215957 104.961299,1.84588482 L104.984144,9.30750834 L105.054059,54.188328 L105.054158,55.2630546 C105.054158,60.7775612 109.989389,63.4269412 124.345836,66.663439 L131.642077,68.2778746 L132.962437,68.5783545 C135.104209,69.070838 136.966483,69.5257005 138.768981,70.0023477 C142.38663,70.9589879 145.59949,71.9652858 148.585722,73.1094446 C149.734131,73.5494511 150.217113,74.9118836 149.602259,75.9769669 C136.807105,98.1414142 111.997961,110.791615 76.1149114,111.045169 L75.0060013,111.049055 C39.806948,111.046304 14.0769811,96.1037071 0.269093851,72.1870322 C-0.387127921,71.0503889 0.210835891,69.6004439 1.47752711,69.2568185 C4.51306824,68.4333432 7.78821271,67.7557439 11.5915493,67.1308742 L12.4147397,66.9977466 C13.7864262,66.779348 15.2116383,66.5686066 16.8404188,66.3408731 L23.8999695,65.3827373 C39.8005892,63.1561993 44.9761576,60.9250682 44.9761576,55.2630546 L45.0228577,20.2999861 L45.0631636,1.99513321 C45.0658816,0.890567056 45.9635128,-0.00265736671 47.0680789,5.94038644e-06 C48.1726451,0.00277861335 49.0658695,0.900409769 49.0631515,2.00497592 L48.9770373,51.8997263 L48.9761576,55.2630546 C48.9761576,60.1930271 46.1211,63.5628508 40.8644095,65.7475061 L40.5181815,65.8883072 C36.7805489,67.3756529 32.6451377,68.2129061 24.5469041,69.3328763 L18.0084385,70.2169967 L16.2276202,70.467628 C15.0927503,70.6306945 14.0521903,70.7874174 13.0436937,70.9479893 C10.3587036,71.3754909 7.95519467,71.823693 5.73347856,72.3239484 L5.10705756,72.4673546 L5.35885127,72.8677788 C18.6564501,93.7610482 42.0961094,106.773449 73.9959828,107.044729 L75.0240013,107.049055 C108.738908,107.04642 132.051117,95.9862331 144.622588,76.4616172 L144.899058,76.0243546 L144.228286,75.7946426 C142.467392,75.2026444 140.605817,74.6434689 138.610033,74.1009574 L137.746383,73.8694256 L136.682216,73.5924326 C135.068941,73.179047 133.367433,72.7719988 131.42077,72.3290329 L123.968066,70.6780583 C116.161944,68.9367991 111.86885,67.6773898 108.322838,65.8183036 C103.591559,63.3378117 101.054158,59.9296416 101.054158,55.2630546 L101.004225,18.7027551 L100.967164,2.00497592 C100.964446,0.900409769 101.85767,0.00277861335 102.962236,5.94038644e-06 Z" id="path-20" fill="#141414"/></g></g></g><g id="Head" transform="translate(439.000000, 92.000000) scale(1 1)"><g id="Head/Bun 2" stroke="none" stroke-width="1" fill="none" fill-rule="evenodd"><g id="Bun" transform="translate(-56.000238, 12.999361)"><path d="M209.098138,87.1828391 C208.428138,39.1038391 160.201138,35.2328391 137.508138,40.4338391 C118.860138,44.7068391 98.5261384,60.7808391 100.658138,92.0878391 C89.4581384,91.0938391 83.5781384,96.4078391 83.5781384,103.953839 C83.5781384,111.501839 85.3891384,118.801839 99.2601384,118.801839 C100.604138,141.796839 115.337138,183.248839 172.798138,175.860839 C202.108138,172.092839 209.645138,126.452839 209.098138,87.1828391" id="SKIN" fill="#FFF"/><path d="M145.936738,10.6831391 C159.669738,-1.45286089 169.795738,-2.36786089 187.894738,3.53413911 C224.249738,15.3891391 224.041738,42.9641391 216.028738,72.5691391 C212.010738,87.4201391 233.544738,112.098139 207.616738,135.669139 C207.229738,136.020139 206.829738,136.403139 206.417738,136.807139 C201.552738,157.206139 191.888738,175.422139 173.053738,177.844139 C168.439738,178.437139 164.008738,178.734139 159.763738,178.734139 C143.378738,178.734139 129.773738,174.321139 119.200738,165.554139 C117.025738,163.752139 115.066738,161.834139 113.301738,159.840139 C103.888738,156.691139 95.6607384,150.784139 90.0297384,140.396139 C86.1807384,133.295139 82.9897384,131.664139 79.9767384,130.268139 C70.0997384,138.321139 76.2247384,161.444139 58.0097384,171.031139 C51.7347384,174.334139 33.3657384,175.750139 31.7927384,157.252139 C24.0917384,163.099139 15.4927384,160.594139 7.9727384,154.515139 C0.4527384,148.435139 -2.1712616,137.035139 1.9337384,128.280139 C6.0387384,119.525139 16.4797384,114.251139 25.9627384,116.143139 C21.7977384,110.053139 23.5617384,101.018139 29.0947384,96.1361391 C34.6267384,91.2551391 43.0227384,90.3841391 49.9217384,93.0011391 C55.0527384,94.9471391 62.3697384,96.6901391 67.2007384,100.139139 C68.9227384,89.7041391 74.2207384,79.9451391 74.7017384,70.8041391 C74.7537384,69.8201391 74.8877384,68.8811391 75.0567384,67.9601391 C75.7197384,56.9451391 77.0217384,39.1971391 88.4397384,24.0471391 C104.600738,2.60213911 132.449738,6.35613911 145.936738,10.6831391 Z M156.767738,40.7411391 C153.629738,71.9111391 116.005738,95.0761391 100.481738,94.1351391 C99.2357384,94.1591391 98.0407384,94.1001391 96.8717384,94.0041391 C93.2827384,94.1821391 90.3967384,95.1881391 88.4267384,96.9901391 C86.5627384,98.6961391 85.5777384,101.104139 85.5777384,103.954139 C85.5777384,110.455139 86.6347384,116.801139 99.2597384,116.801139 C100.318738,116.801139 101.194738,117.627139 101.256738,118.685139 C101.642738,125.291139 104.261738,147.972139 121.753738,162.475139 C134.178738,172.776139 151.265738,176.613139 172.543738,173.877139 C185.023738,172.273139 194.342738,162.293139 200.242738,144.214139 C206.305738,125.636139 207.317738,102.961139 207.097738,87.2111391 C206.883738,71.7601391 201.600738,59.8631391 191.398738,51.8501391 C181.949738,44.4281391 168.949738,41.1801391 156.767738,40.7411391 Z M95.6050384,101.246339 C100.484038,100.763339 99.3340384,104.554339 97.2310384,105.830339 C96.0990384,106.517339 94.2140384,105.490339 93.9190384,104.900339 C93.0760384,103.213339 94.6040384,101.345339 95.6050384,101.246339 Z" id="ink" fill="#141414"/><path d="M80.5957384,130.443639 C73.7287384,128.539639 69.2717384,121.119639 67.5857384,113.414639 C65.8217384,107.707639 66.7427384,102.256639 67.7387384,97.6516391 C51.6537384,88.5696391 56.7025676,121.019639 60.9287384,127.969639 C63.5717384,138.553639 82.7217384,146.610639 80.5957384,130.443639" id="band" fill="#f28749"/></g></g></g><g id="Face" transform="translate(499.000000, 178.000000) scale(1 1)"><g id="Face/Love Face" stroke="none" stroke-width="1" fill="none" fill-rule="evenodd"><g id="Love-Face" transform="translate(6.000576, 9.999600)"><path d="M59.9193239,51.6179 C61.3413239,51.3349 62.6423239,51.8349 63.4013239,52.9499 C66.4813239,60.0089 56.7223239,71.5089 42.7043239,71.4439 C33.3903239,71.9309 22.7823239,65.9679 22.3023239,59.5469 C21.8643239,56.7729 22.9723239,54.3289 25.1913239,53.1689 C25.7223239,52.8899 25.8973239,52.9009 27.5093239,53.0209 C30.2833239,53.2229 36.7893239,53.6999 43.1823239,53.4719 C51.7173239,53.1719 59.8413239,51.6319 59.9193239,51.6179 Z M54.8443239,63.5239 C51.5413239,57.7579 32.7853239,58.1429 31.6493239,65.0079 C33.3223239,65.8839 35.3743239,66.5999 37.8283239,67.0159 C46.2453239,68.4379 51.6973239,65.9419 54.8443239,63.5239 Z M42.9670239,18.803 C43.5349785,23.3705 43.6245756,28.3225083 45.0579222,32.66839 L45.146,32.924 L45.2464925,32.9614984 C55.7970235,36.968642 53.1549239,48.70326 41.2920239,46.805 C37.4420239,46.277 37.7240239,42.34 41.7290239,43.508 L42.075352,43.5087493 C43.8929887,43.5153008 46.9252739,43.5216875 47.7840239,41.627 C48.0690239,40.615 47.9570239,39.485 47.0770239,38.733 C46.0470239,37.648 43.6300239,36.85 42.2270239,35.622 C39.8290239,30.431 40.4680239,24.49 40.1500239,18.92 C40.1090239,17.16 42.8660239,17.038 42.9670239,18.803 Z M21.9464239,3.6324 C22.2004239,5.2704 21.0774239,6.8044 19.4394239,7.0584 C14.7024239,7.5034 10.2734239,8.1034 6.3864239,10.6814 C5.1604239,11.5064 4.0084239,12.4654 2.7794239,13.4594 C1.4244239,14.6324 -0.655576095,12.9114 0.200423905,11.3704 C3.6574239,4.8554 11.7614239,2.0574 18.5144239,1.1264 C20.1544239,0.8684 21.6924239,1.9914 21.9464239,3.6324 Z M55.2809239,-6.03961325e-14 C62.4779239,0.558 71.3929239,2.833 74.1939239,10.364 C75.0619239,12.413 72.0269239,13.99 70.8439239,12.135 C68.3269239,8.323 64.6419239,6.478 60.2139239,6.304 C57.4659239,5.915 52.6459239,7.416 52.3109239,3.294 C52.2219239,1.565 53.5509239,0.09 55.2809239,-6.03961325e-14 Z" id="face" fill="#141414"/><path d="M26.3371511,14.5447616 C34.1014155,19.0807561 23.6535471,34.4345474 22.173705,35.3753942 C20.6938629,36.3136527 6.68835461,30.3812708 6.19638235,23.1029732 C5.75413069,16.5623409 13.7512968,14.9537129 16.2491028,16.6982266 C16.2491028,16.6982266 20.6454507,11.218797 26.3371511,14.5447616 Z M58.4191209,12.4883841 C58.4191209,12.4883841 63.6347778,9.37758444 67.1420259,14.6278323 C71.9250814,21.7873737 58.6989675,31.253411 57.0467726,31.4699543 C55.3957997,31.6864977 45.0219217,21.4248183 47.5833127,14.8468504 C49.8856317,8.93707342 56.996669,9.93564755 58.4191209,12.4883841 Z" id="love" fill="#f28749"/></g></g></g><g id="Accessories" transform="translate(491.000000, 176.000000) scale(1 1)" fill="#000"><g id="Accessories/None" stroke="none" stroke-width="1" fill="none" fill-rule="evenodd" fill-opacity="0"/></g><g id="Facial Hair" transform="translate(501.000000, 234.000000) scale(1 1)" fill="#000"><g id="Facial Hair/None" stroke="none" stroke-width="1" fill="none" fill-rule="evenodd" fill-opacity="0"/></g></g></g><g transform="translate(1131.630233, 270.000154) scale(1 1)" id="Master/Character/Sitting on Floor"><g id="Master/Character/Sitting on Floor" stroke="none" stroke-width="1" fill="none" fill-rule="evenodd"><g id="Upper Body" transform="translate(190.000000, 768.000000) scale(1 1)"><g id="Upper Body/Recording" stroke="none" stroke-width="1" fill="none" fill-rule="evenodd"><g id="Hand-2" transform="translate(334.325472, 33.999749)"><path d="M117.199828,68.3485505 C111.003828,88.6455505 83.7948283,159.860551 64.9808283,166.614551 L2.12682832,216.647551 C11.8598283,237.736551 46.9668283,263.700551 65.3208283,263.700551 C83.6738283,263.700551 142.723828,249.969551 167.194828,90.1415505 C172.639828,66.1495505 163.312828,35.0495505 157.193828,41.5085505 C143.952828,55.4835505 117.199828,68.3485505 117.199828,68.3485505" id="SKIN" fill="#FFF"/><path d="M4.78622832,217.247951 C15.0222283,237.127951 48.1312283,261.572951 65.3202283,261.572951 C87.5252283,261.572951 105.607228,243.318951 112.350228,235.470951 C136.930228,206.863951 154.675228,157.859951 165.093228,89.8199505 C165.100228,89.7699505 165.110228,89.7199505 165.121228,89.6709505 C169.054228,72.3419505 165.015228,51.3109505 160.508228,44.4459505 C159.633228,43.1139505 159.069228,42.8309505 158.936228,42.7799505 C158.923228,42.8009505 158.847228,42.8549505 158.737228,42.9709505 C146.547228,55.8379505 123.696228,67.5109505 118.958228,69.8559505 C113.893228,85.9099505 86.7652283,160.330951 66.0432283,168.485951 L4.78622832,217.247951 Z M65.3202283,265.826951 C46.1032283,265.826951 10.1932283,239.199951 0.196228322,217.538951 C-0.214771678,216.648951 0.0352283219,215.593951 0.802228322,214.982951 L63.6562283,164.949951 C63.8382283,164.805951 64.0432283,164.690951 64.2622283,164.611951 C81.0912283,158.570951 107.495228,92.8559505 115.165228,67.7269505 C115.339228,67.1599505 115.743228,66.6899505 116.278228,66.4319505 C116.542228,66.3049505 142.836228,53.5709505 155.649228,40.0459505 C157.167228,38.4439505 159.178228,38.0799505 161.028228,39.0679505 C168.364228,42.9879505 173.862228,70.2469505 169.286228,90.5379505 C144.366228,253.197951 83.4112283,265.826951 65.3202283,265.826951 L65.3202283,265.826951 Z" id="Fill-3" fill="#141414"/><g id="Phone" transform="translate(103.766855, 0.000000)"><path d="M70.6145728,96.7049505 L36.6615728,107.624951 C32.3545728,109.009951 27.7395728,106.641951 26.3535728,102.333951 L0.395572831,21.6229505 C-0.989427169,17.3159505 1.37857283,12.7009505 5.68557283,11.3159505 L39.6385728,0.395950514 C43.9465728,-0.990049486 48.5615728,1.37895051 49.9465728,5.68595051 L75.9055728,86.3969505 C77.2905728,90.7049505 74.9225728,95.3189505 70.6145728,96.7049505" id="Fill-5" fill="#141414"/><circle id="Oval" fill="#13D6C3" cx="41.198" cy="13.75" r="3.75"/></g><g id="palm" transform="translate(105.777996, 31.420044)"><path d="M68.3046321,39.9841069 C63.9716321,39.0771069 57.9656321,42.1321069 58.2286321,46.7351069 C58.4296321,50.2611069 62.8636321,53.1331069 69.1106321,49.8591069 C73.6946321,47.4561069 72.2346321,40.8071069 68.3046321,39.9841069" id="SKIN" fill="#FFF"/><path d="M60.9569321,10.3816069 C62.4729321,4.18360693 57.4569321,-0.0263930727 50.4469321,3.26460693 C48.4689321,4.19360693 45.4559321,6.37960693 45.3259321,9.84960693 C44.9929321,18.6956069 59.8799321,14.7826069 60.9569321,10.3816069" id="SKIN" fill="#FFF"/><path d="M67.5267321,38.2278069 C71.9757321,35.3548069 70.0827321,27.0788069 64.7747321,26.2958069 C63.5497321,26.1148069 62.2827321,26.1898069 61.0447321,26.4638069 C63.1197321,25.4558069 64.6147321,24.1428069 65.2007321,22.8638069 C67.6787321,17.4528069 62.5157321,9.80480693 51.0247321,16.5708069 C44.7557321,20.2618069 47.1987321,28.0108069 52.3477321,28.2068069 C54.3387321,28.2818069 56.2247321,28.0488069 57.9147321,27.6108069 C53.8297321,29.7368069 50.9667321,33.9138069 52.7627321,37.7108069 C54.7737321,41.9618069 60.9517321,42.4738069 67.5267321,38.2278069" id="SKIN" fill="#FFF"/><path d="M68.1234321,47.9749069 C65.6164321,49.2889069 63.2824321,49.5349069 61.7184321,48.6489069 C60.8974321,48.1839069 60.3984321,47.4419069 60.3514321,46.6139069 C60.2774321,45.3179069 61.0884321,44.3339069 61.7824321,43.7369069 C63.0754321,42.6249069 65.0004321,41.9519069 66.7124321,41.9519069 C67.1134321,41.9519069 67.5024321,41.9889069 67.8694321,42.0659069 C68.8204321,42.2649069 69.6114321,43.3109069 69.7924321,44.6099069 C69.8894321,45.3079069 69.9214321,47.0329069 68.1234321,47.9749069 M54.6854321,36.8019069 C53.8724321,35.0809069 54.6624321,33.4239069 55.4674321,32.3369069 C56.3004321,31.2129069 57.4604321,30.2749069 58.7484321,29.5819069 C59.7814321,29.2959069 60.7474321,28.9389069 61.6364321,28.5269069 C62.2314321,28.4049069 62.8264321,28.3239069 63.4074321,28.3239069 C63.7664321,28.3239069 64.1204321,28.3489069 64.4644321,28.3999069 C66.3724321,28.6809069 67.4284321,30.5299069 67.7524321,32.0269069 C68.0614321,33.4529069 67.8854321,35.4639069 66.3724321,36.4409069 C63.0084321,38.6139069 59.5584321,39.4979069 57.1524321,38.8129069 C55.9894321,38.4809069 55.1594321,37.8049069 54.6854321,36.8019069 M49.5404321,23.5099069 C49.3544321,22.7749069 48.9914321,20.2349069 52.1034321,18.4029069 C54.7614321,16.8379069 57.2094321,16.0389069 59.1804321,16.0389069 C60.5044321,16.0389069 61.6134321,16.3999069 62.4244321,17.1319069 C63.7004321,18.2839069 64.0474321,20.2759069 63.2674321,21.9779069 C62.9324321,22.7099069 61.8524321,23.6789069 60.2194321,24.4939069 C59.2024321,24.7489069 58.1994321,25.1149069 57.2424321,25.5829069 C55.8194321,25.9409069 54.2004321,26.1469069 52.4284321,26.0809069 C50.7594321,26.0179069 49.8294321,24.6569069 49.5404321,23.5099069 M51.3514321,5.18890693 C53.9594321,3.96490693 56.3684321,3.92990693 57.7914321,5.09490693 C58.9934321,6.07890693 59.3944321,7.82090693 58.8914321,9.87590693 C58.6484321,10.8669069 54.3174321,13.5439069 50.1654321,12.9639069 C47.6864321,12.6179069 47.4014321,11.2359069 47.4504321,9.92990693 C47.5564321,7.11190693 50.7184321,5.48690693 51.3514321,5.18890693 M74.0044321,44.0239069 C73.6644321,41.5759069 72.2584321,39.5409069 70.3414321,38.5099069 C71.8974321,36.6019069 72.5124321,33.9079069 71.9094321,31.1259069 C71.2334321,28.0049069 69.2304321,25.6059069 66.6334321,24.6169069 C66.8264321,24.3289069 67.0014321,24.0399069 67.1344321,23.7499069 C68.7044321,20.3229069 67.9564321,16.3939069 65.2734321,13.9749069 C64.7024321,13.4589069 63.7484321,12.7799069 62.3994321,12.3139069 C62.6854321,11.8589069 62.9014321,11.3839069 63.0224321,10.8869069 C63.9164321,7.23190693 62.9684321,3.83590693 60.4854321,1.80390693 C57.7624321,-0.425093073 53.6714321,-0.598093073 49.5434321,1.33890693 L49.5434321,1.33990693 C48.1034321,2.01590693 43.3944321,4.62090693 43.2004321,9.76890693 C43.0754321,13.1059069 44.6664321,15.5679069 47.5394321,16.6619069 C45.5214321,18.8419069 44.7014321,21.7169069 45.4154321,24.5509069 C46.2114321,27.7029069 48.7224321,29.9269069 51.7464321,30.2669069 C49.9404321,32.9699069 49.5934321,35.9839069 50.8404321,38.6199069 C51.8474321,40.7489069 53.6264321,42.2299069 55.9864321,42.9029069 C56.2934321,42.9899069 56.6174321,43.0409069 56.9374321,43.0989069 C56.3274321,44.2719069 56.0304321,45.5449069 56.1054321,46.8569069 C56.2344321,49.1219069 57.5494321,51.1759069 59.6224321,52.3499069 C60.8814321,53.0629069 62.3314321,53.4179069 63.8874321,53.4179069 C65.8464321,53.4179069 67.9734321,52.8559069 70.0984321,51.7419069 C72.9614321,50.2409069 74.4584321,47.2839069 74.0044321,44.0239069" id="Fill-14" fill="#141414"/><path d="M32.8871321,69.9080069 C31.3811321,62.1920069 24.1091321,59.3510069 19.7821321,58.6630069 C21.3861321,46.4700069 15.8241321,36.0320069 13.8711321,33.2660069 C10.8961321,29.0510069 -0.00586793369,26.7840069 2.00613207,37.9600069 C3.56513207,46.6230069 5.80013207,51.5500069 4.01213207,58.9260069 L12.8801321,64.6910069 C12.4891321,65.8070069 12.1631321,66.9510069 11.9411321,68.0070069 C8.90813207,82.4410069 26.9671321,87.2000069 32.3321321,83.6620069 C35.2051321,81.7680069 34.4491321,77.9150069 32.8871321,69.9080069" id="SKIN" fill="#FFF"/><path d="M35.9330321,75.6321069 C35.9330321,77.0021069 35.8720321,78.3021069 35.6430321,79.7421069 C35.5230321,80.5021069 34.8130321,81.0121069 34.0530321,80.8921069 C33.3330321,80.7721069 32.8330321,80.1121069 32.9030321,79.3921069 L32.9120321,79.3021069 C33.1330321,77.0021069 33.0130321,74.4521069 32.5030321,72.1321069 C32.0330321,69.7821069 31.1330321,67.5521069 29.8230321,65.6721069 C29.1730321,64.7221069 28.4120321,63.8621069 27.5930321,63.2121069 C26.7530321,62.5321069 25.7830321,61.9721069 24.7230321,61.5421069 C23.6930321,61.1221069 22.5830321,60.7921069 21.4630321,60.5521069 C21.2230321,61.6221069 20.9230321,62.6821069 20.5730321,63.7321069 C20.2830321,64.5821069 19.3530321,65.0521069 18.4930321,64.7621069 C17.6530321,64.4721069 17.1930321,63.5521069 17.4630321,62.7021069 C17.7330321,61.8521069 17.9630321,61.0021069 18.1620321,60.1321069 C18.4730321,58.7521069 18.6930321,57.3521069 18.8230321,55.9321069 C19.1330321,52.5321069 18.9120321,49.0721069 18.2230321,45.7121069 C17.6530321,42.9021069 16.7630321,40.1121069 15.4930321,37.6521069 C15.1830321,37.0521069 14.8330321,36.4621069 14.4830321,36.0121069 C14.1730321,35.6121069 13.6930321,35.1721069 13.1930321,34.7821069 C12.1620321,34.0021069 10.9530321,33.3421069 9.72303207,32.8721069 C8.50303207,32.4021069 7.20303207,32.1221069 6.13303207,32.2121069 C5.61303207,32.2521069 5.18303207,32.3921069 4.88303207,32.5821069 C4.59303207,32.7721069 4.38303207,33.0221069 4.21303207,33.4221069 C3.87203207,34.2121069 3.86303207,35.5221069 4.06303207,36.8121069 C4.11303207,37.1421069 4.18303207,37.4721069 4.25303207,37.8021069 L4.49303207,38.8821069 L5.01303207,41.0421069 C5.70303207,43.9321069 6.58303207,46.9221069 6.84303207,50.2321069 C6.96303207,51.8721069 6.91203207,53.5621069 6.66203207,55.2021069 C6.40303207,56.8321069 5.98303207,58.4021069 5.49303207,59.9321069 C5.13303207,61.0521069 3.94303207,61.6621069 2.82303207,61.3021069 C1.70303207,60.9521069 1.08303207,59.7521069 1.44303207,58.6321069 L1.45303207,58.6221069 L1.46303207,58.5621069 C1.91203207,57.2321069 2.28303207,55.8921069 2.51303207,54.5521069 C2.74303207,53.2021069 2.80303207,51.8721069 2.72303207,50.5121069 C2.55303207,47.7921069 1.79303207,44.9421069 1.10303207,41.9821069 L0.603032066,39.7421069 L0.363032066,38.6121069 C0.283032066,38.2121069 0.213032066,37.8021069 0.153032066,37.3821069 C-0.0469679337,35.7221069 -0.186967934,33.8821069 0.643032066,31.8821069 C1.06303207,30.8921069 1.84303207,29.9121069 2.83303207,29.3121069 C3.82303207,28.7021069 4.89303207,28.4521069 5.86303207,28.3921069 C7.82303207,28.2821069 9.51303207,28.7521069 11.0930321,29.3621069 C12.6620321,29.9921069 14.1130321,30.8021069 15.4730321,31.8621069 C16.1530321,32.4021069 16.7930321,32.9821069 17.4030321,33.7821069 C17.9630321,34.5321069 18.3630321,35.2521069 18.7330321,35.9921069 C20.1830321,38.9121069 21.0830321,41.9321069 21.6730321,45.0321069 C22.3830321,48.8021069 22.5730321,52.7021069 22.1430321,56.5321069 C22.2030321,56.5521069 22.2730321,56.5621069 22.3330321,56.5821069 C23.6830321,56.9321069 25.0230321,57.3921069 26.3230321,58.0021069 C27.6130321,58.6121069 28.8630321,59.3921069 29.9830321,60.3821069 C31.1220321,61.4021069 32.0130321,62.5421069 32.7530321,63.7421069 C34.2730321,66.1621069 35.1830321,68.8621069 35.5930321,71.5621069 C35.8230321,72.9121069 35.9330321,74.2721069 35.9330321,75.6321069" id="Fill-18" fill="#141414"/></g></g><g id="T-Shirt" transform="translate(140.949496, 84.000274)"><path d="M15.0300036,310.999726 C12.9535199,276.756733 -7.61599636,90.5185262 15.0300036,54.1935262 C50.2460036,-2.29547381 141.804004,2.39752619 141.804004,2.39752619 C141.804004,2.39752619 188.251004,-2.41647381 221.628004,35.2965262 C231.533004,46.4875262 255.008004,99.5295262 259.580004,116.124526 C256.870004,124.902526 235.981004,144.541526 225.528004,151.235526 C243.231004,226.944526 244.033004,310.351526 244.033004,310.351526 C244.033004,310.351526 50.5060036,314.253726 15.0300036,310.999726 Z" id="Fill-1" fill="#d98fcc"/><path d="M215.174604,100.487526 C214.528604,98.7675262 211.781604,99.9765262 212.582604,101.698526 C215.572604,110.927526 222.356604,147.046526 223.408604,151.060526 C236.047604,216.779526 242.050604,295.531526 241.918604,308.314526 C222.044604,308.478526 57.7646036,312.128526 17.3246036,309.540526 C17.0505036,268.999726 -8.94949636,99.9997262 16.8726036,55.2545262 C33.6450677,26.1907685 66.5406036,13.9175262 91.2066036,8.76552619 C118.166604,3.13352619 141.437604,4.50552619 141.670604,4.52052619 C142.867604,4.33652619 187.282604,0.249526186 220.035604,36.7055262 C229.321604,47.1975262 252.354604,98.7045262 257.353604,116.060526 C254.378604,123.801526 237.189604,140.403526 226.635604,147.912526 C225.655604,144.560526 217.572604,109.927526 215.174604,100.487526 Z M223.220604,33.8865262 C190.581604,-2.99147381 145.065604,-0.00447381405 141.770604,0.266526186 C102.439604,-2.10247381 35.5996036,10.9825262 13.1876036,53.1335262 C-12.9373964,107.267526 10.6356036,238.080526 12.5916036,287.370526 C13.2976036,296.386526 12.5256036,313.096526 14.4496036,313.146526 C66.8366036,313.813526 225.123604,312.504526 244.128604,312.476526 C245.252604,312.425526 246.143604,311.507526 246.159604,310.382526 C246.171604,309.581526 240.111604,223.662526 227.165604,152.248526 C237.574604,144.683526 260.053604,125.960526 261.630604,115.560526 C257.305604,99.8615262 233.737604,45.7695262 223.220604,33.8865262 Z" id="Fill-3" fill="#141414"/></g><g id="neck" transform="translate(226.039005, 54.700870)"><path d="M18.0946948,2.12593033 C18.0946948,2.12593033 16.7366948,36.5649303 2.50769479,41.4819303 C-1.36330521,60.8379303 24.8686948,74.0549303 44.8086948,73.1189303 C83.4096948,71.3069303 71.3966948,39.7559303 68.7416948,39.6699303 C68.8186948,35.7149303 70.9506948,6.13293033 70.9506948,6.13293033 L18.0946948,2.12593033 Z" id="SKIN" fill="#FFF"/><path d="M4.40669479,43.0048303 C3.71569479,48.0668303 5.28469479,52.8638303 9.08169479,57.2798303 C16.4496948,65.8508303 31.4296948,71.6278303 44.7096948,70.9948303 C57.9766948,70.3718303 66.5056948,65.9558303 69.3726948,58.2248303 C72.0666948,50.9638303 69.0996948,43.0898303 67.9016948,41.6248303 C67.1306948,41.2928303 66.5976948,40.5188303 66.6146948,39.6288303 C66.6816948,36.2428303 68.1856948,14.9838303 68.6786948,8.09283033 L20.0886948,4.40983033 C19.5236948,12.1098303 16.7476948,37.2578303 4.40669479,43.0048303 M42.7796948,75.2928303 C28.8506948,75.2928303 13.6116948,69.0728303 5.85669479,60.0528303 C0.956694787,54.3548303 -0.922305213,47.7878303 0.422694787,41.0658303 C0.570694787,40.3248303 1.09969479,39.7188303 1.81269479,39.4728303 C12.3476948,35.8318303 15.6036948,11.2178303 15.9696948,2.04183033 C15.9926948,1.46483033 16.2486948,0.921830328 16.6796948,0.537830328 C17.1116948,0.153830328 17.6846948,-0.0331696718 18.2556948,0.00483032817 L71.1116948,4.01183033 C72.2796948,4.10083033 73.1566948,5.11683033 73.0726948,6.28583033 C73.0526948,6.56183033 71.2046948,32.2198303 70.9066948,38.6698303 C73.2216948,41.1648303 74.6906948,47.2798303 74.7224094,51.6108303 C74.7666948,57.6788303 72.6856948,62.9738303 68.7026948,66.9228303 C63.6436948,71.9408303 55.6376948,74.7398303 44.9086948,75.2438303 C44.2036948,75.2758303 43.4926948,75.2928303 42.7796948,75.2928303" id="Fill-27" fill="#141414"/></g><g id="Hand-1" transform="translate(141.495530, 187.664912)"><path d="M91.25387,1.83958829 C90.15987,10.3425883 89.18087,18.8805883 88.30387,27.4125883 C87.44087,35.9475883 86.67987,44.4945883 86.21687,53.0255883 L86.21687,53.0325883 C86.15687,54.1365883 85.21387,54.9825883 84.11087,54.9215883 C83.00787,54.8615883 82.16287,53.9195883 82.22187,52.8165883 C82.22287,52.8105883 82.22387,52.7935883 82.22387,52.7865883 C82.81987,44.1535883 83.71087,35.5785883 84.70187,27.0195883 C85.70887,18.4605883 86.81387,9.92858829 88.03887,1.39258829 C88.16687,0.505588292 88.98887,-0.110411708 89.87587,0.0165882924 C90.75487,0.143588292 91.36787,0.951588292 91.25487,1.82858829 L91.25387,1.83958829 Z" id="Fill-29" fill="#141414"/><path d="M311.43937,148.223388 C310.18237,142.658388 296.99137,138.582388 286.61037,134.689388 C286.52737,134.441388 286.45737,134.187388 286.37037,133.940388 C279.02437,113.200388 102.27537,109.272388 92.14937,102.085388 C84.07537,96.3553883 84.36237,61.9193883 84.22037,52.9063883 C68.66337,53.9753883 2.12537004,59.6063883 2.12537004,59.6063883 C4.97037004,154.802388 34.88237,165.983388 56.06737,172.827388 C92.27937,184.526388 203.84137,168.384388 228.51737,174.838388 C249.61237,180.355388 260.50837,160.165388 274.43737,174.686388 C279.05837,179.503388 285.25537,174.275388 287.12537,168.388388 C288.25137,164.846388 289.19237,158.945388 289.20237,152.342388 C302.95537,154.924388 312.83237,154.391388 311.43937,148.223388" id="SKIN" fill="#FFF"/><path d="M250.01797,162.993888 C252.04097,164.771888 254.01997,168.523888 254.02097,174.891888 C254.02297,180.656888 255.47797,182.821888 258.48297,183.152888 C262.55097,183.599888 264.36797,180.019888 265.32397,173.567888 C265.71097,170.952888 265.72597,166.169888 264.97397,162.997888" id="Fill-33" fill="#FFF"/><path d="M276.44327,149.755588 C278.18127,161.705588 276.79727,174.773588 273.23327,178.484588 C269.38027,182.498588 264.36827,181.011588 265.07727,175.210588 C265.78127,169.457588 265.14527,161.054588 263.40627,155.839588" id="Fill-35" fill="#FFF"/><path d="M309.09077,150.227288 C307.60077,151.717288 302.16077,152.437288 291.32077,150.557288 C291.23077,146.527288 290.77077,142.277288 289.79077,138.137288 C297.50677,141.205288 311.17177,145.199288 309.09077,150.227288 M285.10077,167.747288 C283.73777,171.484288 280.92777,175.101288 277.50077,174.277288 C279.46277,166.159288 279.01277,157.694288 277.57077,149.586288 C277.34477,148.262288 275.27277,148.460288 275.30077,149.807288 C275.96777,157.058288 275.85677,164.471288 274.18077,171.517288 C273.51677,173.833288 272.88077,176.292288 270.87077,177.717288 C269.67977,178.519288 268.23177,179.094288 267.48077,177.797288 C266.82477,174.584288 267.73077,168.643288 266.75077,163.187288 C266.38377,161.147288 265.82977,154.254288 263.11177,154.556288 C262.36077,154.737288 261.90077,155.487288 262.08077,156.227288 C263.64277,162.633288 263.45377,169.500288 262.85077,176.057288 C261.93877,178.529288 260.48377,182.261288 257.45077,180.497288 C254.86077,176.999288 256.64477,171.451288 254.74977,167.417288 C253.96577,165.531288 251.66677,159.790288 248.82077,161.857288 C248.19077,162.527288 248.22077,163.577288 248.88077,164.206288 C250.37577,165.579288 251.30777,167.900288 251.70077,170.027288 C244.91977,172.503288 238.11077,175.148288 229.05077,172.777288 C194.66577,166.593288 86.81377,182.168288 56.72077,170.805288 C37.10077,164.467288 7.52077004,154.907288 4.31077004,61.5572883 C15.03077,60.6472883 65.39077,56.4072883 82.12077,55.1872883 C82.31977,76.1952883 83.53877,98.6012883 90.92077,103.817288 C94.84077,106.607288 114.49077,108.407288 151.79077,111.617288 C189.35877,115.217288 243.22977,118.395288 274.86077,128.626288 C281.74077,131.107288 283.86077,133.227288 284.36077,134.647288 C287.90977,144.366288 287.80077,158.752288 285.10077,167.747288 M313.51077,147.757288 C312.45377,141.380288 298.77777,136.876288 288.76277,133.216288 C288.60877,133.160288 288.70177,133.205288 288.30077,133.047288 C287.63277,130.255288 285.06377,127.417288 278.15377,125.016288 C242.77577,112.719288 125.74377,107.132288 93.37877,100.350288 C89.00077,97.2472883 86.65077,82.0772883 86.37077,55.2572883 C86.40877,53.2642883 86.61177,50.7482883 84.06977,50.7868404 C68.68077,51.8472883 2.61077004,57.4272883 1.95077004,57.4872883 C0.820770043,57.5862883 -0.0292299568,58.5372883 5.68434189e-14,59.6662883 C2.90577004,143.663288 21.88477,182.595288 101.16077,179.335288 C134.77377,180.224288 203.46377,172.211288 227.98077,176.896288 C237.79077,179.467288 245.39077,176.876288 252.08077,174.407288 C252.07777,177.663288 251.91877,181.162288 254.54077,183.787288 C257.85577,186.770288 263.29877,185.616288 265.26077,181.797288 C269.03577,184.590288 274.09777,181.777288 275.98077,178.237288 C288.13277,180.729288 290.91677,165.722288 291.29077,154.876288 C299.21077,155.950288 314.88977,158.594288 313.51077,147.757288" id="Fill-37" fill="#141414"/></g></g></g><g id="Lower Body Floor" transform="translate(182.000000, 1025.000000) scale(1 1)"><g id="Lower Body Floor/Legs Crossed" stroke="none" stroke-width="1" fill="none" fill-rule="evenodd"><g id="Shoe-1" transform="translate(300.000000, 237.000000)"><path d="M50.2014522,-8.52651283e-14 C50.2014522,-8.52651283e-14 -2.47054775,30.81 0.0904522467,60.259 C2.65145225,89.708 25.5384522,89.068 36.1014522,88.588 C62.3484522,87.395 90.9994522,64.461 90.9994522,64.461 L50.2014522,-8.52651283e-14 Z" id="Fill-1" fill="#d98fcc"/><path d="M51.1911522,65.1885 C50.7391522,65.1885 50.2841522,65.0365 49.9101522,64.7235 C36.5511522,53.5695 32.4721522,39.6675 32.3051522,39.0805 C32.0021522,38.0185 32.6181522,36.9115 33.6801522,36.6085 C34.7401522,36.3075 35.8471522,36.9195 36.1511522,37.9815 C36.1891522,38.1135 40.1001522,51.3215 52.4741522,61.6535 C53.3221522,62.3615 53.4351522,63.6225 52.7271522,64.4705 C52.3321522,64.9445 51.7631522,65.1885 51.1911522,65.1885" id="Fill-5" fill="#141414"/></g><g id="Leg-1" transform="translate(302.000000, 52.000000)"><path d="M1.98951966e-13,56.3891075 C1.98951966e-13,56.3891075 85.625,16.4751075 191.526,1.91310755 C293.957,-12.1708925 309.633,54.4811075 284.994,104.344108 C231.219,213.177108 91.587,261.862108 91.587,261.862108 C15.928,223.635108 41.287,132.769108 1.98951966e-13,56.3891075" id="Fill-7" fill="#141414"/><path d="M87.1153,141.392008 C86.4993,141.392008 85.8903,141.108008 85.4993,140.573008 C84.8463,139.681008 85.0413,138.430008 85.9323,137.778008 C86.6263,137.271008 155.4763,86.6250075 176.0883,46.8550075 C176.5953,45.8750075 177.8023,45.4910075 178.7833,46.0000075 C179.7643,46.5080075 180.1473,47.7150075 179.6383,48.6960075 C170.7883,65.7749985 152.7133,86.5100075 125.9153,110.325008 C106.0203,128.006008 88.4693,140.878008 88.2943,141.006008 C87.9373,141.267008 87.5243,141.392008 87.1153,141.392008" id="Fill-9" fill="#FFF"/></g><g id="Shoe-2" transform="translate(475.000000, 189.000000)"><path d="M29.7801728,72.3663656 C29.7801728,72.3663656 15.3041728,82.2143656 30.0811728,98.2533656 C37.2281728,106.012366 123.434173,140.295366 151.118173,122.794366 C163.906173,114.710366 166.816173,105.626366 168.154173,101.751366 C153.630173,97.3263656 29.7801728,72.3663656 29.7801728,72.3663656" id="Fill-11" fill="#141414"/><path d="M59.4383728,19.0578656 C76.7333728,17.9508656 109.239373,32.8508656 149.391373,53.1148656 C189.663373,73.4378656 173.827373,116.536866 137.106373,119.025866 C115.386373,120.497866 61.0493728,107.970866 36.1933728,92.9088656 C16.9123728,81.2248656 23.2413728,58.4298656 27.5233728,49.4428656 C33.8463728,36.1738656 47.5353728,19.8198656 59.4383728,19.0578656" id="Fill-13" fill="#d98fcc"/><path d="M101.784073,87.2687656 C101.761073,87.2677656 101.735073,87.2667656 101.710073,87.2637656 C100.663073,87.1807656 99.8820728,86.2637656 99.9660728,85.2157656 C101.508073,65.8497656 111.533073,53.1747656 111.958073,52.6447656 C112.616073,51.8277656 113.811073,51.6957656 114.634073,52.3537656 C115.452073,53.0117656 115.582073,54.2077656 114.926073,55.0277656 C114.829073,55.1477656 105.203073,67.3687656 103.758073,85.5187656 C103.677073,86.5407656 102.801073,87.3097656 101.784073,87.2687656" id="Fill-16" fill="#141414"/><path d="M121.324073,90.8790656 C121.300073,90.8780656 121.274073,90.8770656 121.250073,90.8740656 C120.203073,90.7910656 119.421073,89.8740656 119.505073,88.8260656 C120.648073,74.4610656 128.099073,65.0400656 128.416073,64.6470656 C129.074073,63.8280656 130.270073,63.6970656 131.091073,64.3560656 C131.909073,65.0140656 132.040073,66.2090656 131.384073,67.0270656 C131.313073,67.1160656 124.345073,75.9800656 123.297073,89.1290656 C123.216073,90.1510656 122.340073,90.9200656 121.324073,90.8790656" id="Fill-18" fill="#141414"/><path d="M38.5682728,2.3107656 C38.5682728,2.3107656 85.9682728,34.9797656 88.8192728,43.3737656 C94.7942728,60.9647656 85.3532728,75.5037656 73.6382728,80.2907656 C51.9102728,89.1697656 2.94427284,58.6887656 2.94427284,58.6887656" id="SKIN" fill="#FFF"/><path d="M67.1463728,83.7794656 C43.0163728,85.7764656 3.72337284,61.5294656 1.88737284,60.3864656 C0.949372838,59.8024656 0.663372838,58.5684656 1.24637284,57.6314656 C1.83037284,56.6954656 3.06437284,56.4084656 4.00137284,56.9904656 C4.12337284,57.0664656 16.3263728,64.6284656 30.9833728,71.0044656 C50.0263728,79.2874656 64.5153728,81.8564656 72.8823728,78.4394656 C83.8373728,73.9644656 92.4823728,60.3784656 86.9253728,44.0174656 C85.0033728,38.3594656 55.5483728,16.4434656 37.4333728,3.9574656 C36.5243728,3.3304656 36.2943728,2.0854656 36.9213728,1.1754656 C37.5473728,0.265465603 38.7923728,0.0364656034 39.7033728,0.664465603 C39.8233728,0.746465603 51.7293728,8.9624656 63.8303728,18.0984656 C86.1523728,34.9524656 89.8623728,40.2284656 90.7123728,42.7304656 C97.0563728,61.4074656 87.0403728,76.9754656 74.3953728,82.1414656 C72.2033728,83.0384656 69.7613728,83.5634656 67.1463728,83.7794656" id="Fill-22" fill="#141414"/></g><g id="Leg-2" transform="translate(158.000000, 47.000000)"><path d="M0.429809467,106.616869 C8.48280947,-62.498131 165.956809,16.259869 196.918809,32.172869 C297.589809,83.915869 399.874809,147.138869 399.874809,147.138869 C402.757809,199.802869 343.835809,247.029869 307.934809,252.276869 L183.296809,189.678869 C183.296809,189.678869 151.642809,235.210869 94.8398095,232.800869 C20.3758095,229.640869 -3.61619053,191.584869 0.429809467,106.616869" id="Fill-24" fill="#0B379B"/><path d="M183.402009,189.758469 C177.160009,186.463469 135.082009,164.039469 114.055009,147.455469 C113.187009,146.771469 111.929009,146.919469 111.246009,147.787469 C110.562009,148.654469 110.711009,149.912469 111.578009,150.596469 C132.212009,166.870469 172.628009,188.575469 180.852009,192.935469 C181.781009,191.880469 182.734009,190.733469 183.402009,189.758469" id="Fill-27" fill="#FFF"/></g></g></g><g id="Head" transform="translate(357.000000, 673.000000) scale(1 1)"><g id="Head/Curly Hair" stroke="none" stroke-width="1" fill="none" fill-rule="evenodd"><g id="Curly-Hair" transform="translate(-25.000112, -13.000220)"><path d="M173.540312,110.27182 C160.194312,62.3248196 131.729312,59.9898196 108.112312,64.2838196 C89.2893124,67.7068196 65.2113124,83.2678196 67.3423124,114.57482 C56.1433124,113.58082 50.2633124,118.89382 50.2633124,126.44082 C50.2633124,133.98782 52.0733124,141.28782 65.9443124,141.28782 C67.2893124,164.28282 81.1423124,203.98582 138.936312,195.60782 C183.320312,189.17482 185.882312,154.60882 173.540312,110.27182" id="SKIN" fill="#FFF"/><path d="M93.5027124,2.21411963 C98.3927124,-1.56888037 106.512712,-0.331880366 110.025712,4.61211963 C113.227712,4.02911963 116.499712,3.31111963 119.475712,4.26711963 C125.995712,2.85311963 132.592712,7.34711963 133.662712,13.6641196 C138.644712,13.8421196 143.682712,14.8071196 145.730712,19.9421196 C153.717712,16.9121196 162.695712,23.7661196 161.652712,32.1621196 C167.707712,34.1761196 171.190712,41.6221196 168.564712,47.5701196 C172.076712,50.4341196 176.208712,53.1671196 175.246712,58.0131196 C179.581712,61.5381196 180.554712,68.7961196 177.192712,73.3331196 C181.208712,77.4891196 175.089712,82.2631196 174.694712,85.8091196 C174.553712,89.6981196 176.420712,95.1871196 175.908712,97.5461196 C175.115712,101.21712 174.604712,103.63612 173.811712,104.96812 C174.383712,106.68612 174.935712,108.46312 175.447712,110.28912 C182.006712,135.39912 186.655712,157.94612 174.593712,177.78412 C166.454712,192.06012 142.218712,198.63212 123.719712,198.15812 C98.8767124,198.65412 78.2287124,186.53412 69.4337124,165.94012 C64.1767124,166.58212 59.2517124,165.24912 54.6057124,163.63112 C48.3707124,171.10812 34.7437124,167.01712 33.8887124,157.32312 C24.8057124,155.18712 18.8697124,148.87612 16.3617124,140.04912 C10.2287124,137.82012 6.99071236,129.91912 10.1117124,124.04912 L10.1117124,124.04912 L10.0817124,123.98912 C1.34671236,122.88212 -2.99928764,111.51712 2.82871236,104.99812 C2.82871236,104.67312 2.81871236,104.35712 2.82871236,104.03112 C-0.799287639,99.9101196 -0.576287639,92.7701196 3.24971236,88.8601196 C-2.49128764,82.9601196 -0.285287639,71.9751196 7.19271236,68.6341196 C7.11571236,62.6711196 8.84671236,57.0261196 12.6797124,52.3471196 C12.4877124,45.9481196 17.1817124,40.4961196 23.3247124,39.2991196 C23.4447124,39.1011196 23.5657124,38.9041196 23.6757124,38.7061196 C23.1187124,29.6791196 30.1137124,21.8811196 39.0657124,21.0471196 C40.8007124,16.4341196 45.5307124,13.1251196 50.8037124,13.4371196 C54.2137124,9.05811963 58.7857124,7.05411963 64.4177124,7.72211963 C67.5887124,3.25211963 74.6497124,1.58911963 79.5877124,4.39511963 C83.9387124,1.60411963 88.5797124,0.106119634 93.5027124,2.21411963 Z M131.745712,79.8281196 C128.063712,87.5171196 121.632712,91.8111196 109.002712,90.6751196 C92.5487124,89.2051196 88.7767124,113.26012 79.7877124,117.30712 C74.5607124,119.65612 65.9127124,116.76412 65.8927124,116.97112 C58.6457124,116.42812 51.7967124,119.30812 51.8375292,126.78312 C51.8375292,133.19912 52.9007124,139.45712 65.5717124,139.45712 C66.6037124,139.46612 67.5137124,140.25812 67.5687124,141.32112 C68.7547124,174.36112 95.0047124,200.82012 138.506712,193.10512 C154.228712,190.86412 164.922712,185.14912 171.233712,175.63312 C182.553712,162.58812 177.620712,120.68912 165.745712,95.3541196 C163.779712,93.3011196 161.080712,88.9281196 158.582712,84.5361196 C155.412712,85.4841196 151.499712,83.6671196 148.289712,80.5081196 C145.298712,83.2231196 138.286712,84.0131196 131.745712,79.8281196 Z M61.4075124,122.29232 C64.3725124,122.18932 64.3725124,130.31532 61.4075124,130.21432 C58.4425124,130.31632 58.4425124,122.19032 61.4075124,122.29232 Z" id="ink" fill="#141414"/></g></g></g><g id="Face" transform="translate(417.000000, 759.000000) scale(1 1)"><g id="Face/Happy" stroke="none" stroke-width="1" fill="none" fill-rule="evenodd"><path d="M68.0262,60.2979 C69.4482,60.0149 70.7502,60.5149 71.5092,61.6299 C74.5892,68.6889 64.8292,80.1889 50.8122,80.1239 C41.4982,80.6109 30.2032,74.9489 29.7222,68.5269 C29.2852,65.7529 31.7742,61.0039 35.6162,61.7009 C38.3532,62.1969 44.8962,62.3799 51.2902,62.1519 C59.8242,61.8519 67.9482,60.3119 68.0262,60.2979 Z M67.3562,63.5219 C67.3562,63.5219 47.4372,66.4319 34.3802,64.8919 C34.3802,64.8919 33.9462,67.5379 34.3662,68.3769 C39.5272,71.3069 60.7702,70.7559 67.5132,66.4909 C68.1082,64.4579 67.3562,63.5219 67.3562,63.5219 Z M49.0236,32.5891 C49.4936,32.6891 49.8216,33.0891 49.8496,33.5451 L49.8506,33.5661 C49.9856,35.7441 50.2306,37.9171 50.7946,39.7871 C50.9456,40.2411 51.1126,40.6851 51.3016,41.0401 C51.4856,41.3961 51.7176,41.6741 51.8386,41.7411 C52.0856,41.9211 52.5726,42.2431 53.0316,42.5291 C53.5056,42.8291 54.0126,43.1521 54.5266,43.5211 C55.5276,44.2751 56.6516,45.2241 57.3766,46.7691 C57.6996,47.5551 57.9276,48.3791 57.8466,49.4021 C57.7706,50.4071 57.2946,51.3651 56.7366,51.9991 C55.6066,53.2931 54.3796,53.8321 53.2446,54.3281 C52.0906,54.7841 50.9706,55.1141 49.8536,55.3671 C49.0096,55.5591 48.1706,55.0301 47.9796,54.1861 C47.8166,53.4661 48.1766,52.7511 48.8096,52.4371 L48.8176,52.4331 C49.8146,51.9381 50.8056,51.4991 51.6836,51.0041 C52.5556,50.5381 53.3536,49.9641 53.6656,49.5191 C53.8216,49.2911 53.8326,49.1811 53.8446,49.0651 C53.8566,48.9661 53.7886,48.6711 53.6806,48.4311 C53.4676,47.9181 52.8826,47.2931 52.1166,46.6951 C51.7356,46.3871 51.3146,46.0811 50.8586,45.7541 C50.3926,45.4081 49.9306,45.1251 49.3326,44.5671 C48.6196,43.8781 48.2726,43.1671 47.9976,42.5051 C47.7216,41.8371 47.5876,41.1951 47.4716,40.5621 C47.0526,38.0461 47.2986,35.6771 47.7846,33.3941 C47.9046,32.8291 48.4596,32.4691 49.0236,32.5891 Z M24.0588,28.9079 C24.5248,28.9349 24.9848,28.9209 25.4598,28.9929 C26.4008,29.0749 27.3618,29.3069 28.3058,29.6319 C29.2468,29.9779 30.1598,30.4899 30.9898,31.1399 C31.4028,31.4719 31.7878,31.8419 32.1428,32.2599 C32.3218,32.4649 32.4898,32.6889 32.6538,32.9219 C32.7358,33.0479 32.8118,33.1579 32.8908,33.2999 C32.9768,33.4509 33.0278,33.5309 33.1568,33.8109 C33.6678,34.9559 33.1548,36.2979 32.0098,36.8089 C30.8638,37.3199 29.5218,36.8059 29.0108,35.6609 C29.0538,35.7609 29.0068,35.6669 28.9888,35.6479 L28.8998,35.5229 C28.8318,35.4319 28.7608,35.3349 28.6748,35.2419 C28.5138,35.0489 28.3098,34.8759 28.1088,34.6979 C27.6908,34.3549 27.2088,34.0499 26.6548,33.8319 C26.1038,33.6059 25.5168,33.3989 24.8688,33.3019 C24.5568,33.2229 24.2138,33.2199 23.8858,33.1719 C23.5628,33.1339 23.2678,33.1219 22.9568,33.1219 C21.7288,33.1369 20.5098,33.5159 19.3428,34.1719 C18.7588,34.4969 18.2068,34.9119 17.6758,35.3659 C17.1548,35.8029 16.6248,36.3769 16.2448,36.8319 L16.1408,36.9569 C15.6528,37.5439 14.7798,37.6229 14.1938,37.1339 C13.6898,36.7149 13.5608,36.0129 13.8428,35.4509 C14.2988,34.5439 14.7778,33.8689 15.3558,33.1489 C15.9318,32.4529 16.5878,31.8099 17.3228,31.2359 C18.7768,30.0669 20.6348,29.2639 22.5938,29.0009 C23.0798,28.9419 23.5838,28.9009 24.0588,28.9079 Z M71.0738,27.4608 C72.6518,27.7598 74.1048,28.4208 75.3218,29.3548 C75.9228,29.8268 76.4708,30.3458 76.9418,30.9228 C77.4158,31.5258 77.7988,32.0708 78.1698,32.8638 C78.5298,33.6308 78.1988,34.5438 77.4318,34.9038 C76.9208,35.1428 76.3448,35.0758 75.9108,34.7778 L75.5938,34.5578 C75.2448,34.3168 74.7738,33.9268 74.3398,33.6578 C73.9008,33.3648 73.4558,33.0988 73.0068,32.8758 C72.1248,32.4158 71.1908,32.1238 70.2918,31.9678 C69.3858,31.8518 68.5108,31.8798 67.6368,32.1258 C66.7608,32.3488 65.8868,32.7908 64.9938,33.3468 L64.8838,33.4148 C63.9458,33.9988 62.7128,33.7128 62.1288,32.7748 C61.6328,31.9778 61.7668,30.9658 62.3938,30.3228 C63.4248,29.2648 64.7238,28.3298 66.2628,27.8108 C67.7848,27.2648 69.4988,27.1608 71.0738,27.4608 Z M27.0865,14.0089 C27.7015,14.0179 28.2355,14.0559 28.9865,14.1589 C30.3555,14.3469 31.3125,15.6099 31.1245,16.9779 C30.9435,18.2969 29.7665,19.2339 28.4565,19.1329 L28.2305,19.1149 C27.9275,19.0909 27.4005,19.0529 26.9545,19.0459 C26.4905,19.0259 26.0145,19.0479 25.5415,19.0569 C24.5905,19.1039 23.6325,19.1709 22.6835,19.3199 C20.7915,19.6309 18.8905,20.0459 17.0995,20.7939 C15.3155,21.5319 13.5215,22.3529 11.9155,23.5119 C10.2285,24.5639 8.7415,25.9159 7.2005,27.2789 L7.1065,27.3619 C6.5835,27.8259 5.7815,27.7769 5.3175,27.2529 C4.9205,26.8039 4.8995,26.1509 5.2315,25.6809 C5.8715,24.7769 6.4955,23.8379 7.2255,22.9819 C7.9915,22.1589 8.7195,21.2819 9.5925,20.5479 C11.2735,19.0099 13.2105,17.7219 15.2755,16.6899 C17.3465,15.6659 19.5595,14.8869 21.8465,14.4659 C22.9885,14.2479 24.1465,14.0949 25.3155,14.0269 C25.9035,14.0109 26.4885,13.9869 27.0865,14.0089 Z M74.1698,15.1012 C76.3518,15.7482 78.4678,16.6972 80.2848,18.0432 C81.2418,18.6492 82.0368,19.4542 82.8618,20.1972 C83.2938,20.5492 83.6188,21.0082 83.9818,21.4242 C84.3368,21.8462 84.6888,22.2682 85.0238,22.6992 C85.4888,23.2962 85.3808,24.1562 84.7828,24.6202 C84.2848,25.0072 83.6038,24.9972 83.1218,24.6352 L83.0188,24.5572 C81.4388,23.3712 79.9278,22.1902 78.2248,21.3712 C76.5778,20.4692 74.8228,19.8362 73.0268,19.4162 C71.2288,18.9972 69.3718,18.8482 67.5178,18.9022 L66.1298,18.9912 L64.7518,19.1652 C64.2948,19.2352 63.8398,19.3092 63.3968,19.4102 C62.9708,19.5002 62.4728,19.6262 62.1748,19.7102 L61.9928,19.7612 C60.7288,20.1162 59.4178,19.3782 59.0638,18.1152 C58.7228,16.9002 59.3988,15.6382 60.5748,15.2282 C61.2578,14.9932 61.7588,14.8522 62.3408,14.7222 C62.9028,14.5892 63.4658,14.4912 64.0278,14.3992 C65.1538,14.2112 66.2908,14.1592 67.4268,14.1352 C69.6998,14.0942 71.9858,14.4432 74.1698,15.1012 Z" id="Happy" fill="#141414"/></g></g><g id="Accessories" transform="translate(409.000000, 757.000000) scale(1 1)" fill="#000"><g id="Accessories/None" stroke="none" stroke-width="1" fill="none" fill-rule="evenodd" fill-opacity="0"/></g><g id="Facial Hair" transform="translate(419.000000, 815.000000) scale(1 1)" fill="#000"><g id="Facial Hair/Beard Moustache" stroke="none" stroke-width="1" fill="none" fill-rule="evenodd"><path d="M54.2989,25.5969 C51.2839,26.2549 49.5369,29.8979 41.0999,30.4399 C31.9059,31.0299 27.135,28.347 27,25 C26.698,17.42 40.7031,12.2711 54,12 C71.052,12.637 73.4759,13.5389 74.7039,17.9889 C76.2709,23.6689 73.8989,26.7369 70.2859,27.6279 C60.5139,30.0379 58.8079,24.6119 54.2989,25.5969 Z M81.7999,11.8309 C80.3269,9.0189 75.2509,2.6609 64.5289,0.9859 C57.6839,-0.0831 53.6399,3.6069 51.4499,3.6459 C49.4819,3.6809 41.453,-1.142 28,6 C21.841,9.269 20,15 18,21 C16.469,20.3 15.329,22.329 6,18 C-3.329,13.671 -12.9301,-2.8601 -15.6521,-5.1641 C-17.7271,-6.9191 -18.1849,10.4441 -11,30 C-5.53174725,44.8835202 5.4709,58.0929 17.7969,63.8999 C42.1329,75.3659 77.9309,70.2129 88.1909,54.0379 C100.8079,34.1449 94.7838,-6.0002 91.3919,-12.0001 C88,-18 90.2339,10.4919 81.7999,11.8309 Z" id="Beard-Moustache" fill="#141414"/></g></g></g></g></g></svg>