<svg viewBox="243 67.5 553.4999999999999 945.0000000000002" fill="none" xmlns="http://www.w3.org/2000/svg" xmlns:xlink="http://www.w3.org/1999/xlink" overflow="visible" width="553.4999999999999px" height="945.0000000000002px"><g id="Master/Stickers/Food Delivery 1"><g id="Group"><g id="Group_2"><g id="Group_3"><path id="Vector" d="M720 341.711H618.46C615.38 341.711 613.18 339.21 613.56 336.12L637.97 137.301C638.35 134.221 641.16 131.711 644.24 131.711H745.78C748.86 131.711 751.06 134.211 750.68 137.301L726.27 336.12C725.89 339.2 723.08 341.711 720 341.711Z" fill="white"/><path id="Vector_2" d="M720 342.711H618.46C616.69 342.711 615.09 342.01 613.98 340.75C612.85 339.48 612.35 337.79 612.57 336L636.98 137.181C637.42 133.621 640.68 130.721 644.24 130.721H745.78C747.55 130.721 749.15 131.421 750.26 132.681C751.39 133.951 751.89 135.641 751.67 137.431L727.26 336.25C726.82 339.81 723.57 342.711 720 342.711ZM644.24 132.721C641.65 132.721 639.28 134.831 638.96 137.431L614.55 336.25C614.4 337.46 614.73 338.591 615.47 339.431C616.2 340.261 617.26 340.711 618.46 340.711H720C722.59 340.711 724.96 338.6 725.28 336L749.69 137.181C749.84 135.971 749.51 134.84 748.77 134C748.04 133.17 746.98 132.721 745.78 132.721H644.24Z" fill="#4E0B2B"/></g><g id="Group_4"><g id="Group_5"><path id="Vector_3" d="M696.935 151.593C699.864 148.839 700.263 144.505 697.827 141.914C695.39 139.323 691.041 139.456 688.112 142.21C685.183 144.964 684.783 149.297 687.22 151.888C689.657 154.479 694.006 154.347 696.935 151.593Z" fill="#FFD2DC"/><path id="Vector_4" d="M691.94 154.211C689.83 154.211 687.94 153.381 686.61 151.891C685.27 150.381 684.68 148.37 684.94 146.25C685.46 141.99 689.35 138.53 693.61 138.53C695.72 138.53 697.61 139.361 698.94 140.851C700.28 142.361 700.87 144.37 700.61 146.49C700.09 150.75 696.2 154.211 691.94 154.211ZM693.62 140.521C690.33 140.521 687.33 143.2 686.93 146.48C686.74 148.03 687.16 149.481 688.11 150.551C689.05 151.611 690.41 152.2 691.94 152.2C695.23 152.2 698.23 149.52 698.63 146.24C698.82 144.69 698.4 143.241 697.45 142.171C696.51 141.111 695.15 140.521 693.62 140.521Z" fill="#FFD2DC"/></g><g id="Group_6"><path id="Vector_5" d="M647.191 148.48H653.541C654.711 148.48 655.771 147.53 655.921 146.36C656.061 145.19 655.231 144.24 654.061 144.24H647.711C646.541 144.24 645.481 145.19 645.331 146.36C645.191 147.53 646.021 148.48 647.191 148.48Z" fill="#FFD2DC"/><path id="Vector_6" d="M653.54 149.48H647.191C646.341 149.48 645.57 149.14 645.02 148.53C644.47 147.91 644.231 147.1 644.341 146.24C644.551 144.56 646.03 143.24 647.71 143.24H654.061C654.911 143.24 655.68 143.58 656.23 144.19C656.78 144.81 657.021 145.62 656.911 146.48C656.701 148.16 655.22 149.48 653.54 149.48ZM647.71 145.24C647.04 145.24 646.411 145.81 646.331 146.48C646.301 146.76 646.37 147.02 646.53 147.2C646.69 147.38 646.92 147.48 647.2 147.48H653.551C654.221 147.48 654.851 146.91 654.941 146.24C654.971 145.96 654.9 145.701 654.74 145.521C654.58 145.341 654.341 145.24 654.071 145.24H647.72H647.71Z" fill="#FFD2DC"/></g><g id="Group_7"><path id="Vector_7" d="M732.36 148.48H738.71C739.88 148.48 740.94 147.53 741.09 146.36C741.23 145.19 740.4 144.24 739.23 144.24H732.88C731.71 144.24 730.65 145.19 730.5 146.36C730.36 147.53 731.19 148.48 732.36 148.48Z" fill="#FFD2DC"/><path id="Vector_8" d="M738.72 149.48H732.37C731.52 149.48 730.75 149.14 730.2 148.53C729.65 147.91 729.41 147.1 729.52 146.24C729.73 144.56 731.21 143.24 732.89 143.24H739.24C740.09 143.24 740.86 143.58 741.41 144.19C741.96 144.81 742.2 145.62 742.09 146.48C741.88 148.16 740.4 149.48 738.72 149.48ZM732.89 145.24C732.22 145.24 731.59 145.81 731.51 146.48C731.48 146.76 731.55 147.02 731.71 147.2C731.87 147.38 732.1 147.48 732.38 147.48H738.73C739.4 147.48 740.03 146.91 740.12 146.24C740.15 145.96 740.08 145.701 739.92 145.521C739.76 145.341 739.52 145.24 739.25 145.24H732.9H732.89Z" fill="#FFD2DC"/></g></g><g id="Group_8"><path id="Vector_9" d="M657.001 283.221H695.821C696.971 283.221 698.021 282.281 698.171 281.131C698.311 279.981 697.491 279.04 696.341 279.04H657.521C656.371 279.04 655.321 279.981 655.171 281.131C655.031 282.281 655.851 283.221 657.001 283.221Z" fill="#FFD2DC"/><path id="Vector_10" d="M695.821 284.221H657C656.15 284.221 655.391 283.89 654.851 283.28C654.311 282.67 654.071 281.861 654.171 281.011C654.371 279.351 655.84 278.04 657.51 278.04H696.331C697.181 278.04 697.94 278.37 698.48 278.98C699.02 279.59 699.261 280.4 699.161 281.25C698.961 282.91 697.491 284.221 695.821 284.221ZM657.51 280.04C656.86 280.04 656.241 280.59 656.161 281.25C656.131 281.52 656.201 281.77 656.351 281.95C656.501 282.12 656.73 282.221 657 282.221H695.821C696.471 282.221 697.091 281.671 697.171 281.011C697.201 280.741 697.13 280.491 696.98 280.311C696.83 280.141 696.601 280.04 696.331 280.04H657.51Z" fill="#FFD2DC"/></g><g id="Group_9"><path id="Vector_11" d="M678.01 328.431H663.7C655.13 328.431 649.04 321.481 650.09 312.921C651.14 304.351 658.94 297.41 667.51 297.41H681.82C690.39 297.41 696.48 304.361 695.43 312.921C694.38 321.491 686.58 328.431 678.01 328.431Z" fill="#50BC50"/><path id="Vector_12" d="M678.011 329.431H663.701C659.291 329.431 655.341 327.711 652.581 324.591C649.791 321.441 648.561 317.25 649.101 312.79C650.211 303.75 658.471 296.4 667.511 296.4H681.821C686.231 296.4 690.181 298.12 692.941 301.24C695.731 304.39 696.961 308.58 696.421 313.03C695.311 322.07 687.051 329.421 678.011 329.421V329.431ZM667.511 298.4C659.441 298.4 652.081 304.97 651.091 313.03C650.611 316.91 651.681 320.541 654.081 323.261C656.461 325.951 659.871 327.431 663.701 327.431H678.011C686.081 327.431 693.441 320.861 694.431 312.801C694.911 308.921 693.841 305.29 691.441 302.57C689.061 299.88 685.651 298.4 681.811 298.4H667.501H667.511Z" fill="#50BC50"/></g><g id="Group_10"><g id="Group_11"><path id="Vector_13" d="M677.15 322.421H666.03C664.68 322.421 663.6 321.521 663.4 320.211L662.49 309.78H683.8L680.33 320.211C679.81 321.511 678.51 322.421 677.16 322.421H677.15Z" fill="#E85666"/><path id="Vector_14" d="M677.15 323.421H666.03C664.18 323.421 662.69 322.16 662.41 320.37L661.49 309.881C661.47 309.601 661.56 309.32 661.75 309.12C661.94 308.91 662.21 308.801 662.49 308.801H683.8C684.12 308.801 684.42 308.951 684.61 309.221C684.8 309.481 684.85 309.82 684.75 310.12L681.28 320.551C680.58 322.301 678.93 323.44 677.16 323.44L677.15 323.421ZM663.58 310.79L664.4 320.131C664.52 320.881 665.18 321.421 666.04 321.421H677.16C678.11 321.421 679.03 320.771 679.4 319.841L682.41 310.78H663.58V310.79Z" fill="#E85666"/></g><g id="Group_12"><path id="Vector_15" d="M671.96 320.19C671.53 320.19 671.14 320.021 670.87 319.711C670.59 319.401 670.47 318.991 670.53 318.561L671.14 313.551C671.24 312.701 671.99 312.04 672.84 312.04C673.27 312.04 673.66 312.211 673.93 312.521C674.21 312.831 674.33 313.241 674.27 313.671L673.65 318.681C673.55 319.531 672.8 320.19 671.95 320.19H671.96ZM672.84 313.04C672.5 313.04 672.18 313.331 672.13 313.671L671.52 318.681C671.5 318.821 671.54 318.951 671.62 319.051C671.7 319.141 671.82 319.19 671.96 319.19C672.3 319.19 672.62 318.901 672.66 318.561L673.28 313.551C673.3 313.411 673.26 313.281 673.18 313.181C673.1 313.091 672.98 313.04 672.84 313.04V313.04Z" fill="#4E0B2B"/><path id="Vector_16" d="M676.74 320.19C676.31 320.19 675.92 320.021 675.65 319.711C675.37 319.401 675.25 318.991 675.31 318.561L675.93 313.551C676.03 312.701 676.78 312.04 677.63 312.04C678.06 312.04 678.45 312.211 678.72 312.521C679 312.831 679.12 313.241 679.06 313.671L678.45 318.681C678.35 319.531 677.6 320.19 676.75 320.19H676.74ZM677.62 313.04C677.28 313.04 676.96 313.331 676.92 313.671L676.3 318.681C676.28 318.821 676.32 318.951 676.4 319.051C676.48 319.141 676.6 319.19 676.74 319.19C677.08 319.19 677.4 318.901 677.44 318.561L678.05 313.551C678.07 313.411 678.03 313.281 677.95 313.181C677.87 313.091 677.75 313.04 677.61 313.04H677.62Z" fill="#4E0B2B"/><path id="Vector_17" d="M667.12 320.19C666.69 320.19 666.3 320.021 666.03 319.711C665.75 319.401 665.63 318.991 665.69 318.561L666.31 313.551C666.41 312.701 667.16 312.04 668.01 312.04C668.44 312.04 668.83 312.211 669.1 312.521C669.38 312.831 669.5 313.241 669.44 313.671L668.82 318.681C668.72 319.531 667.97 320.19 667.12 320.19ZM668 313.04C667.66 313.04 667.34 313.331 667.3 313.671L666.68 318.681C666.66 318.821 666.7 318.951 666.78 319.051C666.86 319.141 666.98 319.19 667.12 319.19C667.46 319.19 667.78 318.901 667.82 318.561L668.44 313.551C668.46 313.411 668.42 313.281 668.34 313.181C668.26 313.091 668.14 313.04 668 313.04Z" fill="#4E0B2B"/></g><g id="Group_13"><path id="Vector_18" d="M668.08 310.79C667.91 310.79 667.74 310.751 667.59 310.661C667.11 310.391 666.94 309.781 667.21 309.301L671.24 302.221C671.51 301.741 672.12 301.571 672.6 301.841C673.08 302.111 673.25 302.721 672.98 303.201L668.95 310.281C668.77 310.601 668.43 310.79 668.08 310.79V310.79Z" fill="#4E0B2B"/></g><g id="Group_14"><path id="Vector_19" d="M678.211 310.79C677.791 310.79 677.401 310.52 677.261 310.1L674.971 303.02C674.801 302.49 675.091 301.931 675.611 301.761C676.141 301.591 676.701 301.88 676.871 302.4L679.161 309.48C679.331 310.01 679.041 310.57 678.521 310.74C678.421 310.77 678.311 310.79 678.211 310.79V310.79Z" fill="#4E0B2B"/></g></g><g id="Group_15"><g id="Group_16"><path id="Vector_20" d="M711.521 268.82H677.521L688.061 191.57H720.031L711.521 268.82Z" fill="black"/><path id="Vector_21" d="M711.521 269.82H677.521C677.231 269.82 676.961 269.7 676.771 269.48C676.581 269.26 676.491 268.97 676.531 268.69L687.061 191.44C687.131 190.94 687.551 190.57 688.051 190.57H720.031C720.311 190.57 720.581 190.69 720.781 190.9C720.971 191.11 721.061 191.391 721.031 191.681L712.521 268.931C712.461 269.441 712.041 269.82 711.531 269.82H711.521ZM678.661 267.82H710.621L718.911 192.57H688.921L678.661 267.82Z" fill="black"/></g><g id="Group_17"><path id="Vector_22" d="M706.891 172.53L720.031 191.57H694.011L706.891 172.53Z" fill="black"/><path id="Vector_23" d="M720.03 192.57H694.01C693.64 192.57 693.301 192.37 693.131 192.04C692.961 191.71 692.981 191.321 693.181 191.011L706.061 171.961C706.241 171.691 706.551 171.521 706.881 171.521C707.211 171.551 707.52 171.68 707.71 171.95L720.861 191C721.071 191.31 721.101 191.7 720.921 192.03C720.741 192.36 720.41 192.57 720.03 192.57V192.57ZM695.891 190.57H718.121L706.891 174.301L695.891 190.57Z" fill="black"/></g><g id="Group_18"><path id="Vector_24" d="M685.5 269.12H644.76L655.29 191.57H694.01L685.5 269.12Z" fill="#FFDEDA"/><path id="Vector_25" d="M685.5 270.12H644.75C644.46 270.12 644.19 270 644 269.78C643.81 269.56 643.72 269.27 643.76 268.99L654.29 191.44C654.36 190.94 654.78 190.57 655.28 190.57H694C694.28 190.57 694.55 190.69 694.75 190.9C694.94 191.11 695.03 191.391 695 191.681L686.49 269.23C686.43 269.74 686.01 270.12 685.5 270.12V270.12ZM645.9 268.12H684.61L692.9 192.57H656.17L645.91 268.12H645.9Z" fill="#FFDEDA"/></g><g id="Group_19"><path id="Vector_26" d="M655.291 191.57L670.781 172.53H706.891L694.011 191.57H655.291Z" fill="#FFDEDA"/><path id="Vector_27" d="M694.011 192.57H655.291C654.901 192.57 654.551 192.35 654.391 192C654.221 191.65 654.271 191.24 654.521 190.94L670.011 171.891C670.201 171.661 670.481 171.521 670.791 171.521H706.901C707.271 171.521 707.611 171.721 707.781 172.051C707.951 172.381 707.931 172.77 707.731 173.08L694.851 192.131C694.661 192.401 694.351 192.57 694.021 192.57H694.011ZM657.391 190.57H693.481L705.011 173.521H671.261L657.391 190.57V190.57Z" fill="#FFDEDA"/></g><g id="Group_20"><path id="Vector_28" d="M706.89 172.53L707.72 165.78H671.61L670.78 172.53H706.89Z" fill="#FFDEDA"/><path id="Vector_29" d="M706.891 173.53H670.781C670.491 173.53 670.221 173.41 670.031 173.19C669.841 172.98 669.751 172.69 669.791 172.4L670.621 165.65C670.681 165.15 671.111 164.771 671.611 164.771H707.721C708.011 164.771 708.281 164.89 708.471 165.11C708.661 165.32 708.751 165.611 708.711 165.891L707.881 172.641C707.821 173.141 707.391 173.521 706.891 173.521V173.53ZM671.911 171.53H706.001L706.581 166.78H672.491L671.911 171.53Z" fill="#FFDEDA"/></g><g id="Group_21"><g id="Group_22"><path id="Vector_30" d="M672.62 210.53C672.62 210.53 674.65 206.631 679.87 206.171C679.87 206.171 678.43 211.46 672.62 210.53Z" fill="#408940"/><path id="Vector_31" d="M673.93 211.641C673.47 211.641 672.98 211.6 672.46 211.52C672.14 211.47 671.87 211.27 671.72 210.98C671.57 210.69 671.58 210.35 671.72 210.07C671.81 209.89 674.07 205.681 679.76 205.171C680.1 205.131 680.41 205.27 680.62 205.52C680.83 205.77 680.9 206.111 680.82 206.421C680.3 208.341 678.21 211.631 673.92 211.631L673.93 211.641ZM678.09 207.52C676.48 208.01 675.34 208.861 674.6 209.601C676.35 209.391 677.44 208.42 678.09 207.52Z" fill="#408940"/></g><g id="Group_23"><path id="Vector_32" d="M678.248 234.455C683.703 229.325 684.449 221.255 679.912 216.431C675.376 211.607 667.275 211.855 661.82 216.986C656.364 222.116 655.619 230.186 660.155 235.01C664.692 239.834 672.792 239.585 678.248 234.455Z" fill="#50BC50"/><path id="Vector_33" d="M668.74 238.93C665.06 238.93 661.77 237.5 659.46 234.89C657.13 232.26 656.1 228.77 656.56 225.06C657.48 217.55 664.35 211.43 671.87 211.43C675.55 211.43 678.84 212.86 681.14 215.47C683.47 218.1 684.5 221.59 684.04 225.3C683.12 232.81 676.25 238.93 668.73 238.93H668.74ZM671.87 213.43C665.33 213.43 659.35 218.76 658.55 225.3C658.17 228.43 659.02 231.37 660.96 233.56C662.88 235.73 665.64 236.92 668.74 236.92C675.28 236.92 681.26 231.59 682.06 225.05C682.44 221.92 681.59 218.98 679.65 216.79C677.73 214.62 674.97 213.43 671.87 213.43Z" fill="#50BC50"/></g><path id="Vector_34" d="M671.871 213.441C671.871 213.441 671.791 213.441 671.751 213.441C671.201 213.371 670.811 212.871 670.881 212.331L671.431 207.851C671.501 207.301 671.981 206.901 672.541 206.981C673.091 207.051 673.481 207.551 673.411 208.091L672.861 212.571C672.801 213.081 672.371 213.451 671.871 213.451V213.441Z" fill="#4E0B2B"/><path id="Vector_35" d="M663.912 229.045C664.419 228.568 664.486 227.817 664.062 227.366C663.638 226.915 662.884 226.936 662.377 227.413C661.87 227.89 661.803 228.642 662.226 229.092C662.65 229.543 663.405 229.522 663.912 229.045Z" fill="black"/><path id="Vector_36" d="M666.337 233.357C666.844 232.88 666.911 232.128 666.487 231.678C666.064 231.227 665.31 231.249 664.803 231.726C664.296 232.202 664.228 232.954 664.651 233.404C665.075 233.855 665.83 233.834 666.337 233.357Z" fill="black"/><path id="Vector_37" d="M669.614 229.05C670.121 228.573 670.188 227.822 669.764 227.371C669.341 226.92 668.586 226.941 668.079 227.418C667.572 227.895 667.505 228.647 667.928 229.097C668.352 229.548 669.107 229.527 669.614 229.05Z" fill="black"/></g><path id="Vector_38" d="M653.94 260.301C653.62 260.301 653.31 260.151 653.11 259.861C652.8 259.401 652.92 258.781 653.37 258.471L661.54 252.91C661.21 250.02 663.72 247.27 665.33 245.83C666.06 245.18 666.93 244.451 668.02 244.131C669.45 243.711 670.88 244.21 671.45 245.33C671.92 246.26 671.72 247.51 670.96 248.54C670.37 249.33 669.58 249.86 668.89 250.33L663.91 253.711C664.67 254.811 666.42 255.191 667.93 254.881C669.41 254.581 670.83 253.781 672.16 252.891C672.16 252.841 672.14 252.781 672.14 252.731C671.98 251.491 672.33 250.361 673.09 249.641C673.7 249.061 674.64 248.821 675.43 249.051C676.08 249.241 676.53 249.701 676.69 250.321C676.94 251.321 676.4 252.32 675.07 253.29C674.9 253.42 674.72 253.541 674.55 253.671C674.84 254.151 675.27 254.56 675.81 254.87C676.89 255.49 678.22 255.57 679.35 255.08C679.86 254.86 680.44 255.091 680.67 255.601C680.89 256.111 680.66 256.701 680.15 256.921C678.44 257.661 676.45 257.541 674.83 256.611C674.03 256.151 673.38 255.541 672.91 254.811C671.52 255.711 670.01 256.501 668.35 256.841C666.12 257.301 663.52 256.641 662.28 254.841L654.52 260.12C654.35 260.24 654.15 260.29 653.96 260.29L653.94 260.301ZM669.03 246C668.89 246 668.74 246.021 668.6 246.061C667.91 246.261 667.25 246.82 666.68 247.33C665.83 248.09 664.14 249.77 663.66 251.49L667.77 248.691C668.36 248.291 668.97 247.871 669.36 247.351C669.69 246.921 669.77 246.44 669.67 246.24C669.6 246.1 669.34 246 669.03 246V246ZM674.63 251.021C674.57 251.041 674.51 251.071 674.47 251.111C674.38 251.191 674.31 251.291 674.26 251.401C674.44 251.241 674.56 251.111 674.63 251.021V251.021Z" fill="#4E0B2B"/></g></g><g id="Group_24"><path id="Vector_39" d="M471.24 393.99H381.431C381.431 393.99 397.961 306.291 414.771 282.461C432.181 257.781 483.951 261.281 521.611 261.671H544.411C582.081 261.291 633.84 257.791 651.25 282.461C668.07 306.291 680.431 393.99 680.431 393.99H471.24V393.99Z" fill="#FFD2DC"/><path id="Vector_40" d="M680.44 394.991H381.43C381.13 394.991 380.85 394.861 380.66 394.631C380.47 394.401 380.39 394.101 380.45 393.811C381.13 390.221 397.21 305.631 413.96 281.891C430.04 259.111 474.74 259.891 510.65 260.511C514.41 260.581 518.08 260.641 521.63 260.681H544.42C547.96 260.641 551.63 260.581 555.39 260.511C591.31 259.881 636 259.111 652.08 281.891C668.84 305.651 680.92 390.271 681.43 393.861C681.47 394.151 681.38 394.44 681.19 394.66C681 394.88 680.73 395 680.44 395V394.991ZM382.64 392.991H679.28C677.75 382.631 665.9 304.94 650.44 283.04C634.97 261.12 590.86 261.891 555.42 262.511C551.66 262.581 547.98 262.641 544.42 262.681H521.61C518.05 262.641 514.37 262.581 510.6 262.511C475.15 261.901 431.05 261.13 415.58 283.04C400.14 304.93 384.68 382.451 382.63 392.991H382.64Z" fill="#FFD2DC"/></g><g id="Group_25"><g id="Group_26"><path id="Vector_41" d="M484.461 221.52C484.461 221.52 482.071 212.09 475.721 213.4C467.271 215.14 464.841 249.34 475.851 251.1C486.861 252.86 489.441 229.94 489.441 229.94L484.451 221.52H484.461Z" fill="#D89A89"/><path id="Vector_42" d="M477.05 252.2C476.61 252.2 476.16 252.161 475.7 252.091C470.77 251.301 467.7 244.871 467.48 234.881C467.26 224.701 470.2 213.511 475.52 212.421C482.34 211.021 485.03 219.831 485.39 221.131L490.31 229.431C490.42 229.621 490.47 229.841 490.44 230.051C490.37 230.671 488.64 245.401 481.97 250.471C480.46 251.621 478.81 252.19 477.05 252.19V252.2ZM476.87 214.28C476.57 214.28 476.25 214.311 475.93 214.381C472.27 215.131 469.26 224.691 469.49 234.841C469.64 241.741 471.44 249.38 476.02 250.12C477.76 250.4 479.31 250.001 480.77 248.891C486.25 244.731 488.13 232.34 488.42 230.16L483.61 222.03C483.56 221.95 483.53 221.86 483.5 221.77C483.48 221.69 481.53 214.28 476.88 214.28H476.87Z" fill="#D89A89"/></g><g id="Group_27"><path id="Vector_43" d="M483.501 238.721C483.001 238.721 482.571 238.351 482.511 237.851C482.291 236.111 482.061 234.311 481.501 232.681C481.081 231.471 480.271 229.801 478.791 228.741C477.491 227.811 475.841 227.57 474.581 228.12C474.071 228.34 473.481 228.121 473.261 227.611C473.041 227.101 473.261 226.51 473.771 226.29C475.661 225.46 478.081 225.791 479.941 227.111C481.451 228.191 482.641 229.891 483.381 232.031C484.011 233.851 484.251 235.761 484.491 237.601C484.561 238.151 484.171 238.651 483.621 238.721C483.581 238.721 483.541 238.721 483.491 238.721H483.501Z" fill="#4E0B2B"/><path id="Vector_44" d="M483.501 238.721H483.491C482.941 238.721 482.501 238.261 482.501 237.711C482.501 237.301 482.231 236.001 481.691 235.421C481.131 234.821 480.281 234.55 479.561 234.74C478.831 234.93 478.411 235.74 478.331 236.4C478.261 236.95 477.761 237.33 477.211 237.27C476.661 237.2 476.271 236.7 476.341 236.15C476.541 234.53 477.631 233.18 479.041 232.81C480.471 232.43 482.081 232.92 483.141 234.06C484.171 235.16 484.501 237.05 484.491 237.74C484.491 238.29 484.041 238.73 483.491 238.73L483.501 238.721Z" fill="#4E0B2B"/></g><g id="Group_28"><path id="Vector_45" d="M581.86 220.361C581.86 220.361 585.88 211.501 591.89 213.911C599.9 217.111 596.26 251.2 585.11 251C573.96 250.8 575.46 227.781 575.46 227.781L581.85 220.371L581.86 220.361Z" fill="#D89A89"/><path id="Vector_46" d="M585.21 252C585.21 252 585.13 252 585.09 252C582.79 251.96 580.81 251.051 579.2 249.301C573.53 243.141 574.42 228.331 574.46 227.711C574.47 227.491 574.56 227.29 574.7 227.12L581 219.81C581.58 218.59 585.79 210.39 592.25 212.98C597.29 214.99 598.22 226.521 596.21 236.511C594.25 246.231 590.14 252 585.2 252H585.21ZM576.441 228.171C576.341 230.361 576.011 242.89 580.671 247.95C581.911 249.3 583.37 249.97 585.13 250C589.79 250.12 592.89 242.88 594.25 236.11C596.26 226.16 594.98 216.221 591.51 214.841C586.46 212.821 582.8 220.7 582.76 220.78C582.72 220.87 582.67 220.95 582.61 221.02L576.441 228.171Z" fill="#D89A89"/></g><g id="Group_29"><path id="Vector_47" d="M581.56 237.381C581.5 237.381 581.43 237.38 581.37 237.36C580.83 237.25 580.47 236.731 580.58 236.191C580.93 234.371 581.3 232.501 582.05 230.711C582.93 228.631 584.23 227.01 585.81 226.03C587.76 224.83 590.2 224.67 592.02 225.62C592.51 225.87 592.7 226.481 592.45 226.971C592.19 227.461 591.59 227.65 591.1 227.4C589.88 226.77 588.22 226.9 586.86 227.74C585.31 228.7 584.39 230.31 583.89 231.49C583.22 233.09 582.87 234.86 582.54 236.58C582.45 237.06 582.03 237.391 581.56 237.391V237.381Z" fill="#4E0B2B"/><path id="Vector_48" d="M581.56 237.381C581.56 237.381 581.52 237.381 581.51 237.381C580.96 237.351 580.53 236.88 580.56 236.33C580.6 235.64 581.05 233.78 582.15 232.75C583.29 231.68 584.93 231.3 586.33 231.78C587.71 232.25 588.7 233.66 588.8 235.29C588.83 235.84 588.41 236.32 587.86 236.35C587.29 236.38 586.83 235.96 586.8 235.41C586.76 234.74 586.39 233.911 585.68 233.671C584.98 233.431 584.11 233.651 583.51 234.211C582.93 234.751 582.57 236.03 582.55 236.44C582.52 236.97 582.08 237.39 581.55 237.39L581.56 237.381Z" fill="#4E0B2B"/></g><g id="Group_30"><path id="Vector_49" d="M583.14 214.5C583.13 214.87 583.12 215.23 583.11 215.61C583.04 218.06 582.88 220.58 582.63 223.14C582.62 223.3 582.6 223.46 582.58 223.61C582.4 225.55 582.18 227.44 581.93 229.3C577.62 261.66 564.04 280.76 527.71 280.65C494.58 280.53 484.32 256.07 483.37 230.38C483.29 228.15 483.28 225.92 483.34 223.69C483.37 221.7 483.47 219.72 483.61 217.74L483.68 216.56C483.7 216.18 483.74 215.77 483.76 215.38C485.06 195.53 487.17 168.25 532.37 167.59C572.3 167 583.76 186.24 583.15 214.49L583.14 214.5Z" fill="#D89A89"/><path id="Vector_50" d="M528.03 281.65C527.92 281.65 527.81 281.65 527.7 281.65C507.88 281.58 483.92 272.64 482.37 230.41C482.29 228.17 482.28 225.9 482.33 223.66C482.36 221.73 482.45 219.711 482.6 217.671L482.75 215.33C484.01 196.19 485.91 167.281 532.34 166.601C551.22 166.331 564.56 170.351 573.07 178.931C580.86 186.781 584.48 198.42 584.14 214.53L584.11 215.65C584.04 218.11 583.87 220.67 583.62 223.25C583.62 223.32 583.61 223.421 583.59 223.511L583.57 223.7C583.39 225.56 583.18 227.43 582.92 229.45C580.55 247.22 575.67 259.43 567.55 267.87C558.61 277.15 545.68 281.671 528.04 281.671L528.03 281.65ZM534.16 168.58C533.57 168.58 532.97 168.581 532.37 168.591C487.78 169.241 486.02 195.95 484.74 215.45L484.59 217.801C484.45 219.821 484.36 221.801 484.33 223.711C484.27 225.921 484.28 228.141 484.36 230.341C485.19 252.771 493.38 279.53 527.7 279.65C527.81 279.65 527.92 279.65 528.03 279.65C560.39 279.65 576.22 264.541 580.92 229.171C581.18 227.181 581.39 225.331 581.56 223.511L581.6 223.061C581.85 220.501 582.01 217.99 582.08 215.57L582.11 214.461C582.45 198.931 579.02 187.76 571.63 180.32C563.79 172.42 551.51 168.57 534.14 168.57L534.16 168.58Z" fill="#D89A89"/></g><g id="Group_31"><path id="Vector_51" d="M583.141 214.5C583.131 214.87 583.121 215.23 583.111 215.61C583.041 218.06 582.881 220.58 582.631 223.14C582.621 223.3 582.601 223.46 582.581 223.61C578.321 224.95 569.141 226.73 569.141 217.08C569.141 197.6 573.67 198.68 548.72 204.11C538.45 206.34 527.821 206.42 517.531 204.32C491.881 199.08 496.49 198.72 496.49 217.08C496.49 226.5 487.711 225.01 483.351 223.69C483.381 221.7 483.481 219.72 483.621 217.74L483.691 216.56C483.711 216.18 483.751 215.77 483.771 215.38C485.071 195.53 487.181 168.25 532.381 167.59C572.311 167 583.771 186.24 583.161 214.49L583.141 214.5Z" fill="#4E0B2B"/><path id="Vector_52" d="M576.441 225.681C574.481 225.681 572.591 225.27 571.071 224.16C569.111 222.72 568.121 220.34 568.121 217.08C568.121 214.01 568.231 211.431 568.321 209.351C568.491 205.431 568.6 202.841 567.71 202.091C566.54 201.111 562.591 202.011 555.431 203.631C553.521 204.061 551.361 204.551 548.921 205.091C538.421 207.371 527.791 207.441 517.311 205.301C515.591 204.951 514.011 204.62 512.551 204.32C503.981 202.54 499.251 201.55 497.911 202.7C496.971 203.5 497.091 206.021 497.261 209.841C497.351 211.801 497.46 214.241 497.46 217.091C497.46 220.341 496.481 222.71 494.541 224.15C491.381 226.49 486.541 225.72 483.031 224.65C482.601 224.52 482.311 224.121 482.321 223.681C482.351 221.741 482.441 219.721 482.591 217.681L482.74 215.341C484 196.201 485.901 167.29 532.331 166.61C551.211 166.34 564.551 170.36 573.061 178.94C580.851 186.79 584.471 198.43 584.131 214.54L584.101 215.66C584.031 218.12 583.861 220.681 583.611 223.261C583.611 223.331 583.601 223.431 583.581 223.521L583.561 223.711C583.531 224.121 583.251 224.461 582.861 224.591C580.951 225.191 578.651 225.711 576.431 225.711L576.441 225.681ZM566.021 199.69C567.351 199.69 568.28 199.961 569 200.551C570.65 201.931 570.541 204.591 570.331 209.431C570.241 211.491 570.131 214.05 570.131 217.07C570.131 219.66 570.851 221.5 572.261 222.54C574.751 224.37 578.971 223.6 581.641 222.83C581.881 220.35 582.031 217.911 582.101 215.561L582.131 214.45C582.471 198.92 579.041 187.751 571.651 180.311C563.541 172.141 550.671 168.31 532.371 168.58C487.781 169.23 486.02 195.94 484.74 215.44L484.591 217.79C484.471 219.54 484.381 221.261 484.341 222.931C486.931 223.641 490.961 224.3 493.351 222.53C494.751 221.49 495.46 219.65 495.46 217.07C495.46 214.27 495.351 211.85 495.261 209.91C495.041 205.19 494.921 202.59 496.611 201.16C498.701 199.38 502.58 200.191 512.95 202.351C514.4 202.651 515.98 202.98 517.7 203.33C527.9 205.41 538.26 205.35 548.48 203.12C550.92 202.59 553.07 202.101 554.98 201.671C560.36 200.451 563.751 199.681 566.011 199.681L566.021 199.69Z" fill="#4E0B2B"/></g><path id="Vector_53" d="M530.06 253.1C529.87 253.1 529.67 253.04 529.5 252.93C529.18 252.72 529.01 252.35 529.06 251.97L531.95 229.66C532.02 229.11 532.51 228.73 533.07 228.8C533.62 228.87 534.001 229.37 533.931 229.92L531.3 250.23L535.78 247.65C536.26 247.38 536.87 247.54 537.15 248.02C537.43 248.5 537.26 249.11 536.78 249.39L530.55 252.97C530.4 253.06 530.22 253.1 530.05 253.1H530.06Z" fill="#4E0B2B"/><path id="Vector_54" d="M523.981 240.631C523.711 240.631 523.451 240.521 523.251 240.311C518.731 235.491 513.121 233.91 506.581 235.61C501.591 236.91 497.901 239.731 497.861 239.761C497.421 240.091 496.791 240.02 496.461 239.58C496.121 239.14 496.201 238.521 496.641 238.181C496.801 238.061 512.631 226.071 524.711 238.941C525.091 239.341 525.071 239.981 524.671 240.351C524.481 240.531 524.231 240.62 523.991 240.62L523.981 240.631Z" fill="#4E0B2B"/><path id="Vector_55" d="M513.051 245.33C515.37 245.33 517.25 243.45 517.25 241.131C517.25 238.811 515.37 236.931 513.051 236.931C510.731 236.931 508.851 238.811 508.851 241.131C508.851 243.45 510.731 245.33 513.051 245.33Z" fill="#4E0B2B"/><path id="Vector_56" d="M539.671 241.91C539.461 241.91 539.251 241.841 539.071 241.711C538.631 241.381 538.541 240.75 538.871 240.31C549.511 226.23 566.531 236.46 566.701 236.57C567.171 236.86 567.321 237.47 567.031 237.95C566.741 238.42 566.121 238.57 565.651 238.28C565.611 238.26 561.641 235.85 556.541 235.08C549.861 234.07 544.451 236.24 540.461 241.52C540.261 241.78 539.961 241.921 539.661 241.921L539.671 241.91Z" fill="#4E0B2B"/><path id="Vector_57" d="M552.94 245.41C555.26 245.41 557.14 243.531 557.14 241.211C557.14 238.891 555.26 237.011 552.94 237.011C550.621 237.011 548.74 238.891 548.74 241.211C548.74 243.531 550.621 245.41 552.94 245.41Z" fill="#4E0B2B"/><path id="Vector_58" d="M523.351 227.73C523.171 227.73 522.981 227.68 522.811 227.57C522.711 227.51 512.401 221.14 498.451 227.57C497.951 227.8 497.361 227.58 497.121 227.08C496.881 226.58 497.111 225.98 497.611 225.75C512.601 218.85 523.441 225.591 523.891 225.881C524.351 226.181 524.491 226.79 524.191 227.26C524.001 227.56 523.681 227.72 523.351 227.72V227.73Z" fill="#4E0B2B"/><path id="Vector_59" d="M540.681 228.45C540.391 228.45 540.101 228.32 539.901 228.07C539.561 227.64 539.621 227.01 540.051 226.67C540.471 226.33 550.521 218.47 566.171 223.75C566.691 223.93 566.971 224.49 566.801 225.02C566.631 225.55 566.051 225.82 565.531 225.65C550.961 220.74 541.401 228.17 541.301 228.24C541.121 228.39 540.901 228.461 540.681 228.461V228.45Z" fill="#4E0B2B"/><path id="Vector_60" d="M508.75 259.181C493.27 259.181 491.77 252.09 491.56 244.83C491.46 241.15 491.47 237.121 491.5 234.391C491.53 231.641 493.78 229.41 496.53 229.41H522.67C524.34 229.41 525.9 230.07 527.06 231.28C528.21 232.48 528.81 234.051 528.75 235.711C528.62 239.081 528.4 242.46 528.08 245.74L528.05 246.011C527.47 252.191 526.81 259.19 508.75 259.19V259.181ZM496.53 231.4C494.88 231.4 493.52 232.75 493.5 234.4C493.47 237.11 493.46 241.111 493.56 244.771C493.73 250.591 493.91 257.181 508.75 257.181C524.99 257.181 525.49 251.911 526.06 245.811L526.09 245.54C526.4 242.3 526.62 238.96 526.75 235.62C526.79 234.51 526.39 233.45 525.62 232.65C524.84 231.84 523.8 231.4 522.67 231.4H496.53Z" fill="#50BC50"/><path id="Vector_61" d="M554.311 259.181C536.251 259.181 535.591 252.18 535.011 246L534.981 245.73C534.671 242.45 534.441 239.08 534.311 235.7C534.251 234.04 534.851 232.461 536.001 231.271C537.161 230.071 538.711 229.4 540.381 229.4H566.521C569.261 229.4 571.521 231.631 571.551 234.381C571.581 237.141 571.591 241.19 571.491 244.82C571.281 252.08 569.781 259.171 554.301 259.171L554.311 259.181ZM540.391 231.4C539.271 231.4 538.221 231.84 537.451 232.65C536.681 233.45 536.281 234.51 536.321 235.62C536.451 238.96 536.671 242.29 536.981 245.54L537.011 245.811C537.591 251.911 538.081 257.181 554.321 257.181C569.151 257.181 569.341 250.591 569.511 244.771C569.611 241.171 569.601 237.14 569.571 234.4C569.551 232.75 568.191 231.4 566.541 231.4H540.401H540.391Z" fill="#50BC50"/><path id="Vector_62" d="M535.2 235.58C534.92 235.58 534.64 235.46 534.44 235.23C533.56 234.2 532.62 233.681 531.67 233.681C530 233.681 528.64 235.22 528.63 235.23C528.27 235.65 527.64 235.69 527.22 235.33C526.8 234.97 526.75 234.341 527.11 233.921C527.19 233.831 529.06 231.671 531.66 231.671C533.23 231.671 534.67 232.431 535.95 233.921C536.31 234.341 536.26 234.97 535.84 235.33C535.65 235.49 535.42 235.57 535.19 235.57L535.2 235.58Z" fill="#50BC50"/><path id="Vector_63" d="M570.55 235.391C570.36 235.391 570.16 235.331 569.99 235.221C569.53 234.911 569.42 234.29 569.73 233.83C570.25 233.07 582.47 215.161 585.05 211.841C586.73 209.681 589.69 208.78 592.6 209.54C596.2 210.48 598.74 213.561 599.38 217.781C599.46 218.331 599.09 218.841 598.54 218.921C597.99 219.001 597.48 218.63 597.4 218.08C596.88 214.68 594.9 212.211 592.09 211.471C589.96 210.921 587.81 211.541 586.63 213.071C584.09 216.331 571.51 234.77 571.38 234.95C571.19 235.23 570.87 235.391 570.55 235.391V235.391Z" fill="#50BC50"/><path id="Vector_64" d="M492.51 235.39C492.12 235.39 491.75 235.16 491.59 234.78C489.24 229.3 482.63 214.57 480.23 212.32C478.91 211.08 476.87 210.6 475.04 211.11C472.49 211.82 470.5 214.27 469.44 218.03C469.29 218.56 468.73 218.87 468.21 218.72C467.68 218.57 467.37 218.02 467.52 217.49C469.22 211.48 472.63 209.71 474.51 209.19C477.04 208.49 479.76 209.14 481.61 210.88C484.74 213.83 492.55 231.95 493.43 234.01C493.65 234.52 493.41 235.11 492.9 235.32C492.77 235.38 492.64 235.4 492.51 235.4V235.39Z" fill="#50BC50"/></g><g id="Group_32"><g id="Group_33"><path id="Vector_65" d="M315.1 1000.25H504.91V935.591C504.91 928.461 503.23 925.94 495.25 925.94H440.11C435.44 925.94 431.78 925.941 430.61 933.881C429.26 943.071 423.36 956.96 403.8 958.07C384.65 959.15 360.57 959.611 347.81 961.641C341.49 962.641 335.74 964.031 330.34 966.061C319.75 970.061 316.23 980.241 315.19 988.461C314.36 994.971 315.09 1000.25 315.09 1000.25H315.1Z" fill="#408940"/><path id="Vector_66" d="M504.91 1001.25H315.1C314.6 1001.25 314.18 1000.88 314.11 1000.39C314.08 1000.17 313.38 994.9 314.21 988.33C315.25 980.07 318.84 969.34 330 965.12C335.19 963.17 340.96 961.701 347.66 960.641C356.8 959.181 371.84 958.531 386.38 957.891C392.21 957.641 398.24 957.371 403.74 957.061C424.17 955.911 428.64 940.361 429.62 933.721C430.91 924.921 435.38 924.921 440.11 924.921H495.25C504.26 924.921 505.91 928.51 505.91 935.57V1000.23C505.91 1000.78 505.46 1001.23 504.91 1001.23V1001.25ZM315.99 999.25H503.91V935.591C503.91 929.001 502.72 926.94 495.25 926.94H440.11C435.46 926.94 432.65 926.94 431.6 934.03C430.55 941.15 425.75 957.83 403.86 959.07C398.34 959.38 392.31 959.65 386.47 959.9C371.98 960.53 357 961.191 347.97 962.631C341.4 963.671 335.75 965.1 330.7 967C320.47 970.87 317.16 980.871 316.19 988.591C315.58 993.381 315.83 997.521 315.99 999.261V999.25Z" fill="#408940"/></g><g id="Group_34"><path id="Vector_67" d="M315.1 1000.25H504.91V988.461H315.2C314.37 994.971 315.1 1000.25 315.1 1000.25Z" fill="white"/><path id="Vector_68" d="M504.91 1001.25H315.1C314.6 1001.25 314.18 1000.88 314.11 1000.39C314.08 1000.17 313.38 994.9 314.21 988.33C314.27 987.83 314.7 987.461 315.2 987.461H504.91C505.46 987.461 505.91 987.911 505.91 988.461V1000.25C505.91 1000.8 505.46 1001.25 504.91 1001.25ZM315.99 999.25H503.91V989.461H316.09C315.61 993.871 315.84 997.63 315.99 999.25Z" fill="#4E0B2B"/></g></g><g id="Group_35"><path id="Vector_69" d="M469.61 939.141L504.91 947.521V937.62C504.91 937.62 484.2 940.261 469.61 939.141Z" fill="#4E0B2B"/><path id="Vector_70" d="M504.91 948.531C504.83 948.531 504.76 948.53 504.68 948.5L469.39 940.12C468.88 940 468.55 939.51 468.63 938.99C468.71 938.47 469.18 938.121 469.69 938.151C484.01 939.251 504.58 936.661 504.78 936.641C505.06 936.611 505.35 936.691 505.57 936.881C505.79 937.071 505.91 937.341 505.91 937.631V947.531C505.91 947.841 505.77 948.121 505.53 948.311C505.35 948.451 505.13 948.531 504.91 948.531ZM479.27 940.41L503.91 946.261V938.75C500.48 939.15 489.74 940.291 479.27 940.401V940.41Z" fill="#4E0B2B"/></g><g id="Group_36"><path id="Vector_71" d="M639.36 460.24L630.98 824.15L626.63 952.271H572.09L565.19 824.15L550.22 460.24H639.36Z" fill="white"/><path id="Vector_72" d="M626.63 953.271H572.09C571.56 953.271 571.12 952.85 571.09 952.32L564.19 824.19L549.219 460.271C549.209 460.001 549.309 459.73 549.499 459.54C549.689 459.35 549.949 459.23 550.219 459.23H639.36C639.63 459.23 639.89 459.34 640.07 459.53C640.26 459.72 640.36 459.98 640.36 460.25L631.979 824.16L627.63 952.301C627.61 952.841 627.17 953.271 626.63 953.271V953.271ZM573.04 951.271H625.66L629.979 824.11L638.34 461.23H551.269L566.199 824.101L573.05 951.271H573.04Z" fill="black"/></g><g id="Group_37"><g id="Group_38"><path id="Vector_73" d="M665.141 1000.4H532.161C532.161 1000.4 530.151 993.131 532.441 984.471C533.811 979.231 536.75 973.5 542.63 968.54C558.56 955.09 563.53 927.221 563.53 927.221H633.78C633.78 927.221 638.761 955.09 654.691 968.54C660.561 973.5 663.49 979.231 664.87 984.471C667.15 993.131 665.141 1000.4 665.141 1000.4Z" fill="#408940"/><path id="Vector_74" d="M665.14 1001.4H532.16C531.71 1001.4 531.32 1001.1 531.2 1000.67C531.12 1000.36 529.15 993.041 531.47 984.221C533.17 977.761 536.7 972.23 541.98 967.78C557.44 954.73 562.49 927.331 562.54 927.051C562.62 926.571 563.04 926.23 563.52 926.23H633.77C634.25 926.23 634.67 926.581 634.75 927.051C634.8 927.331 639.86 954.73 655.32 967.78C660.59 972.24 664.12 977.771 665.82 984.221C668.15 993.041 666.18 1000.36 666.09 1000.67C665.97 1001.1 665.58 1001.4 665.13 1001.4H665.14ZM532.95 999.4H664.34C664.76 997.38 665.67 991.451 663.89 984.721C662.3 978.671 658.99 973.481 654.04 969.301C639.37 956.921 633.92 933.041 632.95 928.221H564.35C563.38 933.051 557.94 956.921 543.27 969.301C538.31 973.481 534.99 978.671 533.4 984.721C531.62 991.471 532.54 997.38 532.95 999.4V999.4Z" fill="#408940"/></g><g id="Group_39"><path id="Vector_75" d="M665.141 1000.4H532.161C532.161 1000.4 530.151 993.131 532.441 984.471H664.87C667.15 993.131 665.141 1000.4 665.141 1000.4Z" fill="white"/><path id="Vector_76" d="M665.14 1001.4H532.16C531.71 1001.4 531.32 1001.1 531.2 1000.67C531.12 1000.36 529.15 993.041 531.47 984.221C531.59 983.781 531.98 983.471 532.44 983.471H664.87C665.32 983.471 665.72 983.781 665.84 984.221C668.17 993.041 666.2 1000.37 666.11 1000.67C665.99 1001.1 665.6 1001.4 665.15 1001.4H665.14ZM532.95 999.4H664.34C664.74 997.46 665.6 991.891 664.08 985.471H533.21C531.68 991.911 532.55 997.46 532.95 999.4V999.4Z" fill="#4E0B2B"/></g></g><g id="Group_40"><path id="Vector_77" d="M558.141 945.15L579.081 938.961L560.691 938.091L558.141 945.15Z" fill="#4E0B2B"/><path id="Vector_78" d="M558.14 946.15C557.87 946.15 557.6 946.041 557.41 945.841C557.15 945.571 557.07 945.17 557.2 944.81L559.75 937.75C559.9 937.34 560.29 937.051 560.74 937.091L579.13 937.961C579.62 937.981 580.02 938.351 580.08 938.841C580.14 939.331 579.84 939.781 579.37 939.921L558.43 946.11C558.34 946.14 558.24 946.15 558.15 946.15H558.14ZM561.38 939.12L559.75 943.631L573.12 939.671L561.38 939.12V939.12Z" fill="#4E0B2B"/></g><g id="Group_41"><path id="Vector_79" d="M638.261 944.721L618.801 938.961L637.191 938.091L638.261 944.721Z" fill="#4E0B2B"/><path id="Vector_80" d="M638.26 945.721C638.17 945.721 638.07 945.71 637.98 945.68L618.52 939.921C618.05 939.781 617.75 939.331 617.81 938.841C617.87 938.351 618.27 937.981 618.76 937.961L637.15 937.091C637.64 937.071 638.1 937.43 638.18 937.93L639.25 944.56C639.3 944.9 639.18 945.241 638.92 945.471C638.73 945.631 638.5 945.721 638.26 945.721V945.721ZM624.76 939.68L637.02 943.31L636.34 939.131L624.75 939.68H624.76Z" fill="#4E0B2B"/></g><g id="Group_42"><path id="Vector_81" d="M542.33 454.841L637.87 451.761C633.38 752.991 646.62 936.75 646.62 936.75C584.7 942.13 546.58 936.75 546.58 936.75C546.58 936.75 547.92 763.761 542.33 454.841Z" fill="#E85666"/><path id="Vector_82" d="M593.35 940.131C563.84 940.131 546.69 937.781 546.44 937.741C545.94 937.671 545.58 937.241 545.58 936.741C545.59 935.011 546.85 760.231 541.33 454.851C541.33 454.301 541.75 453.85 542.3 453.83L637.84 450.75C638.1 450.73 638.38 450.84 638.57 451.04C638.76 451.23 638.87 451.491 638.87 451.771C634.43 749.511 647.48 934.841 647.62 936.671C647.66 937.221 647.25 937.691 646.71 937.741C626.18 939.531 608.2 940.12 593.35 940.12V940.131ZM547.58 935.87C553.57 936.6 590.08 940.581 645.55 935.841C644.53 920.881 632.63 738.811 636.85 452.801L543.34 455.811C548.64 749.401 547.67 922.051 547.58 935.881V935.87Z" fill="#E85666"/></g><g id="Group_43"><path id="Vector_83" d="M441.449 454.841L536.989 451.761C522.719 757.031 516.069 936.75 516.069 936.75C454.149 942.13 416.029 936.75 416.029 936.75C416.029 936.75 429.029 723.711 441.449 454.841Z" fill="#E85666"/><path id="Vector_84" d="M462.81 940.131C433.3 940.131 416.15 937.78 415.9 937.74C415.38 937.67 415.01 937.211 415.04 936.691C415.17 934.561 428.18 720.59 440.46 454.79C440.48 454.27 440.91 453.851 441.43 453.841L536.97 450.761C537.26 450.741 537.52 450.861 537.71 451.061C537.91 451.261 538.01 451.531 538 451.811C523.89 753.581 517.15 934.99 517.08 936.79C517.06 937.29 516.67 937.71 516.17 937.75C495.64 939.54 477.66 940.131 462.81 940.131V940.131ZM417.09 935.881C423.23 936.631 459.73 940.57 515.11 935.83C515.64 921.78 522.38 743.11 535.95 452.79L442.41 455.801C430.56 712.211 418.04 920.19 417.09 935.87V935.881Z" fill="#E85666"/></g><g id="Group_44"><path id="Vector_85" d="M436.459 564.181C436.459 564.181 474.319 555.481 507.489 552.961L436.809 551.04L436.459 564.181V564.181Z" fill="#4E0B2B"/><path id="Vector_86" d="M436.459 565.181C436.229 565.181 436.01 565.1 435.83 564.95C435.59 564.75 435.449 564.46 435.459 564.15L435.81 551.011C435.81 550.741 435.93 550.491 436.12 550.311C436.31 550.131 436.54 550.05 436.83 550.04L507.51 551.961C508.04 551.971 508.47 552.4 508.48 552.94C508.49 553.47 508.09 553.921 507.56 553.961C474.84 556.441 437.05 565.07 436.68 565.16C436.61 565.18 436.529 565.19 436.459 565.19V565.181ZM437.78 552.07L437.49 562.931C443.15 561.681 467.01 556.55 491.75 553.54L437.78 552.08V552.07Z" fill="#4E0B2B"/></g><g id="Group_45"><path id="Vector_87" d="M637.109 560.771C637.109 560.771 602.789 554.84 569.609 552.32L637.109 548.79V560.78V560.771Z" fill="#4E0B2B"/><path id="Vector_88" d="M637.11 561.771C637.05 561.771 637 561.771 636.94 561.761C636.6 561.701 602.279 555.8 569.529 553.32C568.999 553.28 568.6 552.841 568.61 552.311C568.62 551.781 569.03 551.35 569.56 551.32L637.06 547.79C637.34 547.76 637.599 547.871 637.799 548.061C637.999 548.251 638.11 548.51 638.11 548.79V560.78C638.11 561.07 637.979 561.36 637.749 561.54C637.569 561.69 637.34 561.78 637.11 561.78V561.771ZM583.799 552.58C608.309 555.05 630.81 558.711 636.11 559.591V549.841L583.799 552.58Z" fill="#4E0B2B"/></g><g id="Group_46"><path id="Vector_89" d="M427.26 389.2L419.061 550.11C419.061 550.11 567.961 559.521 657.381 544.461L641.771 389.2H427.26V389.2Z" fill="#FFD2DC"/><path id="Vector_90" d="M520.77 554.011C515.19 554.011 509.82 553.981 504.68 553.931C456.8 553.471 419.37 551.131 419 551.101C418.45 551.071 418.04 550.601 418.06 550.051L426.26 389.141C426.29 388.611 426.73 388.19 427.26 388.19H641.77C642.28 388.19 642.71 388.581 642.77 389.091L658.38 544.351C658.43 544.871 658.07 545.35 657.55 545.44C616.67 552.33 563.17 554 520.78 554L520.77 554.011ZM420.11 549.171C426.33 549.541 461.2 551.511 504.71 551.931C548.53 552.361 610.27 551.251 656.29 543.631L640.87 390.2H428.21L420.11 549.171Z" fill="#FFD2DC"/></g><g id="Group_47"><path id="Vector_91" d="M634.62 468.15L648.92 459.54L648.02 450.54C648.02 450.54 640.73 462.631 634.62 468.141V468.15Z" fill="#4E0B2B"/><path id="Vector_92" d="M634.62 469.151C634.31 469.151 634.01 469.01 633.82 468.75C633.51 468.34 633.57 467.761 633.95 467.411C639.88 462.061 647.09 450.151 647.17 450.031C647.39 449.661 647.83 449.481 648.25 449.571C648.67 449.661 648.98 450.021 649.03 450.451L649.93 459.451C649.97 459.831 649.78 460.211 649.45 460.411L635.15 469.021C634.99 469.121 634.81 469.161 634.64 469.161L634.62 469.151ZM647.32 453.551C645.7 456.071 643 460.081 640.08 463.701L647.87 459.011L647.33 453.551H647.32Z" fill="#4E0B2B"/></g><g id="Group_48"><path id="Vector_93" d="M443.461 479.36L422.801 476.48L423.481 466.461C423.481 466.461 434.891 476.66 443.461 479.36Z" fill="#4E0B2B"/><path id="Vector_94" d="M443.46 480.36C443.46 480.36 443.371 480.36 443.321 480.36L422.661 477.48C422.141 477.41 421.771 476.951 421.801 476.421L422.48 466.4C422.51 466.02 422.751 465.69 423.101 465.54C423.451 465.4 423.861 465.47 424.141 465.72C424.251 465.82 435.49 475.81 443.75 478.41C444.25 478.57 444.541 479.08 444.421 479.58C444.321 480.04 443.91 480.36 443.45 480.36H443.46ZM423.861 475.61L436.831 477.421C431.711 474.501 426.771 470.55 424.351 468.52L423.871 475.61H423.861Z" fill="#4E0B2B"/></g><g id="Group_49"><path id="Vector_95" d="M601.489 315.301C618.009 324.681 622.409 368.38 623.129 395.9L667.499 395.49C667.499 395.49 650.209 489.051 599.739 481.641C554.039 474.931 577.819 358.03 577.819 358.03L601.499 315.311L601.489 315.301Z" fill="#D89A89"/><path id="Vector_96" d="M605.25 483.051C603.38 483.051 601.5 482.911 599.59 482.631C592.33 481.561 586.33 477.731 581.77 471.221C572.74 458.351 569.17 435.341 571.16 402.811C572.64 378.681 576.8 358.031 576.84 357.821C576.86 357.721 576.9 357.621 576.94 357.531L600.62 314.811C600.75 314.581 600.97 314.4 601.22 314.33C601.48 314.26 601.75 314.291 601.98 314.421C620.05 324.681 623.47 373.331 624.09 394.881L667.48 394.471C667.77 394.471 668.06 394.6 668.25 394.83C668.44 395.06 668.52 395.361 668.47 395.661C668.43 395.901 664 419.441 653.43 441.761C640.59 468.891 624.01 483.04 605.23 483.04L605.25 483.051ZM578.76 358.371C577.98 362.331 562.86 440.821 583.4 470.071C587.64 476.101 593.18 479.661 599.88 480.651C645.72 487.361 664.03 407.32 666.28 396.5L623.14 396.901C622.6 396.901 622.15 396.471 622.14 395.931C621.73 380.061 619.05 328.081 601.87 316.701L578.77 358.371H578.76Z" fill="#D89A89"/></g><path id="Vector_97" d="M623.53 422.05C622.98 422.05 622.53 421.6 622.53 421.05C622.53 402.93 621.86 386.55 621.86 386.39C621.84 385.84 622.27 385.37 622.82 385.35C623.36 385.31 623.84 385.76 623.86 386.31C623.86 386.47 624.53 402.89 624.53 421.05C624.53 421.6 624.08 422.05 623.53 422.05V422.05Z" fill="#4E0B2B"/><g id="Group_50"><path id="Vector_98" d="M459.54 315.301C443.02 324.681 438.55 367.97 437.84 395.49H393.54C393.54 395.49 410.83 489.051 461.3 481.641C507 474.931 483.22 358.03 483.22 358.03L459.54 315.311V315.301Z" fill="#D89A89"/><path id="Vector_99" d="M455.78 483.05C437 483.05 420.43 468.91 407.58 441.77C397.01 419.45 392.59 395.911 392.54 395.671C392.49 395.381 392.56 395.08 392.75 394.85C392.94 394.62 393.22 394.49 393.52 394.49H436.85C437.47 373.08 440.89 324.73 459.03 314.43C459.26 314.3 459.54 314.271 459.79 314.341C460.05 314.411 460.26 314.58 460.39 314.82L484.07 357.54C484.12 357.63 484.15 357.73 484.17 357.83C484.21 358.04 488.37 378.69 489.85 402.82C491.84 435.35 488.27 458.36 479.24 471.23C474.67 477.73 468.68 481.57 461.42 482.64C459.51 482.92 457.62 483.06 455.76 483.06L455.78 483.05ZM394.75 396.49C396.99 407.26 415.27 487.37 461.15 480.65C467.85 479.67 473.39 476.11 477.63 470.07C498.17 440.82 483.05 362.32 482.27 358.37L459.17 316.7C441.92 328.11 439.25 379.75 438.84 395.52C438.83 396.06 438.38 396.49 437.84 396.49H394.76H394.75Z" fill="#D89A89"/></g><path id="Vector_100" d="M437.5 422.051C436.95 422.051 436.5 421.601 436.5 421.051C436.5 402.891 437.17 386.471 437.17 386.311C437.19 385.761 437.65 385.321 438.21 385.351C438.76 385.371 439.19 385.841 439.17 386.391C439.17 386.551 438.5 402.931 438.5 421.051C438.5 421.601 438.05 422.051 437.5 422.051V422.051Z" fill="#4E0B2B"/><g id="Group_51"><path id="Vector_101" d="M555.05 263H506.31C504.83 263 503.63 264.201 503.63 265.681V361.11C503.63 362.59 504.83 363.79 506.31 363.79H555.05C556.53 363.79 557.73 362.59 557.73 361.11V265.681C557.73 264.201 556.53 263 555.05 263Z" fill="#4E0B2B"/><path id="Vector_102" d="M555.05 364.79H506.31C504.28 364.79 502.63 363.14 502.63 361.11V265.681C502.63 263.651 504.28 262 506.31 262H555.05C557.08 262 558.73 263.651 558.73 265.681V361.11C558.73 363.14 557.08 364.79 555.05 364.79ZM506.31 264C505.38 264 504.63 264.751 504.63 265.681V361.11C504.63 362.04 505.38 362.79 506.31 362.79H555.05C555.98 362.79 556.73 362.04 556.73 361.11V265.681C556.73 264.751 555.98 264 555.05 264H506.31Z" fill="#4E0B2B"/></g><g id="Group_52"><path id="Vector_103" d="M555.05 255.141H506.31C504.83 255.141 503.63 256.34 503.63 257.82V353.25C503.63 354.73 504.83 355.931 506.31 355.931H555.05C556.53 355.931 557.73 354.73 557.73 353.25V257.82C557.73 256.34 556.53 255.141 555.05 255.141Z" fill="white"/><path id="Vector_104" d="M555.05 356.931H506.31C504.28 356.931 502.63 355.28 502.63 353.25V257.82C502.63 255.79 504.28 254.141 506.31 254.141H555.05C557.08 254.141 558.73 255.79 558.73 257.82V353.25C558.73 355.28 557.08 356.931 555.05 356.931ZM506.31 256.141C505.38 256.141 504.63 256.89 504.63 257.82V353.25C504.63 354.18 505.38 354.931 506.31 354.931H555.05C555.98 354.931 556.73 354.18 556.73 353.25V257.82C556.73 256.89 555.98 256.141 555.05 256.141H506.31Z" fill="#4E0B2B"/></g><g id="Group_53"><path id="Vector_105" d="M413.76 380.54L382.72 387.211L383.89 380.54H413.76Z" fill="#4E0B2B"/><path id="Vector_106" d="M382.72 388.211C382.46 388.211 382.22 388.111 382.03 387.931C381.79 387.701 381.68 387.36 381.74 387.04L382.91 380.37C382.99 379.89 383.41 379.54 383.9 379.54H413.78C414.29 379.54 414.72 379.931 414.77 380.431C414.82 380.941 414.49 381.411 413.99 381.511L382.94 388.181C382.87 388.201 382.8 388.2 382.73 388.2L382.72 388.211ZM384.73 381.54L383.96 385.921L404.34 381.54H384.72H384.73Z" fill="#4E0B2B"/></g><path id="Vector_107" d="M597.35 952.221C597 952.221 596.659 952.031 596.479 951.711C591.629 943.071 567.57 899.691 570.13 893.921C570.37 893.381 570.81 893.001 571.36 892.881C574 892.281 578.299 894.981 588.289 921.521C593.719 935.951 598.269 950.781 598.309 950.931C598.459 951.421 598.219 951.941 597.749 952.141C597.619 952.191 597.49 952.221 597.36 952.221H597.35ZM571.92 894.801C571 897.221 578.68 915.05 593.42 942.04C583.68 912.04 575.179 894.801 571.989 894.801C571.969 894.801 571.94 894.801 571.92 894.801Z" fill="#4E0B2B"/><path id="Vector_108" d="M597.351 952.221C597.231 952.221 597.111 952.201 596.991 952.151C596.521 951.971 596.261 951.471 596.381 950.981C596.411 950.851 599.671 937.641 603.841 924.821C611.621 900.851 615.781 898.831 618.221 899.401C618.801 899.531 619.261 899.92 619.521 900.5C620.011 901.57 621.301 904.4 609.831 928.58C604.251 940.35 598.291 951.581 598.231 951.691C598.051 952.021 597.711 952.221 597.351 952.221V952.221ZM617.471 901.271C613.781 901.271 606.331 921.441 600.501 943.011C610.571 923.331 619.291 903.47 617.681 901.29C617.611 901.28 617.541 901.271 617.471 901.271Z" fill="#4E0B2B"/><path id="Vector_109" d="M424.79 948.53C424.66 948.53 424.53 948.51 424.41 948.45C424.26 948.39 409.46 942.311 394.75 935.671C364.52 922.021 364.11 919.34 363.94 918.2C363.85 917.63 364.06 917.091 364.51 916.721C365.7 915.731 368.84 913.12 397.75 929.75C411.77 937.81 425.21 946.61 425.35 946.69C425.78 946.97 425.93 947.54 425.69 947.99C425.51 948.33 425.17 948.52 424.81 948.52L424.79 948.53ZM366.01 918.11C367.89 921.2 390.41 931.93 414.57 942.19C394.17 929.43 370.09 916.12 366.01 918.11Z" fill="#4E0B2B"/><path id="Vector_110" d="M417.88 948.25C412.26 948.25 403.77 948.16 395.29 947.75C365.17 946.29 364.46 942.18 364.19 940.64C364.09 940.06 364.27 939.5 364.71 939.08C365.59 938.23 367.64 936.25 396.65 941.02C410.77 943.35 424.56 946.19 424.69 946.22C425.19 946.32 425.53 946.79 425.48 947.29C425.43 947.8 425.01 948.19 424.5 948.2C424.44 948.2 421.89 948.24 417.88 948.24V948.25ZM366.19 940.43C367.23 943.47 385.24 946.25 414.8 946.28C391.31 941.74 368.7 938.58 366.19 940.43Z" fill="#4E0B2B"/><g id="Group_54"><path id="Vector_111" d="M511.94 269.221C513.658 269.221 515.05 267.828 515.05 266.11C515.05 264.393 513.658 263 511.94 263C510.223 263 508.83 264.393 508.83 266.11C508.83 267.828 510.223 269.221 511.94 269.221Z" fill="#4E0B2B"/><path id="Vector_112" d="M511.94 270.23C509.67 270.23 507.83 268.39 507.83 266.12C507.83 263.85 509.67 262.011 511.94 262.011C514.21 262.011 516.05 263.85 516.05 266.12C516.05 268.39 514.21 270.23 511.94 270.23ZM511.94 264C510.77 264 509.83 264.95 509.83 266.11C509.83 267.27 510.78 268.221 511.94 268.221C513.1 268.221 514.05 267.27 514.05 266.11C514.05 264.95 513.1 264 511.94 264Z" fill="#4E0B2B"/></g><g id="Group_55"><path id="Vector_113" d="M511.94 278.66C513.658 278.66 515.05 277.268 515.05 275.551C515.05 273.833 513.658 272.44 511.94 272.44C510.223 272.44 508.83 273.833 508.83 275.551C508.83 277.268 510.223 278.66 511.94 278.66Z" fill="#4E0B2B"/><path id="Vector_114" d="M511.94 279.66C509.67 279.66 507.83 277.821 507.83 275.551C507.83 273.281 509.67 271.44 511.94 271.44C514.21 271.44 516.05 273.281 516.05 275.551C516.05 277.821 514.21 279.66 511.94 279.66ZM511.94 273.431C510.77 273.431 509.83 274.38 509.83 275.54C509.83 276.7 510.78 277.65 511.94 277.65C513.1 277.65 514.05 276.7 514.05 275.54C514.05 274.38 513.1 273.431 511.94 273.431Z" fill="#4E0B2B"/></g><g id="Group_56"><g id="Group_57"><path id="Vector_115" d="M431.151 380.54H329.61C326.53 380.54 323.72 378.04 323.34 374.95L298.931 176.131C298.551 173.051 300.74 170.54 303.83 170.54H405.37C408.45 170.54 411.26 173.041 411.64 176.131L436.05 374.95C436.43 378.03 434.241 380.54 431.151 380.54Z" fill="white"/><path id="Vector_116" d="M431.15 381.54H329.61C326.04 381.54 322.78 378.64 322.35 375.08L297.94 176.261C297.72 174.471 298.22 172.791 299.35 171.511C300.47 170.251 302.06 169.551 303.83 169.551H405.37C408.94 169.551 412.2 172.451 412.63 176.011L437.04 374.83C437.26 376.62 436.76 378.31 435.63 379.58C434.51 380.84 432.92 381.54 431.15 381.54ZM303.82 171.551C302.63 171.551 301.57 172.01 300.83 172.83C300.09 173.67 299.76 174.801 299.91 176.011L324.32 374.83C324.64 377.43 327.01 379.54 329.6 379.54H431.14C432.33 379.54 433.39 379.081 434.13 378.261C434.87 377.421 435.2 376.29 435.05 375.08L410.64 176.261C410.32 173.661 407.95 171.551 405.36 171.551H303.82Z" fill="#4E0B2B"/></g><g id="Group_58"><g id="Group_59"><path id="Vector_117" d="M328.66 258.671C328.66 258.671 324.2 208.18 358.7 206.75C392.28 205.36 400.99 246.571 402.12 258.141L328.66 258.671Z" fill="#408940"/><path id="Vector_118" d="M328.67 259.671C328.15 259.671 327.72 259.271 327.67 258.761C327.64 258.471 327.05 251.53 328.06 242.65C329 234.4 331.57 222.921 338.49 215.051C343.61 209.221 350.39 206.1 358.66 205.75C359.22 205.73 359.77 205.721 360.31 205.721C390.05 205.721 401.32 239.731 403.12 258.051C403.15 258.331 403.06 258.61 402.87 258.82C402.68 259.03 402.41 259.15 402.13 259.15L328.67 259.681V259.671ZM360.37 207.721C359.83 207.721 359.29 207.73 358.75 207.75C351.05 208.07 344.74 210.97 340 216.37C328.68 229.26 329.33 252.74 329.61 257.66L401.02 257.15C400.52 253.13 398.44 240.02 391.72 228.07C384.11 214.55 373.57 207.711 360.38 207.711L360.37 207.721Z" fill="#408940"/></g><g id="Group_60"><path id="Vector_119" d="M375.79 272.93C373.53 273.07 371.09 273.13 368.48 273.12C366.07 273.11 363.75 273.05 361.54 272.94C340.82 271.92 328.77 266.591 328.67 258.671C328.54 248.911 344.11 244.6 362.02 244.2C363.33 244.16 364.65 244.15 365.98 244.16C366.41 244.16 366.83 244.17 367.25 244.18C387.37 244.56 401.47 250.24 402.13 258.15C402.73 265.41 395.85 271.79 375.79 272.93Z" fill="#4E0B2B"/><path id="Vector_120" d="M369.01 274.12C368.83 274.12 368.65 274.12 368.47 274.12C366.06 274.12 363.71 274.05 361.48 273.94C340.1 272.89 327.77 267.33 327.66 258.68C327.54 249.47 340.37 243.68 361.99 243.2C363.25 243.16 364.55 243.15 365.98 243.16C366.41 243.16 366.84 243.16 367.26 243.18C387.99 243.57 402.4 249.55 403.11 258.07C403.35 261.01 402.48 263.65 400.52 265.91C396.5 270.53 388.19 273.23 375.83 273.94C373.77 274.07 371.47 274.131 368.99 274.131L369.01 274.12ZM365.02 245.16C363.98 245.16 363 245.17 362.05 245.2C346.31 245.55 329.54 249.27 329.67 258.66C329.76 266 341.69 270.97 361.59 271.94C363.78 272.05 366.1 272.11 368.49 272.12C371.14 272.14 373.57 272.07 375.73 271.93C387.37 271.27 395.42 268.731 399.02 264.591C400.62 262.761 401.32 260.62 401.13 258.23C400.52 250.91 386.58 245.54 367.23 245.18C366.81 245.18 366.4 245.16 365.98 245.16C365.65 245.16 365.33 245.16 365.02 245.16Z" fill="#4E0B2B"/></g><g id="Group_61"><path id="Vector_121" d="M374.62 296.28C372.77 296.43 370.95 296.421 369.25 296.341C363.95 296.061 359.62 291.08 360.28 285.97C360.83 281.77 361.24 277.77 361.54 274C362.55 261.44 362.36 251.44 362.02 245.26C363.33 245.22 364.65 245.21 365.98 245.22C366.41 245.22 366.83 245.23 367.25 245.24C369.23 255.65 372.56 265.74 375.79 273.99C377.49 278.35 379.17 282.19 380.6 285.3C382.98 290.48 380.02 295.86 374.62 296.28V296.28Z" fill="#FFD2DC"/><path id="Vector_122" d="M371.58 297.4C370.82 297.4 370.03 297.381 369.2 297.341C366.32 297.191 363.56 295.771 361.63 293.461C359.8 291.261 358.94 288.481 359.28 285.841C359.8 281.901 360.22 277.891 360.53 273.921C361.54 261.401 361.35 251.45 361.01 245.31C360.99 245.04 361.09 244.78 361.27 244.58C361.45 244.38 361.71 244.26 361.98 244.26C363.22 244.22 364.53 244.21 365.98 244.22C366.41 244.22 366.84 244.22 367.26 244.24C367.73 244.25 368.13 244.59 368.22 245.05C369.91 253.94 372.77 263.55 376.71 273.62C378.14 277.3 379.75 281.091 381.5 284.881C382.81 287.731 382.73 290.79 381.27 293.27C379.9 295.59 377.51 297.05 374.69 297.27C373.7 297.35 372.66 297.39 371.57 297.39L371.58 297.4ZM363.07 246.24C363.37 252.49 363.5 262.131 362.53 274.091C362.21 278.091 361.79 282.13 361.26 286.11C360.99 288.2 361.68 290.41 363.16 292.19C364.73 294.08 366.97 295.23 369.29 295.35C371.21 295.44 372.93 295.42 374.53 295.29C376.69 295.12 378.51 294.02 379.54 292.27C380.66 290.36 380.71 287.98 379.68 285.73C377.92 281.9 376.29 278.08 374.85 274.36C370.98 264.48 368.14 255.02 366.41 246.23C366.26 246.23 366.12 246.23 365.97 246.23C364.93 246.23 363.97 246.23 363.06 246.24H363.07Z" fill="#FFD2DC"/></g><g id="Group_62"><path id="Vector_123" d="M361.16 245.131L368.29 250.15L367.25 245.24L361.16 245.131Z" fill="#4E0B2B"/><path id="Vector_124" d="M368.29 251.15C368.09 251.15 367.89 251.091 367.71 250.971L360.58 245.961C360.22 245.711 360.07 245.25 360.2 244.83C360.33 244.42 360.72 244.141 361.15 244.141H361.17L367.26 244.24C367.73 244.24 368.13 244.58 368.22 245.03L369.26 249.94C369.34 250.34 369.18 250.75 368.83 250.98C368.66 251.09 368.47 251.15 368.28 251.15H368.29ZM364.4 246.19L366.79 247.87L366.44 246.23L364.4 246.2V246.19Z" fill="#4E0B2B"/></g></g><g id="Group_63"><g id="Group_64"><path id="Vector_125" d="M363.909 189.645C366.346 187.054 365.946 182.721 363.017 179.966C360.088 177.212 355.739 177.08 353.303 179.671C350.866 182.262 351.265 186.595 354.194 189.349C357.123 192.103 361.473 192.236 363.909 189.645Z" fill="#FFD2DC"/><path id="Vector_126" d="M359.201 193.04C354.941 193.04 351.051 189.58 350.531 185.32C350.271 183.19 350.861 181.191 352.201 179.681C353.531 178.181 355.421 177.36 357.521 177.36C361.781 177.36 365.671 180.82 366.191 185.08C366.451 187.2 365.861 189.211 364.521 190.721C363.191 192.221 361.301 193.04 359.191 193.04H359.201ZM357.521 179.36C355.991 179.36 354.631 179.941 353.691 181.011C352.741 182.091 352.321 183.53 352.511 185.08C352.911 188.37 355.921 191.04 359.201 191.04C360.731 191.04 362.091 190.451 363.031 189.391C363.981 188.311 364.401 186.87 364.211 185.32C363.811 182.03 360.801 179.36 357.521 179.36Z" fill="#FFD2DC"/></g><g id="Group_65"><path id="Vector_127" d="M310.891 187.32H317.24C318.41 187.32 319.241 186.37 319.101 185.2C318.961 184.03 317.89 183.08 316.72 183.08H310.371C309.201 183.08 308.371 184.03 308.511 185.2C308.651 186.37 309.721 187.32 310.891 187.32Z" fill="#FFD2DC"/><path id="Vector_128" d="M317.241 188.32H310.891C309.211 188.32 307.731 187 307.521 185.32C307.411 184.46 307.661 183.65 308.201 183.03C308.741 182.42 309.511 182.08 310.371 182.08H316.721C318.401 182.08 319.881 183.4 320.091 185.08C320.201 185.94 319.951 186.75 319.411 187.37C318.871 187.98 318.101 188.32 317.241 188.32ZM310.371 184.08C310.101 184.08 309.861 184.18 309.701 184.36C309.541 184.54 309.471 184.8 309.501 185.08C309.581 185.75 310.221 186.32 310.891 186.32H317.241C317.511 186.32 317.751 186.22 317.911 186.04C318.071 185.86 318.141 185.6 318.111 185.32C318.031 184.65 317.391 184.08 316.731 184.08H310.381H310.371Z" fill="#FFD2DC"/></g><g id="Group_66"><path id="Vector_129" d="M396.06 187.32H402.41C403.58 187.32 404.41 186.37 404.27 185.2C404.13 184.03 403.06 183.08 401.89 183.08H395.54C394.37 183.08 393.54 184.03 393.68 185.2C393.82 186.37 394.89 187.32 396.06 187.32Z" fill="#FFD2DC"/><path id="Vector_130" d="M402.42 188.32H396.07C394.39 188.32 392.91 187 392.7 185.32C392.59 184.46 392.84 183.65 393.38 183.03C393.92 182.42 394.69 182.08 395.55 182.08H401.9C403.58 182.08 405.06 183.4 405.27 185.08C405.38 185.94 405.13 186.75 404.59 187.37C404.05 187.98 403.28 188.32 402.42 188.32ZM395.55 184.08C395.28 184.08 395.04 184.18 394.88 184.36C394.72 184.54 394.65 184.8 394.68 185.08C394.76 185.75 395.4 186.32 396.06 186.32H402.41C402.68 186.32 402.92 186.22 403.08 186.04C403.24 185.86 403.31 185.6 403.28 185.32C403.2 184.65 402.56 184.08 401.89 184.08H395.54H395.55Z" fill="#FFD2DC"/></g></g><g id="Group_67"><path id="Vector_131" d="M337.62 310.94H406.03C407.18 310.94 408 310.001 407.86 308.851C407.72 307.701 406.67 306.761 405.51 306.761H337.1C335.95 306.761 335.13 307.701 335.27 308.851C335.41 310.001 336.46 310.94 337.62 310.94Z" fill="#FFD2DC"/><path id="Vector_132" d="M406.04 311.931H337.62C335.95 311.931 334.49 310.631 334.28 308.961C334.18 308.111 334.42 307.31 334.96 306.69C335.5 306.08 336.26 305.75 337.11 305.75H405.53C407.2 305.75 408.66 307.051 408.87 308.721C408.97 309.571 408.73 310.38 408.19 310.99C407.65 311.6 406.89 311.931 406.04 311.931ZM337.11 307.75C336.85 307.75 336.61 307.851 336.46 308.021C336.3 308.201 336.23 308.441 336.27 308.721C336.35 309.381 336.97 309.931 337.62 309.931H406.04C406.3 309.931 406.53 309.83 406.69 309.66C406.85 309.48 406.92 309.231 406.88 308.961C406.8 308.301 406.18 307.75 405.53 307.75H337.11Z" fill="#FFD2DC"/></g><g id="Group_68"><path id="Vector_133" d="M353.82 322.36H392.64C393.79 322.36 394.61 321.421 394.47 320.271C394.33 319.121 393.28 318.181 392.12 318.181H353.3C352.15 318.181 351.33 319.121 351.47 320.271C351.61 321.421 352.66 322.36 353.82 322.36Z" fill="#FFD2DC"/><path id="Vector_134" d="M392.64 323.36H353.82C352.15 323.36 350.69 322.061 350.48 320.391C350.38 319.551 350.62 318.73 351.16 318.12C351.7 317.51 352.46 317.181 353.31 317.181H392.13C393.8 317.181 395.26 318.48 395.47 320.15C395.57 321 395.33 321.811 394.79 322.421C394.25 323.031 393.49 323.36 392.64 323.36ZM353.31 319.181C353.05 319.181 352.82 319.28 352.66 319.45C352.5 319.63 352.43 319.88 352.47 320.15C352.55 320.81 353.17 321.36 353.82 321.36H392.64C392.9 321.36 393.13 321.261 393.29 321.091C393.45 320.911 393.52 320.661 393.48 320.391C393.4 319.731 392.78 319.181 392.13 319.181H353.31Z" fill="#FFD2DC"/></g><g id="Group_69"><path id="Vector_135" d="M385.731 367.261H371.421C362.851 367.261 355.051 360.31 354.001 351.75C352.951 343.18 359.041 336.24 367.611 336.24H381.921C390.491 336.24 398.291 343.19 399.341 351.75C400.391 360.32 394.301 367.261 385.731 367.261Z" fill="#50BC50"/><path id="Vector_136" d="M385.72 368.261H371.41C362.37 368.261 354.11 360.91 353 351.87C352.45 347.42 353.69 343.23 356.47 340.08C359.23 336.96 363.18 335.24 367.59 335.24H381.9C390.94 335.24 399.2 342.591 400.31 351.631C400.86 356.081 399.62 360.271 396.83 363.421C394.07 366.541 390.12 368.261 385.71 368.261H385.72ZM367.6 337.24C363.77 337.24 360.35 338.72 357.97 341.41C355.57 344.13 354.51 347.761 354.98 351.631C355.97 359.701 363.34 366.261 371.4 366.261H385.71C389.54 366.261 392.96 364.781 395.34 362.091C397.74 359.371 398.81 355.74 398.33 351.86C397.34 343.79 389.97 337.23 381.9 337.23H367.59L367.6 337.24Z" fill="#50BC50"/></g><g id="Group_70"><g id="Group_71"><path id="Vector_137" d="M383.39 361.261H372.27C370.92 361.261 369.62 360.361 369.1 359.051L365.63 348.62H386.94L386.03 359.051C385.83 360.351 384.75 361.261 383.4 361.261H383.39Z" fill="#E85666"/><path id="Vector_138" d="M383.39 362.261H372.27C370.5 362.261 368.85 361.121 368.17 359.431L364.68 348.95C364.58 348.64 364.63 348.311 364.82 348.051C365.01 347.791 365.31 347.631 365.63 347.631H386.94C387.22 347.631 387.49 347.75 387.68 347.95C387.87 348.16 387.96 348.431 387.94 348.711L387.03 359.141C386.74 361.001 385.25 362.261 383.4 362.261H383.39ZM367.01 349.631L370.05 358.74C370.4 359.61 371.32 360.261 372.27 360.261H383.39C384.25 360.261 384.91 359.71 385.03 358.9L385.84 349.631H367.01V349.631Z" fill="#E85666"/></g><g id="Group_72"><path id="Vector_139" d="M377.521 359.021C376.671 359.021 375.931 358.361 375.821 357.511L375.201 352.5C375.151 352.07 375.271 351.661 375.541 351.351C375.811 351.041 376.201 350.87 376.631 350.87C377.481 350.87 378.221 351.531 378.331 352.381L378.951 357.391C379.001 357.821 378.881 358.23 378.611 358.54C378.341 358.85 377.951 359.021 377.521 359.021ZM376.641 351.87C376.501 351.87 376.381 351.921 376.301 352.011C376.221 352.101 376.181 352.231 376.201 352.381L376.821 357.391C376.861 357.731 377.181 358.021 377.521 358.021C377.661 358.021 377.781 357.971 377.861 357.881C377.941 357.791 377.981 357.661 377.961 357.511L377.341 352.5C377.301 352.16 376.981 351.87 376.641 351.87Z" fill="#4E0B2B"/><path id="Vector_140" d="M382.31 359.021C381.46 359.021 380.72 358.361 380.61 357.511L380 352.5C379.95 352.07 380.07 351.661 380.34 351.351C380.61 351.041 381.001 350.87 381.431 350.87C382.281 350.87 383.02 351.531 383.13 352.381L383.75 357.391C383.8 357.821 383.681 358.23 383.411 358.54C383.141 358.85 382.75 359.021 382.32 359.021H382.31ZM381.431 351.87C381.291 351.87 381.17 351.921 381.09 352.011C381.01 352.101 380.97 352.231 380.99 352.381L381.6 357.391C381.64 357.731 381.97 358.021 382.31 358.021C382.45 358.021 382.57 357.971 382.65 357.881C382.73 357.791 382.77 357.661 382.75 357.511L382.13 352.5C382.09 352.16 381.771 351.87 381.431 351.87V351.87Z" fill="#4E0B2B"/><path id="Vector_141" d="M372.691 359.021C371.841 359.021 371.1 358.361 370.99 357.511L370.37 352.5C370.32 352.07 370.44 351.661 370.71 351.351C370.98 351.041 371.37 350.87 371.8 350.87C372.65 350.87 373.39 351.531 373.5 352.381L374.12 357.391C374.17 357.821 374.05 358.23 373.78 358.54C373.51 358.85 373.121 359.021 372.691 359.021ZM371.81 351.87C371.67 351.87 371.55 351.921 371.47 352.011C371.39 352.101 371.35 352.231 371.37 352.381L371.99 357.391C372.03 357.731 372.351 358.021 372.691 358.021C372.831 358.021 372.95 357.971 373.03 357.881C373.11 357.791 373.15 357.661 373.13 357.511L372.51 352.5C372.47 352.16 372.15 351.87 371.81 351.87Z" fill="#4E0B2B"/></g><g id="Group_73"><path id="Vector_142" d="M371.22 349.631C371.12 349.631 371.01 349.61 370.91 349.58C370.38 349.41 370.1 348.85 370.27 348.32L372.56 341.24C372.73 340.72 373.29 340.42 373.82 340.6C374.35 340.77 374.63 341.33 374.46 341.86L372.17 348.94C372.03 349.36 371.64 349.631 371.22 349.631V349.631Z" fill="#4E0B2B"/></g><g id="Group_74"><path id="Vector_143" d="M381.35 349.631C381 349.631 380.66 349.451 380.48 349.121L376.45 342.04C376.18 341.56 376.34 340.951 376.83 340.681C377.31 340.411 377.92 340.581 378.19 341.061L382.22 348.141C382.49 348.621 382.33 349.23 381.84 349.5C381.68 349.59 381.51 349.631 381.35 349.631V349.631Z" fill="#4E0B2B"/></g></g></g><g id="Group_75"><g id="Group_76"><path id="Vector_144" d="M740.91 438.931C770.7 438.931 794.85 414.78 794.85 384.99C794.85 355.2 770.7 331.051 740.91 331.051C711.12 331.051 686.97 355.2 686.97 384.99C686.97 414.78 711.12 438.931 740.91 438.931Z" fill="#50BC50"/><path id="Vector_145" d="M740.9 439.931C710.61 439.931 685.96 415.28 685.96 384.99C685.96 354.7 710.61 330.051 740.9 330.051C771.19 330.051 795.84 354.7 795.84 384.99C795.84 415.28 771.19 439.931 740.9 439.931ZM740.9 332.051C711.71 332.051 687.96 355.8 687.96 384.99C687.96 414.18 711.71 437.931 740.9 437.931C770.09 437.931 793.84 414.18 793.84 384.99C793.84 355.8 770.09 332.051 740.9 332.051Z" fill="#50BC50"/></g><g id="Group_77"><g id="Group_78"><path id="Vector_146" d="M768.67 363H713.15C708.356 363 704.47 366.887 704.47 371.681V397.811C704.47 402.604 708.356 406.49 713.15 406.49H768.67C773.464 406.49 777.35 402.604 777.35 397.811V371.681C777.35 366.887 773.464 363 768.67 363Z" fill="#408940"/><path id="Vector_147" d="M768.67 407.49H713.15C707.81 407.49 703.47 403.151 703.47 397.811V371.681C703.47 366.341 707.81 362 713.15 362H768.67C774.01 362 778.35 366.341 778.35 371.681V397.811C778.35 403.151 774.01 407.49 768.67 407.49ZM713.15 364C708.92 364 705.47 367.441 705.47 371.681V397.811C705.47 402.041 708.91 405.49 713.15 405.49H768.67C772.9 405.49 776.35 402.051 776.35 397.811V371.681C776.35 367.451 772.91 364 768.67 364H713.15Z" fill="#408940"/></g><g id="Group_79"><path id="Vector_148" d="M759.1 378H755C752.431 378 750.35 380.082 750.35 382.65C750.35 385.219 752.431 387.301 755 387.301H759.1C761.668 387.301 763.75 385.219 763.75 382.65C763.75 380.082 761.668 378 759.1 378Z" fill="#50BC50"/><path id="Vector_149" d="M759.1 388.301H755C751.88 388.301 749.35 385.77 749.35 382.65C749.35 379.53 751.89 377 755 377H759.1C762.22 377 764.75 379.54 764.75 382.65C764.75 385.76 762.22 388.301 759.1 388.301ZM755 379C752.99 379 751.35 380.64 751.35 382.65C751.35 384.66 752.99 386.301 755 386.301H759.1C761.11 386.301 762.75 384.66 762.75 382.65C762.75 380.64 761.11 379 759.1 379H755Z" fill="#50BC50"/></g><path id="Vector_150" d="M734.55 387.301H714.41C713.493 387.301 712.75 388.041 712.75 388.955C712.75 389.869 713.493 390.61 714.41 390.61H734.55C735.467 390.61 736.21 389.869 736.21 388.955C736.21 388.041 735.467 387.301 734.55 387.301Z" fill="#4E0B2B"/><path id="Vector_151" d="M748.11 394.16H714.41C713.493 394.16 712.75 394.901 712.75 395.815C712.75 396.729 713.493 397.471 714.41 397.471H748.11C749.027 397.471 749.77 396.729 749.77 395.815C749.77 394.901 749.027 394.16 748.11 394.16Z" fill="#4E0B2B"/><g id="Group_80"><path id="Vector_152" d="M766.98 383.961C767.615 383.961 768.13 383.446 768.13 382.811C768.13 382.175 767.615 381.66 766.98 381.66C766.345 381.66 765.83 382.175 765.83 382.811C765.83 383.446 766.345 383.961 766.98 383.961Z" fill="#4E0B2B"/><path id="Vector_153" d="M768.13 385.16C768 385.16 767.88 385.091 767.81 384.971C767.71 384.791 767.77 384.561 767.95 384.461C768.54 384.121 768.91 383.481 768.91 382.801C768.91 382.121 768.54 381.491 767.96 381.141C767.78 381.041 767.72 380.811 767.82 380.631C767.92 380.451 768.15 380.39 768.33 380.49C769.15 380.97 769.66 381.85 769.66 382.79C769.66 383.73 769.15 384.621 768.33 385.091C768.27 385.121 768.21 385.141 768.14 385.141L768.13 385.16Z" fill="#4E0B2B"/><path id="Vector_154" d="M769.04 386.431C768.91 386.431 768.79 386.361 768.72 386.241C768.62 386.061 768.68 385.831 768.86 385.731C769.9 385.131 770.55 384.001 770.55 382.801C770.55 381.601 769.9 380.481 768.86 379.871C768.68 379.771 768.62 379.541 768.72 379.361C768.82 379.181 769.05 379.121 769.23 379.221C770.5 379.961 771.29 381.33 771.29 382.79C771.29 384.25 770.5 385.631 769.23 386.371C769.17 386.401 769.11 386.421 769.04 386.421V386.431Z" fill="#4E0B2B"/></g><path id="Vector_155" d="M755.22 385H750.74C750.46 385 750.24 384.78 750.24 384.5C750.24 384.22 750.46 384 750.74 384H755.22C755.96 384 756.56 383.4 756.56 382.66C756.56 381.37 757.61 380.32 758.9 380.32H763.26C763.54 380.32 763.76 380.54 763.76 380.82C763.76 381.1 763.54 381.32 763.26 381.32H758.9C758.16 381.32 757.56 381.92 757.56 382.66C757.56 383.95 756.51 385 755.22 385Z" fill="white"/><path id="Vector_156" d="M753.87 382.221C753.59 382.221 753.37 382.001 753.37 381.721V378.391C753.37 378.111 753.59 377.891 753.87 377.891C754.15 377.891 754.37 378.111 754.37 378.391V381.721C754.37 382.001 754.15 382.221 753.87 382.221Z" fill="white"/><path id="Vector_157" d="M760.38 387.4C760.1 387.4 759.88 387.18 759.88 386.9V383.57C759.88 383.29 760.1 383.07 760.38 383.07C760.66 383.07 760.88 383.29 760.88 383.57V386.9C760.88 387.18 760.66 387.4 760.38 387.4Z" fill="white"/></g></g><g id="Group_81"><path id="Vector_158" d="M514.23 344.19L503.78 352.171V348.681L514.23 344.19Z" fill="#4E0B2B"/><path id="Vector_159" d="M503.78 353.171C503.63 353.171 503.48 353.141 503.34 353.071C503 352.901 502.78 352.551 502.78 352.171V348.671C502.78 348.271 503.02 347.91 503.39 347.75L513.84 343.271C514.3 343.071 514.84 343.251 515.1 343.681C515.35 344.121 515.24 344.671 514.84 344.981L504.39 352.961C504.21 353.101 504 353.171 503.78 353.171V353.171ZM504.78 349.33V350.141L507.22 348.281L504.78 349.33V349.33Z" fill="#4E0B2B"/></g><g id="Group_82"><path id="Vector_160" d="M546.83 344.19L557.27 352.171V348.681L546.83 344.19Z" fill="#4E0B2B"/><path id="Vector_161" d="M557.27 353.171C557.06 353.171 556.84 353.101 556.66 352.961L546.21 344.981C545.81 344.671 545.7 344.121 545.95 343.681C546.2 343.241 546.75 343.071 547.21 343.271L557.66 347.75C558.03 347.91 558.27 348.271 558.27 348.671V352.171C558.27 352.551 558.05 352.9 557.71 353.07C557.57 353.14 557.42 353.171 557.27 353.171V353.171ZM553.83 348.29L556.27 350.151V349.341L553.83 348.29V348.29Z" fill="#4E0B2B"/></g><g id="Group_83"><g id="Group_84"><path id="Vector_162" d="M602.759 316.11C602.949 316.1 586.199 305.56 569.629 302.04C553.059 298.51 536.479 297.461 536.239 301.761C535.809 305.431 551.449 308.591 566.689 314.631C581.999 320.071 596.909 328.38 596.859 328.41" fill="#D89A89"/><path id="Vector_163" d="M596.29 329.221C595.37 328.641 580.81 320.691 566.34 315.561C561.12 313.491 555.87 311.771 551.24 310.241C541.03 306.881 534.86 304.851 535.23 301.631C535.26 301.131 535.49 300.311 536.4 299.611C540.41 296.541 556.08 298.121 569.82 301.051C578.48 302.891 587.1 306.631 592.81 309.441C596.13 311.071 598.77 312.541 600.4 313.481C603.81 315.451 603.8 315.501 603.75 316.181L602.75 316.111L601.79 315.821L602.75 316.111L602.11 316.87C600.88 315.94 584.81 306.291 569.41 303.011C553.93 299.721 540.56 298.961 537.62 301.211C537.24 301.501 537.23 301.721 537.23 301.811C537.04 303.471 545.26 306.181 551.87 308.351C556.53 309.881 561.81 311.621 567.05 313.691C575 316.511 582.8 320.11 587.94 322.62C597.79 327.44 597.81 327.791 597.85 328.321L596.85 328.401L595.85 328.361L596.85 328.401L596.29 329.231V329.221Z" fill="#D89A89"/></g><g id="Group_85"><path id="Vector_164" d="M598.67 326.931C598.86 326.921 583.03 317.561 567.47 313.401C551.99 308.641 535.84 308.711 535.4 312.961C534.81 316.601 549.56 319.791 563.98 325.761C578.47 331.141 592.62 339.281 592.57 339.321" fill="#D89A89"/><path id="Vector_165" d="M591.99 340.131C591.13 339.561 577.47 331.83 563.63 326.7C558.82 324.71 553.97 323.03 549.7 321.54C539.84 318.12 533.89 316.051 534.42 312.801C534.48 312.231 534.8 311.331 535.96 310.561C540.45 307.591 554.72 308.43 567.77 312.44C575.86 314.6 583.96 318.16 589.32 320.77C599.79 325.86 599.72 326.51 599.67 327.03L598.68 326.931L597.72 326.65L598.68 326.931L598.06 327.711C597.09 327.021 581.98 318.31 567.22 314.36C553.77 310.23 540.55 309.921 537.06 312.221C536.65 312.491 536.43 312.771 536.39 313.061C536.12 314.711 544.01 317.451 550.35 319.641C554.65 321.131 559.52 322.82 564.36 324.82C571.89 327.61 579.28 331.15 584.14 333.62C593.46 338.35 593.5 338.71 593.56 339.19L592.57 339.301L591.99 340.12V340.131Z" fill="#D89A89"/></g><g id="Group_86"><path id="Vector_166" d="M593.97 339.31C594.16 339.31 579.031 329.58 564.291 325.48C549.631 320.81 534.281 320.8 533.621 325C532.851 328.59 546.67 331.76 560.22 337.56C573.84 342.81 587.201 350.7 587.151 350.73" fill="#D89A89"/><path id="Vector_167" d="M586.56 351.551C585.8 351.031 572.78 343.481 559.86 338.511C555.46 336.631 551.04 335.021 547.14 333.601C537.66 330.161 531.94 328.081 532.65 324.801C532.78 323.931 533.36 323.161 534.35 322.551C538.86 319.761 552.43 320.651 564.6 324.531C572.27 326.661 579.98 330.31 585.1 333C595.1 338.25 595.02 338.961 594.97 339.431C594.91 339.921 594.51 340.301 594.02 340.321C593.75 340.341 593.49 340.231 593.29 340.051C592.05 339.141 577.74 330.271 564.03 326.461C551.32 322.411 538.98 322.051 535.4 324.261C534.93 324.551 534.67 324.861 534.62 325.181C534.27 326.811 541.79 329.541 547.83 331.731C551.76 333.161 556.21 334.771 560.62 336.671C567.7 339.401 574.66 342.831 579.25 345.221C588.05 349.821 588.09 350.161 588.15 350.641L587.16 350.761L586.57 351.561L586.56 351.551Z" fill="#D89A89"/></g><g id="Group_87"><path id="Vector_168" d="M589.141 349.99C589.291 349.99 576.111 341.381 563.401 337.551C550.751 333.261 537.421 332.9 536.411 337.04C535.401 340.56 547.091 343.961 558.651 349.321C570.271 354.241 582.48 360.281 582.45 360.311" fill="#D89A89"/><path id="Vector_169" d="M581.94 361.171C581.34 360.831 569.45 354.98 558.27 350.25C555.11 348.78 551.9 347.451 549.07 346.261C540.28 342.601 534.48 340.181 535.46 336.761C535.68 335.831 536.35 335.041 537.44 334.441C541.78 332.051 553.08 332.981 563.73 336.591C570.35 338.591 577.05 341.871 581.5 344.281C590.3 349.031 590.22 349.571 590.14 350.131L589.15 349.981L588.2 349.661L589.15 349.981L588.51 350.741C587.55 350.001 575.04 342.081 563.12 338.491C551.92 334.691 541.77 334.331 538.4 336.181C537.83 336.501 537.48 336.861 537.39 337.261C536.89 339.001 543.77 341.871 549.83 344.401C552.68 345.591 555.91 346.931 559.08 348.401C565.16 350.971 571.28 353.801 575.33 355.721C580.65 358.235 583.354 359.694 583.44 360.101L582.46 360.311L581.47 360.461L582.46 360.311L581.94 361.161V361.171Z" fill="#D89A89"/></g><path id="Vector_170" d="M544.77 306.56C542.19 306.56 539.6 305.92 539.16 305.81C538.63 305.67 538.3 305.131 538.44 304.591C538.58 304.051 539.11 303.73 539.66 303.87C541.98 304.46 546.25 305.01 547.84 303.94C548.18 303.71 548.36 303.441 548.41 303.051C548.46 302.721 548.37 302.46 548.14 302.2C546.86 300.77 542.12 300.35 539.44 300.44C538.91 300.44 538.43 300.021 538.41 299.471C538.39 298.921 538.83 298.46 539.38 298.44C540.19 298.42 547.31 298.28 549.63 300.87C550.25 301.57 550.52 302.42 550.39 303.33C550.26 304.27 549.76 305.06 548.95 305.6C547.88 306.32 546.33 306.551 544.77 306.551V306.56Z" fill="#4E0B2B"/><path id="Vector_171" d="M542.76 317.631C541.27 317.631 539.71 317.42 538.36 317.16C538.16 317.12 537.98 317.031 537.84 316.881C537.45 316.491 537.45 315.851 537.84 315.461C538.1 315.201 538.48 315.11 538.81 315.2C542.15 315.83 544.77 315.74 545.84 314.98C546.15 314.76 546.32 314.49 546.37 314.12C546.42 313.74 546.34 313.431 546.1 313.131C545.35 312.181 543.14 311.45 540.19 311.16C539.97 311.16 539.74 311.081 539.56 310.931C539.14 310.581 539.08 309.951 539.43 309.521C539.61 309.311 539.86 309.19 540.11 309.16C540.18 309.16 540.24 309.16 540.31 309.16C542.87 309.41 546.23 310.081 547.66 311.891C548.23 312.621 548.47 313.48 548.34 314.4C548.21 315.31 547.75 316.07 547 316.61C545.95 317.36 544.4 317.62 542.75 317.62L542.76 317.631Z" fill="#4E0B2B"/><path id="Vector_172" d="M541.17 329.721C539.34 329.721 537.43 329.391 536.11 329.101C535.57 328.981 535.23 328.45 535.35 327.91C535.47 327.37 536 327.03 536.54 327.15C539.21 327.73 542.83 328.071 544.25 327.091C544.58 326.861 544.74 326.591 544.8 326.221C544.85 325.841 544.77 325.53 544.53 325.23C543.77 324.27 541.49 323.52 538.45 323.24C537.9 323.19 537.49 322.7 537.55 322.15C537.6 321.6 538.08 321.19 538.64 321.25C541.24 321.49 544.65 322.16 546.1 323.99C546.68 324.72 546.91 325.58 546.79 326.5C546.66 327.42 546.18 328.2 545.4 328.74C544.33 329.48 542.78 329.73 541.18 329.73L541.17 329.721Z" fill="#4E0B2B"/><path id="Vector_173" d="M543.83 342.16C542 342.16 539.95 341.691 538.27 341.171C538.11 341.121 537.97 341.041 537.85 340.921C537.46 340.531 537.46 339.89 537.85 339.5C538.14 339.21 538.56 339.141 538.92 339.271C542.11 340.231 544.68 340.421 545.81 339.771C546.15 339.581 546.34 339.32 546.43 338.95C546.52 338.56 546.47 338.231 546.26 337.901C545.62 336.891 543.63 335.96 540.79 335.36C540.25 335.24 539.91 334.711 540.02 334.171C540.14 333.631 540.67 333.291 541.21 333.401C544.72 334.151 546.99 335.3 547.95 336.83C548.45 337.61 548.59 338.51 548.37 339.41C548.16 340.31 547.61 341.03 546.8 341.5C545.99 341.97 544.95 342.151 543.82 342.151L543.83 342.16Z" fill="#4E0B2B"/><path id="Vector_174" d="M589.14 322.771C588.98 322.771 588.82 322.73 588.68 322.66C564.49 309.97 547.19 309.851 546.84 309.851C546.29 309.851 545.84 309.41 545.84 308.86C545.84 308.31 546.28 307.861 546.83 307.851C547.52 307.851 564.86 307.901 589.62 320.891C590.11 321.151 590.3 321.75 590.04 322.24C589.86 322.58 589.51 322.78 589.15 322.78L589.14 322.771Z" fill="#4E0B2B"/><path id="Vector_175" d="M584.68 333.36C584.52 333.36 584.36 333.32 584.22 333.25C559.94 320.51 544.89 321.55 544.74 321.56C544.18 321.6 543.71 321.19 543.66 320.64C543.61 320.09 544.03 319.61 544.58 319.56C545.22 319.51 560.36 318.47 585.15 331.47C585.64 331.73 585.83 332.33 585.57 332.82C585.39 333.16 585.04 333.36 584.68 333.36V333.36Z" fill="#4E0B2B"/><path id="Vector_176" d="M583.161 346.091C583.001 346.091 582.84 346.05 582.7 345.98C558.65 333.37 543.89 333.24 543.5 333.24H543.48C542.93 333.24 542.48 332.8 542.48 332.25C542.48 331.7 542.92 331.25 543.47 331.24C544.05 331.24 558.861 331.221 583.621 344.211C584.111 344.471 584.301 345.071 584.041 345.561C583.861 345.901 583.511 346.101 583.151 346.101L583.161 346.091Z" fill="#4E0B2B"/></g><g id="Group_88"><g id="Group_89"><path id="Vector_177" d="M458.38 316.03C458.19 316.02 470.67 308.23 491.4 302.04C507.64 297.19 524.55 297.46 524.79 301.76C525.22 305.43 509.58 308.59 494.34 314.63C479.03 320.07 464.12 328.38 464.17 328.41" fill="#D89A89"/><path id="Vector_178" d="M464.74 329.22L464.22 328.39H464.18L463.18 328.31C463.22 327.78 463.25 327.44 473.09 322.61C478.23 320.09 486.03 316.5 494.01 313.66C499.22 311.6 504.5 309.86 509.15 308.33C515.76 306.16 523.98 303.45 523.8 301.85C523.78 301.53 523.58 301.27 523.21 301.01C519.7 298.54 505.47 298.86 491.68 302.98C472.82 308.61 460.45 315.75 459.07 316.74C458.87 316.93 458.6 317.03 458.31 317.02C457.83 316.99 457.43 316.61 457.38 316.13C457.32 315.62 457.24 314.91 466.73 310.38C471.91 307.91 480.34 304.28 491.11 301.07C504.67 297.02 519.89 296.25 524.36 299.38C525.48 300.17 525.75 301.07 525.79 301.69C526.16 304.86 519.99 306.88 509.78 310.24C505.15 311.76 499.9 313.49 494.71 315.54C480.23 320.68 465.66 328.63 464.73 329.22H464.74Z" fill="#D89A89"/></g><g id="Group_90"><path id="Vector_179" d="M462.44 327.641C462.25 327.631 477.99 317.561 493.56 313.401C509.04 308.641 525.19 308.711 525.63 312.961C526.22 316.601 511.47 319.791 497.05 325.761C482.56 331.141 468.41 339.281 468.46 339.321" fill="#D89A89"/><path id="Vector_180" d="M469.04 340.13L468.5 339.31H468.46L467.47 339.2C467.52 338.71 467.56 338.36 476.89 333.63C481.76 331.16 489.15 327.63 496.71 324.82C501.51 322.83 506.381 321.14 510.681 319.65C517.021 317.45 524.911 314.71 524.651 313.12C524.611 312.78 524.39 312.5 523.98 312.23C520.5 309.92 507.27 310.23 493.86 314.36C479.24 318.27 464.07 327.65 463.1 328.4L462.5 327.63L462.45 327.65L461.46 327.75C461.41 327.3 461.34 326.54 471.75 321.15C477.1 318.38 485.18 314.62 493.32 312.45C506.33 308.45 520.6 307.61 525.09 310.58C526.25 311.35 526.58 312.25 526.64 312.88C527.16 316.08 521.21 318.14 511.35 321.56C507.08 323.04 502.23 324.72 497.45 326.7C483.58 331.85 469.92 339.58 469.06 340.15L469.04 340.13Z" fill="#D89A89"/></g><g id="Group_91"><path id="Vector_181" d="M466.79 338.7C466.6 338.7 482 329.58 496.74 325.49C511.4 320.82 526.75 320.811 527.41 325.011C528.18 328.601 514.36 331.77 500.81 337.57C487.19 342.82 473.83 350.71 473.88 350.74" fill="#D89A89"/><path id="Vector_182" d="M474.47 351.551L473.88 350.75L472.89 350.631C472.95 350.161 472.99 349.811 481.79 345.211C486.38 342.811 493.33 339.381 500.45 336.641C504.83 334.761 509.28 333.151 513.21 331.721C519.25 329.531 526.77 326.801 526.43 325.221C526.37 324.851 526.11 324.54 525.64 324.25C522.06 322.04 509.72 322.4 497.05 326.44C483.18 330.3 468.31 338.84 467.42 339.48L466.85 338.681H466.8L465.81 338.81C465.75 338.25 465.68 337.671 475.84 332.681C481.01 330.141 488.79 326.66 496.49 324.52C508.62 320.65 522.19 319.761 526.7 322.551C527.69 323.161 528.26 323.94 528.41 324.86C529.1 328.09 523.38 330.16 513.91 333.61C510.01 335.03 505.58 336.63 501.22 338.5C488.27 343.49 475.25 351.04 474.49 351.56L474.47 351.551Z" fill="#D89A89"/></g><g id="Group_92"><path id="Vector_183" d="M471.97 349.75C471.82 349.75 484.91 341.37 497.62 337.54C510.27 333.25 523.6 332.89 524.61 337.03C525.62 340.55 513.93 343.95 502.37 349.31C490.75 354.23 478.54 360.271 478.57 360.301" fill="#D89A89"/><path id="Vector_184" d="M479.09 361.171L478.57 360.321L477.59 360.111C477.677 359.711 480.38 358.251 485.7 355.731C489.76 353.811 495.87 350.981 501.98 348.401C505.11 346.941 508.34 345.6 511.19 344.41C517.26 341.88 524.13 339.021 523.65 337.311C523.54 336.871 523.2 336.511 522.63 336.191C519.26 334.341 509.11 334.69 497.95 338.49C485.98 342.1 473.56 349.811 472.61 350.521L472.02 349.731H471.98L470.99 349.891C470.9 349.311 470.83 348.801 479.59 344.151C484.02 341.801 490.69 338.581 497.34 336.571C507.95 332.971 519.26 332.041 523.6 334.431C524.69 335.031 525.36 335.82 525.59 336.79C526.56 340.17 520.76 342.58 511.97 346.25C509.14 347.43 505.93 348.771 502.8 350.221C491.58 354.971 479.69 360.82 479.1 361.16L479.09 361.171Z" fill="#D89A89"/></g><path id="Vector_185" d="M516.259 306.561C514.699 306.561 513.149 306.33 512.079 305.61C511.269 305.07 510.77 304.281 510.64 303.341C510.5 302.371 510.77 301.461 511.42 300.711C513.6 298.171 519.71 298 520.4 297.99H520.42C520.96 297.99 521.41 298.431 521.42 298.971C521.42 299.521 520.99 299.98 520.44 299.99C518.18 300.03 514.149 300.611 512.949 302.011C512.679 302.331 512.58 302.651 512.64 303.061C512.69 303.451 512.869 303.72 513.209 303.95C514.789 305.01 519.07 304.471 521.38 303.881C521.92 303.741 522.459 304.071 522.599 304.601C522.739 305.131 522.41 305.68 521.88 305.82C521.44 305.93 518.849 306.57 516.269 306.57L516.259 306.561Z" fill="#4E0B2B"/><path id="Vector_186" d="M518.27 317.631C516.62 317.631 515.07 317.37 514.02 316.62C513.27 316.08 512.8 315.32 512.68 314.41C512.55 313.49 512.79 312.62 513.36 311.9C514.79 310.09 518.15 309.421 520.71 309.171C520.78 309.171 520.84 309.171 520.91 309.171C521.17 309.191 521.41 309.31 521.59 309.53C521.94 309.95 521.89 310.59 521.46 310.94C521.28 311.09 521.05 311.171 520.83 311.171C517.87 311.461 515.67 312.201 514.92 313.141C514.68 313.441 514.6 313.761 514.65 314.141C514.7 314.511 514.87 314.77 515.18 315C516.25 315.77 518.9 315.851 522.26 315.211C522.59 315.131 522.94 315.22 523.19 315.48C523.58 315.87 523.58 316.501 523.19 316.891C523.05 317.031 522.86 317.131 522.66 317.171C521.31 317.431 519.75 317.641 518.26 317.641L518.27 317.631Z" fill="#4E0B2B"/><path id="Vector_187" d="M519.859 329.721C518.259 329.721 516.709 329.471 515.639 328.731C514.859 328.191 514.379 327.421 514.249 326.491C514.119 325.571 514.359 324.701 514.939 323.981C516.389 322.151 519.799 321.481 522.399 321.241C522.949 321.191 523.439 321.591 523.489 322.141C523.539 322.691 523.139 323.181 522.589 323.231C519.549 323.511 517.279 324.251 516.509 325.221C516.269 325.521 516.189 325.841 516.239 326.211C516.289 326.591 516.459 326.85 516.789 327.08C518.209 328.07 521.829 327.731 524.499 327.141C525.039 327.021 525.569 327.361 525.689 327.901C525.809 328.441 525.469 328.971 524.929 329.091C523.599 329.381 521.699 329.711 519.869 329.711L519.859 329.721Z" fill="#4E0B2B"/><path id="Vector_188" d="M517.19 342.16C516.06 342.16 515.02 341.981 514.21 341.511C513.4 341.051 512.86 340.321 512.64 339.421C512.42 338.521 512.57 337.631 513.06 336.841C514.03 335.311 516.3 334.15 519.8 333.41C520.35 333.3 520.87 333.641 520.99 334.181C521.1 334.721 520.76 335.25 520.22 335.37C517.38 335.97 515.39 336.9 514.75 337.91C514.54 338.24 514.49 338.571 514.58 338.961C514.67 339.341 514.86 339.59 515.2 339.78C516.33 340.43 518.93 340.241 522.13 339.271C522.51 339.141 522.95 339.25 523.22 339.58C523.57 340 523.52 340.63 523.1 340.99C523 341.07 522.87 341.141 522.74 341.181C521.06 341.691 519 342.171 517.18 342.171L517.19 342.16Z" fill="#4E0B2B"/><path id="Vector_189" d="M470.469 322.771C470.109 322.771 469.759 322.581 469.579 322.231C469.319 321.741 469.509 321.141 469.999 320.881C494.779 307.891 512.059 307.811 512.789 307.841C513.339 307.841 513.789 308.291 513.779 308.841C513.779 309.391 513.329 309.841 512.779 309.841C512.489 309.841 495.12 309.961 470.93 322.651C470.78 322.731 470.619 322.761 470.469 322.761V322.771Z" fill="#4E0B2B"/><path id="Vector_190" d="M474.93 333.36C474.57 333.36 474.219 333.17 474.039 332.82C473.779 332.33 473.969 331.73 474.459 331.47C499.249 318.47 514.389 319.51 515.029 319.56C515.579 319.6 515.989 320.09 515.949 320.64C515.909 321.19 515.42 321.6 514.88 321.56C514.73 321.55 499.61 320.55 475.4 333.25C475.25 333.33 475.09 333.36 474.94 333.36H474.93Z" fill="#4E0B2B"/><path id="Vector_191" d="M476.46 346.09C476.1 346.09 475.75 345.9 475.57 345.55C475.31 345.06 475.5 344.46 475.99 344.2C500.75 331.21 515.55 331.22 516.14 331.23C516.69 331.23 517.13 331.69 517.13 332.24C517.13 332.79 516.68 333.23 516.13 333.23H516.11C515.72 333.23 500.96 333.36 476.91 345.97C476.76 346.05 476.6 346.08 476.45 346.08L476.46 346.09Z" fill="#4E0B2B"/></g><path id="Vector_192" d="M720.03 192.57H695.54C694.99 192.57 694.54 192.12 694.54 191.57C694.54 191.02 694.99 190.57 695.54 190.57H720.03C720.58 190.57 721.03 191.02 721.03 191.57C721.03 192.12 720.58 192.57 720.03 192.57Z" fill="#FFDEDA"/><path id="Vector_193" d="M694.35 192.57H655.29C654.74 192.57 654.29 192.12 654.29 191.57C654.29 191.02 654.74 190.57 655.29 190.57H694.35C694.9 190.57 695.35 191.02 695.35 191.57C695.35 192.12 694.9 192.57 694.35 192.57Z" fill="#4E0B2B"/><g id="Group_93"><path id="Vector_194" d="M638.08 395.87L665.58 404.131L667.5 395.461L638.08 395.87Z" fill="#4E0B2B"/><path id="Vector_195" d="M665.58 405.131C665.48 405.131 665.39 405.121 665.29 405.091L637.79 396.83C637.32 396.69 637.02 396.22 637.09 395.73C637.16 395.24 637.57 394.88 638.07 394.87L667.48 394.45C667.75 394.45 668.08 394.58 668.27 394.82C668.46 395.06 668.54 395.371 668.47 395.671L666.55 404.341C666.49 404.611 666.32 404.85 666.08 404.99C665.93 405.08 665.75 405.131 665.57 405.131H665.58ZM644.58 396.78L664.83 402.86L666.24 396.471L644.58 396.78Z" fill="#4E0B2B"/></g><g id="Group_94"><path id="Vector_196" d="M418.79 395.49L395.71 405.2L393.53 395.49H418.79Z" fill="#4E0B2B"/><path id="Vector_197" d="M395.71 406.2C395.55 406.2 395.39 406.161 395.25 406.091C394.99 405.951 394.8 405.711 394.73 405.421L392.56 395.711C392.49 395.411 392.56 395.1 392.76 394.87C392.95 394.63 393.24 394.49 393.54 394.49H418.8C419.28 394.49 419.69 394.83 419.78 395.29C419.87 395.76 419.63 396.22 419.19 396.41L396.1 406.12C395.98 406.17 395.84 406.2 395.71 406.2ZM394.79 396.49L396.43 403.811L413.84 396.49H394.79V396.49Z" fill="#4E0B2B"/></g><g id="Group_95"><path id="Vector_198" d="M577.811 359.82L583.331 362.511L576.73 365.591L577.811 359.82Z" fill="#4E0B2B"/><path id="Vector_199" d="M576.73 366.59C576.51 366.59 576.3 366.52 576.12 366.38C575.82 366.15 575.68 365.77 575.75 365.41L576.83 359.64C576.89 359.33 577.08 359.07 577.36 358.93C577.64 358.79 577.97 358.79 578.25 358.93L583.77 361.61C584.12 361.78 584.34 362.13 584.33 362.52C584.32 362.91 584.1 363.25 583.75 363.42L577.15 366.51C577.01 366.57 576.87 366.6 576.73 366.6V366.59ZM578.55 361.29L578.07 363.86L581.01 362.49L578.55 361.3V361.29Z" fill="#4E0B2B"/></g><g id="Group_96"><path id="Vector_200" d="M483.25 359.82L477.729 362.511L484.33 365.591L483.25 359.82Z" fill="#4E0B2B"/><path id="Vector_201" d="M484.33 366.591C484.19 366.591 484.04 366.56 483.91 366.5L477.31 363.41C476.96 363.25 476.74 362.9 476.73 362.51C476.72 362.12 476.95 361.77 477.29 361.6L482.81 358.921C483.09 358.781 483.42 358.791 483.7 358.921C483.98 359.061 484.18 359.321 484.23 359.631L485.31 365.4C485.38 365.77 485.24 366.14 484.94 366.37C484.76 366.51 484.55 366.58 484.33 366.58V366.591ZM480.05 362.49L482.99 363.86L482.51 361.29L480.05 362.48V362.49Z" fill="#4E0B2B"/></g><g id="Group_97"><g id="Group_98"><path id="Vector_202" d="M339.81 504.48C369.6 504.48 393.75 480.33 393.75 450.54C393.75 420.75 369.6 396.601 339.81 396.601C310.02 396.601 285.87 420.75 285.87 450.54C285.87 480.33 310.02 504.48 339.81 504.48Z" fill="#408940"/><path id="Vector_203" d="M339.81 505.48C309.52 505.48 284.87 480.83 284.87 450.54C284.87 420.25 309.52 395.601 339.81 395.601C370.1 395.601 394.75 420.25 394.75 450.54C394.75 480.83 370.1 505.48 339.81 505.48ZM339.81 397.601C310.62 397.601 286.87 421.35 286.87 450.54C286.87 479.73 310.62 503.48 339.81 503.48C369 503.48 392.75 479.73 392.75 450.54C392.75 421.35 369 397.601 339.81 397.601Z" fill="#408940"/></g><g id="Group_99"><g id="Group_100"><path id="Vector_204" d="M368.22 476.131H311.4V439.431L339.81 418.961L368.22 439.431V476.131Z" fill="#FFD2DC"/><path id="Vector_205" d="M368.22 477.131H311.4C310.85 477.131 310.4 476.681 310.4 476.131V439.421C310.4 439.101 310.55 438.8 310.82 438.61L339.23 418.141C339.58 417.891 340.05 417.891 340.4 418.141L368.81 438.61C369.07 438.8 369.23 439.101 369.23 439.421V476.131C369.23 476.681 368.78 477.131 368.23 477.131H368.22ZM312.4 475.131H367.22V439.94L339.81 420.19L312.4 439.94V475.131V475.131Z" fill="#FFD2DC"/></g><path id="Vector_206" d="M374.92 445.25C374.72 445.25 374.51 445.191 374.34 445.061L339.81 420.181L305.28 445.061C304.83 445.381 304.21 445.28 303.88 444.83C303.56 444.38 303.66 443.761 304.11 443.431L339.22 418.131C339.57 417.881 340.04 417.881 340.39 418.131L375.5 443.431C375.95 443.751 376.05 444.38 375.73 444.83C375.53 445.1 375.23 445.25 374.92 445.25Z" fill="#4E0B2B"/><g id="Group_101"><path id="Vector_207" d="M339.811 449.131C345.511 449.131 350.131 453.76 350.131 459.45V476.131H329.48V459.45C329.48 453.75 334.111 449.131 339.801 449.131H339.811Z" fill="#4E0B2B"/><path id="Vector_208" d="M350.14 477.131H329.49C328.94 477.131 328.49 476.681 328.49 476.131V459.45C328.49 453.21 333.57 448.131 339.81 448.131C346.05 448.131 351.13 453.21 351.13 459.45V476.131C351.13 476.681 350.68 477.131 350.13 477.131H350.14ZM330.49 475.131H349.14V459.45C349.14 454.31 344.96 450.131 339.82 450.131C334.68 450.131 330.5 454.31 330.5 459.45V475.131H330.49Z" fill="#4E0B2B"/></g><g id="Group_102"><path id="Vector_209" d="M339.81 442.03C342.909 442.03 345.42 439.519 345.42 436.421C345.42 433.323 342.909 430.811 339.81 430.811C336.712 430.811 334.2 433.323 334.2 436.421C334.2 439.519 336.712 442.03 339.81 442.03Z" fill="#4E0B2B"/><path id="Vector_210" d="M339.81 443.03C336.16 443.03 333.2 440.061 333.2 436.421C333.2 432.781 336.17 429.811 339.81 429.811C343.45 429.811 346.42 432.781 346.42 436.421C346.42 440.061 343.45 443.03 339.81 443.03ZM339.81 431.801C337.27 431.801 335.2 433.87 335.2 436.41C335.2 438.95 337.27 441.021 339.81 441.021C342.35 441.021 344.42 438.95 344.42 436.41C344.42 433.87 342.35 431.801 339.81 431.801Z" fill="#4E0B2B"/></g></g></g><g id="Group_103"><g id="Group_104"><path id="Vector_211" d="M506.32 190.061C536.712 190.061 561.35 165.423 561.35 135.03C561.35 104.638 536.712 80 506.32 80C475.928 80 451.29 104.638 451.29 135.03C451.29 165.423 475.928 190.061 506.32 190.061Z" fill="#E85666"/><path id="Vector_212" d="M506.32 191.07C475.42 191.07 450.29 165.93 450.29 135.03C450.29 104.13 475.43 79 506.32 79C537.21 79 562.36 104.14 562.36 135.03C562.36 165.92 537.22 191.07 506.32 191.07ZM506.32 81C476.53 81 452.29 105.24 452.29 135.03C452.29 164.82 476.53 189.07 506.32 189.07C536.11 189.07 560.36 164.83 560.36 135.03C560.36 105.23 536.12 81 506.32 81Z" fill="#E85666"/></g><g id="Group_105"><path id="Vector_213" d="M517.52 123.091C517.52 123.091 517.44 123.091 517.4 123.091C516.85 123.021 516.46 122.52 516.53 121.98L518 109.99C518.22 108.23 517.74 106.581 516.65 105.351C515.58 104.141 514.03 103.471 512.29 103.471C508.57 103.471 505.17 106.5 504.71 110.23L503.24 122.221C503.17 122.771 502.68 123.171 502.13 123.091C501.58 123.021 501.19 122.52 501.26 121.98L502.73 109.99C503.31 105.29 507.6 101.471 512.3 101.471C514.62 101.471 516.7 102.381 518.16 104.021C519.63 105.681 520.28 107.89 520 110.23L518.53 122.221C518.47 122.731 518.04 123.101 517.54 123.101L517.52 123.091Z" fill="white"/><g id="Group_106"><path id="Vector_214" d="M536.19 161.771H492.2L498.78 117.181H527.4L536.19 161.771Z" fill="#4E0B2B"/><path id="Vector_215" d="M536.19 162.771H492.2C491.91 162.771 491.63 162.641 491.44 162.421C491.25 162.201 491.16 161.91 491.21 161.62L497.8 117.03C497.87 116.54 498.29 116.181 498.79 116.181H527.41C527.89 116.181 528.3 116.52 528.39 116.99L537.17 161.58C537.23 161.87 537.15 162.18 536.96 162.41C536.77 162.64 536.49 162.78 536.19 162.78V162.771ZM493.36 160.771H534.98L526.59 118.181H499.65L493.36 160.771Z" fill="#4E0B2B"/></g><g id="Group_107"><path id="Vector_216" d="M520.44 161.771H476.45L483.04 117.181H513.86L520.44 161.771Z" fill="#FFD2DC"/><path id="Vector_217" d="M520.44 162.771H476.45C476.16 162.771 475.88 162.641 475.69 162.421C475.5 162.201 475.41 161.91 475.46 161.62L482.05 117.03C482.12 116.54 482.54 116.181 483.04 116.181H513.86C514.36 116.181 514.78 116.54 514.85 117.03L521.44 161.62C521.48 161.91 521.4 162.201 521.21 162.421C521.02 162.641 520.74 162.771 520.45 162.771H520.44ZM477.61 160.771H519.28L512.99 118.181H483.9L477.61 160.771Z" fill="#FFD2DC"/></g><g id="Group_108"><path id="Vector_218" d="M491.65 124.101C492.319 124.101 492.86 123.559 492.86 122.891C492.86 122.222 492.319 121.681 491.65 121.681C490.982 121.681 490.44 122.222 490.44 122.891C490.44 123.559 490.982 124.101 491.65 124.101Z" fill="#4E0B2B"/><path id="Vector_219" d="M491.65 125.091C490.43 125.091 489.44 124.101 489.44 122.881C489.44 121.661 490.43 120.671 491.65 120.671C492.87 120.671 493.86 121.661 493.86 122.881C493.86 124.101 492.87 125.091 491.65 125.091ZM491.65 122.681C491.54 122.681 491.44 122.771 491.44 122.891C491.44 123.121 491.85 123.121 491.85 122.891C491.85 122.781 491.76 122.681 491.64 122.681H491.65Z" fill="#4E0B2B"/></g><g id="Group_109"><path id="Vector_220" d="M506.93 124.101C507.598 124.101 508.14 123.559 508.14 122.891C508.14 122.222 507.598 121.681 506.93 121.681C506.262 121.681 505.72 122.222 505.72 122.891C505.72 123.559 506.262 124.101 506.93 124.101Z" fill="#4E0B2B"/><path id="Vector_221" d="M506.93 125.091C505.71 125.091 504.72 124.101 504.72 122.881C504.72 121.661 505.71 120.671 506.93 120.671C508.15 120.671 509.14 121.661 509.14 122.881C509.14 124.101 508.15 125.091 506.93 125.091ZM506.93 122.681C506.82 122.681 506.72 122.771 506.72 122.891C506.72 123.121 507.13 123.121 507.13 122.891C507.13 122.781 507.04 122.681 506.92 122.681H506.93Z" fill="#4E0B2B"/></g><path id="Vector_222" d="M506.921 123.091C506.421 123.091 505.991 122.721 505.931 122.211L504.46 110.221C504 106.491 500.601 103.461 496.881 103.461C495.141 103.461 493.59 104.131 492.52 105.341C491.43 106.571 490.961 108.21 491.171 109.98L492.641 121.971C492.711 122.521 492.32 123.02 491.77 123.08C491.2 123.16 490.721 122.761 490.661 122.211L489.191 110.221C488.901 107.881 489.55 105.681 491.03 104.011C492.49 102.361 494.571 101.461 496.891 101.461C501.591 101.461 505.88 105.28 506.46 109.98L507.931 121.971C508.001 122.521 507.61 123.02 507.06 123.08C507.02 123.08 506.981 123.08 506.941 123.08L506.921 123.091Z" fill="white"/></g></g><path id="Vector_223" d="M706.89 173.53H670.78C670.23 173.53 669.78 173.08 669.78 172.53C669.78 171.98 670.23 171.53 670.78 171.53H706.89C707.44 171.53 707.89 171.98 707.89 172.53C707.89 173.08 707.44 173.53 706.89 173.53Z" fill="#4E0B2B"/><path id="Vector_224" d="M778.04 1001.18H247C246.45 1001.18 246 1000.73 246 1000.18C246 999.631 246.45 999.181 247 999.181H778.04C778.59 999.181 779.04 999.631 779.04 1000.18C779.04 1000.73 778.59 1001.18 778.04 1001.18Z" fill="#4E0B2B"/></g></g></svg>