<svg viewBox="120 37.5 329.99999999999994 562.5" fill="none" xmlns="http://www.w3.org/2000/svg" xmlns:xlink="http://www.w3.org/1999/xlink" overflow="visible" width="329.99999999999994px" height="562.5px"><g id="Master/Hands/Show"><g id="base"><path id="Path" d="M439.61 240.732C426.519 229.687 406.456 229.461 389.738 238.02C388.533 238.639 387.291 239.299 385.963 240.023C381.599 233.952 371.682 232.643 363.058 234.927C359.602 235.846 355.474 237.376 350.455 239.522C349.067 240.115 347.616 240.753 346.041 241.461C343.953 242.399 337.088 245.558 335.87 246.106C330.21 248.646 324.468 251.278 316.218 255.099C315.423 255.467 314.59 255.853 313.636 256.295C301.811 261.777 301.367 261.982 297.006 263.982C284.344 269.789 266.342 278.971 253.693 286.055C250.154 288.044 244.204 291.479 236.51 295.962L236.207 296.139C231.726 298.75 226.945 301.548 222.176 304.346C220.507 305.325 218.959 306.234 217.57 307.05C217.269 307.227 217.044 307.36 216.794 307.507C214.776 306.425 210.759 304.272 209.42 303.556C205.965 301.707 203.09 300.175 200.311 298.705C199.442 298.246 198.594 297.798 197.762 297.36C189.965 293.257 183.556 289.989 178.255 287.447C165.151 281.155 159.812 279.021 152.789 277.992C148.33 277.338 144.085 277.502 139.895 278.572C130.074 281.078 126.459 292.743 132.314 302.741C135.79 308.668 140.15 313.524 148.851 321.936C148.913 321.995 151.437 324.431 152.157 325.129C153.401 326.336 154.414 327.331 155.366 328.285C156.287 329.209 157.129 330.073 157.918 330.905C158.711 331.746 163.186 336.451 164.477 337.825C176.712 350.843 183.035 359.63 186.001 369.695C190.694 385.635 191.83 401.728 191.83 432.29C191.83 440.553 192.033 460.33 192.382 488.135C192.423 491.402 192.466 494.752 192.51 498.176C192.659 509.685 192.818 571.519 192.978 583.022C193.033 587.048 193.085 590.745 193.132 594.031C193.148 595.181 193.162 596.198 193.175 597.071C193.187 597.954 193.187 597.954 193.19 598.139C193.206 599.232 194.097 600.11 195.19 600.11H368.52C369.636 600.11 370.536 599.197 370.52 598.081C370.509 597.305 370.509 597.305 370.459 593.813C370.41 590.418 370.356 586.635 370.297 582.561C370.13 570.921 369.963 509.281 369.807 498.417L369.803 498.108C369.522 478.603 369.309 463.834 369.19 455.691C369.051 447.24 368.777 438.383 368.365 428.377C368.048 420.687 367.744 414.286 367.076 400.856C366.275 384.721 365.944 377.711 365.615 369.195C365.93 368.912 366.282 368.597 366.668 368.251C368.065 366.998 369.622 365.596 371.298 364.079C376.087 359.744 380.876 355.353 385.348 351.173C385.89 350.667 386.425 350.166 386.952 349.67C394.846 342.253 400.663 336.494 403.695 332.976C405.638 330.72 407.761 328.371 410.285 325.666C411.464 324.403 412.701 323.093 414.261 321.451C414.93 320.747 417.627 317.916 418.305 317.203C431.688 303.124 438.443 294.9 443.882 284.766C447.205 278.607 446.675 271.093 442.44 266.459C449.011 258.408 447.249 247.179 439.61 240.732Z" fill="#564634"/><path id="Path" d="M265.321 388.997C266.072 388.955 266.619 388.911 268.07 388.784C268.94 388.708 269.392 388.671 269.903 388.634C272.251 388.467 273.895 388.506 275.316 388.822C276.394 389.062 277.462 388.383 277.702 387.305C277.942 386.226 277.263 385.158 276.185 384.918C274.303 384.499 272.322 384.452 269.62 384.644C269.08 384.683 268.612 384.722 267.721 384.8C266.315 384.923 265.792 384.965 265.099 385.003C263.996 385.064 263.152 386.008 263.213 387.111C263.274 388.214 264.218 389.058 265.321 388.997Z" fill="#2d2721"/><path id="Path" d="M259.386 313.345C266.662 311.6 275.614 313.178 284.401 318.381C292.416 323.127 297.089 329.749 300.68 339.228C301.071 340.261 302.225 340.782 303.258 340.39C304.291 339.999 304.811 338.844 304.42 337.812C300.537 327.56 295.358 320.22 286.439 314.939C276.786 309.223 266.777 307.459 258.454 309.455C257.379 309.713 256.717 310.792 256.975 311.866C257.233 312.94 258.312 313.602 259.386 313.345Z" fill="#2d2721"/><path id="Path" d="M311 278.8C334.1 278.8 359.213 286.526 378.499 299.403C379.418 300.017 380.66 299.769 381.273 298.851C381.887 297.932 381.639 296.69 380.721 296.077C360.782 282.764 334.896 274.8 311 274.8C309.895 274.8 309 275.695 309 276.8C309 277.905 309.895 278.8 311 278.8Z" fill="#2d2721"/><path id="Path" d="M351.801 285.345C353.521 284.269 355.245 283.169 356.979 282.041C367.305 275.329 396.343 254.413 397.707 253.482C411.029 244.386 420.192 239.891 428.825 238.825C429.921 238.69 430.7 237.691 430.565 236.595C430.43 235.499 429.431 234.72 428.335 234.855C418.903 236.02 409.262 240.749 395.452 250.178C394.014 251.16 365.028 272.039 354.799 278.688C353.084 279.803 351.38 280.89 349.679 281.955C348.743 282.541 348.459 283.775 349.045 284.711C349.631 285.647 350.865 285.931 351.801 285.345Z" fill="#2d2721"/><path id="Path" d="M328.077 279.144C328.983 278.494 329.822 277.89 331.258 276.857C344.193 267.554 349.735 263.631 357.279 258.538C370.235 249.791 375.171 246.7 384.38 241.86C385.358 241.347 385.734 240.137 385.22 239.16C384.706 238.182 383.497 237.806 382.519 238.32C373.149 243.244 368.11 246.4 355.041 255.222C347.453 260.345 341.89 264.283 328.923 273.61C327.487 274.642 326.648 275.246 325.743 275.896C324.846 276.54 324.641 277.79 325.285 278.687C325.93 279.584 327.18 279.789 328.077 279.144Z" fill="#2d2721"/><path id="Path" d="M439.215 265.804C440.167 266.364 441.393 266.046 441.953 265.095C442.514 264.143 442.196 262.917 441.244 262.356C437.901 260.389 434.129 259.265 430.254 259.082L430.126 259.08C427.022 259.133 423.667 260.187 419.916 262.106C417.334 263.427 414.7 265.074 411.405 267.347C411.303 267.417 405.362 271.601 403.916 272.545C388.675 282.518 381.649 287.029 372.799 292.422C371.856 292.997 371.557 294.227 372.132 295.171C372.706 296.114 373.937 296.413 374.88 295.838C383.779 290.416 390.83 285.888 406.105 275.894C407.618 274.905 413.627 270.673 413.676 270.64C416.84 268.457 419.341 266.893 421.737 265.667C424.964 264.016 427.75 263.136 430.131 263.081C433.334 263.242 436.451 264.176 439.215 265.804Z" fill="#2d2721"/></g><g id="Show/Wear" transform="scale(1 1)"><g id="Show/Wear/Suit 2"><g id="clothing"><path id="Path" d="M189 420.711C201.82 431.431 212.19 434.911 220.4 436.791C238.28 440.901 263.4 442.361 281.76 441.391C307.47 440.031 331.76 435.721 355.22 424.921C360.52 422.481 370.84 415.851 370.15 416.501C370.15 416.501 372.53 445.651 373.15 460.951C373.69 473.781 373.78 507.261 373.78 507.261C373.78 507.261 331.09 511.951 312.78 515.261C291.97 518.971 271.18 522.261 250.01 524.331C233.89 525.891 196.01 530.681 190.28 512.911C189.58 499.031 189.92 480.691 189.92 466.431C189.94 454.461 189 439.091 189 420.711Z" fill="white"/><path id="Path_2" fill-rule="evenodd" clip-rule="evenodd" d="M372.179 416.775C372.208 417.132 372.241 417.548 372.279 418.02C372.386 419.367 372.506 420.887 372.636 422.549C373.005 427.298 373.374 432.23 373.718 437.09C373.866 439.171 374.006 441.197 374.137 443.159C374.615 450.296 374.964 456.317 375.148 460.866C375.336 465.32 375.481 472.483 375.591 481.62C375.659 487.228 375.709 493.236 375.743 499.244C375.756 501.346 375.765 503.299 375.772 505.051C375.775 505.664 375.777 506.209 375.778 506.678L375.78 507.255C375.783 508.277 375.014 509.137 373.998 509.248C373.924 509.256 373.811 509.269 373.661 509.285C373.54 509.299 373.394 509.315 373.224 509.334C372.942 509.365 372.64 509.399 372.319 509.435C371.919 509.48 371.489 509.528 371.031 509.579C368.669 509.845 366.037 510.146 363.202 510.476C355.102 511.418 347.003 512.402 339.446 513.379C335.555 513.881 331.905 514.37 328.537 514.841C322.233 515.722 317.031 516.524 313.131 517.229C288.736 521.578 269.293 524.454 250.203 526.321C250.071 526.334 249.58 526.382 248.907 526.449L248.906 526.449L248.903 526.45C247.217 526.617 244.395 526.898 243.224 527.009C235.581 527.733 229.44 528.11 223.397 528.102C204.208 528.076 191.748 523.981 188.377 513.524C188.323 513.358 188.291 513.185 188.283 513.011C187.955 506.507 187.831 498.847 187.838 488.73C187.84 485.579 187.851 482.875 187.879 477.575C187.911 471.544 187.92 469.333 187.92 466.427C187.928 461.546 187.873 459.335 187.461 445.793C187.141 435.251 187 428.443 187 420.71C187 419.013 188.981 418.087 190.283 419.176C200.978 428.119 210.055 432.37 220.848 434.841C237.595 438.691 262.249 440.418 281.654 439.393C309.802 437.904 332.899 432.994 354.384 423.103C355.83 422.437 357.79 421.388 360.189 420.012C360.535 419.814 360.889 419.61 361.251 419.399C362.224 418.833 363.232 418.237 364.354 417.567C364.788 417.307 365.224 417.046 365.743 416.733L366.962 416C367.865 415.457 368.362 415.162 368.719 414.958C368.969 414.815 369.14 414.723 369.289 414.655L369.29 414.655C369.323 414.64 369.345 414.63 369.367 414.621C369.407 414.605 369.448 414.59 369.564 414.55L369.564 414.55L369.564 414.55C369.605 414.525 369.638 414.505 369.674 414.491C369.834 414.425 370.04 414.471 371.174 414.72C372.085 415.671 372.196 415.787 372.159 416.534L372.179 416.775ZM191.459 445.672C191.872 459.272 191.928 461.49 191.92 466.43C191.92 469.343 191.911 471.558 191.879 477.596C191.851 482.89 191.84 485.59 191.838 488.732C191.832 498.645 191.95 506.173 192.264 512.537C195.032 520.525 206.013 524.078 223.403 524.102C229.293 524.11 235.319 523.74 242.846 523.027C244.004 522.917 246.803 522.639 248.492 522.471L248.496 522.47C249.179 522.403 249.68 522.353 249.815 522.34C268.783 520.485 288.129 517.623 312.424 513.292C316.381 512.577 321.631 511.767 327.984 510.879C331.366 510.407 335.03 509.916 338.934 509.412C346.51 508.433 354.625 507.447 362.74 506.503C365.579 506.173 368.217 505.871 370.584 505.605C371.005 505.557 371.402 505.513 371.774 505.471L371.772 505.067C371.765 503.317 371.756 501.367 371.744 499.267C371.709 493.267 371.659 487.267 371.592 481.668C371.482 472.57 371.337 465.436 371.152 461.031C370.969 456.521 370.622 450.531 370.146 443.426C370.015 441.47 369.875 439.449 369.728 437.373C369.384 432.523 369.016 427.6 368.648 422.859C368.563 421.776 368.483 420.753 368.408 419.799L367.805 420.161C367.282 420.476 366.844 420.739 366.406 421C365.272 421.678 364.25 422.282 363.262 422.857C362.892 423.072 362.531 423.28 362.179 423.482C359.684 424.912 357.635 426.01 356.056 426.737C334.066 436.86 310.484 441.874 281.866 443.387C262.108 444.431 237.086 442.678 219.954 438.74C209.705 436.393 200.857 432.493 191.015 424.897C191.058 431.018 191.199 437.104 191.459 445.672ZM368.716 415.106C368.695 415.128 368.675 415.15 368.655 415.172L368.716 415.106C368.716 415.106 368.716 415.106 368.716 415.106ZM368.716 415.106C368.736 415.085 368.757 415.065 368.778 415.045C368.753 415.068 368.738 415.081 368.716 415.106ZM368.778 415.045C368.778 415.045 368.778 415.045 368.779 415.044L368.779 415.044C368.778 415.045 368.778 415.045 368.778 415.045Z" fill="#D7E0DC"/><path id="Path_3" fill-rule="evenodd" clip-rule="evenodd" d="M356.135 466.43L356.112 466.588C355.84 469.134 356.293 471.705 357.417 474.005C359.651 478.749 363.948 480.42 367.521 476.178C370.875 472.194 370.883 463.939 367.51 459.999C364.935 456.981 361.758 457.113 359.359 459.707C357.808 461.383 356.569 464.126 356.135 466.43ZM361.031 472.29L361.016 472.259C360.23 470.657 359.907 468.867 360.081 467.092C360.399 465.492 361.315 463.482 362.295 462.423C363.141 461.509 363.527 461.493 364.469 462.598C366.565 465.046 366.559 471.11 364.461 473.602C363.162 475.144 362.192 474.765 361.031 472.29Z" fill="#D7E0DC"/><path id="Path_4" d="M386.05 567.13C385.85 557.77 385.65 548.13 385.67 541.36C385.67 531.29 384.44 489.62 384.43 489.2C384.411 488.534 384.061 487.921 383.497 487.566C382.933 487.211 382.229 487.16 381.62 487.43C358.16 497.82 336.74 499.51 311.94 501.43L307.41 501.79C290.29 503.16 270.29 502.07 252.65 501.11C249.67 500.943 246.753 500.787 243.9 500.64C229.819 499.785 215.837 497.721 202.11 494.47C195.673 492.564 189.592 489.615 184.11 485.74C183.5 485.264 182.671 485.182 181.98 485.53C181.284 485.88 180.855 486.602 180.88 487.38C180.88 487.81 181.88 530.82 181.75 541.38C181.55 553.22 181.75 598.38 181.75 599.96H386.43C386.43 593.46 386.24 576.07 386.05 567.13Z" fill="#303030"/></g></g></g><g id="Show/Item" transform="scale(1 1)"><g id="Show/Item/App"><g id="items"><path id="Path" d="M366.671 83.37C367.119 83.37 367.485 83.3671 368.288 83.3585C374.988 83.2868 377.919 83.7624 381.354 86.3905C386.478 90.303 388.292 96.7118 389.401 107.926C389.999 114.056 390.416 120.594 390.748 128.402C390.921 132.471 391.022 135.402 391.268 143.132C391.331 145.098 391.368 146.27 391.409 147.513C391.737 157.206 392.209 165.038 393.407 182.328C394.937 204.407 395.472 214.064 395.63 226.242C395.691 230.566 395.602 232.399 395.025 234.569C394.229 237.559 392.543 239.856 389.7 241.527C385.942 243.722 380.792 244.932 374.117 245.533C370.891 245.824 368.729 245.913 362.878 246.068C362.279 246.084 361.839 246.096 361.421 246.109C358.08 246.211 354.723 246.435 350.036 246.836C349.133 246.913 348.449 246.973 346.764 247.122C339.954 247.723 336.845 247.959 332.954 248.108C327.06 248.355 321.205 248.883 306.923 250.342L306.719 250.363C293.615 251.702 287.844 252.228 281.969 252.528C274.906 252.876 269.233 253.237 256.575 254.103C252.583 254.377 250.854 254.494 248.658 254.64C237.444 255.387 229.35 255.831 221.315 256.089C218.381 256.183 216.175 256.3 210.307 256.645C206.92 256.844 205.143 256.943 203.111 257.039C194.974 257.423 188.882 257.39 183.25 256.779C176.009 256.012 171.239 253.693 169.023 248.319C168.069 246.097 167.834 242.993 167.791 237.781C167.748 229.914 167.233 222.056 166.245 214.241C163.95 195.361 162.365 178.652 161.444 162.636C161.119 157.018 160.618 148.212 159.75 132.9L159.743 132.78C159.657 131.261 159.142 122.167 159 119.671C158.728 114.874 158.525 111.293 158.354 108.285C157.947 101.218 163.268 95.1241 170.32 94.5765C182.855 93.5659 197.662 92.3976 206.921 91.6956C213.926 91.1691 219.588 90.8425 232.133 90.1923L232.232 90.1871C243.19 89.6192 248.056 89.3457 254.124 88.9247C271.257 87.7496 279.678 87.2222 288.321 86.7686C289.024 86.7318 289.746 86.6944 290.506 86.6555C292.574 86.5497 300.959 86.1331 302.993 86.0304C309.07 85.7238 315.16 85.4052 322.561 85.003C338.206 84.1353 356.564 83.4045 366.671 83.37Z" fill="#F2F2F2"/><path id="Path_2" d="M171.791 117.49C189.285 117.301 213.641 116.221 236.448 114.756C246.466 114.115 252.226 113.8 288.241 111.881C289.947 111.79 291.495 111.708 292.975 111.628C320.233 110.17 335.517 109.28 344.886 108.544C354.005 107.827 368.789 106.74 374.15 106.416C375.253 106.35 376.092 105.402 376.026 104.3C375.959 103.197 375.012 102.357 373.909 102.424C368.517 102.749 353.715 103.837 344.573 104.556C335.251 105.289 319.98 106.178 292.761 107.634C291.282 107.713 289.734 107.796 288.029 107.887C251.989 109.807 246.232 110.122 236.192 110.764C213.45 112.225 189.16 113.302 171.748 113.49C170.643 113.502 169.758 114.407 169.77 115.512C169.782 116.616 170.687 117.502 171.791 117.49Z" fill="white"/><path id="Path_3" d="M173.788 105.584L173.758 104.884C173.711 103.781 172.778 102.925 171.674 102.972C170.571 103.019 169.714 103.952 169.762 105.056L169.792 105.756C169.839 106.859 170.772 107.715 171.875 107.668C172.979 107.621 173.835 106.688 173.788 105.584Z" fill="#F97560"/><path id="Path_4" d="M183.878 104.736L183.848 104.026C183.801 102.922 182.869 102.065 181.765 102.112C180.662 102.158 179.805 103.091 179.851 104.194L179.881 104.904C179.928 106.008 180.86 106.865 181.964 106.818C183.068 106.772 183.924 105.839 183.878 104.736Z" fill="#FCD400"/><path id="Path_5" d="M193.968 103.886L193.938 103.176C193.891 102.072 192.959 101.215 191.855 101.262C190.751 101.308 189.895 102.241 189.941 103.344L189.971 104.054C190.018 105.158 190.95 106.015 192.054 105.968C193.158 105.922 194.014 104.989 193.968 103.886Z" fill="#2AC28B"/><path id="Path_6" d="M418.81 92.73H408.18C407.075 92.73 406.18 93.6254 406.18 94.73C406.18 95.8346 407.075 96.73 408.18 96.73H418.81C419.914 96.73 420.81 95.8346 420.81 94.73C420.81 93.6254 419.914 92.73 418.81 92.73Z" fill="#FF9BA5"/><path id="Path_7" d="M411.213 88.5011C411.229 88.5756 411.26 88.733 411.3 88.9625C411.37 89.3543 411.44 89.7968 411.505 90.2789C411.74 92.003 411.854 93.7484 411.784 95.3481C411.714 96.9637 411.456 98.3012 411.017 99.2473C410.551 100.249 410.986 101.438 411.988 101.904C412.99 102.369 414.179 101.934 414.644 100.933C415.338 99.439 415.689 97.6161 415.78 95.5221C415.862 93.6537 415.733 91.6821 415.469 89.7407C415.343 88.815 415.216 88.1001 415.128 87.6789C414.901 86.5979 413.84 85.9057 412.759 86.1327C411.678 86.3598 410.986 87.4202 411.213 88.5011Z" fill="#FF9BA5"/><path id="Path_8" d="M386.66 64.51H389.49C390.595 64.51 391.49 63.6146 391.49 62.51C391.49 61.4054 390.595 60.51 389.49 60.51H386.66C385.556 60.51 384.66 61.4054 384.66 62.51C384.66 63.6146 385.556 64.51 386.66 64.51Z" fill="#EBE8E5"/><path id="Path_9" d="M400 64.09H402.84C403.945 64.09 404.84 63.1946 404.84 62.09C404.84 60.9854 403.945 60.09 402.84 60.09H400C398.895 60.09 398 60.9854 398 62.09C398 63.1946 398.895 64.09 400 64.09Z" fill="#EBE8E5"/><path id="Path_10" d="M393 54V56.84C393 57.9446 393.895 58.84 395 58.84C396.105 58.84 397 57.9446 397 56.84V54C397 52.8954 396.105 52 395 52C393.895 52 393 52.8954 393 54Z" fill="#EBE8E5"/><path id="Path_11" d="M393 67.48V70.32C393 71.4246 393.895 72.32 395 72.32C396.105 72.32 397 71.4246 397 70.32V67.48C397 66.3754 396.105 65.48 395 65.48C393.895 65.48 393 66.3754 393 67.48Z" fill="#EBE8E5"/><path id="Path_12" d="M318.523 54.0999C322.387 54.0549 326.246 53.8137 330.086 53.3772C331.183 53.2524 331.972 52.2616 331.847 51.1641C331.722 50.0666 330.732 49.278 329.634 49.4028C325.929 49.824 322.205 50.0568 318.477 50.1001C317.372 50.113 316.487 51.0188 316.5 52.1233C316.513 53.2277 317.419 54.1127 318.523 54.0999Z" fill="#FCD400"/><path id="Path_13" d="M321.986 46.0248C322.344 47.1335 322.617 48.7256 322.798 50.6507C323.02 53.017 323.082 55.5112 323.055 57.5806C323.053 57.7201 323.051 57.8154 323.05 57.8618C323.023 58.966 323.897 59.8828 325.001 59.9094C326.105 59.9361 327.022 59.0625 327.049 57.9582C327.05 57.8976 327.052 57.7878 327.054 57.6334C327.083 55.4335 327.018 52.81 326.78 50.2762C326.574 48.0856 326.257 46.2346 325.792 44.7952C325.453 43.7441 324.326 43.1673 323.274 43.5068C322.223 43.8464 321.647 44.9737 321.986 46.0248Z" fill="#FCD400"/><path id="Path_14" d="M127.201 90.1606C127.235 90.2439 127.313 90.5659 127.399 91.0294C127.554 91.8683 127.723 93.0754 127.907 94.6027C128.028 95.6086 128.465 99.6564 128.524 99.9291C128.755 101.009 129.818 101.697 130.898 101.466C131.978 101.234 132.666 100.171 132.435 99.0909C132.427 99.055 132.038 95.4534 131.878 94.1251C131.685 92.5204 131.506 91.2435 131.332 90.3018C131.201 89.5938 131.075 89.0754 130.917 88.6794C130.508 87.6533 129.345 87.1531 128.319 87.5622C127.292 87.9712 126.792 89.1346 127.201 90.1606Z" fill="#EAF3F3"/><path id="Path_15" d="M123.567 97.9763C123.692 97.9568 123.926 97.9202 124.252 97.8686C124.794 97.7827 125.398 97.6858 126.048 97.58C127.907 97.2777 129.766 96.9646 131.504 96.6569C132.177 96.5377 132.819 96.4214 133.428 96.3085C134.318 96.1433 135.129 95.9867 135.85 95.8397C136.932 95.6191 137.63 94.5628 137.41 93.4805C137.189 92.3982 136.133 91.6997 135.051 91.9203C134.355 92.0622 133.567 92.2145 132.698 92.3757C132.101 92.4865 131.469 92.6008 130.806 92.7182C129.089 93.0222 127.248 93.3324 125.406 93.6319C124.761 93.7367 124.163 93.8328 123.625 93.9179C123.304 93.9689 123.074 94.0048 122.953 94.0237C121.862 94.1933 121.114 95.2156 121.284 96.3071C121.453 97.3985 122.476 98.1459 123.567 97.9763Z" fill="#EAF3F3"/><path id="Path_16" d="M165.48 57V60.55C165.48 61.6546 166.376 62.55 167.48 62.55C168.585 62.55 169.48 61.6546 169.48 60.55V57C169.48 55.8954 168.585 55 167.48 55C166.376 55 165.48 55.8954 165.48 57Z" fill="#91D5DD"/><path id="Path_17" d="M165.48 69.81V72.65C165.48 73.7546 166.376 74.65 167.48 74.65C168.585 74.65 169.48 73.7546 169.48 72.65V69.81C169.48 68.7054 168.585 67.81 167.48 67.81C166.376 67.81 165.48 68.7054 165.48 69.81Z" fill="#91D5DD"/><path id="Path_18" d="M161.47 63.6373L157.22 64.3473C156.13 64.5293 155.394 65.5601 155.576 66.6496C155.758 67.739 156.789 68.4747 157.879 68.2927L162.129 67.5827C163.218 67.4007 163.954 66.3699 163.772 65.2805C163.59 64.191 162.559 63.4553 161.47 63.6373Z" fill="#91D5DD"/><path id="Path_19" d="M172.911 67.4009L177.201 66.9909C178.301 66.8858 179.107 65.9093 179.002 64.8097C178.897 63.7102 177.92 62.904 176.821 63.0091L172.531 63.4191C171.431 63.5242 170.625 64.5007 170.73 65.6003C170.835 66.6998 171.812 67.506 172.911 67.4009Z" fill="#91D5DD"/><path id="Combined Shape" fill-rule="evenodd" clip-rule="evenodd" d="M345.159 195.726C345.363 196.738 346.503 197.246 347.392 196.722C347.449 196.688 347.553 196.626 347.7 196.539C347.943 196.394 348.213 196.232 348.504 196.057C348.882 195.829 349.26 195.599 349.633 195.37L352.671 199.792C353.296 200.703 354.542 200.934 355.452 200.308C356.362 199.683 356.593 198.438 355.968 197.528L353.007 193.217C353.253 193.049 353.476 192.894 353.672 192.751C354.027 192.493 354.301 192.276 354.505 192.084C354.666 191.933 354.795 191.789 354.905 191.616C355.259 191.062 355.379 190.373 354.777 189.7C354.017 188.844 352.855 187.786 351.359 186.554C350.999 186.258 350.623 185.955 350.231 185.644C349.08 184.73 347.849 183.797 346.619 182.893C346.189 182.577 345.789 182.287 345.43 182.03C345.214 181.874 345.058 181.764 344.974 181.704C343.865 180.922 342.371 181.897 342.639 183.226L345.159 195.726Z" fill="#3B3B3B"/></g></g></g></g></svg>