<svg viewBox="38.25 153 879.7499999999999 777.7500000000001" xmlns="http://www.w3.org/2000/svg" xmlns:xlink="http://www.w3.org/1999/xlink" overflow="visible" width="879.7499999999999px" height="777.7500000000001px"><defs><polygon id="masterspot-illustrationplanning-path-1" points="0.6017 0.148 107.7217 0.148 107.7217 265 0.6017 265"/><polygon id="masterspot-illustrationplanning-path-3" points="0.302904145 0.494 189.197939 0.494 189.197939 192.743236 0.302904145 192.743236"/><polygon id="masterspot-illustrationplanning-path-5" points="0.606828676 0.9535 32.904 0.9535 32.904 6.2565 0.606828676 6.2565"/><polygon id="masterspot-illustrationplanning-path-7" points="0 0.0324 255.9499 0.0324 255.9499 196.950829 0 196.950829"/></defs><g id="Master/Spot Illustration/Planning" stroke="none" stroke-width="1" fill="none" fill-rule="evenodd"><g id="Planning" transform="translate(25.000000, 63.000000) scale(1 1)"><defs><polygon id="planninggiant-phone-path-1" points="0.66973631 0.291852713 231.782836 0.291852713 231.782836 176.657361 0.66973631 176.657361"/><polygon id="planninggiant-phone-path-3" points="0.110658605 0.0146321113 242.732864 0.0146321113 242.732864 169.77329 0.110658605 169.77329"/></defs><g id="Planning/Giant Phone" stroke="none" stroke-width="1" fill="none" fill-rule="evenodd"><g id="Group-47" transform="translate(338.000000, 101.000000)"><path d="M125.431636,30.9439581 C125.431636,30.9439581 75.1808244,29.095787 70.109578,74.6886379 C64.4158631,125.881586 16.6313576,612.574499 13.5592193,664.94583 C10.4843082,717.317161 19.0907319,733.336496 64.576679,733.95209 C110.064012,734.569073 359.628117,729.02317 359.628117,729.02317 C359.628117,729.02317 402.502192,728.560433 406.957901,691.438597 C412.680729,643.768291 462.895496,126.445764 467.197321,83.9322722 C471.500533,41.41878 459.207821,32.0486919 413.106337,30.5715446 C367.003467,29.095787 125.431636,30.9439581 125.431636,30.9439581" id="Fill-1" fill="#AFDCFD"/><path d="M247.947822,676.024287 L173.252966,676.024287 C173.252966,676.024287 153.258497,675.112984 152.108452,684.454863 C150.95979,693.798111 159.003192,697.670804 173.02351,697.898287 C187.042445,698.127141 247.947822,697.898287 247.947822,697.898287 C247.947822,697.898287 273,698.642404 273,687.87259 C273,675.918768 247.947822,676.024287 247.947822,676.024287" id="Fill-3" fill="#70A0E6"/><polygon id="Fill-5" fill="#3164CF" points="67 645.22772 361.988508 648 416 81 121.473769 81"/><path d="M262.011259,55.923934 C261.51071,66.5318452 277.866224,66.7462172 277.999138,56.2321813 C278.133466,45.521988 262.52312,45.0988485 262.011259,55.923934" id="Fill-7" fill="#70A0E6"/><g id="Group-11" transform="translate(4.000000, 0.000000)"><mask id="planninggiant-phone-mask-2" fill="#ffffff"><use xlink:href="#planninggiant-phone-path-1" fill="#ffffff"/></mask><g id="Clip-10"/><path d="M152.405439,134.665904 L119.65923,134.665904 C119.65923,134.665904 0.66973631,139.741733 0.66973631,67.2966868 C0.66973631,-5.14835969 126.116659,0.388151938 126.116659,0.388151938 L208.670778,0.290830673 C208.670778,0.290830673 231.270391,0.851609302 231.730843,25.3066171 C232.192683,49.7616248 229.425808,109.748826 229.425808,109.748826 C229.425808,109.748826 231.730843,135.280609 205.443451,134.743609 C179.154671,134.205222 181.459707,134.751935 181.459707,134.751935 L177.77054,176.657361 L152.405439,134.665904 Z" id="Fill-9" fill="#FE5C4F" mask="url(#planninggiant-phone-mask-2)"/></g><path d="M165.927268,245.12406 C165.927268,245.12406 160.849027,257.620346 159.925837,268.033222 C159.002647,278.446098 172.3896,273.586199 180.00696,256.577945 C180.00696,256.577945 190.856181,274.183248 199.627183,274.975139 C208.399572,275.768422 199.857633,257.38932 194.548942,246.744027 C205.729956,240.500755 239.554814,216.61182 193.395301,226.611354 C193.395301,226.611354 191.086632,205.322158 182.777919,206.016629 C174.466431,206.711099 170.543219,226.843772 170.543219,226.843772 C170.543219,226.843772 151.846187,221.752847 146.998397,225.685858 C142.151995,229.62026 156.001237,241.19105 165.927268,245.12406" id="Fill-12" fill="#FEF864"/><path d="M242.927268,228.124849 C242.927268,228.124849 237.849027,240.621386 236.925837,251.034472 C236.002647,261.446165 249.3896,256.58756 257.00696,239.578964 C257.00696,239.578964 267.856181,257.184622 276.627183,257.975137 C285.399572,258.768435 276.857633,240.390355 271.548942,229.744847 C282.729956,223.50145 316.554814,199.610642 270.395301,209.611769 C270.395301,209.611769 268.086632,188.322145 259.777919,189.016629 C251.466431,189.709721 247.543219,209.8428 247.543219,209.8428 C247.543219,209.8428 228.846187,204.751772 223.998397,208.686254 C219.151995,212.619344 233.001237,224.190367 242.927268,228.124849" id="Fill-14" fill="#FEF864"/><path d="M316.926458,250.12406 C316.926458,250.12406 311.848182,262.620346 310.924985,273.033222 C310.001788,283.446098 323.388834,278.586199 331.007637,261.577945 C331.007637,261.577945 341.855545,279.183248 350.626608,279.975139 C359.399059,280.768422 350.858448,262.38932 345.54972,251.744027 C356.730812,245.500755 390.554518,221.61182 344.394683,231.611354 C344.394683,231.611354 342.087385,210.322158 333.777227,211.016629 C325.467068,211.711099 321.542441,231.84238 321.542441,231.84238 C321.542441,231.84238 302.845278,226.752847 297.998843,230.685858 C293.151019,234.618868 307.001746,246.19105 316.926458,250.12406" id="Fill-16" fill="#FEF864"/><path d="M307.595584,301 L189.846048,301 C189.846048,301 152.905425,301 151.058602,329.400138 C149.210391,357.798365 191.692871,355.966399 191.692871,355.966399 L307.595584,355.991193 C307.595584,355.991193 344.979166,357.353459 345,326.193508 C345.01527,300.545985 307.595584,301 307.595584,301" id="Fill-18" fill="#FF71DB"/><path d="M336.889182,442.159847 C336.889182,442.159847 324.468469,440.076449 323.318941,450.952707 C322.16803,461.828965 318.029175,518.29087 318.029175,518.29087 C318.029175,518.29087 317.107893,524.305865 325.61938,524.769306 C334.129484,525.231356 394.389099,525.925822 394.389099,525.925822 C394.389099,525.925822 402.670957,527.316146 402.900586,518.058453 C403.130215,508.803544 407.908157,454.50019 407.908157,454.50019 C407.908157,454.50019 409.569509,444.93632 398.760349,444.010829 C386.370069,442.94895 336.889182,442.159847 336.889182,442.159847" id="Fill-20" fill="#FF71DB"/><path d="M329.889049,535.159614 C329.889049,535.159614 317.468348,533.077632 316.318821,543.95237 C315.169294,554.8285 311.02906,611.28974 311.02906,611.28974 C311.02906,611.28974 310.109161,617.306056 318.620641,617.7681 C327.129355,618.231536 387.3903,618.925994 387.3903,618.925994 C387.3903,618.925994 395.670768,620.31491 395.900397,611.058718 C396.131409,601.802526 400.907964,547.499811 400.907964,547.499811 C400.907964,547.499811 402.570697,537.936054 391.761546,537.010574 C379.369894,535.948707 329.889049,535.159614 329.889049,535.159614" id="Fill-22" fill="#F8FBF8"/><path d="M231.889059,535.159614 C231.889059,535.159614 219.468356,533.077632 218.318829,543.95237 C217.169302,554.8285 213.029068,611.28974 213.029068,611.28974 C213.029068,611.28974 212.109169,617.306056 220.619267,617.7681 C229.129364,618.231536 289.390317,618.925994 289.390317,618.925994 C289.390317,618.925994 297.670786,620.31491 297.900414,611.058718 C298.130043,601.802526 302.907982,547.499811 302.907982,547.499811 C302.907982,547.499811 304.570715,537.936054 293.76018,537.010574 C281.36991,535.948707 231.889059,535.159614 231.889059,535.159614" id="Fill-24" fill="#FE5C4F"/><path d="M143.694016,453.987873 C185.835015,435.575618 216.071495,456.380425 249.989928,464.390276 C283.906972,472.39874 322.38408,456.380425 322.202067,433.443819 C321.975592,405.269949 289.013077,397.764962 254.730617,413.419886 C220.448157,429.07481 194.189576,431.624092 154.071567,410.143822 C114.810828,389.122645 94.6253865,433.443819 94.6253865,433.443819 L68,429.802978 C90.6127519,380.653701 128.54243,378.832587 153.706151,383.929765 C178.87126,389.026943 197.115687,414.475383 233.576752,395.581844 C301.578959,360.342662 376.542142,405.411422 331.140182,464.057399 C306.804554,495.492076 248.895068,494.242401 214.247191,476.717818 C179.600704,459.191848 149.330878,474.948022 149.330878,474.948022 L136.930337,456.380425 L143.694016,453.987873 Z" id="Fill-26" fill="#A2D249"/><g id="Group-30" transform="translate(311.000000, 60.000000)"><mask id="planninggiant-phone-mask-4" fill="#ffffff"><use xlink:href="#planninggiant-phone-path-3" fill="#ffffff"/></mask><g id="Clip-29"/><path d="M236.962818,6.61367073 C205.263614,5.70306098 39.8191364,0.945646341 7.52379545,0.0169634146 C4.50568182,-0.0706219512 1.99497727,2.32059756 1.9215,5.34715854 L0.110658605,79.4777439 C0.0402045455,82.4556463 2.35820455,84.9441829 5.32502273,85.0734756 L71.8843409,87.9790854 C74.8359091,88.108378 77.1469773,90.5718902 77.0970682,93.5331098 L75.9380682,162.320988 C75.8867727,165.319744 78.2546818,167.799939 81.2464545,167.879183 L153.600773,169.771305 C156.666023,169.853329 159.19475,167.382866 159.19475,164.307646 L159.19475,95.8548171 C159.19475,92.7935 161.702682,90.3299878 164.755455,90.3911585 L237.172159,91.8425732 C240.238795,91.9037439 242.753659,89.4179878 242.732992,86.341378 L242.251795,12.0411829 C242.233773,9.09664634 239.89775,6.69847561 236.962818,6.61367073" id="Fill-28" fill="#FEF864" mask="url(#planninggiant-phone-mask-4)"/></g><path d="M471,150 C470.996504,148.346529 469.236025,148.34792 469.232528,146.694449 C469.229032,145.042369 470.935315,145.040978 470.931819,143.387506 C470.928322,141.735426 470.760491,141.735426 470.758743,140.081955 C470.755246,138.429875 469.868888,138.429875 469.865392,136.777796 C469.861895,135.125716 469.699309,135.125716 469.695812,133.47642 C469.692316,131.825732 470.674827,131.824341 470.673079,130.176436 C470.671331,128.524357 469.472037,128.525749 469.468541,126.876453 C469.465044,125.222981 470.519234,125.221589 470.515737,123.56951 C470.513989,121.916038 469.33043,121.91743 469.326933,120.26535 C469.323437,118.613271 469.328682,118.613271 469.325185,116.962583 C469.321689,115.309112 469.003509,115.310503 469,113.658424 C468.996516,112.00356 469.73777,112.002169 469.734274,110.348697 C469.730777,108.695226 470.788463,108.693834 470.784966,107.041754 C470.783218,105.386891 469.821686,105.388283 469.818189,103.734811 C469.814693,102.079948 470.538464,102.079948 470.534968,100.426477 C470.531471,98.7702217 469.812944,98.7716135 469.809448,97.1167503 C469.8077,95.461887 469.461548,95.4632788 469.458051,93.8098074 C469.454555,92.1535524 470.783218,92.1521605 470.779722,90.4986891 C470.776225,88.8424341 470.146858,88.8438259 470.143362,87.1875708 C470.139865,85.5354912 469.769238,85.536883 469.765742,83.8834116 C469.762245,82.2299401 469.751756,82.2299401 469.748259,80.5750769 C469.744763,78.9202136 470.667834,78.9188218 470.664338,77.2611749 C470.660841,75.6063117 470.407346,75.6063117 470.40385,73.9486648 C470.400353,72.2924098 469.354905,72.2938016 469.351409,70.6375465 C469.347912,68.9785078 469.872385,68.977116 469.870636,67.3180774 C469.86714,65.6576469 469.236025,65.6590387 469.232528,64" id="Stroke-31" stroke="#A2D249" stroke-width="3" stroke-linecap="round"/><path d="M386.798568,62 C386.788079,63.6719723 389.010452,63.6885813 388.999963,65.3605536 C388.989474,67.032526 386.833969,67.017301 386.824791,68.6892734 C386.812991,70.3626298 387.024083,70.3640138 387.012283,72.0373702 C387.001794,73.7121107 388.121503,73.7204152 388.109703,75.3937716 C388.099214,77.067128 388.305062,77.0685121 388.294573,78.7418685 C388.282772,80.4138408 387.041128,80.4041522 387.029328,82.0761246 C387.017528,83.7480969 388.529266,83.7605536 388.518777,85.432526 C388.508288,87.1058824 387.177486,87.0948097 387.165686,88.7681661 C387.155197,90.4429066 388.648579,90.4539792 388.636779,92.1273356 C388.62629,93.8020761 388.621045,93.8020761 388.609245,95.4754325 C388.597445,97.1487889 388.998652,97.150173 388.988163,98.8235294 C388.976363,100.495502 388.041524,100.489965 388.031035,102.163322 C388.020546,103.836678 386.6845,103.82699 386.672699,105.500346 C386.66221,107.175087 387.873698,107.183391 387.863209,108.858131 C387.85272,110.531488 386.93886,110.525952 386.928371,112.199308 C386.917881,113.872664 387.823875,113.878201 387.812075,115.551557 C387.801586,117.224913 388.239505,117.229066 388.227705,118.902422 C388.217216,120.577163 386.538964,120.564706 386.528475,122.239446 C386.516674,123.912803 387.313844,123.918339 387.302044,125.591696 C387.291555,127.266436 387.757008,127.269204 387.74783,128.943945 C387.736029,130.618685 387.750452,130.618685 387.738652,132.293426 C387.728163,133.965398 386.563875,133.955709 386.553386,135.627682 C386.542897,137.29827 386.860192,137.301038 386.849702,138.971626 C386.837902,140.643599 388.160837,140.653287 388.150348,142.32526 C388.138548,143.998616 387.475114,143.994464 387.464625,145.66782 C387.452824,147.342561 388.248683,147.348097 388.238194,149.021453 C388.226394,150.69481 386.455051,150.680969 386.444562,152.352941 C386.434073,154.026298 388.824271,154.045675 388.812471,155.719031 C388.801982,157.393772 387.671784,157.385467 387.661295,159.061592 C387.649494,160.734948 386.688433,160.728028 386.676633,162.401384 C386.666144,164.076125 386.932304,164.078893 386.920504,165.753633 C386.910015,167.428374 387.767497,167.435294 387.755696,169.110035 C387.746518,170.786159 386.722522,170.779239 386.712033,172.455363 C386.700233,174.130104 387.442335,174.13564 387.430535,175.811765 C387.421357,177.486505 386.186268,177.478201 386.175779,179.154325 C386.16529,180.829066 386.295093,180.83045 386.283292,182.506574 C386.272803,184.179931 387.861898,184.192388 387.851409,185.865744 C387.839609,187.540484 387.264021,187.536332 387.253532,189.212457 C387.243043,190.889965 388.573844,190.899654 388.562044,192.577163 C388.551555,194.254671 387.801586,194.249135 387.789786,195.926644 C387.777986,197.604152 386.010576,197.591696 386.000087,199.269204 C385.988287,200.950865 387.176175,200.957785 387.165686,202.638062 C387.153886,204.319723 387.094885,204.319723 387.084396,206" id="Stroke-33" stroke="#A2D249" stroke-width="3" stroke-linecap="round"/><path d="M0.398089586,511.222836 C9.60473812,621.297096 160.081598,602.262064 160.996,503.550155 C161.953547,399.975221 -9.31516818,395.109416 0.398089586,511.222836" id="Fill-35" fill="#EFD638"/><path d="M53.8695461,492.630588 C52.1910453,489.650085 52.4217002,485.961261 54.4586888,483.214088 L71.9995776,459.547838 C71.9995776,459.547838 79.6709376,447.611938 89.4404234,449.134133 C100.678597,450.884102 97.5105662,465.703285 97.5105662,465.703285 L88.335781,539.956142 L92.6640342,539.838089 C97.7801268,539.700591 102,543.807463 102,548.919873 L102,550.914283 C102,556.015582 97.7995796,560.116898 92.6973819,559.997456 L56.8777863,559.157193 C51.8005994,559.03775 47.8058231,554.783659 48.0072988,549.711526 L48.0336991,549.079593 C48.2351747,544.024126 52.5300803,540.107529 57.5850354,540.368635 L61.3435988,540.563076 L69.372057,493.562516 L66.1595621,495.64859 C61.9591417,498.377709 56.3275493,496.9944 53.8695461,492.630588" id="Fill-37" fill="#FEF864"/><path d="M322,146.988292 C323.651304,147.039269 323.688708,145.725511 325.340012,145.776488 C326.992701,145.827465 327.021793,144.733637 328.673097,144.784615 C330.325786,144.835592 330.311933,145.313322 331.964622,145.3643 C333.617311,145.413821 333.610385,145.668707 335.261689,145.718228 C336.915763,145.769205 336.906066,146.117308 338.558755,146.169742 C340.21283,146.220719 340.216986,146.060504 341.872446,146.111482 C343.527906,146.162459 343.487731,147.578172 345.143191,147.62915 C346.798651,147.680127 346.876229,144.867635 348.531689,144.918612 C350.187149,144.968133 350.167755,145.619186 351.821829,145.670164 C353.475904,145.721141 353.525775,143.9515 355.178465,144.00102 C356.832539,144.051998 356.763273,146.500366 358.415963,146.549887 C360.068652,146.600864 360.046487,147.409219 361.699176,147.460196 C363.353251,147.511174 363.416975,145.151652 365.07105,145.202629 C366.723739,145.253606 366.702959,146.035744 368.355649,146.085265 C370.008338,146.136242 369.991714,146.769818 371.645789,146.820795 C373.299863,146.870316 373.304019,146.729036 374.959479,146.778557 C376.616325,146.83099 376.61771,146.746514 378.27317,146.797491 C379.92863,146.847012 379.938327,146.501822 381.595172,146.5528 C383.249247,146.602321 383.179981,149.03758 384.834055,149.088558 C386.489515,149.140992 386.569864,146.210523 388.225324,146.261501 C389.878013,146.312478 389.890481,145.866791 391.544556,145.919224 C393.19863,145.970202 393.132135,148.337006 394.78621,148.386527 C396.440284,148.437504 396.461064,147.691779 398.116524,147.742756 C399.773369,147.793734 399.745663,148.744825 401.401123,148.795802 C403.057968,148.845323 403.135546,146.021179 404.792391,146.072156 C406.447851,146.121677 406.367502,148.976408 408.022962,149.027385 C409.677037,149.079819 409.650716,149.988672 411.306176,150.039649 C412.96025,150.08917 412.986572,149.168665 414.640646,149.218186 C416.296106,149.269163 416.31273,148.693848 417.966805,148.744825 C419.625035,148.795802 419.654127,147.709257 421.310972,147.760234 C422.966432,147.811212 423.009377,146.249849 424.666222,146.300826 C426.321682,146.351803 426.311985,146.699906 427.96606,146.749427 C429.622905,146.800404 429.541171,149.713394 431.195245,149.764371 C432.852091,149.815349 432.950449,146.271696 434.605909,146.322674 C436.262754,146.373651 436.157469,150.145973 437.8157,150.196951 C439.47116,150.247928 439.541811,147.726735 441.197271,147.777712 C442.851346,147.828689 442.833337,148.517612 444.488797,148.567133 C446.144256,148.61811 446.174734,147.531564 447.831579,147.582542 C449.487039,147.633519 449.430241,149.659504 451.088471,149.710481 C452.743931,149.761458 452.755014,149.352183 454.410474,149.403161 C456.067319,149.454138 456.108878,147.967057 457.765724,148.018034 C459.421184,148.069011 459.354688,150.431446 461.012919,150.482424 C462.665608,150.534857 462.678076,150.129952 464.330765,150.180929 C465.98484,150.233363 465.997308,149.743981 467.651382,149.794958 C469.304072,149.845935 469.266668,151.225236 470.919357,151.274757 C472.576203,151.327191 472.598368,150.536314 474.253828,150.587291 C475.910673,150.638269 475.928682,149.988672 477.585527,150.038193 C479.239602,150.08917 479.270079,148.98806 480.925539,149.03758 C482.580999,149.088558 482.524201,151.104347 484.179661,151.155324 C485.839276,151.206302 485.904387,148.803085 487.562617,148.854062 C489.218077,148.905039 489.177903,150.362991 490.833363,150.415425 C492.491593,150.466402 492.480511,150.868395 494.138741,150.919372 C495.794201,150.970349 495.831605,149.617265 497.489836,149.668243 C499.148066,149.717764 499.106506,151.210671 500.764737,151.263105 C502.421582,151.314082 502.442362,150.578552 504.099207,150.628073 C505.757438,150.67905 505.735273,151.523818 507.393503,151.574795 C509.051734,151.625772 509.105762,149.669699 510.765377,149.720677 C512.420837,149.771654 512.333562,152.94827 513.987637,152.999247 C515.644482,153.050224 515.716519,150.495532 517.373364,150.546509 C519.034365,150.598943 518.990035,152.131176 520.649651,152.182153 C522.310652,152.234587 522.312037,152.189436 523.971653,152.240413 C525.631269,152.292847 525.635425,152.141371 527.295041,152.190892 C528.958813,152.24187 528.96851,151.83842 530.633667,151.889398 C532.296054,151.940375 532.337613,150.403773 534,150.45475" id="Stroke-39" stroke="#A2D249" stroke-width="3" stroke-linecap="round"/><path d="M100,571 C101.519192,570.39051 101.330689,571.028958 103.205942,570.116101 C104.035354,569.712072 104.931788,569.02812 106.034878,568.440692 C106.911765,567.970475 107.824955,567.354089 108.84287,566.766662 C109.730927,566.252319 110.82145,565.924131 111.794682,565.317399 C112.679947,564.765824 113.35716,563.803326 114.298277,563.173151 C115.173767,562.585724 116.148396,562.074138 117.061586,561.419143 C117.921717,560.801379 118.422995,559.672029 119.306863,558.990834 C120.151634,558.339976 121.046673,557.740138 121.902614,557.032743 C122.726441,556.351548 124.011052,556.16677 124.839067,555.431797 C125.63776,554.720265 126.203268,553.728809 126.997772,552.966257 C127.774124,552.224388 128.257249,551.191564 129.021034,550.400054 C129.766667,549.62647 130.893494,549.190726 131.623767,548.370258 C132.340077,547.566338 132.756179,546.504556 133.450149,545.656509 C134.131551,544.823631 135.156447,544.24172 135.811319,543.363336 C136.456417,542.500122 137.371004,541.794106 137.983987,540.888144 C138.588592,539.99735 138.680749,538.763201 139.250446,537.829661 C139.811765,536.911288 140.82549,536.230093 141.349109,535.271732 C141.862953,534.32716 141.832234,533.091632 142.306982,532.10707 C142.774747,531.139056 143.496643,530.273084 143.921123,529.26508 C144.337225,528.276382 144.860844,527.30561 145.232264,526.278302 C145.59391,525.267541 145.65814,524.143707 145.973708,523.094336 C146.282294,522.067027 146.741682,521.063161 147,520" id="Stroke-41" stroke="#E0B40C" stroke-width="3" stroke-linecap="round"/><path d="M185,319.629704 C186.678292,319.616143 186.661592,317.758185 188.339884,317.744623 C190.016784,317.731061 190.037659,320.013502 191.714559,319.99994 C193.391459,319.986378 193.383109,318.997728 195.06001,318.984166 C196.739693,318.970604 196.738301,318.811932 198.415202,318.799726 C200.094885,318.784808 200.083752,317.546622 201.763435,317.531704 C203.441727,317.518142 203.462602,319.923994 205.142285,319.910432 C206.819185,319.896871 206.81501,319.34762 208.491911,319.332702 C210.170202,319.319141 210.159069,317.979241 211.83597,317.965679 C213.514261,317.953474 213.529569,319.620211 215.207861,319.605293 C216.887544,319.593088 216.888936,319.749048 218.56862,319.73413 C220.246911,319.720568 220.246911,319.68802 221.925203,319.673102 C223.603495,319.65954 223.596537,318.90822 225.274829,318.893302 C226.954512,318.87974 226.950337,318.253188 228.628629,318.239627 C230.308313,318.226065 230.311096,318.498656 231.990779,318.485094 C233.669071,318.471532 233.670463,318.616643 235.348754,318.603081 C237.028438,318.588163 237.02983,318.788877 238.708121,318.773959 C240.387805,318.760397 240.387805,318.669534 242.067488,318.655972 C243.742997,318.641054 243.751346,319.453402 245.426855,319.43984 C247.102364,319.426278 247.088447,317.813788 248.763956,317.79887 C250.440856,317.786665 250.443639,318.158256 252.12054,318.144694 C253.798831,318.131133 253.791873,317.116715 255.471557,317.103153 C257.149849,317.089591 257.160982,318.491875 258.840665,318.476957 C260.518957,318.464751 260.523132,318.927207 262.200032,318.913645 C263.878324,318.900083 263.865799,317.547978 265.545483,317.53306 C267.225166,317.519498 267.229341,317.967036 268.910416,317.95483 C270.588708,317.939912 270.591491,318.30201 272.269783,318.289805 C273.950858,318.274887 273.949466,318.193517 275.630541,318.179955 C277.310225,318.166393 277.310225,318.117571 278.989908,318.104009 C280.670983,318.089091 280.6682,317.89109 282.350667,317.877528 C284.03035,317.863966 284.042875,319.259469 285.722558,319.245907 C287.403633,319.230989 287.388325,317.553403 289.0694,317.538485 C290.751867,317.524923 290.749084,317.271319 292.43155,317.256401 C294.109842,317.242839 294.120975,318.599013 295.799267,318.584095 C297.480342,318.571889 297.476167,318.143338 299.155851,318.131133 C300.838317,318.116215 300.843884,318.661396 302.52635,318.646479 C304.208817,318.634273 304.193509,317.013646 305.877368,317.000084 C307.559834,316.986522 307.57375,318.622067 309.257609,318.608506 C310.942859,318.593588 310.947034,319.115715 312.633675,319.102153 C314.318925,319.088591 314.31475,318.559683 316,318.546122" id="Stroke-43" stroke="#FF00BF" stroke-width="3" stroke-linecap="round"/><path d="M185,338.630883 C186.6769,338.615958 186.661592,336.758525 188.338493,336.7436 C190.015393,336.731389 190.036267,339.014852 191.713167,338.999927 C193.390067,338.987716 193.381718,337.998623 195.06001,337.983698 C196.738301,337.971487 196.73691,337.812744 198.415202,337.799176 C200.093493,337.785608 200.08236,336.54551 201.762044,336.531942 C203.440336,336.517018 203.462602,338.925304 205.140893,338.91038 C206.819185,338.896812 206.813619,338.347315 208.491911,338.333748 C210.168811,338.32018 210.157678,336.97968 211.83597,336.966112 C213.514261,336.952544 213.528178,338.620028 215.206469,338.606461 C216.886153,338.592893 216.887544,338.748923 218.567228,338.735355 C220.246911,338.721787 220.24552,338.687867 221.925203,338.6743 C223.603495,338.660732 223.596537,337.907718 225.274829,337.89415 C226.953121,337.879226 226.948946,337.252393 228.628629,337.240182 C230.306921,337.225257 230.309704,337.49797 231.989388,337.484403 C233.667679,337.472192 233.669071,337.61601 235.347363,337.602443 C237.027046,337.588875 237.028438,337.788322 238.708121,337.774754 C240.387805,337.759829 240.386413,337.670282 242.066097,337.655357 C243.742997,337.641789 243.749955,338.454501 245.426855,338.439577 C247.102364,338.427365 247.088447,336.812796 248.763956,336.799228 C250.439465,336.787017 250.443639,337.158775 252.119148,337.14385 C253.798831,337.131639 253.790482,336.11541 255.470165,336.103199 C257.148457,336.088275 257.160982,337.491186 258.840665,337.477619 C260.517565,337.465408 260.52174,337.926713 262.19864,337.914502 C263.876932,337.899578 263.865799,336.546867 265.544091,336.533299 C267.225166,336.519731 267.227949,336.967469 268.909024,336.953901 C270.587316,336.940333 270.590099,337.302594 272.269783,337.289026 C273.949466,337.275458 273.949466,337.192695 275.62915,337.180484 C277.308833,337.165559 277.308833,337.118072 278.988516,337.103147 C280.669592,337.089579 280.6682,336.891489 282.349275,336.876565 C284.028958,336.862997 284.041483,338.260481 285.721166,338.245557 C287.402241,338.231989 287.388325,336.552294 289.0694,336.538726 C290.750475,336.523801 290.749084,336.270083 292.430159,336.256516 C294.108451,336.241591 294.120975,337.598372 295.797875,337.584804 C297.47895,337.572593 297.474776,337.14385 299.155851,337.130283 C300.838317,337.116715 300.842492,337.660784 302.524959,337.647216 C304.207426,337.633648 304.193509,336.012295 305.875976,336.000084 C307.558443,335.986516 307.57375,337.622794 309.256217,337.60787 C310.941467,337.594302 310.947034,338.115306 312.632283,338.101738 C314.318925,338.089527 314.313358,337.560382 316,337.545458" id="Stroke-45" stroke="#FF00BF" stroke-width="3" stroke-linecap="round"/></g></g></g><g transform="translate(-28.000000, 174.000000) scale(1 1)" id="Master/Character/Standing"><defs><polygon id="mastercharacterstanding-path-1" points="0.606828676 0.9535 32.904 0.9535 32.904 6.2565 0.606828676 6.2565"/><polygon id="mastercharacterstanding-path-3" points="0 0.0324 255.9499 0.0324 255.9499 196.950829 0 196.950829"/></defs><g id="Master/Character/Standing" stroke="none" stroke-width="1" fill="none" fill-rule="evenodd"><g id="Lower" transform="translate(14.000000, 442.000000) scale(1 1)"><g id="Lower/Crossed Legs" stroke="none" stroke-width="1" fill="none" fill-rule="evenodd"><g id="Group-332" transform="translate(252.000000, 155.000000) scale(-1, 1) translate(-252.000000, -155.000000) translate(142.000000, 0.000000)"><g id="Group-74" transform="translate(0.000000, 0.142000)"><path d="M189.6183,170.0922 L132.1503,159.5222 C128.7343,158.8932 126.1853,156.0182 125.9723,152.5512 L118.1893,26.2792 C118.1893,12.2392 106.8073,0.8582 92.7673,0.8582 L44.6893,0.8582 C30.6493,0.8582 19.2673,12.2392 19.2673,26.2792 L2.6423,138.3352 C2.6423,138.3352 -9.6607,185.5522 25.9173,199.8502 C61.4963,214.1482 175.5473,242.0782 175.5473,242.0782 L192.1163,173.9452 C192.5443,172.1812 191.4033,170.4202 189.6183,170.0922" id="Fill-34" fill="#5A593D"/><path d="M63.6579,202.5101 L63.6579,279.1541 L133.3189,278.4891 C133.3189,278.4891 135.2309,278.7381 135.1479,275.4951 C135.0639,272.2531 130.4919,202.5101 130.4919,202.5101 L63.6579,202.5101 Z" id="Fill-36" fill="#5A593D"/><path d="M175.5475,242.0785 C175.5475,242.0785 170.0615,258.7035 168.8975,276.4935 C167.7335,294.2825 189.1805,296.7765 194.1685,281.4805 C199.1555,266.1845 205.6395,241.0805 206.9695,234.4315 C208.2995,227.7805 216.1135,201.1805 217.4435,193.5315 C218.2495,188.8995 218.9705,185.6015 219.4135,183.7225 C219.6565,182.6935 219.0195,181.6665 217.9925,181.4175 L191.8405,175.0775 L175.5475,242.0785 Z" id="Fill-38" fill="#FE5C4F"/><path d="M63.6579,279.1537 C63.6579,279.1537 33.7319,279.3197 26.7489,280.4837 C19.7659,281.6467 15.7759,290.1267 18.4359,298.1067 C21.0959,306.0867 29.5759,308.2487 43.2079,308.2487 L130.4919,308.2487 C132.3209,308.2487 135.1529,307.9157 135.149902,302.9277 C135.1479,297.9397 133.3189,278.4887 133.3189,278.4887 L63.6579,279.1537 Z" id="Fill-40" fill="#FE5C4F"/><path d="M56.3322,266.7279 C56.0642,266.7279 55.7842,266.7589 55.4882,266.8219 C55.0662,266.9109 53.9442,267.1479 54.1072,269.0989 C54.3552,272.0759 57.4742,276.3699 62.0142,277.4229 C61.6582,274.2689 60.6242,269.2489 58.2582,267.4079 C57.6702,266.9509 57.0452,266.7279 56.3322,266.7279 M63.6582,280.6539 C63.6372,280.6539 63.6162,280.6529 63.5952,280.6519 C58.7622,280.4499 51.6762,276.0509 51.1182,269.3479 C50.8822,266.5179 52.3202,264.4249 54.8692,263.8859 C56.7952,263.4799 58.6072,263.8769 60.1022,265.0419 C64.6142,268.5559 65.1142,278.0259 65.1562,279.0939 C65.1732,279.5129 65.0142,279.9189 64.7172,280.2149 C64.4352,280.4969 64.0542,280.6539 63.6582,280.6539" id="Fill-42" fill="#000"/><path d="M71.2819,266.4359 C70.8669,266.4359 70.4779,266.5509 70.0959,266.7839 C67.8369,268.1579 66.2359,273.1979 65.4899,277.1399 C70.1169,275.5169 73.2729,271.4169 73.5269,268.8129 C73.6709,267.3509 72.9329,266.8799 72.2749,266.6329 C71.9239,266.5019 71.5949,266.4359 71.2819,266.4359 M63.6579,280.6539 C63.2749,280.6539 62.9029,280.5069 62.6219,280.2389 C62.2809,279.9129 62.1129,279.4449 62.1689,278.9769 C62.3109,277.7769 63.7009,267.1649 68.5349,264.2219 C69.9929,263.3329 71.6499,263.1949 73.3279,263.8249 C75.5629,264.6629 76.7539,266.6369 76.5129,269.1049 C76.0699,273.6429 70.7819,279.4939 63.9029,280.6329 C63.8209,280.6469 63.7389,280.6539 63.6579,280.6539" id="Fill-44" fill="#000"/><path d="M66.9269,294.0092 L66.9099,294.0092 C66.0819,293.9992 65.4179,293.3222 65.4269,292.4922 C65.5279,283.3532 62.6269,280.2442 62.5969,280.2142 C62.0279,279.6252 62.0269,278.6812 62.6059,278.1022 C63.1839,277.5242 64.1109,277.5062 64.6999,278.0752 C65.0939,278.4552 68.5419,282.0952 68.4269,292.5262 C68.4179,293.3492 67.7479,294.0092 66.9269,294.0092" id="Fill-46" fill="#000"/><path d="M166.1003,227.1391 C165.8053,227.1391 165.5043,227.1961 165.1913,227.3081 C163.4213,227.9431 163.2713,228.9511 163.3403,229.7591 C163.6103,232.9531 168.4603,238.0321 173.5553,239.9671 C172.5243,235.7691 170.3653,229.2261 167.3933,227.5121 C166.9603,227.2631 166.5373,227.1391 166.1003,227.1391 M175.5473,243.5781 C175.4603,243.5781 175.3723,243.5711 175.2863,243.5551 C168.4823,242.3491 160.8053,235.3881 160.3503,230.0121 C160.1343,227.4481 161.5293,225.4331 164.1803,224.4851 C165.7833,223.9111 167.4123,224.0601 168.8933,224.9141 C174.3783,228.0781 176.7683,240.4131 177.0233,241.8091 C177.1113,242.2921 176.9573,242.7881 176.6113,243.1361 C176.3273,243.4211 175.9433,243.5781 175.5473,243.5781" id="Fill-48" fill="#000"/><path d="M172.6232,243.9838 C167.9552,244.7718 162.2722,246.4218 160.8902,248.7998 C160.5082,249.4578 160.5022,250.1178 160.8712,250.9408 C161.1442,251.5488 161.4772,251.7508 162.1082,251.7238 C165.0282,251.5848 170.1122,246.9228 172.6232,243.9838 M161.9962,254.7228 C160.2462,254.7228 158.8872,253.8448 158.1352,252.1698 C157.3732,250.4698 157.4282,248.7838 158.2972,247.2908 C161.3362,242.0688 173.9752,240.7218 175.4052,240.5858 C176.1882,240.5038 176.8582,241.0228 177.0152,241.7678 C177.5562,244.3328 168.8412,252.8098 164.0632,254.3668 C163.3292,254.6058 162.6372,254.7228 161.9962,254.7228" id="Fill-50" fill="#000"/><polygon id="Fill-52" fill="#FB8686" points="180.8 220.4789 206.969 234.4309 205.198 242.0789 179.092 227.5009"/><path d="M183.6212,208.8773 C183.6212,208.8773 207.0252,219.4353 210.2392,221.6123 L208.4082,228.4883 C208.4082,228.4883 194.6112,221.6853 190.7322,219.1353 C186.8522,216.5863 182.2362,214.5733 182.2362,214.5733 L183.6212,208.8773 Z" id="Fill-54" fill="#FB8686"/><path d="M185.9836,199.1615 L212.5666,213.0245 L214.0276,207.5845 C214.0276,207.5845 192.2066,194.8465 187.3686,193.4685 L185.9836,199.1615 Z" id="Fill-56" fill="#FB8686"/><path d="M176.8776,249.4486 C176.9366,251.1736 179.6116,251.3876 179.5926,249.5586 C179.5716,247.4756 176.8106,247.4746 176.8776,249.4486" id="Fill-58" fill="#070302"/><path d="M173.8908,261.7445 C173.9498,263.4685 176.6248,263.6835 176.6058,261.8535 C176.5848,259.7715 173.8238,259.7695 173.8908,261.7445" id="Fill-60" fill="#070302"/><path d="M43.089,283.9291 C43.148,285.6541 45.823,285.8681 45.804,284.0391 C45.783,281.9561 43.022,281.9551 43.089,283.9291" id="Fill-62" fill="#070302"/><path d="M54.9367,283.9291 C54.9957,285.6541 57.6707,285.8681 57.6517,284.0391 C57.6307,281.9561 54.8697,281.9551 54.9367,283.9291" id="Fill-64" fill="#070302"/><path d="M77.5119,279.0209 C77.5119,279.0209 73.7999,297.1649 73.3559,308.2489 L79.1749,308.2489 C79.1749,308.2489 84.3269,280.0339 84.3279,278.9569 L77.5119,279.0209 Z" id="Fill-66" fill="#FB8686"/><path d="M90.4806,278.8969 C90.4806,278.8969 86.7676,300.6559 86.6006,308.2489 L92.9736,308.2489 C92.9736,308.2489 96.1326,282.2439 97.1306,278.8969 L90.4806,278.8969 Z" id="Fill-68" fill="#FB8686"/><path d="M102.839,278.7797 C102.839,278.7797 101.564,287.6877 100.733,291.7887 C99.901,295.8897 99.404,308.2487 99.404,308.2487 L105.665,308.2487 C105.665,308.2487 107.043,295.7787 107.656,291.7337 C108.27,287.6877 109.544,278.7797 109.544,278.7797 L102.839,278.7797 Z" id="Fill-70" fill="#FB8686"/><path d="M126.3278,160.0043 C126.2318,160.0043 126.1348,159.9943 126.0368,159.9763 C125.1298,159.7973 124.6428,159.4633 124.3218,159.2413 C124.1008,159.0903 124.0268,159.0383 123.7288,158.9813 C123.3848,158.9133 123.2638,158.9323 122.9978,158.9723 C122.6158,159.0313 122.0928,159.1103 121.2338,158.9423 C120.4268,158.7843 120.0088,158.5723 119.6728,158.4013 C119.4348,158.2803 119.2898,158.2073 118.8938,158.1303 C118.2848,158.0103 117.9808,157.9473 117.6758,157.8853 C117.3798,157.8233 117.0838,157.7623 116.4898,157.6463 L114.0868,157.1653 C113.9378,157.1353 113.9378,157.1363 113.6818,157.2453 C113.2678,157.4213 112.5798,157.7163 111.5238,157.5113 C110.9568,157.4003 110.6728,157.3583 110.3868,157.3163 C110.0668,157.2703 109.7458,157.2233 109.1118,157.0993 C108.1788,156.9153 107.6878,156.5533 107.3628,156.3143 C107.1468,156.1533 107.0878,156.1103 106.8178,156.0583 C106.3798,155.9723 106.1848,155.9743 105.9148,155.9833 C105.5618,155.9913 105.1248,156.0023 104.3618,155.8533 C103.5788,155.6993 103.1698,155.5063 102.8408,155.3523 C102.5978,155.2373 102.4368,155.1623 102.0178,155.0803 C101.4688,154.9723 101.1908,154.9383 100.9118,154.9033 C100.5808,154.8623 100.2498,154.8213 99.5968,154.6933 C98.8568,154.5483 98.4628,154.3903 98.1468,154.2623 C97.8878,154.1583 97.7008,154.0823 97.2408,153.9923 C96.6218,153.8713 96.3158,153.8053 96.0088,153.7383 C95.7178,153.6753 95.4258,153.6113 94.8418,153.4973 C94.5698,153.4433 94.4928,153.4623 94.2368,153.5263 C93.8478,153.6243 93.2588,153.7703 92.3308,153.5883 C91.4848,153.4223 91.0358,153.1623 90.7078,152.9723 C90.4798,152.8403 90.3648,152.7743 90.0098,152.7043 C89.3198,152.5683 88.9618,152.4523 88.6478,152.3503 C88.3788,152.2623 88.1478,152.1873 87.6368,152.0873 C86.9298,151.9473 86.5658,151.8193 86.2448,151.7053 C85.9768,151.6103 85.7648,151.5363 85.2728,151.4403 C84.8588,151.3583 84.6828,151.3683 84.4148,151.3823 C84.0478,151.4023 83.5958,151.4273 82.8128,151.2743 C82.3488,151.1833 82.1448,151.1813 81.8638,151.1783 C81.5248,151.1743 81.1028,151.1703 80.3678,151.0263 C79.6718,150.8903 79.3118,150.7693 78.9948,150.6613 C78.7318,150.5723 78.5038,150.4963 78.0008,150.3983 C77.4738,150.2943 77.2038,150.2683 76.9358,150.2423 C76.5938,150.2093 76.2528,150.1763 75.5828,150.0443 C74.6808,149.8673 73.9658,149.4223 73.3908,149.0653 C73.2098,148.9513 73.0288,148.8373 72.8428,148.7363 C71.9798,148.2653 71.2568,147.7023 70.4968,146.9113 C70.3488,146.7563 70.1928,146.6093 70.0388,146.4643 C69.5228,145.9743 68.9368,145.4193 68.5358,144.6093 C68.0928,143.7143 67.9558,142.7873 67.8348,141.9703 L67.7898,141.6673 C67.6398,140.6933 67.7778,139.8333 67.9108,139.0013 L67.9588,138.6933 C68.0288,138.2413 68.0218,138.0463 68.0128,137.7753 C68.0008,137.4413 67.9868,137.0253 68.0998,136.2953 C68.1468,135.9943 68.1238,135.9003 68.0658,135.6513 C67.9748,135.2663 67.8498,134.7383 67.9868,133.8583 C68.1488,132.8093 68.6608,132.2663 68.9658,131.9423 C69.1438,131.7543 69.1438,131.7543 69.1628,131.6263 C69.1808,131.5113 69.1808,131.5113 69.0678,131.2853 C68.8638,130.8803 68.5228,130.2013 68.6878,129.1393 C68.7798,128.5463 68.8298,128.2473 68.8798,127.9523 C68.9288,127.6593 68.9778,127.3703 69.0688,126.7843 C69.1898,126.0013 69.3698,125.5893 69.5158,125.2573 C69.6208,125.0173 69.6838,124.8723 69.7458,124.4773 C69.8248,123.9683 69.8368,123.7093 69.8488,123.4503 C69.8638,123.1333 69.8818,122.7733 69.9838,122.1073 C70.1158,121.2583 70.3638,120.8033 70.5458,120.4723 C70.6678,120.2483 70.7238,120.1463 70.7738,119.8163 C70.8628,119.2463 70.8988,118.9603 70.9358,118.6743 C70.9748,118.3683 71.0148,118.0643 71.1088,117.4553 C71.2138,116.7783 71.3128,116.4263 71.3998,116.1133 C71.4738,115.8513 71.5378,115.6233 71.6148,115.1243 C71.6548,114.8673 71.6358,114.8023 71.5628,114.5593 C71.4498,114.1793 71.2778,113.6053 71.4208,112.6833 C71.5358,111.9413 71.6838,111.5453 71.8038,111.2273 C71.8948,110.9803 71.9628,110.8013 72.0298,110.3643 C72.0908,109.9713 72.0738,109.8143 72.0468,109.5533 C72.0088,109.1923 71.9608,108.7453 72.0818,107.9623 C72.2108,107.1313 72.4428,106.6833 72.6128,106.3553 C72.7298,106.1293 72.7888,106.0163 72.8428,105.6713 C72.8778,105.4413 72.8628,105.3983 72.7808,105.1503 C72.6508,104.7603 72.4558,104.1703 72.6018,103.2233 C72.7328,102.3753 72.9818,101.9213 73.1638,101.5893 C73.2858,101.3663 73.3418,101.2653 73.3918,100.9383 C73.5178,100.1213 73.7368,99.6783 73.8968,99.3553 C74.0098,99.1283 74.0708,99.0033 74.1268,98.6443 C74.1468,98.5133 74.1468,98.5133 74.0358,98.2793 C73.8468,97.8813 73.5278,97.2133 73.6888,96.1683 C73.7828,95.5643 73.8358,95.2633 73.8888,94.9623 C73.9388,94.6773 73.9888,94.3913 74.0778,93.8173 C74.1798,93.1623 74.2608,92.8403 74.3418,92.5173 C74.4048,92.2613 74.4698,92.0053 74.5498,91.4863 C74.6708,90.7043 74.8508,90.2923 74.9968,89.9613 C75.1018,89.7233 75.1648,89.5793 75.2258,89.1863 C75.3378,88.4583 75.4778,88.0673 75.5898,87.7533 C75.6808,87.5013 75.7448,87.3183 75.8148,86.8723 C75.8528,86.6243 75.8348,86.5663 75.7598,86.3213 C75.6428,85.9393 75.4638,85.3593 75.6078,84.4313 C75.6938,83.8763 75.7228,83.5993 75.7518,83.3193 C75.7848,83.0063 75.8178,82.6913 75.9128,82.0693 C76.0218,81.3683 76.1358,81.0063 76.2368,80.6863 C76.3188,80.4253 76.3828,80.2203 76.4568,79.7433 C76.5258,79.3043 76.5168,79.1123 76.5048,78.8473 C76.4898,78.5093 76.4708,78.0903 76.5848,77.3543 C76.7188,76.4873 76.9868,76.0263 77.1818,75.6903 C77.3078,75.4723 77.3608,75.3813 77.4088,75.0723 C77.5258,74.3163 77.6858,73.9133 77.8158,73.5903 C77.9128,73.3453 77.9788,73.1823 78.0428,72.7633 C78.1058,72.3603 78.0898,72.2003 78.0648,71.9373 C78.0308,71.5813 77.9878,71.1393 78.1068,70.3643 C78.1788,69.9003 78.1758,69.6893 78.1728,69.4213 C78.1678,69.0963 78.1628,68.6913 78.2738,67.9803 C78.3988,67.1713 78.6108,66.7313 78.7658,66.4103 C78.8768,66.1793 78.9388,66.0513 78.9948,65.6843 C79.0478,65.3443 79.0258,65.2193 78.9808,64.9723 C78.9148,64.6063 78.8258,64.1063 78.9538,63.2703 C79.0908,62.3833 79.3908,61.8973 79.5888,61.5753 C79.7228,61.3573 79.7678,61.2833 79.8128,60.9953 C79.9388,60.1763 80.6978,59.6123 81.5238,59.7423 C82.3428,59.8683 82.9038,60.6353 82.7768,61.4533 C82.6398,62.3403 82.3408,62.8263 82.1418,63.1483 C82.0088,63.3663 81.9638,63.4403 81.9188,63.7283 C81.8658,64.0683 81.8888,64.1923 81.9328,64.4413 C81.9988,64.8063 82.0888,65.3073 81.9598,66.1423 C81.8348,66.9503 81.6228,67.3913 81.4678,67.7123 C81.3558,67.9433 81.2948,68.0703 81.2378,68.4393 C81.1658,68.9033 81.1688,69.1143 81.1718,69.3823 C81.1768,69.7073 81.1818,70.1113 81.0708,70.8233 C81.0098,71.2243 81.0238,71.3833 81.0508,71.6483 C81.0848,72.0033 81.1278,72.4463 81.0078,73.2223 C80.8898,73.9783 80.7298,74.3803 80.5998,74.7033 C80.5028,74.9493 80.4368,75.1113 80.3728,75.5313 C80.2378,76.3993 79.9718,76.8583 79.7768,77.1943 C79.6508,77.4123 79.5978,77.5033 79.5498,77.8133 C79.4818,78.2553 79.4898,78.4463 79.5018,78.7123 C79.5168,79.0493 79.5358,79.4683 79.4218,80.2023 C79.3138,80.9033 79.1998,81.2663 79.0988,81.5863 C79.0168,81.8473 78.9528,82.0523 78.8778,82.5273 C78.7928,83.0763 78.7648,83.3543 78.7358,83.6303 C78.7028,83.9463 78.6698,84.2623 78.5728,84.8903 C78.5348,85.1363 78.5518,85.1943 78.6268,85.4393 C78.7448,85.8223 78.9238,86.4013 78.7798,87.3313 C78.6668,88.0583 78.5278,88.4483 78.4148,88.7633 C78.3248,89.0163 78.2598,89.1983 78.1908,89.6453 C78.0698,90.4263 77.8888,90.8383 77.7428,91.1693 C77.6378,91.4083 77.5748,91.5523 77.5138,91.9443 C77.4118,92.6003 77.3308,92.9233 77.2498,93.2453 C77.1868,93.5013 77.1218,93.7573 77.0418,94.2763 C76.9488,94.8803 76.8958,95.1813 76.8428,95.4823 C76.7918,95.7683 76.7428,96.0533 76.6538,96.6273 C76.6328,96.7573 76.6328,96.7573 76.7448,96.9903 C76.9338,97.3903 77.2518,98.0583 77.0908,99.1023 C76.9648,99.9183 76.7458,100.3613 76.5858,100.6853 C76.4738,100.9113 76.4118,101.0363 76.3568,101.3963 C76.2258,102.2443 75.9768,102.6983 75.7938,103.0303 C75.6728,103.2533 75.6178,103.3553 75.5668,103.6813 C75.5308,103.9123 75.5448,103.9573 75.6268,104.2043 C75.7568,104.5943 75.9528,105.1833 75.8068,106.1293 C75.6778,106.9613 75.4458,107.4093 75.2758,107.7363 C75.1588,107.9623 75.0998,108.0753 75.0458,108.4213 C74.9848,108.8163 75.0008,108.9753 75.0298,109.2353 C75.0678,109.5953 75.1148,110.0423 74.9948,110.8233 C74.8798,111.5663 74.7308,111.9613 74.6118,112.2793 C74.5198,112.5263 74.4528,112.7043 74.3858,113.1413 C74.3468,113.3953 74.3658,113.4603 74.4378,113.7033 C74.5518,114.0843 74.7228,114.6593 74.5798,115.5833 C74.4748,116.2603 74.3758,116.6123 74.2888,116.9253 C74.2148,117.1883 74.1508,117.4153 74.0738,117.9143 C73.9848,118.4853 73.9488,118.7723 73.9118,119.0583 C73.8728,119.3623 73.8328,119.6673 73.7388,120.2753 C73.6078,121.1233 73.3588,121.5783 73.1778,121.9103 C73.0558,122.1343 72.9998,122.2353 72.9488,122.5663 C72.8698,123.0743 72.8578,123.3333 72.8458,123.5923 C72.8308,123.9093 72.8128,124.2693 72.7108,124.9353 C72.5898,125.7183 72.4078,126.1313 72.2638,126.4623 C72.1578,126.7023 72.0948,126.8473 72.0328,127.2423 C71.9388,127.8493 71.8888,128.1493 71.8378,128.4513 C71.7898,128.7363 71.7408,129.0253 71.6518,129.5983 C71.6348,129.7133 71.6348,129.7133 71.7478,129.9383 C71.9508,130.3433 72.2918,131.0213 72.1278,132.0843 C71.9648,133.1353 71.4528,133.6773 71.1468,134.0013 C70.9708,134.1893 70.9708,134.1893 70.9508,134.3173 C70.9038,134.6203 70.9258,134.7133 70.9848,134.9623 C71.0758,135.3473 71.1998,135.8743 71.0638,136.7533 C70.9948,137.2043 71.0018,137.4003 71.0108,137.6713 C71.0218,138.0053 71.0368,138.4213 70.9238,139.1503 L70.8728,139.4753 C70.7628,140.1603 70.6768,140.7023 70.7548,141.2123 L70.8028,141.5323 C70.9038,142.2173 70.9908,142.8083 71.2238,143.2793 C71.3878,143.6093 71.7188,143.9233 72.1018,144.2863 C72.2908,144.4653 72.4798,144.6463 72.6618,144.8353 C73.2068,145.4013 73.6898,145.7813 74.2798,146.1033 C74.5148,146.2323 74.7458,146.3743 74.9768,146.5183 C75.4168,146.7923 75.7978,147.0293 76.1608,147.1003 C76.6878,147.2033 76.9568,147.2303 77.2258,147.2563 C77.5678,147.2893 77.9088,147.3223 78.5778,147.4533 C79.2758,147.5903 79.6348,147.7123 79.9528,147.8183 C80.2248,147.9103 80.4418,147.9833 80.9438,148.0823 C81.4098,148.1733 81.6128,148.1753 81.8938,148.1783 C82.2328,148.1823 82.6538,148.1863 83.3898,148.3303 C83.8068,148.4123 83.9828,148.4013 84.2498,148.3883 C84.6158,148.3663 85.0658,148.3423 85.8508,148.4963 C86.5578,148.6353 86.9218,148.7643 87.2438,148.8773 C87.5108,148.9723 87.7228,149.0473 88.2148,149.1433 C88.9048,149.2783 89.2618,149.3953 89.5768,149.4973 C89.8448,149.5853 90.0768,149.6603 90.5868,149.7603 C91.4328,149.9263 91.8828,150.1873 92.2108,150.3763 C92.4388,150.5093 92.5548,150.5753 92.9078,150.6453 C93.1808,150.6973 93.2578,150.6793 93.5138,150.6153 C93.9028,150.5193 94.4928,150.3733 95.4198,150.5543 C96.0318,150.6743 96.3378,150.7403 96.6428,150.8073 C96.9368,150.8703 97.2288,150.9343 97.8178,151.0483 C98.5578,151.1933 98.9518,151.3523 99.2678,151.4803 C99.5268,151.5843 99.7128,151.6593 100.1738,151.7493 C100.7238,151.8583 101.0018,151.8923 101.2808,151.9263 C101.6108,151.9673 101.9418,152.0083 102.5958,152.1363 C103.3788,152.2893 103.7888,152.4833 104.1178,152.6373 C104.3598,152.7513 104.5208,152.8263 104.9388,152.9093 C105.3788,152.9953 105.5758,152.9903 105.8418,152.9833 C106.1948,152.9743 106.6328,152.9643 107.3958,153.1133 C108.3278,153.2973 108.8188,153.6593 109.1438,153.9003 C109.3598,154.0593 109.4178,154.1023 109.6888,154.1543 C110.2508,154.2653 110.5358,154.3073 110.8208,154.3483 C111.1418,154.3963 111.4628,154.4423 112.0998,154.5673 C112.2498,154.5963 112.2478,154.5953 112.5038,154.4863 C112.9178,154.3103 113.6108,154.0163 114.6638,154.2213 L117.0668,154.7023 C117.6748,154.8213 117.9788,154.8843 118.2838,154.9473 C118.5788,155.0083 118.8758,155.0693 119.4698,155.1863 C120.2768,155.3443 120.6948,155.5563 121.0308,155.7273 C121.2688,155.8483 121.4128,155.9213 121.8098,155.9983 C122.1558,156.0673 122.2768,156.0483 122.5418,156.0073 C122.9238,155.9483 123.4448,155.8683 124.3068,156.0363 C125.2148,156.2153 125.7008,156.5493 126.0218,156.7703 C126.2428,156.9223 126.3168,156.9733 126.6148,157.0313 C127.4278,157.1913 127.9568,157.9793 127.7968,158.7923 C127.6578,159.5073 127.0298,160.0043 126.3278,160.0043" id="Fill-72" fill="#000"/></g></g></g></g><g id="Upper" transform="translate(-1.000000, 0.000000) scale(1 1)"><defs><path d="M64.794,0.198 L47.115,0.235 C39.998,0.25 33.129,2.86 27.822,7.601 L27.822,7.601 C19.12,15.377 8.18,30.236 9.507,56.232 L9.507,56.232 C10.151,68.865 10.626,79.349 16.743,104.865 L16.743,104.865 C17.329,107.307 17.157,109.872 16.24,112.211 L16.24,112.211 L0.993,158.72 C0.993,158.72 -1.634,164.806 3.935,164.806 L3.935,164.806 L74.519,164.806 L74.519,177.365 C74.519,178.509 75.447,179.437 76.591,179.437 L76.591,179.437 L136.205,179.437 C136.205,179.437 137.701,178.939 137.868,175.447 L137.868,175.447 C138.033,171.955 137.868,61.386 137.868,61.386 L137.868,61.386 C137.868,61.386 136.723,26.059 135.539,18.986 L135.539,18.986 C133.833,8.787 123.734,0.251 115.752,0.198 L115.752,0.198 C113.092,0.18 106.542,0.174 98.994,0.174 L98.994,0.174 C83.895,0.174 64.794,0.198 64.794,0.198" id="upperholding-phone-path-1"/></defs><g id="Upper/Holding Phone" stroke="none" stroke-width="1" fill="none" fill-rule="evenodd"><g id="Group-691" transform="translate(248.500000, 272.500000)"><g id="Group-174" transform="translate(0.000000, 13.095000)"><path d="M131.1129,151.8766 L167.4779,120.9226 C168.3619,119.9196 168.8489,118.6296 168.8489,117.2926 L168.8489,51.3386 L131.1129,80.0486 L131.1129,151.8766 Z" id="Fill-150" fill="#FD2118"/><path d="M64.794,17.1979 L47.115,17.2349 C39.998,17.2499 33.129,19.8599 27.822,24.6009 C19.12,32.3769 8.179,47.2359 9.507,73.2309 C10.152,85.8649 10.626,96.3489 16.743,121.8649 C17.329,124.3059 17.157,126.8729 16.24,129.2109 L0.993,175.7199 C0.993,175.7199 -1.634,181.8049 3.936,181.8049 L74.519,181.8049 L74.519,194.3649 C74.519,195.5099 75.447,196.4369 76.591,196.4369 L136.205,196.4369 C136.205,196.4369 137.701,195.9389 137.868,192.4469 C138.034,188.9559 137.868,78.3859 137.868,78.3859 C137.868,78.3859 136.723,43.0589 135.54,35.9859 C133.833,25.7869 123.734,17.2519 115.753,17.1979 C107.771,17.1439 64.794,17.1979 64.794,17.1979" id="Fill-152" fill="#FE5C4F"/><path d="M227.1548,41.3073 C227.1548,41.3073 222.9978,39.9773 216.8458,52.4473 C216.8458,52.4473 222.1668,30.1663 213.1878,26.5093 C213.1878,26.5093 213.1358,26.4933 213.0478,26.4683 C211.5668,41.1733 209.8628,59.4303 209.8628,59.4303 C209.8628,59.4303 208.9478,64.9173 202.1308,64.6263 C196.6388,64.3923 184.9638,63.6283 184.9638,63.6283 L183.0928,63.5043 L178.1048,63.1713 L179.8398,29.2123 C172.7418,31.1103 168.8488,51.3383 168.8488,51.3383 L168.8488,117.2923 C168.8488,117.2923 208.5328,91.3543 216.8458,81.0453 C225.1598,70.7373 230.9788,58.5993 231.8108,50.1203 C232.6418,41.6393 227.1548,41.3073 227.1548,41.3073" id="Fill-154" fill="#5e0606"/><path d="M183.0933,63.5045 C183.0933,63.5045 190.9073,32.4365 182.4283,29.3355 C181.5223,29.0045 180.6603,28.9925 179.8403,29.2125 L178.1053,63.1715 L183.0933,63.5045 Z" id="Fill-156" fill="#5e0606"/><path d="M209.1978,0.235 C209.1978,0.235 199.8878,0.242 189.9098,0.238 C181.3198,0.235 181.4298,6.39 181.4298,6.39 L179.8558,28.899 L179.8398,29.213 C180.6608,28.993 181.5218,29.005 182.4278,29.336 C190.9078,32.436 183.0938,63.505 183.0938,63.505 L184.9638,63.629 C184.9638,63.629 196.6388,64.392 202.1308,64.627 C208.9478,64.918 209.8628,59.43 209.8628,59.43 C209.8628,59.43 211.5668,41.173 213.0478,26.468 C213.7808,19.184 214.4608,12.772 214.8508,9.881 C216.2368,-0.371 209.1978,0.235 209.1978,0.235" id="Fill-158" fill="#7FBCCE"/><path d="M84.2452,196.4371 L77.3452,196.4371 C77.3452,196.4371 74.1862,209.7391 83.1642,221.7101 C83.1642,221.7101 89.2332,227.6961 89.9812,232.8511 C90.7302,238.0051 90.2312,254.7151 91.7272,260.7011 C93.2242,266.6871 96.3832,272.2561 102.4522,268.5991 C102.4522,268.5991 103.0342,271.8411 107.2742,271.5911 C111.5142,271.3421 113.6752,268.2661 113.6752,268.2661 C113.6752,268.2661 113.9252,271.7581 118.4972,272.2561 C123.0692,272.7551 125.8962,267.1021 125.8962,267.1021 C125.8962,267.1021 126.5612,270.5941 131.0502,270.3441 C135.5392,270.0951 137.3692,265.7721 138.9482,261.7821 C140.5282,257.7911 142.1902,240.4161 141.3592,229.3591 C141.3592,229.3591 145.9322,241.4971 153.8292,240.9151 C161.7272,240.3331 155.8252,226.4491 155.8252,226.4491 C155.8252,226.4491 149.5062,203.3371 136.2042,196.4371 L84.2452,196.4371 Z" id="Fill-160" fill="#5e0606"/><path d="M193.0137,4.2838 L208.8657,4.5058 C208.8657,4.5058 211.9127,4.7268 211.6367,8.2198 C211.3587,11.7108 208.2557,45.4088 208.2557,45.4088 C208.2557,45.4088 208.0337,47.5138 206.3707,47.6258 C204.7087,47.7358 204.4867,45.2978 204.4867,45.2978 C204.4867,45.2978 202.7687,38.2038 203.4337,31.9958 C204.0987,25.7888 203.4337,22.4078 199.5537,19.3588 C195.6747,16.3108 192.5707,11.9318 190.9637,9.0508 C189.3557,6.1688 190.1867,4.2448 193.0137,4.2838" id="Fill-162" fill="#D5E1D5"/><path d="M190.9908,56.9362 C190.7388,60.5242 196.2418,60.4192 196.0618,57.1022 C195.8838,53.8002 191.2018,53.9292 190.9908,56.9362" id="Fill-164" fill="#000"/><path d="M193.525,78.4723 C193.021,78.4723 192.529,78.2183 192.246,77.7563 C188.985,72.4463 182.04,64.5763 181.97,64.4983 L181.452,63.9113 L181.635,63.1513 C187.109,40.5443 183.783,32.8533 183.749,32.7783 C183.408,32.0303 183.728,31.1393 184.471,30.7893 C185.212,30.4413 186.097,30.7433 186.456,31.4843 C186.616,31.8133 190.269,39.7443 184.733,63.1003 C186.442,65.0663 191.899,71.4583 194.802,76.1873 C195.236,76.8933 195.015,77.8173 194.309,78.2503 C194.064,78.4013 193.794,78.4723 193.525,78.4723" id="Fill-166" fill="#000"/><path d="M102.4517,270.0992 C102.2597,270.0992 102.0637,270.0622 101.8757,269.9832 C101.1117,269.6652 100.7497,268.7872 101.0667,268.0232 C101.1317,267.8672 107.5207,252.1392 104.6237,230.8922 C104.5117,230.0712 105.0867,229.3152 105.9067,229.2032 C106.7337,229.0902 107.4837,229.6652 107.5967,230.4872 C110.6097,252.5832 104.1137,268.5082 103.8367,269.1762 C103.5967,269.7512 103.0387,270.0992 102.4517,270.0992" id="Fill-168" fill="#430000"/><path d="M113.6754,269.7662 C113.4804,269.7662 113.2814,269.7282 113.0904,269.6472 C112.3284,269.3252 111.9724,268.4442 112.2944,267.6812 C112.3624,267.5202 119.0694,251.3072 115.8904,229.7442 C115.7704,228.9242 116.3364,228.1622 117.1554,228.0412 C117.9734,227.9142 118.7374,228.4862 118.8594,229.3062 C122.1664,251.7462 115.3484,268.1642 115.0564,268.8522 C114.8144,269.4232 114.2594,269.7662 113.6754,269.7662" id="Fill-170" fill="#430000"/><path d="M125.898,268.6022 C125.793,268.6022 125.687,268.5912 125.581,268.5692 C124.77,268.3942 124.255,267.5962 124.429,266.7872 C124.47,266.5952 128.521,247.4952 127.061,229.6472 C126.994,228.8222 127.608,228.0982 128.434,228.0302 C129.247,227.9572 129.983,228.5782 130.051,229.4032 C131.548,247.7032 127.405,267.2232 127.363,267.4182 C127.21,268.1222 126.589,268.6022 125.898,268.6022" id="Fill-172" fill="#430000"/></g><g id="Group-177" transform="translate(0.000000, 30.095000)"><mask id="upperholding-phone-mask-2" fill="#ffffff"><use xlink:href="#upperholding-phone-path-1" fill="#ffffff"/></mask><g id="Clip-176"/><path d="M81.7198,73.1471 C80.1648,78.9961 79.1888,85.0261 78.7908,91.2091 C70.0918,88.5601 62.4948,84.5851 56.0328,79.2821 C63.7408,76.7981 72.2908,74.6771 81.7198,73.1471 M159.8098,119.0751 L160.5968,110.1091 C129.8728,107.4121 106.9678,112.1401 90.0218,119.7801 C89.2528,116.0641 88.6318,112.2511 88.1908,108.3251 C87.9708,106.3711 87.8138,104.4361 87.7088,102.5171 C94.0498,103.5991 100.7918,104.1611 107.9598,104.1611 C119.1208,104.1611 131.2788,102.8471 144.4058,100.2151 L142.6358,91.3911 C121.4388,95.6401 103.0768,96.2861 87.6498,93.3681 C87.9698,85.8931 89.2148,78.7091 91.3748,71.8311 C107.3158,70.0571 125.5118,69.9691 146.1308,72.5021 L147.2288,63.5701 C127.8318,61.1861 110.4568,61.0491 94.9818,62.4361 C99.6158,52.2961 106.4048,42.8921 115.3488,34.2811 C131.4468,18.7801 148.8288,11.7661 149.0028,11.6971 L145.6918,3.3291 C144.9248,3.6311 126.7138,10.9381 109.3438,27.5691 C98.1538,38.2821 89.9498,50.4071 84.8378,63.5931 C71.2288,65.4881 59.2518,68.5661 48.8138,72.2531 C43.3308,65.9501 39.3538,58.7901 36.4858,51.5071 C55.3518,39.1331 77.9118,19.8731 92.1448,-7.4789 L84.1598,-11.6329 C71.4028,12.8831 51.0118,30.7061 33.4808,42.5301 C31.4578,35.3011 30.3628,28.2581 29.7998,22.1371 C28.1698,4.4051 30.4918,-9.7779 30.5158,-9.9179 L21.6408,-11.4149 C21.5368,-10.7989 19.1168,3.8661 20.8148,22.7061 C21.6158,31.6091 23.2358,39.9251 25.5988,47.5851 C11.1208,56.4031 0.1388,60.6261 -0.1122,60.7201 L1.4708,64.9321 L3.0508,69.1461 C4.0788,68.7601 14.6898,64.6941 28.7408,56.3421 C31.7348,63.5461 35.4988,70.0131 39.9738,75.6621 C15.4888,85.9251 0.9918,99.0801 -4.9962,105.3831 C-5.1532,105.5491 -5.2692,105.6721 -5.3452,105.7481 C-5.1942,105.5971 -4.6302,105.0841 -3.7212,104.7811 L-0.8762,113.3191 C0.2298,112.9511 0.8028,112.3461 1.5298,111.5821 C7.3428,105.4621 21.7268,92.4701 46.3868,82.7341 C55.1608,91.1331 65.9328,97.0571 78.6228,100.5171 C78.7068,103.4261 78.9138,106.3651 79.2468,109.3311 C79.8268,114.4901 80.6768,119.3671 81.7388,123.9881 C72.3758,129.3271 65.2278,135.5021 59.8558,141.4101 C58.5108,142.8891 57.2588,144.3751 56.0788,145.8571 C54.0408,144.2761 51.8498,142.7641 49.4958,141.3371 C25.7548,126.9521 -8.7142,123.6731 -27.0292,128.8861 L-24.5662,137.5431 C-8.0632,132.8451 23.1628,135.9031 44.8308,149.0351 C47.0058,150.3531 49.0068,151.7301 50.8408,153.1611 C41.6818,167.4041 39.4878,179.6961 39.3768,180.3451 L48.2478,181.8651 C48.2718,181.7301 50.1298,171.5621 57.5118,159.4851 C61.2518,163.8641 63.6828,168.6471 64.7508,173.8081 L73.5638,171.9861 C72.0538,164.6861 68.3768,157.9141 62.7588,151.9171 C64.0098,150.3181 65.3608,148.7151 66.8238,147.1261 C71.9248,141.5821 77.6998,136.8341 84.1348,132.8851 C92.0528,158.2521 106.6618,174.6601 118.8768,184.5671 C135.8508,198.3351 151.6998,202.7721 152.3658,202.9551 L154.7468,194.2751 C154.5988,194.2341 139.7778,190.0311 124.2468,177.3341 C108.6388,164.5731 97.9078,148.2101 92.1828,128.5321 C110.3498,119.8981 132.9688,116.7171 159.8098,119.0751" id="Fill-175" fill="#7FBCCE" mask="url(#upperholding-phone-mask-2)"/></g><g id="Group-184" transform="translate(55.000000, 0.095000)"><path d="M18.8736,196.3063 C18.0456,196.3063 17.3736,195.6343 17.3736,194.8063 C17.3736,193.8833 17.6166,193.3463 17.7766,192.9903 C17.8826,192.7553 17.9146,192.6853 17.9146,192.4093 C17.9146,192.0953 17.8766,191.9973 17.7826,191.7623 C17.6396,191.3973 17.4416,190.8983 17.4416,190.0133 L17.4326,187.6193 C17.4326,186.8833 17.5076,186.4763 17.5676,186.1493 C17.6176,185.8803 17.6536,185.6863 17.6536,185.2263 C17.6536,184.8733 17.6126,184.7513 17.5306,184.5083 C17.4126,184.1583 17.2506,183.6773 17.2506,182.8323 C17.2506,182.0193 17.3876,181.5543 17.4856,181.2143 C17.5606,180.9613 17.6016,180.8233 17.6016,180.4393 C17.6016,179.5733 17.7816,179.0823 17.9146,178.7233 C18.0026,178.4853 18.0426,178.3763 18.0426,178.0453 C18.0426,177.4613 18.0366,177.1693 18.0306,176.8773 C18.0246,176.5713 18.0196,176.2643 18.0196,175.6513 C18.0196,175.0353 18.0256,174.7273 18.0326,174.4193 C18.0386,174.1283 18.0456,173.8363 18.0456,173.2543 C18.0456,173.0323 18.0256,172.9953 17.9016,172.7643 C17.7036,172.3933 17.4026,171.8323 17.4026,170.8563 C17.4026,169.8193 17.7906,169.2123 18.0216,168.8503 C18.1686,168.6203 18.1686,168.6203 18.1686,168.4593 C18.1686,168.2903 18.1656,168.2853 18.0216,168.0563 C17.7976,167.6963 17.4206,167.0923 17.4206,166.0643 C17.4206,165.0393 17.7916,164.4383 18.0136,164.0783 C18.1566,163.8463 18.1596,163.8423 18.1596,163.6683 C18.1596,163.4083 18.1306,163.3463 18.0196,163.1153 C17.8496,162.7543 17.5916,162.2103 17.5916,161.2743 C17.5916,160.3883 17.7896,159.8883 17.9356,159.5233 C18.0306,159.2823 18.0666,159.1913 18.0666,158.8793 C18.0666,158.4263 18.0296,158.2353 17.9776,157.9703 C17.9126,157.6403 17.8316,157.2283 17.8316,156.4833 C17.8316,155.8263 17.8566,155.4973 17.8826,155.1683 C17.9036,154.8983 17.9246,154.6273 17.9246,154.0853 C17.9246,153.6223 17.8886,153.4283 17.8386,153.1583 C17.7786,152.8303 17.7036,152.4243 17.7036,151.6883 C17.7036,150.8843 17.8256,150.4443 17.9246,150.0893 C17.9936,149.8383 18.0356,149.6863 18.0356,149.2913 C18.0356,148.9743 17.9976,148.8763 17.9046,148.6383 C17.7626,148.2753 17.5676,147.7773 17.5676,146.8953 C17.5676,146.1603 17.6426,145.7533 17.7026,145.4273 C17.7516,145.1573 17.7876,144.9623 17.7876,144.4993 C17.7876,143.7243 17.8906,143.2963 17.9726,142.9523 C18.0326,142.6953 18.0736,142.5253 18.0736,142.1033 C18.0736,141.5723 18.0496,141.3063 18.0246,141.0403 C17.9936,140.7063 17.9636,140.3723 17.9636,139.7043 C17.9636,139.4083 17.9296,139.3273 17.8286,139.0873 C17.6336,138.6243 17.4586,138.1403 17.4586,137.3063 C17.4586,136.7363 17.4476,136.4513 17.4366,136.1653 C17.4246,135.8523 17.4126,135.5373 17.4126,134.9103 C17.4126,134.0403 17.5966,133.5483 17.7296,133.1883 C17.8206,132.9443 17.8586,132.8423 17.8586,132.5133 C17.8586,131.7803 17.9326,131.3743 17.9906,131.0493 C18.0396,130.7783 18.0746,130.5813 18.0746,130.1163 C18.0746,129.5023 18.0806,129.1963 18.0856,128.8893 C18.0916,128.5963 18.0966,128.3033 18.0966,127.7163 L18.0906,125.3193 C18.0906,124.7343 18.0846,124.4423 18.0786,124.1503 C18.0726,123.8423 18.0666,123.5353 18.0666,122.9213 C18.0666,122.6813 18.0426,122.6333 17.9256,122.4023 C17.7386,122.0353 17.4576,121.4823 17.4576,120.5243 C17.4576,119.6633 17.6326,119.1743 17.7606,118.8183 C17.8476,118.5753 17.8876,118.4633 17.8876,118.1243 C17.8876,117.5903 17.8636,117.3233 17.8406,117.0563 C17.8116,116.7233 17.7826,116.3913 17.7826,115.7273 C17.7826,114.9613 17.8776,114.5393 17.9536,114.2003 C18.0126,113.9363 18.0516,113.7623 18.0516,113.3283 C18.0516,113.0713 18.0236,113.0153 17.9106,112.7803 C17.7366,112.4183 17.4746,111.8713 17.4746,110.9303 C17.4746,109.9593 17.7696,109.4013 17.9646,109.0323 C18.0856,108.8033 18.1066,108.7623 18.1066,108.5353 C18.1066,108.1993 18.0666,108.0883 17.9796,107.8473 C17.8516,107.4913 17.6756,107.0023 17.6756,106.1413 C17.6756,105.6893 17.6376,105.4983 17.5856,105.2353 C17.5196,104.9043 17.4386,104.4923 17.4386,103.7463 C17.4386,103.0193 17.5086,102.6163 17.5636,102.2923 C17.6096,102.0283 17.6456,101.8203 17.6456,101.3483 C17.6456,100.7183 17.6586,100.4033 17.6716,100.0883 C17.6836,99.8033 17.6946,99.5193 17.6946,98.9513 C17.6946,98.4453 17.6656,98.2103 17.6316,97.9393 C17.5906,97.6153 17.5446,97.2463 17.5446,96.5543 C17.5446,95.6983 17.7166,95.2113 17.8426,94.8563 C17.9296,94.6113 17.9686,94.4983 17.9686,94.1573 C17.9686,93.4683 18.0116,93.1043 18.0486,92.7823 C18.0806,92.5063 18.1086,92.2693 18.1086,91.7563 C18.1086,91.2273 18.0836,90.9633 18.0596,90.6993 C18.0266,90.3643 17.9956,90.0293 17.9956,89.3593 C17.9956,88.8703 17.9636,88.6543 17.9226,88.3803 C17.8726,88.0473 17.8156,87.6703 17.8156,86.9583 C17.8156,86.7273 17.7946,86.6853 17.6736,86.4533 C17.4796,86.0843 17.1886,85.5273 17.1886,84.5593 C17.1886,83.9363 17.1986,83.6243 17.2076,83.3133 C17.2166,83.0243 17.2256,82.7353 17.2256,82.1583 C17.2256,81.0373 17.7226,80.4073 18.0196,80.0303 C18.0746,79.9583 18.1506,79.8623 18.1666,79.8293 C18.1706,79.4743 18.1386,79.4023 18.0326,79.1623 C17.8766,78.8093 17.6406,78.2733 17.6406,77.3573 C17.6406,76.8313 17.6136,76.5703 17.5866,76.3073 C17.5546,75.9903 17.5186,75.6313 17.5186,74.9543 C17.5186,74.3923 17.5046,74.1113 17.4896,73.8293 C17.4746,73.5123 17.4586,73.1943 17.4586,72.5573 C17.4586,71.9303 17.4706,71.6163 17.4816,71.3023 C17.4916,71.0163 17.5026,70.7303 17.5026,70.1573 C17.5026,69.3533 17.6246,68.9113 17.7226,68.5573 C17.7916,68.3043 17.8336,68.1523 17.8336,67.7543 C17.8336,67.3013 17.7956,67.1103 17.7426,66.8453 C17.6766,66.5133 17.5946,66.0993 17.5946,65.3513 C17.5946,64.4503 17.8066,63.9423 17.9606,63.5723 C18.0586,63.3353 18.0956,63.2473 18.0956,62.9473 C18.0956,62.7933 18.0956,62.7933 17.9456,62.5663 C17.7066,62.2013 17.3056,61.5893 17.3056,60.5393 C17.3056,59.5243 17.6486,58.9483 17.8766,58.5663 C18.0156,58.3333 18.0236,58.3203 18.0236,58.1313 C18.0236,57.3023 18.6956,56.6313 19.5236,56.6313 C20.3526,56.6313 21.0236,57.3023 21.0236,58.1313 C21.0236,59.1473 20.6806,59.7233 20.4526,60.1043 C20.3136,60.3373 20.3056,60.3513 20.3056,60.5393 C20.3056,60.6933 20.3056,60.6933 20.4546,60.9193 C20.6936,61.2853 21.0956,61.8973 21.0956,62.9473 C21.0956,63.8483 20.8836,64.3553 20.7286,64.7263 C20.6316,64.9613 20.5946,65.0493 20.5946,65.3513 C20.5946,65.8043 20.6326,65.9943 20.6856,66.2593 C20.7516,66.5923 20.8336,67.0053 20.8336,67.7543 C20.8336,68.5573 20.7116,68.9993 20.6136,69.3543 C20.5446,69.6073 20.5026,69.7593 20.5026,70.1573 C20.5026,70.7853 20.4906,71.0983 20.4786,71.4113 C20.4696,71.6993 20.4586,71.9853 20.4586,72.5573 C20.4586,73.1193 20.4726,73.4003 20.4866,73.6813 C20.5026,73.9993 20.5186,74.3183 20.5186,74.9543 C20.5186,75.4793 20.5446,75.7423 20.5716,76.0033 C20.6036,76.3213 20.6406,76.6803 20.6406,77.3573 C20.6406,77.6403 20.6726,77.7123 20.7766,77.9513 C20.9346,78.3053 21.1706,78.8403 21.1706,79.7573 C21.1706,80.8773 20.6736,81.5093 20.3756,81.8863 C20.3206,81.9563 20.2446,82.0533 20.2286,82.0863 C20.2256,82.7813 20.2156,83.0923 20.2066,83.4033 C20.1976,83.6923 20.1886,83.9813 20.1886,84.5593 C20.1886,84.7903 20.2106,84.8323 20.3316,85.0643 C20.5246,85.4333 20.8156,85.9903 20.8156,86.9583 C20.8156,87.4473 20.8486,87.6623 20.8896,87.9363 C20.9386,88.2693 20.9956,88.6473 20.9956,89.3593 C20.9956,89.8873 21.0206,90.1523 21.0456,90.4163 C21.0776,90.7513 21.1086,91.0863 21.1086,91.7563 C21.1086,92.4443 21.0656,92.8093 21.0286,93.1313 C20.9966,93.4063 20.9686,93.6443 20.9686,94.1573 C20.9686,95.0133 20.7966,95.5003 20.6706,95.8563 C20.5836,96.1013 20.5446,96.2123 20.5446,96.5543 C20.5446,97.0593 20.5736,97.2933 20.6076,97.5653 C20.6486,97.8903 20.6946,98.2573 20.6946,98.9513 C20.6946,99.5803 20.6826,99.8953 20.6696,100.2103 C20.6576,100.4943 20.6456,100.7793 20.6456,101.3483 C20.6456,102.0773 20.5766,102.4793 20.5206,102.8033 C20.4756,103.0673 20.4386,103.2763 20.4386,103.7463 C20.4386,104.1993 20.4776,104.3893 20.5286,104.6543 C20.5946,104.9853 20.6756,105.3963 20.6756,106.1413 C20.6756,106.4773 20.7156,106.5873 20.8026,106.8293 C20.9316,107.1863 21.1066,107.6743 21.1066,108.5353 C21.1066,109.5053 20.8116,110.0643 20.6166,110.4333 C20.4926,110.6673 20.4746,110.7033 20.4746,110.9303 C20.4746,111.1873 20.5016,111.2433 20.6146,111.4793 C20.7886,111.8403 21.0516,112.3863 21.0516,113.3283 C21.0516,114.0943 20.9566,114.5163 20.8806,114.8553 C20.8216,115.1183 20.7826,115.2933 20.7826,115.7273 C20.7826,116.2613 20.8066,116.5283 20.8296,116.7953 C20.8576,117.1273 20.8876,117.4603 20.8876,118.1243 C20.8876,118.9853 20.7126,119.4733 20.5846,119.8293 C20.4976,120.0733 20.4576,120.1843 20.4576,120.5243 C20.4576,120.7643 20.4816,120.8123 20.5996,121.0423 C20.7856,121.4093 21.0666,121.9623 21.0666,122.9213 C21.0666,123.5063 21.0726,123.7983 21.0786,124.0913 C21.0846,124.3983 21.0906,124.7043 21.0906,125.3193 L21.0966,127.7163 C21.0966,128.3293 21.0906,128.6363 21.0856,128.9433 C21.0796,129.2373 21.0746,129.5303 21.0746,130.1163 C21.0746,130.8493 21.0016,131.2543 20.9426,131.5803 C20.8946,131.8523 20.8586,132.0483 20.8586,132.5133 C20.8586,133.3833 20.6756,133.8753 20.5416,134.2353 C20.4506,134.4803 20.4126,134.5813 20.4126,134.9103 C20.4126,135.4803 20.4236,135.7653 20.4346,136.0503 C20.4466,136.3653 20.4586,136.6783 20.4586,137.3063 C20.4586,137.6033 20.4926,137.6843 20.5936,137.9233 C20.7886,138.3863 20.9636,138.8713 20.9636,139.7043 C20.9636,140.2353 20.9876,140.5003 21.0126,140.7663 C21.0436,141.1003 21.0736,141.4343 21.0736,142.1033 C21.0736,142.8783 20.9716,143.3063 20.8906,143.6493 C20.8286,143.9073 20.7876,144.0773 20.7876,144.4993 C20.7876,145.2353 20.7136,145.6413 20.6526,145.9683 C20.6036,146.2383 20.5676,146.4333 20.5676,146.8953 C20.5676,147.2113 20.6056,147.3103 20.6986,147.5473 C20.8416,147.9113 21.0356,148.4103 21.0356,149.2913 C21.0356,150.0943 20.9136,150.5353 20.8146,150.8903 C20.7456,151.1413 20.7036,151.2923 20.7036,151.6883 C20.7036,152.1503 20.7396,152.3453 20.7896,152.6153 C20.8496,152.9423 20.9246,153.3493 20.9246,154.0853 C20.9246,154.7433 20.8986,155.0723 20.8736,155.4003 C20.8526,155.6713 20.8316,155.9423 20.8316,156.4833 C20.8316,156.9363 20.8686,157.1273 20.9216,157.3923 C20.9856,157.7233 21.0666,158.1343 21.0666,158.8793 C21.0666,159.7653 20.8686,160.2653 20.7236,160.6303 C20.6276,160.8723 20.5916,160.9623 20.5916,161.2743 C20.5916,161.5353 20.6206,161.5973 20.7306,161.8283 C20.9016,162.1883 21.1596,162.7323 21.1596,163.6683 C21.1596,164.6933 20.7886,165.2953 20.5656,165.6553 C20.4236,165.8863 20.4206,165.8913 20.4206,166.0643 C20.4206,166.2333 20.4236,166.2373 20.5666,166.4673 C20.7916,166.8273 21.1686,167.4303 21.1686,168.4593 C21.1686,169.4963 20.7806,170.1033 20.5496,170.4653 C20.4026,170.6963 20.4026,170.6963 20.4026,170.8563 C20.4026,171.0793 20.4226,171.1153 20.5466,171.3473 C20.7446,171.7173 21.0456,172.2783 21.0456,173.2543 C21.0456,173.8693 21.0386,174.1773 21.0316,174.4863 C21.0256,174.7773 21.0196,175.0683 21.0196,175.6513 C21.0196,176.2353 21.0246,176.5273 21.0306,176.8193 C21.0366,177.1253 21.0426,177.4323 21.0426,178.0453 C21.0426,178.9113 20.8616,179.4033 20.7286,179.7613 C20.6416,179.9993 20.6016,180.1093 20.6016,180.4393 C20.6016,181.2523 20.4646,181.7183 20.3656,182.0583 C20.2916,182.3103 20.2506,182.4503 20.2506,182.8323 C20.2506,183.1853 20.2916,183.3073 20.3736,183.5503 C20.4916,183.9013 20.6536,184.3813 20.6536,185.2263 C20.6536,185.9623 20.5786,186.3683 20.5186,186.6963 C20.4686,186.9643 20.4326,187.1593 20.4326,187.6193 L20.4416,190.0133 C20.4416,190.3273 20.4796,190.4243 20.5736,190.6603 C20.7176,191.0253 20.9146,191.5253 20.9146,192.4093 C20.9146,193.3303 20.6716,193.8683 20.5116,194.2243 C20.4056,194.4583 20.3736,194.5303 20.3736,194.8063 C20.3736,195.6343 19.7016,196.3063 18.8736,196.3063" id="Fill-178" fill="#000"/><path d="M25.605,0.9342 L14.206,0.9342 C9.052,0.9342 4.666,4.6282 3.75,9.6692 C3.74,9.7322 3.731,9.7932 3.721,9.8562 L3.716,9.8902 C3.679,10.1352 3.641,10.3862 3.604,10.6352 C2.277,19.3762 0.639,30.0862 0.639,30.0862 L36.072,30.0862 L36.144,22.3222 L36.242,11.6702 C36.297,5.7572 31.519,0.9342 25.605,0.9342" id="Fill-180" fill="#5e0606"/><path d="M36.0718,30.0865 C22.1968,29.1105 18.4058,26.1365 18.5398,23.6595 C18.6588,21.4405 20.7438,21.7495 21.6548,21.7705 C25.6688,21.8605 36.1438,22.3215 36.1438,22.3215" id="Fill-182" fill="#000"/></g></g></g></g><g id="Head" transform="translate(204.000000, 145.000000) scale(1 1)"><g id="Head/Bald" stroke="none" stroke-width="1" fill="none" fill-rule="evenodd"><g id="Group-183" transform="translate(100.000000, 94.000000)"><g id="Group-35" transform="translate(0.000000, 0.738000)"><path d="M54.2635,25.4479 C53.2995,20.0999 44.0205,22.4259 42.6645,22.7949 C41.2955,16.8799 39.8015,11.5029 38.4505,8.9759 C35.7455,3.9189 27.4985,-1.3961 14.3095,0.6449 C5.5525,1.9999 -3.7735,10.1689 2.2845,24.3889 C2.2845,24.3889 4.0165,27.8379 3.1875,33.5219 C3.0965,34.1479 2.9665,35.0219 2.8095,36.0639 L2.8085,36.0709 C2.5455,37.8319 2.2045,40.0879 1.8315,42.5519 C1.8225,42.6149 1.8125,42.6759 1.8035,42.7379 L1.7985,42.7719 L1.7985,42.7729 C1.7605,43.0179 1.7225,43.2679 1.6845,43.5169 C1.4555,46.1069 2.1615,54.5829 21.2395,54.6779 L34.2255,55.2039 L34.4235,55.2129 C34.4235,55.2129 38.7745,55.1639 41.4085,55.1639 C46.8825,55.1639 47.8225,49.9449 47.2085,46.0829 C46.9585,44.5149 46.0565,39.2069 44.8345,33.0059 C45.9565,32.7689 55.2025,30.6539 54.2635,25.4479" id="Fill-31" fill="#5e0606"/><path d="M6.84902363,25.4590535 C8.41903185,23.2154055 11.1945553,22.9991124 14.8931423,24.5805224 C15.4009558,24.7976489 15.6366041,25.3853289 15.4194776,25.8931423 C15.2023511,26.4009558 14.6146711,26.6366041 14.1068577,26.4194776 C11.1766142,25.1665893 9.39770368,25.3052177 8.48767457,26.6057108 C6.41692941,29.5649458 7.51344578,32.9704669 13.1077714,35.46231 C13.6122722,35.6870264 13.8390822,36.2781737 13.6143658,36.7826744 C13.3896494,37.2871751 12.7985021,37.5139852 12.2940014,37.2892688 C5.58568252,34.3012271 4.03396589,29.4819615 6.84902363,25.4590535 Z" id="Path" fill="#000" fill-rule="nonzero"/></g></g></g></g><g id="Expression" transform="translate(315.000000, 246.000000) scale(1 1)"><defs><path d="M2.973,1.055 C-0.453,2.37 -2.944,13.004 10.567,16.001 L10.567,16.001 C16.271,17.266 19.387,14.583 19.536,11.9 L19.536,11.9 C19.665,9.554 17.527,7.208 12.869,7.501 L12.869,7.501 C11.822,7.568 10.572,7.073 9.905,5.972 L9.905,5.972 C8.651,3.902 7.906,0.626 4.999,0.626 L4.999,0.626 C4.417,0.626 3.749,0.757 2.973,1.055" id="expressionlaugh-path-1"/></defs><g id="Expression/Laugh" stroke="none" stroke-width="1" fill="none" fill-rule="evenodd"><g id="Group-77" transform="translate(13.400000, 13.300000)"><g id="Group-3" transform="translate(0.000000, 0.116900)"><g id="Group" transform="translate(0.000000, 15.000000)"><path d="M2.973,1.0549 C-0.453,2.3699 -2.944,13.0039 10.567,15.9999 C21.261,18.3719 22.855,6.8709 12.869,7.5009 C11.822,7.5679 10.571,7.0739 9.904,5.9719 C8.4,3.4879 7.63,-0.7321 2.973,1.0549" id="Fill-37" fill="#000"/><g id="Group-41"><mask id="expressionlaugh-mask-2" fill="#ffffff"><use xlink:href="#expressionlaugh-path-1" fill="#ffffff"/></mask><g id="Clip-40"/><path d="M-3.2101,3.4943 C-3.2101,3.4943 1.3509,2.7393 5.4389,7.3023 C9.5279,11.8643 9.1349,18.8593 9.1349,18.8593 C9.1349,18.8593 -6.6571,11.2823 -3.2101,3.4943" id="Fill-39" fill="#FF71DB" mask="url(#expressionlaugh-mask-2)"/></g></g><g id="Group-46" transform="translate(3.000000, 0.000000)"><path d="M3.1312,6.052 C3.7892,6.555 4.7312,6.427 5.2332,5.769 C7.2772,3.086 9.8032,4.136 10.1002,4.271 C10.8412,4.624 11.7342,4.313 12.0932,3.571 C12.4552,2.825 12.1432,1.928 11.3982,1.566 C10.3642,1.065 8.4892,0.66 6.5312,1.268 C5.2702,1.659 3.9732,2.472 2.8462,3.95 C2.3442,4.61 2.4722,5.55 3.1312,6.052" id="Fill-42" fill="#000"/><path d="M4.6669,6.3596 C4.6669,7.0556 3.7149,7.6196 2.5399,7.6196 C1.3649,7.6196 0.4129,7.0556 0.4129,6.3596 C0.4129,5.6646 1.3649,5.0996 2.5399,5.0996 C3.7149,5.0996 4.6669,5.6646 4.6669,6.3596" id="Fill-44" fill="#F8FBF8"/></g></g></g></g></g><g id="Facial Hair" transform="translate(311.300000, 250.950000) scale(1 1)"><g id="Facial Hair/Neck Beard" stroke="none" stroke-width="1" fill="none" fill-rule="evenodd"><g id="Group-88" transform="translate(6.000000, 26.000000)" fill="#3164cf"><path d="M2.7771,11.8062 C2.7771,11.8062 -2.0449,4.8692 2.4441,1.6942 C5.3501,-0.3608 8.6381,1.4032 10.3081,4.1972 C11.3741,5.9812 13.1691,9.6752 18.4061,9.9242 C23.6441,10.1742 32.8441,9.6502 32.8441,9.6502 C35.2531,9.4772 37.3821,11.2022 37.7141,13.5932 L38.0091,15.7272 C38.3771,18.3782 36.4031,20.7802 33.7301,20.9332 L16.2221,21.9372 C12.0761,22.1742 8.1251,20.1582 5.8861,16.6602 L2.7771,11.8062 Z" id="Fill-13"/></g></g></g><g id="Accesories" transform="translate(311.300000, 250.950000) scale(1 1)"><g id="Accesories/Round Shades" stroke="none" stroke-width="1" fill="none" fill-rule="evenodd"><g id="Group-88" transform="translate(4.000000, 0.000000)"><g id="Group-59" transform="translate(0.000000, 0.609100)"><path d="M16.2165,9.0233 C16.1245,20.0733 34.0865,19.7113 33.7845,9.1663 C33.4595,-2.2237 16.3145,-2.7907 16.2165,9.0233" id="Fill-53" fill="#12183B"/><path d="M18.7737,3.1942 L2.2997,3.2372 C1.3237,3.2392 0.5337,3.9612 0.5337,4.8482 C0.5337,5.7282 1.3077,6.4462 2.2747,6.4612 L18.7737,6.7182 L18.7737,3.1942 Z" id="Fill-55" fill="#12183B"/><path d="M27.0595,14.9231 C27.0595,14.9231 24.4875,15.2771 24.3985,13.3711 C24.3565,12.4641 25.2275,11.9381 26.1525,11.6361 C26.7565,11.4391 26.9515,10.7311 26.6105,10.1951 C26.4355,9.9211 26.3275,9.5801 26.3495,9.1591 C26.3825,8.5371 26.6195,8.1321 26.9055,7.8691 C27.1705,7.6271 27.0465,7.1841 26.7005,7.0891 C25.2615,6.6891 23.1845,5.8521 23.3345,4.3701 C23.6455,1.3111 31.2985,3.4631 31.6535,8.4061 C32.0075,13.3501 28.8325,14.5241 27.0595,14.9231 Z" id="Fill-57" fill="#F8FBF8"/></g></g></g></g></g></g></g></svg>