<svg xmlns="http://www.w3.org/2000/svg" xmlns:xlink="http://www.w3.org/1999/xlink" width="500" zoomAndPan="magnify" viewBox="0 0 375 374.999991" height="500" preserveAspectRatio="xMidYMid meet" version="1.0"><defs><g/><clipPath id="a1757ad8ac"><path d="M 50 58 L 318 58 L 318 325 L 50 325 Z M 50 58 " clip-rule="nonzero"/></clipPath><clipPath id="3ec4ab8ff3"><path d="M 188.445312 1.929688 L 334.148438 154.199219 L 140.148438 339.824219 L -5.550781 187.554688 Z M 188.445312 1.929688 " clip-rule="nonzero"/></clipPath><clipPath id="64fe273d6f"><path d="M 188.445312 1.929688 L 374.074219 195.925781 L 180.074219 381.550781 L -5.550781 187.554688 Z M 188.445312 1.929688 " clip-rule="nonzero"/></clipPath><clipPath id="e89abb8680"><path d="M 120.410156 112.5 L 254.660156 112.5 L 254.660156 262.5 L 120.410156 262.5 Z M 120.410156 112.5 " clip-rule="nonzero"/></clipPath></defs><g clip-path="url(#a1757ad8ac)"><g clip-path="url(#3ec4ab8ff3)"><g clip-path="url(#64fe273d6f)"><path fill="#030d0b" d="M 245.46875 307.484375 C 234.742188 313.039062 223.203125 316.882812 211.429688 319.222656 C 201.792969 321.074219 192.011719 322.054688 182.21875 322.007812 C 180.914062 322.039062 179.613281 321.921875 178.3125 321.875 C 177.011719 321.804688 175.707031 321.777344 174.40625 321.675781 L 170.515625 321.320312 L 168.566406 321.140625 L 166.632812 320.878906 L 162.757812 320.359375 C 161.46875 320.15625 160.191406 319.902344 158.90625 319.679688 C 156.328125 319.28125 153.800781 318.652344 151.246094 318.105469 C 150.878906 318.027344 150.496094 317.941406 150.09375 317.855469 C 149.699219 317.746094 149.289062 317.632812 148.859375 317.519531 C 148.003906 317.28125 147.082031 317.027344 146.105469 316.757812 C 144.128906 316.261719 141.984375 315.492188 139.613281 314.710938 C 139.027344 314.507812 138.417969 314.324219 137.808594 314.09375 C 137.203125 313.859375 136.589844 313.617188 135.960938 313.371094 C 134.707031 312.878906 133.40625 312.367188 132.0625 311.839844 C 129.453125 310.625 126.609375 309.476562 123.792969 307.945312 C 112.3125 302.265625 99.96875 293.269531 89.496094 282.414062 C 79.113281 271.472656 70.671875 258.746094 65.5 247.027344 C 64.097656 244.144531 63.074219 241.253906 61.976562 238.589844 C 61.507812 237.226562 61.054688 235.90625 60.617188 234.632812 C 60.402344 233.992188 60.1875 233.367188 59.976562 232.753906 C 59.773438 232.136719 59.617188 231.519531 59.441406 230.921875 C 58.761719 228.523438 58.089844 226.34375 57.679688 224.347656 C 57.453125 223.359375 57.242188 222.425781 57.046875 221.5625 C 56.945312 221.128906 56.851562 220.714844 56.761719 220.3125 C 56.691406 219.910156 56.625 219.519531 56.5625 219.152344 C 54.777344 209.519531 53.859375 199.738281 53.972656 189.945312 C 54.199219 179.515625 55.703125 169.144531 58.097656 158.980469 C 60.953125 147.316406 65.304688 135.960938 71.324219 125.488281 C 77.222656 114.941406 84.847656 105.378906 93.535156 96.921875 C 102.367188 88.617188 112.257812 81.417969 123.054688 75.996094 C 133.78125 70.441406 145.316406 66.597656 157.09375 64.253906 C 166.726562 62.40625 176.507812 61.425781 186.300781 61.472656 C 187.605469 61.441406 188.90625 61.554688 190.210938 61.601562 C 191.511719 61.671875 192.816406 61.703125 194.113281 61.800781 L 198.007812 62.160156 L 199.953125 62.335938 L 201.890625 62.601562 L 205.765625 63.121094 C 207.050781 63.324219 208.328125 63.578125 209.613281 63.796875 C 212.191406 64.199219 214.722656 64.828125 217.273438 65.371094 C 217.640625 65.453125 218.023438 65.539062 218.425781 65.625 C 218.820312 65.734375 219.234375 65.84375 219.660156 65.960938 C 220.515625 66.195312 221.4375 66.449219 222.417969 66.722656 C 224.390625 67.21875 226.539062 67.988281 228.90625 68.765625 C 229.496094 68.96875 230.105469 69.15625 230.710938 69.386719 C 231.316406 69.621094 231.933594 69.863281 232.5625 70.109375 C 233.816406 70.601562 235.117188 71.113281 236.457031 71.640625 C 239.070312 72.851562 241.914062 74.003906 244.726562 75.53125 C 256.210938 81.214844 268.550781 90.210938 279.027344 101.066406 C 289.40625 112.007812 297.847656 124.734375 303.019531 136.453125 C 304.421875 139.335938 305.445312 142.222656 306.542969 144.890625 C 307.011719 146.25 307.464844 147.574219 307.902344 148.847656 C 308.121094 149.484375 308.335938 150.113281 308.542969 150.726562 C 308.746094 151.34375 308.902344 151.960938 309.082031 152.558594 C 309.757812 154.957031 310.429688 157.136719 310.839844 159.128906 C 311.066406 160.121094 311.277344 161.050781 311.476562 161.917969 C 311.574219 162.347656 311.667969 162.765625 311.757812 163.167969 C 311.828125 163.570312 311.894531 163.957031 311.960938 164.328125 C 313.746094 173.960938 314.660156 183.742188 314.546875 193.535156 C 314.324219 203.964844 312.816406 214.335938 310.421875 224.5 C 307.566406 236.164062 303.214844 247.519531 297.195312 257.992188 C 291.300781 268.535156 283.671875 278.101562 274.988281 286.558594 C 266.15625 294.863281 256.265625 302.058594 245.46875 307.484375 Z M 277.136719 288.675781 L 277.144531 288.667969 C 286.011719 280.03125 293.808594 270.265625 299.847656 259.492188 C 306.011719 248.796875 310.460938 237.183594 313.347656 225.261719 L 314.601562 219.652344 C 314.601562 219.652344 314.898438 218.097656 315.335938 215.765625 C 315.84375 213.445312 316.191406 210.296875 316.652344 207.167969 C 316.917969 204.015625 317.296875 200.875 317.335938 198.503906 C 317.441406 196.132812 317.507812 194.554688 317.507812 194.554688 C 317.507812 194.554688 317.519531 194.160156 317.523438 193.46875 C 317.523438 192.777344 317.53125 191.789062 317.535156 190.605469 C 317.609375 188.230469 317.417969 185.078125 317.292969 181.917969 C 317.179688 180.34375 317.015625 178.769531 316.890625 177.292969 C 316.820312 176.554688 316.757812 175.84375 316.695312 175.167969 C 316.601562 174.496094 316.511719 173.859375 316.429688 173.269531 C 316.105469 170.921875 315.886719 169.355469 315.886719 169.355469 C 315.886719 169.355469 315.855469 169 315.753906 168.46875 C 315.660156 167.941406 315.539062 167.234375 315.414062 166.527344 C 315.167969 165.113281 314.917969 163.699219 314.917969 163.699219 C 314.855469 163.320312 314.785156 162.925781 314.714844 162.511719 C 314.625 162.101562 314.53125 161.675781 314.429688 161.230469 C 314.230469 160.34375 314.015625 159.390625 313.785156 158.378906 C 313.371094 156.335938 312.6875 154.105469 311.996094 151.648438 C 311.816406 151.039062 311.652344 150.40625 311.449219 149.773438 C 311.234375 149.144531 311.015625 148.503906 310.796875 147.851562 C 310.347656 146.542969 309.886719 145.191406 309.410156 143.792969 C 308.289062 141.066406 307.242188 138.109375 305.808594 135.160156 C 300.523438 123.15625 291.886719 110.121094 281.257812 98.925781 C 270.546875 87.816406 257.902344 78.613281 246.144531 72.804688 C 243.261719 71.242188 240.351562 70.0625 237.675781 68.828125 C 236.300781 68.289062 234.972656 67.765625 233.683594 67.261719 C 233.042969 67.011719 232.410156 66.765625 231.792969 66.523438 C 231.171875 66.292969 230.546875 66.101562 229.941406 65.894531 C 227.519531 65.097656 225.320312 64.316406 223.300781 63.8125 C 222.296875 63.535156 221.355469 63.28125 220.476562 63.039062 C 220.039062 62.921875 219.617188 62.808594 219.210938 62.699219 C 218.800781 62.609375 218.40625 62.523438 218.03125 62.445312 C 218.03125 62.445312 216.632812 62.132812 215.230469 61.824219 C 214.527344 61.671875 213.828125 61.515625 213.304688 61.398438 C 212.78125 61.273438 212.425781 61.230469 212.425781 61.230469 C 212.425781 61.230469 210.871094 60.941406 208.539062 60.511719 C 207.953125 60.40625 207.324219 60.289062 206.65625 60.164062 C 205.984375 60.074219 205.273438 59.976562 204.539062 59.878906 C 203.070312 59.683594 201.507812 59.449219 199.9375 59.269531 C 196.785156 59.007812 193.644531 58.675781 191.269531 58.644531 C 190.085938 58.597656 189.097656 58.558594 188.40625 58.53125 C 187.71875 58.503906 187.320312 58.5 187.320312 58.5 C 187.320312 58.5 185.742188 58.496094 183.371094 58.496094 C 181 58.429688 177.84375 58.671875 174.683594 58.796875 C 171.539062 59.121094 168.378906 59.328125 166.035156 59.730469 C 163.6875 60.070312 162.121094 60.292969 162.121094 60.292969 L 156.464844 61.300781 C 144.421875 63.65625 132.625 67.59375 121.667969 73.277344 C 110.640625 78.835938 100.542969 86.195312 91.519531 94.675781 L 91.511719 94.679688 L 91.449219 94.742188 L 91.382812 94.804688 L 91.378906 94.8125 C 82.511719 103.449219 74.710938 113.214844 68.671875 123.984375 C 62.511719 134.683594 58.058594 146.292969 55.175781 158.21875 L 53.917969 163.828125 C 53.917969 163.828125 53.625 165.382812 53.183594 167.714844 C 52.679688 170.035156 52.332031 173.183594 51.871094 176.3125 C 51.605469 179.464844 51.222656 182.605469 51.183594 184.976562 C 51.082031 187.34375 51.011719 188.925781 51.011719 188.925781 C 51.011719 188.925781 51 189.320312 51 190.011719 C 50.996094 190.703125 50.988281 191.6875 50.984375 192.875 C 50.910156 195.246094 51.105469 198.402344 51.230469 201.5625 C 51.339844 203.136719 51.503906 204.707031 51.632812 206.183594 C 51.699219 206.921875 51.765625 207.636719 51.828125 208.3125 C 51.921875 208.984375 52.007812 209.621094 52.089844 210.207031 C 52.417969 212.558594 52.636719 214.121094 52.636719 214.121094 C 52.636719 214.121094 52.664062 214.480469 52.765625 215.007812 C 52.859375 215.539062 52.984375 216.246094 53.105469 216.953125 C 53.355469 218.367188 53.601562 219.78125 53.601562 219.78125 C 53.667969 220.15625 53.734375 220.554688 53.804688 220.96875 C 53.894531 221.378906 53.992188 221.804688 54.089844 222.25 C 54.289062 223.136719 54.507812 224.085938 54.734375 225.101562 C 55.152344 227.140625 55.835938 229.375 56.523438 231.832031 C 56.703125 232.441406 56.867188 233.074219 57.074219 233.707031 C 57.285156 234.335938 57.503906 234.976562 57.726562 235.628906 C 58.171875 236.933594 58.636719 238.289062 59.113281 239.683594 C 60.230469 242.414062 61.28125 245.371094 62.710938 248.320312 C 68 260.320312 76.636719 273.359375 87.261719 284.554688 C 97.976562 295.660156 110.621094 304.863281 122.378906 310.675781 C 125.261719 312.234375 128.171875 313.414062 130.847656 314.652344 C 132.21875 315.191406 133.550781 315.714844 134.835938 316.214844 C 135.480469 316.46875 136.109375 316.714844 136.730469 316.953125 C 137.351562 317.1875 137.976562 317.378906 138.578125 317.585938 C 141.003906 318.382812 143.203125 319.164062 145.222656 319.667969 C 146.226562 319.941406 147.167969 320.199219 148.042969 320.4375 C 148.480469 320.558594 148.90625 320.671875 149.308594 320.78125 C 149.722656 320.867188 150.113281 320.953125 150.488281 321.035156 C 150.488281 321.035156 151.890625 321.34375 153.292969 321.65625 C 153.992188 321.808594 154.691406 321.964844 155.21875 322.078125 C 155.738281 322.203125 156.097656 322.25 156.097656 322.25 C 156.097656 322.25 157.652344 322.535156 159.984375 322.964844 C 160.566406 323.074219 161.199219 323.191406 161.863281 323.3125 C 162.539062 323.40625 163.246094 323.503906 163.980469 323.601562 C 165.453125 323.792969 167.015625 324.027344 168.585938 324.210938 C 171.734375 324.472656 174.878906 324.804688 177.25 324.835938 C 178.433594 324.882812 179.421875 324.921875 180.113281 324.949219 C 180.804688 324.976562 181.199219 324.980469 181.199219 324.980469 C 181.199219 324.980469 182.78125 324.980469 185.148438 324.984375 C 187.523438 325.050781 190.675781 324.808594 193.835938 324.679688 C 196.984375 324.359375 200.144531 324.152344 202.484375 323.75 C 204.835938 323.410156 206.398438 323.183594 206.398438 323.183594 L 212.058594 322.179688 C 224.097656 319.824219 235.894531 315.886719 246.851562 310.203125 C 257.878906 304.644531 267.980469 297.28125 277 288.804688 L 277.007812 288.800781 L 277.074219 288.738281 L 277.136719 288.675781 " fill-opacity="1" fill-rule="nonzero"/></g></g></g><g clip-path="url(#e89abb8680)"><path fill="#030d0b" d="M 146.320312 117.628906 C 146.722656 117.667969 147.203125 117.425781 147.363281 117.46875 C 147.523438 117.507812 148.125 117.546875 148.527344 117.585938 C 148.925781 117.628906 149.167969 117.386719 149.167969 117.386719 C 149.167969 117.386719 149.527344 117.667969 149.847656 117.828125 C 150.167969 117.988281 151.449219 117.828125 151.933594 117.546875 C 152.414062 117.265625 152.8125 116.585938 153.011719 116.386719 C 153.214844 116.183594 153.933594 116.183594 153.933594 116.183594 L 154.457031 115.945312 C 154.777344 116.105469 154.898438 115.945312 155.179688 115.664062 C 155.457031 115.382812 155.820312 115.261719 156.058594 115.183594 C 156.300781 115.101562 156.21875 114.984375 156.980469 114.582031 C 157.742188 114.183594 160.1875 114.183594 160.1875 114.183594 L 160.828125 113.742188 C 160.828125 113.742188 161.308594 113.820312 161.628906 113.820312 C 161.953125 113.820312 162.472656 113.582031 162.472656 113.582031 L 164.515625 113.621094 L 164.996094 113.941406 L 165.519531 114.023438 C 165.519531 114.023438 165.878906 113.742188 166.359375 113.582031 C 166.839844 113.421875 167.121094 112.980469 167.121094 112.980469 C 167.121094 112.980469 168.363281 113.460938 168.605469 113.421875 C 168.84375 113.382812 169.042969 113.019531 169.042969 113.019531 L 169.566406 113.222656 L 170.167969 113.5 L 170.769531 113.300781 C 170.769531 113.300781 171.050781 113.339844 171.328125 113.421875 C 171.609375 113.5 171.972656 113.300781 171.972656 113.300781 C 172.492188 112.78125 173.535156 112.5 173.855469 112.5 C 174.175781 112.5 174.617188 112.738281 174.617188 112.738281 C 174.574219 112.980469 174.976562 113.382812 174.976562 113.382812 L 174.855469 113.621094 L 175.175781 113.78125 L 175.335938 113.703125 C 175.335938 113.703125 175.539062 113.542969 175.699219 113.5 C 175.859375 113.460938 175.9375 113.339844 175.9375 113.140625 C 175.9375 112.941406 176.21875 113.179688 176.21875 113.179688 L 176.457031 113.542969 L 176.253906 114.0625 C 176.253906 114.0625 176.011719 114.34375 175.570312 114.664062 C 175.128906 114.984375 175.28125 115.785156 175.441406 116.066406 C 175.601562 116.34375 175.828125 116.105469 175.828125 116.105469 L 175.917969 116.304688 L 176.179688 116.785156 C 176.179688 116.785156 176.179688 116.746094 176.179688 116.988281 C 176.179688 117.226562 176.398438 117.707031 176.398438 117.707031 C 176.398438 117.707031 175.9375 118.46875 175.699219 118.828125 C 175.457031 119.191406 174.496094 119.75 174.496094 119.75 L 174.414062 120.230469 L 173.972656 120.191406 L 174.09375 120.914062 C 174.09375 120.914062 174.414062 121.234375 174.695312 121.273438 C 174.976562 121.3125 175.136719 121.234375 175.136719 121.234375 L 175.417969 121.59375 L 175.859375 121.472656 L 176.179688 122.234375 L 176.820312 122.355469 C 176.820312 122.355469 178.582031 123.234375 179.023438 123.277344 C 179.464844 123.316406 179.707031 123.035156 180.1875 122.996094 C 180.667969 122.957031 180.746094 123.195312 180.988281 123.277344 C 181.226562 123.355469 181.546875 123.195312 181.828125 123.394531 C 182.109375 123.597656 183.351562 124.035156 184.03125 124.359375 C 184.714844 124.679688 184.472656 125.558594 184.472656 125.558594 C 184.472656 125.558594 185.4375 126.558594 185.835938 126.761719 C 186.238281 126.960938 187.800781 127.082031 188.160156 127.160156 C 188.519531 127.242188 189.484375 127.761719 189.484375 127.761719 L 190.042969 127.921875 C 190.042969 127.921875 190.445312 128.363281 190.6875 128.5625 C 190.925781 128.761719 191.367188 129.042969 191.929688 129.003906 C 192.488281 128.964844 193.25 128.082031 193.492188 127.761719 C 193.730469 127.441406 193.730469 127.160156 193.570312 126.839844 C 193.410156 126.519531 193.410156 126.28125 193.332031 126 C 193.25 125.71875 193.410156 124.757812 193.773438 124.476562 C 194.132812 124.195312 195.132812 123.355469 195.574219 123.234375 C 196.015625 123.117188 196.417969 123.035156 196.417969 123.035156 C 196.417969 123.035156 197.457031 122.957031 198.140625 123.234375 C 198.820312 123.515625 199.0625 123.394531 199.0625 123.394531 L 199.382812 123.757812 L 199.382812 124.238281 C 199.382812 124.238281 199.625 124.558594 199.863281 124.636719 C 200.105469 124.71875 200.90625 124.796875 201.226562 124.957031 C 201.546875 125.117188 201.988281 125.117188 202.46875 125.238281 C 202.949219 125.359375 203.3125 125.398438 203.3125 125.398438 C 203.589844 126 203.792969 126.121094 204.234375 126.042969 C 204.671875 125.960938 206.558594 126.121094 207.078125 126.242188 C 207.597656 126.363281 208.761719 127.007812 209.441406 127.285156 C 210.125 127.566406 211.164062 127.855469 211.164062 127.855469 L 212.730469 126.863281 C 212.730469 126.863281 213.25 126.605469 213.691406 126.484375 C 214.132812 126.367188 215.214844 126.371094 215.214844 126.371094 C 215.214844 126.371094 215.816406 126.371094 216.253906 126.371094 C 216.695312 126.371094 216.976562 126.183594 216.976562 126.183594 C 216.976562 126.183594 216.976562 126.121094 217.136719 126.398438 C 217.296875 126.679688 217.738281 126.921875 217.738281 126.921875 L 218.140625 127.199219 C 218.140625 127.199219 219.503906 127.320312 219.863281 127.28125 C 220.222656 127.242188 221.183594 126.71875 221.183594 126.71875 L 222.667969 131.207031 C 222.667969 131.207031 222.027344 132.808594 221.90625 133.210938 C 221.785156 133.609375 221.90625 133.929688 221.546875 134.371094 C 221.1875 134.8125 220.34375 133.609375 220.222656 133.53125 C 220.101562 133.449219 219.460938 132.847656 219.460938 132.289062 C 219.460938 131.726562 218.660156 130.886719 218.660156 130.886719 C 218.660156 130.886719 218.300781 129.484375 218.140625 129.5625 C 217.980469 129.644531 218.058594 129.84375 218.058594 129.84375 L 217.9375 130.527344 C 217.9375 130.527344 218.179688 130.925781 218.300781 131.246094 C 218.421875 131.566406 218.460938 132.289062 218.820312 132.890625 C 219.179688 133.488281 220.023438 134.210938 220.023438 134.210938 C 220.023438 134.210938 220.023438 134.691406 220.144531 135.09375 C 220.261719 135.492188 220.585938 135.652344 220.785156 136.535156 C 220.984375 137.414062 221.867188 138.898438 221.867188 138.898438 C 221.867188 138.898438 222.867188 140.898438 222.949219 141.101562 C 223.027344 141.300781 223.832031 142.824219 223.832031 142.824219 C 223.832031 142.824219 223.832031 143.542969 223.949219 144.144531 C 224.070312 144.746094 224.671875 145.144531 224.671875 145.144531 C 224.671875 145.144531 225.433594 145.628906 226.035156 146.1875 C 226.636719 146.75 226.554688 147.46875 226.636719 147.789062 C 226.714844 148.109375 227.316406 148.671875 227.316406 148.671875 C 227.316406 148.671875 227.277344 151.234375 227.316406 152.398438 C 227.355469 153.558594 228.039062 153.597656 228.597656 153.796875 C 229.160156 154 229.199219 154.519531 229.199219 154.519531 L 229.601562 154.601562 L 229.800781 154.882812 L 230.402344 155.847656 L 230.5625 156.65625 C 230.5625 156.65625 230.761719 157.789062 230.925781 158.628906 C 231.082031 159.472656 231.523438 159.617188 231.523438 159.617188 L 231.566406 160.105469 L 231.925781 160.105469 L 232.167969 160.898438 L 232.40625 160.769531 L 232.285156 160.40625 L 232.445312 160.207031 L 232.847656 160.40625 C 232.847656 160.40625 232.765625 160.609375 232.96875 161.050781 C 233.167969 161.488281 233.488281 161.128906 233.609375 161.167969 C 233.730469 161.210938 234.050781 161.609375 234.210938 161.730469 C 234.371094 161.851562 235.089844 162.011719 235.089844 162.011719 L 236.132812 163.371094 L 236.574219 163.414062 L 236.695312 163.851562 L 237.054688 164.011719 C 237.054688 164.011719 237.257812 164.375 237.414062 164.695312 C 237.578125 165.015625 237.976562 165.015625 237.976562 165.015625 C 238.136719 165.496094 238.617188 165.414062 238.617188 165.414062 L 239.179688 166.417969 L 239.257812 167.058594 C 239.257812 167.058594 238.898438 167.175781 238.699219 167.296875 C 238.5 167.417969 238.457031 167.578125 238.257812 167.617188 C 238.058594 167.660156 237.816406 168.058594 237.816406 168.058594 L 238.898438 167.980469 C 238.898438 167.980469 239.820312 168.980469 240.222656 169.421875 C 240.621094 169.859375 241.382812 170.34375 241.382812 170.34375 L 242.464844 170.300781 C 242.464844 170.300781 242.90625 169.980469 243.265625 169.820312 C 243.628906 169.660156 243.910156 169.339844 243.910156 169.339844 C 243.910156 169.339844 244.269531 169.460938 244.507812 169.539062 C 244.75 169.621094 245.070312 169.742188 245.59375 169.703125 C 246.113281 169.660156 246.03125 169.300781 246.234375 169.261719 C 246.433594 169.21875 246.675781 168.980469 246.675781 168.980469 C 246.675781 168.980469 247.394531 168.78125 247.714844 168.898438 C 248.035156 169.019531 247.957031 168.859375 248.4375 168.859375 C 248.917969 168.859375 249.078125 168.621094 249.238281 168.5 C 249.398438 168.378906 249.960938 168.699219 249.960938 168.699219 C 249.960938 168.699219 250.523438 168.460938 250.800781 168.339844 C 251.082031 168.21875 251.722656 168.179688 252.125 168.058594 C 252.527344 167.9375 253.046875 167.617188 253.046875 167.617188 C 253.046875 167.617188 253.167969 167.339844 253.488281 167.257812 C 253.808594 167.179688 254.210938 167.539062 254.210938 167.539062 L 254.570312 167.617188 L 254.449219 168.019531 C 254.328125 168.21875 254.25 168.660156 254.25 168.660156 L 254.488281 169.179688 L 254.410156 169.902344 L 254.007812 170.582031 L 253.566406 172.90625 L 252.847656 173.789062 C 252.847656 173.789062 252.484375 174.429688 252.085938 174.867188 C 251.683594 175.308594 251.722656 175.992188 251.484375 176.429688 C 251.242188 176.871094 250.523438 178.195312 250.363281 178.914062 C 250.203125 179.636719 250 179.597656 249.480469 180.035156 C 248.957031 180.476562 248.558594 181.199219 248.117188 182.039062 C 247.675781 182.878906 247.035156 183.242188 246.675781 183.5625 C 246.3125 183.882812 245.152344 185.042969 245.152344 185.042969 L 244.191406 186.246094 L 242.464844 186.886719 C 242.464844 186.886719 238.980469 190.050781 238.539062 190.53125 C 238.097656 191.011719 237.816406 190.773438 237.816406 190.773438 L 237.738281 191.253906 L 235.652344 193.894531 C 235.652344 193.894531 235.332031 194.015625 234.929688 194.175781 C 234.53125 194.335938 234.371094 195.058594 234.371094 195.058594 L 233.570312 195.738281 L 233.128906 196.742188 C 233.128906 196.742188 232.367188 198.382812 232.328125 198.503906 C 232.285156 198.621094 231.523438 199.304688 231.523438 199.304688 C 231.523438 199.304688 231.324219 200.304688 230.964844 201.144531 C 230.605469 201.988281 230.644531 202.789062 230.644531 202.789062 C 230.644531 202.789062 231.085938 202.949219 231.363281 203.390625 C 231.644531 203.832031 232.007812 204.3125 232.007812 204.3125 C 232.007812 204.3125 231.847656 204.429688 231.726562 204.953125 C 231.605469 205.472656 231.886719 206.152344 231.605469 206.3125 C 231.324219 206.472656 231.804688 207.234375 231.847656 207.554688 C 231.886719 207.875 232.167969 208.476562 232.328125 208.878906 C 232.488281 209.277344 232.6875 210 232.6875 210 L 233.808594 210.679688 L 234.011719 211.125 C 234.011719 211.125 234.011719 212.207031 233.730469 212.6875 C 233.449219 213.167969 233.449219 214.976562 233.449219 214.976562 L 233.53125 218.234375 L 234.050781 218.898438 L 233.410156 220.347656 L 233.648438 220.347656 L 233.609375 220.761719 L 233.371094 220.816406 L 232.609375 221.9375 L 232.085938 222.21875 L 232.128906 222.65625 C 232.128906 222.65625 231.042969 223.457031 230.925781 223.539062 C 230.804688 223.621094 230.804688 223.738281 230.683594 223.898438 C 230.5625 224.058594 229.960938 224.179688 229.800781 224.179688 C 229.640625 224.179688 228.761719 224.582031 227.796875 224.980469 C 226.835938 225.382812 226.4375 226.222656 226.4375 226.222656 L 225.914062 226.34375 L 226.074219 226.742188 L 225.3125 227.625 L 224.914062 227.183594 L 224.753906 227.785156 C 224.753906 227.785156 224.554688 227.945312 224.433594 227.984375 C 224.3125 228.023438 223.550781 229.066406 223.3125 229.1875 C 223.070312 229.304688 222.75 229.667969 222.75 229.667969 L 222.226562 229.90625 L 222.269531 231.191406 L 222.910156 231.992188 C 222.910156 231.992188 222.910156 231.992188 222.988281 232.390625 C 223.070312 232.792969 223.511719 233.792969 223.511719 233.792969 L 223.589844 234.554688 L 223.710938 234.273438 L 223.871094 234.472656 C 223.871094 234.472656 223.871094 236.4375 223.589844 237.078125 C 223.308594 237.71875 223.390625 238.558594 223.390625 238.558594 C 223.390625 238.558594 223.550781 238.160156 223.710938 238 C 223.871094 237.839844 223.429688 239 223.148438 239.519531 C 222.871094 240.042969 221.828125 240.242188 221.507812 240.324219 C 221.1875 240.402344 220.585938 240.402344 220.144531 240.84375 C 219.703125 241.285156 219.023438 241.402344 218.78125 241.605469 C 218.539062 241.804688 218.140625 242.605469 218.140625 242.605469 L 218.582031 243.046875 L 218.820312 242.847656 C 218.820312 242.847656 218.742188 243.847656 218.78125 244.246094 C 218.820312 244.648438 218.460938 245.289062 218.460938 245.289062 C 218.460938 245.289062 218.300781 246.492188 218.261719 246.730469 C 218.21875 246.972656 217.898438 247.613281 217.898438 247.972656 C 217.898438 248.332031 217.417969 248.492188 217.179688 248.695312 C 216.9375 248.894531 216.335938 249.214844 216.335938 249.214844 L 214.933594 251.417969 L 213.371094 253.859375 L 212.128906 255.101562 L 210.886719 256.824219 C 210.886719 256.824219 209.121094 258.46875 208.082031 259.269531 C 207.039062 260.070312 206.15625 259.949219 205.636719 259.910156 C 205.117188 259.871094 204.753906 260.148438 204.753906 260.148438 L 204.835938 260.75 C 204.835938 260.75 204.074219 260.628906 203.710938 260.550781 C 203.351562 260.46875 203.472656 260.710938 203.109375 260.992188 C 202.75 261.269531 200.746094 260.589844 200.507812 260.589844 C 200.265625 260.589844 200.625 260.949219 199.664062 260.832031 C 198.703125 260.710938 198.0625 260.75 198.0625 260.75 L 197.339844 261.191406 L 197.058594 261.511719 L 195.578125 261.472656 L 195.09375 261.589844 L 194.414062 261.871094 C 194.414062 261.871094 194.414062 261.871094 194.054688 262.191406 C 193.691406 262.511719 192.890625 262.03125 192.890625 262.03125 L 192.410156 261.953125 L 192.210938 261.550781 L 191.328125 261.390625 C 191.328125 261.390625 191.488281 260.871094 191.085938 260.789062 C 190.6875 260.710938 190.765625 261.472656 190.765625 261.472656 C 190.765625 261.472656 190.367188 260.628906 190.527344 260.46875 C 190.6875 260.308594 190.605469 259.910156 190.605469 259.910156 L 190.246094 259.347656 L 189.765625 258.789062 C 190.046875 258.667969 189.445312 258.066406 189.445312 258.066406 L 189.605469 257.546875 L 190.085938 257.707031 L 190.40625 257.265625 L 190.167969 255.542969 C 190.167969 255.542969 189.285156 254.300781 189.125 253.902344 C 188.964844 253.5 188.804688 253.101562 188.683594 252.941406 C 188.5625 252.78125 188.203125 251.777344 188.203125 251.65625 C 188.203125 251.539062 187.359375 249.453125 187.359375 249.453125 L 186.917969 248.773438 C 186.839844 248.375 186.597656 248.375 186.597656 248.375 L 185.355469 247.210938 C 185.15625 246.769531 184.355469 245.648438 184.355469 245.648438 C 184.355469 245.648438 184.152344 244.488281 184.074219 244.085938 C 183.992188 243.6875 183.792969 243.445312 183.792969 243.125 C 183.792969 242.804688 183.59375 242.246094 183.59375 242.246094 C 183.59375 242.246094 183.632812 240.800781 183.148438 239.5625 C 182.667969 238.320312 182.789062 236.878906 182.828125 235.875 C 182.867188 234.875 182.382812 234.515625 182.0625 234.074219 C 181.742188 233.632812 180.492188 231.1875 180.492188 231.1875 C 180.492188 231.1875 178.875 228.265625 178.675781 227.90625 C 178.472656 227.542969 178.125 227.304688 178.125 227.304688 L 177.382812 226.300781 L 177.382812 225.703125 L 177.28125 223.21875 L 177.542969 223.136719 L 177.460938 221.734375 L 177.742188 221.375 L 178.222656 219.972656 C 178.222656 219.972656 178.582031 218.730469 178.863281 217.609375 C 179.144531 216.488281 179.386719 216.367188 179.625 216.167969 C 179.867188 215.96875 179.785156 215.449219 179.785156 215.449219 C 179.785156 215.449219 180.226562 215.285156 180.585938 215.085938 C 180.949219 214.886719 181.429688 213.804688 181.46875 213.246094 C 181.507812 212.683594 181.390625 212.003906 181.589844 211.84375 C 181.789062 211.683594 181.628906 211.121094 181.386719 210.921875 C 181.148438 210.722656 180.949219 210.359375 180.707031 209.878906 C 180.464844 209.398438 180.265625 208.355469 180.265625 208.117188 C 180.265625 207.875 180.707031 207.554688 180.707031 207.554688 L 180.585938 206.433594 C 180.585938 206.433594 180.347656 206.113281 180.144531 205.753906 C 179.945312 205.394531 179.945312 204.390625 179.945312 204.390625 C 179.945312 204.390625 179.945312 204.390625 179.386719 203.75 C 178.824219 203.109375 178.824219 202.550781 178.824219 202.550781 L 178.703125 201.789062 C 178.582031 201.667969 178.421875 201.386719 178.382812 201.148438 C 178.34375 200.90625 178.261719 200.386719 178.140625 200.144531 C 178.023438 199.90625 177.621094 199.304688 177.300781 198.984375 C 176.980469 198.664062 177.019531 198.664062 176.898438 198.464844 C 176.78125 198.261719 176.5 198.183594 176.5 198.183594 C 176.5 198.183594 175.898438 197.542969 175.699219 197.222656 C 175.496094 196.902344 174.175781 195.820312 173.855469 195.378906 C 173.535156 194.9375 172.730469 194.339844 172.730469 194.339844 L 171.769531 191.976562 C 171.769531 191.976562 172.292969 191.65625 172.613281 191.375 C 172.933594 191.09375 172.8125 190.851562 172.8125 190.371094 C 172.8125 189.890625 172.933594 190.011719 173.332031 190.253906 C 173.734375 190.492188 173.933594 190.132812 173.933594 190.132812 C 173.933594 190.132812 173.734375 190.050781 173.414062 189.890625 C 173.09375 189.730469 172.890625 189.292969 172.890625 189.292969 L 173.292969 189.089844 C 173.210938 188.8125 173.414062 188.410156 173.414062 188.410156 L 172.972656 187.890625 C 172.972656 187.890625 173.695312 186.410156 173.652344 186.007812 C 173.613281 185.609375 174.054688 184.328125 174.054688 184.328125 L 173.574219 183.574219 L 173.09375 182.742188 L 172.210938 182.519531 L 171.851562 181.796875 L 171.355469 181.796875 L 171.355469 181.320312 L 170.882812 180.960938 L 170.648438 181.839844 C 170.648438 181.839844 169.445312 181.761719 169.324219 181.761719 C 169.203125 181.761719 168.683594 181.519531 168.5625 181.5625 C 168.441406 181.601562 168.402344 181.839844 168.402344 181.839844 L 167.640625 182.121094 L 166.878906 182.324219 L 166.71875 181.964844 L 166.277344 182.042969 L 165.917969 181.769531 C 165.917969 181.769531 165.316406 181.214844 165.238281 180.816406 C 165.15625 180.414062 165.277344 179.988281 165.277344 179.988281 L 164.957031 179.988281 C 164.957031 179.988281 164.714844 179.511719 164.515625 179.113281 C 164.316406 178.710938 163.675781 178.394531 163.191406 178.195312 C 162.710938 177.996094 160.867188 178.15625 159.828125 178.277344 C 158.785156 178.394531 157.222656 178.796875 157.222656 178.796875 L 156.742188 179.398438 C 156.742188 179.398438 156.5 179.398438 156.339844 179.316406 C 156.179688 179.238281 155.699219 179.476562 155.378906 179.476562 C 155.058594 179.476562 153.855469 180.160156 153.613281 180.320312 C 153.375 180.480469 152.253906 180.558594 152.050781 180.757812 C 151.851562 180.960938 151.007812 181.398438 151.007812 181.398438 C 151.007812 181.398438 149.085938 180.800781 148.804688 180.757812 C 148.523438 180.71875 147.761719 180.480469 147.121094 180.359375 C 146.480469 180.238281 143.753906 180.839844 142.996094 181 C 142.234375 181.160156 140.628906 182.082031 140.628906 182.082031 L 139.867188 181.878906 C 139.867188 181.878906 139.386719 181.878906 139.265625 181.71875 C 139.148438 181.558594 138.988281 181.640625 138.664062 181.558594 C 138.34375 181.480469 137.664062 181.160156 137.503906 181 C 137.34375 180.839844 136.703125 180.519531 136.703125 180.519531 C 136.703125 180.519531 136.140625 179.996094 135.660156 179.558594 C 135.179688 179.117188 134.496094 178.554688 134.496094 178.554688 C 134.496094 178.554688 133.855469 178.316406 133.695312 178.234375 C 133.535156 178.15625 133.296875 177.675781 133.296875 177.675781 L 133.015625 177.394531 C 133.015625 177.394531 133.015625 177.394531 132.894531 177.273438 C 132.773438 177.152344 132.375 176.875 132.375 176.875 L 130.648438 176.03125 C 130.570312 175.632812 129.6875 175.191406 129.6875 175.191406 C 129.609375 174.871094 129.449219 174.671875 129.246094 174.589844 C 129.046875 174.511719 129.046875 174.148438 129.046875 174.148438 L 129.328125 173.988281 L 129.085938 173.871094 C 129.085938 173.871094 129.085938 173.871094 129.046875 173.550781 C 129.007812 173.230469 128.847656 173.109375 128.847656 173.109375 L 128.964844 172.746094 C 128.964844 172.746094 128.726562 172.425781 128.445312 172.148438 C 128.164062 171.867188 128.085938 171.988281 128.085938 171.988281 C 128.085938 171.988281 128.085938 171.785156 127.84375 171.425781 C 127.605469 171.066406 126.921875 170.824219 126.683594 170.625 C 126.441406 170.425781 126.601562 169.664062 126.320312 169.625 C 126.039062 169.582031 126.203125 169.304688 126.039062 169.183594 C 125.878906 169.0625 125.878906 169.503906 125.640625 169.542969 C 125.398438 169.582031 125.320312 168.863281 125.320312 168.863281 C 125.320312 168.863281 125.320312 168.863281 124.957031 168.742188 C 124.597656 168.621094 124.878906 168.222656 124.878906 168.222656 L 124.714844 167.660156 C 124.714844 167.660156 125.035156 167.582031 125.195312 167.582031 C 125.355469 167.582031 125.914062 167.421875 125.914062 167.421875 L 125.828125 167.179688 C 125.828125 167.179688 125.011719 167.261719 124.488281 167.460938 C 123.96875 167.660156 123.742188 167.582031 123.742188 167.582031 L 123.742188 167.378906 C 123.742188 167.378906 123.449219 167.300781 123.167969 167.21875 C 122.886719 167.140625 122.996094 166.859375 122.996094 166.859375 C 122.996094 166.859375 122.996094 166.859375 122.355469 166.539062 C 121.710938 166.21875 122.152344 165.65625 122.152344 165.257812 C 122.152344 164.855469 121.992188 164.457031 121.992188 164.457031 C 121.992188 164.457031 122.234375 164.175781 122.433594 163.976562 C 122.632812 163.773438 122.191406 163.335938 122.191406 163.335938 L 122.113281 162.855469 C 122.113281 162.855469 121.832031 162.492188 121.59375 162.253906 C 121.351562 162.011719 121.109375 161.652344 121.109375 161.652344 L 120.75 161.773438 L 120.511719 161.570312 C 121.070312 161.488281 121.832031 160.726562 121.992188 160.488281 C 122.152344 160.246094 122.433594 159.804688 122.433594 159.804688 C 122.433594 159.804688 122.636719 159.683594 122.59375 159.285156 C 122.554688 158.882812 122.753906 158.121094 122.996094 157.441406 C 123.234375 156.761719 123.515625 155.558594 123.597656 154.355469 C 123.675781 153.152344 123.316406 152.871094 122.996094 152.507812 C 122.675781 152.148438 122.753906 152.101562 122.753906 152.101562 C 122.753906 152.101562 122.914062 152.089844 122.996094 151.96875 C 123.074219 151.847656 123.234375 150.660156 123.234375 150.296875 C 123.234375 149.9375 122.957031 149.5625 122.957031 149.5625 L 122.554688 149.5625 L 122.152344 148.757812 L 121.753906 148.75 L 121.875 147.269531 C 121.875 147.269531 122.195312 146.46875 122.273438 146.308594 C 122.355469 146.148438 122.796875 146.066406 122.796875 146.066406 L 123.476562 144.707031 L 123.316406 144.304688 C 123.316406 144.304688 123.597656 144.023438 123.917969 143.625 C 124.238281 143.222656 124.265625 142.714844 124.425781 142.554688 C 124.585938 142.394531 125.121094 141.808594 125.386719 141.382812 C 125.65625 140.953125 126.082031 140.367188 126.082031 140.367188 C 126.082031 140.367188 126.027344 139.9375 126.1875 139.566406 C 126.347656 139.191406 126.5625 138.445312 126.722656 138.121094 C 126.882812 137.800781 127.417969 137.375 127.738281 137.269531 C 128.058594 137.160156 128.539062 136.628906 128.539062 136.628906 C 128.539062 136.628906 128.699219 136.253906 128.914062 135.71875 C 129.128906 135.183594 129.570312 134.453125 129.570312 134.453125 L 129.769531 134.171875 C 130.289062 134.128906 132.253906 133.609375 132.695312 133.128906 C 133.136719 132.648438 133.855469 132.207031 134.136719 132.046875 C 134.417969 131.886719 134.578125 131.648438 134.65625 131.527344 C 134.738281 131.40625 134.980469 131.40625 135.21875 131.007812 C 135.460938 130.605469 135.980469 129.605469 135.980469 129.605469 L 136.019531 128.761719 L 135.695312 128 C 135.695312 128 135.6875 127 135.730469 126.640625 C 135.769531 126.28125 136.039062 126.078125 136.277344 125.757812 C 136.519531 125.4375 136.457031 125.199219 136.457031 125.199219 L 136.773438 125.078125 L 137 124.238281 L 137 123.675781 C 137 123.675781 138.214844 122.398438 138.375 122.238281 C 138.535156 122.078125 139.707031 121.636719 140.546875 121.238281 C 141.390625 120.835938 141.75 120.242188 141.910156 119.921875 C 142.070312 119.601562 142.308594 119.449219 142.546875 119.167969 C 142.789062 118.890625 142.90625 118.027344 143.023438 117.628906 C 143.144531 117.226562 143.457031 116.464844 143.574219 116.304688 C 143.695312 116.144531 144.398438 116.183594 144.398438 116.183594 C 144.71875 116.824219 145.921875 117.585938 146.320312 117.628906 Z M 240.707031 225.878906 C 241.066406 226.480469 240.945312 227.683594 241.425781 228.644531 C 241.910156 229.605469 240.945312 229.964844 240.585938 230.566406 C 240.226562 231.167969 239.746094 232.25 239.261719 233.210938 C 238.78125 234.171875 238.902344 235.613281 239.261719 235.972656 C 239.625 236.335938 239.625 237.296875 239.863281 238.136719 C 240.105469 238.980469 240.226562 239.941406 240.707031 240.78125 C 241.1875 241.621094 241.667969 241.382812 242.507812 241.742188 C 243.351562 242.101562 243.351562 241.382812 244.3125 241.261719 C 245.273438 241.140625 245.273438 241.019531 245.875 240.78125 C 246.476562 240.539062 246.835938 239.578125 246.957031 238.738281 C 247.078125 237.898438 248.039062 235.253906 248.402344 234.050781 C 248.761719 232.851562 250.082031 229.125 250.203125 228.402344 C 250.324219 227.683594 251.046875 225.28125 250.804688 224.679688 C 250.5625 224.078125 251.40625 223.597656 251.648438 223.117188 C 251.886719 222.636719 251.527344 221.675781 251.527344 220.832031 C 251.527344 219.992188 252.367188 221.675781 252.367188 221.675781 C 252.367188 221.675781 252.726562 219.992188 252.488281 219.152344 C 252.246094 218.308594 252.367188 217.710938 251.886719 216.628906 C 251.40625 215.546875 250.5625 214.34375 250.5625 214.34375 L 249.84375 214.585938 C 249.84375 214.585938 249.722656 215.304688 249.84375 215.785156 C 249.960938 216.265625 249.121094 216.507812 248.882812 216.867188 C 248.640625 217.230469 247.917969 216.988281 247.917969 216.988281 L 247.800781 218.191406 L 247.679688 219.03125 L 246.71875 219.871094 L 246.355469 220.832031 C 246.355469 220.832031 245.757812 220.59375 245.273438 220.714844 C 244.792969 220.832031 245.394531 222.035156 245.394531 222.035156 L 244.433594 221.433594 L 243.710938 221.195312 L 243.109375 222.035156 L 242.511719 221.914062 L 241.1875 222.273438 L 241.066406 223.476562 L 239.984375 224.796875 C 239.984375 224.800781 240.34375 225.28125 240.707031 225.878906 Z M 240.707031 225.878906 " fill-opacity="1" fill-rule="nonzero"/></g><g fill="#030d0b" fill-opacity="1"><g transform="translate(168.512295, 326.089887)"><g><path d="M 3.703125 -7.515625 L 3.546875 0.078125 L 1.234375 0.03125 L 1.484375 -11.828125 L 3.265625 -11.796875 L 9.296875 -3.875 L 9.453125 -11.640625 L 11.765625 -11.59375 L 11.515625 0.25 L 9.640625 0.203125 Z M 3.703125 -7.515625 "/></g></g></g><g fill="#030d0b" fill-opacity="1"><g transform="translate(188.648667, 325.992645)"><g><path d="M 6.265625 -0.6875 C 5.410156 -0.582031 4.609375 -0.65625 3.859375 -0.90625 C 3.117188 -1.15625 2.460938 -1.523438 1.890625 -2.015625 C 1.316406 -2.515625 0.847656 -3.109375 0.484375 -3.796875 C 0.117188 -4.484375 -0.109375 -5.195312 -0.203125 -5.9375 C -0.296875 -6.726562 -0.238281 -7.5 -0.03125 -8.25 C 0.164062 -9.007812 0.488281 -9.695312 0.9375 -10.3125 C 1.382812 -10.925781 1.941406 -11.4375 2.609375 -11.84375 C 3.285156 -12.25 4.035156 -12.503906 4.859375 -12.609375 C 5.710938 -12.710938 6.507812 -12.632812 7.25 -12.375 C 7.988281 -12.113281 8.644531 -11.734375 9.21875 -11.234375 C 9.789062 -10.734375 10.253906 -10.140625 10.609375 -9.453125 C 10.972656 -8.765625 11.203125 -8.046875 11.296875 -7.296875 C 11.390625 -6.515625 11.332031 -5.753906 11.125 -5.015625 C 10.925781 -4.273438 10.601562 -3.597656 10.15625 -2.984375 C 9.71875 -2.378906 9.164062 -1.867188 8.5 -1.453125 C 7.832031 -1.035156 7.085938 -0.78125 6.265625 -0.6875 Z M 2.125 -6.21875 C 2.1875 -5.71875 2.320312 -5.238281 2.53125 -4.78125 C 2.738281 -4.320312 3.007812 -3.925781 3.34375 -3.59375 C 3.6875 -3.269531 4.082031 -3.019531 4.53125 -2.84375 C 4.988281 -2.675781 5.488281 -2.628906 6.03125 -2.703125 C 6.59375 -2.765625 7.070312 -2.9375 7.46875 -3.21875 C 7.863281 -3.5 8.1875 -3.84375 8.4375 -4.25 C 8.6875 -4.664062 8.851562 -5.113281 8.9375 -5.59375 C 9.019531 -6.082031 9.03125 -6.566406 8.96875 -7.046875 C 8.90625 -7.566406 8.765625 -8.054688 8.546875 -8.515625 C 8.335938 -8.972656 8.066406 -9.363281 7.734375 -9.6875 C 7.398438 -10.019531 7.003906 -10.265625 6.546875 -10.421875 C 6.097656 -10.585938 5.609375 -10.640625 5.078125 -10.578125 C 4.523438 -10.503906 4.046875 -10.328125 3.640625 -10.046875 C 3.234375 -9.773438 2.910156 -9.4375 2.671875 -9.03125 C 2.429688 -8.625 2.265625 -8.175781 2.171875 -7.6875 C 2.085938 -7.207031 2.070312 -6.71875 2.125 -6.21875 Z M 2.125 -6.21875 "/></g></g></g><g fill="#030d0b" fill-opacity="1"><g transform="translate(208.416355, 323.035209)"><g><path d="M 1.1875 -0.3125 L -1.828125 -11.765625 L 0.421875 -12.359375 L 1.859375 -6.921875 L 5.21875 -13.640625 L 7.6875 -14.28125 L 4.625 -8.03125 L 10.96875 -2.890625 L 8.46875 -2.234375 L 3.578125 -6.25 L 2.53125 -4.34375 L 3.4375 -0.90625 Z M 1.1875 -0.3125 "/></g></g></g><g fill="#030d0b" fill-opacity="1"><g transform="translate(226.188681, 317.858956)"><g><path d="M -0.234375 -12.71875 L 1.640625 -13.484375 L 10.328125 -4.234375 L 8.125 -3.328125 L 5.984375 -5.65625 L 2.15625 -4.078125 L 2.265625 -0.9375 L 0.078125 -0.03125 Z M 4.984375 -6.984375 L 1.703125 -10.6875 L 1.890625 -5.71875 Z M 4.984375 -6.984375 "/></g></g></g><g fill="#030d0b" fill-opacity="1"><g transform="translate(243.009689, 310.350869)"><g/></g></g><g fill="#030d0b" fill-opacity="1"><g transform="translate(252.791407, 304.864005)"><g><path d="M -4.5625 -11.25 L 1.09375 -8.171875 L 0.3125 -14.5625 L 2.359375 -15.96875 L 3.15625 -7.15625 L 5.484375 -3.734375 L 3.609375 -2.453125 L 1.265625 -5.90625 L -6.640625 -9.828125 Z M -4.5625 -11.25 "/></g></g></g><g fill="#030d0b" fill-opacity="1"><g transform="translate(267.686991, 294.134289)"><g><path d="M -4.46875 -11.921875 L -2.953125 -13.265625 L 8.3125 -7.4375 L 6.546875 -5.859375 L 3.765625 -7.328125 L 0.671875 -4.5625 L 1.828125 -1.640625 L 0.0625 -0.046875 Z M 2.375 -8.25 L -1.96875 -10.640625 L -0.125 -6.015625 Z M 2.375 -8.25 "/></g></g></g><g fill="#030d0b" fill-opacity="1"><g transform="translate(281.037037, 281.441686)"><g/></g></g><g fill="#030d0b" fill-opacity="1"><g transform="translate(288.430201, 273.002637)"><g><path d="M -6.859375 -10.71875 L -5.65625 -12.359375 L 6.578125 -9 L 5.1875 -7.09375 L 2.140625 -7.953125 L -0.296875 -4.609375 L 1.453125 -1.984375 L 0.046875 -0.0625 Z M 0.578125 -8.5625 L -4.140625 -10 L -1.390625 -5.875 Z M 0.578125 -8.5625 "/></g></g></g><g fill="#030d0b" fill-opacity="1"><g transform="translate(298.947728, 257.748417)"><g><path d="M 0.59375 -1.078125 L -9.78125 -6.828125 L -5.921875 -13.796875 L -4.15625 -12.8125 L -6.890625 -7.875 L -4.21875 -6.390625 L -1.9375 -10.5 L -0.296875 -9.59375 L -2.578125 -5.484375 L 1.71875 -3.109375 Z M 0.59375 -1.078125 "/></g></g></g><g fill="#030d0b" fill-opacity="1"><g transform="translate(306.769312, 242.774178)"><g><path d="M 0.453125 -1.140625 L -10.5625 -5.546875 L -8.609375 -10.421875 C -8.410156 -10.929688 -8.117188 -11.351562 -7.734375 -11.6875 C -7.347656 -12.03125 -6.921875 -12.289062 -6.453125 -12.46875 C -5.984375 -12.644531 -5.488281 -12.726562 -4.96875 -12.71875 C -4.457031 -12.71875 -3.984375 -12.628906 -3.546875 -12.453125 C -2.828125 -12.171875 -2.25 -11.734375 -1.8125 -11.140625 C -1.375 -10.554688 -1.144531 -9.910156 -1.125 -9.203125 L 4.015625 -10.046875 L 3.0625 -7.640625 L -1.53125 -6.859375 L -2.375 -4.765625 L 1.3125 -3.296875 Z M -4.265625 -5.53125 L -3.1875 -8.21875 C -3.113281 -8.40625 -3.085938 -8.601562 -3.109375 -8.8125 C -3.128906 -9.019531 -3.191406 -9.21875 -3.296875 -9.40625 C -3.410156 -9.59375 -3.5625 -9.765625 -3.75 -9.921875 C -3.9375 -10.085938 -4.15625 -10.21875 -4.40625 -10.3125 C -4.65625 -10.414062 -4.90625 -10.46875 -5.15625 -10.46875 C -5.414062 -10.476562 -5.648438 -10.441406 -5.859375 -10.359375 C -6.066406 -10.285156 -6.253906 -10.175781 -6.421875 -10.03125 C -6.597656 -9.882812 -6.722656 -9.71875 -6.796875 -9.53125 L -7.828125 -6.953125 Z M -4.265625 -5.53125 "/></g></g></g><g fill="#030d0b" fill-opacity="1"><g transform="translate(313.049178, 225.568065)"><g><path d="M 0.328125 -1.1875 L -11.09375 -4.390625 L -10.46875 -6.625 L 0.953125 -3.421875 Z M 0.328125 -1.1875 "/></g></g></g><g fill="#030d0b" fill-opacity="1"><g transform="translate(316.080766, 213.950956)"><g><path d="M -5.859375 -1.5 C -6.566406 -1.613281 -7.242188 -1.851562 -7.890625 -2.21875 C -8.546875 -2.59375 -9.109375 -3.078125 -9.578125 -3.671875 C -10.054688 -4.265625 -10.40625 -4.945312 -10.625 -5.71875 C -10.84375 -6.488281 -10.878906 -7.328125 -10.734375 -8.234375 C -10.546875 -9.304688 -10.148438 -10.195312 -9.546875 -10.90625 C -8.941406 -11.613281 -8.234375 -12.097656 -7.421875 -12.359375 L -6.515625 -10.40625 C -6.867188 -10.300781 -7.171875 -10.15625 -7.421875 -9.96875 C -7.679688 -9.789062 -7.898438 -9.585938 -8.078125 -9.359375 C -8.253906 -9.128906 -8.394531 -8.878906 -8.5 -8.609375 C -8.601562 -8.347656 -8.675781 -8.085938 -8.71875 -7.828125 C -8.8125 -7.242188 -8.78125 -6.722656 -8.625 -6.265625 C -8.46875 -5.804688 -8.226562 -5.40625 -7.90625 -5.0625 C -7.582031 -4.726562 -7.195312 -4.453125 -6.75 -4.234375 C -6.300781 -4.015625 -5.851562 -3.867188 -5.40625 -3.796875 C -4.882812 -3.710938 -4.367188 -3.710938 -3.859375 -3.796875 C -3.359375 -3.878906 -2.898438 -4.039062 -2.484375 -4.28125 C -2.078125 -4.519531 -1.726562 -4.832031 -1.4375 -5.21875 C -1.144531 -5.601562 -0.957031 -6.050781 -0.875 -6.5625 C -0.832031 -6.820312 -0.820312 -7.097656 -0.84375 -7.390625 C -0.863281 -7.679688 -0.921875 -7.972656 -1.015625 -8.265625 C -1.117188 -8.554688 -1.257812 -8.828125 -1.4375 -9.078125 C -1.625 -9.328125 -1.867188 -9.546875 -2.171875 -9.734375 L -0.8125 -11.421875 C -0.382812 -11.171875 -0.0351562 -10.84375 0.234375 -10.4375 C 0.515625 -10.039062 0.734375 -9.601562 0.890625 -9.125 C 1.046875 -8.65625 1.140625 -8.160156 1.171875 -7.640625 C 1.210938 -7.128906 1.191406 -6.640625 1.109375 -6.171875 C 0.972656 -5.335938 0.671875 -4.601562 0.203125 -3.96875 C -0.253906 -3.332031 -0.804688 -2.8125 -1.453125 -2.40625 C -2.109375 -2 -2.816406 -1.710938 -3.578125 -1.546875 C -4.347656 -1.390625 -5.109375 -1.375 -5.859375 -1.5 Z M -5.859375 -1.5 "/></g></g></g><g fill="#030d0b" fill-opacity="1"><g transform="translate(318.662613, 195.329591)"><g><path d="M -11.71875 -4.984375 L -11.65625 -7.015625 L 0.359375 -11.15625 L 0.28125 -8.78125 L -2.703125 -7.78125 L -2.84375 -3.640625 L 0.078125 -2.453125 L 0 -0.078125 Z M -4.34375 -7.40625 L -9.0625 -5.921875 L -4.453125 -4.0625 Z M -4.34375 -7.40625 "/></g></g></g></svg>