<svg viewBox="-63.831081081081095 47.6875 475.33783783783775 456.43749999999994" xmlns="http://www.w3.org/2000/svg" xmlns:xlink="http://www.w3.org/1999/xlink" overflow="visible" width="475.33783783783775px" height="456.43749999999994px"><defs><path d="M170,387 C263.888407,387 340,310.980246 340,217.205128 L340,0 L0,0 L0,217.205128 C0,310.980246 76.1115925,387 170,387 Z" id="mastercompositionspace-path-1"/><path d="M170,387 C205.216822,387 237.932549,376.304457 265.068658,357.988177 C310.277694,327.473068 395.38799,374.053861 395.38799,214.5 C395.38799,108.13076 376.925327,36.6307596 340,4.26325641e-14 C34.2812211,-18.1625487 -118.578168,-18.1625487 -118.578168,4.26325641e-14 C-118.578168,27.243823 -118.578168,147.669814 -118.578168,214.5 C-118.578168,281.330186 -7.63531809,486.494026 88.6358482,441.342688 C101.580018,435.271851 118.53617,416.249491 139.504305,384.275609 C152.894574,386.09187 163.059806,387 170,387 Z" id="mastercompositionspace-path-3"/></defs><g id="Master/Composition/Space" stroke="none" stroke-width="1" fill="none" fill-rule="evenodd"><circle id="Oval" fill="#FFA9C4" cx="42" cy="371" r="42"/><ellipse id="Oval" fill="#AED5F8" cx="201" cy="275.5" rx="170" ry="169.5"/><polygon id="Polygon" fill="#7A8DFF" points="71 124 104 157 71 190 38 157"/><g id="Character-And-Mask" transform="translate(31.000000, 58.000000)"><mask id="mastercompositionspace-mask-2" fill="#fff"><use xlink:href="#mastercompositionspace-path-1"/></mask><use id="Mask" fill="#0007E9" opacity=".278" xlink:href="#mastercompositionspace-path-1"/><mask id="mastercompositionspace-mask-4" fill="#fff"><use xlink:href="#mastercompositionspace-path-3"/></mask><g id="Mask" opacity=".278"/><g mask="url(#mastercompositionspace-mask-4)"><g transform="translate(129.459178, 86.342688) rotate(-27.000000) translate(-129.459178, -86.342688) translate(26.459178, 11.342688) scale(1.5147058823529411 1.4423076923076923)" id="Head/Front"><g id="Head/Front/Airy" stroke="none" stroke-width="1" fill="none" fill-rule="evenodd"><g id="Head" transform="translate(54.000000, 31.000000)" fill="#57331f"><path d="M38.1433414,9.13393292 C43.9381521,19.9350547 43.249578,47.3329958 35.7603014,49.2634576 C32.773664,50.0333035 26.4113241,48.1475566 19.935865,44.2446031 L24,73 L0,73 L8.26160177,34.4893378 C3.65406109,29.0807313 0.535660132,22.452516 1.05677633,15.0254539 C2.55833022,-6.37502057 32.3485306,-1.66718886 38.1433414,9.13393292 Z" id="SKIN"/></g><path d="M78.46395,27.6852568 C75.3008195,27.1665378 66.7839511,26.8099042 65.2132884,26.8101344 C64.2095609,26.8101344 63.1218259,27.0394482 62.5273474,26.1178184 C62.0405177,25.3631089 62.2188613,24.0866873 62.0735698,23.2108742 C61.9048664,22.1934668 61.6652388,21.1891827 61.4228569,20.1874312 C60.7331241,17.3368945 59.6901472,14.6249591 58.2308058,12.0787928 C55.4925323,7.30188179 51.4810649,3.56010629 46.4167508,1.38277606 C40.824292,-1.02133542 34.4959652,-1.57182675 28.4804855,-1.08418951 C22.0431327,-0.562477519 16.2158664,1.56258942 10.137955,3.56240864 C4.34603603,5.46806184 -1.7203989,6.21816672 -7.77811175,5.28755777 C-13.8815008,4.35004179 -18.4931849,1.0420286 -23.6412768,-2.09768297 C-28.9114778,-5.31199061 -34.9343023,-7.4142643 -41.1646205,-6.93100152 C-46.9804104,-6.47974137 -52.3405866,-4.0783927 -57.1496651,-0.870531642 C-61.6491098,2.13080883 -65.3617312,5.74181098 -67.4577843,10.8240133 C-69.7126711,16.2909379 -69.7106053,22.291777 -66.0025745,27.1232537 C-60.627938,34.1265349 -50.6501101,35.9375616 -42.3489869,35.7575181 C-37.5474828,35.6536822 -32.8318224,34.7771784 -28.298637,33.1828026 C-22.2530892,31.0563543 -17.0287938,27.4522592 -11.3729852,24.5280473 C-8.71871903,23.1558481 -5.97516638,22.0288489 -3.09940537,21.2170411 C-0.308799399,20.4289475 2.43980288,20.0674789 4.96645123,21.7532579 C7.63930914,23.5366564 10.0344377,25.2885128 13.0922147,26.4049212 C16.0255874,27.4759733 19.132713,28.0750442 22.2579713,28.0508696 C28.338637,28.0039017 34.3327705,26.1092997 40.2385356,24.8402457 C45.0544999,23.8055706 50.2074119,22.7743491 55.1172534,23.7689633 C57.1660236,24.1840766 60.1586146,25.0410104 60.8986141,27.1702216 C48.4441749,29.4274433 43.5527072,44.8301494 47.0638027,56.1372093 C48.958789,62.2400423 60.3498117,69.3741897 64.7787912,66.1658382 C67.5846772,64.1332552 65.881216,61.4648419 64.7787912,59.7033156 C62.6675892,56.3299158 61.9452634,51.9966672 65.8518364,49.6480423 C69.2215424,47.6224367 72.7645562,52.4327123 72.8315785,52.4274169 C73.7577255,52.3544325 81.7604403,47.8285457 87.2741651,41.224129 C92.7134751,41.5465656 93.5386971,37.9600245 92.2398964,35.026908 C90.9410957,32.0937915 82.8343998,28.4024381 78.46395,27.6852568 Z" id="hair" fill="#2c1b18"/></g></g></g><g id="Character-Lower-Body" mask="url(#mastercompositionspace-mask-4)"><g transform="translate(-26.540822, 268.342688)"><polygon id="SKIN" fill="#57331f" points="201.893333 0 275.843003 179.84314 325.441353 331.885357 345.026667 331.885357 266.188356 7.36933529e-13"/><path d="M187.002386,0 C186.214928,63.1981144 174.730895,148.284118 172.896133,152.223566 C171.672959,154.849866 129.44701,188.247837 46.2182876,252.417479 L59.7078008,266.287878 C157.909983,211.27046 209.283232,180.092767 213.827545,172.7548 C220.644016,161.747848 242.836096,60.460441 260.653333,0 L187.002386,0 Z" id="SKIN" fill="#57331f"/><polygon id="Pant" fill="#56919c" points="251.613333 316.225019 344.73206 306.51449 269.693333 4.11460731e-14 192.31707 4.11460731e-14"/><path d="M65.4796702,230.040024 L126.56,299.508545 C190.894595,231.993667 228.401833,187.940197 239.081711,167.348135 C249.76159,146.756073 259.362258,90.9733616 267.883714,0 L173.987073,0 C169.332221,80.0343953 166.194527,121.913789 164.573991,125.638181 C162.953454,129.362573 129.922014,164.163187 65.4796702,230.040024 Z" id="Pant" fill="#89c5cc"/></g></g><g mask="url(#mastercompositionspace-mask-4)"><g transform="translate(184.959178, 257.842688) rotate(-14.000000) translate(-184.959178, -257.842688) translate(-7.540822, 122.342688) scale(1.50390625 1.4491978609625669)" id="Body"><g id="Body/Jacket" stroke="none" stroke-width="1" fill="none" fill-rule="evenodd"><path d="M68.3079281,93.0198914 L89.2053198,93.1020711 C76.3021447,134.755739 69.3363474,156.856914 68.3079281,159.405597 C65.9939846,165.140133 70.8906002,173.873732 72.9845874,178.567103 C66.1645409,181.61887 66.8912241,170.316929 58.2879189,174.319492 C50.4352209,177.972846 44.4616931,184.59248 35.3890352,178.994371 C34.2736052,178.306117 33.0512757,175.714714 36.0045784,173.68967 C43.3623323,168.644547 53.9653015,159.814672 55.3979297,156.908251 C57.3515741,152.944826 61.6549068,131.648706 68.3079281,93.0198914 L68.3079281,93.0198914 Z M194.04441,89.1225115 L222.372314,116.757535 C230.61469,120.273345 237.368143,124.155511 242.632673,128.40403 C243.816587,129.832102 245.10547,132.568362 239.535214,131.343925 C233.964957,130.119488 228.050816,129.082079 227.003896,130.893567 C225.956977,132.705055 229.041811,135.480899 227.106974,137.851671 C225.817082,139.432186 221.479076,134.404878 214.092956,122.769747 L184.635682,105.402467 L194.04441,89.1225115 Z" id="SKIN" fill="#57331f"/><path d="M122.01899,9.23199981 L130.503942,7.00082913 C148.576175,42.7520052 177.414525,74.1501034 217.01899,101.195124 L192.061793,137.56505 C151.33882,97.6857553 124.670571,55.1985909 122.01899,9.23199981 Z" id="Coat-Back" fill="#28aa4d" transform="translate(169.518990, 72.282940) rotate(5.000000) translate(-169.518990, -72.282940)"/><path d="M90,114 L167,114 C149.16087,70.6251468 140.241304,33.7787236 140.241304,3.4607303 L117.014208,0 C98.7598929,29.3584068 93.6048263,65.5045499 90,114 Z" id="Shirt" fill="#C7D1D9"/><path d="M118.047752,-4.26325641e-14 C119.86198,0.0624731357 122.625282,0.175030894 126.337658,0.337673275 L126.337658,0.337673275 L131.950158,16.3768801 C132.543836,35.9324229 136.010826,75.3421183 142.351127,134.605966 L142.351127,134.605966 L91.8760675,134.60553 C92.008386,138.698782 92.2265651,142.830272 92.5306047,147 L92.5306047,147 L55,147 C60.6139164,83.6639633 81.1152373,34.6639633 116.503963,1.42108547e-14 L116.503963,1.42108547e-14 L116.522,0.017 L116.531583,-4.26325641e-14 Z" id="Coat-Front" fill="#43d26c"/><path d="M106,135 L91.889057,134.999288 C91.2713571,116.643048 92.3783198,99.0548837 95.2099449,82.2347951 C96.6469231,107.748771 100.243477,125.3371 106,135 Z" id="Shade" fill-opacity=".1" fill="#000"/><polygon id="Light" fill-opacity=".2" fill="#FFF" points="103.110899 104 128 92.4292718 128 104"/></g></g></g></g><circle id="Oval" fill="#FFEBA9" cx="291" cy="442" r="42"/><polygon id="Polygon" fill="#2026A2" opacity=".399" points="294 82 302 90 294 98 286 90"/></g></svg>