<svg viewBox="24.445945945945937 27.25 359.89864864864865 497.3125" xmlns="http://www.w3.org/2000/svg" xmlns:xlink="http://www.w3.org/1999/xlink" overflow="visible" width="359.89864864864865px" height="497.3125px"><defs><path d="M9.37054227,12.5613422 C22.6202052,14.5162713 40.7027109,14.5090862 61.4205614,5.51255998 L66.1944979,23.208767 C51.1665391,34.0694341 31.2315522,41.7910291 15.3416741,38.8136531 C2.81957441,36.4673167 -1.19301326,20.1955965 9.37054227,12.5613422 Z" id="mastercompositiongraphs-path-1"/><path d="M72.2005369,2.23547676e-13 C73.8869588,21.7221726 82.3751241,45.661868 89.3412215,69.3125591 C103.558254,72.8682786 127.400589,68.6761214 160.867708,56.7365802 C169.168797,73.9542159 173.006182,86.2290697 172.379864,93.5611415 C143.667126,108.59814 119.058312,115.301393 98.7845564,115.742507 C99.4363321,127.798854 97.9724881,139.275853 93.0533166,149.762633 C82.9417964,171.318557 23.7332277,151.355368 3.82549256,155.284611 C-8.64131656,114.692942 15.4636361,98.1966511 15.4830313,72.223735 C15.5042711,43.7806241 38.2841549,2.23547676e-13 41.6357585,2.23547676e-13 L41.6357585,2.23547676e-13 Z" id="mastercompositiongraphs-path-3"/></defs><g id="Master/Composition/Graphs" stroke="none" stroke-width="1" fill="none" fill-rule="evenodd"><g id="Chart" transform="translate(40.000000, 41.000000)"><path d="M48.6606476,47.71305 C46.1847672,50.33105 42.6774315,51.975 38.7765142,51.975 C31.281014,51.975 25.2047342,45.94205 25.2047342,38.5 C25.2047342,31.05795 31.281014,25.025 38.7765142,25.025 L38.7765142,0 C17.453309,0 0,17.32885 0,38.5 C0,59.67115 17.453309,77 38.7765142,77 C49.9771103,77 60.0997193,72.2953 67,64.8109 L48.6606476,47.71305 Z" id="Value" fill="#F2F2F2"/><path d="M38,0 L38,25.35 C45.5387,25.35 51.65,31.4613 51.65,39 L77,39 C77,17.5539 59.4461,0 38,0 Z" id="Value" fill="#42A5FF"/><path d="M51.2919112,38 C51.2919112,42.4006869 49.2194437,46.3124086 46,48.8380716 L61.8381602,69 C71.0574764,61.7818482 77,50.5928258 77,38 L51.2919112,38 Z" id="Value" fill="#C5CFD6"/></g><g id="Circles" transform="translate(24.000000, 112.000000)"><circle id="Oval-2-Copy-17" fill="#C1DEE2" cx="335" cy="20" r="20"/><circle id="Oval-2-Copy-6" fill="#89C5CC" cx="64.5" cy="234.5" r="13.5"/><circle id="Oval-2-Copy-14" fill="#56919C" cx="140.5" cy="19.5" r="13.5"/><circle id="Oval-2-Copy-10" fill="#56919C" cx="113.5" cy="214.5" r="13.5"/><circle id="Oval-2-Copy-11" fill="#C1DEE2" cx="162.5" cy="118.5" r="18.5"/><circle id="Oval-2-Copy-16" fill="#89C5CC" cx="301" cy="36" r="27"/><circle id="Oval-2-Copy-7" fill="#C1DEE2" cx="37.5" cy="187.5" r="13.5"/><circle id="Oval-2-Copy-7" fill="#C1DEE2" cx="9.5" cy="247.5" r="9.5"/><circle id="Oval-2-Copy-9" fill="#C1DEE2" cx="114" cy="163" r="10"/><circle id="Oval-2-Copy-12" fill="#C1DEE2" cx="204" cy="134" r="17"/><circle id="Oval-2-Copy-13" fill="#C1DEE2" cx="211" cy="63" r="17"/><circle id="Oval-2-Copy-8" fill="#89C5CC" cx="78" cy="136" r="17"/><circle id="Oval-2-Copy-15" fill="#89C5CC" cx="262" cy="91" r="20"/></g><g id="Head/Front" transform="translate(101.859375, 127.148352) scale(1.1015661764705882 1.1043942307692307)"><defs><path d="M51.4175453,12.0507955 C51.8498576,10.8051312 54.7962768,6.94578045 49.5487779,3.26896817 C48.605788,2.60823496 47.0479654,3.26680115 45.6982041,2.84976736 C44.6826295,2.53598679 44.3402497,1.11914512 43.1760935,0.871968648 C41.9683844,0.615544926 40.6526543,1.77773804 39.2876744,1.67560585 C38.4512965,1.61302535 37.1608106,0.309613766 36.2900993,0.239406864 C34.7357321,0.114075645 33.3236788,1.58124561 31.8056285,1.67560585 C30.9255704,1.73030923 29.9045174,0.314316544 29.0310773,0.239406864 C26.9052532,0.0570877616 24.9691519,1.0481315 23.0958488,1.34868149 C21.3693306,1.62568151 20.5665115,5.16380349 19.2947513,6 C15.3039208,8.62401555 12.1771246,9.35770789 8.938704,12.0507955 C5.08904423,15.2522965 4.352246,17.6341562 2.75742877,19.767516 C1.16261154,21.9008757 0.177496659,29.4172796 1.10754484,34.2343867 C1.65615994,37.0758928 3.08584831,44.8361111 6.27968827,47.8406111 C10.6511987,51.952966 19.5447273,53.1714059 20.3342266,52.6227265 C23.990621,50.0816371 32.186894,36.0268608 38,31.0596268 C42.2746625,27.4069756 48.7394296,19.767516 51.4175453,12.0507955 Z" id="headfrontturban2-path-1"/></defs><g id="Head/Front/Turban2" stroke="none" stroke-width="1" fill="none" fill-rule="evenodd"><g id="Head" transform="translate(54.000000, 31.000000)" fill="#57331f"><path d="M38.1433414,9.13393292 C43.9381521,19.9350547 43.249578,47.3329958 35.7603014,49.2634576 C32.773664,50.0333035 26.4113241,48.1475566 19.935865,44.2446031 L24,73 L0,73 L8.26160177,34.4893378 C3.65406109,29.0807313 0.535660132,22.452516 1.05677633,15.0254539 C2.55833022,-6.37502057 32.3485306,-1.66718886 38.1433414,9.13393292 Z" id="SKIN"/></g><g id="Turban" transform="translate(40.000000, 22.000000)"><mask id="headfrontturban2-mask-2" fill="#fff"><use xlink:href="#headfrontturban2-path-1"/></mask><use id="Path" fill="#FFA434" xlink:href="#headfrontturban2-path-1"/><path d="M34.1200359,-1.25901608 C30.8584911,12.5005919 28.3300264,22.1357612 26.5346419,27.6464918 C24.7137273,33.2355841 23.2304509,37.9704516 21.9545611,41.8451306 C24.5801764,36.0295537 27.9569456,28.56681 31.0112076,20.9117197 C33.2010503,15.4231782 35.5306478,8.39485486 38,-0.173250307 L40.9719724,-0.173250307 C36.290024,13.1700568 32.768261,22.4881471 30.4066836,27.7810206 C26.60679,36.297513 23.8767993,42.7645741 21.7019404,47.1041542 C25.3445515,41.763724 30.9484918,33.0516783 36.922643,21.335361 C39.1872587,16.894068 41.853295,10.0938106 44.9207521,0.934588622 L47.6868166,2.11790169 C43.0427818,13.7106968 39.4547239,21.7949743 36.922643,26.3707343 C28.6691874,41.2856732 20.7882084,50.2847641 18.0335245,52.8387957 C17.5576168,53.2800381 17.398031,53.3833045 17.5112894,53.1586499 C17.4740169,53.1518331 17.4460457,53.1289131 17.4278914,53.089452 C17.2342776,53.3828025 17.0414566,53.6396744 16.848515,53.8603451 C14.0706214,57.0374698 21.1787066,39.3265874 26.4178167,20.7516317 C28.0219544,15.0642561 29.6041303,7.83092542 31.1643443,-0.948360367 L34.1200359,-1.25901608 Z" id="Shade" fill-opacity=".2" fill="#000" mask="url(#headfrontturban2-mask-2)"/></g></g></g><g id="Bottom/Sitting" transform="translate(11.531250, 333.670330) scale(1.1015633333333332 1.104397489539749)"><g id="Bottom/Sitting/Wheelchair" stroke="none" stroke-width="1" fill="none" fill-rule="evenodd"><path d="M280.000005,22.8655557 C279.971611,44.0311277 260.656682,144.512004 259.648224,150.855869 C258.639766,157.199734 247.83665,159.275085 247.20755,151.348454 C246.206544,138.735846 244.3468,95.012719 246.20755,74.6716648 C246.751052,68.7302859 247.324148,62.9873499 247.901347,57.6071399 C237.750733,75.8422626 222.314469,101.618252 201.593128,134.933778 L190.076573,129.672175 C199.120166,99.8760987 206.535776,78.8408618 212.323403,66.5664641 C222.233227,45.5497154 231.525307,27.551672 235.436043,21.2120072 C240.602279,12.8370615 248.982027,13.9496495 254.885272,18.0967837 C262.064167,8.35825282 280.010813,14.8043944 280.000005,22.8655557 Z" id="SKIN" fill="#57331f"/><path d="M208.819223,123.340112 L213.936922,21.8299349 C217.625361,4.27739957 248.84365,12.4235349 248.830816,21.8299349 C248.801666,43.1853748 235.973522,116.956762 235.964839,123.319261 L208.819223,123.340112 Z" id="Leg-Back" fill="#191847" transform="translate(228.825019, 67.419630) rotate(20.000000) translate(-228.825019, -67.419630)"/><path d="M281,30.1765514 C281,56.7177303 269.366261,119.105994 269.358267,124.950436 L241.17615,124 C246.102422,69.7571864 248.179877,42.4520039 247.408516,42.0844525 C245.672952,41.2574617 176.262132,51.6911698 155.444697,52.4790258 C125.425854,53.615118 113.00766,35.1988173 112,0.25055648 L170.147646,0.25055648 C219.869047,6.18567094 252.548003,10.3136421 268.184514,12.63447 C278.225902,14.1248493 281,22.8651399 281,30.1765514 Z" id="Leg-Front" fill="#393f82"/><g id="Left" transform="translate(214.036816, 137.322315) rotate(14.000000) translate(-214.036816, -137.322315) translate(185.036816, 126.822315)" fill="#E4E4E4"><path d="M1.67813181,6.40192425 C0.559377268,9.38841089 4.54747351e-13,11.6229931 4.54747351e-13,13.1056708 C4.54747351e-13,14.908957 0.300414205,17.5404001 0.901242614,21 C2.99318117,21 21.7937852,21 57.3030548,21 C58.768738,16.1545073 57.9226607,13.5385816 54.7648228,13.1522232 C51.606985,12.7658647 48.9837155,12.4170139 46.8950143,12.1056708 L20.6799926,0.41888346 C20.1755635,0.194006431 19.584344,0.4206282 19.359467,0.925057349 C19.35562,0.933686736 19.3518954,0.94237021 19.3482945,0.951105155 L17.6632131,5.03869504 L17.6632131,5.03869504 C14.7398812,6.40265216 12.3643706,7.08463071 10.5366811,7.08463071 C9.05172687,7.08463071 7.00099246,6.48490544 4.38447792,5.28545491 L4.38448339,5.28544297 C3.38038273,4.82514778 2.19325534,5.26598921 1.73296014,6.27008987 C1.71312074,6.31336808 1.69483298,6.35734088 1.67813181,6.40192425 Z" id="shoe"/></g><g id="Right" transform="translate(244.000000, 130.000000)" fill="#E4E4E4"><path d="M1.67813181,6.40192425 C0.559377268,9.38841089 0,11.6229931 0,13.1056708 C0,14.908957 0.300414205,17.5404001 0.901242614,21 C2.99318117,21 21.7937852,21 57.3030548,21 C58.768738,16.1545073 57.9226607,13.5385816 54.7648228,13.1522232 C51.606985,12.7658647 48.9837155,12.4170139 46.8950143,12.1056708 L20.6799926,0.41888346 C20.1755635,0.194006431 19.584344,0.4206282 19.359467,0.925057349 C19.35562,0.933686736 19.3518954,0.94237021 19.3482945,0.951105155 L17.6632131,5.03869504 L17.6632131,5.03869504 C14.7398812,6.40265216 12.3643706,7.08463071 10.5366811,7.08463071 C9.05172687,7.08463071 7.00099246,6.48490544 4.38447792,5.28545491 L4.38448339,5.28544297 C3.38038273,4.82514778 2.19325534,5.26598921 1.73296014,6.27008987 C1.71312074,6.31336808 1.69483298,6.35734088 1.67813181,6.40192425 Z" id="shoe"/></g><rect id="Base" fill="#393F82" x="245" y="151" width="53" height="7" rx="3.5"/><path d="M109,6 L216,6 C221.522847,6 226,10.4771525 226,16 L226,65 L226,65 L103,65 C100.790861,65 99,63.209139 99,61 L99,16 C99,10.4771525 103.477153,6 109,6 Z" id="Seat" fill="#393F82"/><path d="M216,6 L218.193678,6 C223.091205,6 227.268082,9.54701889 228.061559,14.3798408 L250,148 L250,148 L239.314286,148" id="Wheel-Stuff" fill="#393F82"/><circle id="Front-Wheel" fill="#191847" cx="245" cy="150" r="18"/><g id="Wheel" transform="translate(36.000000, 14.000000)" fill="#191847"><path d="M76,0 C117.973641,0 152,34.026359 152,76 C152,117.973641 117.973641,152 76,152 C34.026359,152 0,117.973641 0,76 C0,34.026359 34.026359,0 76,0 Z M76,14 C41.7583455,14 14,41.7583455 14,76 C14,110.241654 41.7583455,138 76,138 C110.241654,138 138,110.241654 138,76 C138,41.7583455 110.241654,14 76,14 Z"/><rect id="Wheel-Stuff" x="72" y="10" width="8" height="132"/><rect id="Wheel-Stuff" transform="translate(76.000000, 76.000000) rotate(45.000000) translate(-76.000000, -76.000000)" x="72" y="10" width="8" height="132" rx="2"/><rect id="Wheel-Stuff" transform="translate(76.000000, 76.000000) rotate(90.000000) translate(-76.000000, -76.000000)" x="72" y="10" width="8" height="132" rx="2"/><rect id="Wheel-Stuff" transform="translate(76.000000, 76.000000) rotate(135.000000) translate(-76.000000, -76.000000)" x="72" y="10" width="8" height="132" rx="2"/></g></g></g><g id="Body" transform="translate(35.765625, 217.708791) scale(1.1015625 1.1043957219251337)"><g id="Body/Lab Coat" stroke="none" stroke-width="1" fill="none" fill-rule="evenodd"><path d="M53.6671405,77.5359191 L71.3789189,80.1081345 C52.3668948,121.357659 42.1743233,143.172797 40.8012044,145.553548 C37.7116869,150.910237 41.3451669,160.240318 42.7655846,165.17944 C35.5871864,167.252341 37.8797238,156.161524 28.8030963,158.927786 C20.5183715,161.452702 13.6817028,167.176559 5.47644547,160.370261 C4.4676573,159.533467 3.61787693,156.797168 6.82426992,155.202852 C14.8125642,151.230829 26.541227,143.962534 28.3644086,141.283781 C30.8506424,137.630823 39.2848864,116.381535 53.6671405,77.5359191 L53.6671405,77.5359191 Z M190.358872,88.6100216 L220.545493,114.201672 C229.013042,117.13396 236.02085,120.535571 241.568917,124.406506 C242.849565,125.748514 244.32618,128.3882 238.68408,127.555307 C233.04198,126.722415 227.069879,126.100082 226.151873,127.980187 C225.233867,129.860292 228.504819,132.414187 226.740072,134.914152 C225.563574,136.580795 220.885448,131.868337 212.705694,120.776779 L182.108696,105.506639 L190.358872,88.6100216 Z" id="SKIN" fill="#57331f"/><path d="M122.979272,9.21054221 L133.596123,4.63843187 C151.668356,40.3896079 176.923065,74.3010145 216.52753,101.346035 L208.768287,117.911928 C174.615844,101.621394 142.570612,89.4491188 127.58307,61.8321985 C122.552864,52.5632462 123.64558,20.7613641 122.979272,9.21054221 Z" id="Coat-Back" fill="#28aa4d" transform="translate(169.753401, 61.275180) rotate(5.000000) translate(-169.753401, -61.275180)"/><path d="M90,110 C121.438326,113.333333 146.183737,113.333333 164.236234,110 C166.472817,109.587022 166.825667,105.842388 165.788454,103.300966 C149.636353,63.7244027 138.560302,29.1916266 138.560302,1.70263734 C135.596594,3.1967882 130.409827,3.42070538 123,2.37438888 C103.086202,30.7026762 93.9325378,63.2061447 90,110 Z" id="Shirt" fill="#181F31"/><path d="M118.078622,-0.518676213 L118.049621,-0.000676212716 L126.348425,5.5067062e-14 C128.261445,11.2512223 134.254034,162.198887 152.629948,214.064845 L153.190593,215.605966 L51.3853184,215.605966 C53.5924156,169.487497 71.0026785,114.088004 88.6395167,67.7290783 C73.044235,81.9998445 59.4517,106.181198 47.8618586,140.272687 L47.8618586,140.272687 L28.7926212,135.377648 C42.9709573,74.2822336 72.1213495,29.3765708 116.243798,0.660659727 L116.531583,5.5067062e-14 L117.269621,-0.000676212716 L118.078622,-0.518676213 Z" id="Coat-Front" fill="#43d26c"/></g></g><g id="Bars" transform="translate(260.000000, 33.000000)"><rect id="Rectangle" fill="#393f82" x="0" y="0" width="110" height="16" rx="4"/><rect id="Rectangle" fill="#C1DEE2" x="0" y="24" width="70" height="16" rx="4"/><rect id="Rectangle" fill="#C1DEE2" x="0" y="48" width="86" height="16" rx="4"/></g><g id="Graph" transform="translate(24.000000, 426.000000)"><rect id="Value" fill="#42A5FF" x="0" y="32" width="6" height="25" rx="3"/><rect id="Value" fill="#42A5FF" x="14" y="16" width="6" height="41" rx="3"/><rect id="Value" fill="#42A5FF" x="28" y="8" width="6" height="49" rx="3"/><rect id="Value" fill="#42A5FF" x="42" y="16" width="6" height="41" rx="3"/><rect id="Value" fill="#393f82" x="56" y="0" width="6" height="57" rx="3"/></g><g id="Pie-Chart" transform="translate(353.000000, 465.000000) scale(-1, 1) translate(-353.000000, -465.000000) translate(324.000000, 436.000000)"><path d="M58,29.5164511 C58,13.2853546 44.9471,0 29,0 L29,29.5164511 L48.8186,51 C54.4562,45.7475475 58,38.042278 58,29.5164511 Z" id="Value" fill="#F2F2F2"/><path d="M30.1077581,29 L1,29 C1,36.57045 4.06941309,43.66385 8.92167637,48.8186 C14.2585838,54.4562 21.8586195,58 30.1077581,58 C37.7063384,58 44.6616372,54.94195 50,50.10765 L30.1077581,29 Z" id="Value" fill="#AFB9C5"/><path d="M0,29 C0,13.0529 13.0529,0 29,0 L29,29 L0,29 Z M43.5,0 L31.9,26.1 L58,14.5 C55.419,7.7343 49.62335,2.581 43.5,0 Z" id="Value" fill="#8991DC"/></g><g id="Circles" transform="translate(122.000000, 246.000000)"><circle id="Circle" fill="#89C5CC" cx="14.5" cy="104.5" r="14.5"/><circle id="Circle" fill="#C1DEE2" cx="57" cy="21" r="7"/><circle id="Circle" fill="#89C5CC" cx="145" cy="15" r="15"/></g></g></svg>