<svg viewBox="155.2 208.8 1209.6 842.4" xmlns="http://www.w3.org/2000/svg" xmlns:xlink="http://www.w3.org/1999/xlink" overflow="visible" width="1120px" height="780px"><rect id="Blush Background Color" fill="#030d0b" x="155.2" y="208.8" width="1209.6" height="842.4"/><defs><path d="M256.962975,311.339607 C443.935975,235.342607 398.479975,-0.581393341 230.904975,0.811606659 C63.3309753,2.20460666 24.2099753,38.5126067 3.46897532,128.568607 C-19.2350247,227.153607 69.9889753,387.335607 256.962975,311.339607" id="masterclose-upsworking-path-1"/><path d="M307.297875,52.9030067 C306.185875,-19.4509933 7.35887532,-14.0019933 0.920875319,51.5470067 C-5.51612468,117.096007 48.4358753,124.844007 112.598875,120.904007 C167.077875,117.559007 308.410875,125.257007 307.297875,52.9030067" id="masterclose-upsworking-path-3"/><path d="M32.8849924,134.864863 C10.3597877,118.803956 -3.66684564,90.080418 1.58359877,62.9978629 C5.91327787,40.6678253 22.5078748,21.9180097 42.6548214,11.1980716 C63.0296457,0.357218868 87.4958607,-3.02378214 109.830203,2.86072575 C132.163389,8.74523364 152.01768,24.0702886 162.43297,44.5992753 C172.84826,65.1282621 173.335248,90.5963201 162.84477,111.087305 C145.226458,145.498433 101.451933,157.838626 65.8185467,149.473643 C54.047557,146.709882 42.7357932,141.88827 32.8849924,134.864863" id="masterclose-upsworking-path-5"/><path d="M9.41544408,1.5633 C-4.60206802,-2.25965784 -1.58455592,17.5633 9.41544408,20.5633 C20.4154441,23.5633 27.4154441,23.5633 37.4154441,20.5633 C51.1076895,16.4556264 49.8974986,-2.59738486 37.4154441,1.5633 C28.4154441,4.5633 20.4154441,4.5633 9.41544408,1.5633 Z" id="masterclose-upsworking-path-7"/></defs><g id="Master/Close Ups/Working" stroke="none" stroke-width="1" fill="none" fill-rule="evenodd"><g id="Food" transform="translate(707.000000, 418.000000) scale(1 1)"><g id="Food/Coffee" stroke="none" stroke-width="1" fill="none" fill-rule="evenodd"><path d="M108.307188,163 C94.22027,139.449563 97.3506962,124.534286 117.698467,118.254169 C94.22027,99.4138191 82.4811716,61.7331193 134.133205,61.7331193 C113.002827,21.6973757 162.307041,-13.6282803 195.176516,5.21206959 C228.045992,24.0524195 213.959074,78.2184254 174.046139,61.7331193 C188.133057,85.2835567 164.65486,104.123907 143.524483,94.7037316 C159.959221,113.544082 143.524483,137.094519 120.046286,139.449563 C123.176713,148.869738 119.26368,156.719883 108.307188,163 Z" id="Path-89" fill-opacity=".1" fill="#a76e9d"/><path d="M186.892857,146 C186.892857,151.042949 186.892857,156.406869 186.755898,161.937956 C204.189172,165.021907 213.892857,175.675 213.892857,193.303921 C213.892857,214.833178 197.869111,226.104324 169.409746,226.948724 C158.488176,240.71985 140.737131,250 111.892857,250 C36.8928571,250 36.8928571,187.258004 36.8928571,146 L36.8928571,146 Z M186.000157,176.617781 L185.980332,176.852755 C184.968416,188.759843 182.834369,200.80432 178.333837,211.588761 C192.727225,209.564518 198.892857,203.502206 198.892857,193.303921 C198.892857,184.113459 195.068857,178.693637 186.000157,176.617781 Z" id="Combined-Shape" fill="#34c482"/></g></g><g id="Computer" transform="translate(219.000000, 249.000000)"><path d="M490.30814,5.51333486 L36.5562021,226.339384 C14.1924973,237.223059 0,259.914053 0,284.785516 L0,626.023958 C0,632.847009 1.55154757,639.580728 4.53729315,645.715818 C15.4128072,668.062754 42.3449242,677.362179 64.6918601,666.486665 L518.443798,445.660616 C540.807503,434.776941 555,412.085947 555,387.214484 L555,45.9760417 C555,39.1529915 553.448452,32.4192723 550.462707,26.2841816 C539.587193,3.93724568 512.655076,-5.36217917 490.30814,5.51333486 Z M505,53.969 L505,387.214484 L505,387.558237 C504.868238,393.162418 501.621591,398.240668 496.563953,400.702053 L50,618.03 L50,284.785516 C50,279.045948 53.2751917,273.809564 58.4360466,271.297947 L505,53.969 Z" id="Monitor" fill="#f3eae2" fill-rule="nonzero"/><path d="M527.983425,37.2241039 C529.310423,39.9508109 530,42.9435749 530,45.9760417 L530,387.214484 C530,402.52 521.266155,416.483689 507.503876,423.181335 L53.7519378,644.007384 C43.8199663,648.840945 31.8501365,644.707868 27.0165747,634.775896 C25.6895767,632.049189 25,629.056425 25,626.023958 L25,284.785516 C25,269.48 33.7338445,255.516311 47.4961244,248.818665 L501.248062,27.9926164 C511.180034,23.1590547 523.149863,27.2921324 527.983425,37.2241039 Z" id="Path" fill="#8c8681" fill-rule="nonzero"/><polygon id="Path" fill="#231721" fill-rule="nonzero" points="490 387.214484 490 77.951 65 284.785516 65 594.047"/><path d="M216.317537,630.192608 L489.44993,498.569551 C494.195376,496.282711 499.651423,495.96039 504.633116,497.67259 L608.994105,533.541295 C619.440036,537.131545 624.997664,548.510118 621.407414,558.95605 C619.67141,564.007001 615.987265,568.153765 611.175845,570.472398 L368.240556,687.543408 C364.907511,689.149609 361.194248,689.79977 357.513754,689.42158 L222.95566,675.595037 C212.755216,674.546889 205,665.953949 205,655.699795 L205,648.209678 C205,640.529063 209.398427,633.526941 216.317537,630.192608 Z" id="Keyboard" fill="#f3eae2"/><g id="code" transform="translate(103.997729, 143.997737)" fill-rule="nonzero"><path d="M14.3886151,182.988919 L79.991204,150.968608 C84.9543971,148.546097 87.0140269,142.558801 84.591516,137.595608 C82.1690051,132.632415 76.1817091,130.572785 71.218516,132.995296 L5.6159271,165.015607 C0.652734037,167.438118 -1.4068958,173.425414 1.0156151,178.388607 C3.438126,183.3518 9.42542205,185.41143 14.3886151,182.988919 Z M115.937828,133.423232 L181.540417,101.40292 C186.50361,98.9804096 188.56324,92.9931135 186.140729,88.0299205 C183.718218,83.0667274 177.730922,81.0070976 172.767729,83.4296085 L107.16514,115.44992 C102.201947,117.872431 100.142317,123.859727 102.564828,128.82292 C104.987339,133.786113 110.974635,135.845743 115.937828,133.423232 Z M217.487041,83.8575445 L283.08963,51.8372332 C288.052823,49.4147223 290.112453,43.4274263 287.689942,38.4642332 C285.267431,33.5010401 279.280135,31.4414103 274.316942,33.8639212 L208.714353,65.8842324 C203.75116,68.3067434 201.69153,74.2940394 204.114041,79.2572325 C206.536552,84.2204255 212.523848,86.2800554 217.487041,83.8575445 Z M319.036254,34.2918572 L350.388615,18.988919 C355.351808,16.5664081 357.411438,10.579112 354.988927,5.61591898 C352.566416,0.652725913 346.57912,-1.40690393 341.615927,1.01560697 L310.263566,16.3185452 C305.300373,18.7410561 303.240743,24.7283521 305.663254,29.6915452 C308.085765,34.6547383 314.073061,36.7143681 319.036254,34.2918572 Z" id="Path" fill="#ffffff"/><path d="M15.3782383,236.993976 L63.0343197,213.80135 C68.0003059,211.38457 70.0668459,205.399656 67.6500659,200.43367 C65.2332859,195.467683 59.2483714,193.401143 54.2823852,195.817923 L6.62630389,219.01055 C1.66031767,221.427329 -0.406222309,227.412244 2.01055765,232.37823 C4.42733761,237.344216 10.4122521,239.410756 15.3782383,236.993976 Z M99.0011735,196.297481 L146.657255,173.104855 C151.623241,170.688075 153.689781,164.703161 151.273001,159.737174 C148.856221,154.771188 142.871307,152.704648 137.90532,155.121428 L90.2492391,178.314054 C85.2832528,180.730834 83.2167129,186.715749 85.6334928,191.681735 C88.0502728,196.647721 94.0351873,198.714261 99.0011735,196.297481 Z" id="Path-Copy" fill="#ffffff"/><path d="M178.394372,156.986107 L223.394372,134.986107 C228.356012,132.560416 230.411805,126.571801 227.986115,121.610162 C225.560424,116.648522 219.57181,114.592729 214.61017,117.018419 L169.61017,139.018419 C164.64853,141.44411 162.592737,147.432724 165.018427,152.394364 C167.444118,157.356004 173.432733,159.411797 178.394372,156.986107 Z" id="Path-Copy" fill="#f38e53"/><path d="M253.36273,120.001507 L301.058725,96.8910766 C306.028871,94.4828618 308.105726,88.501519 305.697511,83.5313735 C303.289296,78.5612281 297.307953,76.4843729 292.337808,78.8925877 L244.641812,102.003019 C239.671667,104.411233 237.594812,110.392576 240.003027,115.362722 C242.411241,120.332867 248.392584,122.409722 253.36273,120.001507 Z M337.055703,79.449242 L350.36273,73.0015074 C355.332875,70.5932926 357.40973,64.6119498 355.001516,59.6418043 C352.593301,54.6716589 346.611958,52.5948037 341.641812,55.0030185 L328.334786,61.4507532 C323.36464,63.858968 321.287785,69.8403108 323.696,74.8104562 C326.104215,79.7806017 332.085558,81.8574568 337.055703,79.449242 Z" id="Path-Copy" fill="#bf7eb3"/><path d="M15.3692915,290.998325 L63.0484205,267.853117 C68.0168084,265.441278 70.0893009,259.458422 67.6774621,254.490034 C65.2656233,249.521646 59.2827675,247.449154 54.3143796,249.860993 L6.63525069,273.006201 C1.6668628,275.41804 -0.405629735,281.400896 2.00620905,286.369283 C4.41804783,291.337671 10.4009036,293.410164 15.3692915,290.998325 Z M99.0326687,250.385035 L118.369292,240.998325 C123.337679,238.586486 125.410172,232.60363 122.998333,227.635243 C120.586494,222.666855 114.603639,220.594362 109.635251,223.006201 L90.2986279,232.392911 C85.33024,234.80475 83.2577475,240.787606 85.6695862,245.755994 C88.081425,250.724381 94.0642808,252.796874 99.0326687,250.385035 Z" id="Path-Copy-2" fill="#d28ac5"/><path d="M157.41131,222.977806 L204.981689,199.609901 C209.938745,197.174856 211.983239,191.182374 209.548194,186.225319 C207.113149,181.268263 201.120667,179.223769 196.163612,181.658814 L148.593232,205.02672 C143.636177,207.461765 141.591683,213.454246 144.026728,218.411302 C146.461773,223.368357 152.454254,225.412851 157.41131,222.977806 Z" id="Path-Copy-2" fill="#f38e53"/><path d="M14.3886151,344.988919 L97.964516,304.19592 C102.927709,301.773409 104.987339,295.786113 102.564828,290.82292 C100.142317,285.859727 94.1550211,283.800097 89.191828,286.222608 L5.6159271,327.015607 C0.652734037,329.438118 -1.4068958,335.425414 1.0156151,340.388607 C3.438126,345.3518 9.42542205,347.41143 14.3886151,344.988919 Z M133.91114,286.650544 L217.487041,245.857544 C222.450234,243.435034 224.509864,237.447738 222.087353,232.484544 C219.664842,227.521351 213.677546,225.461722 208.714353,227.884232 L125.138452,268.677232 C120.175259,271.099743 118.115629,277.087039 120.53814,282.050232 C122.960651,287.013425 128.947947,289.073055 133.91114,286.650544 Z M253.433665,228.312168 L337.009566,187.519169 C341.972759,185.096658 344.032389,179.109362 341.609878,174.146169 C339.187367,169.182976 333.200071,167.123346 328.236878,169.545857 L244.660977,210.338856 C239.697784,212.761367 237.638154,218.748663 240.060665,223.711856 C242.483176,228.67505 248.470472,230.734679 253.433665,228.312168 Z" id="Path-Copy-3" fill="#ffffff"/><path d="M14.3786672,398.993768 L62.0336422,375.798868 C66.9995132,373.381852 69.0657677,367.396838 66.6487509,362.430968 C64.231734,357.465097 58.246721,355.398842 53.28085,357.815859 L5.62587501,381.010758 C0.660004071,383.427775 -1.40625044,389.412788 1.01076639,394.378659 C3.42778322,399.34453 9.41279628,401.410785 14.3786672,398.993768 Z M97.9996611,358.293284 L145.654636,335.098385 C150.620507,332.681368 152.686762,326.696355 150.269745,321.730484 C147.852728,316.764613 141.867715,314.698358 136.901844,317.115375 L89.2468689,340.310275 C84.280998,342.727291 82.2147435,348.712304 84.6317603,353.678175 C87.0487771,358.644046 93.0337902,360.710301 97.9996611,358.293284 Z M181.620655,317.5928 L229.27563,294.397901 C234.241501,291.980884 236.307755,285.995871 233.890739,281.03 C231.473722,276.064129 225.488709,273.997875 220.522838,276.414891 L172.867863,299.609791 C167.901992,302.026808 165.835737,308.011821 168.252754,312.977692 C170.669771,317.943563 176.654784,320.009817 181.620655,317.5928 Z" id="Path-Copy-4" fill="#d28ac5"/></g></g><g id="Plants" transform="translate(327.000000, 870.000000) scale(0.4666666666666667 0.4666666666666667)"><g id="Plants/Tropical" stroke="none" stroke-width="1" fill="none" fill-rule="evenodd"><path d="M207.045033,25 C249.395266,25 271.30056,49.6337883 261.808266,74.2675766 C252.315972,98.9013649 193.514404,44.5753218 146.783112,85 C137.487738,75.227192 152.351939,46.1444607 178.347569,32.3792676 C178.328145,32.6200753 178.318293,32.8615677 178.318293,33.1050932 C178.318293,38.6279407 183.385415,43.1050932 189.636028,43.1050932 C195.88664,43.1050932 200.953762,38.6279407 200.953762,33.1050932 C200.953762,30.2321055 199.582556,27.6420918 197.386845,25.8181005 C200.522792,25.2851332 203.74724,25 207.045033,25 Z" id="Combined-Shape-Copy-2" fill="#30c37f" fill-rule="nonzero" transform="translate(204.000000, 55.000000) rotate(-20.000000) translate(-204.000000, -55.000000)"/><path d="M118.045033,134 C160.395266,134 182.30056,158.633788 172.808266,183.267577 C163.315972,207.901365 104.514404,153.575322 57.7831121,194 C48.4877384,184.227192 63.3519386,155.144461 89.3475694,141.379268 C89.3281447,141.620075 89.3182927,141.861568 89.3182927,142.105093 C89.3182927,147.627941 94.3854152,152.105093 100.636028,152.105093 C106.88664,152.105093 111.953762,147.627941 111.953762,142.105093 C111.953762,139.232106 110.582556,136.642092 108.386845,134.818101 C111.522792,134.285133 114.74724,134 118.045033,134 Z" id="Combined-Shape-Copy" fill="#30c37f" fill-rule="nonzero" transform="translate(115.000000, 164.000000) scale(-1, 1) rotate(-20.000000) translate(-115.000000, -164.000000)"/><path d="M160.482005,100.96411 C165.474464,88.5711619 178.214091,76.4263141 200.453527,76.0109685 C200.158986,76.9556544 200,77.9592606 200,79 C200,84.5228475 204.477153,89 210,89 C215.522847,89 220,84.5228475 220,79 C220,78.7330827 219.989542,78.4686079 219.969015,78.206963 C257.980223,86.6859579 259.868556,112.923139 249.797054,124.099568 C239.354212,135.688075 202.636286,89.2093787 165.500836,120.244275 L165.5,279 C165.5,282.865993 162.365993,286 158.5,286 C154.714548,286 151.630901,282.995217 151.504059,279.24065 L151.5,279 L151.500866,123.055387 C135.407785,108.54247 119.316915,103.038061 103.990679,102.539443 C103.725525,95.0231109 96.8915119,89 88.5,89 C79.9395864,89 73,95.2680135 73,103 C73,104.500286 73.261276,105.945453 73.744972,107.300406 C43.0492291,117.199405 18.6216249,138.080197 8.6417794,126.99148 C-6.22144282,110.476788 -5.40240078,74.1888072 39.2497484,56.4126827 C40.3042177,61.3281965 44.4928018,65 49.5,65 C55.2989899,65 60,60.0751322 60,54 C60,52.7399148 59.7977542,51.5293161 59.425414,50.4018862 C63.8649249,49.4468984 68.6009065,48.6377454 73.6417794,47.9914797 C129.610928,40.8159477 156.182255,74.0357053 160.482005,100.96411 Z" id="Combined-Shape" fill="#20b06e" fill-rule="nonzero"/><path d="M224.534668,167 C280.648728,167 309.673241,204.771809 297.095952,242.543617 C292.093285,257.567507 276.754112,253.436845 256.196237,246.912888 C257.526465,245.613041 258.406761,244.079622 258.70966,242.359978 C259.915863,235.512021 251.508998,228.30413 239.932402,226.260702 C228.355806,224.217276 217.9933,228.112117 216.787097,234.960074 C216.697065,235.47121 216.66059,235.984351 216.674992,236.497201 C193.283106,232.952561 167.864942,235.798147 144.687624,259 C132.23152,243.845018 152.517332,198.40584 187.68854,177.60564 C189.986456,181.052798 195.290989,183.464635 201.467737,183.464635 C209.749798,183.464635 216.463735,179.128477 216.463735,173.779555 C216.463735,171.588683 215.337371,169.567717 213.438237,167.945025 C217.054954,167.326515 220.758522,167 224.534668,167 Z" id="Combined-Shape" fill="#30c37f" fill-rule="nonzero"/><path d="M89.9689883,178.013515 C157.748282,167.791268 175.912986,237.768009 161.224143,258.769265 C140.510443,234.40229 121.357182,231.857412 103.595778,237.575742 C103.557799,237.364632 103.50968,237.151452 103.452752,236.938997 C101.951863,231.337602 94.8969463,228.361118 87.6951539,230.290832 C80.4933615,232.220547 75.8718662,238.325717 77.3727552,243.927111 C77.9089356,245.928163 79.1539307,247.59422 80.8612186,248.821273 C60.2676581,261.715963 41.7105944,278.126276 24.8656862,272 C1.42391568,263.47453 7.08132608,231.156326 32.2042718,206.512887 C32.6770688,208.549133 33.6426928,210.39143 35.1256313,211.874369 C40.3977093,217.146447 50.2117664,215.880117 57.0459415,209.045942 C63.8501928,202.24169 65.1352505,192.483595 59.943245,187.195144 C68.9598584,182.890019 79.0198065,179.664834 89.9689883,178.013515 Z" id="Combined-Shape" fill="#cac1ba" fill-rule="nonzero"/><g id="Group" transform="translate(80.000000, 240.000000)"><path d="M0,0 L140,0 L140,21.0281566 C140,31.5269445 135.656521,41.5579391 128,48.7414089 C120.29076,55.9743408 110.116417,60 99.5453388,60 L40.4546612,60 C29.8835833,60 19.7092402,55.9743408 12,48.7414089 C4.34347921,41.5579391 8.39115806e-15,31.5269445 0,21.0281566 L0,0 L0,0 Z" id="Rectangle" fill="#f3eae2"/><path d="M106,44 C108.209139,44 110,45.790861 110,48 C110,50.1421954 108.316032,51.8910789 106.19964,51.9951047 L106,52 L93,52 C90.790861,52 89,50.209139 89,48 C89,45.8578046 90.6839685,44.1089211 92.8003597,44.0048953 L93,44 L106,44 Z M99,30 C101.209139,30 103,31.790861 103,34 C103,36.1421954 101.316032,37.8910789 99.1996403,37.9951047 L99,38 L86,38 C83.790861,38 82,36.209139 82,34 C82,31.8578046 83.6839685,30.1089211 85.8003597,30.0048953 L86,30 L99,30 Z M122,24 C124.209139,24 126,25.790861 126,28 C126,30.1421954 124.316032,31.8910789 122.19964,31.9951047 L122,32 L113,32 C110.790861,32 109,30.209139 109,28 C109,25.8578046 110.683968,24.1089211 112.80036,24.0048953 L113,24 L122,24 Z M118,10 C120.209139,10 122,11.790861 122,14 C122,16.1421954 120.316032,17.8910789 118.19964,17.9951047 L118,18 L99,18 C96.790861,18 95,16.209139 95,14 C95,11.8578046 96.6839685,10.1089211 98.8003597,10.0048953 L99,10 L118,10 Z" id="Combined-Shape" fill="#d0c7c0" fill-rule="nonzero"/></g></g></g><g transform="translate(1124.000000, 600.000000) scale(-1, 1) translate(-1124.000000, -600.000000) translate(584.000000, 0.000000) scale(1 1)" id="Master/Character/Bust"><defs><path d="M256.962975,311.339607 C443.935975,235.342607 398.479975,-0.581393341 230.904975,0.811606659 C63.3309753,2.20460666 24.2099753,38.5126067 3.46897532,128.568607 C-19.2350247,227.153607 69.9889753,387.335607 256.962975,311.339607" id="mastercharacterbust-path-1"/><path d="M307.297875,52.9030067 C306.185875,-19.4509933 7.35887532,-14.0019933 0.920875319,51.5470067 C-5.51612468,117.096007 48.4358753,124.844007 112.598875,120.904007 C167.077875,117.559007 308.410875,125.257007 307.297875,52.9030067" id="mastercharacterbust-path-3"/><path d="M32.8849924,134.864863 C10.3597877,118.803956 -3.66684564,90.080418 1.58359877,62.9978629 C5.91327787,40.6678253 22.5078748,21.9180097 42.6548214,11.1980716 C63.0296457,0.357218868 87.4958607,-3.02378214 109.830203,2.86072575 C132.163389,8.74523364 152.01768,24.0702886 162.43297,44.5992753 C172.84826,65.1282621 173.335248,90.5963201 162.84477,111.087305 C145.226458,145.498433 101.451933,157.838626 65.8185467,149.473643 C54.047557,146.709882 42.7357932,141.88827 32.8849924,134.864863" id="mastercharacterbust-path-5"/><path d="M9.41544408,1.5633 C-4.60206802,-2.25965784 -1.58455592,17.5633 9.41544408,20.5633 C20.4154441,23.5633 27.4154441,23.5633 37.4154441,20.5633 C51.1076895,16.4556264 49.8974986,-2.59738486 37.4154441,1.5633 C28.4154441,4.5633 20.4154441,4.5633 9.41544408,1.5633 Z" id="mastercharacterbust-path-7"/></defs><g id="Master/Character/Bust" stroke="none" stroke-width="1" fill="none" fill-rule="evenodd"><g id="Bodies" transform="translate(290.000000, 534.000000) scale(1 1)"><defs><path d="M257.462975,310.839607 C444.435975,234.842607 398.979975,-1.08139334 231.404975,0.311606659 C63.8309753,1.70460666 24.7099753,38.0126067 3.96897532,128.068607 C-18.7350247,226.653607 70.4889753,386.835607 257.462975,310.839607" id="bodiespurple-b-path-1"/><path d="M307.797875,52.4030067 C306.685875,-19.9509933 7.85887532,-14.5019933 1.42087532,51.0470067 C-5.01612468,116.596007 48.9358753,124.344007 113.098875,120.404007 C167.577875,117.059007 308.910875,124.757007 307.797875,52.4030067" id="bodiespurple-b-path-3"/></defs><g id="Bodies/Purple B" stroke="none" stroke-width="1" fill="none" fill-rule="evenodd"><g id="Patterns" transform="translate(60.500000, 143.500000)"><mask id="bodiespurple-b-mask-2" fill="#ffffff"><use xlink:href="#bodiespurple-b-path-1" fill="#ffffff"/></mask><use id="Mask" fill="#7c5274" xlink:href="#bodiespurple-b-path-1"/><g mask="url(#bodiespurple-b-mask-2)" id="Group"><g transform="translate(235.500000, 145.000000) rotate(90.000000) translate(-235.500000, -145.000000) translate(-53.000000, -151.000000)"><g transform="translate(0.000000, -0.000000)"><path d="M499.4958,58.9353304 C513.48575,166.191612 533.135001,237.461778 558.406348,272.708656 C596.641456,326.03657 572.316526,487.704294 515.123179,557.246022 L513.380017,559.324942 L512.619983,558.675058 C570.784051,490.652673 595.916976,326.742296 557.593652,273.291344 C532.452285,238.225753 512.908503,167.899387 498.926204,62.276177 L498.5042,59.0646696 L499.4958,58.9353304 Z" id="Path-4" fill="#ffffff" fill-rule="nonzero"/><path d="M486.499084,58.9697525 C491.830206,146.933259 505.157318,226.895933 526.479399,298.857956 C547.637226,370.265622 534.764998,461.585059 487.890831,572.819148 L486.459994,576.195974 L485.540006,575.804026 C533.498519,463.234739 546.815725,371.013088 525.520601,299.142044 C504.389461,227.824447 491.104052,148.666688 485.663383,61.6689426 L485.500916,59.0302475 L486.499084,58.9697525 Z" id="Path-5" fill="#ffffff" fill-rule="nonzero"/><path d="M496.756124,291.692967 C484.996066,294.445101 478.032084,328.572544 477.483792,375.016574 C476.96191,419.223517 482.558764,459.833013 491.621588,470.32681 C500.697653,480.835937 508.228135,476.897622 514.212095,460.9667 L514.392954,460.480276 C519.189422,447.448745 522.946161,427.377009 526.496116,399.0622 C529.466675,375.368714 528.325046,347.175745 523.450124,325.738892 C518.024223,301.87918 508.726504,288.891612 496.756124,291.692967 Z M522.47502,325.960639 C527.323424,347.280882 528.46032,375.356963 525.503884,398.9378 L525.132554,401.863324 C521.74185,428.245463 518.138291,447.187457 513.620208,459.680671 L513.454503,460.134864 C507.662105,475.87224 500.90416,479.545109 492.378412,469.67319 C483.543446,459.44323 477.965004,418.96733 478.483722,375.028379 C479.024626,329.210199 485.954946,295.247719 496.983991,292.666659 C508.18059,290.046387 517.160271,302.589703 522.47502,325.960639 Z" id="Path-6" fill="#ffffff" fill-rule="nonzero"/><path d="M502.552083,324.48478 C496.295798,326.280242 492.66571,347.737591 492.313843,377.240676 L492.304185,378.137159 C492.030682,406.547698 494.96102,432.621289 499.732028,439.395812 C502.271021,443.001017 504.715857,444.08421 506.96251,442.58685 C508.906666,441.2911 510.583485,438.067684 512.095478,433.030093 L512.33704,432.205514 C514.735897,423.81828 516.636233,411.179902 518.435195,393.583965 C519.991127,378.36515 519.393217,360.257938 516.839495,346.486911 C513.976063,331.04576 509.056217,322.61819 502.552083,324.48478 Z M515.856258,346.669244 C518.392115,360.343936 518.986876,378.35575 517.440381,393.482258 L517.080348,396.923837 C515.33259,413.241576 513.466724,424.98284 511.137689,432.74262 C509.689099,437.568971 508.097433,440.628691 506.407915,441.75473 C504.718124,442.88095 502.816083,442.038243 500.549622,438.820015 C495.998183,432.357267 493.091502,406.834529 493.296958,378.991215 L493.304138,378.146786 C493.585808,348.88788 497.218684,327.055753 502.827934,325.445981 C508.450325,323.832437 513.097603,331.793106 515.856258,346.669244 Z" id="Path-6" fill="#ffffff" fill-rule="nonzero"/><path d="M478.547024,268.676308 L474.990372,286.47265 C467.005021,326.572998 463.578176,352.629646 463.501324,385.851545 L463.5,387 C463.5,412.331379 466.503823,435.631696 472.895768,468.119201 L478.45007,495.786804 C478.722913,497.171276 478.949457,498.334257 479.107123,499.16557 L479.607293,501.838073 C481.163555,510.272819 482.187684,517.033558 482.777039,523.095431 L482.83646,523.720068 C484.338291,539.865696 482.599761,551.06726 476.659477,558.960864 L476.394676,559.30697 L475.605324,558.69303 C481.568245,551.026417 483.343355,539.966547 481.840759,523.812686 L481.719452,522.565068 C481.124379,516.695135 480.121553,510.136456 478.623365,502.016674 L477.825434,497.798734 C476.379757,490.373313 472.536968,471.436391 472.434872,470.939116 L471.660916,467.01815 C465.515388,435.572716 462.579824,412.695399 462.501607,388.015292 L462.5,387 C462.5,353.532886 465.843478,327.495021 473.735679,287.656591 L477.132293,270.675129 C477.519153,268.726024 477.863394,266.975373 478.190317,265.292501 L478.907232,261.564455 C480.326196,254.10232 481.432785,247.73556 482.352362,241.611529 C484.43967,227.710852 485.5,215.315914 485.5,203 C485.5,165.572502 451.269802,118.253955 382.767315,61.1193665 L380.680991,59.3850108 L381.319009,58.6149892 C451.42521,116.702984 486.5,164.805554 486.5,203 C486.5,215.369691 485.435519,227.813162 483.341275,241.760023 L483.085177,243.440649 C482.171946,249.348219 481.07795,255.545843 479.694044,262.77644 L478.982105,266.458187 C478.841603,267.17801 478.6972,267.91416 478.547024,268.676308 Z" id="Path-7" fill="#ffffff" fill-rule="nonzero"/><path d="M407.6,59.3 L408.4,58.7 L410.063999,60.9090971 C437.086721,96.6268444 456.467187,114.5 468,114.5 C479.392272,114.5 482.727538,96.4604764 477.661125,60.1758303 L477.505025,59.0707107 L478.494975,58.9292893 C483.872571,96.5724657 480.492655,115.5 468,115.5 C456.012813,115.5 436.506879,97.5182223 409.276801,61.5261029 L407.6,59.3 Z" id="Path-8" fill="#ffffff" fill-rule="nonzero"/><path d="M433.474342,58.8418861 C439.431271,76.7126748 448.337706,87.9281855 460.181223,92.5339977 C465.901661,94.7586125 469.065442,93.2520504 470.007608,87.9131073 C470.957101,82.5326472 469.598013,73.384268 465.916263,60.5094545 L465.520131,59.1404494 L466.479869,58.8595506 C470.500204,72.5956957 472.009583,82.3228075 470.992392,88.0868927 C469.934558,94.081283 466.098339,95.9080542 459.818777,93.4660023 C447.810544,88.7961338 438.790979,77.5656217 432.748107,59.8183981 L432.525658,59.1581139 L433.474342,58.8418861 Z" id="Path-9" fill="#ffffff" fill-rule="nonzero"/><path d="M366.322068,58.6175444 C404.392146,90.6765579 430.446294,128.421669 444.475785,171.846285 C449.37192,187.000988 450.644021,205.501881 448.980199,228.966233 L448.821014,231.12038 C447.621295,246.8643 446.023449,258.654129 441.036212,290.087011 L437.995845,309.190964 C435.658255,324.036217 434.185952,334.168065 432.873924,344.76154 L432.726039,345.963051 C427.987594,384.701796 427.753701,415.040935 433.304138,442.008882 L433.489217,442.896721 C446.065099,502.466686 440.938938,541.138801 417.998771,558.870459 L417.298162,559.401372 L416.701838,558.598628 C439.601781,541.587242 445.033261,503.699144 432.884314,444.891725 L432.510783,443.103279 C426.869058,416.379319 426.925398,386.438168 431.426774,348.390231 L431.881496,344.638708 C433.219835,333.832742 434.724247,323.509939 437.140909,308.192282 L440.378313,287.84936 C445.210781,257.312527 446.723361,245.876869 447.904071,229.978671 C449.676318,206.115469 448.44911,187.397438 443.524215,172.153715 C429.693411,129.344085 404.125573,92.0757719 366.812235,60.3423794 L365.677932,59.3824556 L366.322068,58.6175444 Z" id="Path-10" fill="#ffffff" fill-rule="nonzero"/><path d="M346.50077,58.972265 L347.49923,59.027735 C346.17748,82.8192347 352.514008,101.625748 368.187415,128.391078 L369.659418,130.883033 C370.669625,132.580529 371.740829,134.358785 373.025578,136.474692 L378.309548,145.151299 L379.899651,147.782094 C390.972909,166.18769 397.108429,178.28105 401.977587,192.790927 C408.450346,212.079467 410.836645,232.193915 408.610512,254.931441 L408.497309,256.051803 C402.638647,312.294958 406.168408,367.978283 416.454822,433.634873 L417.356985,439.278397 C419.634797,453.234151 424.663539,482.584097 425.494058,487.923146 C430.142962,517.808954 420.310358,541.488331 396.027733,558.883881 L395.287473,559.409096 L394.712527,558.590904 C418.977985,541.539501 428.943548,518.358106 424.640699,488.969323 L424.410499,487.472809 C423.239634,480.148988 417.557802,447.01189 415.780889,435.783842 C405.345947,369.846985 401.648205,313.989214 407.327712,257.655438 L407.502691,255.948197 C409.904174,232.893956 407.563401,212.579677 401.029543,193.109067 C396.037132,178.231903 389.696958,165.892888 377.990549,146.554116 L371.544594,135.961162 C370.325383,133.948345 369.294228,132.230237 368.298381,130.549595 L367.321633,128.891527 C351.720344,102.24831 345.297482,83.385723 346.462326,59.7061719 L346.50077,58.972265 Z" id="Path-11" fill="#ffffff" fill-rule="nonzero"/><path d="M368.055365,435.768798 C361.967812,441.765492 357.499168,454.257575 355.504129,469.685879 C351.156345,503.308735 359.228457,534.5 376,534.5 C394.245101,534.5 408.674545,524.082645 413.480486,507.388322 C418.713118,489.211813 412.148079,466.134709 393.390434,442.687652 C383.867177,430.783581 375.122534,428.807109 368.055365,435.768798 Z M392.609566,443.312348 C411.17968,466.52499 417.652982,489.279629 412.519514,507.111678 C407.839194,523.369631 393.807264,533.5 376,533.5 C360.144031,533.5 352.219994,502.880907 356.495871,469.814121 L356.68154,468.438044 C358.732916,453.847917 363.044353,442.108718 368.757135,436.481202 C375.339332,429.997247 383.418297,431.823262 392.609566,443.312348 Z" id="Path-12" fill="#ffffff" fill-rule="nonzero"/><path d="M374.03368,453.202069 C370.128001,457.010542 367.275014,464.905394 366.0021,474.649703 C363.225501,495.904901 368.383942,515.635923 379.209001,515.635923 C390.883402,515.635923 400.126676,509.030222 403.20467,498.446382 C406.54932,486.945628 402.359317,472.366093 390.402326,457.57102 C384.289194,450.00689 378.612828,448.736888 374.03368,453.202069 Z M389.624568,458.199584 C401.391446,472.75942 405.488034,487.013905 402.244451,498.167132 C399.293398,508.314482 390.447885,514.635923 379.209001,514.635923 C369.297459,514.635923 364.289458,495.480336 366.993675,474.779234 C368.240096,465.237733 371.024268,457.533307 374.731821,453.918029 C378.827605,449.924182 383.843577,451.046431 389.624568,458.199584 Z" id="Path-12" fill="#ffffff" fill-rule="nonzero"/><path d="M380.613118,471.690093 C379.113256,473.178742 378.041447,476.197643 377.564461,479.91423 C376.519057,488.059825 378.464989,495.635923 382.743435,495.635923 C387.184087,495.635923 390.714884,493.067583 391.887824,488.962348 C393.150332,484.543627 391.578601,478.97697 387.115599,473.356029 C384.75865,470.387561 382.454205,469.862769 380.613118,471.690093 Z M386.332442,473.977852 C394.67409,484.483769 391.773437,494.635923 382.743435,494.635923 C379.38208,494.635923 377.582481,487.629543 378.556326,480.041525 C379.007516,476.525934 380.012554,473.695105 381.317567,472.399848 C382.672507,471.055036 384.307346,471.427338 386.332442,473.977852 Z" id="Path-12" fill="#ffffff" fill-rule="nonzero"/><path d="M330.500548,58.9765882 L331.499452,59.0234118 L331.364798,62.0052707 C329.430589,106.544825 331.344173,142.628262 336.61031,172.779645 C340.839845,196.995946 346.842047,216.130171 355.669572,236.447662 L356.52572,238.396192 C359.272303,244.543042 367.674525,262.476243 370.138076,268.10696 L370.360832,268.620277 C379.373512,289.59543 382.890427,306.655697 381.499117,330.029709 C379.520932,363.263211 372.737086,386.490565 359.663445,413.469643 L359.123321,414.578052 C357.942116,416.96855 349.95966,432.789889 347.644231,437.72696 L347.552299,437.923664 C339.974416,454.19848 336.5,467.167474 336.5,483 C336.5,517.165536 347.863664,542.182577 370.590591,558.107835 L371.282764,558.587636 L370.717236,559.412364 C347.238941,543.312962 335.5,517.822691 335.5,483 C335.5,467.295012 338.884559,454.375884 346.233401,438.392701 L346.833986,437.100145 C349.340763,431.787044 357.501883,415.620456 358.306277,413.973461 C371.625926,386.701479 378.50825,363.44654 380.500883,329.970291 C381.882254,306.763259 378.39671,289.855164 369.442057,269.01506 L368.959669,267.912393 C366.079616,261.412038 357.451754,243.005242 355.247135,237.979375 C346.118573,217.169013 339.947769,197.700536 335.625222,172.951697 C330.287322,142.389431 328.386392,105.766634 330.431691,60.4729319 L330.500548,58.9765882 Z" id="Path-13" fill="#ffffff" fill-rule="nonzero"/><path d="M350.776393,141.552786 C344.70377,144.589098 346.772454,171.755215 354.39155,200.627577 C362.802278,232.499809 374.344414,253.296451 385.126211,250.483809 C395.696031,247.726464 398.914602,237.748892 396.493466,222.919434 C394.884744,213.066011 390.775993,201.598398 386.756209,193.400472 L386.385895,192.647432 C385.566884,190.889939 378.19147,174.365836 375.010145,167.937967 L374.252298,166.419704 C370.606157,159.178453 367.201749,153.346596 363.964881,149.037225 C359.005225,142.434238 354.595099,139.643434 350.776393,141.552786 Z M363.165313,149.6378 C366.470795,154.03852 369.971673,160.079599 373.736538,167.622272 L374.344389,168.84988 C377.664954,175.632753 384.843642,191.721949 385.515968,193.147075 L385.552786,193.223607 C389.627845,201.373724 393.875068,213.087839 395.506534,223.080566 C397.855045,237.4652 394.803204,246.925909 384.873789,249.516191 C375.071631,252.073276 363.829445,232.01927 355.606696,201.306367 L355.35845,200.372423 C347.912654,172.156775 345.854707,145.131663 351.223607,142.447214 C354.441927,140.838054 358.470493,143.3874 363.165313,149.6378 Z" id="Path-14" fill="#ffffff" fill-rule="nonzero"/><path d="M363.747712,176.691285 C360.433024,178.358055 361.420212,192.32302 365.297279,207.509109 L365.543345,208.45973 C370.042241,225.605143 376.201811,236.76659 382.127015,235.212093 C387.881733,233.702324 389.626758,228.261981 388.326194,220.25072 C387.479639,215.036081 385.337001,208.986768 383.22193,204.60852 L382.94399,204.038677 C382.503142,203.085841 378.601378,194.295045 376.91423,190.866772 C374.822727,186.616855 372.88027,183.221712 371.035318,180.751483 C368.343253,177.147046 365.914835,175.60156 363.747712,176.691285 Z M370.234118,181.34988 C371.953044,183.651371 373.776419,186.806421 375.736108,190.740955 L376.310113,191.911368 C378.177025,195.792445 381.892142,204.172913 382.082643,204.556083 C384.233826,208.88292 386.478317,215.108578 387.339117,220.410964 C388.56756,227.977975 386.987827,232.903001 381.87325,234.244827 C376.831738,235.567484 370.842389,224.714485 366.510601,208.205925 L366.15254,206.811646 C362.538519,192.427512 361.59791,178.891608 364.196957,177.584693 C365.761072,176.798188 367.807095,178.100311 370.234118,181.34988 Z" id="Path-14" fill="#ffffff" fill-rule="nonzero"/><path d="M316.522706,58.8510356 L317.477294,59.1489644 C306.377944,94.7121866 302.101278,125.083946 303.308942,153.705504 L303.382409,155.326422 C304.400127,176.315056 307.874601,194.16344 315.352865,221.607565 L316.724991,226.592874 L319.458196,236.408395 C327.990632,267.16597 331.669416,284.010627 333.639174,305.990372 L333.702803,306.708948 C336.288952,336.268236 334.02528,367.486866 325.810322,403.698825 L325.487245,405.112214 C300.467986,513.74847 321.971437,568.731919 389.931156,570.46384 L392.004762,570.500023 L391.995238,571.499977 C321.589403,570.829446 299.118067,515.154194 324.512755,404.887786 C332.859616,368.644836 335.255833,337.442854 332.804563,307.944536 L332.706609,306.796105 C330.843028,285.495661 327.415427,269.168752 319.577704,240.600987 L315.269684,225.083716 L314.386963,221.866506 C306.699482,193.654128 303.229238,175.537535 302.309831,153.74766 C301.111602,125.34971 305.288532,95.2468747 316.128014,60.1227739 L316.522706,58.8510356 Z" id="Path-15" fill="#ffffff" fill-rule="nonzero"/><path d="M284.687652,37.6095656 L285.312348,38.3904344 C253.245875,64.0436126 240.989032,91.0209924 243.92131,122.859609 C245.162367,136.334985 249.055269,150.683307 255.691792,167.683662 L256.285966,169.194686 C258.690602,175.266246 261.438122,181.687167 264.802583,189.17053 L266.75979,193.492344 C267.435524,194.974721 268.142521,196.516478 268.914619,198.192157 L276.794207,215.194763 L279.006026,220.00775 C296.326027,257.914235 304.716713,281.725776 308.495246,308.931216 C318.408308,380.305261 304.772059,462.777215 267.597713,556.347401 L266.464013,559.186259 L265.535987,558.813741 C303.505824,464.222219 317.49156,380.973789 307.504754,309.068784 C303.625268,281.136485 294.849921,256.763171 276.447041,216.829113 L268.801633,200.334127 C267.253234,196.982696 265.977317,194.197637 264.74567,191.476235 L263.472037,188.648149 C260.014507,180.930622 257.214041,174.333014 254.760256,168.047311 C248.0925,150.966947 244.176375,136.533031 242.925524,122.951319 C239.991181,91.0902761 252.118941,64.0138122 283.723958,38.3857341 L284.687652,37.6095656 Z" id="Path-16" fill="#ffffff" fill-rule="nonzero"/><path d="M243.572901,46.7400265 L244.427099,47.2599735 C239.240071,55.7815196 235.404061,63.3616384 231.672865,73.5931778 C226.564965,87.5998565 222.857445,103.972482 220.872417,123.425757 C215.801762,173.118174 222.362484,238.297417 243.829089,322.323132 L244.484159,324.875138 C276.859339,450.411553 272.928937,539.040702 232.622002,590.757696 L231.389446,592.31358 L230.610554,591.68642 C271.820836,540.505909 276.146972,451.653735 243.515841,325.124862 C221.500194,239.758066 214.742668,173.646413 219.877583,123.324243 C221.870914,103.789601 225.596774,87.3359826 230.733385,73.2505722 C234.368653,63.2820868 238.105094,55.8088785 243.072061,47.5669071 L243.572901,46.7400265 Z" id="Path-17" fill="#ffffff" fill-rule="nonzero"/><path d="M185.369439,358.050696 C171.708995,374.080809 162.5,400.08064 162.5,427 C162.5,484.668581 198.495092,534.98825 225.295008,515.403696 C237.282133,506.643874 240.963543,477.981467 237.498065,438.706053 C234.594262,405.796291 226.753902,369.911566 219.450276,354.782625 C212.584805,340.561293 198.530852,342.606181 185.369439,358.050696 Z M218.549724,355.217375 C225.791054,370.217271 233.607825,405.994032 236.501935,438.793947 C239.934963,477.701596 236.282899,506.135526 224.704992,514.596304 C198.881752,533.467134 163.5,484.004889 163.5,427 C163.5,400.314097 172.627268,374.545005 186.130561,358.699304 C198.89231,343.723783 212.075099,341.805652 218.549724,355.217375 Z" id="Path-18" fill="#ffffff" fill-rule="nonzero"/><path d="M197.68272,382.63442 C190.766981,393.377836 186.110274,410.782647 186.110274,428.799648 C186.110274,447.30708 190.290402,465.531958 196.905484,477.774222 L197.309872,478.509509 C203.876119,490.238268 211.811705,494.26779 218.279153,488.011091 C224.386971,482.102302 226.246374,462.937519 224.492569,436.624487 L224.392234,435.1702 C222.851187,413.560517 218.982281,390.381877 215.370157,380.476645 C211.821338,370.745009 204.418218,372.171003 197.68272,382.63442 Z M214.430675,380.819244 C218.045057,390.730668 221.946424,414.237566 223.445701,435.967344 L223.494783,436.690991 C225.225973,462.664733 223.380643,481.684476 217.583853,487.292371 C211.614231,493.067466 204.1615,489.099084 197.785261,477.298836 C191.253013,465.209869 187.110274,447.148002 187.110274,428.799648 C187.110274,410.966861 191.7167,393.749979 198.523569,383.175691 L198.912948,382.581577 C205.0772,373.346381 211.177029,372.270902 214.332026,380.554543 L214.430675,380.819244 Z" id="Path-18" fill="#ffffff" fill-rule="nonzero"/><path d="M209.182784,403.997563 C207.905664,404.319907 206.602495,405.846145 205.395718,408.302644 C202.831926,413.521462 201.110274,421.953282 201.110274,430.679117 C201.110274,439.637432 202.654674,448.460515 205.10307,454.397881 C206.289285,457.274455 207.629341,459.312811 209.019041,460.282439 C210.596822,461.383294 212.209962,461.088988 213.542232,459.400142 C215.846476,456.479177 216.532113,447.219196 215.882461,434.447278 L215.787709,432.730031 C215.184924,422.582559 213.806927,411.94288 212.514652,407.299412 C211.824388,404.81912 210.669393,403.622344 209.182784,403.997563 Z M211.551264,407.567522 C215.038734,420.098879 216.748924,453.720594 212.757116,458.780793 C211.744023,460.065037 210.722245,460.251453 209.59125,459.462331 C208.392235,458.625749 207.147338,456.732139 206.027551,454.016652 C203.632194,448.207907 202.110274,439.513251 202.110274,430.679117 C202.110274,422.098158 203.801355,413.816058 206.293261,408.74357 C207.380655,406.530087 208.519461,405.196346 209.427508,404.967156 C210.236145,404.763056 210.987427,405.541515 211.551264,407.567522 Z" id="Path-18" fill="#ffffff" fill-rule="nonzero"/><path d="M224.730805,37.5786519 L225.269195,38.4213481 C212.327733,46.6895041 205.09542,62.7334461 202.039843,87.0246202 L201.947608,87.7708042 C199.844716,105.086343 199.743445,121.012505 200.998728,155.756022 L201.748097,175.512415 C202.262554,189.523043 202.5,199.321081 202.5,209 C202.5,232.707763 198.461074,249.925215 189.365001,269.092109 L188.966329,269.926706 C184.989388,278.198745 167.603607,309.252063 165.356172,313.496067 C154.269975,334.430985 145.121757,355.126464 136.307617,380.71505 C135.354017,383.483476 134.409991,386.296153 133.475248,389.155369 C111.103082,457.587877 133.020083,519.15919 199.293713,573.953807 L201.315583,575.612176 L200.684417,576.387824 C132.532631,520.930978 109.789567,458.387552 132.524752,388.844631 C133.461125,385.980432 134.406822,383.162775 135.362136,380.389374 C144.017311,355.262282 152.996345,334.838598 163.808184,314.286569 L164.715892,312.573024 C167.762934,306.918667 184.223017,277.484898 188.065077,269.493412 C197.378425,250.121649 201.5,232.897485 201.5,209 L201.49709,207.146807 C201.467295,197.656351 201.207858,187.797702 200.6816,173.737663 L200.082885,158.077545 C198.7528,122.068738 198.796797,105.759774 200.886773,88.2166074 L200.954902,87.6502447 C203.957506,62.9263368 211.202447,46.4621672 224.327189,37.8401422 L224.730805,37.5786519 Z" id="Path-19" fill="#ffffff" fill-rule="nonzero"/><path d="M181.5,28 C181.5,67.5311443 176.495607,105.502964 166.875079,144.885229 L166.197009,147.636489 C158.997226,176.591855 150.405621,203.010919 135.655802,243.789801 L125.374763,272.086634 C124.299521,275.059803 123.325098,277.766816 122.388684,280.383486 L121.533268,282.778335 C116.841138,295.939798 113.042031,307.04757 109.648577,317.654129 L109.321428,318.679058 C100.743727,345.61553 94.9231401,369.081901 91.4945316,392.073746 C80.3013109,467.134168 103.63889,526.182862 161.530041,569.294681 L163.294895,570.596221 L162.705105,571.403779 C103.219454,527.959202 79.1450853,468.107646 90.5054684,391.926254 C93.8767117,369.319093 99.5523658,346.263658 107.875898,319.928557 L108.368574,318.375629 C111.522616,308.471021 115.017578,298.173233 119.252762,286.210101 L120.591336,282.442532 C121.58142,279.665337 122.593125,276.846245 123.704923,273.765594 L134.715034,243.450746 C149.919537,201.414835 158.572725,174.65753 165.903645,144.647922 C175.348584,105.984435 180.335024,68.6898601 180.495975,29.9387808 L180.5,28 L181.5,28 Z" id="Path-20" fill="#ffffff" fill-rule="nonzero"/><path d="M59,19.5 C36.5982685,19.5 18.5,43.2539774 18.5,72.5 C18.5,101.746023 36.5982685,125.5 59,125.5 C81.4017315,125.5 99.5,101.746023 99.5,72.5 C99.5,43.2539774 81.4017315,19.5 59,19.5 Z M59,20.5 C80.7810485,20.5 98.5,43.7561239 98.5,72.5 C98.5,101.243876 80.7810485,124.5 59,124.5 C37.2189515,124.5 19.5,101.243876 19.5,72.5 C19.5,43.7561239 37.2189515,20.5 59,20.5 Z" id="Oval" fill="#ffffff" fill-rule="nonzero"/><path d="M59,-0.5 C26.1137215,-0.5 -0.5,32.2033019 -0.5,72.5 C-0.5,112.796698 26.1137215,145.5 59,145.5 C91.8862785,145.5 118.5,112.796698 118.5,72.5 C118.5,32.2033019 91.8862785,-0.5 59,-0.5 Z M59,0.5 C91.283322,0.5 117.5,32.7154094 117.5,72.5 C117.5,112.284591 91.283322,144.5 59,144.5 C26.716678,144.5 0.5,112.284591 0.5,72.5 C0.5,32.7154094 26.716678,0.5 59,0.5 Z" id="Oval" fill="#ffffff" fill-rule="nonzero"/><path d="M59,31.5 C46.4912649,31.5 36.5,49.8930105 36.5,72.5 C36.5,95.1069895 46.4912649,113.5 59,113.5 C71.5087351,113.5 81.5,95.1069895 81.5,72.5 C81.5,49.8930105 71.5087351,31.5 59,31.5 Z M59,32.5 C70.7917939,32.5 80.5,50.3719248 80.5,72.5 C80.5,94.6280752 70.7917939,112.5 59,112.5 C47.2082061,112.5 37.5,94.6280752 37.5,72.5 C37.5,50.3719248 47.2082061,32.5 59,32.5 Z" id="Oval" fill="#ffffff" fill-rule="nonzero"/><path d="M152.500017,46.9959351 L153.499983,47.0040649 C152.839022,128.302272 126.000219,199.795179 72.9913797,261.462686 L71.3770408,263.32839 C32.1457609,308.371712 17.8574519,371.092693 30.9891669,433.146483 C44.2161545,495.650483 83.6426576,550.427277 141.480875,582.593129 L143.239176,583.560916 L142.760824,584.439084 C83.7025758,552.269144 43.4310361,496.770554 30.0108331,433.353517 C16.8162665,371.002722 31.1777425,307.960562 70.6229592,262.67161 C124.005433,201.380621 151.285864,130.313236 152.472058,49.4493544 L152.500017,46.9959351 Z" id="Path-21" fill="#ffffff" fill-rule="nonzero"/><path d="M135.498299,46.9587873 C142.773853,134.926859 117.930219,192.851958 60.949669,220.620065 L59.2131489,221.452291 L58.7868511,220.547709 C115.997068,193.586572 141.311181,136.670779 134.711461,49.6863095 L134.501701,47.0412127 L135.498299,46.9587873 Z" id="Path-22" fill="#ffffff" fill-rule="nonzero"/></g></g></g></g><g id="Patterns" transform="translate(97.000000, 26.000000)"><mask id="bodiespurple-b-mask-4" fill="#ffffff"><use xlink:href="#bodiespurple-b-path-3" fill="#ffffff"/></mask><use id="Mask" fill="#af74a5" xlink:href="#bodiespurple-b-path-3"/><g mask="url(#bodiespurple-b-mask-4)" id="Group"><g transform="translate(-49.000000, -149.000000)"><g><path d="M344.589255,38.6689189 C345.025997,75.3716216 352.013865,106.831081 365.55286,133.047297" id="Path-3" stroke="#ffffff"/><path d="M327.397017,38.6042777 C336.558551,108.874093 349.425033,155.563203 365.959269,178.634418 C391.058345,213.656667 375.110468,319.698895 337.596254,365.332276 L336.452879,366.69648 L335.692702,366.046764 C373.749438,321.519844 390.201258,214.177414 365.14645,179.216934 C348.654894,156.205274 335.845431,110.091389 326.681974,40.8391939 L326.405409,38.7335601 L327.397017,38.6042777 Z" id="Path-4" fill="#ffffff" fill-rule="nonzero"/><path d="M318.883834,38.6386849 C322.375558,96.277882 331.104178,148.673004 345.068671,195.82423 C358.942445,242.669143 350.504378,302.558508 319.782559,375.495216 L318.844774,377.709413 L317.924723,377.317614 C349.328676,303.572618 358.047398,243.168487 344.109838,196.108202 C330.293431,149.456991 321.595784,97.6902773 318.015911,40.8082343 L317.885664,38.699153 L318.883834,38.6386849 Z" id="Path-5" fill="#ffffff" fill-rule="nonzero"/><path d="M325.391879,191.009394 C317.561673,192.842668 312.993708,215.238276 312.633241,245.785859 L312.617496,247.52404 C312.438518,275.863133 316.080068,301.582594 321.936941,308.367267 C328.053596,315.452874 333.17011,312.670862 337.147187,301.860708 C340.295347,293.303643 342.758171,280.139239 345.085374,261.56893 C347.033854,246.020706 346.285145,227.522768 343.08696,213.452872 C339.513226,197.730805 333.367375,189.142103 325.391879,191.009394 Z M342.111834,213.674524 C345.283524,227.627859 346.027504,246.008961 344.093135,261.444584 L343.761018,264.050442 C341.577049,280.894128 339.252938,293.044523 336.35646,301.108897 L336.208686,301.515432 C332.451998,311.726544 328.168483,314.055628 322.693908,307.713814 C316.94524,301.054487 313.293898,274.549339 313.633172,245.797658 L313.659361,244.011696 C314.168652,214.995081 318.662604,193.611951 325.619843,191.983063 C332.821329,190.296991 338.649233,198.441368 342.111834,213.674524 Z" id="Path-6" fill="#ffffff" fill-rule="nonzero"/><path d="M329.180602,212.503483 C324.960811,213.715042 322.58031,227.785703 322.348627,247.240308 L322.333647,249.020441 C322.24502,267.215472 324.151433,283.694379 327.239725,288.081512 C328.950041,290.511135 330.64536,291.262588 332.213276,290.217129 C333.530803,289.338625 334.643965,287.197795 335.645409,283.859735 C337.296233,278.357132 338.586117,269.902044 339.805007,257.97456 C340.825941,247.984182 340.433701,236.100202 338.757652,227.058018 L338.594331,226.205587 C336.678586,216.53009 333.469403,211.272111 329.180602,212.503483 Z M337.774401,227.240272 C339.4326,236.186162 339.821693,247.974786 338.810188,257.872897 L338.658226,259.338178 C337.490064,270.434542 336.246682,278.375523 334.687584,283.57238 C333.749513,286.699202 332.721449,288.676373 331.65851,289.385123 C330.647612,290.059172 329.495237,289.54838 328.057439,287.505888 C321.24032,277.821694 321.838549,215.651887 329.456567,213.464651 C332.987693,212.450817 335.985235,217.587823 337.774401,227.240272 Z" id="Path-6" fill="#ffffff" fill-rule="nonzero"/><path d="M310.360573,187.594115 L312.605673,176.360869 C312.860384,175.07071 313.088581,173.901498 313.310189,172.750269 L313.672238,170.852738 C314.552026,166.197979 315.245071,162.189102 315.824598,158.327949 C317.190827,149.225318 317.884749,141.10996 317.884749,133.047297 C317.884749,108.583381 295.485362,77.6058552 250.64451,40.1896547 L249.278827,39.0538597 L249.917014,38.2839782 C295.881048,76.3854828 318.884749,107.947513 318.884749,133.047297 C318.884749,141.163714 318.186679,149.327583 316.813521,158.476379 L316.574673,160.035202 C316.043301,163.434634 315.41934,166.993627 314.655049,171.037356 L313.681254,176.075175 L311.341333,187.789331 C306.051914,214.363287 303.817158,231.520273 303.817158,253.641892 C303.817158,269.792296 305.681165,284.684543 309.641977,305.099573 L313.850153,326.144807 L314.038569,327.123747 C315.234653,333.433031 316.00533,338.349649 316.434155,342.712134 L316.483978,343.233026 C317.467765,353.814082 316.334886,361.179546 312.447186,366.39118 L312.228365,366.678506 L311.43888,366.064737 C315.3125,361.082142 316.468975,353.873478 315.488273,343.325603 L315.386155,342.286895 C315.005756,338.612912 314.382408,334.519014 313.466605,329.512812 L312.917289,326.586846 C311.999963,321.849795 309.283323,308.461001 309.328128,308.68595 L308.878167,306.407885 C304.75657,285.358085 302.817158,270.162866 302.817158,253.641892 C302.817158,231.44172 305.059452,214.226856 310.360573,187.594115 Z" id="Path-7" fill="#ffffff" fill-rule="nonzero"/><path d="M240.093383,38.2865342 C265.057721,59.3185298 282.144773,84.0839103 291.345823,112.576077 C294.549098,122.495408 295.389697,134.587289 294.316919,149.903346 L294.092477,152.86845 C293.370129,161.853632 292.372987,169.34194 289.730154,186.153749 L286.98089,203.474437 C285.465864,213.129215 284.515977,219.728835 283.655474,226.766946 C280.566764,252.029708 280.401615,271.834784 283.984955,289.430793 L284.153005,290.24136 C292.403975,329.342369 289.037382,354.750546 273.941272,366.423411 L273.480224,366.77293 L272.883728,365.970313 C287.816851,354.872179 291.365889,330.102306 283.418889,291.618212 L283.174552,290.44783 C279.449126,272.793192 279.511623,253.00608 282.521842,227.812231 L282.786675,225.640947 C283.637552,218.791319 284.594911,212.204669 286.101786,202.626929 L288.840057,185.375908 C291.536826,168.19092 292.48102,160.89517 293.203185,151.414315 L293.255652,150.71652 C294.415171,135.096685 293.612562,122.849395 290.394212,112.883383 C281.35257,84.8848423 264.645515,60.506547 240.264617,39.742113 L239.449078,39.0513036 L240.093383,38.2865342 Z" id="Path-10" fill="#ffffff" fill-rule="nonzero"/><path d="M226.824859,38.6411963 L227.823321,38.6966416 C226.942035,54.5668783 231.272119,67.0467376 241.988935,85.1410576 L243.351581,87.4223482 C243.755186,88.0929863 244.186554,88.8059567 244.662814,89.5901189 L247.98283,95.0436209 L248.848246,96.4749585 C256.22006,108.713457 260.283554,116.700067 263.504108,126.301465 C267.733638,138.910911 269.304613,152.058534 267.876442,166.905411 L267.783273,167.835564 C263.956693,204.587156 266.246911,240.977585 272.944265,283.854376 L273.548881,287.649756 C275.022596,296.699312 278.368042,316.230808 278.91694,319.761018 C281.972441,339.412302 275.504198,354.996178 259.543616,366.435286 L259.057056,366.780657 L258.481939,365.962586 C274.325297,354.82444 280.82645,339.695248 278.016804,320.497649 L277.79027,319.047153 C276.880556,313.442389 273.34271,292.783699 272.212991,285.641984 L271.703421,282.379605 C265.273045,240.671725 263.056972,205.04253 266.645882,169.131299 L266.78865,167.732004 C268.359314,152.646898 266.828691,139.357534 262.556022,126.619477 L262.183793,125.528037 C258.985635,116.304926 254.884778,108.390075 247.562372,96.2796389 L243.255953,89.1987559 C242.456991,87.8791438 241.781214,86.752664 241.128524,85.6506578 C230.465999,67.6480023 226.050137,55.0929243 226.791492,39.292383 L226.824859,38.6411963 Z" id="Path-11" fill="#ffffff" fill-rule="nonzero"/><path d="M240.996631,285.482559 C236.974798,289.446135 234.035695,297.666061 232.724229,307.812596 C229.863552,329.945051 235.177177,350.486486 246.322357,350.486486 C258.350507,350.486486 267.871961,343.609389 271.042028,332.592657 C274.487049,320.620392 270.170427,305.44003 257.849775,290.032332 C251.553723,282.158751 245.710088,280.837377 240.996631,285.482559 Z M257.06877,290.656857 C269.202004,305.830178 273.426964,320.688188 270.081022,332.316127 C267.03652,342.896495 257.912568,349.486486 246.322357,349.486486 C236.092841,349.486486 230.927187,329.517079 233.715979,307.940782 C235.001372,297.99597 237.872891,289.96506 241.69856,286.194806 C245.926975,282.02764 251.104699,283.198437 257.06877,290.656857 Z" id="Path-12" fill="#ffffff" fill-rule="nonzero"/><path d="M244.913726,296.907806 C242.320942,299.437189 240.440073,304.644298 239.601612,311.065691 L239.497997,311.905978 C237.907903,325.607999 241.32039,338.122869 248.424614,338.122869 C256.147815,338.122869 262.271787,333.744419 264.31008,326.73251 C266.51859,319.135043 263.757594,309.523589 255.891691,299.786305 C251.829628,294.757835 247.996972,293.899952 244.913726,296.907806 Z M255.113796,300.414699 C262.7897,309.916781 265.457355,319.2033 263.349829,326.453374 C261.438417,333.028799 255.712196,337.122869 248.424614,337.122869 C242.153662,337.122869 238.900847,324.920167 240.540909,311.607247 L240.593194,311.195165 C241.405181,304.976535 243.217286,299.959792 245.612027,297.62361 C248.211838,295.087371 251.383868,295.797382 255.113796,300.414699 Z" id="Path-12" fill="#ffffff" fill-rule="nonzero"/><path d="M249.222912,309.026026 C248.206775,310.035018 247.49313,312.045996 247.176211,314.516476 C246.479024,319.951257 247.779011,325.01476 250.740067,325.01476 C257.443959,325.01476 259.589058,317.503654 253.739445,310.133046 C252.138156,308.115396 250.512899,307.745111 249.222912,309.026026 Z M252.956152,310.754699 C258.340765,317.539399 256.491464,324.01476 250.740067,324.01476 C248.696192,324.01476 247.542435,319.520829 248.168083,314.643715 C248.459223,312.374186 249.106148,310.55122 249.927519,309.735624 C250.73129,308.937505 251.686708,309.15518 252.956152,310.754699 Z" id="Path-12" fill="#ffffff" fill-rule="nonzero"/><path d="M216.342836,38.6455176 L217.34174,38.6923203 L217.222573,41.3705858 C216.007865,70.2173083 217.26848,93.6263913 220.687551,113.211106 C223.440025,128.977499 227.33899,141.452508 233.062701,154.671892 L233.484775,155.640551 C234.987237,159.06724 241.087466,172.077537 242.698629,175.783866 L242.786536,175.987236 C248.700841,189.757711 251.010212,200.965292 250.097038,216.31348 C248.805071,238.028218 244.38638,253.236422 235.882652,270.843334 L234.787253,273.062779 C233.150048,276.333287 229.227071,284.141356 227.921974,286.919764 L227.842272,287.090187 C222.887678,297.735791 220.617851,306.212188 220.617851,316.560811 C220.617851,338.8953 228.034887,355.235965 242.868507,365.639452 L243.329644,365.959316 L242.763944,366.783927 C227.333059,356.198021 219.617851,339.43751 219.617851,316.560811 C219.617851,306.293424 221.818277,297.837422 226.590409,287.416015 L227.102989,286.311968 C228.795681,282.735415 234.054647,272.312828 234.575986,271.244909 C243.292532,253.389806 247.794874,238.169875 249.098803,216.254088 C249.98532,201.353943 247.807299,190.428217 242.189369,177.136784 L241.867697,176.38187 C240.413168,172.99524 234.107663,159.551496 232.568941,156.042106 C226.583436,142.390867 222.536732,129.618079 219.70245,113.383084 C216.217593,93.4215408 214.967534,69.5210969 216.28135,39.9916478 L216.342836,38.6455176 Z" id="Path-13" fill="#ffffff" fill-rule="nonzero"/><path d="M229.720854,92.6203939 C225.621362,94.6710559 226.978422,112.50004 231.999638,131.536308 L232.334408,132.787369 C237.841902,153.075846 245.273669,166.18057 252.344635,164.335146 C259.379481,162.499149 261.516703,155.8708 259.918082,146.074875 C258.870118,139.653226 256.209959,132.195389 253.591406,126.818405 L253.285542,126.195835 C252.783766,125.121071 248.074009,114.563923 245.930183,110.197486 L245.828481,109.991105 C243.247215,104.773324 240.850351,100.605774 238.575944,97.5764116 C235.281132,93.1879386 232.326172,91.3171528 229.720854,92.6203939 Z M237.776246,98.1768146 C239.913323,101.023261 242.17865,104.925877 244.613596,109.794068 L245.138483,110.85474 C247.388142,115.468039 252.186848,126.237792 252.42623,126.71677 C255.088733,132.044156 257.865528,139.706157 258.931138,146.235936 C260.457174,155.587084 258.486569,161.698691 252.092107,163.367556 C245.757705,165.020748 238.338339,151.646546 232.966566,131.28126 L232.679899,130.17944 C228.066624,112.200603 226.840153,95.1795219 230.168227,93.5147412 C232.172954,92.5119301 234.746287,94.1411079 237.776246,98.1768146 Z" id="Path-14" fill="#ffffff" fill-rule="nonzero"/><path d="M238.218178,115.650531 C235.8807,116.826443 236.602614,126.364854 239.305259,136.66931 L239.536318,137.534241 C242.489781,148.38872 246.449312,155.357625 250.380055,154.32592 C254.260422,153.307439 255.432056,149.653082 254.567624,144.325938 C254.016129,140.9273 252.631924,136.997181 251.254669,134.121937 L250.99081,133.574746 C250.57357,132.658062 248.147092,127.196453 247.076042,125.019115 C245.701599,122.22501 244.424415,119.991673 243.208157,118.362483 C241.457203,116.017063 239.849029,114.953441 238.366059,115.582018 L238.218178,115.650531 Z M242.406828,118.960708 C243.505679,120.432629 244.673126,122.445976 245.926832,124.952619 L246.339054,125.789928 C247.493186,128.183157 249.797212,133.373232 250.119992,134.074112 L250.152721,134.143787 C251.554933,136.965421 253.019765,141.030317 253.580535,144.486112 C254.372887,149.369052 253.366431,152.508213 250.126184,153.358682 C246.975934,154.18553 243.08153,147.125523 240.272543,136.415612 L240.060127,135.589496 C237.703507,126.238084 237.077503,117.343779 238.667584,116.543859 C239.588167,116.080743 240.862569,116.892156 242.406828,118.960708 Z" id="Path-14" fill="#ffffff" fill-rule="nonzero"/><path d="M207.193398,38.5200152 L208.148024,38.8178227 C200.882444,62.1077351 198.08352,81.9938384 198.873816,100.732164 C199.475102,114.988951 201.752301,126.843447 206.810811,145.391159 L209.584188,155.391523 C215.056398,175.16486 217.442283,186.141076 218.727069,200.35533 L218.784717,201.003705 C220.502534,220.646867 218.957172,241.405829 213.398868,265.551356 C197.029352,336.661282 211.070167,372.581372 255.454651,373.712869 L256.808923,373.736509 L256.799396,374.736464 C210.998263,374.300068 196.065371,338.41654 211.934058,267.487126 L212.424356,265.327023 C217.959521,241.282011 219.497069,220.628015 217.788519,201.090823 L217.672307,199.80521 C216.360404,185.758947 213.920867,174.742387 208.369343,154.752631 L206.370922,147.566897 L205.589354,144.709995 C200.691885,126.633504 198.469513,114.877517 197.874704,100.774302 C197.092449,82.2266188 199.803125,62.5723373 206.838044,39.6679527 L207.193398,38.5200152 Z" id="Path-15" fill="#ffffff" fill-rule="nonzero"/><path d="M186.394673,24.5150391 L187.019538,25.2957717 C166.056432,42.0737509 158.052137,59.6991221 159.967655,80.507071 C160.779003,89.3206053 163.325297,98.7098403 167.667593,109.838193 L168.188289,111.159775 C169.775159,115.149528 171.591728,119.38163 173.817439,124.323128 L175.833744,128.753683 L181.487964,140.967619 C193.826879,167.684019 199.688466,183.856546 202.269947,202.451516 C208.768613,249.262819 199.830569,303.344347 175.467018,364.696429 L174.724007,366.557809 L173.795924,366.185435 C198.660065,304.215508 207.817391,249.683259 201.279446,202.589024 L201.099509,201.333197 C198.570068,184.216303 193.137545,168.903556 182.217621,144.95451 L174.706919,128.695653 C174.276075,127.755712 173.871992,126.86952 173.477579,125.999412 L172.537233,123.91397 C170.229255,118.766173 168.366075,114.37922 166.736002,110.201701 C162.362497,98.9933666 159.792998,89.5185671 158.971865,80.5987404 C157.04414,59.6581801 165.013949,41.8568929 185.762029,25.0248078 L186.394673,24.5150391 Z" id="Path-16" fill="#ffffff" fill-rule="nonzero"/><path d="M159.420336,30.5441653 L160.274638,31.0639428 L159.648889,32.1041744 C152.006056,44.9576186 147.126928,58.7627161 144.86787,80.9113763 C141.548241,113.458282 145.844276,156.157325 159.902657,211.209904 L160.331659,212.881947 C181.553156,295.206157 178.975994,353.344509 152.529259,387.292182 L151.720537,388.313495 L150.941509,387.686505 C177.626972,354.530071 180.669108,297.173032 159.997001,215.610565 L159.363315,213.131566 C144.935821,157.163222 140.50684,113.813323 143.873031,80.8099075 C146.147748,58.5077167 151.075628,44.5659643 158.788835,31.5939695 L159.420336,30.5441653 Z" id="Path-17" fill="#ffffff" fill-rule="nonzero"/><path d="M121.306542,234.556692 C112.330354,245.094681 106.283362,262.174832 106.283362,279.858108 C106.283362,317.768796 129.969937,350.896458 147.695441,337.937417 C155.618848,332.144647 158.03563,313.319859 155.759765,287.515194 L155.629576,286.08914 C153.629996,264.899 148.610009,242.171016 143.919985,232.451623 C139.35495,222.991254 129.997661,224.353373 121.306542,234.556692 Z M143.019357,232.886215 C147.70051,242.587223 152.75692,265.61142 154.70002,286.894286 L154.763632,287.603049 C157.007065,313.039986 154.619596,331.636446 147.105252,337.130151 C130.356661,349.374976 107.283362,317.105032 107.283362,279.858108 C107.283362,262.408205 113.248688,245.558724 122.067808,235.205132 C130.359281,225.470995 138.845126,224.23573 143.019357,232.886215 Z" id="Path-18" fill="#ffffff" fill-rule="nonzero"/><path d="M129.359397,250.687494 C124.81007,257.75791 121.750751,269.197463 121.750751,281.037607 C121.750751,293.194855 124.495638,305.167594 128.843517,313.217633 C133.241224,321.359928 138.684245,324.259489 143.117415,319.968863 C147.077982,316.135642 148.334516,304.039435 147.316559,287.354165 L147.239985,286.154605 C146.277705,271.710679 143.679939,255.96361 141.253747,249.307488 C138.867084,242.759812 133.836563,243.729227 129.359397,250.687494 Z M140.314216,249.649952 C142.665511,256.100598 145.207398,271.390722 146.197603,285.567589 L146.242197,286.22108 C147.372429,303.185978 146.165948,315.626689 142.421955,319.250298 C138.620083,322.929925 133.854594,320.391294 129.723383,312.742412 C125.45828,304.845631 122.750751,293.035841 122.750751,281.037607 C122.750751,269.381606 125.759829,258.129915 130.200355,251.228593 C134.302474,244.853213 138.285968,244.085567 140.314216,249.649952 Z" id="Path-18" fill="#ffffff" fill-rule="nonzero"/><path d="M136.996035,264.615141 C136.095706,264.842486 135.213668,265.875967 134.402519,267.527869 C132.710576,270.973502 131.577441,276.52553 131.577441,282.269422 C131.577441,288.16212 132.593064,293.966917 134.206165,297.880439 C134.994709,299.793516 135.888982,301.1544 136.832259,301.812841 C137.942978,302.588163 139.10185,302.37664 140.029673,301.199963 C142.87246,297.594707 141.742309,275.36644 139.387183,266.900097 C138.913198,265.196188 138.086952,264.339671 136.996035,264.615141 Z M138.423764,267.168096 L138.575026,267.738829 C140.742196,276.307651 141.754428,297.397566 139.244423,300.580785 C138.635769,301.352687 138.068473,301.456232 137.40464,300.992853 C136.652015,300.467494 135.852853,299.251347 135.130706,297.499356 C133.570603,293.714413 132.577441,288.03799 132.577441,282.269422 C132.577441,276.670347 133.680031,271.26798 135.30014,267.968636 C135.991931,266.559807 136.709663,265.718843 137.240863,265.584708 C137.653591,265.480489 138.076172,265.918553 138.423764,267.168096 Z" id="Path-18" fill="#ffffff" fill-rule="nonzero"/><path d="M147.131067,24.4841119 L147.669627,25.326699 C139.276047,30.6916599 134.561967,41.1034181 132.552905,56.8765435 L132.381722,58.2844328 C131.033576,69.8341823 131.043402,80.740585 131.961436,105.118992 L132.362471,115.639448 C132.674602,124.237674 132.823859,130.404421 132.832369,136.43208 L132.832756,136.97973 C132.832756,152.482507 130.201831,163.763989 124.281956,176.288859 L123.949686,176.985999 C121.469965,182.146125 111.049761,200.802201 108.766359,205.013494 L108.479358,205.547568 C101.220655,219.26086 95.2311225,232.816685 89.4599092,249.57875 C88.8354883,251.392334 88.2173329,253.234922 87.6052508,255.108009 C72.9723023,299.887619 87.3048712,340.170179 130.670319,376.04014 L131.99331,377.125758 L131.361976,377.901269 C86.6625919,341.511987 71.7370304,300.44835 86.6547145,254.797396 C87.2684243,252.919327 87.8882497,251.071762 88.5143831,249.253203 C94.1467994,232.894264 99.9888592,219.574603 107.007873,206.194923 L107.868684,204.571145 C110.129881,200.397668 120.578274,181.692933 123.048358,176.552862 C129.027993,164.109664 131.733668,153.025837 131.83008,137.828304 L131.83121,135.886133 C131.81624,130.591581 131.692223,125.133187 131.444089,117.957984 L130.822921,101.364927 C130.027294,79.064857 130.107532,68.7064056 131.47691,57.4256986 C133.442311,41.2350425 138.180637,30.4199106 146.770907,24.7187034 L147.131067,24.4841119 Z" id="Path-19" fill="#ffffff" fill-rule="nonzero"/><path d="M119.07539,18.3513514 C119.07539,44.2747412 115.795161,69.1752482 109.489506,94.9994 L108.933205,97.2525866 C104.449323,115.213651 99.1251431,131.759236 90.3052374,156.307331 L81.5339241,180.499442 C80.9163375,182.213853 80.3430378,183.813431 79.7804354,185.392241 L79.0308427,187.501912 C76.2019066,195.487811 73.8768237,202.33548 71.782184,208.916196 C66.165412,226.562372 62.3544095,241.933737 60.1097877,256.992633 C52.7861819,306.125818 68.0499294,344.763635 105.923731,372.980892 L107.078343,373.832771 L106.488382,374.640202 C67.4660972,346.128045 51.6690764,306.837346 59.1207149,256.845205 C61.3740669,241.727739 65.1974843,226.3063 70.8292907,208.61289 L71.6626854,206.01795 C73.6375123,199.922461 75.8339365,193.510943 78.4603121,186.119264 L80.5929571,180.160942 L87.476159,161.199643 L89.7280527,154.955329 C98.6834122,129.980723 103.986697,113.319862 108.518047,94.7621924 C114.671769,69.5602663 117.934882,45.2473834 118.070952,19.9993095 L118.07539,18.3513514 L119.07539,18.3513514 Z" id="Path-20" fill="#ffffff" fill-rule="nonzero"/><path d="M99.7322522,30.799991 L100.732219,30.8081171 C100.294507,84.670718 82.3444641,131.974889 46.8901117,172.699929 C-6.4925903,234.018569 14.6873533,337.285818 91.5734539,381.011041 L93.9203675,382.317718 L93.4418509,383.195796 C14.0957702,339.955446 -8.21584026,234.475034 46.1358848,172.043315 C81.0807206,131.903537 98.9374813,85.3647079 99.7139509,32.4067427 L99.7322522,30.799991 Z" id="Path-21" fill="#ffffff" fill-rule="nonzero"/><path d="M88.440208,30.8040541 C93.2443674,88.9166667 76.6481802,126.93018 38.6516464,144.844595" id="Path-22" stroke="#ffffff"/></g></g></g></g></g></g><g id="Heads" transform="translate(508.000000, 359.000000) scale(1 1)"><defs><path d="M32.8849924,134.864863 C10.3597877,118.803956 -3.66684564,90.080418 1.58359877,62.9978629 C5.91327787,40.6678253 22.5078748,21.9180097 42.6548214,11.1980716 C63.0296457,0.357218868 87.4958607,-3.02378214 109.830203,2.86072575 C132.163389,8.74523364 152.01768,24.0702886 162.43297,44.5992753 C172.84826,65.1282621 173.335248,90.5963201 162.84477,111.087305 C145.226458,145.498433 101.451933,157.838626 65.8185467,149.473643 C54.047557,146.709882 42.7357932,141.88827 32.8849924,134.864863" id="headsround-path-1"/></defs><g id="Heads/Round" stroke="none" stroke-width="1" fill="none" fill-rule="evenodd"><g id="Group" transform="translate(15.000000, 24.000000)"><mask id="headsround-mask-2" fill="#ffffff"><use xlink:href="#headsround-path-1" fill="#ffffff"/></mask><use id="Mask" fill="#cc86c0" xlink:href="#headsround-path-1"/><g mask="url(#headsround-mask-2)" fill="#ffffff" fill-rule="nonzero"><g transform="translate(131.000000, 66.000000) rotate(90.000000) translate(-131.000000, -66.000000) translate(-62.000000, -130.000000)"><path d="M321.998214,178.511194 L319.214064,192.394235 C313.754349,219.641593 311.447619,237.233536 311.447619,259.916 C311.447619,276.78733 313.444681,292.319498 317.692872,313.864851 L321.502027,332.728886 C321.709648,333.774097 321.88162,334.64998 321.998065,335.260143 L322.408575,337.446775 C323.457071,343.132331 324.138844,347.682483 324.522027,351.77641 C325.537252,362.623084 324.368262,370.172878 320.357587,375.513712 L320.131844,375.808159 L319.344346,375.191841 C323.344814,370.080258 324.538852,362.686876 323.526378,351.869601 L323.425114,350.844362 C323.012845,346.874308 322.321832,342.427375 321.292132,336.911238 L320.649035,333.568699 C319.548579,328.002847 317.124858,316.13729 317.167891,316.351906 L316.937455,315.197989 C312.522727,292.999379 310.447619,277.16216 310.447619,259.916 C310.447619,237.504642 312.691323,220.048568 317.983259,193.451262 L320.34826,181.697105 C320.695606,179.957806 320.992158,178.45351 321.278085,176.978018 L321.801371,174.242991 C322.639028,169.803424 323.308501,165.929239 323.87346,162.190142 C325.283713,152.856599 326,144.535308 326,136.268 C326,111.180794 302.878042,79.4163217 256.591869,41.0506008 L255.182168,39.8859827 L255.817832,39.1140173 C303.258094,78.1780661 327,110.536612 327,136.268 C327,144.589419 326.27951,152.959538 324.862237,162.339541 L324.629754,163.848449 C324.073585,167.390604 323.418989,171.099067 322.614118,175.324627 L321.998214,178.511194 Z" id="Path-7"/><path d="M246.321701,38.6172359 C271.977592,60.18021 289.53787,85.5706596 298.993761,114.782014 C302.224517,124.762539 303.116497,136.889169 302.106065,152.181097 L301.981059,153.959655 C301.201789,164.432085 300.209769,172.021498 297.123204,191.54514 L294.636821,207.153533 C293.07798,217.033957 292.090775,223.806524 291.2139,230.850678 L291.089333,231.859198 C287.913258,257.774454 287.744797,278.088774 291.433117,296.137863 L291.600846,296.944528 C300.08012,337.031453 296.62058,363.078797 281.110222,375.043396 L280.636522,375.401649 L280.040945,374.598351 C295.393978,363.215406 299.042212,337.814214 290.873643,298.351612 L290.622493,297.151472 C286.849337,279.313362 286.857088,259.351338 289.819347,234.052261 L290.096759,231.737552 C290.965714,224.647292 291.922722,217.993444 293.429552,208.392426 L296.645105,188.151825 C299.329886,171.018722 300.25176,163.723383 300.983816,153.885449 C302.175641,137.868772 301.35065,125.310013 298.042366,115.089986 C288.747757,86.3768692 271.572288,61.3767939 246.50747,40.0834012 L245.678299,39.3827641 L246.321701,38.6172359 Z" id="Path-10"/><path d="M232.104177,39.4724043 L233.102653,39.5275957 C232.226998,55.3691777 236.391224,67.916434 246.70093,85.6838479 L247.974911,87.854335 C248.392426,88.5587643 248.826885,89.2862855 249.30205,90.0771159 L253.679673,97.3095258 C261.765909,110.69722 266.106649,119.134137 269.519593,129.356048 C273.83566,142.282847 275.438767,155.761275 273.981358,170.981972 L273.886282,171.935545 C269.980065,209.625069 272.318901,246.943832 279.156948,290.916348 L279.655846,294.075732 C281.092763,302.997822 284.67455,323.996561 285.249523,327.711525 C288.367172,347.855012 281.767754,363.828294 265.481869,375.554376 L264.985392,375.908411 L264.408503,375.091589 C280.582105,363.668821 287.219443,348.151419 284.351117,328.46239 L284.008292,326.288778 C282.932237,319.70711 279.538739,299.780332 278.427651,292.723993 C271.465248,248.506885 268.98726,211.030777 272.747667,173.249413 L272.89161,171.832455 C274.494869,156.36326 272.932453,142.73528 268.571067,129.672747 C265.249899,119.725709 261.034009,111.466794 253.26714,98.5620043 L248.685959,90.9930183 C247.950568,89.7712784 247.315609,88.7069348 246.700728,87.663978 L245.832274,86.1793141 C235.578005,68.5060628 231.332515,55.8945089 232.070545,40.1310606 L232.104177,39.4724043 Z" id="Path-11"/><path d="M246.678276,292.219286 C242.573112,296.259807 239.57232,304.641517 238.233293,314.98803 C235.312681,337.555268 240.737574,358.5 252.109277,358.5 C264.387723,358.5 274.106905,351.489075 277.342953,340.257439 C280.860103,328.050156 276.452803,312.570745 263.872685,296.858708 C257.44662,288.832823 251.486451,287.486824 246.678276,292.219286 Z M263.092071,297.483721 C275.484446,312.961276 279.799874,328.118011 276.382042,339.980583 C273.271724,350.775837 263.950077,357.5 252.109277,357.5 C241.757542,357.5 236.482405,337.533118 239.141997,315.776207 L239.225022,315.116378 C240.537926,304.971719 243.470986,296.779195 247.379749,292.931981 C251.703082,288.676727 256.998007,289.872493 263.092071,297.483721 Z" id="Path-12"/><path d="M251.290319,304.274419 C248.688851,306.865045 246.801326,312.199242 245.959764,318.778395 L245.855744,319.639495 C244.259386,333.680789 247.683771,346.5 254.818298,346.5 C262.575731,346.5 268.724592,342.012342 270.769943,334.829844 C272.985707,327.04892 270.214869,317.202634 262.318568,307.224462 C258.240133,302.070742 254.387245,301.190398 251.290319,304.274419 Z M261.534404,307.845016 C269.245911,317.589673 271.926779,327.116245 269.808179,334.555964 C267.887052,341.302235 262.135394,345.5 254.818298,345.5 C248.455928,345.5 245.184487,332.720842 246.951683,318.905275 C247.767578,312.526775 249.58871,307.380206 251.995947,304.983 C254.606213,302.383612 257.787758,303.110561 261.534404,307.845016 Z" id="Path-12"/><path d="M254.917464,316.23923 C253.811971,317.26331 253.032743,319.311794 252.68695,321.826524 C251.92831,327.34363 253.347333,332.5 256.527319,332.5 C263.789165,332.5 266.128214,324.859206 259.751431,317.363364 C258.020208,315.328329 256.296319,314.961919 254.917464,316.23923 Z M258.989758,318.011326 C264.861934,324.914008 262.845788,331.5 256.527319,331.5 C254.250305,331.5 252.993948,326.934718 253.677628,321.962749 C253.994819,319.656027 254.699053,317.804691 255.597042,316.972833 C256.501064,316.135387 257.590949,316.36704 258.989758,318.011326 Z" id="Path-12"/><path d="M221.595125,39.4761609 L222.593988,39.5238391 C221.121792,70.3665177 222.407579,95.2314338 226.088877,115.930179 C228.96565,132.105339 233.041407,144.901987 239.025813,158.465093 L239.654283,159.874117 C241.501041,163.943869 247.46583,176.441204 249.082548,180.092593 L249.17257,180.297047 C255.349954,194.415387 257.762045,205.906064 256.808234,221.642251 C255.479519,243.563687 250.984695,259.017444 242.368253,276.719305 L241.349111,278.781325 C240.189253,281.068819 234.994545,291.189353 233.562779,294.209085 C228.387136,305.125005 226.016016,313.81673 226.016016,324.428 C226.016016,347.334741 233.767853,364.094008 249.273276,374.763804 L249.745511,375.085268 L249.186952,375.914732 C233.073595,365.064049 225.016016,347.881878 225.016016,324.428 C225.016016,313.895561 227.316754,305.222461 232.306696,294.529977 L232.830774,293.422043 C234.595347,289.761363 240.094825,279.062698 240.639767,277.96697 C249.744933,259.659023 254.448023,244.053032 255.810066,221.581749 C256.736423,206.298498 254.459377,195.093031 248.586406,181.457945 L248.067266,180.270669 C246.255996,176.218292 240.091145,163.307934 238.543473,159.843087 C232.29158,145.846674 228.064777,132.750932 225.104327,116.105283 C221.463491,95.6340459 220.157995,71.1223327 221.531819,40.8361247 L221.595125,39.4761609 Z" id="Path-13"/><path d="M235.418108,94.4090831 C231.380814,96.4851518 232.664672,114.390471 237.542329,133.656263 L237.691235,134.240477 C243.209295,155.745834 250.76772,169.752012 257.964382,167.821218 C264.972678,165.940962 267.098527,159.163369 265.507125,149.138764 C264.463603,142.565378 261.814324,134.9302 259.206628,129.425645 L258.874564,128.727455 C258.261493,127.362884 253.824827,117.14725 251.680238,112.626661 L251.473646,112.194125 C248.902698,106.851759 246.515486,102.584826 244.250393,99.483437 C240.967272,94.9881529 238.020958,93.0706382 235.418108,94.4090831 Z M243.44284,100.073232 C245.575924,102.993873 247.837085,106.999818 250.267829,111.997848 L250.778102,113.058121 C253.019295,117.782675 257.799497,128.811144 258.037736,129.301176 C260.690796,134.758233 263.457566,142.606227 264.519493,149.29555 C266.040715,158.87808 264.074555,165.146555 257.705256,166.855375 C251.467431,168.528922 244.158104,155.116662 238.820981,134.615352 L238.659857,133.991938 C233.828744,115.163798 232.486864,97.0408624 235.875412,95.2983936 C237.864854,94.2753769 240.425547,95.9419222 243.44284,100.073232 Z" id="Path-14"/><path d="M243.983618,117.74678 C241.532231,118.974721 242.294955,129.009243 245.146487,139.83487 L245.381188,140.710263 C248.498646,152.133856 252.682401,159.475133 256.814764,158.395147 C260.897373,157.328165 262.131382,153.495718 261.219726,147.901582 C260.636022,144.319833 259.168648,140.175803 257.710885,137.150467 L257.470943,136.658404 C257.129151,135.918031 254.464713,129.940204 253.305026,127.592756 L252.796819,126.580096 C251.536669,124.110065 250.353102,122.103587 249.22002,120.592303 C247.315577,118.052191 245.575816,116.94922 243.983618,117.74678 Z M248.419923,121.192173 C249.513873,122.651263 250.671677,124.61476 251.909177,127.040724 L252.408464,128.035675 C253.608659,130.465119 256.466817,136.889661 256.60804,137.172626 C258.090888,140.143761 259.63969,144.423294 260.232746,148.062426 C261.071942,153.211925 260.004196,156.528008 256.561908,157.427643 C253.250696,158.293023 249.195045,151.062172 246.231459,140.023711 L246.113503,139.580152 C243.434986,129.411364 242.682898,119.516777 244.431487,118.640879 C245.422453,118.144487 246.780383,119.005385 248.419923,121.192173 Z" id="Path-14"/><path d="M212.180815,39.851167 L213.135485,40.148833 C205.690788,64.0253619 202.82282,84.4126471 203.632617,103.623364 C204.248739,118.239556 206.582098,130.392748 211.765243,149.407373 L215.093803,161.425995 C220.438544,180.89316 222.768991,191.950907 224.033249,206.415192 C225.763366,226.209327 224.262637,247.108869 218.801238,271.325317 L218.515216,272.580861 C201.741573,345.484351 216.131105,382.315591 261.616891,383.475784 L263.004766,383.500023 L262.995234,384.499977 C216.077482,384.052709 200.780833,347.275922 217.038367,274.570821 L217.540678,272.356639 C223.212273,247.706116 224.787737,226.531763 223.037047,206.502265 L222.919714,205.202964 C221.575588,190.79076 219.075429,179.494094 213.382107,158.984049 L211.338231,151.631053 L210.799461,149.666755 C205.598782,130.587391 203.253401,118.371215 202.633504,103.66548 C201.831857,84.6480981 204.61071,64.4956496 211.822556,41.0089486 L212.180815,39.851167 Z" id="Path-15"/><path d="M191.048439,24.6087896 L191.671189,25.3912104 C170.061249,42.591153 161.809599,60.6606241 163.784244,81.9921321 C164.620595,91.0269884 167.245292,100.651756 171.72121,112.059058 L172.257912,113.413726 C173.711822,117.048955 175.35279,120.880435 177.310717,125.244402 L179.058526,129.099231 C179.680424,130.458214 180.338046,131.883445 181.090777,133.505075 L185.966083,143.967072 L186.804046,145.776753 C198.950178,172.0882 204.783703,188.349705 207.385128,206.984613 C214.083023,254.963959 204.870888,310.3954 179.760071,373.279227 L178.99427,375.187079 L178.066905,374.812921 C203.69492,311.292714 213.13363,255.395931 206.394732,207.122872 C203.781015,188.399916 197.870414,172.054071 185.479258,145.294261 L179.459568,132.363101 C178.840354,131.023851 178.280615,129.80542 177.738597,128.6163 L177.53609,128.171576 C174.927994,122.438161 172.853323,117.63478 171.057603,113.102251 L170.790305,112.42432 C166.282875,100.936707 163.634742,91.2259972 162.788501,82.0843075 C160.801925,60.6239094 169.014766,42.3813166 190.396474,25.1312184 L191.048439,24.6087896 Z" id="Path-16"/><path d="M146.902538,27.5861122 L147.525288,28.3685329 C125.915349,45.5684756 117.663698,63.6379467 119.638343,84.9694547 C120.474694,94.0043109 123.099391,103.629078 127.575309,115.036381 L128.112011,116.391049 C129.565922,120.026277 131.206889,123.857758 133.164816,128.221724 L134.912626,132.076553 C135.534523,133.435536 136.192145,134.860767 136.944876,136.482398 L141.820182,146.944395 L142.658145,148.754076 C154.804277,175.065522 160.637802,191.327027 163.239227,209.961936 C169.937123,257.941282 160.724987,313.372723 135.61417,376.256549 L134.84837,378.164401 L133.921004,377.790244 C159.549019,314.270036 168.987729,258.373253 162.248831,210.100195 C159.635115,191.377238 153.724514,175.031394 141.333357,148.271584 L135.313667,135.340424 C134.694454,134.001173 134.134715,132.782743 133.592697,131.593623 L133.390189,131.148898 C130.782093,125.415484 128.707422,120.612103 126.911702,116.079573 L126.644404,115.401643 C122.136974,103.914029 119.488841,94.2033197 118.6426,85.06163 C116.656024,63.6012319 124.868865,45.3586391 146.250574,28.1085409 L146.902538,27.5861122 Z" id="Path-16-Copy" transform="translate(141.854604, 202.875257) rotate(-12.000000) translate(-141.854604, -202.875257)"/><path d="M123.740664,241.148608 C114.634619,251.899567 108.5,269.325319 108.5,287.36636 C108.5,305.895453 114.00621,324.140347 122.717628,336.392968 C131.424123,348.638665 141.96349,352.903736 150.508323,346.621279 C158.463505,340.772355 160.946045,321.890562 158.754613,295.968436 L158.686776,295.180768 C156.755012,273.153672 151.539611,249.137321 146.674664,238.998354 C142.045869,229.351548 132.556082,230.740774 123.740664,241.148608 Z M145.77308,239.430958 C150.52413,249.332555 155.655595,272.832209 157.626765,294.552736 L157.690599,295.268132 C159.967255,321.227893 157.544386,340.206926 149.915964,345.815605 C141.920771,351.693947 131.956412,347.66157 123.532632,335.813513 C114.944932,323.734902 109.5,305.693052 109.5,287.36636 C109.5,269.557612 115.553715,252.361672 124.503732,241.794926 L125.008895,241.20917 C133.262592,231.812233 141.619323,230.774173 145.77308,239.430958 Z" id="Path-18"/><path d="M132.638019,256.930069 C128.071255,264.180979 125,275.913369 125,288.05669 C125,300.525851 127.755739,312.805709 132.120537,321.061732 C136.535472,329.412589 142.004046,332.388722 146.457622,327.985187 C150.478603,324.009387 151.722097,311.35108 150.632248,293.918099 L150.502413,291.977871 C149.471467,277.535123 146.945847,262.13363 144.582859,255.510798 C142.188236,248.799302 137.131991,249.794733 132.638019,256.930069 Z M143.641013,255.846843 L143.856273,256.473532 C146.192905,263.527266 148.663351,279.080552 149.595403,293.373116 L149.704477,295.157497 C150.644183,311.653785 149.388963,323.680493 145.754522,327.274097 C141.938085,331.047651 137.154796,328.444466 133.004592,320.59435 C128.719832,312.489717 126,300.369868 126,288.05669 C126,276.094119 129.022912,264.546406 133.484179,257.462997 C137.605925,250.918666 141.601975,250.131957 143.641013,255.846843 Z" id="Path-18"/><path d="M140.88266,272.045516 C139.923006,272.269566 138.964076,273.308409 138.082853,274.967679 C136.236517,278.444175 135,284.045849 135,289.840994 C135,295.785607 136.108152,301.641617 137.868351,305.589967 C139.705883,309.711784 142.128741,311.275484 144.122867,308.937227 C147.226083,305.298482 145.993248,282.879184 143.423573,274.338207 C142.90931,272.62892 142.022878,271.77931 140.88266,272.045516 Z M142.465975,274.626314 C144.939226,282.8468 146.157969,305.009843 143.36199,308.288331 C142.048111,309.828949 140.370224,308.746049 138.781701,305.18279 C137.082076,301.370316 136,295.652106 136,289.840994 C136,284.201293 137.20115,278.759841 138.966027,275.436724 C139.723497,274.01047 140.508836,273.159685 141.110015,273.019328 C141.609258,272.90277 142.084452,273.358225 142.465975,274.626314 Z" id="Path-18"/><path d="M150.229036,25.0797876 L150.770964,25.9202124 C142.222774,31.4323123 137.423377,42.1313882 135.379694,58.3389136 L135.207796,59.7660456 C133.835733,71.6246153 133.84573,82.8220192 134.779989,107.850683 L135.188099,118.651406 C135.515354,127.745957 135.666667,134.190691 135.666667,140.55948 C135.666667,156.472553 132.989913,168.052061 126.966614,180.90843 L126.628539,181.624022 C123.974671,187.195368 112.381856,208.094116 110.885627,210.94582 C103.498552,225.025043 97.4030636,238.942666 91.5297852,256.152018 C90.8943239,258.013989 90.2652392,259.905736 89.6423355,261.828796 C74.7490483,307.808116 89.3367696,349.170342 133.470896,385.998979 L134.817337,387.11361 L134.182663,387.88639 C88.6988544,350.531084 73.5125,308.380482 88.6909978,261.520646 C89.315505,259.592635 89.9462349,257.695941 90.5833835,255.829026 C96.3190541,239.02288 102.268339,225.341446 109.417778,211.595915 L110.193975,210.115958 C112.280515,206.215286 122.918991,187.009569 125.630111,181.393333 L125.725732,181.193976 C131.811825,168.417253 134.56581,157.035751 134.663943,141.430802 L134.666667,140.55948 C134.666667,134.391696 134.524338,128.148553 134.217084,119.480741 L133.693687,105.522982 C132.826433,81.5694124 132.880407,70.7231147 134.304418,58.8886128 L134.472814,57.5528068 C136.568318,41.6682393 141.364081,31.0050996 149.872373,25.3140385 L150.229036,25.0797876 Z" id="Path-19"/><path d="M121.5,18 C121.5,44.1032821 118.290289,69.1980822 112.114966,95.1637172 L111.716772,96.8222989 C107.011741,116.23819 101.49599,133.630307 92.0912782,159.99939 L83.1847254,184.750671 C82.6244248,186.317917 82.0998381,187.791854 81.5868875,189.240422 L80.6589393,191.869806 C77.758451,200.118166 75.3765999,207.185094 73.2315183,213.97567 C67.4985638,232.124195 63.6086917,247.933308 61.3175903,263.421234 C53.8419224,313.957013 69.4230488,353.698951 108.082474,382.721175 L109.261036,383.597355 L108.668154,384.402645 C68.8444929,355.083077 52.7238393,314.681695 60.3283553,263.274898 C62.6280622,247.728799 66.5301781,231.869924 72.2779634,213.674451 L73.1285355,211.005831 C75.0480899,205.035768 77.1727919,198.77089 79.6863364,191.621205 L81.4258448,186.705015 C82.2885549,184.28093 83.2137276,181.700315 84.3047312,178.671485 L89.2681963,164.914269 L91.1482841,159.666561 C100.420652,133.668657 105.90604,116.414504 110.561554,97.3406701 L110.7449,96.5867865 C117.028785,70.6555584 120.3596,45.6393795 120.495657,19.6596099 L120.5,18 L121.5,18 Z" id="Path-20"/></g></g></g></g></g><g id="Face" transform="translate(589.000000, 429.000000)"><g id="Mouth" transform="translate(0.000000, 30.000000) scale(1 1)" fill-rule="evenodd"><defs><path d="M9.41544408,1.5633 C-4.60206802,-2.25965784 -1.58455592,17.5633 9.41544408,20.5633 C20.4154441,23.5633 27.4154441,23.5633 37.4154441,20.5633 C51.1076895,16.4556264 49.8974986,-2.59738486 37.4154441,1.5633 C28.4154441,4.5633 20.4154441,4.5633 9.41544408,1.5633 Z" id="mouthgrin-1-path-1"/></defs><g id="Mouth/Grin 1" stroke="none" stroke-width="1" fill="none" fill-rule="evenodd"><g id="Group" transform="translate(15.584556, 7.000000)"><mask id="mouthgrin-1-mask-2" fill="#ffffff"><use xlink:href="#mouthgrin-1-path-1" fill="#ffffff"/></mask><use id="Clip-11" fill="#ffffff" xlink:href="#mouthgrin-1-path-1"/><polygon id="Fill-7" fill="#ded5cd" mask="url(#mouthgrin-1-mask-2)" points="11.9840441 29.605 9.43604408 -3.803 12.0200441 -4 14.5690441 29.407"/><polygon id="Fill-4" fill="#ded5cd" mask="url(#mouthgrin-1-mask-2)" points="25.3302441 32.0913 22.7372441 32.0583 23.1412441 0.2753 25.7332441 0.3073"/><polygon id="Fill-10" fill="#ded5cd" mask="url(#mouthgrin-1-mask-2)" points="36.8234441 37.4683 34.2464441 37.1903 38.6364441 -3.4367 41.2154441 -3.1587"/></g></g></g><g id="Eyes" transform="scale(1 1)"><g id="Eyes/Joy" stroke="none" stroke-width="1" fill="none" fill-rule="evenodd"><path d="M74.1552262,1.01046246 C76.3585869,0.850786059 78.274207,2.50751956 78.4338834,4.7108803 L78.506381,5.75462153 C78.8982045,11.6797739 78.7348039,14.8108233 77.420624,18.5242714 C75.4180749,24.18714 70.410692,28.5019883 64.6733636,28.4641422 C59.1314019,28.4253974 54.2927747,24.33492 52.2068629,18.9039891 C50.7640117,15.143088 50.5512183,11.9997518 50.7601331,5.57300805 C50.831908,3.36503534 52.6800085,1.63330479 54.8879812,1.7050796 C57.0959539,1.77685442 58.8276845,3.62495494 58.7559096,5.83292765 L58.7178918,7.18698899 C58.6161353,11.6269054 58.8265761,13.8242443 59.6755099,16.0370554 C60.6720958,18.6317904 62.8238648,20.4508523 64.7277066,20.4640766 C66.6944882,20.4771361 68.9239042,18.5560544 69.878648,15.8562014 C70.7759912,13.3205991 70.8550582,10.8121324 70.4548083,5.2891197 C70.2951319,3.08575895 71.9518654,1.17013886 74.1552262,1.01046246 Z" id="Stroke-1" fill="#231721" fill-rule="nonzero" transform="translate(64.692417, 14.731983) scale(1, -1) translate(-64.692417, -14.731983)"/><path d="M5.3327163,1.00091497 L5.53218829,1.01046246 C7.73554904,1.17013886 9.39228254,3.08575895 9.23260614,5.2891197 L9.16875303,6.20692186 C8.84407957,11.0986654 8.96270044,13.4651253 9.80856211,15.8552575 C10.7644203,18.5550785 12.9941302,20.4764135 14.9581363,20.4633674 C16.864542,20.4501309 19.0162304,18.6313789 20.0117483,16.0394278 L20.1682386,15.6100015 C20.9612857,13.3138983 21.0966787,10.8733905 20.9308323,5.83452449 C20.8581612,3.62658109 22.5891415,1.77777781 24.7970849,1.70510677 C27.0050283,1.63243574 28.8538316,3.363416 28.9265026,5.57135939 L28.9575922,6.61021151 C29.1099136,12.3339796 28.8434555,15.3494128 27.4809384,18.9049452 C25.395502,24.3346375 20.5567364,28.4246881 15.0124784,28.463433 C9.27830713,28.5012729 4.27186391,24.1872343 2.26708066,18.5247251 C0.877527401,14.598296 0.774309437,11.3236177 1.25353105,4.7108803 C1.40836877,2.57428807 3.2143418,0.951696103 5.3327163,1.00091497 Z" id="Stroke-3" fill="#231721" fill-rule="nonzero" transform="translate(14.995075, 14.731629) scale(1, -1) translate(-14.995075, -14.731629)"/></g></g></g><g id="Head Accesory" transform="translate(608.000000, 266.000000) scale(-1, 1) translate(-608.000000, -266.000000) translate(508.000000, 166.000000) scale(1 1)"><g id="Head Accesory/Crown" stroke="none" stroke-width="1" fill="none" fill-rule="evenodd"><polygon id="Fill-1" fill="#dbd2ca" points="115.347393 130.009398 100.000465 94 84.6526073 130.009398 60 94 62.791704 176 137.208296 176 140 94"/></g></g></g></g><g id="Arms" transform="translate(597.000000, 598.000000)" fill="#231721"><path d="M565.016002,3.64256982 C565.213405,1.44226824 567.157129,-0.181401688 569.35743,0.0160015475 C571.557732,0.213404783 573.181402,2.15712859 572.983998,4.35743018 C552.609193,231.459672 388.818696,329.060484 83.7317472,296.893613 C63.6086473,294.771932 46.8628101,306.467604 33.1723151,332.842803 C32.1545631,334.803537 29.7400235,335.567974 27.7792899,334.550222 C25.8185564,333.53247 25.0541189,331.11793 26.0718709,329.157197 C41.1440334,300.120169 60.7509093,286.426283 84.5705784,288.937712 C385.654172,320.682488 545.096234,225.672858 565.016002,3.64256982 Z M49.0635317,283.723071 C50.5140117,285.389325 50.3390921,287.915938 48.6728379,289.366418 C35.4776593,300.852866 26.1798335,312.257751 20.7431797,323.543243 C19.7844058,325.533481 17.3937592,326.369648 15.4035211,325.410874 C13.413283,324.4521 12.5771161,322.061453 13.53589,320.071215 C19.4868332,307.718153 29.4603252,295.484484 43.4201853,283.332378 C45.0864395,281.881898 47.6130517,282.056817 49.0635317,283.723071 Z M39.1523348,271.183588 C40.6379286,272.818613 40.5167908,275.348375 38.881766,276.833968 C29.565224,285.299037 21.0579726,296.14 13.3714812,309.370789 C12.2617517,311.280971 9.81362962,311.929866 7.90344758,310.820136 C5.99326554,309.710407 5.3443706,307.262285 6.45410016,305.352103 C14.5350506,291.44233 23.5471791,279.957991 33.5019549,270.91302 C35.1369798,269.427426 37.666741,269.548564 39.1523348,271.183588 Z M442.20247,22.9818375 L442.402107,22.9868619 C444.608521,23.0965559 446.308248,24.9741323 446.198554,27.1805462 C443.672315,77.9939965 423.546206,119.537771 388.267873,152.449672 C358.178453,180.520726 317.810779,201.66531 269.463074,216.788968 C231.594347,228.634694 190.559001,236.278642 148.362408,240.541117 L146.215828,240.754943 C117.952341,243.530799 95.2190889,244.385542 73.6395349,244.385542 C49.8649101,244.385542 27.7866363,260.831333 7.41797264,294.336887 C6.27040745,296.224581 3.80984358,296.824574 1.92214942,295.677009 C0.0344552536,294.529444 -0.565537828,292.06888 0.582027362,290.181186 C22.2598753,254.522081 46.6079581,236.385542 73.6395349,236.385542 L75.8902354,236.382374 C96.5639358,236.323869 118.447485,235.443678 145.433882,232.79325 C187.878126,228.624652 229.140841,221.019908 267.074716,209.153803 C295.120438,200.380814 320.367631,189.564488 342.343393,176.549722 C325.908233,180.001234 309.377008,181.247465 292.679881,180.585633 C274.918309,179.88161 258.189068,177.160462 239.891966,172.652165 L238.368202,172.273667 C236.080701,171.7009 233.770113,171.101974 231.237392,170.428714 L220.687694,167.583003 C214.635089,165.96422 211.177539,165.170828 208.694322,164.887365 L208.489608,164.864917 C188.320938,162.745617 171.540875,174.425588 157.824802,200.760764 C156.804334,202.720085 154.388738,203.481177 152.429416,202.460709 C150.470095,201.440241 149.709003,199.024645 150.729471,197.065323 C165.829549,168.072825 185.469809,154.401979 209.325635,156.90872 L209.827985,156.965545 C212.712285,157.314536 216.270363,158.128262 222.223158,159.712815 L231.586959,162.241621 L234.112624,162.914635 C236.836133,163.63485 239.310661,164.269672 241.805877,164.884479 C259.619588,169.273672 275.838433,171.911799 292.996731,172.59191 C314.864515,173.458694 336.395272,170.926325 357.790048,164.278824 C358.831075,163.955369 359.904229,164.078576 360.803073,164.53988 C368.676242,158.910947 376.02151,152.933727 382.810616,146.600027 C416.600555,115.076681 435.787882,75.470714 438.208423,26.7833092 C438.314792,24.6437564 440.083524,22.9818375 442.20247,22.9818375 Z M171.778923,152.364931 C173.226609,154.033614 173.047455,156.55993 171.378772,158.007615 C158.159152,169.47645 148.844323,180.863579 143.398108,192.130711 C142.436698,194.119677 140.044946,194.952676 138.05598,193.991266 C136.067014,193.029855 135.234015,190.638103 136.195425,188.649137 C142.157987,176.313785 152.150317,164.098429 166.13624,151.96478 C167.804923,150.517094 170.331238,150.696249 171.778923,152.364931 Z M160.533131,143.122539 C162.015968,144.760064 161.890569,147.289617 160.253044,148.772455 C150.919203,157.224581 142.396391,168.04867 134.695915,181.258737 C133.583375,183.167284 131.134301,183.812576 129.225754,182.700036 C127.317207,181.587497 126.671916,179.138423 127.784455,177.229876 C135.880746,163.340794 144.909896,151.873648 154.883215,142.842452 C156.52074,141.359615 159.050293,141.485014 160.533131,143.122539 Z M387.916092,72.6741607 C389.292604,74.4020232 389.007779,76.9186162 387.279916,78.2951286 C366.950057,94.4910375 339.485477,105.087666 306.435471,111.117665 C275.460309,116.769108 245.589218,117.91881 209.561861,116.830039 L197.888624,116.448053 C196.070973,116.395303 194.783156,116.3706 193.769053,116.3706 C170.058521,116.3706 147.930209,134.46149 127.4991,171.348055 C126.428707,173.280555 123.994382,173.979431 122.061883,172.909038 C120.129383,171.838645 119.430507,169.40432 120.5009,167.47182 C141.977566,128.697594 166.091474,108.77123 192.95419,108.37658 L193.769053,108.3706 C194.649605,108.3706 195.687771,108.387012 197.029677,108.421443 L208.124208,108.781458 L211.453796,108.882074 C246.22719,109.87038 275.1722,108.68961 304.999568,103.247584 C336.861832,97.4342891 363.14638,87.2929508 382.295124,72.037985 C384.022986,70.6614727 386.539579,70.9462982 387.916092,72.6741607 Z" id="Combined-Shape"/></g></g></svg>