<svg viewBox="24.445945945945937 27.25 359.89864864864865 490.5000000000001" xmlns="http://www.w3.org/2000/svg" xmlns:xlink="http://www.w3.org/1999/xlink" overflow="visible" width="359.89864864864865px" height="490.5000000000001px"><defs><path d="M9.37054227,12.5613422 C22.6202052,14.5162713 40.7027109,14.5090862 61.4205614,5.51255998 L66.1944979,23.208767 C51.1665391,34.0694341 31.2315522,41.7910291 15.3416741,38.8136531 C2.81957441,36.4673167 -1.19301326,20.1955965 9.37054227,12.5613422 Z" id="mastercompositiongraphs-path-1"/><path d="M72.2005369,2.23547676e-13 C73.8869588,21.7221726 82.3751241,45.661868 89.3412215,69.3125591 C103.558254,72.8682786 127.400589,68.6761214 160.867708,56.7365802 C169.168797,73.9542159 173.006182,86.2290697 172.379864,93.5611415 C143.667126,108.59814 119.058312,115.301393 98.7845564,115.742507 C99.4363321,127.798854 97.9724881,139.275853 93.0533166,149.762633 C82.9417964,171.318557 23.7332277,151.355368 3.82549256,155.284611 C-8.64131656,114.692942 15.4636361,98.1966511 15.4830313,72.223735 C15.5042711,43.7806241 38.2841549,2.23547676e-13 41.6357585,2.23547676e-13 L41.6357585,2.23547676e-13 Z" id="mastercompositiongraphs-path-3"/></defs><g id="Master/Composition/Graphs" stroke="none" stroke-width="1" fill="none" fill-rule="evenodd"><g id="Chart" transform="translate(40.000000, 41.000000)"><path d="M48.6606476,47.71305 C46.1847672,50.33105 42.6774315,51.975 38.7765142,51.975 C31.281014,51.975 25.2047342,45.94205 25.2047342,38.5 C25.2047342,31.05795 31.281014,25.025 38.7765142,25.025 L38.7765142,0 C17.453309,0 0,17.32885 0,38.5 C0,59.67115 17.453309,77 38.7765142,77 C49.9771103,77 60.0997193,72.2953 67,64.8109 L48.6606476,47.71305 Z" id="Value" fill="#F2F2F2"/><path d="M38,0 L38,25.35 C45.5387,25.35 51.65,31.4613 51.65,39 L77,39 C77,17.5539 59.4461,0 38,0 Z" id="Value" fill="#42A5FF"/><path d="M51.2919112,38 C51.2919112,42.4006869 49.2194437,46.3124086 46,48.8380716 L61.8381602,69 C71.0574764,61.7818482 77,50.5928258 77,38 L51.2919112,38 Z" id="Value" fill="#C5CFD6"/></g><g id="Circles" transform="translate(24.000000, 112.000000)"><circle id="Oval-2-Copy-17" fill="#C1DEE2" cx="335" cy="20" r="20"/><circle id="Oval-2-Copy-6" fill="#89C5CC" cx="64.5" cy="234.5" r="13.5"/><circle id="Oval-2-Copy-14" fill="#56919C" cx="140.5" cy="19.5" r="13.5"/><circle id="Oval-2-Copy-10" fill="#56919C" cx="113.5" cy="214.5" r="13.5"/><circle id="Oval-2-Copy-11" fill="#C1DEE2" cx="162.5" cy="118.5" r="18.5"/><circle id="Oval-2-Copy-16" fill="#89C5CC" cx="301" cy="36" r="27"/><circle id="Oval-2-Copy-7" fill="#C1DEE2" cx="37.5" cy="187.5" r="13.5"/><circle id="Oval-2-Copy-7" fill="#C1DEE2" cx="9.5" cy="247.5" r="9.5"/><circle id="Oval-2-Copy-9" fill="#C1DEE2" cx="114" cy="163" r="10"/><circle id="Oval-2-Copy-12" fill="#C1DEE2" cx="204" cy="134" r="17"/><circle id="Oval-2-Copy-13" fill="#C1DEE2" cx="211" cy="63" r="17"/><circle id="Oval-2-Copy-8" fill="#89C5CC" cx="78" cy="136" r="17"/><circle id="Oval-2-Copy-15" fill="#89C5CC" cx="262" cy="91" r="20"/></g><g id="Head/Front" transform="translate(101.859375, 127.148352) scale(1.1015661764705882 1.1043942307692307)"><g id="Head/Front/Hijab 1" stroke="none" stroke-width="1" fill="none" fill-rule="evenodd"><g id="Head" transform="translate(54.000000, 31.000000)" fill="#57331f"><path d="M38.1433414,9.13393292 C43.9381521,19.9350547 43.249578,47.3329958 35.7603014,49.2634576 C32.773664,50.0333035 26.4113241,48.1475566 19.935865,44.2446031 L24,73 L0,73 L8.26160177,34.4893378 C3.65406109,29.0807313 0.535660132,22.452516 1.05677633,15.0254539 C2.55833022,-6.37502057 32.3485306,-1.66718886 38.1433414,9.13393292 Z" id="SKIN"/></g><g id="Hijab" transform="translate(36.000000, 28.000000)"><path d="M50.7350002,5.01147183 C50.1852708,4.68336774 49.0351409,3.99129844 48.4524743,3.74047035 C48.3145899,3.68011316 47.3491609,2.99135428 47.3231986,3 C46.5922497,3.24668063 44.475629,4.157139 44.2939574,4.94386372 C44.2657992,5.00348239 44.2381578,5.05940846 44.2112267,5.10828502 C43.9113039,5.65351385 43.6361163,6.21230459 43.373587,6.77787628 C42.7975078,8.01939475 42.3002198,9.31697358 41.8252774,10.6043474 C40.9001924,13.1115541 40.0965233,15.677171 39.3576307,18.2486288 C38.6053695,20.8663449 37.9669033,23.5146088 37.2521648,26.1431341 C36.2236827,29.9254283 34.9073547,33.6149377 33.8859767,37.3956877 C33.2337544,39.8097738 32.8709924,42.2521922 33.0422662,44.7368405 C33.0439454,44.7667169 33.0449141,44.7961906 33.0476266,44.826537 C33.0486599,44.8389576 33.0502099,44.8512438 33.0513078,44.8636644 C33.0804347,45.2456133 33.1219615,45.6285021 33.177309,46.0125322 C33.2257461,46.3409049 33.2743124,46.670486 33.3261079,47 C34.2590719,45.1396022 34.9713564,43.0896733 35.7272342,41.1440101 C35.8011816,40.9535392 35.8717061,40.7616583 35.940616,40.5691733 C36.1843517,40.1746025 36.4328666,39.7828514 36.6841585,39.3925774 C38.2688928,36.9315618 39.8598917,34.4796098 41.3795265,31.9740815 C44.1128024,27.4677025 46.8205682,22.8660544 50.061078,18.727928 C51.0179377,17.5059467 51.9970785,16.302697 52.9419258,15.0707121 C53.4795781,14.3696557 54.0032806,13.6568501 54.5099977,12.9313553 C54.872243,12.4125789 56.4471311,10.6043474 55.8768295,9.51791803 C55.585039,8.96205474 52.1610544,5.8627163 50.7350002,5.01147183 Z" id="Front" fill="#2C2C2C"/><path d="M48.6260171,3.83116599 C49.1606177,4.01081921 48.9005286,2.8983607 48.3827244,2.5068843 C45.9838484,0.693257683 36.8126531,0.035129961 28.8316831,1.69188377 C23.4851811,2.80175357 17.2670643,5.56416284 12.9966544,9.11545816 C9.14699464,12.3169592 6.49948445,17.4491331 5.13642247,22.407675 C3.70525344,27.6142408 3.48849539,33.0422873 4.28584125,38.381368 C4.46101123,39.5541291 4.83740954,40.6717368 5.04712657,41.8196221 C5.28329677,43.1122936 5.40444175,44.3568809 5.8254551,45.6145396 C6.08327479,46.3844871 6.52139715,47.1392958 6.74137959,47.9136449 C6.99248728,48.7972339 6.8394274,49.6146653 6.65629515,50.5133931 C6.35787446,51.9781941 5.98785913,53.4399939 5.46202016,54.8389709 C4.67237336,56.9397371 3.71413697,58.9072548 3.11334736,61.0872499 C2.31396158,63.9879079 -1.02991389,73.427136 1.41378875,76 L47.9323913,76 C46.761016,72.8047679 43.2449088,69.0442856 42.533108,65.623838 C42.1138713,63.608903 41.9144197,59.2085647 41.8705285,59.0486397 C40.8222264,51.8223372 38.7753261,48.3714635 37.4933414,47.1190983 C36.2113566,45.8667332 34.5038477,45.4816245 34.4158679,44.3952949 C34.0522355,39.9023228 35.8388772,35.5973526 37.1489671,31.4041565 C38.710362,26.4065336 39.854626,21.2849322 41.464321,16.3042488 C42.1771089,14.098711 45.8502346,2.8983607 48.6260171,3.83116599 Z" id="Turban" fill="#8991DC"/><path d="M14.373523,47.8804331 C23.9808594,50.889665 22.9106953,57.1023672 35.0112076,63.394114 L34,64.0068145 C23.4044272,59.6340646 20.9275677,50.2553327 13.6694535,48.7363176 L14.373523,47.8804331 Z M22.2134556,15.2923054 C23.6982144,26.5510679 24.1316878,32.9820818 31.8664459,45.2976376 L31.0435239,45.5492301 C23.0831253,34.8261446 21.8212801,26.0740972 21.4451908,15.3541394 L22.2134556,15.2923054 Z M8.78209035,23.3643083 C12.0510625,31.2963757 13.5415304,35.9803784 22.6701438,42.3991504 L21.9652448,42.892726 C12.9031248,37.7568562 10.2641419,31.6306096 8.09450288,23.6947526 L8.78209035,23.3643083 Z M32.3160356,9 C30.5618427,14.565951 30.1845546,17.5370354 30.5618427,25.1421085 L29.7013199,25.1421085 C28.0937737,17.9652054 29.5245027,11.2089071 31.2344582,9 L32.3160356,9 Z" id="Shade" fill-opacity=".2" fill="#000"/></g></g></g><g id="Bottom/Sitting" transform="translate(11.531250, 333.670330) scale(1.1015633333333332 1.104397489539749)"><g id="Bottom/Sitting/Skinny Jeans 1" stroke="none" stroke-width="1" fill="none" fill-rule="evenodd"><g id="Objects/Seat" transform="translate(10.000000, 42.000000) scale(1 1)"><g id="Objects/Seat/Cube 2" stroke="none" stroke-width="1" fill="none" fill-rule="evenodd"><path d="M174,0 C182.836556,-1.623249e-15 190,7.163444 190,16 L190,108 C190,116.836556 182.836556,124 174,124 L59,124 C50.163444,124 43,116.836556 43,108 L43,16 C43,7.163444 50.163444,1.623249e-15 59,0 L174,0 Z M158,28 L75,28 C72.790861,28 71,29.790861 71,32 L71,32 L71,92 C71,94.209139 72.790861,96 75,96 L75,96 L158,96 C160.209139,96 162,94.209139 162,92 L162,92 L162,32 C162,29.790861 160.209139,28 158,28 L158,28 Z" id="Seat" fill="#C5CFD6"/></g></g><path d="M257.954028,20.756908 L258.24189,20.5887017 C266.50855,15.9575335 280.00938,22.2466943 280.000005,29.2384154 C279.971611,50.4029106 260.656682,150.1511 259.648224,156.456711 C258.639766,162.762321 247.83665,164.42787 247.20755,156.477375 C246.206544,143.826795 244.3468,100.033121 246.20755,79.7626522 C246.975689,71.3947628 247.802939,63.4254961 248.617343,56.3158982 C238.483775,74.6174738 222.808496,100.823961 201.593128,134.933778 L190.076573,129.672175 C199.120166,99.8760987 206.535776,78.8408618 212.323403,66.5664641 C222.233227,45.5497154 231.525307,27.551672 235.436043,21.2120072 C241.587899,11.2392801 252.296386,14.7194928 257.954028,20.756908 Z" id="LegBack" fill="#57331f"/><path d="M208.819223,123.340112 L213.936922,21.8299349 C217.625361,4.27739957 248.84365,12.4235349 248.830816,21.8299349 C248.801666,43.1853748 235.973522,116.956762 235.964839,123.319261 L208.819223,123.340112 Z" id="LegLower" fill="#56919c" transform="translate(228.825019, 67.419630) rotate(20.000000) translate(-228.825019, -67.419630)"/><path d="M182.995119,136.879166 C181.876365,139.865652 181.316987,142.100234 181.316987,143.582912 C181.316987,145.386198 181.617402,148.017641 182.21823,151.477241 C184.310168,151.477241 203.110773,151.477241 238.620042,151.477241 C240.085725,146.631749 239.239648,144.015823 236.08181,143.629464 C232.923972,143.243106 230.300703,142.894255 228.212002,142.582912 L201.99698,130.896125 C201.492551,130.671248 200.901331,130.89787 200.676454,131.402299 C200.672607,131.410928 200.668883,131.419612 200.665282,131.428346 L198.9802,135.515936 L198.9802,135.515936 C196.056869,136.879893 193.681358,137.561872 191.853668,137.561872 C190.368714,137.561872 188.31798,136.962147 185.701465,135.762696 L185.701471,135.762684 C184.69737,135.302389 183.510243,135.743231 183.049947,136.747331 C183.030108,136.790609 183.01182,136.834582 182.995119,136.879166 Z" id="shoe" fill="#E4E4E4" transform="translate(210.316987, 140.977241) rotate(30.000000) translate(-210.316987, -140.977241)"/><path d="M244.678132,151.401924 C243.559377,154.388411 243,156.622993 243,158.105671 C243,159.908957 243.300414,162.5404 243.901243,166 C245.993181,166 264.793785,166 300.303055,166 C301.768738,161.154507 300.922661,158.538582 297.764823,158.152223 C294.606985,157.765865 291.983716,157.417014 289.895014,157.105671 L263.679993,145.418883 C263.175563,145.194006 262.584344,145.420628 262.359467,145.925057 C262.35562,145.933687 262.351895,145.94237 262.348295,145.951105 L260.663213,150.038695 L260.663213,150.038695 C257.739881,151.402652 255.364371,152.084631 253.536681,152.084631 C252.051727,152.084631 250.000992,151.484905 247.384478,150.285455 L247.384483,150.285443 C246.380383,149.825148 245.193255,150.265989 244.73296,151.27009 C244.713121,151.313368 244.694833,151.357341 244.678132,151.401924 Z" id="shoe" fill="#E4E4E4"/><path d="M282.770373,36.4330278 C282.770373,63 270.1536,124.970293 270.145616,130.820112 L243,130.840963 C246.973277,75.5454811 248.382172,47.5998928 247.226683,47.0041979 C245.49345,46.1106556 176.175838,53.9250306 155.386358,53.9250306 C125.407825,53.9250306 113.006307,35.0203971 112,-4.40536496e-13 L171.386358,-4.40536496e-13 C183.477954,1.29386693 246.548825,14.0152568 269.972097,18.3884129 C280,20.2606358 282.770373,29.1145109 282.770373,36.4330278 Z" id="Leg-and-Butt" fill="#89c5cc"/></g></g><g id="Body" transform="translate(35.765625, 217.708791) scale(1.1015625 1.1043957219251337)"><defs><path d="M8.50486985,11.3641526 C20.5328809,13.1391664 36.9471722,13.1391664 55.7504485,5 L60.0903301,21.0261575 C46.4526921,30.855406 28.3595972,37.8403661 13.9345776,35.1385465 C2.56686704,33.0093637 -1.08139191,18.2733952 8.50486985,11.3641526 Z" id="bodypointing-forward-path-1"/><path d="M65.5437498,1.98951966e-13 C67.0746794,19.6687489 74.7801887,41.3453869 81.1040065,62.7603513 C94.0105334,65.9801967 115.654578,62.1842978 146.035933,51.3734208 C153.571674,66.9635189 157.055257,78.0780631 156.486685,84.7170535 C130.420927,98.3327976 108.0808,104.402393 89.6761367,104.801687 C90.2685109,115.717837 88.9396772,126.110233 84.4739328,135.605966 C75.2946804,155.124265 21.5450578,137.048144 3.47278757,140.605966 C-7.84459943,103.85132 14.0379108,88.9143806 14.0555178,65.3966157 C14.0747993,39.6421572 34.7544101,1.98951966e-13 37.7970006,1.98951966e-13 L37.7970006,1.98951966e-13 Z" id="bodypointing-forward-path-3"/></defs><g id="Body/Pointing Forward" stroke="none" stroke-width="1" fill="none" fill-rule="evenodd"><path d="M238.556381,46.4077826 C242.889175,45.5157805 253.464286,37.6506887 255.286431,39.2475996 C257.982176,41.6101262 255.578484,48.864452 252.746364,52.4730906 C247.453134,59.2176317 243.070569,61.5240612 232.238377,64.5443446 C226.574749,66.1235046 220.451364,69.288795 213.868224,74.0402157 L213,58.7398397 L228.246523,50.3642065 C230.385826,42.2239107 232.943102,38.1282526 235.918351,38.0772323 C238.203961,37.0137608 234.223587,47.2997848 238.556381,46.4077826 Z M212.314801,11.541507 C209.515281,16.510379 206.794075,21.8627914 208.22032,23.3935933 C209.646565,24.9243953 213.203036,22.7859324 214.904525,25.3293729 C216.038851,27.0249998 209.962902,29.703613 196.676679,33.3652124 L171.455792,56.4576422 L158.638039,42.7002327 L193.347821,23.6898218 C199.119845,16.8355222 204.806897,11.5121983 210.408976,7.71984988 C212.120791,7.00519513 215.114322,6.57263502 212.314801,11.541507 Z" id="SKIN" fill="#3d2216"/><g id="Group-3" transform="translate(134.353117, 23.386150)"><mask id="bodypointing-forward-mask-2" fill="#ffffff"><use xlink:href="#bodypointing-forward-path-1" fill="#ffffff"/></mask><use id="Mask" fill="#c21b15" transform="translate(31.545165, 20.361910) rotate(-9.000000) translate(-31.545165, -20.361910)" xlink:href="#bodypointing-forward-path-1"/></g><g id="Group-27" transform="translate(77.000000, -0.000000)"><mask id="bodypointing-forward-mask-4" fill="#ffffff"><use xlink:href="#bodypointing-forward-path-3" fill="#ffffff"/></mask><use id="Mask" fill="#ff4133" xlink:href="#bodypointing-forward-path-3"/></g></g></g><g id="Bars" transform="translate(260.000000, 33.000000)"><rect id="Rectangle" fill="#89c5cc" x="0" y="0" width="110" height="16" rx="4"/><rect id="Rectangle" fill="#C1DEE2" x="0" y="24" width="70" height="16" rx="4"/><rect id="Rectangle" fill="#C1DEE2" x="0" y="48" width="86" height="16" rx="4"/></g><g id="Graph" transform="translate(24.000000, 426.000000)"><rect id="Value" fill="#42A5FF" x="0" y="32" width="6" height="25" rx="3"/><rect id="Value" fill="#42A5FF" x="14" y="16" width="6" height="41" rx="3"/><rect id="Value" fill="#42A5FF" x="28" y="8" width="6" height="49" rx="3"/><rect id="Value" fill="#42A5FF" x="42" y="16" width="6" height="41" rx="3"/><rect id="Value" fill="#89c5cc" x="56" y="0" width="6" height="57" rx="3"/></g><g id="Pie-Chart" transform="translate(353.000000, 465.000000) scale(-1, 1) translate(-353.000000, -465.000000) translate(324.000000, 436.000000)"><path d="M58,29.5164511 C58,13.2853546 44.9471,0 29,0 L29,29.5164511 L48.8186,51 C54.4562,45.7475475 58,38.042278 58,29.5164511 Z" id="Value" fill="#F2F2F2"/><path d="M30.1077581,29 L1,29 C1,36.57045 4.06941309,43.66385 8.92167637,48.8186 C14.2585838,54.4562 21.8586195,58 30.1077581,58 C37.7063384,58 44.6616372,54.94195 50,50.10765 L30.1077581,29 Z" id="Value" fill="#AFB9C5"/><path d="M0,29 C0,13.0529 13.0529,0 29,0 L29,29 L0,29 Z M43.5,0 L31.9,26.1 L58,14.5 C55.419,7.7343 49.62335,2.581 43.5,0 Z" id="Value" fill="#8991DC"/></g><g id="Circles" transform="translate(122.000000, 246.000000)"><circle id="Circle" fill="#89C5CC" cx="14.5" cy="104.5" r="14.5"/><circle id="Circle" fill="#C1DEE2" cx="57" cy="21" r="7"/><circle id="Circle" fill="#89C5CC" cx="145" cy="15" r="15"/></g></g></svg>