<svg viewBox="-2.7162162162161962 54.50000000000006 373.4797297297298 449.6250000000001" xmlns="http://www.w3.org/2000/svg" xmlns:xlink="http://www.w3.org/1999/xlink" overflow="visible" width="373.4797297297298px" height="449.6250000000001px"><defs><path d="M170,387 C263.888407,387 340,310.980246 340,217.205128 L340,0 L0,0 L0,217.205128 C0,310.980246 76.1115925,387 170,387 Z" id="mastercompositionspace-path-1"/><path d="M170,387 C205.216822,387 237.932549,376.304457 265.068658,357.988177 C310.277694,327.473068 395.38799,374.053861 395.38799,214.5 C395.38799,108.13076 376.925327,36.6307596 340,4.26325641e-14 C34.2812211,-18.1625487 -118.578168,-18.1625487 -118.578168,4.26325641e-14 C-118.578168,27.243823 -118.578168,147.669814 -118.578168,214.5 C-118.578168,281.330186 -7.63531809,486.494026 88.6358482,441.342688 C101.580018,435.271851 118.53617,416.249491 139.504305,384.275609 C152.894574,386.09187 163.059806,387 170,387 Z" id="mastercompositionspace-path-3"/></defs><g id="Master/Composition/Space" stroke="none" stroke-width="1" fill="none" fill-rule="evenodd"><circle id="Oval" fill="#FFA9C4" cx="42" cy="371" r="42"/><ellipse id="Oval" fill="#AED5F8" cx="201" cy="275.5" rx="170" ry="169.5"/><polygon id="Polygon" fill="#7A8DFF" points="71 124 104 157 71 190 38 157"/><g id="Character-And-Mask" transform="translate(31.000000, 58.000000)"><mask id="mastercompositionspace-mask-2" fill="#fff"><use xlink:href="#mastercompositionspace-path-1"/></mask><use id="Mask" fill="#0007E9" opacity=".278" xlink:href="#mastercompositionspace-path-1"/><mask id="mastercompositionspace-mask-4" fill="#fff"><use xlink:href="#mastercompositionspace-path-3"/></mask><g id="Mask" opacity=".278"/><g mask="url(#mastercompositionspace-mask-4)"><g transform="translate(129.459178, 86.342688) rotate(-27.000000) translate(-129.459178, -86.342688) translate(26.459178, 11.342688) scale(1.5147058823529411 1.4423076923076923)" id="Head/Front"><g id="Head/Front/Curly" stroke="none" stroke-width="1" fill="none" fill-rule="evenodd"><g id="Head" transform="translate(54.000000, 31.000000)" fill="#57331f"><path d="M38.1433414,9.13393292 C43.9381521,19.9350547 43.249578,47.3329958 35.7603014,49.2634576 C32.773664,50.0333035 26.4113241,48.1475566 19.935865,44.2446031 L24,73 L0,73 L8.26160177,34.4893378 C3.65406109,29.0807313 0.535660132,22.452516 1.05677633,15.0254539 C2.55833022,-6.37502057 32.3485306,-1.66718886 38.1433414,9.13393292 Z" id="SKIN"/></g><path d="M102.7757,25.1604378 C102.27871,23.413499 100.941932,21.9177553 99.1403997,21.4740102 C98.7035309,21.3663739 98.2523568,21.3228991 97.8028308,21.3410245 C97.6415842,21.3474604 97.5963613,21.3939561 97.5210118,21.2811974 C97.4651095,21.197597 97.463857,20.9933574 97.44085,20.8951122 C97.3692581,20.5896064 97.2797352,20.2879096 97.169249,19.9940277 C96.7923038,18.9916772 96.1588538,18.1045809 95.3952068,17.3573001 C93.9668625,15.9592762 92.0369134,14.9944243 90.0318126,14.8198684 C88.9343996,14.7243814 87.8449632,14.9026807 86.8074738,15.2596732 C86.2703367,15.444474 85.7494825,15.6745884 85.2422083,15.9290015 C85.0894658,16.0055749 84.5939258,16.3806273 84.4406558,16.3563287 C84.2713667,16.3295345 83.9311403,15.9088402 83.793494,15.8032397 C82.0920984,14.4978789 79.9910802,13.9846529 77.8718674,14 C75.4798671,14.0180142 73.1765325,14.1375371 71.1815838,15.5957165 C70.7592838,15.9044402 70.3570902,16.2424535 69.974146,16.5983297 C69.7724889,16.7856917 69.5771603,16.9800806 69.3908631,17.1825471 C69.2784651,17.3046969 69.1690337,17.4296049 69.0636894,17.5578621 C68.8849074,17.7755645 68.9135837,17.8470813 68.6633416,17.6951821 C67.7032454,17.1118841 66.5906702,16.8390829 65.4700524,16.976797 C64.80463,17.0586242 64.1572045,17.2583982 63.5424765,17.5213485 C63.3331724,17.6108594 62.8487074,17.9679176 62.6256255,17.9713982 C62.4043234,17.9748132 61.9266485,17.6438267 61.6986882,17.5597009 C60.4674524,17.1051856 59.1403652,16.9931493 57.8462393,17.2031681 C56.5113072,17.4198854 55.1999755,17.9524847 54.068942,18.6884699 C53.524949,19.0425073 53.0503065,19.4347656 52.6690763,19.9611918 C52.5044676,20.1884823 52.3556804,20.4289072 52.1691195,20.6396484 C52.0598858,20.7630459 51.8435939,20.8896614 51.7849887,21.0458292 C51.8200595,20.9523124 50.3250675,20.3759756 50.1839932,20.3391337 C49.43241,20.1428403 48.6671149,20.1826375 47.9311554,20.4248355 C46.5472429,20.8802703 45.3570768,21.9016 44.3789178,22.9487388 C43.8765219,23.4865919 43.4368843,24.0811198 43.0636966,24.7145254 C42.8848487,25.0179297 42.7212948,25.3300027 42.5716506,25.6487085 C42.4991357,25.8031032 42.4510782,25.9962443 42.3555564,26.1353375 C42.232413,26.3145561 42.1496802,26.3179711 41.9266642,26.3961207 C40.7940485,26.7929104 39.7615692,27.4645372 38.9753108,28.3720574 C38.1800209,29.2902166 37.663979,30.42089 37.4476212,31.6115877 C37.4348981,31.6817253 37.427317,31.9723892 37.3862473,32.0103476 C37.3299494,32.0626224 37.1021869,32.0395059 37.0160261,32.0496194 C36.7176606,32.0846225 36.4214046,32.1367003 36.1291039,32.2059185 C35.5902528,32.3334534 35.0657729,32.5211438 34.5696396,32.7666254 C32.6356033,33.723531 31.2525478,35.5174909 30.5756549,37.5361144 C29.8654051,39.6545592 29.8779963,42.0815964 30.7268813,44.1605068 C30.8640002,44.4962873 31.0271586,44.8222171 31.2187955,45.1305467 C31.3364672,45.3198132 31.3744386,45.3202729 31.2980344,45.5188648 C31.2128624,45.7397851 31.0572852,45.9544667 30.9561599,46.1703303 C30.6262175,46.874793 30.3955544,47.6219424 30.2498656,48.3850501 C30.0108303,49.6368226 29.8923675,50.9522969 30.1281725,52.2135918 C30.2376699,52.799254 30.4284498,53.3717818 30.7194979,53.8934139 C30.8678896,54.1593852 31.0415297,54.411631 31.2375834,54.6449634 C31.3393678,54.7661281 31.4474808,54.881842 31.5605381,54.9926962 C31.6252081,55.0560039 31.7099845,55.111431 31.7649639,55.1821597 C31.8991823,55.3546142 31.9273971,55.2128285 31.8581785,55.4660594 C31.7614041,55.8200967 31.5420138,56.1694057 31.4076636,56.5139206 C31.2692262,56.868943 31.1441052,57.2288251 31.0296636,57.5922535 C30.7978799,58.3281731 30.6018921,59.077424 30.479342,59.8395467 C30.2439984,61.3027828 30.2853319,62.8618999 30.9774529,64.204825 C31.2733793,64.7792573 31.6979207,65.2831579 32.2128419,65.6751536 C32.4648638,65.8669157 32.7378492,66.0322119 33.0242168,66.1679557 C33.171356,66.2378307 33.3592353,66.2677771 33.4263445,66.4100881 C33.4985956,66.5631037 33.3913396,66.8669677 33.3668823,67.038043 C33.1540843,68.5263001 33.0473557,70.0888978 33.489762,71.5473398 C33.8972294,72.890659 34.7943696,74.0766939 35.9591555,74.8619331 C38.2187834,76.3851933 41.2646697,76.2992944 43.6389369,75.0798325 C44.257818,74.7619147 44.8368159,74.3672265 45.3533193,73.9016782 C46.6685404,75.6721932 49.3749915,75.6161751 51.2972276,75.1116834 C53.6920627,74.4832031 55.6137056,72.8179602 56.7208751,70.6300344 C58.2347869,72.4729856 61.411991,71.8750427 62.4618079,69.8757268 C62.718774,69.3864053 62.871187,68.8471075 62.9462069,68.3013738 C62.9856945,68.0143875 62.9605121,67.7249057 62.9901773,67.4402179 C63.0280168,67.0774462 63.2703482,66.7249193 63.4096426,66.3739686 C63.6809139,65.6909806 63.8493461,64.9854671 63.8565976,64.2487595 C63.8603552,63.8641191 63.8116384,63.4892637 63.7750514,63.1077099 C63.742156,62.7642457 63.8374141,62.4442264 63.8915365,62.105228 C63.277336,62.2063627 62.5290489,62.0407382 61.9503806,61.8626359 C61.3825236,61.6878829 60.8506603,61.2275884 60.4498511,60.8072225 C59.5192222,59.831075 58.950706,58.5514576 58.5618947,57.2778821 C57.7083952,54.4826224 58.0582462,51.1289544 60.8697779,49.5948583 C62.1795274,48.8802164 66.1033718,48.8825605 67.6633416,49.2357609 C69.3035816,49.6071356 71.1630595,53.2263842 71.25456,53.5665648 C71.3111875,53.7771089 71.282709,54.0376951 71.4761258,54.1779703 C71.9011945,54.4864314 72.6022151,53.9511395 72.9157428,53.6869414 C73.4567694,53.2309812 73.8426801,52.624304 74.1769075,52.0093522 C74.9051541,50.669645 75.4922605,49.2329403 75.9069794,47.7662893 C76.2267038,46.6355502 76.4311297,45.4695452 76.8490129,44.367636 C77.2648524,43.2711776 77.9203865,42.2911555 78.9396153,41.6700305 C80.048367,40.9943321 81.3192882,40.638456 82.5364825,40.2138213 C83.7429973,39.7929956 84.9286806,39.2786532 85.8639241,38.385712 C86.0695366,38.189353 86.269282,37.9807133 86.4348135,37.7495481 C86.5654721,37.5670459 86.6946144,37.2176712 86.8937005,37.1019573 C87.203207,36.9219506 87.6549084,37.39006 87.9225541,37.560019 C89.2429831,38.3986494 90.3446151,39.5682663 91.2331195,40.8459792 C92.1166797,42.1167309 92.841683,43.3394764 93.430833,44.7584496 C93.8678337,45.8108422 94.1405685,47.158627 94.9091597,48.0210964 C95.2522867,48.4061965 97.8028308,48.6391716 98.6289725,48.3029602 C99.4551141,47.9667489 100.380997,47.0937432 100.658267,46.5466304 C100.942129,45.9866459 101.009964,45.371497 100.888666,44.7584496 C100.817338,44.3977794 100.671649,44.0608825 100.591949,43.7066481 C100.52484,43.4090887 100.463927,43.1278158 100.319095,42.8552117 C100.044594,42.3386363 99.5756205,41.9673273 99.0100708,41.8120789 C99.5986275,41.2694318 100.086323,40.6202648 100.42378,39.8945901 C100.774422,39.1406764 101.071601,38.2238307 101.155916,37.3963645 C101.224476,36.7242781 101.11867,36.0279587 100.750756,35.4503742 C100.36478,34.844485 99.6810307,34.4492057 99.0894416,34.0712638 C99.9931082,33.3642399 100.766512,32.5043974 101.402335,31.5524173 C102.638845,29.7011258 103.403678,27.3675397 102.7757,25.1604378 Z" id="hair" fill="#2c1b18"/></g></g></g><g id="Character-Lower-Body" mask="url(#mastercompositionspace-mask-4)"><g transform="translate(-26.540822, 268.342688)"><polygon id="SKIN" fill="#57331f" points="201.893333 0 275.843003 179.84314 325.441353 331.885357 345.026667 331.885357 266.188356 7.36933529e-13"/><path d="M187.002386,0 C186.214928,63.1981144 174.730895,148.284118 172.896133,152.223566 C171.672959,154.849866 129.44701,188.247837 46.2182876,252.417479 L59.7078008,266.287878 C157.909983,211.27046 209.283232,180.092767 213.827545,172.7548 C220.644016,161.747848 242.836096,60.460441 260.653333,0 L187.002386,0 Z" id="SKIN" fill="#57331f"/><polygon id="Pant" fill="#191847" points="251.613333 316.225019 344.73206 306.51449 269.693333 4.11460731e-14 192.31707 4.11460731e-14"/><path d="M65.4796702,230.040024 L126.56,299.508545 C190.894595,231.993667 228.401833,187.940197 239.081711,167.348135 C249.76159,146.756073 259.362258,90.9733616 267.883714,0 L173.987073,0 C169.332221,80.0343953 166.194527,121.913789 164.573991,125.638181 C162.953454,129.362573 129.922014,164.163187 65.4796702,230.040024 Z" id="Pant" fill="#393f82"/></g></g><g mask="url(#mastercompositionspace-mask-4)"><g transform="translate(184.959178, 257.842688) rotate(-14.000000) translate(-184.959178, -257.842688) translate(-7.540822, 122.342688) scale(1.50390625 1.4491978609625669)" id="Body"><g id="Body/Pregnant" stroke="none" stroke-width="1" fill="none" fill-rule="evenodd"><path d="M113.111009,-8.52651283e-14 L141.101479,4.32798224 C141.101479,20.0687681 153.625725,34.7964415 161.54868,47.4680378 C173.864991,67.1661596 195.780651,88.999709 181.72922,118.263682 C169.06816,144.632022 136.088855,148.914077 82.7913029,131.10985 C82.7913029,116.907461 94.4646183,102.629645 94.8366189,85.3605479 C95.1907507,68.920961 98.2646824,19.1115353 111.093625,2.2864273 C111.326248,1.5282447 111.563504,0.765217279 111.80423,9.9475983e-14 L111.80423,9.9475983e-14 L112.691303,0.418 L113.111009,-8.52651283e-14 Z" id="Shirt" fill="#43d26c"/><path d="M145.863007,110.787221 C147.734877,101.126929 148.949202,94.6776016 149.505985,91.4392393 C164.417959,108.29011 173.032716,116.813278 175.350255,117.008742 C179.708836,117.37635 182.929474,113.51125 183.84651,114.597847 C185.362212,119.097853 181.081226,130.362106 172.89821,132 C168.990655,132.782127 162.94394,124.724092 160.45259,121.868948 C159.4727,120.745971 154.609505,117.052062 145.863007,110.787221 L145.863007,110.787221 Z M171.62123,59.2823205 C175.486784,59.2823205 177.563178,60.8804131 179.848781,64.1046411 C182.134384,67.328869 184.297191,82.5350373 180.6276,82.5350373 C176.958008,82.5350373 161.583419,76.656821 161.583419,72.7050102 C161.583419,68.7531993 172.074145,67.079644 172.074145,64.1046411 C172.074145,61.1296381 167.755676,59.2823205 171.62123,59.2823205 Z" id="SKIN" fill="#57331f"/><path d="M138.057487,125.486286 L137.935966,125.928309 C137.745928,126.608445 137.552872,127.299009 137.356799,128 C93.5573771,97.3881106 93.5398025,60.2906013 106.568062,18.7087836 C96.7470859,59.6450778 100.744221,94.1699488 138.057487,125.486286 Z" id="Shade" fill-opacity=".2" fill="#000"/></g></g></g></g><circle id="Oval" fill="#FFEBA9" cx="291" cy="442" r="42"/><polygon id="Polygon" fill="#2026A2" opacity=".399" points="294 82 302 90 294 98 286 90"/></g></svg>