<svg viewBox="106.13750000000005 90.82500000000005 1243.3249999999998 1120.1749999999997" fill="none" xmlns="http://www.w3.org/2000/svg" xmlns:xlink="http://www.w3.org/1999/xlink" overflow="visible" width="1243.3249999999998px" height="1120.1749999999997px"><g id="Master/Women Character/Standing"><g id="Women Lower" transform="translate(217 525) scale(1 1)"><g id="Women Lower/Lower 5"><g id="Lower"><g id="Group 20"><path id="Fill 1" fill-rule="evenodd" clip-rule="evenodd" d="M835.262 492.851C838.337 488.606 840.441 488.864 840.441 488.864L854.417 509.257C855.993 511.557 855.886 514.608 854.142 516.784C848.89 523.335 836.733 537.397 820.029 549.84C797.341 566.741 778.36 567.36 770.098 571.076C764.469 573.607 760.989 579.7 759.342 583.327C758.447 585.297 757.001 586.955 755.182 588.128L715.77 613.559C714.517 614.367 712.847 614.006 712.039 612.754L689.958 578.533L694.526 570.093L835.262 492.851Z" fill="#FFA600"/><path id="Fill 3" fill-rule="evenodd" clip-rule="evenodd" d="M622.97 474.464C622.97 474.464 662.866 517.523 668.02 527.763C673.174 538.004 677.247 545.067 679.907 555.947C682.567 566.828 687.986 574.476 694.177 575.811C701.438 573.548 734.593 550.108 765.498 541.42C803.64 530.698 836.94 491.446 836.94 491.446C836.94 491.446 827.526 479.11 815.012 485.246C802.497 491.383 776.841 507.938 745.631 495.612C714.422 483.287 704.268 467.551 704.268 467.551L675.442 431.886L665.893 439.385C663.459 441.297 662.053 444.189 661.893 447.279C661.794 449.201 661.345 451.233 660.042 452.266L643.854 465.097C642.042 466.534 638.608 466.498 636.165 466.243C634.304 466.049 632.441 466.588 631.002 467.785L622.97 474.464Z" fill="#FF4A00"/><path id="Fill 5" fill-rule="evenodd" clip-rule="evenodd" d="M641.539 466.197L679.507 511.612C681.218 513.659 684.252 513.961 686.333 512.293L699.132 502.032C701.38 500.229 701.696 496.927 699.831 494.731L661.586 449.709L641.539 466.197Z" fill="#F84300"/><path id="Fill 7" fill-rule="evenodd" clip-rule="evenodd" d="M749.902 585.016C749.862 585.288 749.704 585.538 749.448 585.687L716.434 604.843C715.987 605.102 715.417 604.951 715.159 604.505C714.899 604.06 715.053 603.491 715.497 603.233L748.512 584.076C748.958 583.818 749.528 583.969 749.786 584.414C749.896 584.604 749.931 584.816 749.902 585.016" fill="white"/><g id="Group 11"><mask id="mask05d2178f9-c932-453e-99d7-20f9417bd8ae" mask-type="alpha" maskUnits="userSpaceOnUse" x="-98" y="532" width="148" height="151" fill="#ffffff"><path id="Clip 10" fill-rule="evenodd" clip-rule="evenodd" d="M-97.9995 532.854H49.9331V682.016H-97.9995V532.854Z" fill="#ffffff"/></mask><g mask="url(#mask05d2178f9-c932-453e-99d7-20f9417bd8ae)"><path id="Fill 9" fill-rule="evenodd" clip-rule="evenodd" d="M44.9881 658.026C49.7631 660.187 49.9331 662.299 49.9331 662.299L32.7571 680.081C30.8201 682.087 27.8091 682.593 25.3281 681.321C17.8561 677.49 1.64213 668.399 -13.8979 654.53C-35.0049 635.691 -39.4169 617.219 -44.7149 609.871C-48.3229 604.865 -54.9899 602.676 -58.8729 601.791C-60.9839 601.308 -62.8979 600.225 -64.4119 598.678L-97.2289 565.166C-98.2719 564.101 -98.2539 562.392 -97.1889 561.349L-68.0909 532.854L-58.9069 535.637L44.9881 658.026Z" fill="#FFA600"/></g></g><path id="Fill 12" fill-rule="evenodd" clip-rule="evenodd" d="M20.4314 446.357C20.4314 446.357 -13.7526 494.077 -22.7516 501.18C-31.7506 508.283 -37.8526 513.689 -47.9796 518.477C-58.1056 523.265 -64.5106 530.108 -64.5776 536.441C-60.9046 543.101 -31.2916 570.88 -16.5836 599.417C1.56936 634.634 46.7014 659.386 46.7014 659.386C46.7014 659.386 56.8994 647.689 48.3784 636.66C39.8574 625.63 18.4944 603.815 24.3104 570.768C30.1264 537.721 43.5064 524.618 43.5064 524.618L72.6674 489.224L63.4054 481.375C61.0444 479.373 57.9294 478.576 54.8684 479.039C52.9664 479.327 50.8864 479.294 49.6134 478.224L33.7964 464.939C32.0244 463.451 31.3704 460.08 31.1314 457.636C30.9484 455.773 30.0464 454.057 28.5854 452.886L20.4314 446.357Z" fill="#FF4A00"/><path id="Fill 14" fill-rule="evenodd" clip-rule="evenodd" d="M32.2542 462.892L-4.62475 509.196C-6.28675 511.283 -5.97475 514.315 -3.92275 516.019L8.69625 526.5C10.9122 528.342 14.2112 527.99 15.9882 525.721L52.4272 479.225L32.2542 462.892Z" fill="#4554A4"/><path id="Fill 18" fill-rule="evenodd" clip-rule="evenodd" d="M365.026 274.216C342.327 305.007 322.257 340.283 296.025 368.125C273.27 392.278 240.255 403.218 211.607 419.962C147.799 457.256 68.6534 585.318 68.6534 585.318C70.5444 582.151 -72.3936 500.239 -72.3936 500.239C-68.4326 478.422 -51.1736 461.447 -32.8296 448.988C-14.4876 436.529 5.96445 426.864 22.0624 411.616C47.1484 387.855 58.8905 353.279 80.7455 326.517C99.5085 303.541 125.169 287.075 152.086 274.611C177.233 262.965 204.459 254.081 225 235.48C236.823 224.773 239.037 191.75 247.897 178.486" fill="#E6A8CC"/></g><g id="Group 33"><g id="Group 23"><mask id="mask15d2178f9-c932-453e-99d7-20f9417bd8ae" mask-type="alpha" maskUnits="userSpaceOnUse" x="-74" y="179" width="440" height="406" fill="#ffffff"><path id="Clip 22" fill-rule="evenodd" clip-rule="evenodd" d="M226.197 236.082C205.484 254.494 178.178 263.126 152.924 274.538V274.538C125.893 286.755 100.082 302.984 81.1071 325.784V325.784C59.0061 352.343 46.9441 386.809 21.6411 410.338V410.338C5.40309 425.438 -15.1379 434.913 -33.5939 447.202V447.202C-52.0509 459.491 -69.4669 476.306 -73.6289 498.086V498.086L-70.6629 502.213C-26.5809 526.812 17.5011 551.41 61.5831 576.009V576.009C64.2631 577.505 67.3031 580.183 67.1451 582.854V582.854C106.049 520.857 147.632 456.747 211.1 420.434V420.434C239.901 403.954 273.017 393.319 295.994 369.379V369.379C322.482 341.779 342.877 306.691 365.859 276.111V276.111L249.619 179.303C240.637 192.484 238.118 225.486 226.197 236.082V236.082ZM65.8951 584.847L66.6271 584.462C66.9501 583.933 67.1121 583.394 67.1451 582.854V582.854C66.7271 583.519 66.3121 584.182 65.8951 584.847V584.847Z" fill="#ffffff"/></mask><g mask="url(#mask15d2178f9-c932-453e-99d7-20f9417bd8ae)"><path id="Fill 21" fill-rule="evenodd" clip-rule="evenodd" d="M71.1205 446.528L54.7525 468.873L82.0915 473.326L56.2405 483.275L76.8315 501.801L49.7055 496.195L57.0125 522.913L37.2245 503.531L28.9255 529.958L22.7575 502.955L1.48852 520.7L10.8985 494.648L-16.5875 498.078L5.41252 481.249L-19.5635 469.274L8.04252 467.011L-6.49448 443.434L17.9525 456.456L18.4695 428.761L31.9955 452.933L47.4035 429.915L45.7145 457.562L71.1205 446.528Z" fill="#DA7627"/></g></g><g id="Group 26"><mask id="mask25d2178f9-c932-453e-99d7-20f9417bd8ae" mask-type="alpha" maskUnits="userSpaceOnUse" x="-74" y="179" width="440" height="406" fill="#ffffff"><path id="Clip 25" fill-rule="evenodd" clip-rule="evenodd" d="M226.197 236.082C205.484 254.494 178.178 263.126 152.924 274.538V274.538C125.893 286.755 100.082 302.984 81.1071 325.784V325.784C59.0061 352.343 46.9441 386.809 21.6411 410.338V410.338C5.40309 425.438 -15.1379 434.913 -33.5939 447.202V447.202C-52.0509 459.491 -69.4669 476.306 -73.6289 498.086V498.086L-70.6629 502.213C-26.5809 526.812 17.5011 551.41 61.5831 576.009V576.009C64.2631 577.505 67.3031 580.183 67.1451 582.854V582.854C106.049 520.857 147.632 456.747 211.1 420.434V420.434C239.901 403.954 273.017 393.319 295.994 369.379V369.379C322.482 341.779 342.877 306.691 365.859 276.111V276.111L249.619 179.303C240.637 192.484 238.118 225.486 226.197 236.082V236.082ZM65.8951 584.847L66.6271 584.462C66.9501 583.933 67.1121 583.394 67.1451 582.854V582.854C66.7271 583.519 66.3121 584.182 65.8951 584.847V584.847Z" fill="#ffffff"/></mask><g mask="url(#mask25d2178f9-c932-453e-99d7-20f9417bd8ae)"><path id="Fill 24" fill-rule="evenodd" clip-rule="evenodd" d="M223.321 233.284L212.425 248.159L230.624 251.123L213.415 257.746L227.123 270.079L209.066 266.347L213.929 284.133L200.756 271.23L195.232 288.822L191.126 270.847L176.967 282.659L183.232 265.317L164.935 267.6L179.58 256.397L162.953 248.426L181.331 246.92L171.653 231.224L187.927 239.892L188.272 221.457L197.276 237.548L207.532 222.224L206.408 240.629L223.321 233.284Z" fill="#DA7627"/></g></g><g id="Group 29"><mask id="mask35d2178f9-c932-453e-99d7-20f9417bd8ae" mask-type="alpha" maskUnits="userSpaceOnUse" x="-74" y="179" width="440" height="406" fill="#ffffff"><path id="Clip 28" fill-rule="evenodd" clip-rule="evenodd" d="M226.197 236.082C205.484 254.494 178.178 263.126 152.924 274.538V274.538C125.893 286.755 100.082 302.984 81.1071 325.784V325.784C59.0061 352.343 46.9441 386.809 21.6411 410.338V410.338C5.40309 425.438 -15.1379 434.913 -33.5939 447.202V447.202C-52.0509 459.491 -69.4669 476.306 -73.6289 498.086V498.086L-70.6629 502.213C-26.5809 526.812 17.5011 551.41 61.5831 576.009V576.009C64.2631 577.505 67.3031 580.183 67.1451 582.854V582.854C106.049 520.857 147.632 456.747 211.1 420.434V420.434C239.901 403.954 273.017 393.319 295.994 369.379V369.379C322.482 341.779 342.877 306.691 365.859 276.111V276.111L249.619 179.303C240.637 192.484 238.118 225.486 226.197 236.082V236.082ZM65.8951 584.847L66.6271 584.462C66.9501 583.933 67.1121 583.394 67.1451 582.854V582.854C66.7271 583.519 66.3121 584.182 65.8951 584.847V584.847Z" fill="#ffffff"/></mask><g mask="url(#mask35d2178f9-c932-453e-99d7-20f9417bd8ae)"><path id="Fill 27" fill-rule="evenodd" clip-rule="evenodd" d="M280.939 368.011L255.335 402.964L298.099 409.929L257.663 425.491L289.873 454.471L247.442 445.701L258.871 487.494L227.917 457.177L214.937 498.514L205.288 456.275L172.019 484.032L186.738 443.282L143.744 448.647L178.158 422.323L139.089 403.591L182.271 400.051L159.531 363.171L197.772 383.54L198.581 340.22L219.739 378.03L243.84 342.024L241.198 385.271L280.939 368.011Z" fill="#DA7627"/></g></g><g id="Group 32"><mask id="mask45d2178f9-c932-453e-99d7-20f9417bd8ae" mask-type="alpha" maskUnits="userSpaceOnUse" x="-74" y="179" width="440" height="406" fill="#ffffff"><path id="Clip 31" fill-rule="evenodd" clip-rule="evenodd" d="M226.197 236.082C205.484 254.494 178.178 263.126 152.924 274.538V274.538C125.893 286.755 100.082 302.984 81.1071 325.784V325.784C59.0061 352.343 46.9441 386.809 21.6411 410.338V410.338C5.40309 425.438 -15.1379 434.913 -33.5939 447.202V447.202C-52.0509 459.491 -69.4669 476.306 -73.6289 498.086V498.086L-70.6629 502.213C-26.5809 526.812 17.5011 551.41 61.5831 576.009V576.009C64.2631 577.505 67.3031 580.183 67.1451 582.854V582.854C106.049 520.857 147.632 456.747 211.1 420.434V420.434C239.901 403.954 273.017 393.319 295.994 369.379V369.379C322.482 341.779 342.877 306.691 365.859 276.111V276.111L249.619 179.303C240.637 192.484 238.118 225.486 226.197 236.082V236.082ZM65.8951 584.847L66.6271 584.462C66.9501 583.933 67.1121 583.394 67.1451 582.854V582.854C66.7271 583.519 66.3121 584.182 65.8951 584.847V584.847Z" fill="#ffffff"/></mask><g mask="url(#mask45d2178f9-c932-453e-99d7-20f9417bd8ae)"><path id="Fill 30" fill-rule="evenodd" clip-rule="evenodd" d="M94.2342 303.792L89.4322 315.707L102.229 314.583L91.7472 322.01L103.121 327.982L90.2882 328.564L96.6262 339.737L85.5162 333.289L84.8082 346.115L78.9482 334.684L71.4172 345.091L72.6682 332.306L60.7062 336.99L68.6712 326.91L56.0752 324.384L68.2252 320.211L58.9952 311.275L71.4722 314.333L68.5382 301.826L77.3812 311.145L81.6742 299.036L84.0762 311.656L94.2342 303.792Z" fill="#DA7627"/></g></g></g><path id="Fill 34" fill-rule="evenodd" clip-rule="evenodd" d="M445.614 164.43L446.58 165.32C446.257 165.128 445.936 164.934 445.614 164.741V164.43ZM564.267 279.539C553.218 263.058 546.172 244.066 534.302 228.165C514.525 201.675 483.925 186.7 454.934 170.169C450.119 125.384 446.572 -0.144545 446.572 -0.144545L243.322 -1.25854C225.306 33.8355 221.189 71.2855 223.957 110.637C226.725 149.988 242.878 188.863 271.334 216.184C305.651 249.135 355.303 263.929 385.925 300.339C408.043 326.638 417.599 361.217 436.531 389.895C452.093 413.468 474.037 432.784 499.395 445.229C525.757 458.167 556.444 464.334 577.472 484.832C598.048 504.888 606.023 535.748 628.154 554.074L741.793 423.092C700.474 358.3 607.057 343.369 564.267 279.539V279.539Z" fill="#EFBBD6"/><g id="Group 63"><g id="Group 38"><mask id="mask55d2178f9-c932-453e-99d7-20f9417bd8ae" mask-type="alpha" maskUnits="userSpaceOnUse" x="222" y="-2" width="520" height="558" fill="#ffffff"><path id="Clip 37" fill-rule="evenodd" clip-rule="evenodd" d="M240.127 -1.99902C222.113 33.094 221.08 72.768 223.847 112.119V112.119C226.616 151.471 242.769 190.346 271.224 217.667V217.667C305.542 250.618 355.193 265.412 385.816 301.822V301.822C407.933 328.121 417.49 362.701 436.422 391.378V391.378C451.984 414.951 473.927 434.268 499.286 446.712V446.712C525.648 459.649 556.334 465.817 577.363 486.315V486.315C597.938 506.371 605.913 537.231 628.044 555.555V555.555L741.683 424.576C700.365 359.784 606.948 344.853 564.158 281.023V281.023C553.109 264.541 546.062 245.548 534.192 229.648V229.648C514.416 203.158 483.816 188.182 454.825 171.651V171.651C450.01 126.867 446.197 -0.144023 446.197 -0.144023V-0.144023M445.505 166.223V165.912L446.47 166.803C446.147 166.611 445.827 166.416 445.505 166.223" fill="#ffffff"/></mask><g mask="url(#mask55d2178f9-c932-453e-99d7-20f9417bd8ae)"><path id="Fill 36" fill-rule="evenodd" clip-rule="evenodd" d="M574.499 107.823C574.29 107.737 574.081 107.651 573.871 107.565C573.919 107.505 573.999 107.386 574.012 107.392C574.206 107.496 574.39 107.616 574.577 107.732C574.578 107.732 574.499 107.823 574.499 107.823" fill="#FDFEFF"/></g></g><g id="Group 41"><mask id="mask65d2178f9-c932-453e-99d7-20f9417bd8ae" mask-type="alpha" maskUnits="userSpaceOnUse" x="222" y="-2" width="520" height="558" fill="#ffffff"><path id="Clip 40" fill-rule="evenodd" clip-rule="evenodd" d="M240.127 -1.99902C222.113 33.094 221.08 72.768 223.847 112.119V112.119C226.616 151.471 242.769 190.346 271.224 217.667V217.667C305.542 250.618 355.193 265.412 385.816 301.822V301.822C407.933 328.121 417.49 362.701 436.422 391.378V391.378C451.984 414.951 473.927 434.268 499.286 446.712V446.712C525.648 459.649 556.334 465.817 577.363 486.315V486.315C597.938 506.371 605.913 537.231 628.044 555.555V555.555L741.683 424.576C700.365 359.784 606.948 344.853 564.158 281.023V281.023C553.109 264.541 546.062 245.548 534.192 229.648V229.648C514.416 203.158 483.816 188.182 454.825 171.651V171.651C450.01 126.867 446.197 -0.144023 446.197 -0.144023V-0.144023M445.505 166.223V165.912L446.47 166.803C446.147 166.611 445.827 166.416 445.505 166.223" fill="#ffffff"/></mask><g mask="url(#mask65d2178f9-c932-453e-99d7-20f9417bd8ae)"><path id="Fill 39" fill-rule="evenodd" clip-rule="evenodd" d="M572.111 114.574L571.74 114.026C571.806 113.983 571.872 113.94 571.938 113.897C572.004 114.115 572.07 114.334 572.137 114.553C572.137 114.552 572.111 114.574 572.111 114.574" fill="#FDFEFF"/></g></g><g id="Group 44"><mask id="mask75d2178f9-c932-453e-99d7-20f9417bd8ae" mask-type="alpha" maskUnits="userSpaceOnUse" x="222" y="-2" width="520" height="558" fill="#ffffff"><path id="Clip 43" fill-rule="evenodd" clip-rule="evenodd" d="M240.127 -1.99902C222.113 33.094 221.08 72.768 223.847 112.119V112.119C226.616 151.471 242.769 190.346 271.224 217.667V217.667C305.542 250.618 355.193 265.412 385.816 301.822V301.822C407.933 328.121 417.49 362.701 436.422 391.378V391.378C451.984 414.951 473.927 434.268 499.286 446.712V446.712C525.648 459.649 556.334 465.817 577.363 486.315V486.315C597.938 506.371 605.913 537.231 628.044 555.555V555.555L741.683 424.576C700.365 359.784 606.948 344.853 564.158 281.023V281.023C553.109 264.541 546.062 245.548 534.192 229.648V229.648C514.416 203.158 483.816 188.182 454.825 171.651V171.651C450.01 126.867 446.197 -0.144023 446.197 -0.144023V-0.144023L240.127 -1.99902ZM445.505 166.223V165.912L446.47 166.803C446.147 166.611 445.827 166.416 445.505 166.223V166.223Z" fill="#ffffff"/></mask><g mask="url(#mask75d2178f9-c932-453e-99d7-20f9417bd8ae)"><path id="Fill 42" fill-rule="evenodd" clip-rule="evenodd" d="M741.933 423.967L715.664 460.53L760.166 467.359L718.299 483.916L752.045 513.719L707.873 505.014L720.149 548.329L687.695 517.125L674.604 560.201L664.173 516.405L629.871 545.566L644.774 503.082L600.152 509.069L635.658 481.386L594.883 462.298L639.718 458.205L615.736 420.103L655.666 440.901L656.091 395.88L678.438 434.964L703.135 397.321L700.805 442.282L741.933 423.967Z" fill="#FFA600"/></g></g><g id="Group 47"><mask id="mask85d2178f9-c932-453e-99d7-20f9417bd8ae" mask-type="alpha" maskUnits="userSpaceOnUse" x="222" y="-2" width="520" height="558" fill="#ffffff"><path id="Clip 46" fill-rule="evenodd" clip-rule="evenodd" d="M240.127 -1.99902C222.113 33.094 221.08 72.768 223.847 112.119V112.119C226.616 151.471 242.769 190.346 271.224 217.667V217.667C305.542 250.618 355.193 265.412 385.816 301.822V301.822C407.933 328.121 417.49 362.701 436.422 391.378V391.378C451.984 414.951 473.927 434.268 499.286 446.712V446.712C525.648 459.649 556.334 465.817 577.363 486.315V486.315C597.938 506.371 605.913 537.231 628.044 555.555V555.555L741.683 424.576C700.365 359.784 606.948 344.853 564.158 281.023V281.023C553.109 264.541 546.062 245.548 534.192 229.648V229.648C514.416 203.158 483.816 188.182 454.825 171.651V171.651C450.01 126.867 446.197 -0.144023 446.197 -0.144023V-0.144023L240.127 -1.99902ZM445.505 166.223V165.912L446.47 166.803C446.147 166.611 445.827 166.416 445.505 166.223V166.223Z" fill="#ffffff"/></mask><g mask="url(#mask85d2178f9-c932-453e-99d7-20f9417bd8ae)"><path id="Fill 45" fill-rule="evenodd" clip-rule="evenodd" d="M420.364 148.854L398.532 179.244L435.518 184.917L400.721 198.679L428.768 223.45L392.056 216.214L402.259 252.215L375.286 226.28L364.406 262.083L355.736 225.681L327.227 249.917L339.613 214.609L302.527 219.584L332.036 196.577L298.147 180.712L335.411 177.311L315.479 145.643L348.666 162.928L349.019 125.511L367.593 157.995L388.118 126.708L386.182 164.077L420.364 148.854Z" fill="#FFA600"/></g></g><g id="Group 50"><mask id="mask95d2178f9-c932-453e-99d7-20f9417bd8ae" mask-type="alpha" maskUnits="userSpaceOnUse" x="222" y="-2" width="520" height="558" fill="#ffffff"><path id="Clip 49" fill-rule="evenodd" clip-rule="evenodd" d="M240.127 -1.99902C222.113 33.094 221.08 72.768 223.847 112.119V112.119C226.616 151.471 242.769 190.346 271.224 217.667V217.667C305.542 250.618 355.193 265.412 385.816 301.822V301.822C407.933 328.121 417.49 362.701 436.422 391.378V391.378C451.984 414.951 473.927 434.268 499.286 446.712V446.712C525.648 459.649 556.334 465.817 577.363 486.315V486.315C597.938 506.371 605.913 537.231 628.044 555.555V555.555L741.683 424.576C700.365 359.784 606.948 344.853 564.158 281.023V281.023C553.109 264.541 546.062 245.548 534.192 229.648V229.648C514.416 203.158 483.816 188.182 454.825 171.651V171.651C450.01 126.867 446.197 -0.144023 446.197 -0.144023V-0.144023L240.127 -1.99902ZM445.505 166.223V165.912L446.47 166.803C446.147 166.611 445.827 166.416 445.505 166.223V166.223Z" fill="#ffffff"/></mask><g mask="url(#mask95d2178f9-c932-453e-99d7-20f9417bd8ae)"><path id="Fill 48" fill-rule="evenodd" clip-rule="evenodd" d="M557.483 212.229L546.724 227.204L564.95 230L547.803 236.781L561.624 248.987L543.533 245.421L548.561 263.162L535.27 250.381L529.908 268.024L525.636 250.086L511.587 262.03L517.691 244.63L499.416 247.083L513.957 235.745L497.258 227.927L515.62 226.251L505.798 210.646L522.152 219.164L522.326 200.726L531.479 216.733L541.593 201.316L540.639 219.73L557.483 212.229Z" fill="#FFA600"/></g></g><g id="Group 53"><mask id="mask105d2178f9-c932-453e-99d7-20f9417bd8ae" mask-type="alpha" maskUnits="userSpaceOnUse" x="222" y="-2" width="520" height="558" fill="#ffffff"><path id="Clip 52" fill-rule="evenodd" clip-rule="evenodd" d="M240.127 -1.99902C222.113 33.094 221.08 72.768 223.847 112.119V112.119C226.616 151.471 242.769 190.346 271.224 217.667V217.667C305.542 250.618 355.193 265.412 385.816 301.822V301.822C407.933 328.121 417.49 362.701 436.422 391.378V391.378C451.984 414.951 473.927 434.268 499.286 446.712V446.712C525.648 459.649 556.334 465.817 577.363 486.315V486.315C597.938 506.371 605.913 537.231 628.044 555.555V555.555L741.683 424.576C700.365 359.784 606.948 344.853 564.158 281.023V281.023C553.109 264.541 546.062 245.548 534.192 229.648V229.648C514.416 203.158 483.816 188.182 454.825 171.651V171.651C450.01 126.867 446.197 -0.144023 446.197 -0.144023V-0.144023L240.127 -1.99902ZM445.505 166.223V165.912L446.47 166.803C446.147 166.611 445.827 166.416 445.505 166.223V166.223Z" fill="#ffffff"/></mask><g mask="url(#mask105d2178f9-c932-453e-99d7-20f9417bd8ae)"><path id="Fill 51" fill-rule="evenodd" clip-rule="evenodd" d="M310.023 55.3409L299.265 70.3159L317.49 73.1119L300.344 79.8939L314.165 92.0989L296.074 88.5339L301.102 106.275L287.81 93.4939L282.448 111.137L278.176 93.1989L264.128 105.142L270.231 87.7419L251.956 90.1949L266.498 78.8579L249.798 71.0389L268.161 69.3629L258.339 53.7589L274.692 62.2769L274.866 43.8379L284.019 59.8449L294.133 44.4279L293.179 62.8419L310.023 55.3409Z" fill="#FFA600"/></g></g><g id="Group 56"><mask id="mask115d2178f9-c932-453e-99d7-20f9417bd8ae" mask-type="alpha" maskUnits="userSpaceOnUse" x="222" y="-2" width="520" height="558" fill="#ffffff"><path id="Clip 55" fill-rule="evenodd" clip-rule="evenodd" d="M240.127 -1.99902C222.113 33.094 221.08 72.768 223.847 112.119V112.119C226.616 151.471 242.769 190.346 271.224 217.667V217.667C305.542 250.618 355.193 265.412 385.816 301.822V301.822C407.933 328.121 417.49 362.701 436.422 391.378V391.378C451.984 414.951 473.927 434.268 499.286 446.712V446.712C525.648 459.649 556.334 465.817 577.363 486.315V486.315C597.938 506.371 605.913 537.231 628.044 555.555V555.555L741.683 424.576C700.365 359.784 606.948 344.853 564.158 281.023V281.023C553.109 264.541 546.062 245.548 534.192 229.648V229.648C514.416 203.158 483.816 188.182 454.825 171.651V171.651C450.01 126.867 446.197 -0.144023 446.197 -0.144023V-0.144023L240.127 -1.99902ZM445.505 166.223V165.912L446.47 166.803C446.147 166.611 445.827 166.416 445.505 166.223V166.223Z" fill="#ffffff"/></mask><g mask="url(#mask115d2178f9-c932-453e-99d7-20f9417bd8ae)"><path id="Fill 54" fill-rule="evenodd" clip-rule="evenodd" d="M498.95 353.926L480.688 379.346L511.626 384.092L482.52 395.604L505.98 416.323L475.271 410.271L483.805 440.385L461.243 418.691L452.142 448.639L444.89 418.191L421.043 438.463L431.404 408.928L400.382 413.09L425.066 393.845L396.719 380.574L427.888 377.73L411.216 351.239L438.976 365.698L439.271 334.4L454.808 361.572L471.977 335.402L470.357 366.659L498.95 353.926Z" fill="#FFA600"/></g></g><g id="Group 59"><mask id="mask125d2178f9-c932-453e-99d7-20f9417bd8ae" mask-type="alpha" maskUnits="userSpaceOnUse" x="222" y="-2" width="520" height="558" fill="#ffffff"><path id="Clip 58" fill-rule="evenodd" clip-rule="evenodd" d="M240.127 -1.99902C222.113 33.094 221.08 72.768 223.847 112.119V112.119C226.616 151.471 242.769 190.346 271.224 217.667V217.667C305.542 250.618 355.193 265.412 385.816 301.822V301.822C407.933 328.121 417.49 362.701 436.422 391.378V391.378C451.984 414.951 473.927 434.268 499.286 446.712V446.712C525.648 459.649 556.334 465.817 577.363 486.315V486.315C597.938 506.371 605.913 537.231 628.044 555.555V555.555L741.683 424.576C700.365 359.784 606.948 344.853 564.158 281.023V281.023C553.109 264.541 546.062 245.548 534.192 229.648V229.648C514.416 203.158 483.816 188.182 454.825 171.651V171.651C450.01 126.867 446.197 -0.144023 446.197 -0.144023V-0.144023L240.127 -1.99902ZM445.505 166.223V165.912L446.47 166.803C446.147 166.611 445.827 166.416 445.505 166.223V166.223Z" fill="#ffffff"/></mask><g mask="url(#mask125d2178f9-c932-453e-99d7-20f9417bd8ae)"><path id="Fill 57" fill-rule="evenodd" clip-rule="evenodd" d="M482.895 28.9023L472.139 56.3173L501.45 53.4693L477.58 70.7163L503.778 84.1683L474.373 85.7723L489.14 111.253L463.534 96.7043L462.182 126.123L448.507 100.041L431.464 124.058L434.061 94.7233L406.739 105.714L424.783 82.4393L395.856 76.9143L423.619 67.0903L402.272 46.8033L430.938 53.5483L423.948 24.9403L444.417 46.1133L454.003 18.2673L459.776 47.1453L482.895 28.9023Z" fill="#FFA600"/></g></g><g id="Group 62"><mask id="mask135d2178f9-c932-453e-99d7-20f9417bd8ae" mask-type="alpha" maskUnits="userSpaceOnUse" x="222" y="-2" width="520" height="558" fill="#ffffff"><path id="Clip 61" fill-rule="evenodd" clip-rule="evenodd" d="M240.127 -1.99902C222.113 33.094 221.08 72.768 223.847 112.119V112.119C226.616 151.471 242.769 190.346 271.224 217.667V217.667C305.542 250.618 355.193 265.412 385.816 301.822V301.822C407.933 328.121 417.49 362.701 436.422 391.378V391.378C451.984 414.951 473.927 434.268 499.286 446.712V446.712C525.648 459.649 556.334 465.817 577.363 486.315V486.315C597.938 506.371 605.913 537.231 628.044 555.555V555.555L741.683 424.576C700.365 359.784 606.948 344.853 564.158 281.023V281.023C553.109 264.541 546.062 245.548 534.192 229.648V229.648C514.416 203.158 483.816 188.182 454.825 171.651V171.651C450.01 126.867 446.197 -0.144023 446.197 -0.144023V-0.144023L240.127 -1.99902ZM445.505 166.223V165.912L446.47 166.803C446.147 166.611 445.827 166.416 445.505 166.223V166.223Z" fill="#ffffff"/></mask><g mask="url(#mask135d2178f9-c932-453e-99d7-20f9417bd8ae)"><path id="Fill 60" fill-rule="evenodd" clip-rule="evenodd" d="M599.191 342.898L594.499 354.856L607.285 353.614L596.873 361.138L608.301 367.005L595.474 367.706L601.915 378.82L590.746 372.473L590.156 385.306L584.191 373.929L576.756 384.406L577.889 371.61L565.971 376.404L573.842 366.252L561.224 363.841L573.335 359.555L564.023 350.707L576.527 353.648L573.478 341.169L582.407 350.405L586.588 338.258L589.107 350.855L599.191 342.898Z" fill="#FFA600"/></g></g></g><g id="Group 74"><path id="Fill 64" fill-rule="evenodd" clip-rule="evenodd" d="M454.824 151.341C454.602 151.341 454.378 151.268 454.193 151.116L385.229 94.8807C384.801 94.5307 384.737 93.9017 385.086 93.4737C385.436 93.0457 386.066 92.9817 386.493 93.3297L455.456 149.566C455.885 149.915 455.949 150.545 455.599 150.973C455.402 151.215 455.114 151.341 454.824 151.341" fill="white"/><path id="Fill 66" fill-rule="evenodd" clip-rule="evenodd" d="M330.676 258.322C330.555 258.322 330.432 258.301 330.313 258.254C294.48 244.257 262.136 210.485 261.814 210.145C261.433 209.745 261.449 209.112 261.85 208.732C262.251 208.351 262.883 208.367 263.264 208.768C263.583 209.104 295.629 242.558 331.04 256.39C331.555 256.592 331.809 257.172 331.608 257.686C331.454 258.081 331.076 258.322 330.676 258.322" fill="white"/><path id="Fill 68" fill-rule="evenodd" clip-rule="evenodd" d="M634.196 524.677C633.961 524.677 633.724 524.594 633.534 524.426C633.12 524.06 633.082 523.428 633.447 523.014L715.663 430.1C716.029 429.688 716.661 429.649 717.075 430.014C717.488 430.38 717.527 431.012 717.161 431.426L634.946 524.34C634.748 524.563 634.472 524.677 634.196 524.677" fill="white"/><path id="Fill 70" fill-rule="evenodd" clip-rule="evenodd" d="M558.738 312.382C558.215 312.382 557.775 311.975 557.741 311.445C555.526 276.559 542.742 246.115 542.613 245.812C542.397 245.304 542.634 244.717 543.142 244.501C543.653 244.284 544.238 244.522 544.454 245.03C544.584 245.336 557.5 276.079 559.737 311.319C559.772 311.87 559.354 312.345 558.802 312.38C558.781 312.381 558.759 312.382 558.738 312.382" fill="white"/><path id="Fill 72" fill-rule="evenodd" clip-rule="evenodd" d="M130.206 458.229C129.872 458.229 129.545 458.062 129.356 457.757C129.064 457.289 129.208 456.671 129.677 456.38C129.931 456.221 155.623 440.391 198.608 426.992C199.131 426.831 199.696 427.123 199.86 427.649C200.025 428.176 199.73 428.737 199.203 428.902C156.482 442.218 130.986 457.921 130.733 458.078C130.569 458.18 130.386 458.229 130.206 458.229" fill="white"/></g></g></g></g><g id="Women Upper" transform="translate(219.5 -227) scale(1 1)"><g id="Women Upper/Upper 5"><g id="Upper"><path id="Fill 1" fill-rule="evenodd" clip-rule="evenodd" d="M1113.05 690.33L1064.98 607.549C1068.29 600.741 1072.07 593.062 1076.39 584.429C1039.73 559.99 780.221 422.191 780.221 422.191L729.802 539.987L1042.2 653.091L1034.3 669.964L1113.05 690.33Z" fill="#757BBB"/><path id="Fill 3" fill-rule="evenodd" clip-rule="evenodd" d="M1035.66 670.964C1035.52 670.964 1035.37 670.935 1035.24 670.873C1034.74 670.643 1034.52 670.049 1034.75 669.547L1057.15 620.67C1057.38 620.167 1057.97 619.948 1058.47 620.177C1058.98 620.408 1059.2 621.001 1058.97 621.503L1036.57 670.381C1036.4 670.748 1036.03 670.964 1035.66 670.964" fill="white"/><path id="Fill 5" fill-rule="evenodd" clip-rule="evenodd" d="M125.821 865.271C131.145 862.183 129.025 865.42 134.708 863.085C143.854 844.889 169.821 767.065 167.165 763.683C146.533 755.358 136.477 751.351 122.748 759.125C121.754 766.423 120.506 795.981 111.552 809.755C106.021 818.264 100.19 826.61 95.5638 833.064C91.2918 839.025 87.8548 845.505 84.8998 852.213C84.2238 853.745 83.3448 855.242 82.2088 856.895L72.9618 871.185C71.4848 873.333 71.7008 876.32 73.6658 878.028C75.3378 879.483 77.6238 879.595 79.4028 878.631L76.9318 882.224C75.4628 884.36 75.6698 887.328 77.6118 889.041C79.2628 890.497 81.5198 890.63 83.2978 889.706L82.6018 890.717C80.9308 893.146 81.6938 896.553 84.3458 898.001C86.6568 899.262 89.5728 898.394 91.0658 896.224L92.6828 893.872C91.9458 896.092 92.8008 898.648 94.9928 899.869C97.3038 901.155 100.239 900.312 101.739 898.131L108.104 888.877C115.819 878.76 122.789 866.1 125.202 865.406C125.406 865.348 125.613 865.308 125.821 865.271" fill="#c7763c"/><path id="Fill 7" fill-rule="evenodd" clip-rule="evenodd" d="M137.812 853.273C132.886 852.499 125.945 861.455 120.946 861.271C122.921 863.781 123.658 868.34 122.071 875.127C119.913 884.358 126.575 889.144 129.121 886.177C133.762 880.77 131.999 876.41 135.686 863.102C135.734 862.929 137.744 853.448 137.812 853.273" fill="#c7763c"/><path id="Fill 9" fill-rule="evenodd" clip-rule="evenodd" d="M128.894 877.325L133.473 878.638L131.243 885.693C130.277 888.844 126.165 887.511 127.504 882.927L128.894 877.325Z" fill="#7FC347"/><path id="Fill 11" fill-rule="evenodd" clip-rule="evenodd" d="M113.005 866.687L95.2041 893.682L112.359 865.989C112.564 866.199 112.774 866.39 113.005 866.687" fill="#D42D66"/><path id="Fill 13" fill-rule="evenodd" clip-rule="evenodd" d="M105.452 859.998L85.3188 889.854L104.643 859.471C104.911 859.644 105.182 859.821 105.452 859.998" fill="#D42D66"/><path id="Fill 15" fill-rule="evenodd" clip-rule="evenodd" d="M97.4342 854.608L81.5342 878.801L96.8022 854.154C97.0122 854.306 97.2232 854.457 97.4342 854.608" fill="#D42D66"/><path id="Fill 17" fill-rule="evenodd" clip-rule="evenodd" d="M85.0441 884.145L79.6461 880.918L76.4841 885.609C74.8901 888.248 77.2281 889.773 77.2281 889.773C79.6691 891.42 81.2921 889.596 81.9721 888.596L85.0441 884.145Z" fill="#7FC347"/><path id="Fill 19" fill-rule="evenodd" clip-rule="evenodd" d="M81.1456 873.258L75.7476 870.031L72.5856 874.722C70.9916 877.36 73.3296 878.886 73.3296 878.886C75.7706 880.532 77.3926 878.709 78.0736 877.709L81.1456 873.258Z" fill="#7FC347"/><path id="Fill 21" fill-rule="evenodd" clip-rule="evenodd" d="M91.9137 893.486L86.5157 890.259L83.3537 894.95C81.7597 897.588 84.0977 899.114 84.0977 899.114C86.5387 900.761 88.1607 898.937 88.8417 897.937L91.9137 893.486Z" fill="#7FC347"/><path id="Fill 23" fill-rule="evenodd" clip-rule="evenodd" d="M102.05 895.739L96.6516 892.512L93.4896 897.202C91.8956 899.841 94.2326 901.367 94.2326 901.367C96.6746 903.013 98.2966 901.19 98.9776 900.19L102.05 895.739Z" fill="#7FC347"/><path id="Fill 25" fill-rule="evenodd" clip-rule="evenodd" d="M657.038 605.644C657.038 605.644 667.296 601.118 669.71 596.29C672.124 591.463 676.649 573.36 682.08 571.55C685.229 570.501 690.83 570.041 693.847 568.231C696.864 566.421 713.157 560.085 713.157 560.085L716.174 609.264C716.174 609.264 710.441 621.936 705.011 623.747C699.58 625.557 690.226 631.893 682.985 631.893C675.744 631.893 662.77 638.229 662.77 638.229L657.038 605.644Z" fill="#c7763c"/><path id="Fill 27" fill-rule="evenodd" clip-rule="evenodd" d="M688.115 570.343C688.115 570.343 711.045 559.783 714.364 557.068C717.683 554.352 720.851 559.633 718.286 563.705C715.721 567.779 713.157 574.114 696.563 579.998" fill="#c7763c"/><path id="Fill 29" fill-rule="evenodd" clip-rule="evenodd" d="M676.649 611.075C676.649 611.075 693.545 610.773 697.166 597.196C691.433 602.024 692.64 605.644 676.649 611.075" fill="#D42D66"/><path id="Fill 31" fill-rule="evenodd" clip-rule="evenodd" d="M699.373 610.554C699.373 610.554 683.727 604.168 675.046 615.216C682.218 613.041 682.537 609.238 699.373 610.554" fill="#D42D66"/><path id="Fill 33" fill-rule="evenodd" clip-rule="evenodd" d="M679.968 590.86C679.968 590.86 694.752 588.748 702.295 574.869C701.39 579.093 694.149 592.067 679.968 590.86" fill="#D42D66"/><path id="Fill 35" fill-rule="evenodd" clip-rule="evenodd" d="M445.484 668.459C447.24 690.025 460.999 710.222 480.425 719.751C499.853 729.278 524.246 727.793 542.373 715.979C555.282 707.565 565.841 694.086 581.043 691.567C596.747 688.966 612.389 699.144 628.156 696.954C639.419 695.391 649.043 687.57 655.425 678.16C661.807 668.749 665.428 657.786 668.972 646.981L659.839 588.491C653.058 576.493 638.662 570.061 624.884 570.408C611.107 570.755 598.024 577.03 587.117 585.456C582.717 588.855 577.671 592.864 572.251 591.622C566.31 590.261 563.675 583.545 560.998 578.069C555.102 566.011 544.59 556.282 532.112 551.335C524.11 548.162 515.155 546.773 508.412 541.422C498.034 533.186 496.162 518.526 491.396 506.164C482.583 483.303 460.012 465.597 435.514 465.291C411.016 464.985 392.922 483.728 390.146 508.071" fill="#F8DFB7"/><path id="Fill 37" fill-rule="evenodd" clip-rule="evenodd" d="M457.701 752.767C455.229 716.328 450.495 664.235 451.007 642.466C451.299 630.025 457.33 618.162 457.074 605.72C456.578 581.63 440.163 561.194 424.571 542.825C413.04 529.241 411.049 519.204 399.518 505.62C374.178 507.591 356.722 498.862 356.722 498.862C356.722 498.862 335.604 497.126 317.021 472.959C315.674 471.206 279.311 487.786 264.583 492.989L261.631 492.028C248.848 561.242 235.88 668.625 225.432 752.767H457.701Z" fill="#FBEED5"/><path id="Fill 39" fill-rule="evenodd" clip-rule="evenodd" d="M303.12 589.896C318.037 573.313 322.933 548.356 315.389 527.366C308.387 507.889 290.946 492.604 270.842 487.874C255.08 480.622 236.235 479.966 220.212 486.736C199.666 495.416 184.636 515.934 182.555 538.141C181.745 546.794 182.629 556.068 178.33 563.622C173.861 571.473 164.955 575.434 156.848 579.42C132.5 591.39 109.661 608.928 98.0494 633.447C94.8054 640.297 81.7444 677.101 99.3824 709.075C105.597 720.34 112.767 733.354 108.453 745.476C105.864 752.749 99.3114 757.79 95.0754 764.245C86.3644 777.519 88.7734 796.281 98.7524 808.631C106.58 818.319 150.334 835.557 161.057 834.856C176.9 833.822 192.328 822.876 196.182 807.474C198.056 799.984 197.321 791.75 200.914 784.916C206.901 773.528 221.619 770.98 233.825 766.911C244.227 763.443 253.94 757.953 262.327 750.894C266.333 747.52 269.519 743.183 273.535 739.899C274.742 738.912 276.179 738.271 277.379 737.278C283.367 732.326 287.493 723.657 290.33 716.628C300.487 691.471 297.9 662.791 290.197 636.777C287.631 628.114 284.507 618.882 287.25 610.274C289.889 601.993 297.307 596.358 303.12 589.896" fill="#F8DFB7"/><path id="Fill 41" fill-rule="evenodd" clip-rule="evenodd" d="M784.782 412L694.602 622.389L698.675 623.747L787.648 413.207L784.782 412Z" fill="#FBEED5"/><path id="Fill 43" fill-rule="evenodd" clip-rule="evenodd" d="M719.616 561.504C720.909 560.061 723.22 560.15 724.37 561.71C725.334 563.017 726.139 564.522 725.845 565.643C725.199 568.106 725.519 570.596 722.725 573.284C719.931 575.971 712.913 582.036 708.826 579.776C704.739 577.517 705.103 574.837 711.718 569.178C715.266 566.143 717.919 563.398 719.616 561.504" fill="#D42D66"/><path id="Fill 45" fill-rule="evenodd" clip-rule="evenodd" d="M720.244 572.926C721.719 571.574 724.04 571.921 725.094 573.621C726.131 575.298 727.021 577.28 726.521 578.611C725.502 581.323 725.572 584.182 722.093 586.898C718.614 589.615 709.954 595.662 705.59 592.624C701.225 589.585 701.952 586.593 710.107 580.959C714.685 577.796 718.116 574.878 720.244 572.926" fill="#D42D66"/><path id="Fill 47" fill-rule="evenodd" clip-rule="evenodd" d="M721.3 584.542C722.775 583.19 725.096 583.537 726.15 585.238C727.188 586.914 728.078 588.896 727.578 590.227C726.558 592.94 726.628 595.798 723.149 598.515C719.67 601.231 711.01 607.278 706.646 604.24C702.282 601.202 703.009 598.209 711.163 592.575C715.741 589.412 719.172 586.494 721.3 584.542" fill="#D42D66"/><path id="Fill 49" fill-rule="evenodd" clip-rule="evenodd" d="M720.843 598.435C722.019 597.356 723.872 597.633 724.713 598.99C725.541 600.328 726.251 601.91 725.852 602.971C725.038 605.136 725.094 607.417 722.318 609.584C719.542 611.752 712.632 616.578 709.15 614.153C705.667 611.728 706.247 609.341 712.754 604.845C716.407 602.321 719.145 599.993 720.843 598.435" fill="#D42D66"/><path id="Fill 51" fill-rule="evenodd" clip-rule="evenodd" d="M289.16 605.27C288.882 605.27 288.605 605.155 288.408 604.93C288.044 604.514 288.085 603.882 288.5 603.518C308.914 585.611 314.269 574.232 317.461 558.273C320.985 540.657 310.142 517.836 310.033 517.608C309.793 517.11 310.002 516.513 310.5 516.273C310.998 516.034 311.595 516.243 311.834 516.74C312.295 517.697 323.078 540.386 319.422 558.666C316.717 572.194 312.621 585.02 289.819 605.022C289.629 605.188 289.394 605.27 289.16 605.27" fill="white"/><path id="Fill 53" fill-rule="evenodd" clip-rule="evenodd" d="M112.997 756.98C112.928 756.98 112.857 756.973 112.787 756.958C112.247 756.842 111.903 756.311 112.018 755.771C114.976 741.957 107.669 726.633 107.595 726.48C107.354 725.983 107.561 725.385 108.059 725.144C108.556 724.905 109.154 725.111 109.394 725.607C109.709 726.258 117.078 741.692 113.974 756.189C113.873 756.659 113.458 756.98 112.997 756.98" fill="white"/><path id="Fill 55" fill-rule="evenodd" clip-rule="evenodd" d="M552.69 599.321C552.156 599.321 551.713 598.9 551.691 598.362C551.669 597.81 552.098 597.344 552.65 597.322C579.426 596.234 587.187 586.308 587.262 586.208C587.592 585.768 588.218 585.675 588.66 586.005C589.101 586.334 589.195 586.956 588.869 587.399C588.545 587.839 580.604 598.187 552.731 599.32C552.717 599.321 552.704 599.321 552.69 599.321" fill="white"/><path id="Fill 57" fill-rule="evenodd" clip-rule="evenodd" d="M457.062 600.108C456.564 600.108 456.133 599.736 456.071 599.229C453.325 576.713 424.12 543.82 423.825 543.491C423.457 543.079 423.493 542.447 423.904 542.079C424.316 541.711 424.948 541.746 425.316 542.158C425.391 542.241 432.866 550.631 440.583 561.737C450.99 576.716 456.869 589.249 458.056 598.987C458.123 599.535 457.733 600.034 457.185 600.101C457.144 600.106 457.103 600.108 457.062 600.108" fill="white"/><path id="Fill 59" fill-rule="evenodd" clip-rule="evenodd" d="M817.18 492.672L805.527 508.893L825.269 511.922L806.696 519.267L821.666 532.488L802.07 528.626L807.516 547.842L793.119 533.999L787.312 553.109L782.684 533.68L767.467 546.616L774.078 527.769L754.283 530.425L770.034 518.145L751.945 509.676L771.835 507.861L761.196 490.958L778.91 500.184L779.099 480.213L789.013 497.551L799.969 480.851L798.935 500.797L817.18 492.672Z" fill="#EFBBD6"/><path id="Fill 61" fill-rule="evenodd" clip-rule="evenodd" d="M1059.01 613.173L1052.66 622.007L1063.41 623.657L1053.3 627.658L1061.45 634.858L1050.78 632.755L1053.75 643.22L1045.9 635.681L1042.74 646.089L1040.22 635.507L1031.93 642.553L1035.53 632.288L1024.75 633.735L1033.33 627.047L1023.48 622.434L1034.31 621.445L1028.52 612.24L1038.17 617.265L1038.27 606.387L1043.67 615.83L1049.63 606.736L1049.07 617.598L1059.01 613.173Z" fill="#EFBBD6"/><path id="Fill 63" fill-rule="evenodd" clip-rule="evenodd" d="M803.736 485.869L801.419 489.867C801.197 490.288 800.685 490.415 800.251 490.221L786.649 484.104C786.486 484.031 786.343 483.771 786.428 483.582C786.428 483.582 786.49 483.155 786.695 482.987C787.143 482.571 789.11 482.317 789.571 481.289L794.715 469.85C795.202 468.767 794.062 467.182 794.101 466.516C794.078 466.279 794.369 465.922 794.369 465.922C794.454 465.732 794.719 465.722 794.882 465.794L807.508 471.407C807.941 471.601 808.173 472.096 808.06 472.565L806.569 476.967C806.471 477.183 806.224 477.3 806.007 477.202C806.007 477.202 805.711 477.069 805.493 476.972C804.71 476.619 805.067 472.065 803.335 471.287C803.335 471.287 802.768 471.032 802.01 470.691C800.901 470.193 799.595 470.711 799.097 471.82L797.24 476.023C797.045 476.456 797.25 476.938 797.683 477.133C798.062 477.304 798.332 477.425 798.332 477.425C800.063 478.203 801.8 476.221 802.65 476.57C802.839 476.655 803.163 476.801 803.163 476.801C803.353 476.887 803.431 477.15 803.345 477.339L800.938 482.694C800.841 482.91 800.581 483.053 800.391 482.968C800.391 482.968 800.067 482.822 799.878 482.737C799.04 482.359 799.394 479.691 797.664 478.912C797.664 478.912 797.42 478.803 797.014 478.62C796.581 478.427 796.06 478.647 795.865 479.079L793.981 483.271C793.482 484.38 793.933 485.689 795.096 486.211C796.232 486.723 797.341 487.221 797.341 487.221C799.044 487.987 802.254 484.683 803.038 485.036C803.281 485.145 803.524 485.254 803.524 485.254C803.767 485.364 803.833 485.653 803.736 485.869" fill="#FBEED5"/><path id="Fill 65" fill-rule="evenodd" clip-rule="evenodd" d="M808.41 481.046C809.348 480.623 813.019 481.135 813.827 481.434C814.57 481.735 814.357 483.004 814.084 484.117C815.594 482.78 817.462 482.678 819.22 483.468C821.006 484.271 822.484 486.042 822.241 488.825C823.674 486.869 825.928 486.484 828.037 487.432C830.011 488.32 831.544 490.407 830.733 493.944C830.299 495.635 829.802 497.753 829.36 499.602C829.279 500.867 830.047 502.122 829.768 502.744L829.659 502.987C829.573 503.176 829.299 503.281 829.055 503.171L822.132 500.058C821.889 499.949 821.745 499.69 821.83 499.5C821.83 499.5 821.973 499.109 822.125 498.918C822.599 498.513 824.486 498.223 824.867 497.159C825.001 496.861 825.824 494.306 826.489 491.744C826.792 490.417 826.822 489.194 825.538 488.65C823.591 487.775 822.051 490.333 821.599 491.626L821.572 491.613C821.185 492.837 820.713 493.959 820.394 495.246C820.145 496.596 821.068 498.085 820.788 498.707L820.68 498.95C820.594 499.139 820.321 499.244 820.104 499.146L813.154 496.022C812.91 495.912 812.793 495.664 812.878 495.475C812.878 495.475 812.995 495.072 813.173 494.892C813.594 494.464 815.492 494.147 815.914 493.133L816.085 492.755C816.377 492.106 817.285 490.303 817.864 487.931C818.234 486.601 817.96 485.112 816.731 484.593C815.031 483.893 813.624 485.862 812.993 486.976L811.157 491.06C810.622 492.25 811.9 493.963 811.62 494.585L811.512 494.828C811.426 495.017 811.18 495.133 810.936 495.024L803.877 491.85C803.634 491.741 803.517 491.493 803.602 491.304C803.602 491.304 803.691 490.889 803.924 490.734C804.344 490.304 806.339 490.063 806.719 488.999L808.604 484.807C809.333 483.185 808.159 482.689 807.923 482.128C807.732 481.684 807.94 481.225 808.41 481.046" fill="#FBEED5"/><path id="Fill 67" fill-rule="evenodd" clip-rule="evenodd" d="M843.807 501.612C844.473 498.758 844.378 496.439 843.026 495.831C842.918 495.782 842.783 495.722 842.662 495.7C841.001 495.343 839.813 497.41 839.052 500.547C838.335 503.443 838.389 506.069 839.796 506.701C839.904 506.75 840.052 506.783 840.171 506.804C841.913 507.198 843.036 504.776 843.807 501.612M844.833 494.921C848.133 496.404 849.274 500.591 847.778 503.917C846.234 507.352 842.637 509.279 839.04 507.661C838.012 507.198 836.973 506.472 836.556 505.375C835.632 507.429 834.902 509.052 834.878 509.107C834.355 510.27 835.658 511.928 835.342 512.631L835.244 512.847C835.135 513.091 834.9 513.18 834.656 513.071L827.598 509.897C827.354 509.787 827.238 509.54 827.335 509.323C827.335 509.323 827.423 508.908 827.59 508.756C828.05 508.311 830.059 508.11 830.44 507.046L835.39 496.039C836.12 494.416 834.944 493.92 834.626 493.322C834.493 492.969 834.68 492.338 835.14 492.253C836.385 492.162 839.156 492.432 840.401 492.992C841.104 493.308 841.402 493.8 841.127 494.847C841.181 494.871 841.233 494.829 841.311 494.8C842.31 494.241 843.806 494.458 844.833 494.921" fill="#FBEED5"/><path id="Fill 69" fill-rule="evenodd" clip-rule="evenodd" d="M858.52 508.519C859.072 505.483 858.857 502.852 857.397 502.195C857.289 502.146 857.141 502.113 857.021 502.091C855.135 501.73 853.733 504.124 853.03 507.352C852.355 510.299 852.558 512.959 854.126 513.664C854.289 513.737 854.451 513.81 854.637 513.829C856.523 514.189 857.855 511.732 858.52 508.519M863.031 511.068C861.39 514.719 857.278 516.414 852.87 514.432C848.488 512.462 847.001 508.25 848.644 504.599C850.273 500.975 854.561 499.392 858.78 501.289C863.026 503.198 864.661 507.444 863.031 511.068" fill="#FBEED5"/><path id="Fill 71" fill-rule="evenodd" clip-rule="evenodd" d="M865.899 504.912L873.011 508.11C873.228 508.207 873.359 508.494 873.274 508.684C873.274 508.684 873.173 509.126 873.019 509.251C872.533 509.683 870.996 509.772 871.031 511.284C871.031 511.284 870.183 517.437 870.575 518.59C870.693 518.545 874.747 514.808 875.875 513.819C875.845 513.741 875.857 513.714 875.857 513.714C875.883 511.775 874.525 510.384 874.841 509.681L874.939 509.464C875.036 509.248 875.256 509.12 875.5 509.229L882.558 512.403C882.802 512.513 882.906 512.787 882.821 512.976C882.821 512.976 882.72 513.418 882.566 513.544C882.08 513.975 880.543 514.065 880.551 515.565C880.551 515.565 879.73 521.73 880.122 522.882C880.24 522.837 885.663 517.863 885.663 517.863C886.706 516.771 885.85 515.639 885.893 515.039C885.884 514.841 886.093 514.448 886.093 514.448C886.232 514.282 886.507 514.179 886.696 514.264L890.266 515.869C890.482 515.966 890.559 516.228 890.462 516.445L890.365 516.661C890.049 517.364 888.107 517.271 886.702 518.59C886.2 518.982 882.219 522.557 882.219 522.557C881.234 523.447 880.486 524.313 880.153 525.269C880.011 525.66 879.781 525.882 878.88 525.575C878.759 525.553 878.569 525.467 878.353 525.37C876 524.312 875.594 522.179 875.655 519.801C875.684 518.22 875.735 516.878 875.782 515.468C875.782 515.468 875.732 515.511 875.72 515.538L872.672 518.264C871.714 519.166 870.886 519.997 870.553 520.953C870.437 521.356 870.181 521.566 869.333 521.282C869.185 521.248 868.996 521.163 868.806 521.078C866.453 520.019 866.008 517.901 866.108 515.508C866.121 513.239 866.183 511.51 866.31 509.421C866.336 507.482 864.924 506.067 865.241 505.364L865.337 505.147C865.435 504.932 865.709 504.827 865.899 504.912" fill="#FBEED5"/><path id="Fill 73" fill-rule="evenodd" clip-rule="evenodd" d="M892.2 524.087C893.037 524.105 894.476 524.232 895.448 524.311C896.26 524.383 896.967 523.824 897.16 523.033C897.293 521.727 897.074 519.97 895.992 519.484C895.911 519.447 895.804 519.399 895.711 519.389C894.088 519.018 892.646 521.36 892.2 524.087M891.406 531.857C891.243 531.784 891.068 531.737 890.906 531.665C888.201 530.449 885.297 527.29 886.81 522.768C888.149 518.851 891.847 517.133 895.496 518.058C896.032 518.168 896.531 518.36 896.963 518.555C899.965 519.905 901.01 522.715 900.891 524.353C900.798 525.644 899.611 525.826 897.947 525.695C897.186 525.58 893.858 525.319 892.072 525.167C891.963 527.361 892.79 529.066 894.331 529.759C895.846 530.44 897.673 529.993 898.459 528.461C898.607 528.203 898.921 528.083 899.273 528.242C899.545 528.429 899.665 528.743 899.497 529.188C898.895 530.673 896.068 533.563 891.406 531.857" fill="#FBEED5"/><path id="Fill 75" fill-rule="evenodd" clip-rule="evenodd" d="M913.545 525.718C915.654 526.667 916.862 528.609 915.997 530.462C915.474 531.625 914.189 532.023 913.107 531.536C911.809 530.952 911.4 530.053 911.766 529.242C911.96 528.809 912.332 528.489 912.718 528.207C913.344 527.611 913.309 526.75 912.47 526.372C911.022 525.689 909.477 527.173 908.216 529.76C907.353 531.679 906.404 533.789 906.367 533.87C905.833 535.061 907.111 536.773 906.831 537.395L906.722 537.638C906.637 537.827 906.389 537.944 906.146 537.835L899.088 534.661C898.845 534.551 898.728 534.304 898.813 534.115C898.813 534.115 898.902 533.7 899.134 533.544C899.554 533.115 901.549 532.874 901.929 531.81L903.972 527.266C904.69 525.671 903.527 525.148 903.304 524.559C903.077 524.197 903.308 523.684 903.767 523.532C904.704 523.109 908.376 523.621 909.171 523.947C909.875 524.263 909.693 525.319 909.611 525.933C910.556 525.35 911.73 525.129 913.1 525.551C913.235 525.611 913.382 525.645 913.545 525.718" fill="#FBEED5"/><path id="Fill 77" fill-rule="evenodd" clip-rule="evenodd" d="M919.898 536.54C920.735 536.559 922.174 536.685 923.146 536.764C923.958 536.837 924.665 536.278 924.858 535.486C924.991 534.181 924.772 532.424 923.69 531.937C923.609 531.901 923.502 531.853 923.409 531.843C921.786 531.472 920.344 533.814 919.898 536.54M919.103 544.31C918.941 544.238 918.766 544.191 918.603 544.118C915.899 542.902 912.995 539.744 914.508 535.222C915.847 531.305 919.545 529.586 923.194 530.511C923.73 530.622 924.229 530.814 924.661 531.009C927.663 532.358 928.708 535.169 928.589 536.806C928.496 538.098 927.309 538.279 925.645 538.148C924.884 538.034 921.555 537.773 919.77 537.62C919.661 539.814 920.488 541.519 922.029 542.213C923.544 542.893 925.371 542.447 926.157 540.915C926.305 540.656 926.619 540.537 926.97 540.695C927.243 540.883 927.363 541.197 927.195 541.641C926.593 543.126 923.766 546.017 919.103 544.31" fill="#FBEED5"/><path id="Fill 79" fill-rule="evenodd" clip-rule="evenodd" d="M933.164 542.831C932.46 545.7 932.598 548.07 933.95 548.678C935.41 549.335 936.5 547.777 937.023 546.614L937.084 546.479C937.972 544.504 939.382 538.766 937.083 537.732C936.975 537.684 936.893 537.648 936.773 537.626C935.048 537.272 933.886 539.709 933.164 542.831M937.921 536.809C938.976 537.283 939.987 537.998 940.392 539.123L941.778 536.039C942.495 534.444 941.239 533.912 941.016 533.323C940.867 532.932 941.026 532.288 941.491 532.268C942.734 532.177 944.696 532.442 945.632 532.603C946.035 532.719 946.412 532.823 946.708 532.956C947.736 533.419 947.939 534.194 946.894 536.519L941.093 549.419C940.551 550.411 941.694 552.062 941.679 552.674C941.69 552.939 941.439 553.281 941.439 553.281C941.354 553.47 941.145 553.571 940.849 553.438L937.657 552.002C936.629 551.541 936.254 550.494 936.262 549.393C936.026 549.481 935.846 549.595 935.649 549.67C934.611 550.244 933.128 549.999 932.073 549.525C928.8 548.054 927.66 543.867 929.167 540.513C930.712 537.079 934.351 535.204 937.921 536.809" fill="#FBEED5"/><path id="Fill 81" fill-rule="evenodd" clip-rule="evenodd" d="M988.355 553.503C988.039 554.206 986.085 554.141 984.662 555.354C984.356 555.671 975.057 565.796 975.057 565.796C974.59 566.399 974.359 566.913 974.442 567.308C974.444 567.666 974.239 567.833 973.934 567.859C973.324 567.845 972.376 567.711 971.51 567.322C971.32 567.237 971.158 567.164 970.981 567.052C968.962 566.046 969.005 563.204 969.056 561.862C969.058 560.628 969.514 557.516 969.888 554.66L964.186 560.908C963.718 561.511 963.488 562.024 963.543 562.407C963.572 562.777 963.366 562.945 963.063 562.971C962.479 562.968 961.503 562.823 960.638 562.434C960.449 562.349 960.286 562.276 960.11 562.164L960.136 562.175C958.09 561.158 958.133 558.316 958.156 556.961C958.214 554.809 959.692 544.29 959.753 544.154C959.822 542.267 958.344 540.854 958.66 540.151L958.757 539.935C958.867 539.692 959.117 539.641 959.306 539.726L966.813 543.134C967.028 543.232 967.196 543.437 967.1 543.653C967.1 543.653 967.01 544.068 966.778 544.224C966.319 544.668 965.01 544.827 964.83 546.241L964.824 546.401C964.824 546.401 962.671 556.032 962.712 558.326C962.738 558.631 962.921 558.876 963.137 558.973C963.38 559.082 963.697 559.03 963.9 558.796L970.328 551.802C970.395 550.857 970.591 549.19 970.572 549.018C970.667 547.143 969.243 545.755 969.559 545.051L969.657 544.836C969.766 544.592 970.015 544.542 970.205 544.627L974.871 546.758L977.684 548.022C977.873 548.108 978.069 548.325 977.972 548.542C977.972 548.542 977.883 548.957 977.677 549.124C977.19 549.556 975.91 549.729 975.729 551.142L975.128 553.635C974.486 556.436 973.542 560.92 973.611 563.227C973.637 563.531 973.793 563.764 974.036 563.874C974.252 563.971 974.569 563.919 974.772 563.684L983.181 554.525C984.222 553.368 983.384 552.34 983.41 551.702C983.399 551.437 983.651 551.095 983.651 551.095C983.748 550.879 984.012 550.868 984.229 550.965L988.217 552.726C988.46 552.835 988.561 553.044 988.452 553.287L988.355 553.503Z" fill="#FBEED5"/><path id="Fill 83" fill-rule="evenodd" clip-rule="evenodd" d="M991.977 568.526C992.529 565.49 992.314 562.859 990.853 562.202C990.746 562.153 990.598 562.119 990.477 562.097C988.592 561.737 987.19 564.13 986.487 567.358C985.812 570.306 986.014 572.965 987.582 573.671C987.745 573.744 987.907 573.817 988.094 573.836C989.979 574.195 991.312 571.739 991.977 568.526M996.488 571.075C994.846 574.725 990.734 576.421 986.327 574.439C981.945 572.469 980.457 568.256 982.1 564.606C983.729 560.981 988.017 559.398 992.237 561.295C996.483 563.205 998.118 567.451 996.488 571.075" fill="#FBEED5"/><path id="Fill 85" fill-rule="evenodd" clip-rule="evenodd" d="M999.588 567.007C1000.53 566.583 1004.2 567.096 1005 567.395C1005.75 567.695 1005.53 568.965 1005.26 570.078C1006.77 568.741 1008.64 568.639 1010.4 569.429C1012.18 570.232 1013.66 572.003 1013.42 574.786C1014.85 572.83 1017.11 572.445 1019.21 573.393C1021.19 574.281 1022.72 576.368 1021.91 579.905C1021.48 581.596 1020.98 583.713 1020.54 585.562C1020.46 586.827 1021.23 588.083 1020.95 588.705L1020.84 588.948C1020.75 589.137 1020.48 589.242 1020.23 589.132L1013.31 586.019C1013.07 585.91 1012.92 585.65 1013.01 585.461C1013.01 585.461 1013.15 585.07 1013.3 584.878C1013.78 584.474 1015.66 584.183 1016.04 583.12C1016.18 582.822 1017 580.267 1017.67 577.704C1017.97 576.378 1018 575.155 1016.72 574.611C1014.77 573.736 1013.23 576.294 1012.78 577.587L1012.75 577.575C1012.36 578.798 1011.89 579.919 1011.57 581.206C1011.32 582.557 1012.25 584.045 1011.97 584.668L1011.86 584.911C1011.77 585.1 1011.5 585.204 1011.28 585.107L1004.33 581.982C1004.09 581.873 1003.97 581.625 1004.06 581.436C1004.06 581.436 1004.17 581.033 1004.35 580.853C1004.77 580.424 1006.67 580.108 1007.09 579.094L1007.26 578.715C1007.55 578.066 1008.46 576.264 1009.04 573.892C1009.41 572.562 1009.14 571.073 1007.91 570.553C1006.21 569.854 1004.8 571.822 1004.17 572.937L1002.33 577.02C1001.8 578.211 1003.08 579.923 1002.8 580.545L1002.69 580.788C1002.6 580.977 1002.36 581.094 1002.11 580.985L995.056 577.811C994.812 577.702 994.695 577.454 994.78 577.265C994.78 577.265 994.87 576.85 995.102 576.695C995.522 576.265 997.517 576.024 997.897 574.96L999.782 570.768C1000.51 569.145 999.337 568.65 999.102 568.089C998.911 567.645 999.118 567.186 999.588 567.007" fill="#FBEED5"/><path id="Fill 87" fill-rule="evenodd" clip-rule="evenodd" d="M1029.17 585.673C1030.01 585.692 1031.45 585.819 1032.42 585.899C1033.23 585.971 1033.94 585.411 1034.13 584.62C1034.27 583.314 1034.05 581.557 1032.96 581.071C1032.88 581.035 1032.78 580.986 1032.68 580.977C1031.06 580.606 1029.62 582.947 1029.17 585.673M1028.38 593.444C1028.21 593.371 1028.04 593.325 1027.88 593.252C1025.17 592.036 1022.27 588.877 1023.78 584.356C1025.12 580.438 1028.82 578.719 1032.47 579.645C1033 579.756 1033.5 579.948 1033.94 580.142C1036.94 581.492 1037.98 584.303 1037.86 585.939C1037.77 587.231 1036.58 587.412 1034.92 587.281C1034.16 587.168 1030.83 586.906 1029.04 586.754C1028.94 588.947 1029.76 590.653 1031.3 591.346C1032.82 592.027 1034.65 591.58 1035.43 590.048C1035.58 589.79 1035.89 589.671 1036.24 589.829C1036.52 590.017 1036.64 590.331 1036.47 590.775C1035.87 592.259 1033.04 595.15 1028.38 593.444" fill="#FBEED5"/><path id="Fill 89" fill-rule="evenodd" clip-rule="evenodd" d="M1040.59 585.444C1041.53 585.02 1045.2 585.533 1046.01 585.832C1046.7 586.109 1046.55 587.376 1046.28 588.488C1047.71 587.116 1049.56 587.04 1051.27 587.806C1053.24 588.694 1054.78 590.78 1053.94 594.305C1053.5 595.995 1053.01 598.112 1052.59 599.975C1052.48 601.227 1053.25 602.482 1052.97 603.105L1052.86 603.348C1052.78 603.537 1052.5 603.641 1052.29 603.544L1045.34 600.419C1045.09 600.31 1044.98 600.062 1045.06 599.873C1045.06 599.873 1045.18 599.47 1045.36 599.29C1045.78 598.861 1047.69 598.584 1048.1 597.531C1048.23 597.234 1049 594.654 1049.64 592.08C1049.97 590.765 1049.97 589.531 1048.74 589.01C1046.77 588.123 1045.31 591.076 1044.97 591.9L1044.95 591.888L1043.34 595.457C1042.81 596.648 1044.08 598.361 1043.8 598.982L1043.69 599.225C1043.61 599.414 1043.36 599.531 1043.12 599.422L1036.06 596.248C1035.82 596.139 1035.7 595.891 1035.79 595.702C1035.79 595.702 1035.87 595.287 1036.11 595.132C1036.53 594.702 1038.52 594.461 1038.9 593.397L1040.79 589.205C1041.52 587.582 1040.34 587.087 1040.11 586.526C1039.92 586.082 1040.12 585.623 1040.59 585.444" fill="#FBEED5"/><path id="Fill 91" fill-rule="evenodd" clip-rule="evenodd" d="M790.442 515.435L788.125 519.432C787.903 519.853 787.39 519.98 786.957 519.786L773.355 513.669C773.192 513.596 773.049 513.336 773.134 513.147C773.134 513.147 773.196 512.719 773.401 512.552C773.849 512.136 775.816 511.882 776.277 510.854L781.421 499.414C781.907 498.333 780.769 496.747 780.807 496.082C780.784 495.844 781.075 495.487 781.075 495.487C781.159 495.298 781.425 495.287 781.587 495.36L794.214 500.973C794.646 501.166 794.88 501.662 794.766 502.131L793.275 506.533C793.178 506.748 792.93 506.865 792.713 506.768C792.713 506.768 792.417 506.635 792.199 506.537C791.416 506.184 791.773 501.63 790.042 500.852C790.042 500.852 789.474 500.597 788.717 500.256C787.608 499.758 786.302 500.276 785.803 501.385L783.945 505.588C783.751 506.021 783.956 506.504 784.388 506.698C784.767 506.869 785.038 506.99 785.038 506.99C786.769 507.768 788.505 505.786 789.357 506.136C789.546 506.221 789.87 506.367 789.87 506.367C790.06 506.452 790.136 506.714 790.052 506.904L787.644 512.259C787.546 512.476 787.287 512.618 787.097 512.533C787.097 512.533 786.773 512.387 786.584 512.302C785.745 511.925 786.1 509.256 784.369 508.478C784.369 508.478 784.125 508.368 783.719 508.186C783.287 507.992 782.766 508.212 782.571 508.644L780.687 512.836C780.189 513.945 780.64 515.254 781.802 515.777C782.939 516.288 784.047 516.787 784.047 516.787C785.751 517.553 788.96 514.248 789.744 514.601C789.987 514.71 790.231 514.82 790.231 514.82C790.474 514.929 790.539 515.218 790.442 515.435" fill="#FBEED5"/><path id="Fill 93" fill-rule="evenodd" clip-rule="evenodd" d="M795.116 510.611C796.054 510.188 799.725 510.7 800.534 510.999C801.277 511.301 801.063 512.57 800.79 513.683C802.301 512.346 804.168 512.243 805.927 513.034C807.712 513.837 809.191 515.607 808.948 518.39C810.38 516.434 812.634 516.049 814.743 516.998C816.718 517.886 818.25 519.973 817.44 523.51C817.005 525.2 816.509 527.317 816.067 529.167C815.986 530.431 816.754 531.687 816.475 532.31L816.365 532.553C816.28 532.742 816.005 532.846 815.762 532.736L808.838 529.624C808.595 529.514 808.451 529.254 808.537 529.065C808.537 529.065 808.68 528.674 808.832 528.483C809.306 528.079 811.192 527.788 811.574 526.724C811.707 526.426 812.531 523.871 813.195 521.308C813.499 519.982 813.528 518.76 812.245 518.215C810.298 517.34 808.757 519.898 808.306 521.192L808.279 521.179C807.891 522.403 807.419 523.524 807.101 524.811C806.851 526.162 807.775 527.65 807.495 528.273L807.386 528.516C807.301 528.705 807.027 528.809 806.81 528.712L799.86 525.587C799.616 525.478 799.499 525.23 799.585 525.04C799.585 525.04 799.702 524.638 799.88 524.457C800.301 524.029 802.199 523.712 802.621 522.699L802.792 522.32C803.084 521.671 803.991 519.869 804.57 517.496C804.941 516.167 804.667 514.678 803.438 514.158C801.737 513.459 800.331 515.427 799.699 516.541L797.864 520.625C797.328 521.815 798.607 523.527 798.327 524.15L798.218 524.393C798.133 524.582 797.886 524.699 797.642 524.59L790.584 521.416C790.34 521.306 790.223 521.059 790.309 520.87C790.309 520.87 790.398 520.455 790.63 520.299C791.051 519.87 793.045 519.629 793.426 518.565L795.31 514.373C796.04 512.75 794.866 512.255 794.629 511.694C794.439 511.25 794.646 510.79 795.116 510.611" fill="#FBEED5"/><path id="Fill 95" fill-rule="evenodd" clip-rule="evenodd" d="M830.514 531.176C831.18 528.322 831.084 526.003 829.732 525.395C829.624 525.346 829.489 525.286 829.369 525.264C827.708 524.907 826.519 526.974 825.759 530.111C825.041 533.007 825.096 535.632 826.503 536.265C826.611 536.314 826.758 536.347 826.878 536.369C828.62 536.761 829.742 534.341 830.514 531.176M831.54 524.484C834.839 525.968 835.98 530.155 834.485 533.482C832.941 536.916 829.343 538.843 825.746 537.225C824.718 536.763 823.68 536.036 823.263 534.939C822.338 536.994 821.609 538.616 821.585 538.671C821.062 539.834 822.364 541.492 822.048 542.195L821.951 542.412C821.841 542.655 821.606 542.744 821.363 542.634L814.304 539.461C814.06 539.352 813.944 539.104 814.041 538.888C814.041 538.888 814.13 538.473 814.297 538.32C814.757 537.876 816.766 537.674 817.147 536.61L822.097 525.603C822.826 523.981 821.651 523.485 821.333 522.886C821.2 522.534 821.386 521.902 821.847 521.818C823.091 521.726 825.862 521.997 827.107 522.557C827.81 522.873 828.109 523.364 827.834 524.411C827.887 524.436 827.939 524.393 828.017 524.364C829.016 523.805 830.512 524.022 831.54 524.484" fill="#FBEED5"/><path id="Fill 97" fill-rule="evenodd" clip-rule="evenodd" d="M845.226 538.084C845.778 535.048 845.564 532.416 844.104 531.76C843.996 531.711 843.847 531.676 843.728 531.655C841.841 531.295 840.439 533.689 839.736 536.916C839.061 539.863 839.264 542.523 840.832 543.229C840.995 543.302 841.157 543.375 841.344 543.394C843.229 543.753 844.562 541.296 845.226 538.084M849.738 540.632C848.097 544.283 843.985 545.979 839.577 543.996C835.195 542.026 833.708 537.814 835.35 534.164C836.979 530.539 841.268 528.956 845.487 530.853C849.733 532.763 851.367 537.009 849.738 540.632" fill="#FBEED5"/><path id="Fill 99" fill-rule="evenodd" clip-rule="evenodd" d="M852.606 534.477L859.718 537.675C859.935 537.773 860.067 538.059 859.981 538.248C859.981 538.248 859.88 538.69 859.726 538.817C859.239 539.248 857.703 539.338 857.739 540.849C857.739 540.849 856.89 547.002 857.283 548.154C857.4 548.109 861.454 544.373 862.582 543.384C862.551 543.305 862.564 543.278 862.564 543.278C862.59 541.339 861.232 539.948 861.548 539.246L861.646 539.029C861.743 538.813 861.963 538.685 862.206 538.794L869.265 541.968C869.508 542.077 869.614 542.352 869.528 542.54C869.528 542.54 869.427 542.982 869.273 543.109C868.786 543.54 867.25 543.63 867.259 545.129C867.259 545.129 866.437 551.295 866.83 552.447C866.947 552.401 872.371 547.428 872.371 547.428C873.413 546.336 872.558 545.204 872.599 544.605C872.59 544.406 872.8 544.012 872.8 544.012C872.94 543.848 873.214 543.743 873.403 543.829L876.973 545.434C877.189 545.531 877.267 545.793 877.169 546.009L877.072 546.226C876.756 546.929 874.814 546.835 873.409 548.155C872.907 548.547 868.927 552.122 868.927 552.122C867.942 553.011 867.193 553.878 866.861 554.834C866.718 555.226 866.488 555.447 865.586 555.139C865.466 555.118 865.276 555.032 865.061 554.935C862.708 553.877 862.3 551.744 862.362 549.366C862.391 547.785 862.442 546.442 862.489 545.033C862.489 545.033 862.439 545.076 862.427 545.102L859.38 547.829C858.422 548.731 857.593 549.562 857.261 550.518C857.145 550.92 856.888 551.13 856.04 550.847C855.892 550.813 855.703 550.727 855.514 550.643C853.161 549.585 852.716 547.466 852.815 545.073C852.828 542.803 852.89 541.075 853.017 538.985C853.043 537.047 851.631 535.632 851.947 534.929L852.045 534.713C852.142 534.496 852.416 534.392 852.606 534.477" fill="#FBEED5"/><path id="Fill 101" fill-rule="evenodd" clip-rule="evenodd" d="M878.907 553.651C879.743 553.67 881.182 553.797 882.155 553.876C882.967 553.949 883.673 553.388 883.867 552.597C883.999 551.292 883.781 549.535 882.699 549.049C882.618 549.013 882.511 548.964 882.417 548.955C880.795 548.583 879.352 550.925 878.907 553.651M878.112 561.422C877.949 561.349 877.775 561.303 877.613 561.23C874.908 560.014 872.004 556.855 873.517 552.334C874.856 548.416 878.554 546.697 882.203 547.623C882.739 547.734 883.237 547.925 883.669 548.12C886.672 549.469 887.717 552.28 887.597 553.917C887.505 555.209 886.318 555.39 884.654 555.259C883.892 555.146 880.564 554.884 878.778 554.731C878.669 556.925 879.496 558.631 881.038 559.324C882.553 560.005 884.379 559.558 885.165 558.026C885.314 557.768 885.628 557.649 885.98 557.806C886.252 557.995 886.372 558.308 886.204 558.753C885.602 560.237 882.774 563.128 878.112 561.422" fill="#FBEED5"/><path id="Fill 103" fill-rule="evenodd" clip-rule="evenodd" d="M900.252 555.282C902.361 556.23 903.569 558.172 902.703 560.026C902.18 561.188 900.896 561.586 899.813 561.1C898.515 560.516 898.107 559.617 898.472 558.806C898.667 558.373 899.038 558.053 899.425 557.772C900.051 557.175 900.015 556.313 899.177 555.937C897.729 555.253 896.184 556.737 894.923 559.323C894.06 561.244 893.11 563.353 893.075 563.434C892.539 564.624 893.818 566.337 893.538 566.959L893.428 567.202C893.344 567.391 893.096 567.509 892.853 567.399L885.794 564.224C885.551 564.115 885.434 563.867 885.52 563.678C885.52 563.678 885.609 563.263 885.841 563.108C886.261 562.679 888.255 562.438 888.636 561.373L890.679 556.83C891.397 555.234 890.234 554.712 890.01 554.124C889.784 553.762 890.015 553.248 890.473 553.095C891.411 552.673 895.082 553.186 895.878 553.511C896.582 553.827 896.399 554.884 896.318 555.496C897.263 554.914 898.436 554.694 899.806 555.114C899.942 555.175 900.089 555.209 900.252 555.282" fill="#FBEED5"/><path id="Fill 105" fill-rule="evenodd" clip-rule="evenodd" d="M944.553 569.35C944.237 570.053 942.282 569.987 940.859 571.201C940.553 571.518 931.254 581.642 931.254 581.642C930.788 582.246 930.556 582.76 930.64 583.155C930.642 583.513 930.436 583.681 930.131 583.706C929.521 583.691 928.573 583.558 927.708 583.169C927.518 583.084 927.356 583.01 927.178 582.899C925.16 581.893 925.202 579.052 925.253 577.708C925.256 576.474 925.711 573.363 926.085 570.508L920.383 576.754C919.916 577.357 919.685 577.871 919.741 578.254C919.77 578.624 919.564 578.791 919.26 578.818C918.676 578.815 917.701 578.669 916.835 578.28C916.647 578.195 916.484 578.122 916.307 578.01L916.333 578.022C914.287 577.005 914.331 574.163 914.353 572.808C914.411 570.656 915.89 560.137 915.95 560.001C916.019 558.113 914.541 556.702 914.857 555.998L914.955 555.782C915.064 555.538 915.313 555.488 915.503 555.574L923.01 558.98C923.226 559.078 923.394 559.284 923.297 559.5C923.297 559.5 923.207 559.915 922.975 560.071C922.515 560.514 921.208 560.674 921.027 562.089L921.021 562.248C921.021 562.248 918.869 571.879 918.909 574.174C918.935 574.478 919.117 574.722 919.334 574.82C919.577 574.93 919.894 574.877 920.096 574.642L926.525 567.649C926.593 566.704 926.789 565.037 926.769 564.865C926.864 562.99 925.44 561.602 925.757 560.899L925.854 560.682C925.963 560.439 926.213 560.389 926.403 560.474L931.069 562.605L933.881 563.87C934.071 563.955 934.266 564.172 934.169 564.388C934.169 564.388 934.079 564.803 933.874 564.971C933.387 565.402 932.107 565.575 931.926 566.989L931.325 569.483C930.684 572.283 929.74 576.767 929.809 579.074C929.834 579.379 929.99 579.611 930.233 579.72C930.449 579.817 930.765 579.765 930.968 579.53L939.379 570.372C940.419 569.215 939.58 568.187 939.607 567.549C939.595 567.284 939.847 566.942 939.847 566.942C939.945 566.726 940.21 566.714 940.426 566.812L944.414 568.572C944.657 568.682 944.759 568.89 944.65 569.133L944.553 569.35Z" fill="#FBEED5"/><path id="Fill 107" fill-rule="evenodd" clip-rule="evenodd" d="M948.173 584.373C948.726 581.337 948.511 578.705 947.051 578.048C946.943 577.999 946.795 577.966 946.675 577.944C944.788 577.583 943.387 579.977 942.683 583.205C942.009 586.152 942.211 588.812 943.779 589.518C943.941 589.59 944.104 589.664 944.291 589.683C946.176 590.043 947.51 587.585 948.173 584.373M952.684 586.921C951.043 590.573 946.932 592.268 942.524 590.285C938.142 588.315 936.655 584.103 938.297 580.452C939.926 576.828 944.215 575.245 948.434 577.142C952.68 579.052 954.314 583.298 952.684 586.921" fill="#FBEED5"/><path id="Fill 109" fill-rule="evenodd" clip-rule="evenodd" d="M955.784 582.853C956.722 582.43 960.393 582.942 961.202 583.241C961.944 583.542 961.732 584.812 961.458 585.925C962.969 584.588 964.836 584.485 966.595 585.276C968.38 586.079 969.859 587.848 969.616 590.632C971.049 588.676 973.302 588.291 975.411 589.24C977.385 590.127 978.918 592.214 978.108 595.752C977.673 597.441 977.177 599.559 976.735 601.409C976.655 602.673 977.422 603.929 977.143 604.551L977.033 604.795C976.948 604.984 976.674 605.088 976.43 604.978L969.506 601.866C969.263 601.756 969.12 601.496 969.206 601.307C969.206 601.307 969.348 600.916 969.5 600.725C969.974 600.319 971.86 600.03 972.242 598.966C972.375 598.668 973.199 596.113 973.863 593.55C974.167 592.224 974.197 591.002 972.913 590.457C970.967 589.582 969.425 592.14 968.974 593.433L968.948 593.421C968.559 594.645 968.088 595.766 967.768 597.052C967.519 598.403 968.444 599.892 968.164 600.514L968.055 600.757C967.97 600.947 967.695 601.051 967.478 600.954L960.528 597.829C960.284 597.719 960.168 597.471 960.254 597.282C960.254 597.282 960.37 596.879 960.548 596.699C960.969 596.27 962.867 595.954 963.289 594.941L963.46 594.562C963.752 593.913 964.659 592.11 965.239 589.737C965.609 588.409 965.335 586.92 964.106 586.399C962.405 585.7 960.999 587.668 960.367 588.783L958.532 592.867C957.996 594.057 959.275 595.769 958.995 596.392L958.886 596.635C958.801 596.824 958.554 596.941 958.31 596.831L951.251 593.658C951.008 593.548 950.891 593.3 950.977 593.111C950.977 593.111 951.066 592.696 951.299 592.541C951.719 592.112 953.714 591.871 954.094 590.807L955.979 586.615C956.708 584.992 955.534 584.496 955.297 583.935C955.107 583.492 955.314 583.032 955.784 582.853" fill="#FBEED5"/><path id="Fill 111" fill-rule="evenodd" clip-rule="evenodd" d="M985.37 601.521C986.206 601.54 987.645 601.666 988.618 601.745C989.429 601.818 990.136 601.258 990.329 600.467C990.462 599.162 990.244 597.405 989.162 596.918C989.081 596.882 988.973 596.834 988.879 596.824C987.258 596.452 985.815 598.795 985.37 601.521M984.574 609.292C984.412 609.218 984.237 609.172 984.075 609.099C981.37 607.883 978.466 604.725 979.979 600.203C981.319 596.285 985.017 594.567 988.665 595.493C989.201 595.603 989.699 595.794 990.132 595.989C993.134 597.339 994.179 600.15 994.06 601.787C993.968 603.079 992.781 603.26 991.117 603.129C990.355 603.015 987.026 602.754 985.241 602.601C985.132 604.795 985.959 606.5 987.5 607.193C989.015 607.874 990.841 607.428 991.627 605.896C991.777 605.637 992.09 605.518 992.442 605.676C992.715 605.864 992.834 606.177 992.666 606.623C992.064 608.107 989.236 610.997 984.574 609.292" fill="#FBEED5"/><path id="Fill 113" fill-rule="evenodd" clip-rule="evenodd" d="M996.79 601.291C997.728 600.868 1001.4 601.38 1002.21 601.679C1002.9 601.956 1002.75 603.223 1002.48 604.335C1003.91 602.962 1005.76 602.887 1007.46 603.652C1009.44 604.54 1010.97 606.627 1010.13 610.153C1009.7 611.842 1009.2 613.96 1008.79 615.822C1008.68 617.074 1009.45 618.33 1009.17 618.952L1009.06 619.196C1008.97 619.385 1008.7 619.489 1008.48 619.392L1001.53 616.267C1001.29 616.158 1001.17 615.91 1001.26 615.72C1001.26 615.72 1001.38 615.318 1001.55 615.137C1001.97 614.708 1003.89 614.431 1004.29 613.379C1004.43 613.082 1005.2 610.502 1005.84 607.927C1006.17 606.613 1006.17 605.378 1004.94 604.858C1002.97 603.97 1001.51 606.924 1001.17 607.747L1001.14 607.735L999.538 611.305C999.002 612.495 1000.28 614.207 1000 614.83L999.892 615.073C999.807 615.262 999.56 615.379 999.316 615.269L992.257 612.096C992.014 611.986 991.897 611.738 991.983 611.549C991.983 611.549 992.072 611.134 992.305 610.979C992.725 610.55 994.719 610.309 995.1 609.245L996.984 605.053C997.714 603.43 996.54 602.935 996.303 602.373C996.113 601.93 996.32 601.47 996.79 601.291" fill="#FBEED5"/></g></g></g><g id="Head" transform="translate(402 90) scale(1 1)"><g id="Head/Cornrow Bun"><g id="Group 97"><g id="Group 3"><mask id="mask0f61e54de-651c-40a6-945b-8b46a9152627" mask-type="alpha" maskUnits="userSpaceOnUse" x="108" y="95" width="58" height="58" fill="#ffffff"><path id="Clip 2" fill-rule="evenodd" clip-rule="evenodd" d="M108.699 95.6567H165.762V152.72H108.699V95.6567Z" fill="#ffffff"/></mask><g mask="url(#mask0f61e54de-651c-40a6-945b-8b46a9152627)"><path id="Fill 1" fill-rule="evenodd" clip-rule="evenodd" d="M165.761 124.189C165.761 139.946 152.987 152.72 137.23 152.72C121.472 152.72 108.698 139.946 108.698 124.189C108.698 108.432 121.472 95.6567 137.23 95.6567C152.987 95.6567 165.761 108.432 165.761 124.189" fill="#CEF367"/></g></g><path id="Fill 4" fill-rule="evenodd" clip-rule="evenodd" d="M182.771 35.9071C184.863 36.1571 186.732 34.6651 186.977 32.5931C187.223 30.5191 185.737 28.6331 183.664 28.3861C181.596 28.1361 179.705 29.6271 179.458 31.7001C179.211 33.7741 180.698 35.6611 182.772 35.9071H182.771ZM183.221 37.9341C182.995 37.9341 182.766 37.9211 182.537 37.8931H182.536C179.368 37.5171 177.095 34.6341 177.471 31.4651C177.847 28.2971 180.741 26.0251 183.899 26.4001C187.068 26.7761 189.339 29.6601 188.963 32.8281C188.615 35.7661 186.11 37.9341 183.221 37.9341V37.9341Z" fill="#CEF367"/><path id="Fill 6" fill-rule="evenodd" clip-rule="evenodd" d="M153.43 58.309C155.507 58.557 157.389 57.067 157.636 54.995C157.882 52.922 156.396 51.035 154.322 50.789C152.241 50.539 150.362 52.03 150.117 54.102C149.87 56.176 151.357 58.063 153.43 58.309M153.88 60.336C153.654 60.336 153.424 60.323 153.194 60.295C150.026 59.919 147.754 57.036 148.13 53.867C148.506 50.699 151.394 48.425 154.558 48.803C157.726 49.179 159.998 52.062 159.622 55.23C159.274 58.168 156.769 60.336 153.88 60.336" fill="#CEF367"/><path id="Fill 8" fill-rule="evenodd" clip-rule="evenodd" d="M144.699 69.8159C143.853 69.8159 143.038 70.0969 142.363 70.6279C141.568 71.2539 141.065 72.1519 140.946 73.1569C140.7 75.2299 142.186 77.1169 144.261 77.3629C145.265 77.4829 146.256 77.2029 147.05 76.5769C147.845 75.9509 148.347 75.0529 148.467 74.0489C148.713 71.9759 147.226 70.0889 145.152 69.8429C145.001 69.8249 144.849 69.8159 144.699 69.8159M144.718 79.3899C144.488 79.3899 144.257 79.3769 144.024 79.3489C140.856 78.9729 138.584 76.0889 138.96 72.9209C139.142 71.3859 139.911 70.0139 141.125 69.0579C142.34 68.1019 143.847 67.6759 145.388 67.8569C148.556 68.2329 150.829 71.1159 150.453 74.2839C150.27 75.8189 149.502 77.1909 148.288 78.1479C147.257 78.9599 146.011 79.3899 144.718 79.3899" fill="#CEF367"/><path id="Fill 10" fill-rule="evenodd" clip-rule="evenodd" d="M144.54 94.538C146.617 94.788 148.5 93.297 148.747 91.224C148.866 90.22 148.587 89.229 147.961 88.434C147.335 87.64 146.437 87.137 145.434 87.018C143.339 86.766 141.472 88.259 141.227 90.331C140.981 92.405 142.468 94.292 144.54 94.538M144.99 96.565C144.764 96.565 144.535 96.552 144.306 96.524H144.305C141.138 96.148 138.865 93.265 139.24 90.096C139.616 86.928 142.485 84.658 145.669 85.032C147.203 85.214 148.575 85.982 149.532 87.197C150.489 88.411 150.915 89.925 150.733 91.459C150.385 94.397 147.879 96.565 144.99 96.565" fill="#CEF367"/><path id="Fill 12" fill-rule="evenodd" clip-rule="evenodd" d="M168.134 35.7454C167.288 35.7454 166.473 36.0264 165.798 36.5574C165.004 37.1834 164.501 38.0814 164.382 39.0864C164.263 40.0904 164.542 41.0814 165.167 41.8754C165.793 42.6704 166.692 43.1734 167.697 43.2924C168.699 43.4124 169.692 43.1324 170.486 42.5064C171.28 41.8804 171.782 40.9824 171.902 39.9784C172.021 38.9744 171.741 37.9834 171.116 37.1884C170.49 36.3944 169.592 35.8914 168.587 35.7724C168.436 35.7544 168.284 35.7454 168.134 35.7454M168.154 45.3194C167.924 45.3194 167.693 45.3064 167.46 45.2784C165.925 45.0964 164.553 44.3274 163.597 43.1134C162.64 41.8994 162.214 40.3854 162.396 38.8504C162.578 37.3154 163.347 35.9434 164.561 34.9874C165.774 34.0304 167.282 33.6024 168.823 33.7864C170.359 33.9684 171.731 34.7374 172.687 35.9514C173.644 37.1644 174.07 38.6794 173.888 40.2134C173.705 41.7484 172.937 43.1204 171.723 44.0774C170.693 44.8894 169.446 45.3194 168.154 45.3194" fill="#CEF367"/><path id="Fill 14" fill-rule="evenodd" clip-rule="evenodd" d="M174.49 192.514C185.658 197.206 216.254 195.517 216.254 195.517C216.254 195.517 211.75 174.541 211.327 159.008C211.27 156.893 212.971 154.859 215.084 154.768C216.968 154.688 221.745 154.691 223.871 154.142C256.63 145.691 252.013 85.8971 243.754 62.4331C238.136 46.4751 225.876 35.9751 215.598 32.4001C194.532 25.0731 180.684 29.3971 167.545 36.7181C165.993 37.5821 143.471 52.7661 142.627 82.6121C142.072 102.232 154.578 120.865 154.593 120.904C155.391 123.015 149.948 130.618 143.753 141.598C140.757 146.91 135.823 154.644 132.209 161.307C132.209 161.307 152.153 186.507 174.49 192.514" fill="#c7763c"/><path id="Fill 16" fill-rule="evenodd" clip-rule="evenodd" d="M164.672 99.7245C166.693 103.225 166.859 106.914 165.04 107.964C163.222 109.014 160.11 107.026 158.089 103.525C156.067 100.023 155.902 96.3345 157.72 95.2855C159.538 94.2355 162.651 96.2235 164.672 99.7245" fill="#CEF367"/><path id="Fill 20" fill-rule="evenodd" clip-rule="evenodd" d="M211.855 157.049C212.499 155.83 213.967 154.972 213.967 154.972C213.967 154.972 204.378 152.516 195.873 147.124C195.576 146.936 195.252 147.326 195.493 147.582C203.078 155.652 211.292 160.041 211.292 160.041C211.292 160.041 211.163 158.361 211.855 157.049" fill="#D42D66"/><path id="Fill 22" fill-rule="evenodd" clip-rule="evenodd" d="M152.948 174.757C152.957 174.758 152.966 174.759 152.975 174.76C153.026 174.769 153.077 174.778 153.127 174.787C153.068 174.777 153.008 174.767 152.948 174.757" fill="#2E0BFF"/><path id="Fill 24" fill-rule="evenodd" clip-rule="evenodd" d="M160.774 118.666C160.506 118.666 160.24 118.56 160.044 118.349C150.504 108.136 146.565 99.7048 148.335 93.2878C149.995 87.2648 156.039 85.4548 156.295 85.3808C156.827 85.2268 157.379 85.5338 157.534 86.0628C157.687 86.5928 157.382 87.1468 156.853 87.3008C156.8 87.3168 151.607 88.8978 150.256 93.8398C148.722 99.4588 152.612 107.462 161.504 116.983C161.881 117.387 161.86 118.02 161.457 118.397C161.264 118.577 161.019 118.666 160.774 118.666" fill="white"/><path id="Fill 26" fill-rule="evenodd" clip-rule="evenodd" d="M233.954 41.7997C236.505 42.4927 238.012 45.1227 237.319 47.6737C236.626 50.2247 233.996 51.7307 231.445 51.0377C228.894 50.3447 227.388 47.7157 228.08 45.1647C228.773 42.6127 231.403 41.1067 233.954 41.7997" fill="#CEF367"/><path id="Fill 28" fill-rule="evenodd" clip-rule="evenodd" d="M239.304 49.6835C241.855 50.3765 243.362 53.0065 242.669 55.5575C241.976 58.1085 239.346 59.6145 236.795 58.9215C234.244 58.2285 232.738 55.5995 233.43 53.0485C234.123 50.4965 236.753 48.9905 239.304 49.6835" fill="#CEF367"/><path id="Fill 30" fill-rule="evenodd" clip-rule="evenodd" d="M226.707 35.477C229.258 36.17 230.765 38.8 230.072 41.351C229.379 43.902 226.749 45.408 224.198 44.715C221.647 44.022 220.141 41.393 220.833 38.842C221.526 36.29 224.156 34.784 226.707 35.477" fill="#CEF367"/><path id="Fill 32" fill-rule="evenodd" clip-rule="evenodd" d="M219.386 29.2826C221.937 29.9756 223.444 32.6056 222.75 35.1566C222.057 37.7076 219.428 39.2146 216.877 38.5206C214.325 37.8276 212.819 35.1986 213.512 32.6476C214.205 30.0956 216.835 28.5896 219.386 29.2826" fill="#CEF367"/><path id="Fill 34" fill-rule="evenodd" clip-rule="evenodd" d="M210.263 25.7812C212.814 26.4742 214.321 29.1042 213.628 31.6552C212.935 34.2062 210.305 35.7122 207.754 35.0192C205.203 34.3262 203.697 31.6972 204.389 29.1452C205.082 26.5942 207.712 25.0882 210.263 25.7812" fill="#CEF367"/><path id="Fill 36" fill-rule="evenodd" clip-rule="evenodd" d="M200.855 24.2328C203.406 24.9258 204.912 27.5558 204.219 30.1068C203.526 32.6578 200.897 34.1638 198.346 33.4708C195.794 32.7778 194.288 30.1488 194.981 27.5968C195.674 25.0458 198.304 23.5398 200.855 24.2328" fill="#CEF367"/><g id="Group 40"><mask id="mask1f61e54de-651c-40a6-945b-8b46a9152627" mask-type="alpha" maskUnits="userSpaceOnUse" x="185" y="23" width="10" height="11" fill="#ffffff"><path id="Clip 39" fill-rule="evenodd" clip-rule="evenodd" d="M185.146 23.5952H194.722V33.1701H185.146V23.5952Z" fill="#ffffff"/></mask><g mask="url(#mask1f61e54de-651c-40a6-945b-8b46a9152627)"><path id="Fill 38" fill-rule="evenodd" clip-rule="evenodd" d="M191.188 23.7636C193.739 24.4566 195.246 27.0866 194.553 29.6376C193.859 32.1886 191.23 33.6946 188.679 33.0016C186.127 32.3086 184.621 29.6796 185.314 27.1276C186.007 24.5766 188.637 23.0706 191.188 23.7636" fill="#CEF367"/></g></g><path id="Fill 41" fill-rule="evenodd" clip-rule="evenodd" d="M218.26 48.0536C220.811 48.7466 222.318 51.3766 221.625 53.9276C220.932 56.4786 218.302 57.9846 215.751 57.2916C213.2 56.5986 211.694 53.9696 212.386 51.4176C213.079 48.8666 215.709 47.3606 218.26 48.0536" fill="#CEF367"/><path id="Fill 43" fill-rule="evenodd" clip-rule="evenodd" d="M223.516 56.1249C226.067 56.8179 227.574 59.4479 226.881 61.9989C226.188 64.5499 223.558 66.0559 221.007 65.3629C218.456 64.6699 216.95 62.0409 217.642 59.4889C218.335 56.9379 220.965 55.4319 223.516 56.1249" fill="#CEF367"/><path id="Fill 45" fill-rule="evenodd" clip-rule="evenodd" d="M211.221 41.3901C213.772 42.0831 215.278 44.7131 214.585 47.2641C213.892 49.8151 211.263 51.3211 208.711 50.6281C206.16 49.9351 204.654 47.3061 205.347 44.7541C206.04 42.2031 208.67 40.6971 211.221 41.3901" fill="#CEF367"/><path id="Fill 47" fill-rule="evenodd" clip-rule="evenodd" d="M202.552 37.0932C205.103 37.7862 206.61 40.4162 205.917 42.9672C205.224 45.5182 202.594 47.0242 200.043 46.3312C197.492 45.6382 195.986 43.0092 196.678 40.4572C197.371 37.9062 200.001 36.4002 202.552 37.0932" fill="#CEF367"/><path id="Fill 49" fill-rule="evenodd" clip-rule="evenodd" d="M193.167 34.4652C195.718 35.1582 197.225 37.7882 196.532 40.3392C195.839 42.8902 193.209 44.3962 190.658 43.7032C188.106 43.0102 186.6 40.3812 187.293 37.8292C187.986 35.2782 190.616 33.7722 193.167 34.4652" fill="#CEF367"/><path id="Fill 51" fill-rule="evenodd" clip-rule="evenodd" d="M183.594 32.9633C186.145 33.6563 187.651 36.2863 186.958 38.8373C186.265 41.3883 183.636 42.8943 181.084 42.2013C178.533 41.5083 177.027 38.8793 177.72 36.3283C178.413 33.7763 181.043 32.2703 183.594 32.9633" fill="#CEF367"/><path id="Fill 53" fill-rule="evenodd" clip-rule="evenodd" d="M174.337 31.5351C176.888 32.2281 178.395 34.8581 177.702 37.4091C177.009 39.9601 174.379 41.4671 171.828 40.7731C169.277 40.0801 167.771 37.4511 168.463 34.9001C169.156 32.3481 171.786 30.8421 174.337 31.5351" fill="#CEF367"/><path id="Fill 55" fill-rule="evenodd" clip-rule="evenodd" d="M204.558 59.4096C207.109 60.1026 208.615 62.7326 207.922 65.2836C207.229 67.8346 204.6 69.3406 202.048 68.6476C199.497 67.9546 197.991 65.3256 198.684 62.7746C199.377 60.2226 202.007 58.7166 204.558 59.4096" fill="#CEF367"/><path id="Fill 57" fill-rule="evenodd" clip-rule="evenodd" d="M211.527 66.1908C214.078 66.8838 215.585 69.5128 214.892 72.0648C214.199 74.6158 211.569 76.1218 209.018 75.4288C206.467 74.7358 204.961 72.1068 205.653 69.5548C206.346 67.0038 208.976 65.4978 211.527 66.1908" fill="#CEF367"/><path id="Fill 59" fill-rule="evenodd" clip-rule="evenodd" d="M199.49 76.8666C202.041 77.5596 203.548 80.1896 202.855 82.7406C202.161 85.2916 199.532 86.7976 196.981 86.1046C194.429 85.4116 192.923 82.7826 193.616 80.2306C194.309 77.6796 196.939 76.1736 199.49 76.8666" fill="#CEF367"/><path id="Fill 61" fill-rule="evenodd" clip-rule="evenodd" d="M188.227 90.9442C190.778 91.6372 192.284 94.2672 191.591 96.8182C190.898 99.3692 188.269 100.875 185.718 100.182C183.166 99.4892 181.66 96.8602 182.353 94.3092C183.046 91.7572 185.676 90.2512 188.227 90.9442" fill="#CEF367"/><path id="Fill 63" fill-rule="evenodd" clip-rule="evenodd" d="M196.487 54.1537C199.038 54.8467 200.545 57.4767 199.852 60.0277C199.159 62.5787 196.529 64.0857 193.978 63.3917C191.427 62.6987 189.921 60.0697 190.613 57.5187C191.306 54.9667 193.936 53.4607 196.487 54.1537" fill="#CEF367"/><path id="Fill 65" fill-rule="evenodd" clip-rule="evenodd" d="M187.817 50.0448C190.368 50.7378 191.875 53.3678 191.182 55.9188C190.488 58.4698 187.859 59.9758 185.308 59.2828C182.756 58.5898 181.25 55.9608 181.943 53.4088C182.636 50.8578 185.266 49.3518 187.817 50.0448" fill="#CEF367"/><path id="Fill 67" fill-rule="evenodd" clip-rule="evenodd" d="M178.373 48.0068C180.924 48.6998 182.43 51.3288 181.737 53.8808C181.044 56.4318 178.415 57.9378 175.863 57.2448C173.312 56.5518 171.806 53.9228 172.499 51.3708C173.192 48.8198 175.822 47.3138 178.373 48.0068" fill="#CEF367"/><path id="Fill 69" fill-rule="evenodd" clip-rule="evenodd" d="M169 46.1967C171.551 46.8897 173.057 49.5197 172.364 52.0707C171.671 54.6217 169.042 56.1277 166.491 55.4347C163.939 54.7417 162.433 52.1127 163.126 49.5617C163.819 47.0097 166.449 45.5037 169 46.1967" fill="#CEF367"/><path id="Fill 71" fill-rule="evenodd" clip-rule="evenodd" d="M159.511 44.873C162.062 45.566 163.569 48.196 162.876 50.747C162.182 53.298 159.553 54.804 157.002 54.111C154.45 53.418 152.944 50.789 153.637 48.237C154.33 45.686 156.96 44.18 159.511 44.873" fill="#CEF367"/><path id="Fill 73" fill-rule="evenodd" clip-rule="evenodd" d="M181.683 65.6301C184.271 65.0931 186.805 66.7551 187.343 69.3441C187.88 71.9321 186.217 74.4661 183.629 75.0041C181.04 75.5411 178.507 73.8781 177.969 71.2901C177.432 68.7011 179.095 66.1681 181.683 65.6301" fill="#CEF367"/><path id="Fill 75" fill-rule="evenodd" clip-rule="evenodd" d="M190.222 69.9731C192.81 69.4361 195.345 71.0981 195.882 73.6861C196.419 76.2751 194.757 78.8091 192.168 79.3461C189.58 79.8841 187.046 78.2211 186.509 75.6331C185.972 73.0441 187.634 70.5111 190.222 69.9731" fill="#CEF367"/><path id="Fill 77" fill-rule="evenodd" clip-rule="evenodd" d="M176.135 91.6512C174.526 89.5542 174.922 86.5492 177.019 84.9402C179.116 83.3312 182.121 83.7262 183.73 85.8242C185.34 87.9212 184.944 90.9262 182.846 92.5352C180.749 94.1442 177.744 93.7482 176.135 91.6512" fill="#CEF367"/><path id="Fill 79" fill-rule="evenodd" clip-rule="evenodd" d="M176.466 84.7837C175.229 87.1197 172.332 88.0107 169.996 86.7737C167.66 85.5357 166.769 82.6397 168.007 80.3037C169.243 77.9677 172.14 77.0757 174.476 78.3137C176.813 79.5507 177.703 82.4477 176.466 84.7837" fill="#CEF367"/><path id="Fill 81" fill-rule="evenodd" clip-rule="evenodd" d="M167.457 81.217C166.22 83.553 163.323 84.444 160.987 83.207C158.651 81.969 157.76 79.073 158.997 76.737C160.234 74.401 163.131 73.509 165.467 74.747C167.803 75.984 168.694 78.881 167.457 81.217" fill="#CEF367"/><path id="Fill 83" fill-rule="evenodd" clip-rule="evenodd" d="M157.696 81.9675C156.459 84.3035 153.562 85.1946 151.226 83.9576C148.89 82.7206 147.999 79.8235 149.236 77.4875C150.473 75.1515 153.37 74.2605 155.706 75.4975C158.042 76.7345 158.933 79.6315 157.696 81.9675" fill="#CEF367"/><path id="Fill 85" fill-rule="evenodd" clip-rule="evenodd" d="M149.061 85.9094C147.824 88.2454 144.927 89.1364 142.591 87.8994C140.255 86.6624 139.364 83.7654 140.601 81.4294C141.838 79.0934 144.735 78.2024 147.071 79.4394C149.407 80.6764 150.298 83.5734 149.061 85.9094" fill="#CEF367"/><path id="Fill 87" fill-rule="evenodd" clip-rule="evenodd" d="M172.485 62.4394C175.073 61.9024 177.607 63.5644 178.145 66.1524C178.682 68.7414 177.019 71.2754 174.431 71.8124C171.843 72.3504 169.309 70.6874 168.772 68.0994C168.234 65.5104 169.897 62.9774 172.485 62.4394" fill="#CEF367"/><path id="Fill 89" fill-rule="evenodd" clip-rule="evenodd" d="M163.287 59.8115C165.875 59.2745 168.41 60.9365 168.947 63.5255C169.484 66.1135 167.822 68.6475 165.233 69.1845C162.645 69.7225 160.111 68.0595 159.574 65.4715C159.036 62.8825 160.699 60.3495 163.287 59.8115" fill="#CEF367"/><path id="Fill 91" fill-rule="evenodd" clip-rule="evenodd" d="M153.902 58.3098C156.49 57.7718 159.024 59.4348 159.562 62.0228C160.099 64.6118 158.437 67.1448 155.848 67.6828C153.26 68.2208 150.726 66.5578 150.189 63.9698C149.651 61.3808 151.314 58.8468 153.902 58.3098" fill="#CEF367"/><path id="Fill 93" fill-rule="evenodd" clip-rule="evenodd" d="M144.798 62.5332C147.386 61.9962 149.92 63.6582 150.457 66.2472C150.995 68.8352 149.332 71.3692 146.744 71.9072C144.155 72.4442 141.622 70.7812 141.084 68.1932C140.547 65.6042 142.21 63.0712 144.798 62.5332" fill="#CEF367"/><path id="Fill 95" fill-rule="evenodd" clip-rule="evenodd" d="M128.595 145.086C128.428 145.086 128.259 145.044 128.104 144.956C116.301 138.275 114.802 128.148 115.622 120.828C115.685 120.279 116.175 119.884 116.728 119.946C117.277 120.007 117.672 120.502 117.611 121.051C116.857 127.772 118.237 137.072 129.088 143.216C129.57 143.488 129.739 144.098 129.466 144.579C129.282 144.904 128.944 145.086 128.595 145.086" fill="white"/></g></g></g><g id="Face" transform="translate(595 164) scale(1 1)"><g id="Face/Happy"><g id="Face"><path id="Fill 1" fill-rule="evenodd" clip-rule="evenodd" d="M9.50063 29.6061C9.32563 29.6061 9.15463 29.5141 9.06363 29.3501C8.92863 29.1081 9.01563 28.8041 9.25663 28.6691L12.5366 26.8391C12.7766 26.7061 13.0826 26.7911 13.2166 27.0321C13.3516 27.2731 13.2646 27.5781 13.0236 27.7121L9.74363 29.5431C9.66663 29.5851 9.58363 29.6061 9.50063 29.6061" fill="#CEF367"/><path id="Fill 4" fill-rule="evenodd" clip-rule="evenodd" d="M14.9554 34.1389C14.8604 34.1389 14.7654 34.1119 14.6804 34.0559C14.4494 33.9029 14.3864 33.5929 14.5384 33.3629L16.6134 30.2319C16.7654 30.0009 17.0754 29.9379 17.3064 30.0909C17.5364 30.2429 17.5994 30.5539 17.4474 30.7839L15.3724 33.9149C15.2764 34.0599 15.1174 34.1389 14.9554 34.1389" fill="#CEF367"/><path id="Fill 6" fill-rule="evenodd" clip-rule="evenodd" d="M21.2742 36.6834C21.2432 36.6834 21.2122 36.6804 21.1812 36.6744C20.9092 36.6234 20.7312 36.3624 20.7822 36.0904L21.4792 32.3994C21.5302 32.1294 21.7922 31.9494 22.0632 32.0014C22.3352 32.0524 22.5132 32.3134 22.4612 32.5854L21.7652 36.2764C21.7192 36.5164 21.5102 36.6834 21.2742 36.6834" fill="#CEF367"/><path id="Fill 8" fill-rule="evenodd" clip-rule="evenodd" d="M28.3201 37.2194C28.0711 37.2194 27.8551 37.0334 27.8241 36.7804L27.3681 33.0524C27.3341 32.7784 27.5291 32.5284 27.8031 32.4954C28.0751 32.4544 28.3271 32.6564 28.3601 32.9304L28.8171 36.6584C28.8501 36.9324 28.6551 37.1824 28.3811 37.2154C28.3611 37.2184 28.3401 37.2194 28.3201 37.2194" fill="#CEF367"/><path id="Fill 10" fill-rule="evenodd" clip-rule="evenodd" d="M34.9959 35.0329C34.8459 35.0329 34.6979 34.9659 34.5989 34.8379L32.3099 31.8599C32.1419 31.6409 32.1829 31.3269 32.4019 31.1579C32.6199 30.9899 32.9339 31.0319 33.1029 31.2499L35.3919 34.2279C35.5599 34.4469 35.5189 34.7609 35.2999 34.9289C35.2089 34.9989 35.1019 35.0329 34.9959 35.0329" fill="#CEF367"/><path id="Fill 12" fill-rule="evenodd" clip-rule="evenodd" d="M53.7148 39.9279C53.6478 39.9279 53.5798 39.9139 53.5138 39.8859C53.2608 39.7749 53.1468 39.4799 53.2578 39.2269L54.7698 35.7879C54.8798 35.5359 55.1748 35.4199 55.4278 35.5319C55.6808 35.6429 55.7958 35.9379 55.6848 36.1909L54.1728 39.6289C54.0908 39.8169 53.9068 39.9279 53.7148 39.9279" fill="#CEF367"/><path id="Fill 14" fill-rule="evenodd" clip-rule="evenodd" d="M47.9545 35.9103C47.7985 35.9103 47.6455 35.8383 47.5475 35.7023C47.3865 35.4773 47.4375 35.1653 47.6625 35.0043L50.7125 32.8113C50.9365 32.6493 51.2485 32.7023 51.4105 32.9263C51.5715 33.1503 51.5205 33.4623 51.2965 33.6243L48.2465 35.8163C48.1575 35.8803 48.0555 35.9103 47.9545 35.9103" fill="#CEF367"/><path id="Fill 16" fill-rule="evenodd" clip-rule="evenodd" d="M40.8031 52.4406L35.0691 51.4896C34.7971 51.4446 34.6121 51.1876 34.6571 50.9156C34.7021 50.6426 34.9581 50.4556 35.2321 50.5036L39.9741 51.2896L44.2621 24.4716C44.3051 24.1996 44.5631 24.0126 44.8351 24.0576C45.1071 24.1006 45.2931 24.3576 45.2491 24.6296L40.8031 52.4406Z" fill="white"/><path id="Fill 18" fill-rule="evenodd" clip-rule="evenodd" d="M26.3535 58.5539C28.7905 58.5569 30.6155 58.0829 31.5275 57.7829C32.2725 57.5369 33.0565 57.4299 33.8335 57.5309C34.4535 57.6109 35.0075 57.8829 35.7215 58.5619L36.6465 59.7409C36.6995 59.8059 37.9735 58.6089 37.9735 58.6089C39.1405 58.0849 40.4785 59.4679 40.8605 60.3199C41.2185 60.9879 41.1895 61.7959 40.7845 62.4359C40.4165 63.0149 40.0265 63.6099 40.0265 63.6099C38.7155 65.2169 37.8465 66.7759 34.7125 66.8919C32.5615 66.9709 30.4325 66.2859 28.5645 65.0769L22.3945 58.7969C22.0725 58.5139 22.0415 58.3629 22.0415 58.3629C22.1575 58.3339 24.8945 58.5519 26.3535 58.5539" fill="#7882FD"/><path id="Fill 20" fill-rule="evenodd" clip-rule="evenodd" d="M39.6605 63.1833C37.9655 63.1373 36.2945 62.9813 34.6355 62.5763C30.4995 61.5643 22.1225 58.3803 22.0425 58.3623C22.0745 58.4963 22.2765 58.7213 22.3895 58.8293L28.1385 65.2073C28.3545 65.4483 28.5955 65.6653 28.8615 65.8383C30.6015 66.9693 32.5515 67.5983 34.5175 67.5183C37.6035 67.3933 38.4595 65.7203 39.7495 63.9953C39.7495 63.9953 39.9665 63.6363 40.2265 63.1953C40.0325 63.1933 39.8435 63.1883 39.6605 63.1833" fill="#D7D8FF"/><path id="Fill 23" fill-rule="evenodd" clip-rule="evenodd" d="M11.8511 16.9675C12.0951 16.6875 12.3171 16.3745 12.5871 16.1315C14.4781 14.4285 16.6411 13.2985 18.8421 12.2875C19.8261 11.8365 20.8921 11.6405 21.9131 11.2995C23.5281 10.7595 25.1011 11.0515 26.6641 11.3785C27.6021 11.5745 28.5311 11.8425 29.4431 12.1465C30.7131 12.5705 31.9621 13.0665 33.2261 13.5165C34.3621 13.9215 35.5121 14.2875 36.6441 14.7055C38.4081 15.3545 38.9271 16.2045 38.7611 18.3275C38.6871 19.2795 38.4551 20.2215 38.2761 21.2825C38.1181 21.2555 37.8501 21.2795 37.6461 21.1655C34.5181 19.4005 31.3891 17.6445 28.0571 16.3525C26.4191 15.7175 24.8411 14.9575 23.0681 14.7375C20.7341 14.4465 18.4591 14.6975 16.2071 15.5295C14.9671 15.9875 13.7471 16.5265 12.5161 17.0245C12.3441 17.0935 12.1621 17.1335 11.9851 17.1865C11.9401 17.1135 11.8961 17.0405 11.8511 16.9675" fill="#2E0BFF"/><path id="Fill 26" fill-rule="evenodd" clip-rule="evenodd" d="M57.2854 17.3107C56.6464 17.3327 57.4514 17.2787 56.8124 17.2917C55.6064 17.3167 54.4004 17.3017 53.1934 17.3397C51.3154 17.3987 50.5544 18.0417 50.0404 20.1077C49.8104 21.0337 49.7324 22.0017 49.5674 23.0647C49.7264 23.0887 49.9734 23.1967 50.2024 23.1527C52.8314 22.6407 54.7794 22.1127 57.4264 21.8157C57.4314 21.7947 57.2444 17.4397 57.2854 17.3107" fill="#2E0BFF"/><path id="Fill 29" fill-rule="evenodd" clip-rule="evenodd" d="M33.7928 27.9382C33.1688 27.2992 32.5458 26.6602 31.8358 25.9322C31.5348 26.5002 31.2458 27.0062 30.9918 27.5302C29.7398 30.1202 25.2348 30.1232 24.0788 27.6562C23.4278 26.2662 23.6048 25.1252 25.0918 23.4672C21.0218 22.3812 16.7008 23.3062 12.5908 22.3542C12.5968 22.1882 12.6038 22.0222 12.6088 21.8572C14.1618 21.7512 15.7128 21.6272 17.2668 21.5422C21.2588 21.3212 25.2688 21.2092 29.0788 22.6492C31.4838 23.5602 33.1708 25.3382 34.0108 27.8322C33.9358 27.8632 33.8638 27.8982 33.7928 27.9382" fill="black"/><path id="Fill 31" fill-rule="evenodd" clip-rule="evenodd" d="M57.3989 25.9479C57.3989 25.9339 57.4029 25.9209 57.4039 25.9069C57.2249 25.8979 57.0479 25.8759 56.8669 25.8719C54.2949 25.8209 52.0679 26.8439 50.3599 28.8449C50.4179 28.9019 50.4709 28.9619 50.5229 29.0249C51.3389 28.6639 52.1559 28.3019 53.0849 27.8909C53.1529 28.5309 53.2339 29.1089 53.2739 29.6889C53.4319 31.9789 55.1269 32.8899 57.0029 33.0779C57.3319 30.7319 57.3119 28.3579 57.3989 25.9479" fill="black"/></g></g></g><g id="Hat" transform="translate(483 82) scale(1 1)"><g id="Hat/Felt Widebrim"><g id="Hat"><g id="Group 6"><g id="Group 3"><mask id="mask085b03312-0bf1-4a37-adfd-8ace45cf8ceb" mask-type="alpha" maskUnits="userSpaceOnUse" x="20" y="27" width="189" height="77" fill="#ffffff"><path id="Clip 2" fill-rule="evenodd" clip-rule="evenodd" d="M24.5264 27.311L208.287 40.1608L203.847 103.658L20.0862 90.8082L24.5264 27.311Z" fill="#ffffff"/></mask><g mask="url(#mask085b03312-0bf1-4a37-adfd-8ace45cf8ceb)"><path id="Fill 1" fill-rule="evenodd" clip-rule="evenodd" d="M207.92 43.7898C209.845 52.1053 169.439 68.5598 117.671 80.5419C65.9046 92.523 22.3782 95.495 20.4536 87.1795C18.529 78.864 58.9342 62.4094 110.702 50.4274C162.469 38.4463 205.995 35.4743 207.92 43.7898" fill="#5350D1"/></g></g><path id="Fill 4" fill-rule="evenodd" clip-rule="evenodd" d="M117.597 68.5701C94.1935 74.48 64.0854 68.9864 64.0854 68.9864L57.5199 29.6856C57.1852 27.1892 58.6738 24.9105 61.006 23.9569C75.5639 18.0009 119.375 4.25446 143.639 8.98456C145.594 9.36587 147.162 10.8158 147.769 12.7127C155.849 37.985 158.99 47.6987 158.99 47.6987C158.99 47.6987 150.01 60.3852 117.597 68.5701" fill="#7882FD"/></g><g id="Group 9"><mask id="mask185b03312-0bf1-4a37-adfd-8ace45cf8ceb" mask-type="alpha" maskUnits="userSpaceOnUse" x="57" y="8" width="108" height="77" fill="#ffffff"><path id="Clip 8" fill-rule="evenodd" clip-rule="evenodd" d="M61.006 23.9568C58.6739 24.9094 57.1853 27.1882 57.5199 29.6856V29.6856L63.8123 72.4196L65.2063 81.8859C65.2063 81.8859 87.1517 87.321 110.888 82.9391V82.9391C138.828 77.7825 164.193 65.5952 164.193 65.5952V65.5952C164.193 65.5952 155.849 37.9849 147.769 12.7137V12.7137C147.162 10.8147 145.594 9.36681 143.639 8.9845V8.9845C141.663 8.59972 139.561 8.33647 137.352 8.18303V8.18303C112.437 6.44179 74.3783 18.4853 61.006 23.9568" fill="#ffffff"/></mask><g mask="url(#mask185b03312-0bf1-4a37-adfd-8ace45cf8ceb)"><path id="Fill 7" fill-rule="evenodd" clip-rule="evenodd" d="M160.13 -0.571885C161.437 5.60535 137.223 15.9635 106.045 22.5637C74.8671 29.1639 48.5321 29.5057 47.2248 23.3285C45.9166 17.1502 70.1311 6.79304 101.309 0.192859C132.488 -6.40733 158.823 -6.74912 160.13 -0.571885" fill="#5350D1"/></g></g><g id="Group 14"><path id="Stroke 10" d="M119.929 68.3757C120.463 68.2342 121.011 68.5522 121.152 69.086C121.294 69.6198 120.976 70.1674 120.442 70.3089C105.212 74.3469 86.4276 73.8627 68.131 69.678C67.5926 69.5548 67.256 69.0186 67.3792 68.4802C67.5023 67.9418 68.0386 67.6052 68.5769 67.7283C86.5801 71.8459 105.046 72.3219 119.929 68.3757Z" fill="white"/><path id="Stroke 12" d="M135.907 13.5782C136.414 13.36 137.002 13.5943 137.221 14.1016C137.439 14.6089 137.205 15.1972 136.697 15.4154C129.871 18.3524 123.127 20.459 116.761 21.8729C114.531 22.3683 112.505 22.7419 110.722 23.0107L110.006 23.1146C109.78 23.1462 109.565 23.1747 109.363 23.2003L108.478 23.3022C107.928 23.3533 107.441 22.9489 107.39 22.3989C107.339 21.849 107.743 21.3618 108.293 21.3108L108.831 21.251L109.413 21.177C109.723 21.1357 110.06 21.0879 110.424 21.033L111.496 20.8633C112.963 20.62 114.58 20.3086 116.328 19.9205C122.577 18.5325 129.202 16.463 135.907 13.5782Z" fill="white"/></g></g></g></g><g id="Earrings" transform="translate(542 189) scale(1 1)"><g id="Earrings/Geo Chandelier"><g id="Group 11"><g id="Group 3"><path id="Fill 1" fill-rule="evenodd" clip-rule="evenodd" d="M14.7344 29.235C14.7344 21.097 21.3324 14.5 29.4694 14.5C37.6074 14.5 44.2054 21.097 44.2054 29.235" fill="#2E0BFF"/></g><path id="Fill 4" fill-rule="evenodd" clip-rule="evenodd" d="M14.9229 43.1255H20.5539V30.8315H14.9229V43.1255Z" fill="#2E0BFF"/><path id="Fill 6" fill-rule="evenodd" clip-rule="evenodd" d="M26.9351 43.1255H32.5661V30.8315H26.9351V43.1255Z" fill="#2E0BFF"/><path id="Fill 7" fill-rule="evenodd" clip-rule="evenodd" d="M38.667 43.1255H44.299V30.8315H38.667V43.1255Z" fill="#2E0BFF"/><path id="Fill 8" fill-rule="evenodd" clip-rule="evenodd" d="M21.3985 47.8414C21.3985 49.7464 19.8545 51.2904 17.9495 51.2904C16.0445 51.2904 14.5005 49.7464 14.5005 47.8414C14.5005 45.9364 16.0445 44.3924 17.9495 44.3924C19.8545 44.3924 21.3985 45.9364 21.3985 47.8414" fill="#2E0BFF"/><path id="Fill 9" fill-rule="evenodd" clip-rule="evenodd" d="M32.9424 47.8414C32.9424 49.7464 31.3984 51.2904 29.4934 51.2904C27.5884 51.2904 26.0444 49.7464 26.0444 47.8414C26.0444 45.9364 27.5884 44.3924 29.4934 44.3924C31.3984 44.3924 32.9424 45.9364 32.9424 47.8414" fill="#2E0BFF"/><path id="Fill 10" fill-rule="evenodd" clip-rule="evenodd" d="M45.1905 47.8414C45.1905 49.7464 43.6455 51.2904 41.7415 51.2904C39.8365 51.2904 38.2925 49.7464 38.2925 47.8414C38.2925 45.9364 39.8365 44.3924 41.7415 44.3924C43.6455 44.3924 45.1905 45.9364 45.1905 47.8414" fill="#2E0BFF"/></g></g></g></g></svg>