<svg viewBox="303.25 90.82500000000005 636.8249999999999 1135.3125" fill="none" xmlns="http://www.w3.org/2000/svg" xmlns:xlink="http://www.w3.org/1999/xlink" overflow="visible" width="636.8249999999999px" height="1135.3125px"><g id="Master/Character/Pride Mixable Body"><g id="Pride Lower" transform="translate(244 522) scale(1 1)"><g id="Pride Lower/Skirt"><g id="Group"><g id="Legs"><path id="Fill 1" fill-rule="evenodd" clip-rule="evenodd" d="M400.896 474.778L404.28 450.977C404.28 450.977 419.601 368.308 426.479 339.847C427.31 336.41 427.997 332.791 430.061 329.887C451.201 300.152 445.951 271.304 445.533 266.718L421.828 12.6104H319.567C316.37 39.5387 310.757 91.344 311.548 117.126C313.8 190.556 322.247 249.738 321.684 256.861C321.121 263.986 322.81 306.181 317.179 324.264C311.548 342.348 296.431 384.525 296.907 407.01C297.382 429.496 301.787 503.821 301.787 503.821L316.831 650.406C316.987 655.42 321.124 659.452 326.277 659.611L431.78 662.86C443.593 663.225 445.633 646.579 434.059 644.249C433.701 644.178 433.338 644.107 432.972 644.036C402.739 638.177 387.867 615.727 383.595 608.066C382.707 606.472 382.329 604.658 382.474 602.851L400.896 474.778Z" fill="#D42D66"/><path id="SKIN" fill-rule="evenodd" clip-rule="evenodd" d="M292.377 475.261L295.761 451.461C295.761 451.461 313.963 353.242 319.595 334.063C331.42 313.24 337.614 273.785 337.614 273.785L345.025 12.6104H244.899C231.586 30.6278 217.92 49.4111 207.46 69.1743C204.339 83.6359 202.485 99.8851 203.029 117.609C205.281 191.039 213.728 250.221 213.165 257.345C212.602 264.469 214.292 306.664 208.66 324.747C203.029 342.831 187.913 385.008 188.388 407.493C188.863 429.978 193.268 504.305 193.268 504.305L208.312 650.888C208.468 655.903 212.605 659.935 217.758 660.093L323.261 663.344C335.074 663.707 337.114 647.062 325.54 644.732C325.182 644.66 324.819 644.589 324.453 644.518C294.22 638.66 279.348 616.209 275.076 608.549C274.188 606.956 273.81 605.142 273.955 603.334L292.377 475.261Z" fill="#c7763c"/></g><g id="Shoe"><path id="Fill 3" fill-rule="evenodd" clip-rule="evenodd" d="M421.011 686.738H419.905C415.923 686.738 412.682 683.585 412.682 679.709V662.98C412.682 659.105 415.923 655.951 419.905 655.951H421.011C424.993 655.951 428.234 659.105 428.234 662.98V679.709C428.234 683.585 424.993 686.738 421.011 686.738" fill="#008BF7"/><path id="Fill 5" fill-rule="evenodd" clip-rule="evenodd" d="M434.663 686.738H433.557C429.574 686.738 426.334 683.585 426.334 679.709V662.98C426.334 659.105 429.574 655.951 433.557 655.951H434.663C438.645 655.951 441.886 659.105 441.886 662.98V679.709C441.886 683.585 438.645 686.738 434.663 686.738" fill="#008BF7"/><path id="Fill 11" fill-rule="evenodd" clip-rule="evenodd" d="M339.097 686.738H337.991C334.009 686.738 330.768 683.585 330.768 679.709V662.98C330.768 659.105 334.009 655.951 337.991 655.951H339.097C343.079 655.951 346.32 659.105 346.32 662.98V679.709C346.32 683.585 343.079 686.738 339.097 686.738" fill="#008BF7"/><path id="Fill 13" fill-rule="evenodd" clip-rule="evenodd" d="M352.749 686.738H351.643C347.66 686.738 344.42 683.585 344.42 679.709V662.98C344.42 659.105 347.66 655.951 351.643 655.951H352.749C356.731 655.951 359.971 659.105 359.971 662.98V679.709C359.971 683.585 356.731 686.738 352.749 686.738" fill="#008BF7"/><path id="Fill 15" fill-rule="evenodd" clip-rule="evenodd" d="M366.401 686.738H365.295C361.312 686.738 358.072 683.585 358.072 679.709V662.98C358.072 659.105 361.312 655.951 365.295 655.951H366.401C370.383 655.951 373.624 659.105 373.624 662.98V679.709C373.624 683.585 370.383 686.738 366.401 686.738" fill="#008BF7"/><path id="Fill 17" fill-rule="evenodd" clip-rule="evenodd" d="M380.054 686.738H378.948C374.966 686.738 371.725 683.585 371.725 679.709V662.98C371.725 659.105 374.966 655.951 378.948 655.951H380.054C384.036 655.951 387.277 659.105 387.277 662.98V679.709C387.277 683.585 384.036 686.738 380.054 686.738" fill="#008BF7"/><path id="Fill 19" fill-rule="evenodd" clip-rule="evenodd" d="M393.706 686.738H392.6C388.617 686.738 385.377 683.585 385.377 679.709V662.98C385.377 659.105 388.617 655.951 392.6 655.951H393.706C397.688 655.951 400.929 659.105 400.929 662.98V679.709C400.929 683.585 397.688 686.738 393.706 686.738" fill="#008BF7"/><path id="Fill 21" fill-rule="evenodd" clip-rule="evenodd" d="M407.358 686.738H406.252C402.27 686.738 399.029 683.585 399.029 679.709V662.98C399.029 659.105 402.27 655.951 406.252 655.951H407.358C411.34 655.951 414.581 659.105 414.581 662.98V679.709C414.581 683.585 411.34 686.738 407.358 686.738" fill="#008BF7"/><path id="Fill 23" fill-rule="evenodd" clip-rule="evenodd" d="M316.924 669.754H442.011V655.433H316.924V669.754Z" fill="#008BF7"/><path id="Fill 25" fill-rule="evenodd" clip-rule="evenodd" d="M389.124 616.499L313.425 616.342L312.205 602.551L382.368 602.178L389.124 616.499Z" fill="#008BF7"/><path id="Fill 26" fill-rule="evenodd" clip-rule="evenodd" d="M341.758 662.444H358.466V606.354H341.758V662.444Z" fill="#008BF7"/><path id="Fill 28" fill-rule="evenodd" clip-rule="evenodd" d="M362.808 603.201H319.068C318.516 603.201 318.068 602.766 318.068 602.228C318.068 601.69 318.516 601.255 319.068 601.255H362.808C363.36 601.255 363.808 601.69 363.808 602.228C363.808 602.766 363.36 603.201 362.808 603.201" fill="white"/><path id="Fill 27" fill-rule="evenodd" clip-rule="evenodd" d="M418.966 668.113H402.258L402.053 629.477L418.174 639.397L418.966 668.113Z" fill="#008BF7"/><path id="Fill 29" fill-rule="evenodd" clip-rule="evenodd" d="M439.498 666.213H395.758C395.206 666.213 394.758 665.778 394.758 665.24C394.758 664.702 395.206 664.267 395.758 664.267H439.498C440.05 664.267 440.498 664.702 440.498 665.24C440.498 665.778 440.05 666.213 439.498 666.213" fill="white"/><path id="Fill 30" fill-rule="evenodd" clip-rule="evenodd" d="M429.21 643.126L429.133 647.676L439.66 648.174C439.422 646.212 437.786 644.691 435.761 644.552L429.21 643.126Z" fill="#B2DA23"/></g><g id="Shoe_2"><path id="Fill 7" fill-rule="evenodd" clip-rule="evenodd" d="M325.444 685.764H324.338C320.902 685.764 318.115 683.053 318.115 679.709V662.98C318.115 659.635 320.902 656.924 324.338 656.924H325.444C328.881 656.924 331.667 659.635 331.667 662.98V679.709C331.667 683.053 328.881 685.764 325.444 685.764" fill="white"/><path id="Fill 9" fill-rule="evenodd" clip-rule="evenodd" d="M324.338 657.897C321.458 657.897 319.115 660.177 319.115 662.98V679.709C319.115 682.512 321.458 684.792 324.338 684.792H325.444C328.324 684.792 330.667 682.512 330.667 679.709V662.98C330.667 660.177 328.324 657.897 325.444 657.897H324.338ZM325.444 686.738H324.338C320.356 686.738 317.115 683.584 317.115 679.709V662.98C317.115 659.104 320.356 655.951 324.338 655.951H325.444C329.427 655.951 332.667 659.104 332.667 662.98V679.709C332.667 683.584 329.427 686.738 325.444 686.738V686.738Z" fill="#2E0BFF"/><path id="Fill 32" fill-rule="evenodd" clip-rule="evenodd" d="M312.493 687.22H311.387C307.405 687.22 304.164 684.067 304.164 680.191V663.462C304.164 659.587 307.405 656.434 311.387 656.434H312.493C316.475 656.434 319.716 659.587 319.716 663.462V680.191C319.716 684.067 316.475 687.22 312.493 687.22" fill="#A1DEFF"/><path id="Fill 33" fill-rule="evenodd" clip-rule="evenodd" d="M326.145 686.247H325.039C321.602 686.247 318.816 683.537 318.816 680.191V663.462C318.816 660.117 321.602 657.406 325.039 657.406H326.145C329.582 657.406 332.368 660.117 332.368 663.462V680.191C332.368 683.537 329.582 686.247 326.145 686.247" fill="white"/><path id="Fill 34" fill-rule="evenodd" clip-rule="evenodd" d="M326.145 687.22H325.039C321.057 687.22 317.816 684.067 317.816 680.191V663.462C317.816 659.587 321.057 656.434 325.039 656.434H326.145C330.127 656.434 333.368 659.587 333.368 663.462V680.191C333.368 684.067 330.127 687.22 326.145 687.22" fill="#A1DEFF"/><path id="Fill 35" fill-rule="evenodd" clip-rule="evenodd" d="M216.925 686.247H215.819C212.382 686.247 209.596 683.537 209.596 680.191V663.462C209.596 660.117 212.382 657.406 215.819 657.406H216.925C220.362 657.406 223.148 660.117 223.148 663.462V680.191C223.148 683.537 220.362 686.247 216.925 686.247" fill="white"/><path id="Fill 36" fill-rule="evenodd" clip-rule="evenodd" d="M216.925 687.22H215.819C211.837 687.22 208.596 684.067 208.596 680.191V663.462C208.596 659.587 211.837 656.434 215.819 656.434H216.925C220.907 656.434 224.148 659.587 224.148 663.462V680.191C224.148 684.067 220.907 687.22 216.925 687.22" fill="#A1DEFF"/><path id="Fill 37" fill-rule="evenodd" clip-rule="evenodd" d="M230.579 687.22H229.473C225.49 687.22 222.25 684.067 222.25 680.191V663.462C222.25 659.587 225.49 656.434 229.473 656.434H230.579C234.561 656.434 237.802 659.587 237.802 663.462V680.191C237.802 684.067 234.561 687.22 230.579 687.22" fill="#A1DEFF"/><path id="Fill 38" fill-rule="evenodd" clip-rule="evenodd" d="M244.231 686.247H243.125C239.688 686.247 236.902 683.537 236.902 680.191V663.462C236.902 660.117 239.688 657.406 243.125 657.406H244.231C247.668 657.406 250.454 660.117 250.454 663.462V680.191C250.454 683.537 247.668 686.247 244.231 686.247" fill="white"/><path id="Fill 39" fill-rule="evenodd" clip-rule="evenodd" d="M244.231 687.22H243.125C239.143 687.22 235.902 684.067 235.902 680.191V663.462C235.902 659.587 239.143 656.434 243.125 656.434H244.231C248.213 656.434 251.454 659.587 251.454 663.462V680.191C251.454 684.067 248.213 687.22 244.231 687.22" fill="#A1DEFF"/><path id="Fill 40" fill-rule="evenodd" clip-rule="evenodd" d="M257.884 686.247H256.778C253.342 686.247 250.555 683.537 250.555 680.191V663.462C250.555 660.117 253.342 657.406 256.778 657.406H257.884C261.321 657.406 264.107 660.117 264.107 663.462V680.191C264.107 683.537 261.321 686.247 257.884 686.247" fill="white"/><path id="Fill 41" fill-rule="evenodd" clip-rule="evenodd" d="M257.884 687.22H256.778C252.795 687.22 249.555 684.067 249.555 680.191V663.462C249.555 659.587 252.795 656.434 256.778 656.434H257.884C261.866 656.434 265.106 659.587 265.106 663.462V680.191C265.106 684.067 261.866 687.22 257.884 687.22" fill="#A1DEFF"/><path id="Fill 42" fill-rule="evenodd" clip-rule="evenodd" d="M271.536 686.247H270.43C266.993 686.247 264.207 683.537 264.207 680.191V663.462C264.207 660.117 266.993 657.406 270.43 657.406H271.536C274.973 657.406 277.759 660.117 277.759 663.462V680.191C277.759 683.537 274.973 686.247 271.536 686.247" fill="white"/><path id="Fill 43" fill-rule="evenodd" clip-rule="evenodd" d="M271.536 687.22H270.43C266.447 687.22 263.207 684.067 263.207 680.191V663.462C263.207 659.587 266.447 656.434 270.43 656.434H271.536C275.518 656.434 278.759 659.587 278.759 663.462V680.191C278.759 684.067 275.518 687.22 271.536 687.22" fill="#A1DEFF"/><path id="Fill 44" fill-rule="evenodd" clip-rule="evenodd" d="M285.188 686.247H284.082C280.645 686.247 277.859 683.537 277.859 680.191V663.462C277.859 660.117 280.645 657.406 284.082 657.406H285.188C288.625 657.406 291.411 660.117 291.411 663.462V680.191C291.411 683.537 288.625 686.247 285.188 686.247" fill="white"/><path id="Fill 45" fill-rule="evenodd" clip-rule="evenodd" d="M285.188 687.22H284.082C280.1 687.22 276.859 684.067 276.859 680.191V663.462C276.859 659.587 280.1 656.434 284.082 656.434H285.188C289.17 656.434 292.411 659.587 292.411 663.462V680.191C292.411 684.067 289.17 687.22 285.188 687.22" fill="#A1DEFF"/><path id="Fill 46" fill-rule="evenodd" clip-rule="evenodd" d="M298.841 686.247H297.735C294.299 686.247 291.512 683.537 291.512 680.191V663.462C291.512 660.117 294.299 657.406 297.735 657.406H298.841C302.278 657.406 305.064 660.117 305.064 663.462V680.191C305.064 683.537 302.278 686.247 298.841 686.247" fill="white"/><path id="Fill 47" fill-rule="evenodd" clip-rule="evenodd" d="M298.841 687.22H297.735C293.752 687.22 290.512 684.067 290.512 680.191V663.462C290.512 659.587 293.752 656.434 297.735 656.434H298.841C302.823 656.434 306.064 659.587 306.064 663.462V680.191C306.064 684.067 302.823 687.22 298.841 687.22" fill="#A1DEFF"/><path id="Fill 48" fill-rule="evenodd" clip-rule="evenodd" d="M208.404 670.237H333.491V655.916H208.404V670.237Z" fill="#A1DEFF"/><path id="Fill 49" fill-rule="evenodd" clip-rule="evenodd" d="M280.606 616.982L204.908 616.825L203.688 603.034L273.851 602.661L280.606 616.982Z" fill="#A1DEFF"/><path id="Fill 50" fill-rule="evenodd" clip-rule="evenodd" d="M233.238 662.926H249.947V606.837H233.238V662.926Z" fill="#A1DEFF"/><path id="Fill 51" fill-rule="evenodd" clip-rule="evenodd" d="M310.448 668.595H293.739L293.535 629.96L309.656 639.879L310.448 668.595Z" fill="#A1DEFF"/><path id="Fill 52" fill-rule="evenodd" clip-rule="evenodd" d="M254.292 603.684H210.553C210 603.684 209.553 603.249 209.553 602.71C209.553 602.172 210 601.737 210.553 601.737H254.292C254.844 601.737 255.292 602.172 255.292 602.71C255.292 603.249 254.844 603.684 254.292 603.684" fill="white"/><path id="Fill 53" fill-rule="evenodd" clip-rule="evenodd" d="M330.979 666.695H287.24C286.688 666.695 286.24 666.26 286.24 665.722C286.24 665.184 286.688 664.749 287.24 664.749H330.979C331.531 664.749 331.979 665.184 331.979 665.722C331.979 666.26 331.531 666.695 330.979 666.695" fill="white"/><path id="Fill 54" fill-rule="evenodd" clip-rule="evenodd" d="M320.692 643.609L320.615 648.159L331.141 648.656C330.904 646.694 329.267 645.173 327.243 645.035L320.692 643.609Z" fill="#B2DA23"/></g><g id="Skirt"><path id="Fill 55" fill-rule="evenodd" clip-rule="evenodd" d="M466.238 492.913C466.104 493.862 465.977 494.811 465.83 495.759C465.825 495.792 465.82 495.826 465.815 495.859C465.808 495.465 465.797 495.071 465.79 494.677C465.945 494.084 466.092 493.494 466.238 492.913M64.4058 565.302H472.649C471.286 557.846 470.003 549.543 469.771 547.437C469.58 545.711 469.435 543.981 469.295 542.252C469.158 540.61 469.267 538.953 469.361 537.307C469.736 531.244 470.486 525.188 471.47 519.17C471.97 516.107 472.509 513.058 473.111 510.009C473.756 506.725 474.302 503.437 474.795 500.138C475.775 493.508 476.728 486.868 477.197 480.201C477.666 473.67 477.974 467.112 477.849 460.571C477.724 454.017 477.068 447.46 475.97 440.963C475.384 437.466 474.728 433.984 474.006 430.502C473.345 427.309 472.537 424.135 471.818 420.95C470.33 414.328 468.427 407.771 466.963 401.145C465.486 394.447 464.123 387.73 462.47 381.056C461.927 378.843 461.361 376.635 460.877 374.414C460.439 372.388 460.22 370.309 459.916 368.264C459.537 365.733 459.201 363.201 458.888 360.662C458.631 358.556 458.513 356.438 458.381 354.325C458.088 349.763 457.802 345.198 457.74 340.633C457.709 338.093 457.713 335.566 457.748 333.026C457.775 331.175 457.881 329.32 457.978 327.469C458.56 320.726 459.318 314.008 460.275 307.296C460.759 303.943 461.509 300.617 462.224 297.291C462.931 293.975 463.713 290.673 464.455 287.361C467.486 273.92 470.592 260.482 473.275 246.992C474.627 240.18 475.373 233.308 476.181 226.446C476.58 223.071 476.861 219.703 477.099 216.32C477.365 212.583 477.439 208.835 477.564 205.094C477.681 201.726 477.814 198.362 477.896 194.994C477.982 191.649 477.931 188.297 477.955 184.947C477.974 181.515 477.838 178.075 477.763 174.639C477.689 171.407 477.537 168.177 477.259 164.953C476.97 161.63 476.685 158.308 476.291 154.994C475.888 151.641 475.509 148.292 475.252 144.928C475.122 143.258 474.989 141.592 474.849 139.926C474.434 137.627 474.019 135.328 473.603 133.03C473.18 130.694 472.769 128.356 472.365 126.016C471.313 121.647 470.258 117.278 469.193 112.91C468.064 108.257 466.963 103.574 465.631 98.9708C464.155 93.8697 462.632 88.7841 461.073 83.7083L461.072 83.6966C460.232 80.9641 459.381 78.2345 458.521 75.5058C457.752 73.0633 456.976 70.6207 456.193 68.1801C455.99 67.6001 455.788 67.0221 455.585 66.4431C454.712 63.9499 453.842 61.4587 452.976 58.9627C452.754 58.518 452.59 58.0392 452.484 57.5409L451.125 53.5959C450.679 52.2841 450.23 50.9762 449.781 49.6654C449.777 49.6538 449.769 49.6421 449.765 49.6314C449.636 49.2888 449.511 48.9463 449.383 48.6008L446.218 40.0704C445.351 37.7291 444.355 35.4257 443.422 33.1067C441.794 29.0585 440.106 25.0356 438.424 21.0088C437.465 19.3107 436.502 17.6087 435.543 15.9057C434.853 14.6835 434.15 13.47 433.452 12.2536C433.457 12.2526 433.461 12.2517 433.466 12.2517C432.804 11.0985 432.141 9.94535 431.475 8.79414C429.759 5.8193 426.366 0.00194969 426.366 0.000976562C423.608 0.118725 238.659 0.182951 238.659 0.182951C238.659 0.182951 234.555 6.52968 233.336 8.33969H233.34C233.094 8.70461 232.847 9.06759 232.602 9.43251C229.456 14.1084 226.641 18.9361 223.761 23.7219C221.11 28.1233 218.364 32.4907 215.736 36.9039C213.655 40.3954 211.603 43.8958 209.564 47.4019C209.561 47.4029 209.557 47.4029 209.553 47.4039C209.23 47.9595 208.915 48.5171 208.593 49.0718C207.409 51.1173 206.232 53.1638 205.061 55.2142C204.59 56.0404 204.116 56.8636 203.648 57.6908C202.038 60.5255 200.437 63.3651 198.853 66.2105C198.821 66.2679 198.788 66.3263 198.756 66.3828C198.557 66.7633 198.354 67.1399 198.155 67.5155C198.151 67.5281 198.147 67.5408 198.143 67.5534C194.09 75.2392 190.14 82.9668 186.712 90.8559C184.359 96.2762 182.051 101.708 179.782 107.152C178.505 110.213 177.326 113.301 176.183 116.399C175.743 117.945 175.311 119.493 174.884 121.041C173.276 126.869 172.134 132.772 171.049 138.675C170.336 142.545 169.828 146.442 169.161 150.319C168.467 154.322 167.684 158.309 167.13 162.327C166.561 166.486 166.025 170.648 165.452 174.807C165.181 176.757 164.776 178.703 164.431 180.645C164.091 182.547 163.732 184.443 163.378 186.344C161.723 194.231 159.818 202.1 157.082 209.786C155.679 213.725 154.146 217.613 152.389 221.456C150.623 225.322 148.749 229.142 146.773 232.944C143.87 238.209 140.902 243.454 137.737 248.62C134.493 253.923 130.98 259.115 127.755 264.426C121.076 275.441 114.38 286.508 108.988 297.995C107.618 300.922 106.276 303.853 104.957 306.794C103.633 309.741 102.491 312.751 101.275 315.728C98.9068 321.525 97.0338 327.447 95.2678 333.381C94.3918 336.342 93.6548 339.334 92.8958 342.317C92.1268 345.347 91.4188 348.415 90.8688 351.478C90.3468 354.402 89.8058 357.325 89.4568 360.264C89.0928 363.357 88.8838 366.452 88.7108 369.557C88.3798 375.583 88.5668 381.592 88.9998 387.61C89.4238 393.536 90.0758 399.435 91.4048 405.274C92.0098 407.935 92.6208 410.596 93.3148 413.242C94.0088 415.868 94.7828 418.476 95.5238 421.095C97.1088 426.724 98.2218 432.431 99.1168 438.159C99.1868 438.589 99.2478 439.018 99.3038 439.448C99.8438 443.895 99.7698 448.404 99.6578 452.867C99.5968 455.234 99.4528 457.595 99.2238 459.956C99.0098 462.157 98.8188 464.365 98.4738 466.555C96.8568 473.865 85.1318 497.778 82.1728 502.666C79.0038 507.908 76.0398 513.28 73.5838 518.772C71.2118 524.068 69.0448 529.397 67.3998 534.871C66.5188 537.814 66.0338 540.831 65.5118 543.827C65.2978 545.059 65.0738 546.287 64.8638 547.518C64.6308 548.909 64.5288 550.305 64.4448 551.707C64.2858 554.295 64.1368 556.884 64.0158 559.476C63.9458 560.921 64.1228 562.381 64.2588 563.821C64.3058 564.315 64.3568 564.808 64.4058 565.302" fill="#67D04B"/><path id="Fill 56" fill-rule="evenodd" clip-rule="evenodd" d="M473.593 566.124C472.804 562.68 472.019 558.558 471.321 553.649C467.806 528.933 473.292 526.067 478.36 484.968C483.428 443.868 466.186 394.227 462.217 379.389C458.249 364.551 457.747 333.026 457.747 333.026C446.542 345.705 434.481 361.777 420.223 370.97C399.962 384.031 375.616 389.432 353.538 399.317C301.518 422.608 247.553 502.469 250.334 566.124H473.593Z" fill="#ffa648"/><path id="Fill 57" fill-rule="evenodd" clip-rule="evenodd" d="M474.418 238.557C452.151 241.132 427.331 239.303 404.83 237.774C382.704 236.27 358.483 233.872 342.912 218.501C327.243 203.031 325.179 178.938 327.206 157.307C329.74 130.239 337.256 103.62 349.289 79.0928C359.945 57.3687 374.318 37.2659 382.56 14.448C384.124 10.1195 385.142 4.77902 386.008 0.114829L426.365 0C426.365 0 449.078 26.8515 471.039 120.74C486.372 186.289 474.418 238.557 474.418 238.557" fill="#FF3800"/><path id="Fill 58" fill-rule="evenodd" clip-rule="evenodd" d="M241.839 165.908C230.808 144.535 200.742 117.726 178.217 111.149C178.217 111.149 170.615 125.398 166.204 168.049C164.415 185.35 157.58 208.185 155.13 214.446L131.76 258.011C124.721 267.053 91.2154 324.317 89.2444 362.128C87.2744 399.939 92.0604 407.062 94.3134 416.926C94.3934 417.278 94.4774 417.642 94.5654 418.017C97.8174 431.973 99.0994 448.436 97.1284 459.943L90.0894 487.068C91.0944 486.915 141.333 474.465 181.503 447.197C207.394 429.621 226.683 399.988 223.912 369.388C222.194 350.422 212.347 333.221 205.774 315.288C199.201 297.355 196.292 276.036 207.379 260.349C215.08 249.454 228.15 243.324 237.09 233.365C253.261 215.355 252.871 187.281 241.839 165.908" fill="#008BF7"/><path id="Fill 59" fill-rule="evenodd" clip-rule="evenodd" d="M109.721 360.839C109.255 360.839 108.838 360.52 108.742 360.059C105.281 343.468 108.495 324.758 118.297 304.447C123.66 293.333 130.414 282.743 136.946 272.502C140.513 266.91 144.201 261.126 147.614 255.333C156.154 240.84 163.431 225.518 169.243 209.797C174.338 196.015 179.784 177.929 176.638 160.255C176.544 159.725 176.909 159.222 177.453 159.13C177.994 159.041 178.514 159.393 178.609 159.922C181.834 178.047 176.304 196.449 171.125 210.457C165.273 226.284 157.947 241.709 149.349 256.301C145.919 262.124 142.221 267.922 138.646 273.528C132.144 283.722 125.421 294.263 120.108 305.273C110.492 325.198 107.328 343.5 110.702 359.672C110.812 360.198 110.462 360.712 109.921 360.819C109.854 360.832 109.787 360.839 109.721 360.839" fill="white"/><path id="Fill 60" fill-rule="evenodd" clip-rule="evenodd" d="M454.436 552.742C453.914 552.742 453.475 552.348 453.439 551.833C453.038 545.98 453.293 539.715 454.221 532.683C455.319 524.355 457.295 515.992 459.206 507.904C462.641 493.361 466.193 478.323 464.691 463.143C464.639 462.608 465.041 462.133 465.591 462.082C466.14 462.025 466.63 462.421 466.683 462.956C468.215 478.451 464.626 493.646 461.155 508.34C459.255 516.382 457.29 524.698 456.205 532.93C455.294 539.836 455.042 545.978 455.435 551.704C455.472 552.24 455.055 552.704 454.503 552.74C454.481 552.741 454.458 552.742 454.436 552.742" fill="white"/></g></g></g></g><g id="Pride Upper" transform="translate(219 -19) scale(1 1)"><g id="Pride Upper/Oversized Blazer"><g id="Group 54"><path id="SKIN" fill-rule="evenodd" clip-rule="evenodd" d="M308.382 272C308.382 272 342.662 312.404 386.023 300.016C405.45 320.006 397.848 427.561 397.848 427.561L361.809 526.107L311.691 475.99L297.93 278.617L308.382 272Z" fill="#c7763c"/><path id="Fill 3" fill-rule="evenodd" clip-rule="evenodd" d="M336.373 442.672C336.373 442.672 341.629 435.164 342.38 426.905C343.131 418.646 358.897 440.42 340.878 459.566C338.25 451.682 336.373 442.672 336.373 442.672" fill="#D42D66"/><path id="Fill 5" fill-rule="evenodd" clip-rule="evenodd" d="M372.38 441.358C372.38 441.358 367.124 433.849 366.373 425.59C365.623 417.332 349.856 439.105 367.875 458.252C370.503 450.368 372.38 441.358 372.38 441.358" fill="#D42D66"/><path id="Fill 7" fill-rule="evenodd" clip-rule="evenodd" d="M509.277 559.773C509.188 559.822 509.006 559.736 508.733 559.518V639.4C509.083 616.458 509.345 600.159 509.345 600.159C509.012 597.682 509.123 564.633 509.277 559.773" fill="#EE50C5"/><path id="Fill 9" fill-rule="evenodd" clip-rule="evenodd" d="M491.937 538.899C473.79 515.152 447.965 479.65 447.965 479.65L468.8 344.502L386.303 288.753C386.303 288.753 392.791 312.306 392.216 330.611C391.852 342.222 384.791 347.681 383.769 356.608C375.323 430.377 353.361 508.932 353.361 508.932L373.633 708.276C373.633 708.276 385.154 791.251 404.041 800.065C422.308 808.589 468.005 801.43 491.937 793.731V538.899Z" fill="#ffa648"/><path id="Fill 11" fill-rule="evenodd" clip-rule="evenodd" d="M380.392 648.023C381.236 626.906 375.324 568.623 375.324 568.623C375.324 568.623 354.322 517.533 339.284 443.047C328.445 389.359 319.103 339.548 313.38 307.336C311.136 294.704 305.023 274.114 305.023 274.114L282.972 287.063L211.872 305.646C211.872 305.646 230.789 346.002 234.731 361.207C238.673 376.412 220.465 406.444 213.145 444.737C211.561 453.024 208.839 460.002 205.551 465.854C208.307 465.455 211.407 467.05 211.407 470.64V790.181C266.31 799.739 350.245 810.588 363.497 794.997C386.304 760.365 379.547 669.139 380.392 648.023" fill="#ffa648"/><path id="Path 5 (Stroke)" fill-rule="evenodd" clip-rule="evenodd" d="M382.703 740.889C382.703 740.89 382.703 740.89 381.704 740.843C380.705 740.797 380.705 740.796 380.705 740.795L380.72 740.467C380.73 740.248 380.745 739.922 380.764 739.494C380.802 738.639 380.857 737.377 380.926 735.748C381.062 732.49 381.251 727.767 381.461 721.908C381.882 710.19 382.386 693.928 382.723 675.752C383.395 639.387 383.394 595.409 380.708 564.831L382.7 564.656C385.396 595.35 385.395 639.422 384.722 675.789C384.386 693.979 383.881 710.253 383.46 721.98C383.25 727.844 383.061 732.57 382.924 735.832C382.855 737.462 382.8 738.727 382.762 739.583C382.743 740.012 382.728 740.338 382.718 740.558L382.703 740.889Z" fill="white"/><path id="Fill 13" fill-rule="evenodd" clip-rule="evenodd" d="M305.021 274.114L279.966 287.814L263.824 321.508L283.721 338.12L316.757 315.501L305.021 274.114Z" fill="#FF92CD"/><path id="Fill 15" fill-rule="evenodd" clip-rule="evenodd" d="M384.209 295.459C383.267 289.177 382.824 284.774 382.824 284.774L413.021 309.49L433.576 337.364L410.863 352.757L390.216 333.61C390.216 333.61 389.067 324.2 387.4 313.644C386.417 307.416 385.009 300.792 384.209 295.459" fill="#FF92CD"/><path id="Fill 17" fill-rule="evenodd" clip-rule="evenodd" d="M374.073 407.568C380.576 369.036 387.822 313.433 387.822 313.433L428.508 371.904C428.508 371.904 408.628 456.086 380.079 517.94C364.312 552.102 364.312 552.478 364.312 552.478L352.299 505.175C352.299 505.175 365.779 456.707 374.073 407.568" fill="#FF92CD"/><path id="Fill 19" fill-rule="evenodd" clip-rule="evenodd" d="M290.758 639.56L305.705 634.044L293.875 632.925L290.758 639.56Z" fill="#D42D66"/><path id="SKIN" fill-rule="evenodd" clip-rule="evenodd" d="M286.905 579.679C288.74 579.794 290.187 581.321 290.155 583.159C290.102 586.135 288.748 590.132 282.044 590.724C271.174 591.683 263.821 592.322 263.821 592.322C263.821 592.322 261.903 593.92 269.256 601.274C272.676 604.694 274.974 613.918 280.24 615.449C284.841 616.787 290.708 618.341 294.983 619.538C302.976 621.776 309.86 622.695 313.696 625.892C317.533 629.089 316.253 634.844 316.253 634.844L293.873 632.925C293.873 632.925 296.352 637.695 290.756 639.56C289.318 640.039 270.615 633.326 276.849 635.484C276.849 635.484 281.884 636.203 273.972 636.203C266.059 636.203 257.187 635.244 253.35 635.723C249.514 636.203 249.753 635.723 246.636 633.805C243.519 631.886 243.359 629.409 243.359 629.409C243.359 629.409 248.142 607.061 252.87 592.802C258.066 577.136 263.181 577.935 263.181 577.935C267.387 578.43 280.974 579.308 286.905 579.679Z" fill="#c7763c"/><g id="Group 25"><path id="Fill 23" fill-rule="evenodd" clip-rule="evenodd" d="M211.871 305.647C211.871 305.647 191.625 301.706 183.136 319.162C174.645 336.619 168.114 338.871 166.808 349.007C165.502 359.143 167.531 366.463 164.716 373.785C149.503 413.336 121.355 470.641 121.355 470.641C121.355 470.641 104.665 486.971 107.277 502.739C109.89 518.506 111.296 520.196 111.296 537.652C111.296 555.109 126.97 569.187 133.501 573.692C140.032 578.197 164.849 597.342 166.155 606.916C167.461 616.489 222.974 658.16 236.035 659.286C240.606 645.771 253.125 573.879 266.077 566.372C266.077 566.372 222.32 527.516 218.401 527.516C214.483 527.516 204.034 523.574 204.687 519.632C205.34 515.691 224.933 498.234 226.239 489.224C227.545 480.214 245.831 423.902 243.872 400.814C241.913 377.726 230.81 325.356 211.871 305.647" fill="#ffa648"/></g><path id="Fill 26" fill-rule="evenodd" clip-rule="evenodd" d="M281.127 579.293L281.237 582.57L290.091 582.731C290.33 580.86 289.014 579.403 287.241 579.373L281.127 579.293Z" fill="#CEF367"/><path id="Fill 28" fill-rule="evenodd" clip-rule="evenodd" d="M307.08 634.167L307.886 630.988L316.571 632.717C316.407 634.595 314.809 635.738 313.072 635.391L307.08 634.167Z" fill="#CEF367"/><path id="Fill 30" fill-rule="evenodd" clip-rule="evenodd" d="M316.758 315.501L267.016 348.068C267.016 348.068 298.568 433.82 309.249 460.129C329.522 510.059 366.03 558.205 375.322 568.623L346.042 470.778C344.289 464.183 337.573 432.606 336.467 425.872L316.758 315.501Z" fill="#FF92CD"/><path id="Fill 32" fill-rule="evenodd" clip-rule="evenodd" d="M208.427 524.559L180.482 508.369L206.667 515.971C206.667 515.971 206.104 521.18 208.427 524.559" fill="#D209A7"/><path id="Stroke 34" d="M219.415 314.347C219.897 314.078 220.507 314.25 220.776 314.733L221.051 315.236C221.184 315.482 221.329 315.754 221.487 316.052L221.818 316.682C222.641 318.259 223.558 320.086 224.545 322.141C227.363 328.007 230.18 334.526 232.81 341.525C239.831 360.214 244.247 378.842 244.789 396.263C244.911 400.156 244.834 403.954 244.55 407.649C244.507 408.199 244.026 408.611 243.476 408.569C242.925 408.527 242.513 408.046 242.555 407.495C242.834 403.874 242.91 400.148 242.79 396.325C242.256 379.153 237.888 360.729 230.938 342.229C228.33 335.287 225.536 328.822 222.742 323.007L222.164 321.814C221.501 320.454 220.874 319.208 220.292 318.082L220.045 317.607C219.817 317.172 219.611 316.781 219.426 316.437L219.029 315.707C218.76 315.225 218.933 314.616 219.415 314.347Z" fill="white"/><path id="Stroke 36" d="M421.667 403.621C421.827 403.092 422.385 402.793 422.914 402.953C423.443 403.113 423.742 403.671 423.582 404.2C421.072 412.502 418.451 420.761 415.73 428.965C407.337 454.277 398.361 478.028 389.369 499.588L388.575 501.485C385.335 509.208 382.325 516.086 379.624 522.035L378.172 525.206C377.796 526.02 377.443 526.778 377.114 527.479L376.223 529.358C375.982 529.855 375.384 530.063 374.887 529.823C374.39 529.582 374.182 528.984 374.422 528.487L375.156 526.943L375.708 525.765C376.332 524.427 377.032 522.906 377.803 521.208L378.545 519.568C381.044 514.022 383.792 507.715 386.731 500.711C395.97 478.695 405.209 454.34 413.832 428.336C416.547 420.148 419.163 411.906 421.667 403.621Z" fill="white"/><path id="Stroke 38" d="M265.447 564.67C266.251 564.567 266.771 565.061 266.976 565.716C267.054 565.965 267.077 566.189 267.077 566.371C267.077 566.923 266.629 567.371 266.077 567.371C265.801 567.371 265.551 567.259 265.37 567.078L265.325 567.029L265.169 567.202L265.071 567.315C263.721 568.908 261.574 572.544 258.524 578.643C255.842 584.009 253.145 591.811 250.505 601.399C248.636 608.186 246.904 615.462 245.354 622.738L244.833 625.223C244.666 626.029 244.506 626.813 244.353 627.572L243.846 630.137L243.41 632.435C243.311 632.978 242.79 633.338 242.247 633.24C241.704 633.141 241.343 632.62 241.442 632.077L241.954 629.39L242.392 627.178C242.699 625.652 243.035 624.028 243.398 622.322C244.956 615.01 246.696 607.697 248.577 600.868L249.023 599.268C251.553 590.294 254.135 582.95 256.736 577.748L257.422 576.388C260.18 570.965 262.175 567.638 263.546 566.022C264.249 565.193 264.833 564.748 265.447 564.67Z" fill="white"/><path id="Fill 40" fill-rule="evenodd" clip-rule="evenodd" d="M249.184 660.975H324.642V657.034H249.184V660.975Z" fill="#F826C1"/><path id="Fill 42" fill-rule="evenodd" clip-rule="evenodd" d="M249.184 664.917H324.642V660.975H249.184V664.917Z" fill="#D209A7"/><path id="Fill 43" fill-rule="evenodd" clip-rule="evenodd" d="M412.488 660.975H487.946V657.034H412.488V660.975Z" fill="#F826C1"/><path id="Fill 44" fill-rule="evenodd" clip-rule="evenodd" d="M412.488 664.917H487.946V660.975H412.488V664.917Z" fill="#D209A7"/><path id="Fill 45" fill-rule="evenodd" clip-rule="evenodd" d="M450.353 615.08C450.353 615.08 447.384 618.676 443.707 624.283C442.433 626.226 440.989 628.056 439.384 629.735L418.844 651.233C417.948 652.172 418.581 653.275 419.524 654.168C422.32 656.809 426.777 656.015 430.738 652.882C430.242 655.247 429.68 658.651 429.608 660.975C436.336 660.975 476.303 660.574 476.303 660.574C476.303 660.574 482.71 645.517 486.555 642.633C490.4 639.75 450.353 615.08 450.353 615.08" fill="#D42D66"/><path id="Fill 46" fill-rule="evenodd" clip-rule="evenodd" d="M564.53 528.078C554.957 504.99 547.636 492.601 547.636 492.601C547.636 492.601 534.13 469.085 518.918 429.532C516.101 422.212 512.785 397.434 511.479 387.299C510.173 377.162 503.642 374.91 495.152 357.453C486.662 339.997 465.329 339.391 463.731 341.686C463.731 341.694 461.479 356.6 461.479 356.608L447.965 479.65C459.226 516.816 470.344 550.294 470.489 551.166C470.71 552.501 462.978 559.615 461.424 561.998C461.372 564.345 459.985 565.818 458.255 566.412C455.475 570.054 452.267 573.927 450.217 577.07C449.198 578.632 432.923 607.474 424.594 619.022C453.845 628.091 478.55 644.909 500.616 666.043C507.52 658.344 521.441 637.955 522.296 631.692C523.602 622.119 539.657 612.939 544.821 606.915C551.578 599.031 564.53 588.332 564.53 570.876C564.53 553.419 570.651 542.842 564.53 528.078" fill="#ffa648"/><path id="Fill 47" fill-rule="evenodd" clip-rule="evenodd" d="M468.801 546.662L502.025 546.1L470.49 551.167L468.801 546.662Z" fill="#D209A7"/><path id="Stroke 48" d="M517.146 450.23C517.602 449.996 518.154 450.145 518.433 450.561L518.493 450.662L562.041 535.224C562.294 535.715 562.101 536.318 561.61 536.57C561.154 536.805 560.601 536.655 560.322 536.24L560.263 536.139L516.715 451.577C516.462 451.086 516.655 450.483 517.146 450.23Z" fill="white"/><g id="Group"><rect id="Rectangle" x="351.156" y="350.785" width="12" height="274" transform="rotate(15 351.156 350.785)" fill="white"/><rect id="Rectangle Copy" x="275.086" y="634.854" width="12" height="79" transform="rotate(15 275.086 634.854)" fill="white"/><path id="Path 2" fill-rule="evenodd" clip-rule="evenodd" d="M337.279 448.94C337.279 448.94 397.679 443.587 473.088 485.33C548.497 527.073 691.841 539.128 691.841 539.128L680.532 581.334C680.532 581.334 516.262 561.757 464.279 527.096C394.193 480.366 325.607 492.5 325.607 492.5L337.279 448.94Z" fill="#FFED53"/><path id="Path 2 Copy 2" fill-rule="evenodd" clip-rule="evenodd" d="M357.466 373.597C357.466 373.597 417.867 368.244 493.276 409.987C568.685 451.73 712.028 463.786 712.028 463.786L700.719 505.991C700.719 505.991 536.45 486.414 484.466 451.754C414.381 405.023 345.794 417.157 345.794 417.157L357.466 373.597Z" fill="#FF3800"/><path id="Path 2 Copy" fill-rule="evenodd" clip-rule="evenodd" d="M347.632 410.303C347.632 410.303 408.033 404.95 483.442 446.693C558.851 488.436 702.194 500.492 702.194 500.492L690.885 542.697C690.885 542.697 526.616 523.12 474.632 488.46C404.547 441.729 335.96 453.863 335.96 453.863L347.632 410.303Z" fill="#FFA648"/><path id="Path 2 Copy 3" fill-rule="evenodd" clip-rule="evenodd" d="M327.402 485.804C327.402 485.804 387.802 480.451 463.211 522.194C538.62 563.937 681.964 575.993 681.964 575.993L670.655 618.198C670.655 618.198 506.385 598.621 454.402 563.961C384.316 517.23 315.73 529.364 315.73 529.364L327.402 485.804Z" fill="#008BF7"/><path id="Path 2 Copy 4" fill-rule="evenodd" clip-rule="evenodd" d="M317.091 524.282C317.091 524.282 377.492 518.929 452.901 560.672C528.31 602.415 671.653 614.47 671.653 614.47L660.344 656.675C660.344 656.675 496.075 637.099 444.091 602.438C374.006 555.708 305.419 567.842 305.419 567.842L317.091 524.282Z" fill="#8D25FF"/></g><path id="Fill 49" fill-rule="evenodd" clip-rule="evenodd" d="M426.488 648.131L424.118 645.856L417.65 651.931C418.786 653.442 420.75 653.566 422.043 652.349L426.488 648.131Z" fill="#CEF367"/><path id="Fill 50" fill-rule="evenodd" clip-rule="evenodd" d="M371.943 591.429C371.943 596.094 368.161 599.875 363.496 599.875C358.831 599.875 355.049 596.094 355.049 591.429C355.049 586.764 358.831 582.982 363.496 582.982C368.161 582.982 371.943 586.764 371.943 591.429" fill="#CEF367"/><path id="Fill 51" fill-rule="evenodd" clip-rule="evenodd" d="M371.943 638.731C371.943 643.396 368.161 647.178 363.496 647.178C358.831 647.178 355.049 643.396 355.049 638.731C355.049 634.066 358.831 630.285 363.496 630.285C368.161 630.285 371.943 634.066 371.943 638.731" fill="#CEF367"/><path id="Fill 52" fill-rule="evenodd" clip-rule="evenodd" d="M294.984 633.194L271.334 627.563L264.201 621.931L264.951 620.993L271.709 626.624L294.984 633.194Z" fill="#D42D66"/><path id="Stroke 53" d="M368.224 740.756C368.776 740.761 369.22 741.212 369.216 741.764L369.194 742.927C369.186 743.239 369.176 743.576 369.164 743.938L369.116 745.264C369.06 746.625 368.983 748.09 368.882 749.637C368.498 755.533 367.844 761.431 366.855 766.943L366.639 768.114C364.325 780.293 360.666 788.652 355.178 791.626C350.023 794.419 339.986 795.192 326.369 794.459C320.561 794.146 314.367 793.568 308.051 792.801C304.604 792.383 301.338 791.935 298.355 791.487L296.291 791.169L294.56 790.888C294.016 790.795 293.65 790.278 293.743 789.734C293.836 789.189 294.352 788.823 294.897 788.916L295.884 789.079L298.215 789.443L298.653 789.509C301.617 789.954 304.865 790.4 308.292 790.816C314.566 791.577 320.717 792.151 326.477 792.461L327.79 792.528C340.367 793.123 349.671 792.336 354.225 789.868C359.156 787.196 362.692 778.821 364.886 766.59C365.861 761.16 366.507 755.334 366.887 749.507C367.003 747.721 367.087 746.048 367.143 744.519L367.176 743.525L367.216 741.748C367.22 741.196 367.672 740.752 368.224 740.756Z" fill="white"/><path id="Path 3 (Stroke)" fill-rule="evenodd" clip-rule="evenodd" d="M270.658 566.353L180.482 510.066L181.541 508.369L271.717 564.656L270.658 566.353Z" fill="white"/><path id="Path 4 (Stroke)" fill-rule="evenodd" clip-rule="evenodd" d="M243.266 408.571C243.266 408.571 243.266 408.571 244.245 408.775C245.224 408.978 245.224 408.979 245.224 408.979L245.214 409.027L245.184 409.169C245.158 409.294 245.118 409.479 245.066 409.723C244.961 410.21 244.805 410.929 244.599 411.858C244.187 413.716 243.575 416.414 242.773 419.779C241.17 426.508 238.808 435.905 235.776 446.58C229.717 467.913 220.962 494.41 210.198 514.903L208.428 513.973C219.092 493.667 227.803 467.332 233.853 446.033C236.875 435.392 239.229 426.023 240.827 419.315C241.626 415.962 242.237 413.274 242.647 411.425C242.852 410.501 243.007 409.786 243.11 409.303C243.162 409.062 243.201 408.878 243.227 408.755L243.256 408.616L243.265 408.573L243.266 408.571Z" fill="white"/></g></g></g><g id="Head" transform="translate(401 96) scale(1 1)"><g id="Head/Side Afro"><g id="Group 19"><path id="Stroke 1" d="M190.463 13.5319C194.11 13.2485 196.062 13.2121 198.444 13.4538C202.506 13.866 205.744 15.1146 211.129 17.9947L214.004 19.5559C218.621 22.051 221.124 23.1634 224.21 23.8967L224.51 23.9666C226.913 24.5124 228.929 24.8097 232.927 25.2527L237.065 25.7078C237.385 25.7451 237.687 25.7815 238.009 25.8213C245.329 26.7274 249.909 29.0765 257.349 34.7878L259.271 36.2819C267.015 42.3208 271.441 44.6187 278.566 45.0717L279.005 45.0971C294.612 45.9141 303.514 50.8527 309.35 60.1815C309.97 61.174 310.549 62.2073 311.173 63.4168L311.418 63.8948L312.715 66.5011L313.094 67.2513C315.851 72.6119 318.065 74.9125 322.78 76.4319L324.015 76.8232C324.761 77.0558 325.568 77.3008 326.517 77.5839L331.154 78.9576L332.909 79.4895C340.499 81.8256 345.198 83.7949 349.123 86.6369C354.478 90.5148 357.295 95.6028 357.269 102.381C357.241 109.906 354.241 113.994 347.474 118.398L344.833 120.07C339.781 123.273 337.9 125.415 337.856 129.184L337.856 129.444C337.982 142.128 326.033 148.719 307.271 146.796L305.046 146.556C298.53 145.876 296.622 146.018 293.923 147.462C292.682 148.125 291.438 149.092 290.097 150.449C289.048 151.51 288.105 152.652 286.854 154.325L285.35 156.365L284.83 157.061C280.193 163.179 276.717 165.39 270.218 164.809C267.127 164.533 264.978 163.693 260.712 161.433L260.217 161.17C254.982 158.374 252.489 157.515 248.741 157.814L248.058 157.872C246.249 158.039 244.517 158.29 242.001 158.724L238.565 159.323C234.259 160.054 232.473 160.226 229.892 160.138C224.979 159.97 220.615 158.342 216.093 154.693L215.473 154.181C213.923 152.873 212.601 151.515 210.4 149.053L208.251 146.641C205.732 143.841 204.311 142.456 202.415 141.031C198.376 137.996 193.36 136.276 188.31 136.195L185.925 136.168L181.336 136.144C173.311 136.075 169.626 135.763 165.25 134.573C159.065 132.893 153.937 129.551 149.28 123.821C144.4 117.819 142.382 111.828 144.433 106.161C145.091 104.343 146.107 102.713 147.901 100.401L148.569 99.5525L149.937 97.8433C152.481 94.6308 153.574 92.8741 154.188 90.6937C156.462 82.6188 153.392 79.3839 146.471 79.2152C144.426 79.1654 142.216 79.4092 140.015 79.8471C139.312 79.9871 138.661 80.137 138.081 80.2867L137.505 80.4417L137.37 80.4809L137.192 80.5176C129.44 81.3825 124.524 81.3169 120.822 80.1382L120.553 80.05L119.152 79.5759L122.368 75.8229L123.883 77.1285L122.651 78.5629L122.73 78.5814C125.895 79.2849 130.152 79.2652 136.427 78.5894L136.885 78.5379L137.428 78.3898L137.582 78.3499C138.197 78.1914 138.883 78.0331 139.625 77.8856C141.959 77.4212 144.309 77.1619 146.519 77.2158C154.639 77.4137 158.777 81.7745 156.113 91.2358C155.383 93.8286 154.139 95.7838 151.244 99.4132L150.028 100.931L149.5 101.603C147.817 103.771 146.886 105.261 146.313 106.842C144.552 111.711 146.349 117.045 150.832 122.56C155.225 127.965 159.994 131.073 165.775 132.643L166.304 132.783C170.515 133.868 174.328 134.114 182.944 134.154L187.079 134.178C187.504 134.182 187.908 134.188 188.342 134.195C193.814 134.283 199.24 136.144 203.617 139.432C205.637 140.951 207.123 142.397 209.715 145.278L212.15 148.009C214.402 150.517 215.679 151.789 217.349 153.137C221.534 156.514 225.481 157.986 229.96 158.139L230.568 158.155C232.819 158.191 234.664 157.969 239.023 157.215L242.141 156.671C244.763 156.225 246.558 155.981 248.582 155.82C252.59 155.5 255.292 156.337 260.259 158.93L262.03 159.867C265.81 161.852 267.738 162.579 270.396 162.817C276.052 163.322 278.987 161.466 283.244 155.843L284.974 153.501L285.531 152.756C286.699 151.212 287.63 150.1 288.675 149.043C290.148 147.551 291.549 146.463 292.979 145.698L293.347 145.506C296.321 143.993 298.563 143.87 305.204 144.562L306.921 144.747C324.795 146.729 335.748 140.921 335.856 129.802L335.856 129.165C335.901 124.722 337.992 122.144 343.068 118.827L344.102 118.167C344.649 117.822 345.665 117.184 346.023 116.954L346.719 116.502C352.732 112.522 355.244 108.972 355.269 102.374C355.292 96.2674 352.803 91.7713 347.95 88.2568C344.252 85.5792 339.715 83.6777 332.331 81.4043L330.58 80.8736L325.541 79.3796C324.361 79.026 323.397 78.7292 322.473 78.434L322.166 78.3355C316.847 76.6212 314.298 73.9616 311.316 68.1669L309.636 64.8018C309.554 64.6417 309.475 64.4875 309.396 64.3345C308.795 63.1702 308.242 62.183 307.654 61.2421C302.248 52.6 294.095 48.0017 279.496 47.1278L278.901 47.0944C271.315 46.6977 266.618 44.4395 258.99 38.5929L257.106 37.1288C249.496 31.1914 245.137 28.7964 238.209 27.8637L236.639 27.6718L232.264 27.1911C228.48 26.7663 226.472 26.4631 224.067 25.9169C220.617 25.1333 217.984 23.9796 213.072 21.326L211.176 20.2929C205.398 17.1459 202.209 15.8461 198.242 15.4436L197.731 15.3959C195.708 15.2236 193.864 15.2733 190.593 15.5279L187.781 15.756C185.471 15.9365 184.156 15.9961 182.701 15.9659L182.259 15.9542L182.323 13.9552L182.742 13.9663C184.123 13.9946 185.394 13.9366 187.649 13.7602L190.463 13.5319Z" fill="#FFAA00"/><g id="Group 5"><path id="SKIN" fill-rule="evenodd" clip-rule="evenodd" d="M146.338 63.963C147.694 63.488 149.067 63.056 150.418 62.549C152.798 61.655 154.984 60.242 157.325 59.238C161.369 57.505 165.428 56.748 169.82 57.029C173.318 57.253 176.816 57.792 180.229 58.588C186.779 60.118 194.205 62.668 198.326 68.323C199.054 69.322 198.427 70.635 197.558 71.251C196.674 71.877 196.001 72.753 195.386 73.661C197.937 75.641 178.262 72.707 175.556 74.724C172.887 76.713 161.771 86.834 157.818 86.986C153.554 87.15 150.587 89.743 149.772 94.2C148.777 99.639 150.537 106.26 154.123 110.471C155.789 112.427 158.557 114.037 158.33 116.956C158.222 118.344 157.388 119.407 156.368 120.283C155.623 120.922 154.969 121.314 154.806 122.154C154.718 122.61 154.523 122.947 154.27 123.195C152.919 126.668 148.589 133.128 143.797 141.623C140.8 146.935 135.866 154.669 132.253 161.333C132.253 161.333 152.197 186.532 174.534 192.539C185.702 197.231 216.298 195.542 216.298 195.542C216.298 195.542 211.794 174.566 211.371 159.033C211.314 156.919 213.015 154.883 215.128 154.794C217.011 154.713 221.789 154.716 223.915 154.167C256.673 145.715 252.057 85.921 243.797 62.458C238.18 46.5 225.921 36 215.642 32.425C194.576 25.098 180.728 29.421 167.589 36.742" fill="#c7763c"/></g><path id="Fill 6" fill-rule="evenodd" clip-rule="evenodd" d="M164.715 99.7492C166.736 103.25 166.902 106.939 165.084 107.989C163.265 109.039 160.153 107.051 158.132 103.55C156.11 100.048 155.945 96.3592 157.763 95.3102C159.581 94.2602 162.694 96.2482 164.715 99.7492" fill="#CDF267"/><path id="Fill 8" fill-rule="evenodd" clip-rule="evenodd" d="M209.772 156.305C209.752 156.289 209.729 156.278 209.71 156.266C209.682 156.25 209.659 156.235 209.635 156.223C209.69 156.16 209.733 156.086 209.764 156C209.768 155.988 209.766 155.974 209.769 155.961C209.791 155.966 209.816 155.97 209.84 155.974C209.805 156.08 209.777 156.189 209.772 156.305" fill="#D42D66"/><path id="Fill 12" fill-rule="evenodd" clip-rule="evenodd" d="M211.898 157.074C212.542 155.855 214.01 154.997 214.01 154.997C214.01 154.997 204.421 152.541 195.916 147.15C195.619 146.961 195.295 147.351 195.536 147.607C203.121 155.677 211.335 160.066 211.335 160.066C211.335 160.066 211.206 158.386 211.898 157.074" fill="#D42D66"/><g id="Group 16"><path id="Fill 14" fill-rule="evenodd" clip-rule="evenodd" d="M248.454 56.5611C246.627 59.9711 243.893 62.8901 240.512 64.7771C235.59 67.5231 229.425 68.3351 225.615 72.4871C224.049 74.1931 223.021 76.3401 221.428 78.0201C217.835 81.8061 212.07 82.5431 206.865 82.1591C201.66 81.7751 196.452 80.5061 191.277 81.1871C185.985 81.8851 184.15 84.7221 180.624 87.9831C176.586 91.7171 175.878 91.6291 169.796 90.3061C169.796 90.3061 147.372 80.9121 150.644 99.8251C151.667 105.74 157.396 110.772 158.77 116.287C160.297 122.416 156.743 128.058 152.394 132.405C140.259 144.535 128.247 141.724 113.091 140.405C107.849 139.948 100.343 152.582 94.9192 156.103C82.8812 163.917 74.8062 157.909 62.8502 155.7C54.2262 154.106 48.6912 160.544 40.5992 160.431C29.8442 160.28 28.4382 151.16 23.0712 144.473C18.2462 138.464 14.2382 138.637 6.15019 138.696C-12.5088 138.833 -23.4228 131.418 -22.0578 119.402C-20.6928 107.385 -40.2898 107.614 -38.5808 90.4711C-36.8708 73.3281 -17.3568 72.2581 -2.39081 69.0891C6.68919 67.1661 8.19319 60.3981 13.2232 53.9451C18.7942 46.7981 27.0592 41.5801 44.1202 42.4491C62.4422 43.3821 56.2492 27.8721 74.9532 27.4981C79.5302 27.4061 84.1262 27.5841 88.6712 27.0351C98.2722 25.8751 105.959 19.2501 115.559 19.2691C125.063 19.2881 133.642 24.5361 142.686 18.8461C153.873 11.8061 154.838 11.6461 169.763 9.39514C184.688 7.14414 182.192 14.9631 199.763 12.3871C217.316 9.81314 224.062 12.9371 226.543 15.3871C231.094 19.8801 232.227 24.3991 237.887 27.7861C244.172 31.5451 249.371 35.6191 250.718 43.3701C251.497 47.8591 250.603 52.5501 248.454 56.5611" fill="#FFAA00"/></g><path id="Fill 17" fill-rule="evenodd" clip-rule="evenodd" d="M160.149 118.782C159.879 118.782 159.61 118.674 159.413 118.459C159.21 118.239 154.409 112.994 151.725 107.796C149.542 103.564 148.756 99.1043 149.457 94.8993C150.016 91.5373 151.404 89.0973 153.581 87.6483C156.731 85.5513 160.342 86.3663 160.494 86.4023C161.032 86.5283 161.365 87.0673 161.239 87.6043C161.113 88.1413 160.579 88.4723 160.04 88.3493C160.009 88.3433 157.088 87.7033 154.672 89.3243C152.984 90.4573 151.893 92.4433 151.429 95.2273C150.8 99.0043 151.518 103.033 153.503 106.879C156.06 111.834 160.837 117.053 160.885 117.105C161.258 117.511 161.232 118.144 160.826 118.518C160.633 118.695 160.391 118.782 160.149 118.782" fill="white"/></g></g></g><g id="Face" transform="translate(594 170) scale(1 1)"><g id="Face/Happy"><g id="Face"><path id="Fill 1" fill-rule="evenodd" clip-rule="evenodd" d="M9.50063 29.6061C9.32563 29.6061 9.15463 29.5141 9.06363 29.3501C8.92863 29.1081 9.01563 28.8041 9.25663 28.6691L12.5366 26.8391C12.7766 26.7061 13.0826 26.7911 13.2166 27.0321C13.3516 27.2731 13.2646 27.5781 13.0236 27.7121L9.74363 29.5431C9.66663 29.5851 9.58363 29.6061 9.50063 29.6061" fill="#CEF367"/><path id="Fill 4" fill-rule="evenodd" clip-rule="evenodd" d="M14.9554 34.1389C14.8604 34.1389 14.7654 34.1119 14.6804 34.0559C14.4494 33.9029 14.3864 33.5929 14.5384 33.3629L16.6134 30.2319C16.7654 30.0009 17.0754 29.9379 17.3064 30.0909C17.5364 30.2429 17.5994 30.5539 17.4474 30.7839L15.3724 33.9149C15.2764 34.0599 15.1174 34.1389 14.9554 34.1389" fill="#CEF367"/><path id="Fill 6" fill-rule="evenodd" clip-rule="evenodd" d="M21.2742 36.6834C21.2432 36.6834 21.2122 36.6804 21.1812 36.6744C20.9092 36.6234 20.7312 36.3624 20.7822 36.0904L21.4792 32.3994C21.5302 32.1294 21.7922 31.9494 22.0632 32.0014C22.3352 32.0524 22.5132 32.3134 22.4612 32.5854L21.7652 36.2764C21.7192 36.5164 21.5102 36.6834 21.2742 36.6834" fill="#CEF367"/><path id="Fill 8" fill-rule="evenodd" clip-rule="evenodd" d="M28.3201 37.2194C28.0711 37.2194 27.8551 37.0334 27.8241 36.7804L27.3681 33.0524C27.3341 32.7784 27.5291 32.5284 27.8031 32.4954C28.0751 32.4544 28.3271 32.6564 28.3601 32.9304L28.8171 36.6584C28.8501 36.9324 28.6551 37.1824 28.3811 37.2154C28.3611 37.2184 28.3401 37.2194 28.3201 37.2194" fill="#CEF367"/><path id="Fill 10" fill-rule="evenodd" clip-rule="evenodd" d="M34.9959 35.0329C34.8459 35.0329 34.6979 34.9659 34.5989 34.8379L32.3099 31.8599C32.1419 31.6409 32.1829 31.3269 32.4019 31.1579C32.6199 30.9899 32.9339 31.0319 33.1029 31.2499L35.3919 34.2279C35.5599 34.4469 35.5189 34.7609 35.2999 34.9289C35.2089 34.9989 35.1019 35.0329 34.9959 35.0329" fill="#CEF367"/><path id="Fill 12" fill-rule="evenodd" clip-rule="evenodd" d="M53.7148 39.9279C53.6478 39.9279 53.5798 39.9139 53.5138 39.8859C53.2608 39.7749 53.1468 39.4799 53.2578 39.2269L54.7698 35.7879C54.8798 35.5359 55.1748 35.4199 55.4278 35.5319C55.6808 35.6429 55.7958 35.9379 55.6848 36.1909L54.1728 39.6289C54.0908 39.8169 53.9068 39.9279 53.7148 39.9279" fill="#CEF367"/><path id="Fill 14" fill-rule="evenodd" clip-rule="evenodd" d="M47.9545 35.9103C47.7985 35.9103 47.6455 35.8383 47.5475 35.7023C47.3865 35.4773 47.4375 35.1653 47.6625 35.0043L50.7125 32.8113C50.9365 32.6493 51.2485 32.7023 51.4105 32.9263C51.5715 33.1503 51.5205 33.4623 51.2965 33.6243L48.2465 35.8163C48.1575 35.8803 48.0555 35.9103 47.9545 35.9103" fill="#CEF367"/><path id="Fill 16" fill-rule="evenodd" clip-rule="evenodd" d="M40.8031 52.4406L35.0691 51.4896C34.7971 51.4446 34.6121 51.1876 34.6571 50.9156C34.7021 50.6426 34.9581 50.4556 35.2321 50.5036L39.9741 51.2896L44.2621 24.4716C44.3051 24.1996 44.5631 24.0126 44.8351 24.0576C45.1071 24.1006 45.2931 24.3576 45.2491 24.6296L40.8031 52.4406Z" fill="white"/><path id="Fill 18" fill-rule="evenodd" clip-rule="evenodd" d="M26.3535 58.5539C28.7905 58.5569 30.6155 58.0829 31.5275 57.7829C32.2725 57.5369 33.0565 57.4299 33.8335 57.5309C34.4535 57.6109 35.0075 57.8829 35.7215 58.5619L36.6465 59.7409C36.6995 59.8059 37.9735 58.6089 37.9735 58.6089C39.1405 58.0849 40.4785 59.4679 40.8605 60.3199C41.2185 60.9879 41.1895 61.7959 40.7845 62.4359C40.4165 63.0149 40.0265 63.6099 40.0265 63.6099C38.7155 65.2169 37.8465 66.7759 34.7125 66.8919C32.5615 66.9709 30.4325 66.2859 28.5645 65.0769L22.3945 58.7969C22.0725 58.5139 22.0415 58.3629 22.0415 58.3629C22.1575 58.3339 24.8945 58.5519 26.3535 58.5539" fill="#7882FD"/><path id="Fill 20" fill-rule="evenodd" clip-rule="evenodd" d="M39.6605 63.1833C37.9655 63.1373 36.2945 62.9813 34.6355 62.5763C30.4995 61.5643 22.1225 58.3803 22.0425 58.3623C22.0745 58.4963 22.2765 58.7213 22.3895 58.8293L28.1385 65.2073C28.3545 65.4483 28.5955 65.6653 28.8615 65.8383C30.6015 66.9693 32.5515 67.5983 34.5175 67.5183C37.6035 67.3933 38.4595 65.7203 39.7495 63.9953C39.7495 63.9953 39.9665 63.6363 40.2265 63.1953C40.0325 63.1933 39.8435 63.1883 39.6605 63.1833" fill="#D7D8FF"/><path id="Fill 23" fill-rule="evenodd" clip-rule="evenodd" d="M11.8511 16.9675C12.0951 16.6875 12.3171 16.3745 12.5871 16.1315C14.4781 14.4285 16.6411 13.2985 18.8421 12.2875C19.8261 11.8365 20.8921 11.6405 21.9131 11.2995C23.5281 10.7595 25.1011 11.0515 26.6641 11.3785C27.6021 11.5745 28.5311 11.8425 29.4431 12.1465C30.7131 12.5705 31.9621 13.0665 33.2261 13.5165C34.3621 13.9215 35.5121 14.2875 36.6441 14.7055C38.4081 15.3545 38.9271 16.2045 38.7611 18.3275C38.6871 19.2795 38.4551 20.2215 38.2761 21.2825C38.1181 21.2555 37.8501 21.2795 37.6461 21.1655C34.5181 19.4005 31.3891 17.6445 28.0571 16.3525C26.4191 15.7175 24.8411 14.9575 23.0681 14.7375C20.7341 14.4465 18.4591 14.6975 16.2071 15.5295C14.9671 15.9875 13.7471 16.5265 12.5161 17.0245C12.3441 17.0935 12.1621 17.1335 11.9851 17.1865C11.9401 17.1135 11.8961 17.0405 11.8511 16.9675" fill="#2E0BFF"/><path id="Fill 26" fill-rule="evenodd" clip-rule="evenodd" d="M57.2854 17.3107C56.6464 17.3327 57.4514 17.2787 56.8124 17.2917C55.6064 17.3167 54.4004 17.3017 53.1934 17.3397C51.3154 17.3987 50.5544 18.0417 50.0404 20.1077C49.8104 21.0337 49.7324 22.0017 49.5674 23.0647C49.7264 23.0887 49.9734 23.1967 50.2024 23.1527C52.8314 22.6407 54.7794 22.1127 57.4264 21.8157C57.4314 21.7947 57.2444 17.4397 57.2854 17.3107" fill="#2E0BFF"/><path id="Fill 29" fill-rule="evenodd" clip-rule="evenodd" d="M33.7928 27.9382C33.1688 27.2992 32.5458 26.6602 31.8358 25.9322C31.5348 26.5002 31.2458 27.0062 30.9918 27.5302C29.7398 30.1202 25.2348 30.1232 24.0788 27.6562C23.4278 26.2662 23.6048 25.1252 25.0918 23.4672C21.0218 22.3812 16.7008 23.3062 12.5908 22.3542C12.5968 22.1882 12.6038 22.0222 12.6088 21.8572C14.1618 21.7512 15.7128 21.6272 17.2668 21.5422C21.2588 21.3212 25.2688 21.2092 29.0788 22.6492C31.4838 23.5602 33.1708 25.3382 34.0108 27.8322C33.9358 27.8632 33.8638 27.8982 33.7928 27.9382" fill="black"/><path id="Fill 31" fill-rule="evenodd" clip-rule="evenodd" d="M57.3989 25.9479C57.3989 25.9339 57.4029 25.9209 57.4039 25.9069C57.2249 25.8979 57.0479 25.8759 56.8669 25.8719C54.2949 25.8209 52.0679 26.8439 50.3599 28.8449C50.4179 28.9019 50.4709 28.9619 50.5229 29.0249C51.3389 28.6639 52.1559 28.3019 53.0849 27.8909C53.1529 28.5309 53.2339 29.1089 53.2739 29.6889C53.4319 31.9789 55.1269 32.8899 57.0029 33.0779C57.3319 30.7319 57.3119 28.3579 57.3989 25.9479" fill="black"/></g></g></g><g id="Hat" transform="translate(482 88) scale(1 1)"><g id="Hat/Captain Hat"><g id="Group 12"><path id="Fill 1" fill-rule="evenodd" clip-rule="evenodd" d="M69.4866 77.0966C69.4866 77.0966 68.7356 83.4786 95.0136 79.7246C121.294 75.9706 155.456 75.5956 164.466 76.3456C173.476 77.0966 177.429 82.7276 177.429 82.7276C177.429 82.7276 178.45 79.9116 173.476 72.3096C169.258 65.8646 158.553 62.0796 158.553 62.0796C158.553 62.0796 125.048 42.1826 100.27 51.1936C75.4926 60.2026 69.4866 77.0966 69.4866 77.0966" fill="#FFAA00"/><g id="Group 5"><mask id="mask035d61dc9-aba1-4b70-b48f-84f012839eb4" mask-type="alpha" maskUnits="userSpaceOnUse" x="37" y="10" width="139" height="90" fill="#ffffff"><path id="Clip 4" fill-rule="evenodd" clip-rule="evenodd" d="M37 10.9999H175.927V99.9969H37V10.9999Z" fill="#ffffff"/></mask><g mask="url(#mask035d61dc9-aba1-4b70-b48f-84f012839eb4)"><path id="Fill 3" fill-rule="evenodd" clip-rule="evenodd" d="M57.6612 99.9971C57.6612 99.9971 46.5872 90.6111 48.8392 83.4781C37.2012 75.22 34.5732 69.2131 39.0782 62.0801C43.5832 54.9471 47.3382 52.6951 54.8462 43.3091C62.3542 33.9241 72.8652 22.6621 93.1382 15.9041C113.41 9.14705 135.184 10.6481 144.569 12.9011C153.955 15.1531 172.725 27.5421 174.602 33.5491C176.479 39.5551 176.479 44.8111 173.851 51.1931C171.224 57.5751 168.221 67.3361 168.221 67.3361C168.221 67.3361 156.958 58.3261 128.802 59.8281C100.646 61.3301 79.6232 70.7151 68.7362 81.6011C57.8492 92.4891 57.6612 99.9971 57.6612 99.9971" fill="#2E0BFF"/></g></g><path id="Stroke 6" d="M118.979 48.3174C119.53 48.2832 120.005 48.7023 120.039 49.2536C120.073 49.8048 119.654 50.2794 119.103 50.3135C99.1507 51.5512 82.8629 56.9717 69.9216 65.2298C64.7312 68.5418 60.4458 72.0871 57.0119 75.6277C55.8142 76.8625 54.8095 78.0068 53.9912 79.0307L53.6712 79.4374C53.5715 79.5663 53.4789 79.6882 53.3932 79.8031L53.0482 80.2818C52.7404 80.7404 52.1191 80.8626 51.6605 80.5547C51.202 80.2469 51.0798 79.6257 51.3876 79.1671L51.5181 78.9797C51.5571 78.925 51.6028 78.8616 51.6552 78.7898L51.9328 78.4178C52.0822 78.2212 52.2474 78.009 52.4288 77.782C53.2864 76.709 54.3333 75.5167 55.5762 74.2352C59.1153 70.5863 63.5204 66.942 68.8457 63.5438C82.0694 55.1056 98.6839 49.5763 118.979 48.3174Z" fill="white"/><path id="Stroke 8" d="M139.055 58.8277L139.834 58.8555C139.99 58.8622 140.157 58.8699 140.334 58.8787C141.341 58.9285 142.463 59.002 143.67 59.1038C147.123 59.3951 150.576 59.8554 153.808 60.5231C157.892 61.3672 161.329 62.4847 163.92 63.9278C164.402 64.1965 164.576 64.8055 164.307 65.288C164.038 65.7705 163.429 65.9438 162.947 65.6751C160.563 64.3475 157.306 63.2883 153.403 62.4818C150.258 61.832 146.881 61.3818 143.502 61.0968C142.516 61.0136 141.589 60.9497 140.737 60.9025L139.749 60.8537L139.009 60.8272C138.457 60.8144 138.02 60.3564 138.033 59.8042C138.045 59.2521 138.503 58.8149 139.055 58.8277Z" fill="white"/><path id="Fill 10" fill-rule="evenodd" clip-rule="evenodd" d="M75.8694 71.8407C75.8694 74.1217 74.0204 75.9697 71.7394 75.9697C69.4594 75.9697 67.6104 74.1217 67.6104 71.8407C67.6104 69.5597 69.4594 67.7117 71.7394 67.7117C74.0204 67.7117 75.8694 69.5597 75.8694 71.8407" fill="#FFAA00"/></g></g></g><g id="Facial Hair" transform="translate(601 217) scale(62 16)"><g id="Facial Hair/None" stroke="none" stroke-width="1" fill="none" fill-rule="evenodd" fill-opacity="0"/></g><g id="Earrings" transform="translate(541 195) scale(1 1)"><g id="Earrings/Circular Drops"><g id="Group 13"><path id="Fill 1" fill-rule="evenodd" clip-rule="evenodd" d="M41.38 26.1902C41.38 32.6472 36.147 37.8802 29.691 37.8802C23.234 37.8802 18 32.6472 18 26.1902C18 19.7342 23.234 14.5002 29.691 14.5002C36.147 14.5002 41.38 19.7342 41.38 26.1902" fill="#CEF367"/><path id="Fill 3" fill-rule="evenodd" clip-rule="evenodd" d="M37.33 44.2102C37.33 48.5072 33.847 51.9902 29.55 51.9902C25.252 51.9902 21.769 48.5072 21.769 44.2102C21.769 39.9132 25.252 36.4302 29.55 36.4302C33.847 36.4302 37.33 39.9132 37.33 44.2102" fill="#CEF367"/><path id="Fill 5" fill-rule="evenodd" clip-rule="evenodd" d="M34.5129 56.3171C34.5129 59.0581 32.2909 61.2801 29.5499 61.2801C26.8079 61.2801 24.5859 59.0581 24.5859 56.3171C24.5859 53.5761 26.8079 51.3541 29.5499 51.3541C32.2909 51.3541 34.5129 53.5761 34.5129 56.3171" fill="#CEF367"/><path id="Fill 7" fill-rule="evenodd" clip-rule="evenodd" d="M35.3216 26.1902C35.3216 29.3002 32.8006 31.8212 29.6906 31.8212C26.5806 31.8212 24.0586 29.3002 24.0586 26.1902C24.0586 23.0802 26.5806 20.5592 29.6906 20.5592C32.8006 20.5592 35.3216 23.0802 35.3216 26.1902" fill="#2E0BFF"/><path id="Fill 9" fill-rule="evenodd" clip-rule="evenodd" d="M33.3554 44.2102C33.3554 46.2342 31.7144 47.8752 29.6904 47.8752C27.6664 47.8752 26.0244 46.2342 26.0244 44.2102C26.0244 42.1862 27.6664 40.5442 29.6904 40.5442C31.7144 40.5442 33.3554 42.1862 33.3554 44.2102" fill="#c7763c"/><path id="Fill 11" fill-rule="evenodd" clip-rule="evenodd" d="M31.7119 56.4577C31.7119 57.5747 30.8069 58.4787 29.6909 58.4787C28.5729 58.4787 27.6689 57.5747 27.6689 56.4577C27.6689 55.3417 28.5729 54.4367 29.6909 54.4367C30.8069 54.4367 31.7119 55.3417 31.7119 56.4577" fill="#5350D1"/></g></g></g><g id="Pride Glasses" transform="translate(547 174) scale(131 35)"><g id="Pride Glasses/None" stroke="none" stroke-width="1" fill="none" fill-rule="evenodd" fill-opacity="0"/></g></g></svg>