<svg viewBox="105.00000000000011 360 990.0000000000002 509.9999999999998" xmlns="http://www.w3.org/2000/svg" overflow="visible" xmlns:xlink="http://www.w3.org/1999/xlink" width="990.0000000000002px" height="509.9999999999998px"><g id="Master/Sticker/UFO" stroke="none" stroke-width="1" fill="none" fill-rule="evenodd"><path d="M600,867 C768.999133,867 906,838.808497 906,783.856164 C906,728.903832 791.053187,668 600,668 C408.946813,668 294,728.903832 294,783.856164 C294,838.808497 431.000867,867 600,867 Z" id="I-WANT-TO-BELIEVE-Copy" fill="#5628D2"/><path d="M600,833 C871.171812,833 1091,787.808596 1091,699.719178 C1091,611.62976 906.5592,514 600,514 C293.4408,514 109,611.62976 109,699.719178 C109,787.808596 328.828188,833 600,833 Z" id="I-WANT-TO-BELIEVE" fill="#CECCFF"/><ellipse id="I-WANT-TO-BELIEVE" fill="#E8E7FF" cx="600" cy="587.5" rx="307" ry="69.5"/><g id="Rectangle-+-Rectangle-Copy-+-Oval-+-Oval-Copy-+-Oval-Copy-2-Mask" transform="translate(370.998515, 367.000000)" fill="#5628D2"><path d="M228.998925,2.55795385e-13 C353.860942,2.55795385e-13 455.388306,93.3438615 458.001531,209.417471 C391.117674,221.849916 312.764323,229 228.998925,229 C145.233946,229 66.8809605,221.849987 0.000123945875,209.419939 C2.60954374,93.3438615 104.136908,2.55795385e-13 228.998925,2.55795385e-13 Z" id="Top"/></g></g></svg>