<svg viewBox="0 -13 1053 1053" xmlns="http://www.w3.org/2000/svg" overflow="visible" xmlns:xlink="http://www.w3.org/1999/xlink" width="1053px" height="1053px"><g id="Master/Composition/Color Comp" stroke="none" stroke-width="1" fill="none" fill-rule="evenodd"><g id="Color/Bottom" transform="scale(1 1)"><g id="Color/Bottom/User Interface" stroke="none" stroke-width="1" fill="none" fill-rule="evenodd"><g id="Group-13" transform="translate(19.000000, 379.000000)"><path d="M430.215456,261.212571 C471.885884,263.484145 474.68709,214.767971 436.071561,206.717089 C389.34017,197.235173 381.063401,262.4816 430.215456,261.212571 M35,346.635509 C40.5718739,329.700247 52.5929803,314.415544 47.1655711,296.288732 C49.4676101,282.993859 36.6090782,275.112024 37.2832468,261.846498 C38.7408133,239.636722 34.7427824,215.990043 42.7963952,194.855596 C44.174095,191.535693 43.752446,190.007222 41.1861424,187.370553 C34.638251,180.640353 37.3760331,169.753231 46.2858634,167.206954 C119.949935,156.52175 194.641703,149.225711 269.021051,145.264836 C280.905914,142.619949 271.32309,160.699803 281.636459,158.90837 C329.298062,155.795081 377.115874,157.155678 424.752811,154.287741 C440.953998,157.438597 517.402832,145.320012 516.257685,160.722108 C527.985164,201.505968 526.466523,244.366527 527.892378,286.397111 C529.407495,360.823752 515.67043,402.57259 438.926794,349.943673 C422.855978,337.355511 350.306516,266.706611 334.865238,291.892326 C324.452035,325.316754 297.224552,342.518501 270.915535,312.162753 C256.992898,294.87883 243.363887,273.231371 221.912643,265.553802 C168.628663,252.268319 119.084322,300.314174 98.6619475,345.216216 C87.00259,366.490361 84.5044079,407.391615 53.0674822,405.876058 C26.6386657,408.6266 41.0452013,364.872672 35,346.635509" id="Fill-1" fill="#bfb7b0"/><path d="M34.5617278,347.0501 C39.212525,409.289935 39.4767081,471.533295 45.4331569,533.703811 C50.0428589,551.850341 44.3517673,598.758738 57.0478212,608.575135 C201.420963,614.796299 346.883713,609.812318 491.304995,602.013247 C510.060823,601.77239 539.629372,591.073633 544.652374,617.170798 C547.405749,634.243457 522.627721,632.039321 512.511268,640.024029 C503.57953,644.649661 493.139013,643.361956 483.547405,641.835744 C402.174306,634.290454 320.014529,642.132997 238.35846,642.50192 C180.686697,642.662883 123.867365,656.001669 66.1909056,648.141502 C54.414209,647.777279 61.656349,662.975952 44.524367,655.572826 C31.5019002,653.82573 31.6193149,653.812806 29.5892144,641.62661 C23.0867871,611.158769 19.9729487,580.149293 17.3628194,549.16449 C10.8533472,451.826482 1.46604022,354.446176 1.48600072,256.74512 C0.0277098743,209.349134 -1.63136014,162.206929 3.32941185,114.953107 C4.64328259,108.802438 2.66601867,99.5593986 9.447893,96.5610209 C43.7048122,103.458934 25.7203993,307.582426 34.5617278,347.0501" id="Fill-3" fill="#b275a7"/><path d="M653.566829,100.520391 C650.227829,128.478751 667.668362,184.99113 624.320251,185.006404 C607.374384,181.331413 530.098029,195.333503 531.640918,177.474318 C513.564384,152.115943 552.153096,160.143824 538.84774,141.988571 C517.141296,112.457061 536.456851,64.1311703 506.50714,73.7181022 C465.155362,82.9138027 446.76554,57.0478844 444.604318,18.7307032 C445.792696,-13.0072109 503.459051,7.2498823 524.369318,3.54904461 C561.365673,3.2905734 597.17954,12.1737587 633.200696,19.2840666 C668.735429,27.7513483 649.933384,75.2501315 653.566829,100.520391" id="Fill-6" fill="#d4ccc4"/><path d="M452.990787,437.294352 C474.168628,434.800506 504.751781,448.287608 490.677951,472.640585 C479.687038,485.23252 512.625639,499.557525 489.657375,514.356993 C467.992199,526.185815 441.587877,524.603497 417.648476,527.924729 C399.673619,526.121541 386.096541,551.959841 369.09753,541.497141 C360.196032,520.456047 368.669052,496.014254 368.019274,473.727406 C366.946903,453.969463 378.267414,441.402069 398.581238,442.749494 C416.091126,440.848141 435.7846,438.240938 452.990787,437.294352" id="Fill-9" fill="#d4ccc4"/><path d="M430.549383,260.923599 C380.910366,262.176164 389.274667,197.535887 436.467968,206.934198 C475.464207,214.924099 472.627082,263.176356 430.549383,260.923599" id="Fill-11" fill="#d4ccc4"/></g><g id="Ink" transform="translate(1.000000, 284.000000)" fill="#000000"><path d="M52.0192517,407.307536 C55.3952418,421.009716 46.9311943,500.137134 60.5925051,497.382832 C70.8930913,493.001096 88.8592299,496.132586 92.2798418,482.967401 C103.903816,445.192108 121.085551,408.332174 147.231567,379.152323 C178.79678,342.798832 223.985729,320.926576 263.053273,360.720593 C374.064048,463.003415 300.521479,412.223917 385.655143,374.426298 C411.924456,367.743827 448.679887,417.539813 469.203559,433.339446 C491.876121,450.329397 478.621103,460.918888 458.446186,445.53522 C447.652412,436.505012 436.632006,427.743889 425.893422,418.647879 C412.842725,411.061799 397.649008,381.422506 381.89517,397.882513 C362.873374,412.769137 349.977679,457.222201 320.038812,440.857373 C282.191321,418.154361 258.41026,369.142129 214.516517,358.312929 C155.404398,369.325435 129.2302,434.39581 104.867881,482.698316 C102.723687,487.127054 104.126925,489.212756 108.975434,488.993023 C237.549576,480.545636 366.028604,472.599993 494.924493,471.403799 C569.653062,470.768101 538.100765,461.152721 534.487574,385.356551 C529.02258,346.021976 526.665846,306.421841 522.646363,266.970936 C524.65082,250.721262 512.258881,258.972416 502.256557,258.722132 C439.14844,260.179186 376.073202,259.406007 313.016753,263.632638 C227.203194,271.178766 140.925804,269.580707 55.1568675,277.444097 C50.7158259,278.19965 49.425317,279.648479 49.5450913,284.383903 C50.7310913,325.398791 53.9626477,366.251522 52.0192517,407.307536 M163.631246,500.097182 C158.903685,506.826655 149.199622,500.309865 143.383525,503.393179 C117.190539,509.021636 89.2502576,508.331886 62.3550655,511.634933 C48.0455646,513.619581 56.9934061,536.482399 53.7066596,546.734652 C50.205024,596.16285 54.0178378,645.719127 56.4098002,695.117948 C205.75186,695.075647 368.371248,692.073411 521.992301,699.955602 C599.000103,701.472583 567.744893,702.176434 563.360216,606.187144 C558.267462,568.64216 555.657087,530.623633 549.525115,493.224354 C545.897834,474.081723 548.14184,476.020545 529.808159,476.891252 C518.321572,477.436472 506.833812,477.978167 495.343703,478.444659 C405.106717,481.295314 313.488804,489.914257 225.042561,497.393408 C220.430077,499.613064 213.795523,497.829349 208.767353,497.274728 C195.04498,500.251113 176.968462,508.109803 163.502077,500.041955 C164.864216,500.918538 166.200521,501.307477 167.792814,500.85391 C166.457683,500.305165 165.062666,500.151234 163.631246,500.097182 M518.353277,243.861359 C522.372761,234.1132 514.623836,191.95852 513.373252,178.633529 C478.61758,179.618215 443.666982,182.020004 408.90544,183.775519 C287.469608,189.52148 166.125369,197.256791 44.5568457,199.709106 C30.7464042,197.588153 10.6114121,203.953363 0.47522198,193.448475 C-1.90264931,188.400489 5.24857842,187.454579 8.60460614,186.560371 C138.469258,170.806565 269.85105,168.437678 400.431998,160.885675 C431.104776,159.373394 461.775206,157.823512 492.447984,156.29478 C511.578986,155.328895 538.57399,149.682811 544.197509,174.544378 C571.052776,345.227647 573.310873,516.411484 591.882929,687.833855 C593.403592,700.772257 590.729808,719.934863 573.784099,718.987779 C546.210186,716.003168 518.53881,714.503813 490.774668,714.767023 C430.202947,713.495626 369.590127,714.712971 308.996095,714.710621 C222.226691,713.767061 134.490873,719.192236 48.5622378,705.74739 C33.1583289,709.889418 40.9037309,675.76381 37.3022834,666.712451 C35.5573368,640.331553 32.811923,613.963581 32.46082,587.518056 C34.1071289,501.731668 27.71682,416.075709 27.4162101,330.282271 C24.6296972,296.122586 28.2933804,260.501148 19.8187646,227.253297 C15.8556457,205.893359 43.7313428,213.059948 43.5669467,230.463515 C50.2766537,298.613678 52.700321,253.951456 151.678479,255.590642 C217.348826,254.252267 283.724901,244.545234 348.492244,246.823643 C402.555056,239.792184 462.08521,246.615661 518.353277,243.861359" id="Fill-1"/><path d="M97.2625987,0.148816308 C117.042208,1.90054825 143.036021,3.80808002 161.713998,15.1638551 C173.372178,20.6818784 187.976341,38.0271407 164.39014,33.1431549 C134.681428,25.3233584 104.021723,24.6310653 73.9554072,19.595344 C38.9808659,3.41383872 78.5086471,-0.902493814 97.2625987,0.148816308" id="Fill-3"/><path d="M750.301033,588.066337 C769.536459,584.620716 838.887713,716.723111 794.329833,676.302765 C786.641163,665.601398 721.509446,590.104127 750.301033,588.066337" id="Fill-6"/><path d="M689,636.414957 C668.636005,642.515407 655.378103,599.205094 643.642206,585.627264 C639.170599,574.737723 623.475958,561.218905 631.019643,549.408789 C634.561207,547.276517 640.684949,543.59815 643.838676,548.237744 C663.270076,574.985571 675.620899,606.147438 689,636.414957" id="Fill-10"/><path d="M152.342522,108 C139.167194,104.836657 38.7512957,105.223541 52.2441652,84.2006305 C61.8114274,73.1483415 213.995859,107.285135 152.342522,108" id="Fill-20"/><path d="M235.0571,80 C246.541121,81.2092512 308.646442,87.4417477 293.689078,107.153067 C280.622815,112.990786 180.725577,86.9866391 235.0571,80" id="Fill-22"/><path d="M448.742174,200.895877 C457.627676,194.060257 464.664192,207.464058 472.789594,199.967496 C475.966691,197.040974 480.057086,195.616592 484.371386,196.089029 C494.759409,200.412836 472.568046,209.58237 481.145972,215.411851 C484.630645,219.302099 493.051837,221.883424 491.891066,228.054568 C486.95808,234.331746 478.687729,223.601165 473.517875,221.403917 C467.63506,216.274257 463.285407,224.295095 458.213365,226.461711 C454.908995,228.173562 446.189655,228.861601 448.335609,222.880138 C456.605961,212.865871 462.138777,210.220927 448.742174,200.895877" id="Fill-4"/><path d="M111.062588,231.341641 C109.675927,216.105514 131.721542,213.809329 138.413896,225.018413 C148.045826,242.727539 110.644542,251.671712 111.062588,231.341641" id="Fill-6"/><path d="M86.522237,218.269033 C102.75515,218.752454 89.4498755,252.303322 76.0238617,240.47595 C65.1046907,232.220047 73.5313643,215.696065 86.522237,218.269033" id="Fill-8"/><path d="M175,227.557097 C174.765976,235.415912 162.82492,240.877715 157.722034,233.551319 C149.682151,217.939721 172.251392,208.644955 175,227.557097" id="Fill-10"/><path d="M443.618403,347.71341 C477.988409,346.407416 446.632776,314.637635 430.79282,309.244231 C406.928738,305.766286 420.575669,351.110172 443.618403,347.71341 M447.397316,367.784542 C418.685621,369.932962 395.840532,348.98999 399.484526,321.32056 C392.778819,274.648325 457.571861,287.324706 476.665257,312.951608 C496.420229,337.591366 478.812125,370.997759 447.397316,367.784542" id="Fill-12"/><path d="M475.014278,620.454321 C475.029535,620.673983 475.044793,620.893645 475.06005,621.114481 C498.0433,619.613263 513.879126,629.474554 501.980837,597.992426 C484.085286,510.000812 478.430723,530.847546 399.084935,539.181776 C387.582161,545.561368 394.681465,596.672105 392.506724,611.72423 C393.791852,621.248393 395.272976,628.742739 406.306297,627.061797 C429.233213,625.324472 452.109662,622.568714 475.014278,620.454321 M367.085839,562.48473 C366.373444,539.602305 369.606802,521.988242 395.506529,520.636206 C421.362832,519.327632 450.443103,512.163365 474.960291,522.494522 C479.015192,526.508343 483.511379,527.141486 488.953514,526.856043 C511.365205,520.632682 524.816209,615.961237 518.394091,630.177002 C516.443513,635.87529 509.83244,634.686531 505.038151,634.801648 C481.040882,633.843124 457.460253,638.034319 433.739962,640.499936 C362.765697,655.932651 369.2864,618.603053 367.085839,562.48473" id="Fill-14"/><path d="M136,577.801799 C139.638435,558.838831 150.448944,538.541867 169.165101,531.109607 C188.697256,521.170518 193.699221,566.734578 210.8399,555.596775 C255.567924,493.395416 245.51454,556.2226 266.031074,548.145693 C275.567542,540.078197 294.226002,514.622882 305.475713,531.87189 C306.225773,541.068694 314.20207,552.744095 309.553351,561.018631 C302.924099,562.712593 298.28009,555.381501 295.574225,550.358431 C284.628305,544.008425 268.758134,583.610678 251.13233,564.882983 C245.953742,561.806794 242.110424,546.802287 235.01371,552.822911 C195.352413,615.138378 182.66499,536.74909 167.329398,555.508548 C159.097586,562.586723 146.566769,598.118761 136,577.801799" id="Fill-16"/><path d="M263.916542,605.69348 C273.926624,607.482815 297.067302,600.407522 299,613.35323 C298.67338,615.952936 296.808826,617.387102 292.326612,617.597282 C248.098968,617.483762 204.009961,623.032725 159.784666,621.82897 C142.742854,606.919714 253.091085,607.0692 263.909493,605 L263.916542,605.69348 Z" id="Fill-18"/><path d="M231.848418,642 C311.215681,643.636354 193.169042,660.536624 174.50551,653.133801 C168.143075,642.896071 223.7909,642.311578 231.848418,642.076189 C231.848418,642.050034 231.848418,642.025017 231.848418,642" id="Fill-20"/><path d="M472.978219,592.660083 C474.336689,618.626708 411.624752,597.224748 432.119426,586.358573 C444.83024,593.215322 456.734205,594.211082 468.192404,584.197269 C473.440452,582.804581 472.354851,589.119857 472.978219,592.660083" id="Fill-22"/><path d="M451.005859,558.416148 C452.043494,535.087645 484.933463,561.595455 471.985475,568.549623 C461.90694,573.120442 450.706859,572.121814 451.005859,558.416148" id="Fill-24"/><path d="M414.093799,561.407482 C412.612585,550.711063 429.138407,552.664035 430.897642,560.512322 C432.586787,572.18807 412.79248,573.774789 414.093799,561.407482" id="Fill-26"/></g></g></g><g id="Color/Top" transform="scale(1 1)"><g id="Color/Top/Pointing" stroke="none" stroke-width="1" fill="none" fill-rule="evenodd"><g id="Color" transform="translate(181.000000, -8.000000)"><path d="M485.222325,189.453219 C504.602042,185.225825 519.818501,217.233735 536.880479,202.06037 C556.437132,182.807325 575.743028,163.301057 595.106341,143.855751 C605.363916,130.886352 620.399924,119.309671 634.944965,133.524076 C656.201839,152.757193 678.203953,171.564756 694.722235,195.242145 C765.524583,271.090212 728.706753,238.317948 677.568859,307.05002 C653.690761,335.966517 691.497555,372.622684 660.464698,400.452438 C650.761364,411.180358 639.586301,419.596458 625.549804,423.690207 C616.876446,426.218905 612.11559,431.878876 611.30942,440.796731 C610.653235,448.039337 608.63781,454.434354 603.00751,459.631257 C598.885263,464.893811 597.825993,473.027382 594.140812,478.757692 C581.303023,501.755135 546.283843,494.621555 534.63539,473.570167 C528.100491,462.419039 527.498207,462.525721 516.280961,469.102448 C508.910599,473.027382 498.375317,482.444645 492.348962,471.651076 C485.593773,459.019305 472.583736,450.314814 475.637339,434.167249 C476.087294,430.908194 473.784788,429.672566 470.506208,430.011367 C439.256575,436.752219 444.58339,418.833276 425.537624,400.908471 C390.161057,420.461632 363.607833,456.082638 322.345522,463.936024 C311.554796,466.416658 310.959543,465.950073 305.113639,456.99705 C290.234647,439.538829 288.455917,433.563503 297.556967,411.900163 C310.006903,385.574498 323.536029,358.987406 345.635398,339.34046 C369.3225,314.714662 397.943878,295.445204 420.930269,270.518119 C428.318207,258.580363 419.849907,242.632093 421.728236,229.264105 C422.451212,197.259712 460.799359,193.569242 485.222325,189.453219" id="Fill-1" fill="#beb6af"/><path d="M736.660613,66.5113971 C734.726058,86.7442417 720.600179,73.8548049 719.349096,84.2279117 C720.171838,96.6568437 704.423882,94.5669505 700.54892,104.940057 C698.567552,108.53364 693.728239,108.805009 689.682409,107.6373 C674.958492,101.274815 680.040063,102.852514 666.554354,106.914824 C650.169739,98.8136981 659.15436,127.809057 642.093294,117.078824 C628.325536,99.9214942 632.52936,129.490135 618.478382,119.465931 C606.052992,109.559203 590.269926,85.1277757 606.738805,72.6953194 C615.708212,67.7719117 612.967299,52.3614456 627.379909,58.7626981 C637.829783,62.9765524 637.976074,43.4039214 651.66425,54.1059602 C652.582959,23.4459699 671.824349,48.3731447 676.618019,42.0553 C677.273404,35.0701932 674.910508,27.249834 681.869288,22.7023485 C688.252266,18.3087563 693.079876,6.91478544 702.193234,12.1412806 C707.013821,14.8561447 710.951981,15.236766 714.742679,10.145368 C721.190025,-0.130233981 731.323909,15.8112223 738.290882,6.96412524 C747.353915,-4.61075825 758.969437,13.0141252 768.456129,4.83781456 C781.335607,-9.42256408 804.159376,24.2530282 809.703228,35.032601 C814.649041,45.1225913 809.78047,53.5514748 798.511365,54.4948049 C789.54547,54.4630864 781.285283,49.2448146 775.467574,59.677834 C771.916794,65.858232 761.943245,60.7456883 757.06297,63.7342709 C750.275058,70.1778146 743.302234,66.5865816 736.636036,63.2972612 C736.644228,64.3686398 736.65242,65.4400184 736.660613,66.5113971" id="Fill-3" fill="#d4ccc4"/><path d="M838.746315,661.517691 C836.57187,678.392235 801.71508,654.439605 791.682611,652.832282 C779.054648,647.512865 766.730451,641.481298 754.123599,636.111431 C747.527549,633.300376 747.038475,633.578431 743.767426,639.750786 C734.794031,650.16788 711.784093,721.276077 695.890944,702.7684 C655.995636,660.33625 656.689957,691.729494 699.227673,614.358605 C701.141747,608.00088 689.454401,605.966502 685.535944,602.446817 C675.850636,596.255691 650.894957,580.685778 649.357364,570.117337 C660.747981,563.736148 692.475636,586.203471 706.401932,589.698518 C726.03292,601.485943 739.363414,536.112487 769.792735,565.829187 C786.645265,577.740975 768.675019,592.731313 762.90113,605.775266 C749.570636,621.79218 826.642611,624.920006 838.746315,661.517691" id="Fill-6" fill="#d4ccc4"/><path d="M698.039248,165.545044 C703.97055,130.171037 711.981506,153.042505 725.975433,143.566281 C731.341905,136.033209 737.187484,141.048246 743.130529,144.447301 C752.227697,142.968029 739.073382,130.400056 764.031586,137.720468 C765.913961,132.464727 762.797415,127.804902 761.309599,122.879837 C758.54886,115.708988 767.556783,108.171242 773.971889,112.736422 C788.110253,127.689225 798.211432,113.498259 808.842213,102.895638 C815.795141,96.4726047 822.409876,81.0559224 833.486884,89.436129 C842.237639,95.1195262 849.464174,102.640913 852.688755,112.439632 C856.19986,124.189682 869.230875,168.584212 842.781332,154.931907 C828.263675,140.385728 822.812655,146.046925 808.406555,156.689273 C801.000354,163.593713 800.615189,175.391669 790.788791,180.356463 C781.971103,187.258565 773.439939,185.882118 763.423308,181.78666 C753.916315,177.439983 761.559721,194.26583 752.550624,193.01207 C745.435646,192.105344 746.104987,196.131863 745.742133,200.617587 C745.392197,210.673367 732.613653,216.657059 725.776979,207.407517 C715.930619,193.269132 697.024668,185.108596 698.039248,165.545044" id="Fill-9" fill="#905f88"/><path d="M870.69401,246.89576 C855.628538,310.92642 816.891445,266.80343 813.235246,284.446071 C811.420697,289.341342 803.276434,294.531593 800.651229,287.757578 C796.807684,271.756058 777.523974,262.110665 780.265829,244.706818 C781.57254,239.317572 780.400152,233.238867 786.345747,229.35847 C792.902868,220.185982 798.84375,209.8921 812.337398,215.164291 C820.825718,219.97294 825.053382,205.695652 833.47454,215.262617 C835.563629,217.330992 837.574951,215.573986 838.208865,213.118156 C845.06409,175.752794 874.29483,228.179718 870.69401,246.89576" id="Fill-11" fill="#b275a8"/><path d="M47.7426809,114.947565 C39.8833012,115.529228 37.523014,111.137676 34.2711412,108.410842 C22.8442415,101.241271 37.3522347,92.0754334 42.8784162,86.1785393 C54.5738516,76.7614239 66.4671554,67.5827901 78.4099262,58.4704659 C84.423712,53.8823123 86.0278593,53.9428052 92.7165177,58.0644655 C110.10538,71.112318 118.935258,81.1262191 96.9859994,92.1859493 C82.4414947,101.931122 64.5709166,110.817762 47.7426809,114.947565" id="Fill-13" fill="#d4ccc4"/><path d="M21.7057419,61 C14.7258807,59.0980577 9.89475183,52.3743395 5.11874869,47.2543577 C-2.53317776,39.5268366 4.82083494,22.1757223 17.138513,24.1563251 C47.9761049,26.9892799 58.2682041,58.6742298 21.7057419,61" id="Fill-15" fill="#d4ccc4"/><path d="M788.375235,318 C794.667423,320.447165 806.840085,331.695187 801.812451,338.65332 C790.892581,346.575737 801.356035,360.300323 792.132432,363.946963 C784.079278,364.911247 781.838369,352.460222 776.086116,348.271466 C767.840043,337.823095 777.552999,322.423947 788.375235,318" id="Fill-17" fill="#d4ccc4"/><path d="M30,261.634422 C28.5724733,267.621088 24.5197593,272.254185 25.2659396,279.068944 C25.387356,283.678582 20.1310872,285.459099 16.5239595,282.666338 C11.8500179,276.957659 -2.8118952,272.906338 0.475777719,264.235994 C5.31593011,249.987167 24.9028692,244.561165 30,261.634422" id="Fill-19" fill="#d4ccc4"/><path d="M220.821251,161 C228.162716,161.218591 248.413264,164.503331 241.631593,175.999332 C236.966643,179.94337 232.823001,192.949529 225.508359,185.984 C216.798897,176.984166 193.633921,162.894455 220.821251,161" id="Fill-21" fill="#d4ccc4"/><path d="M306.902251,159 C315.690811,160.673891 340.449239,176.187693 332.421149,186.071345 C330.039432,187.879288 327.412778,190.5743 324.377897,187.82217 C319.332202,180.465675 293.270945,167.114177 306.902251,159" id="Fill-23" fill="#d4ccc4"/></g><g id="Ink" transform="translate(179.000000, 1.000000)" fill="#000000"><path d="M597.472234,436.105247 C597.697338,428.580861 595.203614,423.241163 587.710717,420.512062 C581.907269,419.776402 572.68389,407.868559 568.342441,414.951783 C564.580166,432.966664 533.398648,450.802029 538.053131,466.500811 C542.452028,475.596249 550.444372,479.044584 560.059338,475.497692 C576.570441,468.902561 598.282372,456.42332 597.472234,436.105247 M483.504234,441.00261 L483.737545,441.00261 C476.545959,483.329484 526.096855,437.190552 535.58989,424.117619 C553.153821,402.077139 557.693407,357.125589 521.080097,391.572566 C512.730166,413.113219 478.325683,415.032741 483.504234,441.00261 M434.382441,392.39505 C429.249614,427.134179 484.125614,399.297587 497.0972,388.365931 C504.885545,380.082418 537.092924,347.592509 516.777338,341.395128 C493.243476,342.051004 471.494028,353.037804 450.1772,361.871596 C435.938234,366.990713 434.601683,379.589631 434.382441,392.39505 M433.309683,240.024172 C436.081269,262.492907 433.9932,298.930978 460.145062,310.570135 C464.235614,312.3911 467.519545,310.463364 467.2792,306.027109 C468.057683,282.484802 459.434579,257.825512 462.41251,234.925001 C468.57589,224.484959 480.073752,224.849856 486.674441,234.851083 C493.204786,245.437788 550.433821,282.383898 517.090372,286.220596 C470.682717,258.467308 494.217752,271.100252 484.057614,310.10316 C476.568234,334.822289 445.155752,328.941699 433.368303,310.787196 C424.523614,305.452191 421.982993,271.257474 413.872234,277.219022 C386.695683,305.087294 357.678441,331.073589 333.648648,361.808238 C317.812855,381.617097 303.068579,404.217242 301.025062,430.133139 C311.352855,442.152446 353.268993,399.269427 365.921683,392.790453 C412.730303,364.444648 456.346441,326.446085 513.229614,322.118947 C547.561407,320.754397 534.76451,348.467793 544.518993,355.365636 C596.664441,361.22276 566.424372,385.683762 579.734786,392.26716 C593.128441,391.850638 608.224441,395.29428 616.391476,406.681177 C620.61451,424.277189 631.202579,409.884292 640.796441,405.216896 C664.642166,391.569046 679.33251,381.700402 668.969545,351.679121 C663.193062,333.763971 651.147683,306.989217 671.082234,295.985989 C694.917407,277.829139 718.742028,258.930762 737.147752,235.025905 C742.642855,208.570289 684.307062,187.355814 670.342441,165.975903 C655.806855,149.770254 641.039131,133.752334 621.80451,123.205521 C617.883959,120.641856 616.086648,121.107657 612.805062,125.118004 C589.13989,152.012434 562.680855,176.369013 537.928855,202.172273 C508.0792,225.231179 429.495821,145.226055 433.309683,240.024172 M719.742097,64.2412237 C718.919062,83.3320222 734.536786,103.118589 699.9412,100.838863 C674.506855,98.5028185 656.857338,80.7296382 659.191614,119.127123 C665.3632,132.627137 681.490924,141.628711 690.468097,154.180697 C692.804717,156.379465 695.441476,154.857692 695.374648,151.795374 C692.349821,68.6915585 751.967062,146.30784 753.028097,123.171495 C751.31989,103.179601 766.224786,70.0209098 788.4772,90.5736429 C791.988579,92.6492143 797.399269,103.512819 801.270579,97.69324 C804.133614,85.2433314 802.498097,57.1732518 822.840648,64.75513 C826.442303,66.2158911 829.04389,69.7299309 833.499062,69.63724 C850.053545,73.9397389 839.342372,95.1319215 823.9732,83.9515258 C807.057614,77.8879005 823.137269,142.261121 777.818786,103.34621 C753.397407,108.394929 792.522028,164.639512 719.744441,134.830598 C709.1892,135.629617 716.317476,158.044381 711.930303,165.530048 C704.061062,173.595327 728.965476,194.764043 731.73589,186.779722 C730.589269,169.976863 736.641269,150.487142 757.384786,159.687004 C767.272924,161.374212 786.002234,187.225577 788.813683,166.935664 C792.444648,154.835399 792.565407,122.517966 812.089614,131.00798 C824.560579,139.855851 825.751752,141.979528 830.32651,125.791479 C832.157821,122.280959 836.670441,121.992327 839.392786,124.686228 C850.039476,133.599804 844.13989,148.05958 842.271062,159.658844 C823.338924,188.01873 814.945614,111.190907 798.901131,183.114327 C790.893545,201.167926 770.388028,184.523463 758.608786,179.670685 C747.795614,177.248989 751.717338,201.559809 749.992717,208.78031 C750.011476,218.044704 755.28851,223.389095 762.566855,227.4628 C771.507683,227.556664 768.046717,210.134301 773.163131,204.272484 C788.442028,172.507676 824.258097,245.543385 824.338993,200.666926 C828.100097,157.261788 861.518579,188.73327 856.0692,203.813722 C840.93451,211.663114 844.973476,192.816362 836.935407,221.132835 C820.384441,258.900256 785.842786,188.330828 780.886993,249.212301 C779.774372,253.849191 780.441476,258.003854 784.57189,261.076732 C792.514993,268.311313 795.913821,273.020947 805.742166,264.776153 C817.00789,256.934975 828.146993,248.910762 839.355269,240.988626 C844.872648,235.767432 848.919821,242.420055 853.802924,245.319285 C872.101959,260.769327 823.004786,275.084786 813.793131,283.479762 C800.265821,292.874392 790.533614,284.113345 781.446234,273.812926 C770.956648,270.15457 762.8752,244.156542 753.349338,249.706261 C732.738303,270.92895 711.256166,291.642425 690.477476,312.577655 C713.12851,386.14487 697.993821,403.620032 626.155338,432.239217 C623.2372,433.188418 621.383614,434.860374 621.002579,437.519076 C616.420786,463.736512 595.338441,482.327484 572.867959,494.054638 C530.306993,517.963015 530.649338,469.662861 513.339821,474.30327 C476.167269,499.376737 446.603683,482.666568 456.662993,436.942985 C452.234786,424.205617 423.474303,443.375027 417.240579,421.078767 C410.396028,413.422971 418.140993,389.416036 410.638717,389.78328 C379.213338,407.482542 351.984028,432.307268 320.117821,449.682699 C258.121752,478.734833 284.744924,387.508247 303.415614,361.536032 C331.028303,321.781036 368.647545,288.497975 410.360855,264.100331 C424.005407,258.460268 413.76789,240.911189 415.816097,229.213367 C416.320234,212.06321 422.442579,187.48605 440.413338,181.549142 C461.172097,162.605006 495.238924,176.146085 518.792717,185.148833 C522.369752,186.921692 526.650234,188.955025 529.718441,185.402266 C551.326028,161.672231 574.783683,138.595725 602.741062,122.542605 C617.048028,114.179308 592.722786,106.805104 587.70251,100.57135 C563.789959,70.2673033 663.517821,24.3888443 684.234372,8.24186066 C772.166579,-25.4436429 640.292303,60.9301651 625.943131,70.4515117 C621.266372,75.8428349 601.0012,82.589322 608.403821,90.4774321 C615.750166,92.6550808 642.150579,118.495886 645.312579,108.70468 C639.951131,43.8199005 700.057269,99.4191674 705.490234,80.274397 C700.178028,68.7772096 698.07589,49.6277459 712.534097,44.7362494 C725.381407,37.6788372 750.39251,73.14776 747.926924,47.6695047 C750.942372,-6.43262881 797.493062,57.0570948 790.888855,18.9470691 C790.200648,11.8004859 794.426028,7.34311124 798.819062,2.98781382 C815.940993,0.0404789227 809.028441,31.1939965 807.646166,41.4768162 C801.49451,65.5459356 771.314234,38.2455422 764.565821,46.8470199 C763.639614,95.1905867 749.818028,77.4256194 719.742097,64.2412237" id="Fill-1"/><path d="M653.55458,566.502261 C739.450713,577.931546 717.727874,612.389095 764.908575,560.850816 C767.33107,558.638922 770.367092,556.141473 774.338626,557.28838 C781.64358,566.205001 766.991522,586.089803 761.59506,595.185482 C751.699009,605.566166 826.92984,621.120806 828,636.025923 C822.136367,656.018394 772.733387,622.350806 757.899847,620.23722 C739.365241,605.244329 703.489128,702.464638 687.146358,692.245458 C660.536377,672.661427 737.882941,613.938591 717.416427,604.751627 C709.370323,595.674673 626.023137,578.647778 653.55458,566.502261" id="Fill-4"/><path d="M729.138954,391 C741.420386,396.475667 748.674029,434.251206 761.612328,429.336696 C779.396928,420.551496 797.484787,412.267705 816.254102,405.81968 C835.428544,397.911946 851.274155,406.444098 825.675057,419.021496 C810.281409,427.680172 794.657095,435.932332 779.261105,444.593351 C767.518281,451.199531 766.205717,450.114707 774.89721,462.933437 C782.250379,478.233438 808.2628,507.37256 796.93447,522.994729 C779.359459,523.518397 766.201034,484.878278 754.478115,472.313767 C747.886022,455.640749 735.791933,470.289387 725.543161,474.468185 C713.981825,477.347772 655.072168,526.102761 662.674736,492.36661 C681.618514,474.475214 705.903877,463.41493 727.362719,448.868214 C751.58017,442.424875 703.963717,399.598929 729.138954,391" id="Fill-6"/><path d="M-0.000468246445,183.864373 C31.0032995,129.574215 102.59701,101.235064 155.024224,66.9191123 C181.707247,49.9924548 207.911489,32.0503384 234.310053,14.8870918 C252.741404,9.40689315 247.522797,31.6263521 235.525153,36.3651603 C160.390328,90.4526945 78.2868256,135.66814 -0.000468246445,183.864373" id="Fill-8"/><path d="M704.282446,769.784225 C701.340852,784.909826 724.670934,784.706663 734.181032,790.796832 C739.621399,793.036313 745.72131,789.609566 750.776259,792.756818 C769.682821,821.530691 719.715561,805.948268 707.24044,800.531001 C686.096345,791.860791 699.275528,873.864331 672.662951,859.250745 C654.246068,848.60763 687.153023,794.465495 672.86796,786.548041 C664.623064,781.898798 651.357191,782.617498 646,774.545031 C650.429377,761.640122 675.230841,774.742321 683.608115,769.838245 C688.277646,766.153141 688.309276,756.970915 693.195531,752.843082 C703.643987,748.499169 705.343809,761.970114 704.282446,769.784225" id="Fill-11"/><path d="M307,58.6871856 C252.960506,92.9959348 196.199077,129.327173 141.918414,165.755332 C86.7526828,172.956654 305.48274,18.4884624 307,58.6871856" id="Fill-13"/><path d="M816.533337,804.844258 C815.662411,833.041127 803.612844,836.969458 793.924223,808.388678 C793.257329,797.80003 791.686863,787.217252 790.102406,776.711961 C785.891178,761.03738 759.326168,766.065785 753,753.278163 C757.084144,733.333607 787.297253,761.457686 790.617733,742.20816 C790.737821,735.713382 796.022841,720.3147 803.977771,728.191321 C813.556797,738.531073 807.3752,757.159533 819.309343,764.889399 C829.30343,768.272976 849.600567,783.017718 829.325582,788.45234 C825.454797,789.208421 821.167786,785.071111 817.924255,788.102477 C813.552134,793.492485 816.175406,797.717848 816.533337,804.844258" id="Fill-15"/><path d="M348.919435,18 C386.064234,28.3438367 413.771408,59.8530601 447.263236,78.5165839 C458.465132,86.7521747 473.345824,91.1426989 481.410063,102.96406 C485.432791,113.759914 467.719639,107.452696 463.435145,104.072495 C418.447962,86.8164149 383.183645,55.9285692 347.935762,24.3294096 C344.967136,22.2608758 345.504752,18.6832819 348.919435,18" id="Fill-17"/><path d="M276.855425,137 C244.673075,135.608061 335.919944,69.7377486 341.80786,89.7980507 C343.989874,99.8340502 326.861069,99.9440017 327.150831,109.087523 C312.659213,119.474431 295.287572,134.60563 276.855425,137" id="Fill-19"/><path d="M610.491702,561.575513 C581.066584,551.128281 592.779861,596.335346 578.230429,583.776465 C568.520599,575.541382 586.650561,558.426151 573.680566,553.154623 C567.961142,550.643314 557.76959,549.794915 558.003973,541.81926 C561.012089,534.085503 571.687719,537.64621 577.9772,538.617312 C589.082729,544.554939 589.2594,516.010857 599.509842,526.231382 C604.866502,532.409739 594.470012,542.624421 603.057393,546.183959 C611.087671,546.791628 625.41921,560.738799 610.491702,561.575513" id="Fill-21"/><path d="M439.48097,26 C460.140987,35.4671091 480.207479,51.5383809 495.399596,68.699511 C504.301291,103.879946 410.824734,28.0674209 439.48097,26" id="Fill-23"/><path d="M590.300173,617.399712 C594.59091,617.287927 597.222954,620.422623 598.845205,615.860604 C616.559483,609.848907 608.283651,619.424792 616.082212,630.033808 C621.721298,635.753687 613.83222,649.409149 606.534441,645.992047 C602.811492,643.864596 599.458839,645.243674 596.630479,646.920454 C588.406371,651.405988 579.534537,640.941704 579.047862,633.368541 C578.35194,627.515697 585.396977,619.54599 590.300173,617.399712" id="Fill-25"/><path d="M107.470843,214.918993 C43.1477788,213.518997 104.238873,187.355759 130.652974,198.960005 C148.697947,212.703233 115.982801,215.55001 107.470843,214.918993" id="Fill-27"/><path d="M199.671025,252 C145.135079,249.132992 198.871333,228.075676 221.254512,237.337502 C239.921406,248.925681 207.830693,251.581846 199.671025,252" id="Fill-29"/><path d="M249,208.774596 C260.980338,203.311461 318.940158,192.825784 326,203.833732 C323.450417,208.626198 318.401795,207.559799 314.337038,208.23622 C292.295897,208.932198 270.720239,215.997807 249,208.774596" id="Fill-31"/><path d="M777.641,871.0289 C772.772923,856.5859 781.819077,859.0559 792.035231,860.423264 C797.479077,860.786082 794.880615,866.082991 796.279077,869.757264 C795.819846,877.433173 783.287923,879.498991 778.108308,884.425991 C771.892538,889.154445 759.238308,862.883809 777.641,871.0289" id="Fill-33"/><path d="M512.80619,32 C523.420837,33.1016965 532.155416,50.0156996 529.528713,59.9937531 C519.382911,60.4439086 491.534701,36.4292938 512.80619,32" id="Fill-36"/><path d="M364,119.752293 C367.469591,109.97168 376.453125,105.973748 386.178898,107.221792 C398.83065,114.387567 376.743516,131.72164 368.015526,129.861216 C363.104434,127.875057 367.646149,122.38343 364,119.752293" id="Fill-38"/><path d="M251.713095,277.697875 C239.047091,279.479294 232.173948,273.132917 244.405016,265.23748 C254.02295,262.605271 264.417889,260.804787 274.241535,262.95083 C286.095268,274.186277 256.182342,277.006757 251.713095,277.697875" id="Fill-40"/><path d="M485.499439,134 C492.09081,136.737408 502.410058,135.558869 507,140.881069 C500.888972,146.905789 485.562093,151.739858 477.411349,147.229191 C469.027395,136.721662 477.79307,135.235467 485.499439,134" id="Fill-42"/><path d="M108.560007,273.204464 C140.736851,273.469893 106.693183,289.994654 93.7847599,286.520162 C84.0121371,278.450875 102.637346,271.72906 108.560007,273.204464" id="Fill-44"/><path d="M643.696838,247.190841 C628.843635,267.319618 635.376087,263.000782 646.473159,282.355826 C650.18822,306.289961 633.275658,290.839924 626.429901,280.447285 C614.712088,274.613808 607.913269,302.073117 596.452435,305.427132 C594.330884,306.498635 592.210507,306.060186 590.514909,304.16923 C567.685942,286.293657 613.095109,272.891667 601.613154,255.589359 C595.954903,247.349105 589.313323,239.236633 584.279333,230.750191 C588.36989,204.510097 612.178665,253.885975 622.328784,246.977478 C629.071279,243.117021 640.821948,234.542654 643.696838,247.190841" id="Fill-46"/></g></g></g></g></svg>