<svg viewBox="107.5 129 537.4999999999998 645.0000000000001" xmlns="http://www.w3.org/2000/svg" xmlns:xlink="http://www.w3.org/1999/xlink" overflow="visible" width="537.4999999999998px" height="645.0000000000001px"><defs><path d="M446.016205,614.939854 L28.9123461,514.153791 C9.28466768,509.366173 -2.79435407,489.496213 1.98609092,469.863222 L109.598816,27.9818277 C112.896372,14.4371434 123.389625,4.07508322 136.980794,0.937314549 C142.565458,-0.352006661 148.247765,-0.311237546 153.866741,1.05894835 L570.970924,101.846413 C590.598602,106.634031 602.6759,126.502913 597.896855,146.13558 L490.283376,588.020101 C486.985497,601.563384 476.493645,611.925121 462.903877,615.062566 C457.317812,616.352211 451.635505,616.311441 446.016205,614.939854 Z" id="masterspot-illustrationsmobile-path-1"/></defs><g id="Master/Spot Illustrations/Mobile" stroke="none" stroke-width="1" fill="none" fill-rule="evenodd"><g id="Phone" transform="translate(0.000000, 87.000000)"><path d="M458.935586,639.738781 L234.428181,584.876593 C210.892026,579.124164 196.462186,555.337108 202.199114,531.746562 L309.946755,88.5635318 C315.681958,64.9719045 339.41128,50.5110646 362.946788,56.260683 L587.454516,111.124276 C610.98927,116.87703 625.420188,140.662356 619.683583,164.254307 L511.937345,607.437013 C506.20074,631.028965 482.471418,645.489805 458.935586,639.738781" id="Pink" fill="#FFB6C2"/><path d="M448.689882,630.377644 L223.841981,574.965743 C200.27013,569.226704 186.496937,546.172439 192.242566,522.636806 L300.153621,80.4854037 C305.897522,56.9486922 328.984301,42.5215138 352.555504,48.2577484 L577.403729,102.993632 C600.974176,108.732995 615.426981,132.462954 609.681676,155.999989 L501.772025,598.151068 C496.02672,621.688103 472.261409,635.437861 448.689882,629.700224" id="Light-Pink" fill="#FFDBE1"/><path d="M332.729509,47.1197464 C317.089644,50.7403245 304.012658,62.8655237 299.951672,79.565578 L192.198638,522.75042 C186.46309,546.342236 200.892199,570.129092 224.426071,575.880004 L448.92848,630.739444 C455.805449,632.419477 462.694617,632.370225 469.151367,630.879567 C484.790155,627.260719 497.868542,615.135195 501.929852,598.436546 L609.683965,155.249974 C615.419512,131.658158 600.989001,107.871627 577.453727,102.121039 L352.952721,47.2612748 C346.075751,45.5812416 339.186259,45.6290882 332.729509,47.1197464 M332.732314,47.119103 L335.969351,61.1726534 C340.455602,60.1345273 345.022001,60.1688066 349.54539,61.2729054 L574.04672,116.134075 C581.696533,118.002375 588.16125,122.745727 592.251123,129.487797 C596.341319,136.231273 597.568251,144.167246 595.703112,151.834356 L487.948675,595.019523 C485.294062,605.93938 476.852246,614.300798 465.91433,616.826015 C461.426153,617.862192 456.857473,617.830831 452.335487,616.726408 L227.833402,561.868374 C212.044897,558.009538 202.32967,541.994203 206.178089,526.166362 L313.932525,82.9811954 C316.586814,72.0599333 325.030234,63.7054645 335.967949,61.1729778 L332.732314,47.119103" id="Black" fill="#000"/><mask id="masterspot-illustrationsmobile-mask-2" fill="#fff"><use xlink:href="#masterspot-illustrationsmobile-path-1"/></mask><g id="Mask"/><polygon id="Black" fill="#0519FC" mask="url(#masterspot-illustrationsmobile-mask-2)" points="413.941257 85.4847982 415.761636 78 507.941257 100.515524 506.122288 108"/><path d="M412.659517,70.1314765 C410.874353,70.5557598 409.381375,71.975304 408.916698,73.9286197 L406.085155,85.8473579 C405.429733,88.6060814 407.075225,91.3879965 409.760946,92.0601986 L504.915727,115.852758 C505.699642,116.049496 506.48652,116.043447 507.223719,115.868235 C509.007489,115.444283 510.500467,114.024739 510.965466,112.072855 L513.797008,100.154117 C514.453503,97.3936305 512.806938,94.6134783 510.122611,93.940945 L414.966116,70.1472851 C414.1822,69.9505473 413.395322,69.9565963 412.659517,70.1314765" id="Black" fill="#000" mask="url(#masterspot-illustrationsmobile-mask-2)"/><g id="Girl-2" mask="url(#masterspot-illustrationsmobile-mask-2)"><g transform="translate(355.895742, 557.000000) scale(-1, 1) translate(-355.895742, -557.000000) translate(112.895742, 34.000000)"><g id="Body" transform="translate(0.357143, 175.283626)"><g id="Shorts" transform="translate(0.914286, 0.087719)"><g id="Leg-R" transform="translate(262.888522, 243.993422)"><path d="M9.94590653e-14,56.7644872 C15.497681,20.5351013 59.1750667,-3.0313461 84.8662857,0.315700686 C87.2969381,14.379575 91.1535952,33.6870457 92.6589143,52.4955983 C94.370781,73.8714317 95.3919524,96.976958 94.9639857,118.72285 C93.4355333,196.369049 77.4801429,268.89225 78.4385238,283.113069 C78.5261,284.395057 77.3892619,290.890905 77.116619,291.33035 L77.126,291.309 L77.1224024,291.327541 C77.12075,291.336628 77.1186845,291.345301 77.1164125,291.353768 L77.1091833,291.378755 C76.3309119,294.605202 75.2700833,297.01719 74.8669024,300.377454 C67.4906738,362.069837 44.4614405,536.957161 44.4614405,536.957161 C23.071369,555.752497 9.95311667,532.328126 9.95311667,532.328126 C12.1259976,526.777249 14.6029167,508.831065 15.2919595,492.325465 C15.9277131,477.052942 13.9222896,456.468409 11.8951361,435.928206 L11.6699405,433.646416 C10.4868357,421.640992 1.87793095,376.87548 10.3331643,348.222381 C20.3267643,314.355421 23.695969,303.379223 23.947131,282.026518 C23.9906563,282.046847 24.0342198,282.067141 24.0778214,282.087399 C22.0568004,240.495715 0.147499238,58.1986677 9.94590653e-14,56.7644872 Z" id="SKIN" fill="#AD603F"/><path d="M21.1716267,308.665938 C33.9180933,327.852809 13.9589838,352.220499 19.1044981,382.35218 C26.5187314,425.76797 26.3799314,460.498949 22.5943267,471.572619 C18.7376695,482.851142 17.0274552,492.297546 15.2908029,492.325631 C15.9517552,476.487458 13.76896,454.936508 11.6704362,433.646581 C10.485679,421.641157 1.87677429,376.875645 10.3320076,348.222546 C15.6361505,330.244973 19.0747552,318.718642 21.1716267,308.665938 Z M24.8346248,26.762822 C57.2361629,97.5943279 56.7404486,183.314079 21.6637057,251.710468 C15.4590152,185.595556 0.123267619,57.9633776 0.000991428572,56.7656437 C5.33157238,44.3009507 14.3073057,34.3358045 24.8346248,26.762822 Z" id="sd_legr" fill-opacity=".15" fill="#000" style="mix-blend-mode:overlay"/></g><g id="Leg-L" transform="translate(75.648809, 257.227963)"><path d="M125.256425,-1.95727515e-12 C160.946201,10.842383 200.991653,36.7514327 209.53281,73.2269737 C203.138096,95.7295029 164.974706,185.985775 161.015601,194.627632 C154.705031,208.395479 133.480223,255.426625 123.682012,277.419944 C123.933821,277.342494 124.181532,277.256894 124.429243,277.170827 C123.925267,278.578371 123.52539,279.705067 123.279186,280.420404 C120.139662,289.534746 70.9036667,396.760842 64.1322095,412.759263 C61.6685095,418.581076 29.3479381,508.913342 29.3479381,508.913342 C3.59888571,516.925769 -5.62005469e-13,495.592889 -5.62005469e-13,495.592889 C2.86192381,491.142275 10.8148333,471.62169 14.2732667,455.548927 C16.9055095,439.887523 17.9349429,413.762056 19.488181,395.349994 C21.2198762,374.816705 24.4007095,339.555418 40.7278857,305.298576 C51.6749095,282.333474 67.0255286,264.618576 73.5293,251.911032 C73.5513536,251.94315 73.5734359,251.975249 73.5955471,252.007327 C73.8575904,251.44325 74.0859475,250.89839 74.2771676,250.374298 C78.5535295,238.65633 79.9844914,199.942266 86.4122533,163.656711 C92.8416676,127.369503 92.6400771,96.5670906 98.6002152,71.2048684 C104.143953,47.6252047 111.156658,28.5440643 121.46421,7.40282164 C122.244134,5.80364035 123.121549,4.2127193 123.937825,2.58710526 C124.370749,1.72804094 124.810282,0.865672515 125.256425,-1.95727515e-12 Z" id="SKIN" fill="#AD603F"/><path d="M56.1389819,278.718795 C64.2092105,286.749395 60.8945343,314.363357 44.3079343,337.381325 C28.8019914,358.899234 28.2616629,387.29957 19.9187914,390.382289 C21.7859819,369.426076 25.6442914,336.946836 40.7288771,305.298576 C45.4067676,295.48707 50.8877152,286.633751 56.1389819,278.718795 Z M125.086395,0.272422515 C134.911452,3.25767105 143.47409,6.12562427 152.725771,11.1775833 C114.311219,79.4153757 130.684661,127.484981 109.991895,203.748417 C98.95399,244.423461 73.4874948,252.343373 74.1071376,250.645069 C78.3851519,238.928753 79.8144614,200.214689 86.2438757,163.927481 C92.67329,127.641925 92.4700471,96.8395132 98.43349,71.4772909 C103.998709,47.7968523 111.118819,28.5818962 121.499076,7.33161842 C122.236038,5.82329971 122.999438,4.39097515 123.769447,2.85952778 C124.200719,2.00046345 124.641904,1.13809503 125.086395,0.272422515 Z" id="sd_legl" fill-opacity=".15" fill="#000" style="mix-blend-mode:overlay"/></g><g id="Arm-R" transform="translate(315.495810, 0.079316)"><path d="M139.446801,5.7494191 C141.456097,2.67991617 143.473654,-0.288811896 146.37854,0.804843075 C147.873944,1.36488693 147.019663,3.43985769 146.310792,5.20754775 C144.39403,9.99517933 140.917421,15.9062027 141.038044,21.0622407 C144.15113,14.4490975 147.064278,11.5695799 150.806921,6.89428752 C152.898835,4.28240155 155.704578,2.34289863 157.842759,3.48776705 C159.933021,4.60620272 157.348697,7.64101267 156.081321,9.47808869 C152.99963,13.936963 149.304906,19.0996092 148.397749,23.2396384 C150.630116,20.401422 163.606263,8.76770857 166.570635,11.5051501 C168.82944,13.5900331 162.147211,19.4366267 156.258125,26.3537466 C158.806097,25.1494045 161.392073,24.1135711 163.483987,23.7385565 C164.794325,23.5023138 166.28973,23.332153 167.325773,24.1664366 C167.500925,24.3068606 167.662859,24.4869337 167.697559,24.708308 C167.730606,24.9346384 167.628159,25.1560127 167.512492,25.3542583 C166.686301,26.7717144 165.230554,27.6852963 163.857425,28.5856618 C159.686816,31.3214513 155.74754,34.4867729 152.603059,38.3591706 C150.598721,40.8273285 148.936425,43.5713782 147.667397,46.4855887 C147.407973,47.0819776 146.958525,48.1260711 146.456201,49.2445068 C146.17034,49.9416706 145.824992,50.6817875 145.423463,51.4565975 C144.98393,52.3536589 144.562573,53.1449893 144.242011,53.5893899 C144.208963,53.6339951 144.174263,53.663732 144.141216,53.7050331 C143.490178,54.7623431 142.758173,55.8741706 141.854321,57.0983372 C139.736678,59.9665542 138.101906,62.0152393 136.813639,66.0538017 L136.779363,66.2087144 C132.390639,83.4527787 128.993344,139.543071 100.894606,188.565907 C94.6056439,197.852062 82.0558105,197.852062 75.6016105,185.365893 L75.7062234,185.56871 C75.6351394,185.461937 75.5745169,185.354827 75.525601,185.247606 C65.0561153,162.337021 57.4650772,146.83091 45.1069201,121.604156 C32.7785058,96.4385273 -15.6065133,15.9111589 5.74224862,20.4856764 C9.47002005,21.283615 10.9373343,21.7395799 14.5659629,22.5969922 C16.7851105,23.120691 18.2078105,23.401539 20.0783058,23.8657641 C50.9940483,31.5375708 76.1347532,85.5563114 90.111042,134.107222 C95.1652632,120.264803 101.651856,104.589247 109.397758,89.5983928 C113.835962,81.0063893 116.411787,72.9379438 118.355583,67.2890191 C120.534446,58.4974278 120.809583,48.7104742 119.284449,41.1544337 C117.276806,31.1975478 123.223725,11.0029279 126.388035,11.6406179 C129.413544,12.3377817 125.849359,21.8172261 126.412821,26.864229 C126.692073,29.3489074 127.250578,30.4128255 127.840478,29.2134396 C128.374197,28.1263928 128.603878,27.5266998 129.122725,26.2199308 C133.139663,16.1143606 134.413649,13.4396969 139.446801,5.7494191 Z" id="SKIN" fill="#AD603F"/><path d="M134.43133,78.5799016 C130.672163,101.48553 124.77812,143.059288 104.647163,181.669273 C99.2570962,183.696334 94.6486058,171.381978 100.435244,163.268776 C121.62703,133.564975 114.977849,96.0321238 134.43133,78.5799016 Z M3.00491434,43.8350448 C54.9392477,58.1169893 67.6675381,106.976273 75.2123096,146.607223 C77.2546524,160.968466 73.9730239,175.992179 71.7984905,177.143656 C63.1301001,158.402837 55.9521572,143.740922 45.1059286,121.603495 C36.3218715,103.675483 10.2654762,67.0661267 3.00491434,43.8350448 Z M135.028831,28.1486954 C142.071278,23.9524966 154.112178,32.2821165 152.603554,38.3599966 C150.599216,40.8281545 148.936921,43.5705521 147.66624,46.4864147 C147.406816,47.0828036 146.959021,48.1252451 146.456697,49.2453328 C146.311288,49.6021749 145.775916,50.7949527 145.162883,51.9827744 C144.68204,52.9145287 139.343197,53.4332714 136.539107,52.2570141 C132.541997,50.5834907 128.204497,45.6769118 129.352902,42.4967217 C131.948792,35.3185785 126.532288,33.2089147 135.028831,28.1486954 Z" id="sd_armr" fill-opacity=".15" fill="#000" style="mix-blend-mode:overlay"/></g><g id="Torso" transform="translate(197.112028, 10.194285)"><path d="M153.224129,248.619313 C147.648996,215.105892 141.97472,196.872251 141.640939,189.518991 C140.624724,167.171754 145.71571,146.042076 143.749377,120.592295 C143.749377,120.592295 150.036686,115.044722 151.333805,104.595526 C152.090596,98.4895614 152.72511,81.9591813 141.878881,54.9961257 C129.629781,24.5422953 130.259339,14.891038 129.89912,12.3634064 C129.757015,11.3787865 116.297603,8.57261984 108.141451,5.0256754 C98.5692078,17.1731754 79.4485116,16.9480902 79.4485116,16.9480902 C47.9913513,16.9480902 37.8290649,0.59225815 37.6803506,0.364275694 C33.3428506,2.17987511 26.3840624,4.55913743 16.4978671,8.39684211 C28.9683862,38.1898538 8.88865286,63.4513012 2.97312905,72.592076 C3.6968719,82.2780263 15.2453624,123.240526 17.7619386,137.743845 C21.0187814,156.530921 24.4805195,173.152164 23.1354814,185.699459 C21.9375052,196.890424 8.37311,227.398772 0.000495714286,254.441126 C37.0452243,258.88348 73.5975433,285.925833 88.3714814,320.362749 C88.6920433,320.288406 89.029129,320.21902 89.3810862,320.152939 C96.6201671,318.796608 102.717453,314.065146 105.683477,307.324795 C116.222362,283.376725 131.5515,261.559795 153.224129,248.619313 Z" id="SKIN" fill="#AD603F"/><path d="M40.4651571,173.713199 C40.4651571,165.452965 53.8312667,133.175275 48.3321429,122.546006 C32.3123095,115.457073 36.6547667,94.5537251 17.8358,78.0448216 C12.1797,72.8838275 5.74367619,72.1767515 2.97428571,72.5914152 C3.69472381,82.2773655 15.2448667,123.239865 17.7614429,137.744836 C21.0182857,156.53026 24.4800238,173.151503 23.1366381,185.698798 C21.9370095,196.889763 8.37261429,227.398111 0,254.440465 C10.9685048,255.876094 18.9924667,258.245129 28.9348429,262.444632 C29.9725381,260.736415 31.1308571,259.064544 31.6612714,257.234076 C43.5798952,216.091503 37.7023762,205.483711 40.4651571,173.713199" id="sd_torso" fill-opacity=".15" fill="#000" style="mix-blend-mode:overlay"/><path d="M107.69872,190.823282 C107.905268,191.664174 107.660716,192.455504 107.465735,193.091542 L107.394682,193.326133 C106.753559,195.508487 106.97663,197.925431 108.006063,199.954145 C108.25392,200.443151 108.057287,201.039539 107.569835,201.287346 C107.42773,201.360037 107.274059,201.39473 107.12204,201.39473 C106.760168,201.39473 106.411516,201.196484 106.238016,200.851206 C104.982206,198.37644 104.711216,195.430841 105.492792,192.766089 L105.572106,192.510022 C105.712559,192.045797 105.848054,191.606352 105.772044,191.295768 C105.641506,190.763808 105.967025,190.226893 106.499092,190.098034 C107.041073,189.962566 107.568182,190.292975 107.69872,190.823282 Z M35.8039557,102.781579 C37.0994224,107.679898 41.2551605,115.337135 45.14817,118.494196 C48.6165176,121.30598 54.5469129,123.384254 58.8860652,124.197061 C65.1171938,125.361754 72.0985033,125.189942 76.1848414,124.687719 C76.7400414,124.615029 77.2225367,125.008216 77.2902843,125.55174 C77.3563795,126.095263 76.9713748,126.589225 76.4277414,126.656959 C74.5241986,126.889898 72.0158843,127.05345 69.2415367,127.05345 C65.8525033,127.05345 62.0718557,126.808947 58.5225414,126.144825 C53.9355319,125.287412 47.6366557,123.065409 43.89897,120.032251 C39.262389,116.272193 35.1049986,107.893012 33.8871938,103.288757 C33.7467414,102.75845 34.0623462,102.216579 34.5911081,102.076155 C35.1165652,101.939035 35.6651557,102.252924 35.8039557,102.781579 Z M38.061769,19.5697997 C49.4417167,19.7234401 60.8315786,23.4190687 70.132831,29.9760424 C70.5789738,30.2915833 70.688031,30.9094488 70.3707738,31.3571535 C70.1774452,31.6313933 69.8701024,31.7767734 69.5594548,31.7767734 C69.3628214,31.7767734 69.1645357,31.7172997 68.9893833,31.5950482 C60.01365,25.2677091 49.0187071,21.7009401 38.0369833,21.5539079 C37.4883929,21.5456477 37.0505119,21.0962909 37.0586588,20.5478114 C37.0653833,20.0009839 37.4817833,19.5384108 38.061769,19.5697997 Z M114.343936,13.0521447 C114.621536,13.5229781 114.469517,14.1325833 114.00024,14.4117792 C108.720883,17.5605804 104.480874,22.5910629 102.238593,28.3203611 C102.218764,28.4161798 102.182412,28.5086944 102.13284,28.5946009 C102.048569,28.8176272 101.967602,29.0406535 101.888288,29.2653319 C101.749488,29.6651272 101.374398,29.9311067 100.95304,29.9311067 L100.915036,29.9311067 C100.478807,29.9129342 100.103717,29.6139137 99.9946595,29.1909898 C99.8409881,28.6078173 100.012836,27.9767354 100.414364,27.5422471 C102.820231,21.431326 107.35106,16.0687822 112.982374,12.7101711 C113.456607,12.4276711 114.063031,12.5829635 114.343936,13.0521447 Z" id="sd_lines" fill-opacity=".5" fill="#000" style="mix-blend-mode:overlay"/></g><g id="Arm-L" transform="translate(-0.000149, 16.194999)"><path d="M225.129618,-9.40326439e-13 C229.047413,29.7583187 179.499118,131.147734 160.093556,165.098947 C160.056802,165.163223 160.015938,165.216778 159.971024,165.260098 C159.81922,165.565082 159.655644,165.866266 159.480853,166.162039 C158.646401,167.387858 157.365806,168.547595 156.784168,169.249715 C151.418887,175.733999 131.709287,209.633999 131.709287,209.633999 C105.280003,248.624556 75.7421053,277.155456 67.0163818,285.243293 C65.4530732,286.968806 64.2516587,289.15214 63.3362415,290.575535 C61.0592605,294.117523 59.2185082,297.918883 57.0918939,301.550082 C53.2187129,308.166529 46.5860558,317.067757 43.6266415,317.229658 C41.2587796,316.960374 42.8483701,312.060404 45.1864891,306.684643 C46.3365463,304.038064 49.2579558,299.646924 47.9938843,298.852289 C46.6604129,298.01305 42.5707701,299.359468 39.0511986,301.736763 C28.9832415,308.541544 25.9940843,316.017056 17.5851177,324.92324 C16.8217177,325.731091 15.7955891,326.590155 14.728151,326.276266 C12.9634082,325.754219 13.4756463,323.127465 14.3547129,321.510111 C17.2001129,316.283035 20.8072605,310.925447 23.6526605,305.698371 C18.8310129,310.649556 13.2459653,315.729599 8.42431768,320.680784 C7.89555578,321.222655 6.95369863,322.076763 6.20021292,322.010681 C4.55444149,321.866953 5.07163673,319.106383 5.81355578,317.631105 C8.62756054,312.047187 12.7948653,305.452216 17.538851,299.286778 C12.2446224,303.677918 2.73517006,314.787933 0.248336729,312.587406 C-2.27980613,311.378108 15.0635843,290.41033 26.4253558,284.137509 C36.6139367,278.512289 44.0116463,276.805725 48.443332,276.087085 C52.6685311,275.400731 56.4992248,273.553731 59.0653747,267.643879 C63.0781863,257.327611 70.1868397,239.924385 88.1971391,210.177522 C107.623699,178.088575 120.295175,163.438995 129.116549,153.749502 L129.000704,153.785731 C129.65009,153.579225 130.76049,147.560819 131.000085,146.738099 C131.839494,143.86519 132.700385,140.997237 133.574494,138.132588 C135.575528,131.577266 137.637699,125.040117 139.736223,118.516184 C145.755847,99.7951901 151.876266,81.0543713 158.847661,62.6621345 C166.749347,41.811652 179.970047,21.3741813 199.641642,9.24320175 C204.2847,6.37966827 208.368404,4.03681906 213.610044,2.39612865 C216.932481,1.35616999 220.955154,0.739612539 225.129618,-9.40326439e-13 Z" id="SKIN" fill="#AD603F"/><path d="M54.886461,273.449757 C54.4816277,275.508208 43.6188753,293.773237 32.769342,297.275576 C21.4852324,300.483851 24.2364467,288.438778 15.3796848,292.734099 C19.1371991,289.173939 23.0450801,286.003661 26.4258515,284.136848 C36.2505546,278.714122 43.4801744,276.93361 47.956181,276.167506 L48.4421753,276.086424 C50.2498801,275.794012 52.7780229,275.146409 54.886461,273.449757 Z M121.096044,162.900073 C121.476091,162.794342 121.707425,163.448553 121.707425,163.448553 C123.736549,170.545746 123.941444,177.880833 119.59403,184.355205 C106.50552,201.655439 90.482382,215.905994 81.1100772,237.065409 C77.7078248,244.98367 71.5394867,252.206418 63.8724391,255.971433 C68.4809296,245.464415 75.7167058,230.792588 88.1971391,210.176696 C102.396049,186.720936 112.981201,172.594284 121.096044,162.900073 Z M210.683402,3.41894912 C214.146792,5.145338 212.419173,16.7669532 209.005354,27.6737661 C196.065559,59.6557398 170.774216,66.1681082 158.774626,103.995023 C154.091778,117.36669 149.275088,136.464351 143.118316,143.498766 C136.963197,150.533181 132.250607,152.750228 129.000373,153.786061 C129.649759,153.579556 130.760159,147.561149 130.999754,146.73843 C131.839164,143.863868 132.701707,140.995915 133.574164,138.132918 C135.575197,131.577596 137.637369,125.040447 139.737545,118.516515 C145.755516,99.7955205 151.875935,81.0547018 158.847331,62.6608129 C166.749016,41.8103304 179.969716,21.3745117 199.641311,9.24353216 C203.307945,6.98188012 206.792839,4.95833875 210.683402,3.41894912 Z" id="sd_arml" fill-opacity=".15" fill="#000" style="mix-blend-mode:overlay"/></g><g id="Bottom" transform="translate(158.343638, 215.291251)"><path d="M206.918806,162.878596 C203.306702,97.2460819 202.192997,90.6081579 197.470492,54.8677778 C193.511387,25.1738889 186.424325,-5.1649393e-13 186.424325,-5.1649393e-13 C179.142283,2.2880848 164.222935,12.0648977 145.166025,12.8066667 C111.528506,14.1167398 87.7077826,4.89336257 50.0219302,2.18400585 C47.0294683,6.51732456 33.2981826,40.5957456 24.9900112,62.3498977 C16.2803112,85.1597076 3.52062548,115.108012 0.756192147,163.537763 C0.562863576,166.929415 0.260477861,169.445482 0.00270643271,172.934605 C-0.0799126149,175.526667 1.84345881,182.719678 7.03028262,183.806725 C7.53260643,180.294474 8.00683977,174.234766 8.26461119,172.437339 C38.8683588,168.094108 73.8063017,171.152047 97.7146017,190.570205 C97.273416,191.748114 96.440616,193.646316 95.6854779,195.519737 C96.5695017,195.831974 100.525302,194.791184 101.17634,193.570322 C105.130487,183.82655 108.973925,174.086082 111.943254,164.249795 C111.943254,170.383845 112.16963,181.976257 112.903287,191.94636 C113.354387,194.581374 116.553397,195.100117 117.158168,194.469035 C117.006149,192.774035 116.743421,191.04269 116.553397,188.78269 C139.341383,169.460351 189.375478,168.294006 198.703168,169.797368 C198.612287,171.773216 198.427221,175.311901 198.219021,177.819708 C199.58554,177.338962 206.732087,174.125731 206.918806,162.878596" id="color_bottom" fill="#323C84"/><path d="M126.342597,121.124931 C137.661407,124.541364 150.059221,152.669113 152.818697,173.2817 C148.910816,174.12094 145.002935,175.118776 141.197502,176.301642 C131.815283,179.219156 123.070883,183.256759 116.553893,188.784507 C116.742264,191.042855 117.006645,192.7742 117.155359,194.4692 C116.553893,195.100282 113.354883,194.581539 112.902131,191.946525 C112.246135,182.990779 111.994974,172.739829 111.952012,166.298499 C115.937555,150.927855 121.10455,136.090823 126.342597,121.124931 Z M50.021765,2.18400585 C63.1284507,3.12567251 74.541446,4.85866959 85.2901841,6.65940058 C60.487946,56.8304094 43.4419841,113.852456 40.2743698,170.924064 C29.5058031,170.3475 18.6364412,170.965365 8.26444596,172.437339 C8.00832691,174.234766 7.53078881,180.294474 7.03011739,183.806725 C1.84329358,182.719678 -0.080077853,175.526667 0.00254119461,172.934605 C0.260312623,169.445482 0.562698337,166.929415 0.75767929,163.537763 C3.52046024,115.108012 16.280146,85.1597076 24.9914983,62.3498977 C33.2980174,40.5957456 47.0293031,6.51732456 50.021765,2.18400585 Z" id="sd_bottom" fill-opacity=".25" fill="#000" style="mix-blend-mode:overlay"/><path d="M150.24908,11.8721038 C150.79767,11.8770599 151.237204,12.3264167 151.230668,12.8732442 C151.168867,18.9696063 150.896164,25.0730013 150.416317,31.1668883 C153.377147,30.4357258 156.291868,29.24152 159.242328,27.9706389 C167.846276,24.2601418 176.402305,20.1515015 184.677428,15.757057 C185.530057,15.3043962 187.293147,14.3693377 187.800428,13.919981 C188.210219,13.5565307 188.838124,13.5928757 189.199995,14.0025833 C189.563519,14.4106389 189.527166,15.0384167 189.117376,15.401867 C188.486166,15.9619108 187.023809,16.7565453 185.703557,17.4570132 C179.917502,20.5306238 174.040839,23.4449218 168.120291,26.1784301 C169.845026,33.1960992 174.633968,47.9495148 181.195201,56.4155804 C185.066729,61.4097178 189.782625,61.837598 191.671296,61.8161213 C194.050725,61.7649079 195.694844,60.9537529 196.212039,60.2235482 C196.525991,59.7774956 197.142329,59.6684605 197.593429,59.9873056 C198.039572,60.3028465 198.146977,60.922364 197.82972,61.3684167 C196.810201,62.8073494 194.467125,63.7374518 191.712605,63.7985775 C191.634944,63.8002295 191.552325,63.8002295 191.464748,63.8002295 C189.15472,63.8002295 183.888582,63.1294985 179.627091,57.6298348 C172.977853,49.049137 168.121179,34.3228729 166.284513,27.018039 C164.20223,27.9663733 162.11529,28.8905332 160.025557,29.7911944 C156.780412,31.1905934 153.567919,32.5004248 150.24445,33.2463898 C148.104878,57.9812137 142.556899,82.528269 133.85215,105.78011 C133.991368,106.208882 133.82125,106.693994 133.417432,106.935667 C132.07816,110.46162 130.667616,113.955846 129.185246,117.415899 C129.269533,117.750938 129.175311,118.120699 128.906597,118.375925 C128.845663,118.433696 128.779218,118.482284 128.709067,118.521689 C127.703701,120.83825 126.666469,123.139441 125.597208,125.423887 C125.428665,125.784034 125.073404,125.995496 124.699965,125.995496 C124.557861,125.995496 124.415756,125.965759 124.280261,125.901329 C123.782894,125.670042 123.569737,125.080262 123.802723,124.584648 C124.870572,122.302892 125.906243,120.00433 126.909465,117.690145 C126.689699,117.445829 126.474633,117.19715 126.262787,116.945253 C125.449816,115.965589 124.679806,114.906627 123.975892,113.798104 C119.81024,107.257651 118.151249,99.6846681 117.080506,93.1376067 C115.961845,86.3063933 115.421516,78.7152383 115.428066,69.9280015 C115.434735,60.7806184 115.861049,51.7092295 116.272492,42.9385132 C116.472789,38.6741393 116.673086,34.3922609 116.832253,30.0531274 L99.6858656,27.4271038 L99.5242067,28.3587047 C99.4176281,28.9823523 99.3122888,29.606826 99.2065364,30.2312997 C97.3922221,40.9431711 95.5167698,52.0184927 87.4680221,60.397674 C80.8039698,67.3362705 71.3887031,71.1392822 61.7916745,71.1392822 C58.3976841,71.1392822 54.983865,70.6634927 51.6576221,69.685481 C51.1338174,69.5301886 50.8330841,68.978405 50.9884079,68.4547061 C51.1420793,67.9293553 51.6890174,67.6270307 52.2194317,67.7823231 C64.2454602,71.3243114 77.5239936,67.886402 86.0387126,59.0248231 C93.6644507,51.0850863 95.4886793,40.3153933 97.2501174,29.9008904 C97.4074287,28.9755015 97.5647401,28.0501127 97.7253723,27.1267161 L70.5557379,22.9698933 C69.2295569,22.7671094 67.9058562,22.5539307 66.5895811,22.3314093 C66.5822621,22.4075577 66.566161,22.4839302 66.5404521,22.5593596 C62.8176379,33.4876491 59.0568188,43.6675614 55.418276,53.5121082 C46.1004998,78.7306023 37.2982664,102.549813 31.9544664,131.924857 C30.457948,140.157865 29.6180085,150.477908 29.1565677,158.483261 C45.0719008,157.879281 59.967016,160.389965 68.5251269,162.759649 C84.8093412,167.266433 98.7174317,176.945775 104.74697,184.031404 C105.102232,184.449371 105.05266,185.073845 104.634608,185.429035 C104.447889,185.587632 104.21986,185.665278 103.991832,185.665278 C103.710927,185.665278 103.433327,185.54633 103.236694,185.316696 C97.3955269,178.454094 83.875746,169.065512 67.996365,164.669415 C59.5318559,162.325823 44.7754214,159.839702 29.0476097,160.462102 C28.7900001,165.349601 28.6800481,169.11999 28.643095,170.595968 C28.629876,171.134535 28.1870379,171.562415 27.6516664,171.562415 L27.6268807,171.562415 C27.0782902,171.547547 26.6470188,171.093234 26.6599419,170.546406 C26.6970715,169.082254 26.8054913,165.375444 27.0574262,160.558432 C18.696874,161.028163 10.1258946,162.407839 2.13411262,165.178246 C1.63013643,165.358319 1.05345548,165.084079 0.874998337,164.566988 C0.693236433,164.048246 0.967531671,163.483246 1.48637929,163.304825 C9.72467775,160.448791 18.5606399,159.040893 27.1655259,158.573917 C27.6293669,150.479912 28.4794704,139.963171 30.0063093,131.569667 C35.3781998,102.024462 44.210176,78.1259532 53.5593474,52.8248567 C57.1830344,43.0142 60.9317328,32.8713435 64.6364039,21.9942865 C57.4733665,20.7251559 50.6069525,19.1922919 44.8496474,17.5677003 C44.3241902,17.4190161 44.0168474,16.8705365 44.1655617,16.3435336 C44.3126236,15.8181827 44.8595617,15.5142061 45.3883236,15.6595863 C52.642276,17.7064722 61.6874093,19.606326 70.8548188,21.0105658 L126.766947,29.567176 C126.997782,24.2198792 127.211085,18.7961554 127.346584,13.4331228 C127.359803,12.8945556 127.800989,12.4666754 128.33636,12.4666754 L128.362798,12.4666754 C128.909736,12.4815439 129.34266,12.9358567 129.327789,13.4826842 C129.190428,18.9338568 128.973111,24.4412505 128.738627,29.8671421 L136.958319,31.1243962 C139.934257,31.5820132 143.014295,32.0511944 146.021628,31.8661652 C146.817694,31.8168769 147.607734,31.7225894 148.393249,31.5903107 C148.898397,25.3497162 149.184521,19.09789 149.247737,12.8534196 C149.252694,12.3098962 149.695532,11.8721038 150.239165,11.8721038 L150.24908,11.8721038 Z M206.004214,163.250142 C206.503233,163.47482 206.724652,164.062949 206.499928,164.561867 C206.273552,165.060785 205.683652,165.280507 205.187937,165.055829 C196.393966,161.079352 172.855799,162.093709 154.147542,165.151648 C135.936652,168.126984 121.166018,174.351896 113.622899,182.232159 C113.426266,182.435361 113.166842,182.537788 112.905766,182.537788 C112.659561,182.537788 112.411704,182.446925 112.220028,182.261896 C111.825109,181.883577 111.81189,181.2558 112.188633,180.860961 C120.025875,172.678373 135.201342,166.238694 153.828633,163.195624 C172.244418,160.183943 196.427014,158.918475 206.004214,163.250142 Z M121.734603,132.506212 C122.236926,132.725934 122.466607,133.309107 122.246841,133.811329 C118.15885,143.193303 115.153169,153.051066 113.319026,163.112031 C113.23145,163.591124 112.81505,163.92649 112.345774,163.92649 C112.286288,163.92649 112.226803,163.921534 112.167317,163.909969 C111.626988,163.812499 111.271726,163.295408 111.369217,162.756841 C113.229798,152.547192 116.280093,142.540744 120.430874,133.019999 C120.647336,132.516124 121.235584,132.28649 121.734603,132.506212 Z M60.7751298,132.646471 C65.3670964,136.322275 79.4123345,137.285418 85.8384441,135.192275 C86.3572917,135.01881 86.9174488,135.306266 87.0876441,135.826661 C87.2561869,136.347056 86.9719774,136.907099 86.4514774,137.07726 C83.9679488,137.886763 80.5574345,138.288211 76.9502869,138.288211 C70.2779726,138.288211 62.9347917,136.912056 59.5358441,134.196091 C59.1078774,133.854117 59.0384774,133.229643 59.3805202,132.801763 C59.7258679,132.375535 60.3504679,132.306149 60.7751298,132.646471 Z M183.949885,130.810882 C184.443947,131.047124 184.653799,131.640209 184.415856,132.134171 C183.14848,134.78901 178.027752,135.923966 173.558061,135.923966 C171.216637,135.923966 169.053671,135.613382 167.715242,135.04673 C167.209614,134.831963 166.974975,134.250443 167.188133,133.746569 C167.399637,133.242694 167.98458,133.008104 168.486904,133.219566 C172.082485,134.739449 181.423395,133.797782 182.62798,131.278411 C182.864271,130.784449 183.454171,130.577943 183.949885,130.810882 Z M54.9941098,117.522643 C61.9820288,123.017351 83.0118812,126.557687 97.4256002,124.677658 C97.9642764,124.601664 98.4666002,124.988243 98.5376526,125.531766 C98.608705,126.075289 98.227005,126.572556 97.6850241,126.641942 C94.882586,127.008696 91.8686431,127.180509 88.7687764,127.180509 C75.1333288,127.180509 59.8421955,123.856591 53.7663907,119.080523 C53.3384241,118.741854 53.2624145,118.119032 53.6011526,117.687848 C53.9382383,117.258316 54.561186,117.183974 54.9941098,117.522643 Z M185.696617,118.984705 C186.056836,119.396064 186.015526,120.02219 185.604084,120.382336 C182.733898,122.895099 175.124684,125.013023 169.562769,125.013023 C167.517122,125.013023 165.745769,124.725567 164.592407,124.066401 C164.118174,123.795465 163.951284,123.189164 164.225579,122.713374 C164.494917,122.239237 165.099688,122.070728 165.577226,122.344968 C169.179417,124.401766 180.929498,121.839442 184.29705,118.89219 C184.708493,118.530392 185.336398,118.571693 185.696617,118.984705 Z M118.802866,30.3531038 L118.843597,29.2859985 C118.681664,33.9183377 118.466854,38.4862471 118.253697,43.0326798 C117.842254,51.7802675 117.41594,60.8268757 117.40933,69.9296535 C117.404373,78.6078553 117.93644,86.0949313 119.035273,92.8171096 C120.076273,99.1659254 121.675778,106.496057 125.646449,112.732534 C126.305723,113.766447 127.02225,114.752932 127.7765,115.662698 C129.140247,112.448344 130.439944,109.204448 131.676648,105.934431 C131.370276,105.390876 131.078477,104.830107 130.805017,104.261003 C128.592479,99.6749211 127.088813,93.1609006 126.206441,84.347231 C125.31746,75.4608713 125.406689,67.9952719 125.614889,59.1584737 C125.796651,51.3624649 126.15026,43.4425526 126.492303,35.7836637 C126.554826,34.3844372 126.617772,32.9760402 126.68001,31.5610436 L118.802866,30.3531038 Z M128.651559,31.8626444 C128.592471,33.2056205 128.5328,34.5425178 128.473508,35.8712222 C128.131465,43.5201988 127.779508,51.4301988 127.596094,59.204731 C127.389546,67.9737953 127.300317,75.376617 128.179384,84.1506374 C129.03697,92.7280643 130.481151,99.0256667 132.591241,103.400287 L132.608142,103.43405 C140.835033,81.0120842 146.115305,57.4089399 148.221347,33.6225759 C147.534636,33.726326 146.842767,33.8006228 146.143905,33.8436652 C145.634971,33.8750541 145.129343,33.8899225 144.623714,33.8899225 C141.918766,33.8899225 139.251824,33.481867 136.659238,33.0853757 L128.651559,31.8626444 Z" id="sd_linesbottom" fill-opacity=".5" fill="#000" style="mix-blend-mode:overlay"/><path d="M145.775919,22.0665541 C145.775919,24.993981 143.878986,27.3679722 141.539215,27.3679722 C139.199443,27.3679722 137.30251,24.993981 137.30251,22.0665541 C137.30251,19.1374751 139.199443,16.7634839 141.539215,16.7634839 C143.878986,16.7634839 145.775919,19.1374751 145.775919,22.0665541" id="sd_button" fill-opacity=".5" fill="#000" style="mix-blend-mode:overlay"/></g><g id="Top" transform="translate(149.239908, 9.238395)"><path d="M186.3737,13.7879825 C173.52892,10.2858163 163.840964,8.01882514 157.426787,5.76429176 C157.108455,5.65240038 156.942235,5.84635292 156.942235,5.84635292 C159.38311,8.8566235 161.982142,12.7837102 163.073476,16.3007456 C164.545748,21.045424 164.786995,26.095731 164.482957,31.0535234 C163.370905,49.0393567 155.31059,65.7432018 147.942624,82.1893275 C146.908233,84.4955848 145.87219,86.8613158 145.647467,89.3790351 C129.503705,72.8635234 116.545733,54.8677778 103.108571,36.0856579 C100.284652,32.1405702 97.4607333,28.1921784 94.813619,24.1281433 C92.4341905,20.480424 90.4183294,16.7227399 88.8154762,12.5671199 C87.2126229,8.41149988 85.3467808,2.8389732 84.6902507,0.689128053 C78.243698,2.41821425 69.3887336,6.25974752 62.3311143,9.38032164 C52.5473667,13.7070322 43.0924429,20.0310673 38.1617381,24.4833333 C33.2326857,28.9355994 27.3667333,35.4050146 23.8504667,40.3809795 C11.6063238,57.7109503 4.13425714,74.2446345 0,90.7783187 C14.8069857,93.6892251 42.0481381,103.984781 55.255619,113.246155 C55.4439905,112.406915 55.7215905,108.978918 56.0008429,108.375921 C59.046181,114.111827 61.9361952,125.418436 63.9768857,134.504693 C66.5149429,145.798085 67.5080238,152.971272 67.3725286,165.054342 C67.2915619,172.240746 63.7125048,200.908713 61.1331381,208.648553 C72.7427667,209.41345 91.4989429,212.09307 104.385862,214.387763 C123.186652,217.739766 142.294786,220.564766 158.483162,218.59883 C172.587886,216.885658 184.271871,210.896988 194.207638,206.606623 C190.532743,188.29038 194.83389,141.562237 192.191733,123.069225 C191.86291,120.77288 193.839157,121.820278 197.327333,115.223655 C200.037238,110.090746 200.119857,105.830117 200.232219,100.695556 C200.32971,96.2399854 199.835648,94.4342982 199.746419,91.9777047 C204.655643,86.9885234 224.482562,69.7229825 234.616614,65.8720614 C220.427619,34.8647953 200.361105,15.6118421 186.3737,13.7879825 Z" id="color_top" fill="#FD868F"/><path d="M45.6126543,18.743462 C73.792359,36.5855673 59.6512829,78.5178187 55.2807352,113.288447 C42.0963876,104.015509 14.8304495,93.6935205 0.00033047619,90.7776579 C4.13293524,74.2439737 11.6066543,57.7102895 23.8507971,40.3819708 C27.3670638,35.4043538 33.2330162,28.9349386 38.1620686,24.4826725 C40.0556971,22.7728041 42.6201924,20.7870439 45.6126543,18.743462 Z M187.335055,40.7057719 C199.58746,41.3302456 221.058498,74.0523363 220.76107,74.2720585 C211.939008,80.753038 202.85587,88.8199825 199.749393,91.9786959 C199.785746,93.040962 189.255122,61.931269 187.335055,40.7057719 Z" id="sd_top" fill-opacity=".25" fill="#000" style="mix-blend-mode:overlay"/><path d="M76.2302819,121.674237 C90.2160343,127.834719 106.13342,129.379383 121.049463,126.025728 C121.578225,125.906781 122.111944,126.238842 122.23422,126.775757 C122.354844,127.309368 122.01941,127.839675 121.485691,127.960275 C116.186506,129.151401 110.763391,129.741181 105.343582,129.741181 C95.0872533,129.741181 84.8358819,127.629865 75.4288771,123.489836 C74.9298581,123.268462 74.7018295,122.683637 74.9232486,122.183067 C75.1446676,121.682497 75.7296105,121.456167 76.2302819,121.674237 Z M159.38437,123.741773 C159.908175,123.903674 160.200647,124.458762 160.038713,124.982461 C159.873475,125.504507 159.323232,125.793615 158.797775,125.635019 C152.371666,123.644303 145.319304,125.099756 139.093132,126.3867 C139.025385,126.401569 138.95929,126.408177 138.891542,126.408177 C138.43218,126.408177 138.019085,126.086028 137.921594,125.616846 C137.812537,125.081583 138.156232,124.556232 138.693256,124.447197 C145.152413,123.110692 152.474113,121.600721 159.38437,123.741773 Z M147.25953,91.8813904 C151.800272,96.9829108 157.129201,102.87411 162.905925,108.251522 C168.486015,113.443905 175.321915,118.78332 183.72262,119.009651 C184.269558,119.024519 184.699177,119.480484 184.686255,120.027311 C184.671087,120.565879 184.229901,120.992107 183.69453,120.992107 L183.666439,120.992107 L183.666439,120.992107 C174.608087,120.747604 167.405358,115.147165 161.554277,109.702019 C155.714763,104.266785 150.349482,98.3342851 145.778996,93.1997237 C145.41382,92.7900161 145.450172,92.1638904 145.861615,91.8004401 C146.269753,91.4369898 146.896006,91.4716827 147.25953,91.8813904 Z" id="sd_linestop" fill-opacity=".5" fill="#000" style="mix-blend-mode:overlay"/></g></g></g><g id="Head" transform="translate(205.728571, 9.906433)"><path d="M68.9999233,27.5491914 C68.9999233,30.4928955 66.5333333,31.9091837 66.5333333,34.5053179 C66.5333333,37.1014522 67.7666283,37.7138372 67.7666283,41.6576914 C67.7666283,45.6015456 67.9771043,51.3234444 73.0687324,53.3923128 C78.1603605,55.4611812 80.5701929,54.322934 83.3099287,58.9771355 C86.0496645,63.631337 94.1541742,58.9771355 96.6195817,58.9771355 C99.0849892,58.9771355 104.748923,61.4610201 106.966016,58.9771355 C109.183109,56.493251 109.607186,53.3923128 115.001944,53.3923128 C120.396701,53.3923128 124.352755,49.2212001 124.352755,44.2974304 C124.352755,39.3736608 122.874024,33.4460573 126.820993,30.4976243 C130.767962,27.5491914 124.269945,19.2737179 121.507762,19.2737179 C118.745579,19.2737179 116.954168,16.6988634 116.954168,13.1049435 C116.954168,9.51102361 113.477766,4.15679227 108.556411,4.15679227 C103.635055,4.15679227 97.9742742,4.76326626 97.2969279,2.49460431 C96.6195817,0.225942371 85.9810824,0.0817126908 85.9810824,4.15679227 C85.9810824,8.23187185 84.112812,7.89494186 80.7818514,7.89494186 C77.4508908,7.89494186 76.1833048,10.4863473 76.1833048,13.1049435 C76.1833048,15.7235398 68.9999233,15.4590967 68.9999233,21.504144 C68.9999233,27.5491914 68.9999233,24.6054872 68.9999233,27.5491914 Z" id="Path-10-Copy-2" fill="#3F1B13"/><g id="Face" transform="translate(28.702381, 33.127193)"><path d="M49.8548329,0.937701754 C74.5926281,-2.26066082 90.84049,27.3126287 89.1567138,53.4645292 C89.0311329,55.4139444 89.8788043,59.2367807 90.1778852,61.0160351 C92.8233471,76.655962 78.8607281,116.800699 63.0391805,118.056254 C62.4192653,118.105408 61.7945686,118.134139 61.1658885,118.143268 C54.2550954,140.2825 71.9524538,147.451784 71.9524538,147.451784 C62.380211,159.599284 42.9184681,160.702851 42.9184681,160.702851 C12.3576824,161.806418 0.0342252381,142.857442 0.0342252381,142.857442 C26.5173969,133.953999 15.7834997,92.674861 12.2061438,81.1451348 C11.842362,80.1053975 11.5894365,79.2934451 11.4393798,78.7879916 L11.4165155,78.7123637 C11.3321862,78.4657065 11.2725966,78.2965502 11.2422401,78.2111856 C3.68887056,80.0752218 2.41828048,72.4761858 2.41828048,68.6914444 C2.41828048,64.9016491 -1.40202429,61.3547047 1.46981381,56.3770877 C5.60241857,49.2118068 13.4054926,53.3264887 13.7747248,53.5264879 L13.7883138,53.5339152 C17.5772233,27.0103041 23.31429,4.36900292 49.8548329,0.937701754 Z" id="sk_face" fill="#AD603F"/><path d="M17.1343852,91.9886082 C24.1182314,104.207469 44.1025134,118.386524 61.1578797,118.143383 C53.7097114,140.353833 35.6373496,152.194975 14.902349,149.392939 C4.44277762,147.980439 0.0342252381,142.857442 0.0342252381,142.857442 C26.5186306,133.953585 15.7824996,92.6710152 12.2056439,81.1435237 C13.1135647,83.7375725 14.7122779,87.7515049 17.1343852,91.9886082 Z" id="sd_face" fill-opacity=".25" fill="#000" style="mix-blend-mode:overlay"/></g><path d="M55.6021297,30.0624765 C82.1830922,25.0188676 100.041742,31.9781988 109.17808,50.9404702 L65.0814137,50.9404702 C63.8438564,69.9840217 56.3136167,81.890901 42.4906948,86.6611082 C41.8107545,86.3303503 40.6218484,85.9627347 38.9239764,85.5582613 C37.2261044,85.1537879 35.477628,85.3203008 33.6785472,86.0577999 C21.7133064,53.7711932 29.0211672,35.1060854 55.6021297,30.0624765 Z" id="Path-3" fill="#50271C"/><path d="M31.8810804,79.044719 C39.7768446,77.852109 45.6180116,75.4847895 49.4045814,71.9427605 C54.7404352,66.9515019 57.2923119,58.5332344 57.2923119,49.7278567" id="Path-7" stroke="#AD603F"/><path d="M30.3646878,71.9427605 C43.7993863,68.9691627 50.5167356,61.5641948 50.5167356,49.7278567" id="Path-8" stroke="#AD603F"/><path d="M29.4856199,65.2670288 C34.1882254,64.870137 37.5858775,63.6882455 39.6785763,61.7213542 C43.0406522,58.5613976 45.003612,54.7768859 45.003612,49.7278567" id="Path-9" stroke="#AD603F"/><g id="Group" transform="translate(0.438095, 0.912281)"><path d="M2.46658993,26.6369107 C2.46658993,29.5806148 2.52428766e-13,30.996903 2.52428766e-13,33.5930372 C2.52428766e-13,36.1891715 1.23329496,36.8015565 1.23329496,40.7454107 C1.23329496,44.6892649 1.443771,50.4111637 6.5353991,52.4800321 C11.6270272,54.5489005 14.0368595,53.4106533 16.7765953,58.0648548 C19.5163311,62.7190563 27.6208409,58.0648548 30.0862484,58.0648548 C32.5516558,58.0648548 38.2155896,60.5487394 40.4326826,58.0648548 C42.6497757,55.5809702 43.0738526,52.4800321 48.4686103,52.4800321 C53.863368,52.4800321 57.8194219,48.3089194 57.8194219,43.3851497 C57.8194219,38.46138 56.3406911,32.5337766 60.2876599,29.5853436 C64.2346287,26.6369107 57.7366121,18.3614372 54.9744289,18.3614372 C52.2122458,18.3614372 50.4208346,15.7865827 50.4208346,12.1926628 C50.4208346,8.59874291 46.9444327,3.24451157 42.0230774,3.24451157 C37.101722,3.24451157 31.4409409,3.85098555 30.7635946,1.58232361 C30.0862484,-0.68633833 19.447749,-0.830568011 19.447749,3.24451157 C19.447749,7.31959115 17.5794786,6.98266116 14.248518,6.98266116 C10.9175574,6.98266116 9.64997142,9.57406657 9.64997142,12.1926628 C9.64997142,14.8112591 2.46658993,14.546816 2.46658993,20.5918633 C2.46658993,26.6369107 2.46658993,23.6932065 2.46658993,26.6369107 Z" id="Path-10" fill="#50271C"/><path d="M2.60442724,23.7954794 C3.74896463,29.5175692 5.83523837,32.378614 8.86324846,32.378614 C13.4052636,32.378614 8.23563804,40.7454107 13.6624064,40.7454107 C19.0891747,40.7454107 20.7415104,39.3697503 24.1653453,41.8439914 C27.5891802,44.3182326 27.6692034,47.8648112 31.4429852,45.8593909 C35.216767,43.8539706 40.9161778,40.3785177 40.0026165,47.8648112 C39.5333625,51.7101719 41.1009097,53.5060178 44.705258,53.2523489 C42.6434784,54.3288402 41.9679901,56.3447978 40.4326826,58.0648548 C38.2155896,60.5487394 32.5516558,58.0648548 30.0862484,58.0648548 C27.6208409,58.0648548 19.5163311,62.7190563 16.7765953,58.0648548 C14.0368595,53.4106533 11.6270272,54.5489005 6.5353991,52.4800321 C1.443771,50.4111637 1.23329496,44.6892649 1.23329496,40.7454107 C1.23329496,36.8015565 3.28744439e-13,36.1891715 3.28744439e-13,33.5930372 C3.28744439e-13,30.996903 2.46658993,29.5806148 2.46658993,26.6369107 L2.46658993,26.6369107 L2.46506162,23.9770648 C2.51136535,23.9165911 2.55782055,23.8560626 2.60442724,23.7954794 Z" id="Combined-Shape" fill="#3F1B13"/></g></g><g id="Expression" transform="translate(239.214286, 80.508772)"><g id="Laugh" transform="translate(0.000000, 0.521930)"><path d="M51.5506505,51.0313947 C50.7013267,50.9174035 49.4256886,50.9074912 48.5763648,50.7935 C48.3218981,50.758807 48.9993743,51.6360439 48.88536,51.8673304 C48.802741,52.0325351 48.8804029,52.2324327 48.9630219,52.3976374 C49.8139981,54.1042018 51.3391457,55.419231 53.0559695,56.2535146 C54.771141,57.0861462 56.6779886,57.4694211 58.5782267,57.6395819 C59.7084552,57.7403567 60.8485981,57.7684415 61.9738695,57.6164532 C65.7875648,57.1043187 67.644841,56.4154152 69.6095219,53.1047135 C70.516679,51.5749181 60.9510457,47.8776374 57.6793314,49.1282368 C56.3574267,49.6321111 52.9551743,51.2197281 51.5506505,51.0313947" id="Fill-25" fill="#AA614D"/><path d="M62.1620757,47.3747544 C61.2069995,47.6754269 60.3874186,48.6055292 60.5179567,49.5967573 C60.6385805,50.5086871 61.4532043,51.139769 62.1620757,51.7262456 C63.4542376,52.7951199 64.5927281,54.0523275 65.5279757,55.4450029 C65.7725281,55.8051491 66.0319519,56.1999883 66.4450471,56.3354561 C67.1291329,56.5601345 67.7917376,55.9670497 68.2477948,55.4103099 C69.6754519,53.6624444 70.84699,51.7229415 72.0152233,49.7916988 C72.1275852,49.6033655 72.2366424,49.3456462 72.0862757,49.1853977 C72.0003519,49.0961871 71.866509,49.0796667 71.7425805,49.0681023 C70.0521948,48.9111579 68.3766805,48.6005731 66.7408233,48.139652 C65.2454186,47.7183801 63.7566233,46.8741842 62.1620757,47.3747544" id="Fill-27" fill="#300D07"/><path d="M66.3963019,54.718598 C66.7317352,54.7747675 67.0754305,54.8441535 67.3629448,55.0275307 C67.6488067,55.2092558 67.8702257,55.533057 67.8371781,55.8717266 C67.8024781,56.2467412 67.4802638,56.5259371 67.1663114,56.734095 C65.9765971,57.5254254 64.5572019,57.9120044 63.139459,58.0887734 C61.2805305,58.3200599 59.3802924,58.2060687 57.5626733,57.756712 C57.1082686,57.6443728 56.6422971,57.5039488 56.2936448,57.191712 C55.3121305,56.3144751 56.1482352,55.8436418 56.9793829,55.5495775 C57.9724638,55.1976915 58.9952876,54.9300599 60.0329829,54.7483348 C62.133159,54.3815804 64.2961257,54.366712 66.3963019,54.718598 Z M61.6072062,47.1641184 C64.8623967,46.7626711 65.4820395,47.0104781 68.6281729,47.9372763 C68.7570586,47.9752734 68.5554681,48.8194693 69.8790252,48.7120863 C70.0938348,48.6939137 71.0588252,48.9780658 71.0076014,49.1878757 C70.8291443,49.937905 67.9077348,51.2496301 65.5944014,51.7452442 C62.261549,52.4589284 58.3321871,52.8587237 53.7534395,52.2805073 C51.8102395,52.0360044 50.3016157,51.5668231 50.3611014,50.7936652 C50.4007586,50.293095 53.3370395,49.2473494 54.1731443,48.6939137 C56.0998205,47.4201857 59.3153538,47.4466184 61.6072062,47.1641184 Z" id="Combined-Shape" fill="#F4F0E9"/><path d="M72.5101114,48.7525614 C72.7645781,48.704652 72.8372829,48.7112602 72.8934638,48.7789942 C72.9479924,48.845076 72.9265114,48.9293304 72.6026448,49.1688772 L72.4874684,49.2478853 C72.5050463,49.2762184 72.4893697,49.342316 72.432119,49.4540205 C70.5170095,53.4585819 70.2344524,54.2433041 67.9822571,57.4036696 C67.3014762,58.3602047 65.9647,59.3811696 64.9187429,59.9147807 C61.9560238,61.4197953 56.5444762,61.4710088 53.4693952,59.4125585 C51.8004905,58.2974269 50.2968238,56.747807 49.3549667,54.9834211 C48.9775209,54.2809334 47.2175231,50.4071249 48.0875888,50.6260388 C48.017432,50.5703229 47.9797954,50.5104208 48.0086067,50.4376491 C48.0647876,50.2972251 48.3638686,50.3946959 48.5968543,50.3880877 C52.12634,50.2939211 56.0143924,45.9820789 59.5835352,46.4116111 C60.4345114,46.514038 61.2722686,46.8031462 62.1248971,46.7188918 C62.9378686,46.6362895 63.6731781,46.1984971 64.466321,46.0052076 C67.1795305,45.3526491 69.4779924,49.3225175 72.5101114,48.7525614 Z M61.300359,49.5769327 C57.2193691,50.2744248 52.36582,53.2193497 48.518758,50.8949079 L48.6097429,50.9705994 C49.2244286,51.5190789 50.5265048,52.7184649 51.2568571,53.2058187 C52.0582619,53.7377778 53.1851857,54.3176462 54.0708619,54.6943129 C55.9116143,55.4790351 58.7933667,55.8474415 62.056819,55.4459942 C65.0542381,55.0759357 68.484581,53.286769 70.5434476,50.9259942 C70.9755099,50.4313537 71.5495892,49.8733255 71.9629872,49.5372351 C70.5349227,50.1659348 68.7081033,49.8170646 66.8837543,49.5571082 C64.5753781,49.2266988 63.6004733,49.1853977 61.300359,49.5769327 Z M61.7769057,4.00555263 C62.2742724,4.16745322 62.5452629,4.70436842 62.3816771,5.19998246 C62.3684581,5.23963158 61.0762962,9.19463158 60.6367629,11.9518977 C60.15592,14.9734912 60.065039,18.3387105 62.6344914,22.4754357 C63.5052962,23.8763713 64.6123914,25.0807135 65.6831343,26.2437544 C67.533801,28.2559474 69.28202,30.1541491 68.93502,32.4637105 C68.6293295,34.4858158 66.81832,36.365845 63.0591533,38.5564591 C62.9087867,38.6456696 62.745201,38.6869708 62.5832676,38.6869708 C62.2577486,38.6869708 61.938839,38.518462 61.7636867,38.2161374 C61.4993057,37.7634766 61.6529771,37.1836082 62.1040771,36.9209327 C65.2336867,35.0954211 66.8546724,33.5458012 67.06122,32.1812105 C67.2727248,30.7703626 65.8896819,29.267 64.2885248,27.5273947 C63.2111724,26.3560936 61.9900629,25.027848 61.0250724,23.474924 C58.1284486,18.8111959 58.225939,15.0379211 58.7646152,11.6528772 C59.2289343,8.74527485 60.5260533,4.77705848 60.5805819,4.61020175 C60.7441676,4.11128363 61.279539,3.842 61.7769057,4.00555263 Z M6.3444819,20.6386901 C6.69809143,21.023617 6.67165333,21.6233099 6.28664857,21.976848 C5.89999143,22.3287339 5.30182952,22.3039532 4.94656762,21.9173743 C4.6441819,21.588617 3.44620571,21.3903713 2.60183905,21.9900643 C2.35232952,22.1701374 2.02350571,22.6343626 1.92436286,23.356307 C1.81039891,24.1854089 2.03357343,25.11412 2.56059987,26.046516 C4.27091251,24.2631965 6.04370465,24.7766567 6.60968905,25.0114927 C7.46397,25.3650307 7.86219381,25.8837734 7.72835095,26.471902 C7.61268429,26.9840365 7.10044619,27.3028816 6.59481762,27.1855863 C6.37505095,27.1360249 6.18998429,27.0137734 6.05944619,26.8485687 C5.91899381,26.7593582 5.54390333,26.5908494 5.09445571,26.6668436 C4.60375166,26.7461867 4.11198888,27.0922734 3.6530656,27.676296 C4.26901066,28.8967487 3.93441283,30.1512368 3.65771048,31.1886608 C3.30244857,32.5185585 3.23304857,33.0736462 3.90061048,33.6155175 C4.30709619,33.9459269 4.36988667,34.5423158 4.03941048,34.9487193 C3.85269143,35.1800058 3.57839619,35.2989532 3.30410095,35.2989532 C3.09424857,35.2989532 2.88274381,35.2295673 2.70759143,35.0874912 C1.02216286,33.7195965 1.4864819,31.9750351 1.82687238,30.701307 C2.12430095,29.5861754 2.28127714,28.8724912 1.77730095,28.2463655 C0.057172381,26.108617 -0.113022857,24.2665848 0.0472580952,23.0969357 C0.200929524,21.980152 0.744562857,20.990576 1.50135333,20.4503567 C3.11407714,19.2972281 5.3910581,19.5962485 6.3444819,20.6386901 Z M41.6864319,16.2186389 C47.1078938,16.256636 50.0673081,19.6020307 50.1895843,19.7441067 C50.3416033,19.9192237 50.3449081,20.178595 50.1961938,20.3570161 C50.0491319,20.5370892 49.7913605,20.5800424 49.5930748,20.4627471 C44.336851,17.3998523 39.42267,19.7474108 36.1691319,21.3003348 C35.1793557,21.7744722 34.3977795,22.1478348 33.7764843,22.2849547 C33.4245271,22.3609488 33.1023129,22.3956418 32.8048843,22.3956418 C31.1491986,22.3956418 30.3064843,21.3366798 30.075151,20.6791652 C30.032189,20.5585658 30.040451,20.42475 30.0982843,20.3091067 C30.1561176,20.1934635 30.2602176,20.107557 30.3824938,20.0695599 C31.2648652,19.8002763 32.0844462,19.3244868 33.0362176,18.7743553 C34.9992462,17.6327909 37.4381605,16.2169868 41.5558938,16.2169868 C41.5988557,16.2169868 41.64347,16.2169868 41.6864319,16.2186389 Z M83.1056738,15.4312734 C83.9037738,15.842633 84.6572595,16.2325161 85.357869,16.4225015 C85.4950167,16.4604985 85.609031,16.5563173 85.6668643,16.6868289 C85.7246976,16.8173406 85.7213929,16.9660249 85.65695,17.0932325 C85.5991167,17.2088757 85.0141738,18.2347968 82.6578786,18.3041827 C82.6215262,18.3041827 82.5851738,18.3058348 82.5488214,18.3058348 C81.575569,18.3058348 80.6535405,17.925864 79.6769833,17.5244167 L79.3603865,17.3946287 C77.2340411,16.5288356 74.7693332,15.7022877 70.5046167,17.9176038 C70.3079833,18.0183787 70.0667357,17.9721213 69.9229786,17.8019605 C69.7825262,17.6334518 69.7759167,17.3872968 69.9097595,17.2105278 C69.9824643,17.1163611 71.7092024,14.8976623 75.650131,13.9675599 C78.8243548,13.2175307 81.1971738,14.4466535 83.1056738,15.4312734 Z M47.3116324,0.866994152 C47.89988,0.866994152 48.4633419,1.54763743 48.9821895,2.88909942 C49.4712943,4.1529152 50.0496276,6.51699415 49.1209895,7.36119006 C48.5575276,7.87167251 46.5267514,8.17895322 42.6849657,8.71917251 C39.2843657,9.19826608 35.429361,9.74013743 34.1206752,10.4587778 C31.2141371,12.0513509 23.3636752,17.8665556 23.284361,17.9243772 C23.2000895,17.987155 23.1009467,18.0185439 23.0018038,18.0185439 C22.9043133,18.0185439 22.8051705,17.987155 22.7225514,17.9260292 C22.555661,17.8037778 22.4879133,17.5873596 22.5540086,17.3907661 C22.6895038,16.9975789 25.9413895,7.71638012 33.4812038,4.29003509 C40.3884513,1.15014317 45.8422063,0.882852958 47.1756108,0.867765764 L47.3116324,0.866994152 Z M80.0568657,1.93752047 C82.127299,2.82466959 84.4885514,4.58740351 84.82068,5.49437719 C84.8719038,5.63480117 85.4750229,8.37059064 84.8636419,8.86785673 C84.7777181,8.93724269 84.64718,8.97193567 84.5182943,8.97193567 C84.4125419,8.97193567 84.3100943,8.94880702 84.2324324,8.90089766 C83.8639514,8.66961111 83.1170752,8.38876316 82.6230133,8.20373392 C82.4015943,8.11947953 82.2198324,8.05174561 82.1157324,8.0054883 C80.7426038,7.40414327 76.8198514,7.32649708 73.6671086,7.26702339 C69.9988229,7.19598538 68.0539705,7.1365117 67.4458943,6.67559064 C66.4478562,5.91730117 66.8163371,3.5135731 67.1914276,2.21176023 C67.5913038,0.827345029 68.0903229,0.0987923977 68.6785705,0.0475789474 C70.2846848,-0.094497076 75.4615943,-0.0317192982 80.0568657,1.93752047 Z" id="Combined-Shape" fill="#35211F"/></g></g><g id="Accesory" transform="translate(179.728571, 0.906433)"><g id="Pin" transform="translate(47.266667, 59.473684)" fill="#489997"><path d="M19.411683,-1.32550253 C19.411683,-1.32550253 17.4637816,-2.68414059 16.1075895,-1.32550253 C14.7513974,0.0331355263 4.50526489,11.880326 2.89121518,14.3721165 C0.280981264,18.4088832 7.122107,22.4274737 9.44818887,19.8679356 C11.0613373,18.0915068 17.7637214,8.75658821 20.2320197,2.80568625 C21.3178325,0.187864492 19.411683,-1.32550253 19.411683,-1.32550253 Z" id="color_pin" transform="translate(11.436511, 9.371320) rotate(-270.000000) translate(-11.436511, -9.371320)"/></g></g></g></g></g><g id="Front-Plants" transform="translate(230.941257, 367.000000)"><path d="M354.23412,33.2294611 C351.993631,30.4994484 350.5288,27.2051505 349.090784,23.9569027 C346.122908,17.2514636 343.155032,10.5453371 340.187155,3.83989797 C340.059108,3.55053861 339.927709,3.2439964 339.959218,2.92783178 C340.063131,1.87349151 341.566175,1.8583706 342.542953,2.20477705 C346.50839,3.61102228 350.174156,5.76369094 353.814447,7.90261331 C359.538352,11.2677045 365.396338,14.7455153 369.578986,19.9794144 C372.623958,23.7898853 378.095121,35.8446924 372.619936,40.0098175 C368.009571,43.5185575 357.233505,36.8832244 354.23412,33.2294611" id="Fill-144" fill="#CEECDA"/><path d="M377.226495,210.053018 C375.303087,215.000494 372.047342,219.324539 368.829664,223.578786 C362.18944,232.361049 355.549216,241.143311 348.908993,249.924896 C348.622454,250.303699 348.315843,250.698765 347.872885,250.885795 C346.397972,251.507872 345.243511,249.52102 344.965278,247.972604 C343.832966,241.686781 343.913944,235.259331 343.998383,228.877282 C344.132655,218.840701 344.315375,208.543228 348.088135,199.209363 C350.835862,192.412597 362.670466,176.4446 372.322115,180.719177 C380.451095,184.31882 379.801884,203.430406 377.226495,210.053018" id="Fill-147" fill="#CEECDA"/><path d="M383.037586,290.104519 C386.578221,294.086028 388.93497,298.924729 391.248304,303.697128 C396.023131,313.547051 400.797269,323.398327 405.571408,333.248927 C405.77814,333.673125 405.989007,334.123709 405.949728,334.593236 C405.817419,336.157425 403.493748,336.22102 401.973576,335.735256 C395.801239,333.761753 390.071308,330.675322 384.382035,327.607158 C375.436039,322.781988 366.279865,317.791063 359.667877,310.155495 C354.853081,304.594913 346.060067,286.89022 354.41343,280.568516 C361.44922,275.244727 378.298592,284.774641 383.037586,290.104519" id="Fill-150" fill="#CEECDA"/><path d="M365.754186,32.0028346 C359.264415,57.6896382 362.120493,72.587766 366.650373,88.7124534 C370.707341,103.152156 376.17408,117.149807 381.954485,131.002835" id="Stroke-153" stroke="#B5E2C7" stroke-width="2.83" stroke-linecap="round" stroke-linejoin="round"/><path d="M317.500755,131.927227 C313.517003,133.829693 309.111186,134.591093 304.767318,135.3332 C295.802515,136.864957 286.837031,138.397403 277.872228,139.928472 C277.485562,139.99531 277.076431,140.059391 276.709507,139.919514 C275.484837,139.453717 275.953874,137.58777 276.683638,136.488736 C279.646945,132.027139 283.402645,128.173285 287.1352,124.349059 C293.005311,118.334345 299.053779,112.190778 306.654358,108.684894 C312.18954,106.131276 328.350556,103.209016 331.548722,111.322576 C334.243132,118.155881 322.834435,129.381189 317.500755,131.927227" id="Fill-161" fill="#CEECDA"/><path d="M320.501071,61.9277165 C316.516673,63.8294981 312.110895,64.5908998 307.767065,65.333008 C298.80234,66.8654581 289.836936,68.3972191 280.872212,69.9289802 C280.485549,69.9951291 280.077102,70.0592108 279.7095,69.9200225 C278.484841,69.4535348 278.953874,67.5875839 279.683632,66.488547 C282.646912,62.0269399 286.40258,58.1737651 290.135102,54.3488413 C296.005161,48.3348016 302.054257,42.1912203 309.654769,38.6846383 C315.189222,36.1310142 331.350096,33.2094367 334.548914,41.3223266 C337.24262,48.1556483 325.834023,59.381672 320.501071,61.9277165" id="Fill-163" fill="#CEECDA"/><path d="M291.032194,28.2131033 C289.310228,26.6341728 288.054698,24.6191375 286.821444,22.6319097 C284.275959,18.5285896 281.730474,14.4259478 279.184989,10.3226277 C279.074961,10.1456085 278.961559,9.95773743 278.954809,9.74884114 C278.933883,9.05365055 279.930882,8.91189949 280.609273,9.05093761 C283.363338,9.61658537 285.983074,10.6936221 288.583236,11.765233 C292.673832,13.449968 296.862306,15.1977789 300.088207,18.2342358 C302.437263,20.4459592 307.103648,27.8095536 303.823745,31.0040392 C301.06158,33.6945963 293.336698,30.3271609 291.032194,28.2131033" id="Fill-165" fill="#CEECDA"/><path d="M308.967087,21.8855768 C308.86305,19.5381372 309.421196,17.2158731 309.975826,14.9276298 C311.120236,10.205534 312.265348,5.48411853 313.411164,0.761342265 C313.461073,0.557897502 313.515904,0.343566062 313.664227,0.191833012 C314.15981,-0.315758271 314.995622,0.296617271 315.392089,0.87973487 C316.999042,3.24690655 318.131501,5.88148221 319.254822,8.49836703 C321.01994,12.6128502 322.812473,16.8430044 322.950955,21.2970158 C323.050072,24.5398845 321.067038,33.085245 316.31085,33.0022341 C312.30612,32.9314707 309.106272,25.0284241 308.967087,21.8855768" id="Fill-167" fill="#CEECDA"/><path d="M313.414422,246.1834 C309.26327,249.089697 304.354431,250.789465 299.512762,252.454489 C289.521112,255.891495 279.528791,259.328501 269.536469,262.766189 C269.104561,262.914706 268.6478,263.064585 268.191039,262.976701 C266.666262,262.683755 266.766347,260.488022 267.349389,259.108451 C269.715143,253.506369 273.142195,248.440447 276.548424,243.411994 C281.905292,235.503133 287.438819,227.414416 295.387806,222.00854 C301.176582,218.0708 319.150805,211.693433 324.764937,220.244051 C329.493086,227.445754 318.971459,242.292668 313.414422,246.1834" id="Fill-169" fill="#CEECDA"/><path d="M108.056224,362.503036 C112.037729,365.97931 116.876424,368.293218 121.648817,370.564502 C131.498728,375.252533 141.349992,379.939212 151.20058,384.627244 C151.624778,384.830218 152.075361,385.037252 152.544888,384.99801 C154.109074,384.868783 154.17267,382.587351 153.686906,381.094813 C151.713406,375.034674 148.626979,369.408901 145.558818,363.823046 C140.733654,355.039668 135.742735,346.049932 128.107176,339.558135 C122.546601,334.830862 104.841929,326.197008 98.520233,334.399203 C93.1964505,341.307098 102.725676,357.850186 108.056224,362.503036" id="Fill-171" fill="#CEECDA"/><path d="M44.074601,334.118741 C40.1998056,331.245407 35.641658,329.507741 31.1467339,327.80424 C21.8696894,324.287224 12.5926449,320.770892 3.31492782,317.254559 C2.91540891,317.102864 2.49167672,316.948435 2.06996231,317.021549 C0.665592784,317.266176 0.788676895,319.367365 1.34558205,320.699144 C3.6081774,326.107572 6.843339,331.028797 10.0589955,335.913806 C15.1148603,343.594936 20.3375276,351.453043 27.754186,356.804756 C33.1557625,360.701011 49.8461024,367.21299 54.9147465,359.171071 C59.1836801,352.398749 49.2609485,337.965798 44.074601,334.118741" id="Fill-177" fill="#CEECDA"/><path d="M176.947447,293.734721 C172.239796,292.713002 167.356832,292.977147 162.544536,293.247326 L132.748666,294.919352 C132.319895,294.943487 131.8687,294.974327 131.510598,295.207633 C130.316018,295.985989 131.264615,297.813553 132.306984,298.781638 C136.538978,302.710966 141.471547,305.816349 146.372179,308.898267 C154.078511,313.744729 162.007722,318.682368 170.958918,320.505908 C177.475427,321.833339 195.41791,320.995985 196.882256,311.792468 C198.114888,304.040408 183.247871,295.103718 176.947447,293.734721" id="Fill-179" fill="#CEECDA"/><path d="M223.47102,251.242346 C220.557234,246.967706 216.556917,243.5897 212.608404,240.268754 C204.457742,233.41357 196.308426,226.558386 188.158436,219.703203 C187.806575,219.40772 187.432513,219.10137 186.981081,219.023933 C185.475412,218.76649 184.865878,220.920453 184.964776,222.458997 C185.363059,228.70216 186.915149,234.804713 188.459839,240.863114 C190.889228,250.391222 193.424914,260.155715 199.053345,268.187393 C203.15256,274.036579 217.750419,286.55483 225.681756,280.292648 C232.361733,275.017444 227.371093,256.965188 223.47102,251.242346" id="Fill-181" fill="#CEECDA"/><path d="M236.8945,186.736339 C236.421155,181.699032 234.555187,176.847668 232.706601,172.071085 L221.264088,142.490633 C221.099621,142.064851 220.919777,141.618857 220.561425,141.323773 C219.36536,140.339487 217.779521,141.812211 217.115635,143.138066 C214.421981,148.51829 212.80873,154.372803 211.210857,160.186894 C208.697716,169.331119 206.162513,178.725289 207.188093,188.269022 C207.936219,195.218983 214.650631,213.078955 224.670434,211.951843 C233.108409,211.00259 237.52897,193.478798 236.8945,186.736339" id="Fill-183" fill="#CEECDA"/><path d="M273.681343,302.409392 C271.599229,299.646033 268.813835,297.512558 266.063606,295.415657 C260.389356,291.086396 254.714429,286.757812 249.039503,282.429228 C248.794031,282.242295 248.533683,282.048589 248.228027,282.01066 C247.209623,281.883329 246.863393,283.337479 246.974295,284.359515 C247.423312,288.508616 248.643908,292.529709 249.858418,296.522355 C251.767417,302.80019 253.754182,309.233126 257.770315,314.420518 C260.69366,318.197785 270.865519,326.111284 276.011633,321.703457 C280.345594,317.991888 276.467412,306.108093 273.681343,302.409392" id="Fill-188" fill="#CEECDA"/><path d="M309.772719,218.32433 C307.484722,216.514318 305.727394,214.08443 304.000001,211.685808 C300.433638,206.736313 296.867956,201.786138 293.302273,196.836644 C293.148515,196.622542 292.989315,196.395526 292.96006,196.128408 C292.86209,195.236656 294.076504,194.926038 294.928295,195.018476 C298.383762,195.392305 301.726972,196.442424 305.04637,197.486426 C310.266649,199.129234 315.614832,200.839332 319.909163,204.331574 C323.036024,206.87429 329.55644,215.74627 325.842443,220.274357 C322.714221,224.088092 312.834947,220.747421 309.772719,218.32433" id="Fill-193" fill="#CEECDA"/><path d="M231.11875,225.912386 C232.834215,223.537701 235.204599,221.660802 237.543305,219.815864 L252.027305,208.39194 C252.23597,208.228052 252.45772,208.057363 252.726988,208.01452 C253.624319,207.871713 254.00033,209.068576 253.950057,209.923381 C253.746212,213.392245 252.854391,216.782224 251.965325,220.148402 C250.568713,225.442482 249.109432,230.867128 245.79351,235.329524 C243.379051,238.578736 234.732175,245.532784 229.961105,242.05168 C225.943434,239.120725 228.822742,229.091555 231.11875,225.912386" id="Fill-195" fill="#CEECDA"/><path d="M350.872798,153.002835 C354.635427,172.096862 343.309913,182.878181 336.660321,192.021685 C325.791111,206.965812 317.430549,223.569492 322.446476,237.682144 C327.473348,251.823327 351.70947,274.210647 375.954485,285.002835" id="Stroke-197" stroke="#B5E2C7" stroke-width="2.83" stroke-linecap="round" stroke-linejoin="round"/><path d="M361.383236,366.92468 C357.070416,363.087075 353.904768,358.168617 350.795113,353.315296 C344.377097,343.299935 337.957715,333.283216 331.539698,323.267176 C331.263148,322.835649 330.977038,322.376304 330.95587,321.864035 C330.887586,320.156247 333.358785,319.783749 335.047449,320.110109 C341.899752,321.433187 348.430437,324.017599 354.914006,326.587084 C365.110861,330.628918 375.554222,334.821379 383.637003,342.204155 C389.522404,347.579922 401.285012,365.554785 393.21657,373.477648 C386.420943,380.150032 367.157334,372.062294 361.383236,366.92468" id="Fill-209" fill="#CEECDA"/><path d="M373.643366,149.521655 C368.357201,153.322665 362.153215,155.602319 356.034402,157.837767 C343.405662,162.450122 330.776921,167.063156 318.148181,171.675511 C317.603075,171.874777 317.025944,172.076763 316.454946,171.97611 C314.54912,171.637426 314.733774,168.834785 315.502373,167.062476 C318.620379,159.865788 323.054815,153.328105 327.462678,146.838029 C334.39438,136.631953 341.552302,126.191246 351.670829,119.114254 C359.037935,113.96191 381.759311,105.415928 388.57586,116.187837 C394.316506,125.260887 380.720203,144.433239 373.643366,149.521655" id="Fill-156" fill="#CEECDA"/><path d="M223.59839,172.002835 C224.662084,176.280752 225.268637,186.135821 224.721026,197.453461 C223.886931,214.691869 221.899357,231.857758 220.488866,249.059568 C219.983063,255.2311 219.482057,261.504295 220.771238,267.561967 C222.327028,274.873465 226.424856,281.459777 231.412979,287.071493 C246.306756,303.827348 268.955496,312.670546 282.822588,330.266124 C296.925448,348.15991 299.727927,372.335023 298.791026,395.002835" id="Stroke-218" stroke="#B5E2C7" stroke-width="2.83" stroke-linecap="round" stroke-linejoin="round"/><path d="M359.60531,78.5181593 C355.41898,80.8134611 350.68747,81.9403552 346.02368,83.0438142 C336.395121,85.3190288 326.767931,87.5955825 317.140741,89.8707971 C316.724844,89.9698942 316.286374,90.0669825 315.875949,89.9477982 C314.510604,89.5494013 314.879986,87.5533993 315.590704,86.3441476 C318.475988,81.4348264 322.268995,77.106696 326.038743,72.8100356 C331.966641,66.053358 338.07923,59.1473653 346.076351,54.8975752 C351.898906,51.8034708 369.242076,47.5315847 373.326484,55.820249 C376.766525,62.8005645 365.21034,75.4454813 359.60531,78.5181593" id="Fill-203" fill="#CEECDA"/><path d="M257.954485,382.002835 C254.631096,355.762873 240.363155,330.437848 217.801352,316.595013 C195.239549,302.75082 164.434168,301.987241 142.784241,317.214021 C129.496804,326.558189 120.339311,340.878177 107.021976,350.180263 C86.9491475,364.201607 58.1503014,364.329209 37.9544846,350.485016" id="Stroke-221" stroke="#B5E2C7" stroke-width="2.83" stroke-linecap="round" stroke-linejoin="round"/><path d="M331.383873,296.602548 C328.521035,300.664547 324.627789,303.846817 320.785962,306.97579 C312.855226,313.434105 304.924489,319.89242 296.993753,326.35141 C296.651841,326.630035 296.287225,326.919455 295.85249,326.986245 C294.403375,327.20955 293.851776,325.130314 293.969976,323.654879 C294.448117,317.66274 296.032127,311.823743 297.608124,306.027923 C300.08698,296.911532 302.67068,287.569812 308.198689,279.941 C312.224159,274.386026 326.432839,262.587272 333.952214,268.728507 C340.284916,273.900286 335.21635,291.165636 331.383873,296.602548" id="Fill-159" fill="#CEECDA"/><path d="M191.05559,384.502524 C195.037784,387.978776 199.875819,390.293344 204.648904,392.563936 C214.498848,397.251936 224.349468,401.939259 234.200088,406.627259 C234.624963,406.829555 235.075548,407.037264 235.545076,406.998023 C237.109268,406.86812 237.172864,404.58738 236.686422,403.094175 C234.712915,397.034078 231.627155,391.408343 228.558984,385.822526 C223.733127,377.039884 218.742192,368.049532 211.106608,361.557779 C205.546014,356.830538 187.841961,348.197419 181.520244,356.398882 C176.196444,363.30673 185.725701,379.849707 191.05559,384.502524" id="Fill-174" fill="#CEECDA"/><path d="M267.876752,361.963451 C264.039168,357.716983 259.120737,354.600037 254.267442,351.538223 C244.251457,345.218945 234.235472,338.898995 224.218808,332.579045 C223.787284,332.306749 223.327941,332.025041 222.815675,332.004199 C221.107896,331.936965 220.735401,334.370146 221.061758,336.032831 C222.385507,342.779714 224.969227,349.209927 227.539377,355.593749 C231.58051,365.634401 235.773627,375.917094 243.155683,383.874853 C248.5321,389.669709 266.506186,401.251354 274.429005,393.307042 C281.102032,386.616636 273.013659,367.648717 267.876752,361.963451" id="Fill-190" fill="#CEECDA"/><path d="M303.812592,375.523878 C299.634147,372.367288 296.407467,368.14341 293.236289,363.975092 C286.691109,355.371635 280.145244,346.768177 273.59938,338.164033 C273.316386,337.792952 273.023799,337.397864 272.96624,336.93487 C272.77438,335.390184 274.972552,334.864772 276.518398,335.032822 C282.792232,335.714623 288.872836,337.563856 294.91027,339.404857 C304.403933,342.299427 314.131939,345.312661 321.976287,351.400861 C327.688245,355.833943 339.65485,371.25473 332.989758,379.057037 C327.377157,385.628123 309.406007,379.748441 303.812592,375.523878" id="Fill-206" fill="#CEECDA"/></g></g></svg>