<svg viewBox="-667.15 257.3375000000001 1743.6874999999998 1256.4125000000001" fill="none" xmlns="http://www.w3.org/2000/svg" xmlns:xlink="http://www.w3.org/1999/xlink" overflow="visible" width="1743.6874999999998px" height="1256.4125000000001px"><g id="Master/Character/Avatar"><g id="Backdrop" opacity="0.75" transform="translate(57 66) scale(4 4)"><g id="Backdrop/Pattern 4"><g id="Group 31"><path id="Fill 1 Copy" fill-rule="evenodd" clip-rule="evenodd" d="M88.8525 59.3434L16.9236 258.016L231 222.459L88.8525 59.3434Z" fill="#7782FD"/><path id="Fill 8 Copy" fill-rule="evenodd" clip-rule="evenodd" d="M239.576 164.881C218.985 194.289 178.273 201.307 148.639 180.557C119.007 159.809 111.676 119.151 132.267 89.743C152.859 60.335 193.572 53.3188 223.204 74.0673C252.838 94.8174 260.168 135.474 239.576 164.881" fill="#7CE8FF"/></g></g></g><g id="Head" transform="translate(-19 170) scale(4 4)"><g id="Head/Long and Wavy"><g id="Group 21"><path id="Fill 1" fill-rule="evenodd" clip-rule="evenodd" d="M197.585 173.589C176.336 173.59 152.399 165.215 151.013 164.724L151.849 162.367C152.31 162.531 198.197 178.583 218.468 166.64C223.49 163.681 226.54 159.16 227.532 153.204C229.728 140.037 236.099 133.019 241.72 126.827C247.591 120.36 252.66 114.776 251.92 103.562C250.632 84.058 242.49 59.353 242.408 59.106L244.781 58.318C244.864 58.568 253.106 83.57 254.414 103.397C255.226 115.67 249.564 121.905 243.571 128.507C237.918 134.734 232.072 141.173 229.999 153.615C228.878 160.336 225.426 165.443 219.735 168.795C213.764 172.313 205.877 173.589 197.585 173.589" fill="#2E0BFF"/><path id="SKIN" fill-rule="evenodd" clip-rule="evenodd" d="M172.094 193.579C183.262 198.271 213.858 196.582 213.858 196.582C213.858 196.582 209.354 175.606 208.931 160.073C208.874 157.958 210.575 155.924 212.688 155.833C214.572 155.753 219.349 155.756 221.475 155.207C254.234 146.756 249.617 86.9617 241.358 63.4977C235.74 47.5397 223.48 37.0397 213.202 33.4647C192.136 26.1377 178.288 30.4617 165.149 37.7827C163.597 38.6467 141.075 53.8307 140.231 83.6767C139.676 103.297 152.182 121.93 152.197 121.969C152.995 124.08 147.552 131.683 141.357 142.663C138.361 147.975 133.427 155.709 129.813 162.372C129.813 162.372 149.757 187.572 172.094 193.579" fill="#c7763c"/><path id="Fill 5" fill-rule="evenodd" clip-rule="evenodd" d="M162.277 100.789C164.298 104.29 164.464 107.979 162.645 109.029C160.827 110.079 157.715 108.091 155.694 104.59C153.672 101.088 153.507 97.3992 155.325 96.3502C157.143 95.3002 160.256 97.2882 162.277 100.789" fill="#CDF267"/><path id="Fill 7" fill-rule="evenodd" clip-rule="evenodd" d="M167.287 92.6974C166.692 92.2614 166.105 91.8134 165.521 91.3614C164.943 90.9164 164.376 90.4284 163.763 90.0324C162.912 89.4814 162.013 89.0204 161.087 88.5934C160.951 88.5374 160.815 88.4814 160.679 88.4254C160.439 88.3434 160.2 88.2554 159.958 88.1784C159.692 88.0944 159.427 88.0144 159.157 87.9344C158.907 87.8624 158.649 87.8054 158.391 87.7524C157.926 87.6524 157.457 87.5644 156.989 87.4794C156.722 87.4464 156.46 87.4184 156.192 87.3984C155.942 87.3794 155.684 87.3754 155.434 87.3714C155.157 87.3674 154.88 87.3604 154.606 87.3754C154.466 87.3864 154.317 87.3864 154.177 87.4054C154.069 87.4194 153.962 87.4344 153.855 87.4474C153.62 87.4964 153.385 87.5444 153.153 87.6074C152.908 87.6724 152.671 87.7514 152.433 87.8314C152.319 87.8794 152.204 87.9284 152.087 87.9764C151.985 88.0184 151.888 88.0754 151.79 88.1254C151.73 88.1544 151.669 88.1844 151.609 88.2144C151.531 88.2614 151.454 88.3104 151.376 88.3574C151.22 88.4564 151.052 88.5474 150.899 88.6504C150.696 88.7914 150.497 88.9284 150.294 89.0654C150.253 89.0934 150.214 89.1234 150.174 89.1514C150.144 89.1794 150.112 89.2044 150.083 89.2334C149.801 89.5084 149.547 89.8094 149.296 90.1144C148.796 90.7604 148.347 91.4404 147.966 92.1604C147.731 92.7394 147.517 93.3064 147.341 93.8844C147.243 94.2044 147.145 94.5244 147.075 94.8514C147.007 95.1774 146.952 95.5044 146.897 95.8334C146.855 96.1704 146.814 96.5104 146.79 96.8524C146.788 96.8964 146.787 96.9404 146.786 96.9844C146.793 97.4344 146.82 97.8904 146.849 98.3524C147.349 103.377 148.851 107.842 151.887 111.947C157.045 118.924 154.975 117.669 154.098 125.67C152.27 142.328 150.856 156.235 138.667 169.223C132.104 176.217 123.895 181.473 117.112 188.253C103.307 202.05 106.308 215.958 96.6199 232.903C88.2169 247.598 74.6579 268.379 45.0909 272.2C36.7289 273.28 31.742 272.986 25.366 279.232C20.172 284.32 15.6329 290.123 10.1169 294.884C2.77494 301.219 -5.29606 306.984 -14.5581 310.123C-20.7601 312.226 -27.3351 313.31 -33.7981 314.245C-40.6291 315.234 -47.4991 315.927 -54.3381 316.857C-58.0211 317.357 -61.6971 317.922 -65.3451 318.639C-69.0211 319.362 -72.6181 320.449 -76.0571 321.934C-79.8551 323.573 -87.1971 326.27 -92.1941 328.387C-104.57 333.63 -118.462 334.565 -131.212 330.31C-146.259 325.289 -159.579 313.396 -157.848 289.719C-156.687 273.827 -142.272 261.336 -128.466 253.379C-107.842 241.493 -79.9871 240.248 -65.8181 221.12C-59.8111 213.01 -57.3571 202.855 -52.6501 193.926C-47.0531 183.312 -38.1601 174.466 -27.5151 168.927C-12.2161 160.966 6.12294 158.686 19.0129 147.227C26.4169 140.645 28.0439 132.167 29.2009 129.696C29.9119 128.18 30.7709 126.741 31.6539 125.314C33.0799 123.018 34.7249 120.875 36.6889 118.987C39.3069 116.475 42.2399 114.29 45.4079 112.47C46.9119 111.606 48.4469 110.742 50.0639 110.095C52.0019 109.319 53.939 108.584 55.92 107.922C58.904 106.924 61.9549 106.113 64.9079 105.029C66.1389 104.522 67.3649 104.02 68.5369 103.391C69.7669 102.737 70.916 102.002 72.049 101.207C74.01 99.6004 75.7359 97.7924 77.3609 95.8624C78.4319 94.3894 79.4549 92.8784 80.3179 91.2834C81.3459 89.3994 82.264 87.4614 83.185 85.5274C83.555 84.7524 83.9339 83.9874 84.3349 83.2304C84.7369 82.4724 85.193 81.7454 85.672 81.0324C87.176 78.7914 88.7209 76.5204 90.5959 74.5454C93.0879 71.9264 95.9469 69.6774 99.0569 67.7924C100.514 66.9134 102.064 66.1634 103.599 65.4254C105.158 64.6754 106.717 63.9444 108.322 63.2934C111.713 61.9154 115.201 60.7614 118.736 59.8024C121.986 58.9194 125.24 58.1164 128.408 56.9814C129.76 56.4414 131.111 55.8744 132.357 55.1434C133.752 54.3324 135.084 53.4684 136.392 52.5434C137.752 51.4434 139.049 50.3124 140.314 49.1134C141.56 47.9294 142.76 46.7004 143.971 45.4824C146.24 43.2014 148.463 40.8874 150.892 38.7634C153.65 36.3504 156.498 33.9894 159.615 32.0184C162.549 30.1644 165.588 28.4214 168.826 27.1184C171.982 25.8514 175.26 24.7174 178.615 24.0734C180.56 23.7004 182.502 23.3814 184.471 23.1634C185.517 23.0504 186.576 23.0004 187.635 23.0004C188.221 23.0004 188.81 23.0154 189.392 23.0424C191.045 23.1144 192.693 23.1864 194.33 23.3814C196.174 23.5934 198.095 23.7444 199.885 24.2484C208.12 26.5664 210.324 32.2234 211.029 32.4324C211.601 32.6014 217.505 30.6024 225.929 35.0794C225.947 35.0894 225.963 35.1024 225.981 35.1134C237.005 41.4494 242.684 52.8374 244.974 58.6114C244.974 58.6114 251.477 72.1324 216.564 88.7444C181.651 105.356 179.117 90.7154 177.145 105.356C175.175 119.997 184.466 117.745 181.369 125.629C178.272 133.512 174.048 137.736 176.301 141.114C178.554 144.493 174.048 143.085 173.204 139.143C172.359 135.201 177.145 130.227 174.893 123.751C172.641 117.276 167.666 116.618 170.201 107.609C172.735 98.5994 170.81 95.3614 167.287 92.6974" fill="#2E0BFF"/><path id="Fill 9" fill-rule="evenodd" clip-rule="evenodd" d="M207.333 157.345C207.313 157.329 207.29 157.318 207.271 157.306C207.243 157.29 207.22 157.275 207.196 157.263C207.251 157.2 207.294 157.126 207.325 157.04C207.329 157.028 207.327 157.014 207.33 157.001C207.352 157.005 207.377 157.01 207.401 157.014C207.366 157.12 207.338 157.228 207.333 157.345" fill="#D42D66"/><path id="Fill 13" fill-rule="evenodd" clip-rule="evenodd" d="M209.46 158.114C210.104 156.895 211.572 156.037 211.572 156.037C211.572 156.037 201.983 153.581 193.478 148.189C193.181 148.001 192.857 148.391 193.098 148.647C200.683 156.717 208.897 161.106 208.897 161.106C208.897 161.106 208.768 159.426 209.46 158.114" fill="#D42D66"/><path id="Fill 15" fill-rule="evenodd" clip-rule="evenodd" d="M156.874 118.886C156.604 118.886 156.335 118.778 156.139 118.563C155.936 118.343 151.133 113.098 148.45 107.9C146.266 103.669 145.48 99.2089 146.181 95.0029C146.74 91.6409 148.128 89.2009 150.305 87.7519C153.455 85.6549 157.066 86.4699 157.218 86.5059C157.756 86.6319 158.089 87.1709 157.963 87.7079C157.837 88.2449 157.301 88.5759 156.764 88.4529C156.733 88.4469 153.812 87.8069 151.396 89.4279C149.708 90.5609 148.617 92.5469 148.153 95.3309C147.524 99.1089 148.242 103.137 150.228 106.983C152.784 111.938 157.561 117.157 157.61 117.209C157.983 117.615 157.957 118.248 157.551 118.622C157.359 118.799 157.116 118.886 156.874 118.886" fill="white"/><path id="Fill 17" fill-rule="evenodd" clip-rule="evenodd" d="M239.841 59.9933C239.475 59.9933 239.123 59.7923 238.947 59.4433C233.562 48.7663 227.469 43.3063 223.306 40.6053C218.814 37.6903 215.545 37.2783 215.513 37.2743C214.965 37.2093 214.571 36.7143 214.634 36.1663C214.696 35.6193 215.194 35.2213 215.737 35.2863C216.311 35.3503 229.914 37.0953 240.733 58.5433C240.982 59.0363 240.783 59.6373 240.29 59.8863C240.146 59.9593 239.992 59.9933 239.841 59.9933" fill="white"/></g></g></g><g id="Face" transform="translate(753 466) scale(4 4)"><g id="Face/Unisex Calm"><g id="Group 16"><path id="Fill 1" fill-rule="evenodd" clip-rule="evenodd" d="M56.2661 19.9716C56.1611 17.4496 55.9731 16.9446 55.9731 16.9446C54.1861 17.0266 53.4661 17.1236 52.2241 17.2436C50.6841 17.3916 49.3691 18.4526 48.9581 19.9456L48.9451 19.9936C48.5051 21.6256 48.5191 23.0506 48.5191 23.0506L56.2541 22.9046C56.2541 22.9046 56.3401 21.7346 56.2661 19.9716" fill="#2E0BFF"/><path id="Fill 3" fill-rule="evenodd" clip-rule="evenodd" d="M39.5756 53.6435L33.8416 52.6925C33.5696 52.6475 33.3846 52.3905 33.4296 52.1185C33.4746 51.8455 33.7306 51.6585 34.0046 51.7065L38.7466 52.4925L43.0346 25.6745C43.0776 25.4025 43.3356 25.2155 43.6076 25.2605C43.8796 25.3035 44.0656 25.5595 44.0216 25.8325L39.5756 53.6435Z" fill="white"/><g id="Group 7"><path id="Fill 5" fill-rule="evenodd" clip-rule="evenodd" d="M10.7539 16.0166C10.4479 15.9616 10.4069 15.5376 10.7009 15.4336C12.8729 14.6686 17.9679 12.9846 21.8629 12.5636C25.5419 12.1646 32.1709 13.7436 35.5559 14.6476C37.0509 15.0466 38.1739 16.3096 38.3339 17.8496C38.3359 17.8656 38.3369 17.8826 38.3389 17.8986C38.5049 19.5806 38.2569 20.9846 38.2569 20.9846L10.7539 16.0166Z" fill="#2E0BFF"/></g><path id="Fill 8" fill-rule="evenodd" clip-rule="evenodd" d="M28.2485 30.351C30.6835 30.315 32.9455 29.592 32.9455 29.592C33.0885 29.527 33.2465 29.535 33.3765 29.6C33.4765 29.649 33.5585 29.73 33.6075 29.838C33.7235 30.089 33.6145 30.385 33.3645 30.501C33.2505 30.553 30.5285 31.781 25.6205 31.369C19.4005 30.847 11.1395 24.959 10.7905 24.709C10.5665 24.548 10.5155 24.236 10.6765 24.012C10.8365 23.788 11.1475 23.738 11.3735 23.897C11.4395 23.945 16.7715 27.743 21.9455 29.514C22.4835 29.698 23.0335 29.827 23.5945 29.926C24.6665 30.114 26.4995 30.377 28.2485 30.351" fill="black"/><path id="Fill 10" fill-rule="evenodd" clip-rule="evenodd" d="M51.8524 31.644C49.9814 31.131 49.0154 30.527 49.0004 30.517C48.8684 30.433 48.7104 30.417 48.5724 30.464C48.4674 30.498 48.3734 30.568 48.3104 30.667C48.1604 30.899 48.2264 31.207 48.4574 31.357C48.5624 31.425 51.1434 33.027 56.0604 33.313C56.1484 33.318 55.9704 33.31 56.0604 33.313C56.0604 33.313 56.0864 32.985 56.1124 32.277C55.8554 32.301 52.3224 31.883 51.8524 31.644" fill="black"/><path id="Fill 12" fill-rule="evenodd" clip-rule="evenodd" d="M20.9302 59.8711C20.9302 59.8711 28.5442 65.2321 32.4392 66.0301C36.3342 66.8281 39.4192 64.3291 39.4192 64.3291L20.9302 59.8711Z" fill="#D7D8FF"/><path id="Fill 14" fill-rule="evenodd" clip-rule="evenodd" d="M20.9302 59.8711C20.9302 59.8711 23.2012 60.2291 24.7662 60.1531C27.8962 60.0001 32.5982 59.9961 33.2482 60.1531C33.8052 60.2881 37.5162 61.1641 38.1402 62.0531C38.4592 62.5071 38.5982 62.8741 38.7622 63.3911C38.9832 64.0831 39.4192 64.3291 39.4192 64.3291L20.9302 59.8711Z" fill="#7881FC"/></g></g></g><g id="Facial Hair" transform="translate(781 654) scale(248 64)"><g id="Facial Hair/None" stroke="none" stroke-width="1" fill="none" fill-rule="evenodd" fill-opacity="0"/></g><g id="Earrings" transform="translate(541 566) scale(4 4)"><g id="Earrings/Hoops and Studs"><path id="Shape" fill-rule="evenodd" clip-rule="evenodd" d="M54.9428 36.3958C56.8369 49.8733 47.381 62.3841 33.8659 64.2835C20.3507 66.1829 7.8127 56.7632 5.91855 43.2857C5.08866 37.3807 6.42827 31.3778 9.69117 26.3851C10.1467 25.689 11.0813 25.491 11.7801 25.9441C12.4791 26.3983 12.6758 27.331 12.2204 28.0281C9.3566 32.4114 8.18144 37.6802 8.91015 42.8652C10.5733 54.6989 21.5804 62.9695 33.4468 61.3018C45.3132 59.6341 53.6143 48.6499 51.9512 36.8162C50.2882 24.9835 39.281 16.7129 27.4146 18.3806C26.5888 18.4967 25.8257 17.9243 25.7099 17.1004C25.5941 16.2765 26.1697 15.515 26.9956 15.3989C40.5108 13.4995 53.0488 22.9192 54.9428 36.3958ZM22.9664 11.8429C23.1232 12.9589 22.3453 13.9912 21.2293 14.1481C20.1123 14.305 19.08 13.5271 18.9231 12.4111C18.7663 11.2951 19.544 10.2618 20.661 10.1048C21.7771 9.94795 22.8095 10.7268 22.9664 11.8429ZM18.6771 6.75895C18.7891 7.55611 18.2343 8.2935 17.4362 8.40567C16.639 8.51771 15.9025 7.9618 15.7905 7.16464C15.6784 6.36747 16.2332 5.63009 17.0304 5.51805C17.8285 5.40588 18.565 5.96178 18.6771 6.75895Z" fill="#FFAA00"/></g></g></g></svg>